<?xml version="1.0" standalone="no"?>
<!DOCTYPE svg PUBLIC "-//W3C//DTD SVG 1.1//EN" "http://www.w3.org/Graphics/SVG/1.1/DTD/svg11.dtd" >
<svg xmlns="http://www.w3.org/2000/svg" xmlns:xlink="http://www.w3.org/1999/xlink" version="1.1">
<metadata>
Created by FontForge 20170731 at Tue Sep 16 06:13:35 2008
 By Aleksey,,,
Copyright (c) 2007 by Silas Dilworth. All rights reserved.
</metadata>
<defs>
<font id="BreuerText-BoldItalic" horiz-adv-x="540" >
  <font-face 
    font-family="Breuer Text"
    font-weight="700"
    font-style="italic"
    font-stretch="normal"
    units-per-em="1000"
    panose-1="2 0 8 6 2 0 0 9 0 4"
    ascent="750"
    descent="-250"
    x-height="500"
    cap-height="650"
    bbox="-110 -201 1008.26 872"
    underline-thickness="50"
    underline-position="-150"
    slope="-10"
    unicode-range="U+0020-2265"
  />
<missing-glyph horiz-adv-x="240" 
 />
    <glyph glyph-name=".notdef" horiz-adv-x="240" 
 />
    <glyph glyph-name=".null" horiz-adv-x="0" 
 />
    <glyph glyph-name="nonmarkingreturn" horiz-adv-x="0" 
 />
    <glyph glyph-name="space" unicode=" " horiz-adv-x="180" 
 />
    <glyph glyph-name="exclam" unicode="!" horiz-adv-x="276" 
d="M129 650h166l-109 -433h-100zM50 146h146l-25 -146h-146z" />
    <glyph glyph-name="quotedbl" unicode="&#x22;" horiz-adv-x="370" 
d="M99 360q5 72 7.5 145t7.5 145h134l-89 -290h-60zM259 360q5 72 7.5 145t7.5 145h134l-89 -290h-60z" />
    <glyph glyph-name="numbersign" unicode="#" horiz-adv-x="560" 
d="M489 156h-94l-40 -156h-91l40 156h-106l-40 -156h-90l41 156h-94l21 78h94l48 183h-94l21 78h94l40 155h90l-41 -155h106l41 155h91l-41 -155h94l-21 -78h-94l-48 -183h94zM219 234h106l48 183h-106z" />
    <glyph glyph-name="dollar" unicode="$" horiz-adv-x="511" 
d="M470 225q-5 -26 -13 -52t-28 -47t-55 -36t-93 -20l-16 -90h-106l16 90q-46 4 -75.5 16.5t-44.5 33.5t-18 50t4 67h134q-6 -35 10.5 -47t60.5 -12q42 0 63 11.5t25 35.5q3 16 1.5 27t-11.5 18t-29 11t-52 7q-56 4 -90.5 15t-52.5 29t-21.5 44t2.5 60q12 69 59.5 107
t125.5 46l15 81h106l-15 -81q82 -8 110.5 -47t14.5 -121h-136q1 10 1.5 20.5t-5 19.5t-19.5 15t-41 6q-44 0 -60 -14.5t-20 -35.5q-5 -27 8 -39.5t63 -16.5q66 -6 105 -15.5t58.5 -27t22.5 -43.5t-4 -65z" />
    <glyph glyph-name="percent" unicode="%" horiz-adv-x="652" 
d="M205 372q-36 0 -61 7t-39 24t-18 45t4 69q14 82 54 113.5t111 31.5q72 0 100.5 -31.5t14.5 -113.5q-8 -41 -21.5 -69t-33.5 -45t-47.5 -24t-63.5 -7zM217 441q29 0 45 15t24 61t-2.5 61t-39.5 15t-44.5 -15t-23.5 -61t2 -61t39 -15zM569 650h89l-541 -650h-89zM481 278
q71 0 99.5 -31.5t14.5 -113.5t-54.5 -113.5t-111.5 -31.5q-72 0 -100 31.5t-14 113.5t54.5 113.5t111.5 31.5zM468 209q-29 0 -44.5 -15t-23.5 -61t2.5 -61t39.5 -15t44.5 15t23.5 61t-2.5 61t-39.5 15z" />
    <glyph glyph-name="ampersand" unicode="&#x26;" horiz-adv-x="608" 
d="M508 275l-17 -97q-7 -38 8.5 -51t48.5 -13l-20 -114q-49 0 -83.5 10.5t-49.5 43.5q-34 -35 -74.5 -50.5t-97.5 -15.5q-119 0 -163.5 44.5t-30.5 142.5q8 60 46.5 99t93.5 60q-43 24 -61.5 61t-9.5 86q16 92 74.5 136.5t167.5 44.5q58 0 98 -9.5t62.5 -31.5t28.5 -58.5
t-3 -89.5h-140q7 44 -9 59.5t-55 15.5q-38 0 -58.5 -17t-27.5 -59q-15 -87 56 -87h298l-19 -110h-63zM248 102q42 0 69.5 21t36.5 72l14 80h-100q-35 0 -61 -20.5t-34 -66.5q-9 -51 11.5 -68.5t63.5 -17.5z" />
    <glyph glyph-name="quotesingle" unicode="'" horiz-adv-x="213" 
d="M99 360q5 72 7.5 145t7.5 145h134l-89 -290h-60v0z" />
    <glyph glyph-name="parenleft" unicode="(" horiz-adv-x="322" 
d="M162 285q-22 -121 -2.5 -224.5t70.5 -180.5h-97q-57 81 -77.5 185t-0.5 220t77.5 220t143.5 185h97q-78 -77 -134 -180.5t-77 -224.5z" />
    <glyph glyph-name="parenright" unicode=")" horiz-adv-x="322" 
d="M180 285q21 121 1.5 224.5t-70.5 180.5h97q57 -81 78 -185t1 -220t-78 -220t-144 -185h-97q78 77 134 180.5t78 224.5z" />
    <glyph glyph-name="asterisk" unicode="*" horiz-adv-x="532" 
d="M510 593l21 -142l-190 -7l128 -117l-135 -87l-35 177l-97 -177l-105 87l170 117l-188 7l71 142l139 -105l-20 182h150l-84 -182z" />
    <glyph glyph-name="plus" unicode="+" horiz-adv-x="512" 
d="M67 324h157l27 158h98l-27 -158h157l-18 -98h-157l-28 -158h-98l28 158h-157z" />
    <glyph glyph-name="comma" unicode="," horiz-adv-x="226" 
d="M25 146h146l-104 -252h-86z" />
    <glyph glyph-name="hyphen" unicode="-" horiz-adv-x="350" 
d="M68 332h250l-20 -114h-250z" />
    <glyph glyph-name="period" unicode="." horiz-adv-x="226" 
d="M25 146h146l-25 -146h-146z" />
    <glyph glyph-name="slash" unicode="/" horiz-adv-x="343" 
d="M287 690h107l-304 -730h-108z" />
    <glyph glyph-name="zero" unicode="0" horiz-adv-x="554" 
d="M254 102q28 0 48 5t33 16.5t21 30.5t13 48l43 243q11 61 -7.5 82t-71.5 21q-51 0 -77.5 -22t-37.5 -81l-43 -243q-10 -57 6 -78.5t73 -21.5zM353 662q121 0 170 -51t28 -170l-40 -230q-21 -119 -88 -171t-187 -52t-170 52t-29 171l40 230q10 60 32 102t56 68.5t80.5 38.5
t107.5 12z" />
    <glyph glyph-name="one" unicode="1" horiz-adv-x="387" 
d="M117 0l94 536h-107l11 62l166 52h90l-114 -650h-140z" />
    <glyph glyph-name="two" unicode="2" 
d="M81 453q10 57 32.5 97t56.5 65t79 36t100 11q66 0 107 -15t63 -42t26 -65t-4 -85q-10 -57 -39.5 -93t-69 -60.5t-83 -41t-82 -35.5t-66 -44.5t-34.5 -66.5h318l-20 -114h-465l15 89q12 69 43.5 113t72 72.5t85.5 46.5t83.5 35t66 38.5t34.5 57.5q8 46 -6 71t-65 25
q-48 0 -74 -21t-36 -74h-138z" />
    <glyph glyph-name="three" unicode="3" horiz-adv-x="553" 
d="M256 102q56 0 81.5 23.5t33.5 66.5q5 30 -2 46.5t-20 25t-29.5 10t-30.5 1.5h-61l19 110h54q20 0 37.5 3t31 11.5t23 25t14.5 43.5q6 36 -7.5 58t-67.5 22q-51 0 -76 -21.5t-35 -73.5h-137q19 106 81.5 157.5t184.5 51.5q67 0 109 -14t64 -39.5t27 -60.5t-2 -77
q-9 -50 -40 -84.5t-86 -52.5q109 -33 88 -149q-8 -44 -23 -80t-45.5 -62t-79 -40.5t-123.5 -14.5q-128 0 -176 51t-29 157h138q-16 -94 84 -94z" />
    <glyph glyph-name="four" unicode="4" horiz-adv-x="561" 
d="M302 130h-295l20 111l329 409h178l-71 -406h71l-21 -114h-71l-22 -130h-140zM323 244l49 282l-220 -282h171z" />
    <glyph glyph-name="five" unicode="5" horiz-adv-x="539" 
d="M156 650h388l-20 -114h-269l-36 -143q29 14 61 22.5t60 8.5q46 0 81 -9t56.5 -32t28.5 -63t-4 -101q-10 -56 -28 -99.5t-49.5 -72.5t-79.5 -44t-117 -15q-128 0 -175.5 51t-28.5 157h138q-9 -51 11.5 -72.5t71.5 -21.5t78.5 26t38.5 91q6 32 5 53t-10 33.5t-26.5 17.5
t-44.5 5q-19 0 -44.5 -9t-39.5 -20h-139z" />
    <glyph glyph-name="six" unicode="6" horiz-adv-x="550" 
d="M204 364q34 18 65.5 26t75.5 8q54 0 89 -12.5t53.5 -36.5t22.5 -60.5t-5 -84.5q-8 -48 -25 -88t-48 -68.5t-79 -44t-117 -15.5q-71 0 -114.5 17t-65 46.5t-25.5 68.5t4 83l44 250q19 106 83.5 157.5t182.5 51.5q63 0 104.5 -12.5t65 -37.5t30 -61.5t-2.5 -85.5h-140
q8 42 -9 62.5t-68 20.5q-42 0 -68.5 -18.5t-36.5 -72.5zM291 305q-31 0 -57.5 -9t-46.5 -25l-10 -61q-5 -26 -4.5 -46t8 -34t24 -21t44.5 -7q31 0 51.5 7t33.5 20t20 31.5t11 42.5q10 55 -5 78.5t-69 23.5z" />
    <glyph glyph-name="seven" unicode="7" horiz-adv-x="474" 
d="M55 0l306 536h-287l20 114h434l-17 -98l-308 -552h-148z" />
    <glyph glyph-name="eight" unicode="8" horiz-adv-x="549" 
d="M234 -12q-124 0 -177.5 42.5t-36.5 141.5q12 69 51.5 106t90.5 54q-44 20 -63 56.5t-9 93.5q17 96 81 138t179 42q110 0 162 -41.5t36 -135.5q-10 -57 -41.5 -94.5t-82.5 -58.5q22 -9 40 -22t30 -32t16.5 -45.5t-1.5 -60.5q-17 -99 -84 -141.5t-191 -42.5zM302 381
q18 0 35 3.5t31.5 13t24.5 25.5t14 41q9 48 -9.5 66t-66.5 18t-72.5 -18t-33.5 -66q-4 -25 0.5 -41t15.5 -25.5t27 -13t34 -3.5zM252 102q51 0 80 19.5t37 65.5q5 29 1 47t-15.5 28t-29.5 13.5t-41 3.5t-42.5 -3.5t-34.5 -13.5t-26 -28t-16 -47q-8 -46 14 -65.5t73 -19.5z
" />
    <glyph glyph-name="nine" unicode="9" horiz-adv-x="550" 
d="M380 289q-17 -9 -33 -15.5t-32.5 -10.5t-35 -6t-40.5 -2q-54 0 -89 12.5t-53.5 36.5t-22.5 60.5t5 84.5q8 46 25 85t48.5 67.5t79.5 44.5t117 16q71 0 114 -17t64.5 -46.5t25 -68.5t-4.5 -83l-44 -250q-18 -106 -81.5 -157.5t-181.5 -51.5q-65 0 -107.5 12t-66.5 37
t-30 62t3 87h137q-8 -42 10 -63t69 -21q42 0 70 18.5t38 72.5zM293 348q31 0 57.5 9t46.5 25l10 58q9 52 -4.5 80t-68.5 28q-31 0 -51.5 -7t-33.5 -20t-20 -31.5t-11 -42.5q-10 -55 5.5 -77t69.5 -22z" />
    <glyph glyph-name="colon" unicode=":" horiz-adv-x="226" 
d="M25 146h146l-25 -146h-146zM74 420h146l-26 -146h-146z" />
    <glyph glyph-name="semicolon" unicode=";" horiz-adv-x="226" 
d="M74 420h146l-26 -146h-146zM25 146h146l-104 -252h-86z" />
    <glyph glyph-name="less" unicode="&#x3c;" horiz-adv-x="365" 
d="M47 325l259 365h110l-263 -371l132 -359h-108z" />
    <glyph glyph-name="equal" unicode="=" horiz-adv-x="512" 
d="M67 326l17 98h412l-17 -98h-412zM32 126l17 98h412l-17 -98h-412z" />
    <glyph glyph-name="greater" unicode="&#x3e;" horiz-adv-x="365" 
d="M352 325l-259 -365h-110l263 371l-132 359h108z" />
    <glyph glyph-name="question" unicode="?" horiz-adv-x="530" 
d="M226 361q48 0 78 4.5t47.5 16.5t26 32.5t14.5 52.5q4 25 0.5 40.5t-14 24t-25.5 11.5t-33 3t-34.5 -3t-29.5 -12t-22.5 -25t-14.5 -42h-138q18 103 79 150.5t180 47.5q120 0 164.5 -47.5t27.5 -147.5q-9 -53 -27.5 -89.5t-44.5 -60t-60.5 -36t-76.5 -17.5l-20 -68h-89z
M176 146h146l-25 -146h-146z" />
    <glyph glyph-name="at" unicode="@" horiz-adv-x="790" 
d="M75 316q23 132 118 209t268 77q86 0 145.5 -20t94 -57t45.5 -90t-1 -119l-26 -146q-12 -66 -41 -119t-77 -90t-114.5 -57t-152.5 -20q-85 0 -144.5 20t-94.5 57t-46.5 90t0.5 119zM144 174q-36 -202 206 -202q123 0 190.5 49.5t85.5 152.5l25 138q17 103 -33 152.5
t-173 49.5q-242 0 -276 -202zM353 142q23 0 44 7.5t40 21.5l10 57l-82 -9q-22 -2 -32.5 -12.5t-13.5 -27.5q-3 -18 7 -27.5t27 -9.5zM220 169q8 47 41 72.5t94 30.5l101 7l6 35q5 24 -6 35t-40 11q-31 0 -44.5 -12t-17.5 -35h-94q11 60 51.5 91t117.5 31q81 0 110.5 -30
t18.5 -91l-42 -239h-70l-11 30q-57 -39 -115 -39t-83 27.5t-17 75.5z" />
    <glyph glyph-name="A" unicode="A" horiz-adv-x="537" 
d="M336 124h-175l-47 -124h-144l283 650h177l57 -650h-145zM207 236h123l-8 293h-2z" />
    <glyph glyph-name="B" unicode="B" horiz-adv-x="558" 
d="M134 650h233q62 0 100.5 -10t58.5 -30.5t24 -52t-4 -75.5q-9 -54 -36 -89.5t-62 -52.5q88 -37 67 -157q-8 -42 -25.5 -76t-47.5 -57.5t-73.5 -36.5t-102.5 -13h-246zM282 114q40 0 63 17.5t31 62.5q8 49 -12 65t-57 16h-99l-28 -161h102zM254 536l-27 -151h88
q40 0 60.5 17t28.5 59q6 36 -7.5 55.5t-53.5 19.5h-89z" />
    <glyph glyph-name="C" unicode="C" horiz-adv-x="550" 
d="M256 102q48 0 73.5 23t36.5 81h138q-20 -114 -83.5 -166t-184.5 -52t-167.5 56t-25.5 177l37 208q22 124 90 178.5t185 54.5q121 0 166 -51.5t25 -165.5h-138q10 55 -7.5 79t-65.5 24q-46 0 -73.5 -22t-37.5 -76l-44 -250q-10 -54 10.5 -76t65.5 -22z" />
    <glyph glyph-name="D" unicode="D" horiz-adv-x="572" 
d="M254 536l-74 -422h79q33 0 55.5 7t36.5 21t22 34t13 46l37 214q6 36 3 56.5t-15 30t-31.5 11.5t-46.5 2h-79zM20 0l114 650h222q61 0 105.5 -9t70.5 -34.5t33.5 -70.5t-4.5 -116l-34 -188q-12 -71 -35.5 -116.5t-58.5 -71t-82.5 -35t-108.5 -9.5h-222z" />
    <glyph glyph-name="E" unicode="E" horiz-adv-x="503" 
d="M134 650h398l-20 -114h-258l-27 -151h224l-19 -110h-224l-28 -161h258l-20 -114h-398z" />
    <glyph glyph-name="F" unicode="F" horiz-adv-x="468" 
d="M20 0l114 650h378l-20 -114h-238l-27 -151h203l-19 -110h-203l-48 -275h-140z" />
    <glyph glyph-name="G" unicode="G" horiz-adv-x="570" 
d="M236 -12q-121 0 -167.5 55.5t-25.5 177.5l37 207q22 123 91 178.5t184 55.5q121 0 167 -51.5t26 -165.5h-140q9 51 -8 77t-65 26q-46 0 -73.5 -22t-37.5 -76l-44 -250q-11 -57 11.5 -77.5t69.5 -20.5q48 0 76 23t39 82l12 68h-103l19 110h243l-67 -385h-68l-16 43
q-34 -28 -72 -41.5t-88 -13.5z" />
    <glyph glyph-name="H" unicode="H" horiz-adv-x="579" 
d="M479 0h-140l48 275h-179l-48 -275h-140l114 650h140l-47 -265h179l47 265h140z" />
    <glyph glyph-name="I" unicode="I" horiz-adv-x="260" 
d="M134 650h140l-114 -650h-140z" />
    <glyph glyph-name="J" unicode="J" horiz-adv-x="360" 
d="M119 536l20 114h235l-86 -488q-8 -43 -19 -75.5t-33.5 -54.5t-59.5 -33t-97 -11q-25 0 -49 3.5t-45 8.5l20 114q12 -4 34 -8t41 -4q35 0 48.5 13.5t19.5 44.5l66 376h-95z" />
    <glyph glyph-name="K" unicode="K" horiz-adv-x="523" 
d="M332 336l146 -336h-160l-110 276l-48 -276h-140l114 650h140l-47 -266l199 266h161z" />
    <glyph glyph-name="L" unicode="L" horiz-adv-x="418" 
d="M134 650h140l-94 -536h198l-20 -114h-338z" />
    <glyph glyph-name="M" unicode="M" horiz-adv-x="729" 
d="M546 301l43 199l-211 -500h-107l-35 500l-28 -200l-52 -300h-136l114 650h195l27 -461h3l189 461h195l-114 -650h-136z" />
    <glyph glyph-name="N" unicode="N" horiz-adv-x="584" 
d="M484 0h-161l-97 453l-26 -179l-48 -274h-132l114 650h161l96 -453l28 184l47 269h132z" />
    <glyph glyph-name="O" unicode="O" horiz-adv-x="569" 
d="M422 444q9 54 -10 79t-72 25q-51 0 -79.5 -24.5t-37.5 -78.5l-42 -239q-10 -54 9 -79t71 -25q53 0 81 25t38 79zM82 440q20 113 86 167.5t192 54.5q127 0 174 -53.5t27 -168.5l-40 -230q-20 -113 -87 -167.5t-193 -54.5t-172.5 54.5t-26.5 167.5z" />
    <glyph glyph-name="P" unicode="P" horiz-adv-x="550" 
d="M302 338q48 0 73.5 20t36.5 79q10 57 -8 78t-66 21h-84l-35 -198h83zM134 650h223q58 0 100 -8.5t67 -32t32.5 -64.5t-4.5 -107q-11 -62 -32 -102.5t-54 -64.5t-78 -33.5t-103 -9.5h-85l-40 -228h-140z" />
    <glyph glyph-name="Q" unicode="Q" horiz-adv-x="569" 
d="M82 440q20 113 86 167.5t192 54.5q127 0 174 -53.5t27 -168.5l-40 -230q-17 -97 -69 -152t-148 -67q2 -23 15 -29t32 -6h50l-38 -64h-68q-54 0 -82.5 22.5t-29.5 76.5q-93 11 -126 65t-15 154zM422 444q9 54 -10 79t-72 25q-51 0 -79.5 -24.5t-37.5 -78.5l-42 -239
q-10 -54 9 -79t71 -25q53 0 81 25t38 79z" />
    <glyph glyph-name="R" unicode="R" horiz-adv-x="560" 
d="M134 650h223q59 0 101.5 -8.5t67.5 -32t32 -64.5t-5 -107q-14 -81 -48.5 -127t-90.5 -66l76 -245h-150l-64 228h-76l-40 -228h-140zM302 338q48 0 73.5 20t36.5 79q10 57 -8 78t-66 21h-84l-35 -198h83z" />
    <glyph glyph-name="S" unicode="S" horiz-adv-x="557" 
d="M366 193q3 19 0.5 32t-15 23t-37 17.5t-66.5 15.5q-47 8 -81 21.5t-55 35.5t-27.5 55t1.5 81q15 87 79.5 137.5t183.5 50.5q61 0 103 -10.5t65.5 -33.5t29.5 -59.5t-3 -88.5h-140q8 42 -10 60t-66 18t-70.5 -19t-29.5 -56q-4 -22 -2 -37.5t13 -27t33 -19t58 -13.5
q59 -10 96.5 -24t57.5 -35t24.5 -51t-2.5 -71q-10 -58 -33.5 -97.5t-59 -64t-81.5 -35t-101 -10.5q-64 0 -107 11.5t-67.5 36.5t-31 64t3.5 94h140q-9 -51 10.5 -71.5t71.5 -20.5q54 0 80 20t35 71z" />
    <glyph glyph-name="T" unicode="T" horiz-adv-x="458" 
d="M213 536h-144l20 114h428l-20 -114h-144l-94 -536h-140z" />
    <glyph glyph-name="U" unicode="U" horiz-adv-x="575" 
d="M269 650l-79 -449q-9 -52 8 -75t68 -23t75.5 23t33.5 75l79 449h140l-78 -442q-11 -63 -33 -105t-56 -67.5t-79 -36t-102 -10.5t-99 10.5t-67 36t-32.5 67.5t3.5 105l78 442h140z" />
    <glyph glyph-name="V" unicode="V" horiz-adv-x="538" 
d="M317 0h-176l-57 650h144l22 -525h2l206 525h144z" />
    <glyph glyph-name="W" unicode="W" horiz-adv-x="819" 
d="M728 650h140l-233 -650h-189l16 527l-168 -527h-189l-6 650h141l-17 -529h2l174 529h170l-13 -529h2z" />
    <glyph glyph-name="X" unicode="X" horiz-adv-x="511" 
d="M291 433h1l128 217h156l-225 -315q29 -84 57.5 -167.5t57.5 -167.5h-155q-14 57 -27 118t-27 118q-35 -57 -69.5 -118t-67.5 -118h-155q57 84 115.5 167.5t117.5 167.5l-115 315h156z" />
    <glyph glyph-name="Y" unicode="Y" horiz-adv-x="528" 
d="M196 239l-112 411h151l52 -285h2l152 285h151l-256 -411l-42 -239h-140z" />
    <glyph glyph-name="Z" unicode="Z" horiz-adv-x="507" 
d="M124 650h412l-17 -99l-341 -437h274l-20 -114h-432l17 99l339 437h-252z" />
    <glyph glyph-name="bracketleft" unicode="[" horiz-adv-x="312" 
d="M141 690h202l-12 -69h-106l-118 -672h106l-13 -69h-202z" />
    <glyph glyph-name="backslash" unicode="\" horiz-adv-x="333" 
d="M255 -40h-98l-46 730h97z" />
    <glyph glyph-name="bracketright" unicode="]" horiz-adv-x="312" 
d="M190 -120h-202l13 69h106l118 672h-106l12 69h202z" />
    <glyph glyph-name="asciicircum" unicode="^" horiz-adv-x="484" 
d="M182 351h-116l190 299h120l84 -299h-116l-46 192h-2z" />
    <glyph glyph-name="underscore" unicode="_" horiz-adv-x="485" 
d="M35 114h375l-20 -114h-375z" />
    <glyph glyph-name="grave" unicode="`" horiz-adv-x="235" 
d="M253 550h-83l-55 120h127z" />
    <glyph glyph-name="a" unicode="a" horiz-adv-x="525" 
d="M206 98q33 0 62 10.5t55 30.5l13 69h-108q-30 0 -49.5 -15t-21.5 -44q-2 -26 11 -38.5t38 -12.5zM19 136q3 34 16.5 63t37.5 49.5t59 31t82 8.5l135 -6l9 56q6 35 -7.5 49.5t-56.5 14.5q-44 0 -63 -15.5t-25 -49.5h-134q15 86 70.5 130.5t168.5 44.5q116 0 157 -43
t26 -131l-59 -338h-96l-16 44q-80 -56 -165 -56q-83 0 -114 39.5t-25 108.5z" />
    <glyph glyph-name="b" unicode="b" horiz-adv-x="539" 
d="M133 670h136l-36 -201q42 23 74.5 33t62.5 10q40 0 71.5 -8.5t51 -31t25.5 -63.5t-6 -105l-17 -97q-12 -68 -39 -110.5t-62.5 -66.5t-77.5 -33t-85 -9q-50 0 -88 11t-62 35t-33 61t0 89zM377 313q10 54 -3.5 71.5t-48.5 17.5q-32 0 -60.5 -12t-50.5 -30l-31 -178
q-8 -39 6 -62t57 -23q44 0 73 23t40 89z" />
    <glyph glyph-name="c" unicode="c" horiz-adv-x="517" 
d="M294 402q-26 0 -44 -6t-30 -19t-20 -34t-13 -52l-15 -82q-6 -33 -5 -54t9 -34t24 -18t41 -5q40 0 62 16t31 66h134q-10 -56 -31 -93t-52.5 -59t-72.5 -31t-91 -9q-57 0 -97 11t-63 38t-29 71.5t6 110.5l11 62q12 67 34 112t54.5 71t76.5 37t100 11q51 0 89 -9t61.5 -30.5
t31 -58.5t-2.5 -94h-134q4 26 2 42t-10.5 25t-23 12t-33.5 3z" />
    <glyph glyph-name="d" unicode="d" horiz-adv-x="539" 
d="M333 43q-48 -32 -86 -43.5t-73 -11.5q-38 0 -69 8t-50.5 31t-25.5 63.5t5 105.5l19 108q11 64 31 105t47.5 63.5t62 31t74.5 8.5q30 0 60 -10t62 -33l36 201h136l-118 -670h-95zM168 187q-9 -54 5 -71.5t49 -17.5q32 0 60 12t50 30l39 220q-16 18 -40 30t-56 12
q-35 0 -55 -17.5t-29 -71.5z" />
    <glyph glyph-name="e" unicode="e" horiz-adv-x="514" 
d="M299 286q34 0 49 13t18 45q6 58 -71 58q-29 0 -48 -7.5t-31 -22.5t-18.5 -36.5t-11.5 -49.5h113zM241 98q34 0 59.5 1t47.5 3.5t43 5.5t46 7l-20 -109q-45 -8 -93 -13t-101 -5q-56 0 -96 10.5t-63.5 37t-30.5 71t5 113.5l11 61q12 67 33.5 112t54 71t76.5 37t100 11
q43 0 78 -7.5t60 -26t37.5 -49t11.5 -76.5q-2 -51 -19.5 -81t-46.5 -45.5t-67.5 -19.5t-83.5 -2l-112 4q-5 -31 -4.5 -52.5t8 -34.5t23.5 -18.5t43 -5.5z" />
    <glyph glyph-name="f" unicode="f" horiz-adv-x="333" 
d="M374 575q-10 2 -24.5 3.5t-28.5 1.5q-21 0 -31.5 -9t-15.5 -33l-6 -38h74l-20 -110h-74l-84 -480h-136l84 480h-64l17 97l67 13l9 51q7 40 20.5 67t33 43t46 22.5t60.5 6.5q27 0 50.5 -3t40.5 -8l-18 -104v0z" />
    <glyph glyph-name="g" unicode="g" horiz-adv-x="539" 
d="M443 -3q-17 -98 -77.5 -138.5t-174.5 -40.5q-15 0 -35 1t-41 3.5t-42 6t-39 8.5l20 112q75 -21 155 -21q45 0 68 15.5t30 53.5l8 46q-41 -23 -74 -33t-63 -10q-40 0 -71.5 8.5t-51 31t-25 63t5.5 105.5l17 96q12 65 32.5 105.5t48 63.5t61.5 31t72 8q30 0 64 -11.5
t71 -43.5l31 43h99zM373 370q-17 14 -42.5 23t-53.5 9q-39 0 -58.5 -21.5t-29.5 -77.5l-17 -94q-10 -57 2.5 -78t51.5 -21q28 0 56 9t51 23z" />
    <glyph glyph-name="h" unicode="h" horiz-adv-x="535" 
d="M269 670l-36 -203q42 26 77.5 35.5t75.5 9.5t66.5 -9t41 -29.5t17 -54.5t-6.5 -84l-59 -335h-136l58 331q8 42 -3.5 56.5t-47.5 14.5q-23 0 -50.5 -11t-51.5 -31l-63 -360h-136l118 670h136z" />
    <glyph glyph-name="i" unicode="i" horiz-adv-x="246" 
d="M103 500h136l-88 -500h-136zM133 670h136l-23 -126h-136z" />
    <glyph glyph-name="j" unicode="j" horiz-adv-x="246" 
d="M143 -40q-14 -80 -54 -111t-107 -31q-26 0 -49.5 3t-40.5 8l19 107q10 -2 24 -3.5t28 -1.5q21 0 31.5 9t15.5 33l93 527h136zM133 670h136l-23 -126h-136z" />
    <glyph glyph-name="k" unicode="k" horiz-adv-x="495" 
d="M151 0h-136l118 670h136l-64 -363h2l162 193h156l-209 -232l129 -268h-161l-92 224h-2z" />
    <glyph glyph-name="l" unicode="l" horiz-adv-x="246" 
d="M133 670h136l-118 -670h-136z" />
    <glyph glyph-name="m" unicode="m" horiz-adv-x="773" 
d="M605 330q7 44 -3 58t-41 14q-14 0 -37.5 -7.5t-40.5 -18.5l-66 -376h-136l58 330q7 44 -3 58t-41 14q-14 0 -37.5 -7.5t-40.5 -18.5l-66 -376h-136l88 500h96l15 -37q37 23 71.5 36t75.5 13q46 0 71 -10.5t43 -37.5q34 19 72.5 33.5t81.5 14.5q42 0 68.5 -9t39 -30.5
t13 -56.5t-8.5 -87l-58 -329h-136z" />
    <glyph glyph-name="n" unicode="n" horiz-adv-x="537" 
d="M202 500l15 -43q24 16 45.5 26.5t41.5 17t40 9t42 2.5q40 0 67 -9t41.5 -29.5t17.5 -54.5t-6 -84l-59 -335h-136l58 331q8 42 -3.5 56.5t-47.5 14.5q-23 0 -51.5 -11t-52.5 -31l-63 -360h-136l88 500h99z" />
    <glyph glyph-name="o" unicode="o" horiz-adv-x="527" 
d="M172 209q-11 -66 5 -88.5t64 -22.5q24 0 41.5 5t30 17.5t20.5 34t14 54.5l15 82q6 33 5 54.5t-9.5 34t-24 17.5t-39.5 5t-41.5 -5t-30.5 -17.5t-21 -34t-14 -54.5zM485 219q-12 -68 -34 -112.5t-55 -70.5t-76.5 -37t-98.5 -11q-56 0 -96.5 11t-63.5 37t-29 70.5t6 112.5
l11 62q12 67 34 111.5t55 71t76.5 37.5t99.5 11q55 0 94.5 -11t63 -37.5t30 -71t-5.5 -111.5z" />
    <glyph glyph-name="p" unicode="p" horiz-adv-x="539" 
d="M217 457q49 32 87 43.5t68 11.5q38 0 69 -8t50.5 -31t26 -63.5t-5.5 -105.5l-19 -108q-11 -65 -31 -105.5t-47.5 -63t-62 -31t-74.5 -8.5q-30 0 -59.5 10t-62.5 33l-35 -201h-136l118 670h99zM378 313q9 54 -5 71.5t-49 17.5q-32 0 -60 -12t-50 -30l-39 -220
q16 -18 40 -30t56 -12q35 0 55 17.5t29 71.5z" />
    <glyph glyph-name="q" unicode="q" horiz-adv-x="539" 
d="M434 500h98l-118 -670h-136l35 201q-41 -23 -74.5 -33t-63.5 -10q-40 0 -71.5 8.5t-50.5 31t-24.5 63t5.5 105.5l19 108q12 65 32.5 105.5t48 63.5t61.5 31t72 8q30 0 64.5 -11.5t71.5 -43.5zM168 187q-9 -54 5 -71.5t49 -17.5q32 0 60 12t50 30l39 220q-16 18 -40 30
t-56 12q-35 0 -55 -17.5t-29 -71.5z" />
    <glyph glyph-name="r" unicode="r" horiz-adv-x="339" 
d="M343 392q-35 0 -69.5 -10t-60.5 -28l-62 -354h-136l88 500h96l15 -37q36 25 74 37t76 12z" />
    <glyph glyph-name="s" unicode="s" horiz-adv-x="501" 
d="M451 145q-5 -29 -14.5 -57t-34 -50.5t-70 -36t-121.5 -13.5q-63 0 -103 10.5t-62 31.5t-27 52.5t3 74.5h133q-6 -35 12 -47t62 -12q42 0 61.5 11.5t24.5 35.5q3 16 1.5 27t-11.5 18t-29 11t-52 7q-56 4 -90.5 15t-52.5 29t-21.5 44t2.5 60q14 79 73.5 117.5t159.5 38.5
q58 0 96.5 -9t60.5 -29t27.5 -52.5t-2.5 -80.5h-136q1 10 1.5 20.5t-5 19.5t-19.5 15t-41 6q-44 0 -59.5 -14.5t-19.5 -35.5q-5 -27 8 -39.5t63 -16.5q66 -6 105 -15.5t58.5 -27t22.5 -43.5t-4 -65z" />
    <glyph glyph-name="t" unicode="t" horiz-adv-x="343" 
d="M273 0q-19 -5 -44 -8.5t-52 -3.5q-68 0 -96.5 29.5t-14.5 109.5l46 263h-64l17 97l67 13l20 113l140 27l-24 -140h93l-20 -110h-93l-44 -250q-4 -24 3.5 -33t28.5 -9q14 0 29 1.5t26 3.5z" />
    <glyph glyph-name="u" unicode="u" 
d="M350 0l-16 43q-48 -32 -88.5 -43.5t-84.5 -11.5q-40 0 -66.5 9t-41 29.5t-16.5 54.5t7 84l59 335h136l-59 -331q-7 -42 4 -56.5t47 -14.5q23 0 51 11t51 31l64 360h136l-88 -500h-95z" />
    <glyph glyph-name="v" unicode="v" horiz-adv-x="494" 
d="M226 136h2l155 364h149l-247 -500h-156l-71 500h143z" />
    <glyph glyph-name="w" unicode="w" horiz-adv-x="744" 
d="M629 500h143l-208 -500h-164l-3 370l-132 -370h-164l-33 500h139l-1 -367l139 367h149l8 -369h2z" />
    <glyph glyph-name="x" unicode="x" horiz-adv-x="487" 
d="M365 500h155l-199 -249l116 -251h-151l-54 151h-1l-103 -151h-158l203 256l-110 244h149l50 -146h1z" />
    <glyph glyph-name="y" unicode="y" horiz-adv-x="496" 
d="M58 500h143l35 -333h2l146 333h150l-286 -558q-17 -34 -36 -57.5t-44 -38.5t-57.5 -21.5t-76.5 -6.5q-13 0 -34.5 2.5t-34.5 7.5l19 109q14 -5 31.5 -7t33.5 -2q34 0 52 12.5t36 44.5l9 17z" />
    <glyph glyph-name="z" unicode="z" horiz-adv-x="470" 
d="M93 500h386l-17 -96l-281 -294h238l-19 -110h-405l16 96l281 294h-219z" />
    <glyph glyph-name="braceleft" unicode="{" horiz-adv-x="384" 
d="M204 285q23 -15 28 -41.5t-3 -68.5l-32 -182q-4 -23 4 -33.5t31 -10.5h63l-13 -69h-63q-37 0 -62 5.5t-39 19t-17.5 37.5t2.5 62l36 205q5 23 -2 32t-29 9h-64l12 70h64q22 0 32 9t14 32l36 205q7 37 19 61.5t31 38t46 19t64 5.5h63l-12 -69h-63q-23 0 -34 -10.5
t-16 -33.5l-32 -182q-8 -42 -22 -68.5t-42 -41.5z" />
    <glyph glyph-name="bar" unicode="|" horiz-adv-x="240" 
d="M108 -120h-100l143 810h100z" />
    <glyph glyph-name="braceright" unicode="}" horiz-adv-x="384" 
d="M200 285q-23 15 -28.5 41.5t2.5 68.5l32 182q9 44 -34 44h-63l12 69h63q37 0 62 -5.5t39.5 -19t18 -38t-3.5 -61.5l-36 -205q-4 -23 3 -32t29 -9h64l-12 -70h-64q-22 0 -32 -9t-15 -32l-36 -205q-6 -38 -18 -62t-31.5 -37.5t-46.5 -19t-64 -5.5h-63l13 69h63
q23 0 34 10.5t15 33.5l32 182q8 42 22 68.5t43 41.5z" />
    <glyph glyph-name="asciitilde" unicode="~" horiz-adv-x="474" 
d="M369 492q-33 0 -53 10.5t-34 23.5t-26.5 23.5t-29.5 10.5q-15 0 -28.5 -9.5t-20.5 -46.5h-99q9 48 22 78.5t31.5 48.5t42 24.5t53.5 6.5q33 0 53 -10.5t34.5 -23.5t26.5 -23.5t29 -10.5q7 0 14.5 1.5t14 7.5t12 17t8.5 30h99q-8 -48 -21.5 -78.5t-32 -48.5t-42 -24.5
t-53.5 -6.5z" />
    <glyph glyph-name="nonbreakingspace" unicode="&#xa0;" horiz-adv-x="90" 
 />
    <glyph glyph-name="exclamdown" unicode="&#xa1;" horiz-adv-x="276" 
d="M97 283h100l-43 -433h-166zM113 500h146l-26 -146h-146z" />
    <glyph glyph-name="cent" unicode="&#xa2;" horiz-adv-x="532" 
d="M316 477q-26 0 -44 -6t-30.5 -19t-20.5 -34t-13 -52l-14 -82q-6 -33 -5.5 -54t8.5 -34t24 -18t41 -5q40 0 62.5 16t30.5 66h136q-17 -96 -66.5 -138t-125.5 -51l-15 -86h-106l15 85q-44 4 -74 18.5t-47.5 42t-21 68.5t6.5 100l11 62q10 60 28.5 101.5t45.5 68.5
t62.5 40.5t80.5 18.5l15 85h106l-16 -86q37 -5 64.5 -16.5t44 -34t21.5 -56.5t-4 -82h-136q4 26 2 42t-10 25t-22.5 12t-33.5 3z" />
    <glyph glyph-name="sterling" unicode="&#xa3;" horiz-adv-x="562" 
d="M12 0l20 114q55 0 82 20t37 73q3 15 1.5 33.5t-3.5 33.5h-89l14 82h63q-6 26 -9.5 61.5t2.5 69.5q16 87 73.5 131t162.5 44q52 0 89 -9t59 -30t28.5 -56t-2.5 -87h-140q6 34 -5 51t-47 17q-35 0 -52.5 -16t-24.5 -51q-6 -34 -3.5 -64.5t2.5 -60.5h109l-14 -82h-97
q0 -13 -0.5 -25.5t-2.5 -24.5q-7 -38 -21 -64t-39 -46h101q38 0 54.5 16t23.5 57h140q-9 -52 -24 -87.5t-39 -57.5t-59 -32t-84 -10h-306z" />
    <glyph glyph-name="currency" unicode="&#xa4;" horiz-adv-x="584" 
d="M401 350q6 37 6 60.5t-7.5 37.5t-23.5 19.5t-41 5.5t-43 -5.5t-31 -19.5t-21.5 -37.5t-14.5 -60.5l-9 -51q-6 -36 -6 -60t8 -37.5t24 -19t41 -5.5t43 5.5t30.5 19t21 37.5t14.5 60zM530 299q-15 -89 -50 -140q15 -20 29 -42t30 -42q-21 -16 -41 -30t-41 -30l-52 74
q-29 -14 -64 -20t-78 -6q-44 0 -77.5 6t-57.5 22l-79 -76l-61 58l90 86q-9 26 -8.5 60.5t8.5 79.5l9 51q8 43 20 77t29 60q-16 22 -29.5 44t-29.5 44l79 58q14 -19 26.5 -38.5t26.5 -38.5q29 17 65.5 24t80.5 7q43 0 76.5 -7t59.5 -24q20 19 39.5 38.5t39.5 38.5l57 -58
l-89 -86q8 -26 8.5 -60t-7.5 -79z" />
    <glyph glyph-name="yen" unicode="&#xa5;" horiz-adv-x="542" 
d="M185 139l9 53h-118l11 60h112l-108 398h151l52 -285h2l152 285h151l-248 -398h112l-11 -60h-118l-9 -53h118l-11 -60h-118l-13 -79h-140l13 79h-118l11 60h118z" />
    <glyph glyph-name="brokenbar" unicode="&#xa6;" horiz-adv-x="240" 
d="M191 350h-100l60 340h100zM108 -120h-100l60 340h100z" />
    <glyph glyph-name="section" unicode="&#xa7;" horiz-adv-x="570" 
d="M53 249q7 35 30 64t57 50q-26 20 -37 49.5t-3 74.5q17 93 80 134t175 41q66 0 109 -10.5t66.5 -33t28.5 -59.5t-4 -89h-140q8 44 -9.5 61t-68.5 17q-48 0 -70 -17t-27 -45q-3 -17 0 -29t13.5 -20.5t30.5 -14.5t51 -11q59 -9 98.5 -21t61.5 -31t28 -47t-1 -69
q-6 -36 -28 -65t-56 -50q25 -20 35 -49.5t2 -73.5q-16 -93 -78.5 -134t-174.5 -41q-66 0 -109 10.5t-67 33t-29.5 59t3.5 89.5h138q-8 -44 10 -61t69 -17q48 0 71 17t28 45q6 34 -14 49.5t-81 25.5q-59 9 -98.5 21t-62 31t-28.5 47t1 69zM301 178q13 -3 25.5 -5.5t23.5 -5.5
q33 24 39 59q3 19 0 32.5t-15.5 23.5t-36.5 17.5t-62 14.5q-14 2 -26 5t-23 6q-16 -11 -27 -26t-15 -33q-3 -19 0.5 -32.5t16.5 -23.5t37.5 -17.5t62.5 -14.5z" />
    <glyph glyph-name="dieresis" unicode="&#xa8;" horiz-adv-x="352" 
d="M116 660h106l-19 -106h-106zM282 660h106l-19 -106h-106z" />
    <glyph glyph-name="copyright" unicode="&#xa9;" horiz-adv-x="790" 
d="M90 398q12 66 41 119t76.5 90t114 57t153.5 20q86 0 145.5 -20t94.5 -57t46 -90t-1 -119l-26 -146q-12 -66 -41 -119t-77 -90t-114.5 -57t-152.5 -20q-85 0 -144.5 20t-94.5 57t-46.5 90t0.5 119zM159 256q-18 -103 32 -152.5t173 -49.5t191 49.5t86 152.5l24 138
q18 103 -32 152.5t-173 49.5t-191 -49.5t-86 -152.5zM428 430q-36 0 -51 -17t-23 -60l-10 -58q-8 -46 2 -61.5t45 -15.5q28 0 44 11t22 46h95q-7 -39 -22 -65t-37.5 -41.5t-51.5 -21.5t-64 -6q-39 0 -67.5 7.5t-45 26.5t-20.5 49.5t4 77.5l8 44q8 47 23.5 78t38.5 49.5
t54 26t70 7.5q36 0 63 -6t43.5 -21t22 -41t-1.5 -66h-95q7 36 -5.5 46.5t-40.5 10.5z" />
    <glyph glyph-name="ordfeminine" unicode="&#xaa;" horiz-adv-x="438" 
d="M202 330q51 0 95 33l11 63l-93 -11q-45 -4 -51 -44q-4 -20 7 -30.5t31 -10.5zM51 361q9 53 45 83t108 35l114 8l7 35q5 28 -6 40t-46 12t-49.5 -12.5t-19.5 -39.5h-109q12 69 57.5 104.5t135.5 35.5q93 0 126.5 -35t21.5 -105l-48 -270h-81l-13 34q-62 -44 -130 -44
q-67 0 -95 31.5t-18 87.5z" />
    <glyph glyph-name="guillemotleft" unicode="&#xab;" horiz-adv-x="533" 
d="M44 250l164 195h117l-168 -199l99 -191h-113zM250 250l164 195h117l-168 -199l99 -191h-113z" />
    <glyph glyph-name="logicalnot" unicode="&#xac;" horiz-adv-x="503" 
d="M493 403l-47 -263h-98l29 165h-314l18 98h412z" />
    <glyph glyph-name="uni00AD" unicode="&#xad;" horiz-adv-x="350" 
d="M68 332h250l-20 -114h-250z" />
    <glyph glyph-name="registered" unicode="&#xae;" horiz-adv-x="790" 
d="M405 266h-63l-21 -120h-85l63 358h157q72 0 99.5 -24t15.5 -92q-8 -46 -28.5 -70t-49.5 -38l44 -134h-93zM355 340h69q48 0 55 43q5 24 -4 33.5t-38 9.5h-66zM90 398q12 66 41 119t76.5 90t114 57t153.5 20q86 0 145.5 -20t94.5 -57t46 -90t-1 -119l-26 -146
q-12 -66 -41 -119t-77 -90t-114.5 -57t-152.5 -20q-85 0 -144.5 20t-94.5 57t-46.5 90t0.5 119zM159 256q-18 -103 32 -152.5t173 -49.5t191 49.5t86 152.5l24 138q18 103 -32 152.5t-173 49.5t-191 -49.5t-86 -152.5z" />
    <glyph glyph-name="macron" unicode="&#xaf;" horiz-adv-x="390" 
d="M114 650h310l-15 -86h-310z" />
    <glyph glyph-name="degree" unicode="&#xb0;" horiz-adv-x="378" 
d="M207 333q-40 0 -68.5 8t-45 27.5t-20.5 51t4 78.5q8 46 23.5 77.5t39 51t54.5 27.5t71 8q79 0 112.5 -35.5t17.5 -128.5q-8 -47 -24 -78.5t-39 -51t-54.5 -27.5t-70.5 -8zM221 413q31 0 49 17.5t27 67.5t-3 67.5t-43 17.5t-49.5 -17.5t-27.5 -67.5t3.5 -67.5t43.5 -17.5z
" />
    <glyph glyph-name="plusminus" unicode="&#xb1;" horiz-adv-x="503" 
d="M79 396h157l28 158h98l-28 -158h157l-17 -98h-157l-28 -158h-98l28 158h-157zM10 0l17 98h412l-17 -98h-412z" />
    <glyph glyph-name="twosuperior" unicode="&#xb2;" horiz-adv-x="328" 
d="M118 553q10 56 42.5 79t83.5 23q31 0 50.5 -7t29.5 -20t12 -30.5t-2 -39.5q-5 -26 -18 -42.5t-30.5 -27.5t-37 -19t-36.5 -16t-30 -18.5t-16 -26.5h143l-10 -59h-218l8 44q5 31 19.5 51t32.5 33t38.5 21.5t38 16t29.5 17t15 24.5q3 19 -2.5 29.5t-25.5 10.5
q-19 0 -30 -10t-15 -33h-71z" />
    <glyph glyph-name="threesuperior" unicode="&#xb3;" horiz-adv-x="335" 
d="M193 402q23 0 33.5 9.5t13.5 26.5q2 12 -1 19t-8.5 10t-12 4t-12.5 1h-32l10 57h29q17 0 28 6t15 28q2 14 -3.5 23t-27.5 9q-20 0 -30.5 -10t-14.5 -33h-70q9 51 39 76.5t87 25.5q31 0 51 -7t30 -19t12 -28.5t-1 -35.5q-8 -44 -50 -61q23 -9 30.5 -25.5t2.5 -42.5
q-3 -20 -10.5 -37t-22 -29t-37.5 -19t-58 -7q-60 0 -82 24.5t-13 76.5h72q-7 -42 33 -42z" />
    <glyph glyph-name="acute" unicode="&#xb4;" horiz-adv-x="235" 
d="M143 670h127l-89 -120h-83z" />
    <glyph glyph-name="mu" unicode="&#xb5;" 
d="M-15 -170l118 670h138l-64 -360q17 -20 41 -31t47 -11q36 0 52 15t23 56l59 331h138l-59 -335q-9 -50 -24 -84t-37 -54.5t-52 -29.5t-70 -9t-72 9.5t-65 35.5l-35 -203h-138z" />
    <glyph glyph-name="mu" unicode="&#x3bc;" 
d="M-15 -170l118 670h138l-64 -360q17 -20 41 -31t47 -11q36 0 52 15t23 56l59 331h138l-59 -335q-9 -50 -24 -84t-37 -54.5t-52 -29.5t-70 -9t-72 9.5t-65 35.5l-35 -203h-138z" />
    <glyph glyph-name="paragraph" unicode="&#xb6;" horiz-adv-x="751" 
d="M91 403q12 70 36.5 117.5t61 76.5t85 41t109.5 12h322l-147 -832h-96l131 740h-70l-131 -740h-96l61 343h-62q-127 0 -177 58.5t-27 183.5z" />
    <glyph glyph-name="periodcentered" unicode="&#xb7;" horiz-adv-x="212" 
d="M65 398h142l-26 -143h-142z" />
    <glyph glyph-name="cedilla" unicode="&#xb8;" horiz-adv-x="260" 
d="M100 -41q32 -4 49 -20t10 -54q-8 -44 -36 -65t-90 -21h-69l11 62h67q21 0 29 6t10 18q2 13 -4 18.5t-27 5.5h-33l45 91h58z" />
    <glyph glyph-name="onesuperior" unicode="&#xb9;" horiz-adv-x="230" 
d="M119 349l43 241h-58l7 40l87 20h46l-53 -301h-72z" />
    <glyph glyph-name="ordmasculine" unicode="&#xba;" horiz-adv-x="444" 
d="M437 427q-10 -54 -28 -89.5t-44 -57t-61.5 -30t-79.5 -8.5q-45 0 -77.5 8.5t-51.5 30t-24 57t5 89.5l9 50q9 54 27 89.5t44.5 56.5t61.5 30t80 9q44 0 76 -9t51 -30t24.5 -56.5t-3.5 -89.5zM184 419q-9 -53 4.5 -71t51.5 -18q19 0 33 4t23.5 14t16 27.5t11.5 43.5l12 66
q9 52 -3 70.5t-50 18.5t-58 -18.5t-29 -70.5z" />
    <glyph glyph-name="guillemotright" unicode="&#xbb;" horiz-adv-x="533" 
d="M497 250l-164 -195h-117l168 199l-99 191h113zM291 250l-164 -195h-117l168 199l-99 191h113z" />
    <glyph glyph-name="onequarter" unicode="&#xbc;" horiz-adv-x="605" 
d="M136 349l43 241h-58l7 40l87 20h46l-53 -301h-72zM545 650h80l-535 -650h-80zM421 58h-132l9 55l153 188h85l-33 -183h32l-10 -60h-32l-10 -58h-72zM431 118l19 107l-84 -107h65z" />
    <glyph glyph-name="onehalf" unicode="&#xbd;" horiz-adv-x="627" 
d="M136 349l43 241h-58l7 40l87 20h46l-53 -301h-72zM355 204q11 56 43 79t83 23q31 0 50.5 -7t29.5 -20t12 -30.5t-2 -39.5q-5 -26 -18 -42.5t-30.5 -27.5t-37 -19t-36.5 -16t-29.5 -18.5t-15.5 -26.5h143l-10 -59h-218l7 44q5 31 19.5 51t32.5 33t38.5 21.5t38 16t29.5 17
t15 24.5q3 19 -2.5 29.5t-25.5 10.5q-19 0 -29.5 -10t-15.5 -33h-71zM545 650h80l-535 -650h-80z" />
    <glyph glyph-name="threequarters" unicode="&#xbe;" horiz-adv-x="625" 
d="M565 650h80l-535 -650h-80zM441 58h-132l9 55l153 188h85l-33 -183h32l-10 -60h-32l-10 -58h-72zM451 118l19 107l-84 -107h65zM193 402q23 0 33.5 9.5t13.5 26.5q2 12 -1 19t-8.5 10t-12 4t-12.5 1h-32l10 57h29q17 0 28 6t15 28q2 14 -3.5 23t-27.5 9q-20 0 -30.5 -10
t-14.5 -33h-70q9 51 39 76.5t87 25.5q31 0 51 -7t30 -19t12 -28.5t-1 -35.5q-8 -44 -50 -61q23 -9 30.5 -25.5t2.5 -42.5q-3 -20 -10.5 -37t-22 -29t-37.5 -19t-58 -7q-60 0 -82 24.5t-13 76.5h72q-7 -42 33 -42z" />
    <glyph glyph-name="questiondown" unicode="&#xbf;" horiz-adv-x="530" 
d="M311 139q-48 0 -78 -4.5t-47.5 -16.5t-26 -32.5t-14.5 -52.5q-4 -25 0 -40.5t14 -24t25 -11.5t33 -3t34.5 3t30 12t22.5 25t14 42h138q-18 -103 -79 -150.5t-180 -47.5q-120 0 -164.5 47.5t-27.5 147.5q9 53 27.5 89.5t45 60t60.5 36t76 17.5l20 68h89zM361 354h-146
l26 146h146z" />
    <glyph glyph-name="Agrave" unicode="&#xc0;" horiz-adv-x="537" 
d="M336 124h-175l-47 -124h-144l283 650h177l57 -650h-145zM207 236h123l-8 293h-2zM402 700h-83l-55 120h127z" />
    <glyph glyph-name="Aacute" unicode="&#xc1;" horiz-adv-x="537" 
d="M336 124h-175l-47 -124h-144l283 650h177l57 -650h-145zM207 236h123l-8 293h-2zM355 820h127l-89 -120h-83z" />
    <glyph glyph-name="Acircumflex" unicode="&#xc2;" horiz-adv-x="537" 
d="M336 124h-175l-47 -124h-144l283 650h177l57 -650h-145zM207 236h123l-8 293h-2zM479 700h-86l-30 54l-49 -54h-90l76 120h147z" />
    <glyph glyph-name="Atilde" unicode="&#xc3;" horiz-adv-x="537" 
d="M336 124h-175l-47 -124h-144l283 650h177l57 -650h-145zM207 236h123l-8 293h-2zM424 786q31 0 38 34h78q-13 -69 -40.5 -94.5t-75.5 -25.5q-26 0 -41 7t-27 16t-24 16t-31 7q-14 0 -24.5 -8t-13.5 -26h-78q12 69 39.5 94.5t75.5 25.5q26 0 41.5 -7t27.5 -16t24 -16
t31 -7z" />
    <glyph glyph-name="Adieresis" unicode="&#xc4;" horiz-adv-x="537" 
d="M336 124h-175l-47 -124h-144l283 650h177l57 -650h-145zM207 236h123l-8 293h-2zM234 810h106l-19 -106h-106zM400 810h106l-19 -106h-106z" />
    <glyph glyph-name="Aring" unicode="&#xc5;" horiz-adv-x="537" 
d="M336 124h-175l-47 -124h-144l283 650h177l57 -650h-145zM207 236h123l-8 293h-2zM380 872q53 0 77.5 -23t16.5 -70t-41 -71t-86 -24t-78 24t-17 71t41.5 70t86.5 23zM357 742q39 0 45 37q6 35 -32 35q-40 0 -46 -35q-6 -37 33 -37z" />
    <glyph glyph-name="AE" unicode="&#xc6;" horiz-adv-x="822" 
d="M373 124h-184l-75 -124h-144l416 650h480l-20 -114h-260l-27 -151h226l-19 -110h-226l-28 -161h260l-20 -114h-400zM261 236h132l52 296h-2z" />
    <glyph glyph-name="Ccedilla" unicode="&#xc7;" horiz-adv-x="550" 
d="M256 102q48 0 73.5 23t36.5 81h138q-10 -54 -29 -94t-49 -66.5t-71.5 -40.5t-96.5 -16l-14 -30q32 -4 49 -20t10 -54q-8 -44 -36 -65t-90 -21h-69l11 62h67q21 0 29 6t10 18q2 13 -4 18.5t-27 5.5h-33l39 80q-101 8 -139 64t-18 168l37 208q22 124 90 178.5t185 54.5
q121 0 166 -51.5t25 -165.5h-138q10 55 -7.5 79t-65.5 24q-46 0 -73.5 -22t-37.5 -76l-44 -250q-10 -54 10.5 -76t65.5 -22z" />
    <glyph glyph-name="Egrave" unicode="&#xc8;" horiz-adv-x="503" 
d="M134 650h398l-20 -114h-258l-27 -151h224l-19 -110h-224l-28 -161h258l-20 -114h-398zM407 700h-83l-55 120h127z" />
    <glyph glyph-name="Eacute" unicode="&#xc9;" horiz-adv-x="503" 
d="M134 650h398l-20 -114h-258l-27 -151h224l-19 -110h-224l-28 -161h258l-20 -114h-398zM344 820h127l-89 -120h-83z" />
    <glyph glyph-name="Ecircumflex" unicode="&#xca;" horiz-adv-x="503" 
d="M134 650h398l-20 -114h-258l-27 -151h224l-19 -110h-224l-28 -161h258l-20 -114h-398zM473 700h-86l-30 54l-49 -54h-90l76 120h147z" />
    <glyph glyph-name="Edieresis" unicode="&#xcb;" horiz-adv-x="503" 
d="M134 650h398l-20 -114h-258l-27 -151h224l-19 -110h-224l-28 -161h258l-20 -114h-398zM230 810h106l-19 -106h-106zM396 810h106l-19 -106h-106z" />
    <glyph glyph-name="Igrave" unicode="&#xcc;" horiz-adv-x="260" 
d="M134 650h140l-114 -650h-140zM275 700h-83l-55 120h127z" />
    <glyph glyph-name="Iacute" unicode="&#xcd;" horiz-adv-x="260" 
d="M134 650h140l-114 -650h-140zM219 820h127l-89 -120h-83z" />
    <glyph glyph-name="Icircumflex" unicode="&#xce;" horiz-adv-x="260" 
d="M134 650h140l-114 -650h-140zM347 700h-86l-30 54l-49 -54h-90l76 120h147z" />
    <glyph glyph-name="Idieresis" unicode="&#xcf;" horiz-adv-x="260" 
d="M134 650h140l-114 -650h-140zM96 810h106l-19 -106h-106zM262 810h106l-19 -106h-106z" />
    <glyph glyph-name="Eth" unicode="&#xd0;" horiz-adv-x="572" 
d="M20 0l49 283h-52l17 93h52l48 274h222q61 0 105.5 -9t70.5 -34.5t33.5 -70.5t-4.5 -116l-34 -188q-12 -71 -35.5 -116.5t-58.5 -71t-82.5 -35t-108.5 -9.5h-222zM254 536l-28 -160h90l-17 -93h-90l-29 -169h79q33 0 55.5 7t36.5 21t22 34t13 46l37 214q6 36 3 56.5
t-15 30t-31.5 11.5t-46.5 2h-79z" />
    <glyph glyph-name="Ntilde" unicode="&#xd1;" horiz-adv-x="584" 
d="M484 0h-161l-97 453l-26 -179l-48 -274h-132l114 650h161l96 -453l28 184l47 269h132zM427 786q31 0 38 34h78q-13 -69 -40.5 -94.5t-75.5 -25.5q-26 0 -41 7t-27 16t-24 16t-31 7q-14 0 -24.5 -8t-13.5 -26h-78q12 69 39.5 94.5t75.5 25.5q26 0 41.5 -7t27.5 -16t24 -16
t31 -7z" />
    <glyph glyph-name="Ograve" unicode="&#xd2;" horiz-adv-x="569" 
d="M422 444q9 54 -10 79t-72 25q-51 0 -79.5 -24.5t-37.5 -78.5l-42 -239q-10 -54 9 -79t71 -25q53 0 81 25t38 79zM82 440q20 113 86 167.5t192 54.5q127 0 174 -53.5t27 -168.5l-40 -230q-20 -113 -87 -167.5t-193 -54.5t-172.5 54.5t-26.5 167.5zM430 700h-83l-55 120
h127z" />
    <glyph glyph-name="Oacute" unicode="&#xd3;" horiz-adv-x="569" 
d="M422 444q9 54 -10 79t-72 25q-51 0 -79.5 -24.5t-37.5 -78.5l-42 -239q-10 -54 9 -79t71 -25q53 0 81 25t38 79zM82 440q20 113 86 167.5t192 54.5q127 0 174 -53.5t27 -168.5l-40 -230q-20 -113 -87 -167.5t-193 -54.5t-172.5 54.5t-26.5 167.5zM374 820h127l-89 -120
h-83z" />
    <glyph glyph-name="Ocircumflex" unicode="&#xd4;" horiz-adv-x="569" 
d="M422 444q9 54 -10 79t-72 25q-51 0 -79.5 -24.5t-37.5 -78.5l-42 -239q-10 -54 9 -79t71 -25q53 0 81 25t38 79zM82 440q20 113 86 167.5t192 54.5q127 0 174 -53.5t27 -168.5l-40 -230q-20 -113 -87 -167.5t-193 -54.5t-172.5 54.5t-26.5 167.5zM497 700h-86l-30 54
l-49 -54h-90l76 120h147z" />
    <glyph glyph-name="Otilde" unicode="&#xd5;" horiz-adv-x="569" 
d="M422 444q9 54 -10 79t-72 25q-51 0 -79.5 -24.5t-37.5 -78.5l-42 -239q-10 -54 9 -79t71 -25q53 0 81 25t38 79zM82 440q20 113 86 167.5t192 54.5q127 0 174 -53.5t27 -168.5l-40 -230q-20 -113 -87 -167.5t-193 -54.5t-172.5 54.5t-26.5 167.5zM439 786q31 0 38 34h78
q-13 -69 -40.5 -94.5t-75.5 -25.5q-26 0 -41 7t-27 16t-24 16t-31 7q-14 0 -24.5 -8t-13.5 -26h-78q12 69 39.5 94.5t75.5 25.5q26 0 41.5 -7t27.5 -16t24 -16t31 -7z" />
    <glyph glyph-name="Odieresis" unicode="&#xd6;" horiz-adv-x="569" 
d="M422 444q9 54 -10 79t-72 25q-51 0 -79.5 -24.5t-37.5 -78.5l-42 -239q-10 -54 9 -79t71 -25q53 0 81 25t38 79zM82 440q20 113 86 167.5t192 54.5q127 0 174 -53.5t27 -168.5l-40 -230q-20 -113 -87 -167.5t-193 -54.5t-172.5 54.5t-26.5 167.5zM248 810h106l-19 -106
h-106zM414 810h106l-19 -106h-106z" />
    <glyph glyph-name="multiply" unicode="&#xd7;" horiz-adv-x="462" 
d="M37 165l136 115l-93 110l75 62l90 -112l136 117l55 -70l-134 -114l94 -113l-75 -63l-93 115l-135 -117z" />
    <glyph glyph-name="Oslash" unicode="&#xd8;" horiz-adv-x="569" 
d="M82 440q20 113 86 167.5t192 54.5q92 0 141 -28l29 36h84l-66 -83q30 -53 13 -147l-40 -230q-20 -113 -87 -167.5t-193 -54.5q-89 0 -140 27l-27 -35h-85l65 83q-30 52 -12 147zM185 230l228 291q-18 27 -73 27q-51 0 -79.5 -24.5t-37.5 -78.5zM417 419l-228 -291
q19 -26 72 -26t81 25t38 79z" />
    <glyph glyph-name="Ugrave" unicode="&#xd9;" horiz-adv-x="575" 
d="M269 650l-79 -449q-9 -52 8 -75t68 -23t75.5 23t33.5 75l79 449h140l-78 -442q-11 -63 -33 -105t-56 -67.5t-79 -36t-102 -10.5t-99 10.5t-67 36t-32.5 67.5t3.5 105l78 442h140zM423 700h-83l-55 120h127z" />
    <glyph glyph-name="Uacute" unicode="&#xda;" horiz-adv-x="575" 
d="M269 650l-79 -449q-9 -52 8 -75t68 -23t75.5 23t33.5 75l79 449h140l-78 -442q-11 -63 -33 -105t-56 -67.5t-79 -36t-102 -10.5t-99 10.5t-67 36t-32.5 67.5t3.5 105l78 442h140zM372 820h127l-89 -120h-83z" />
    <glyph glyph-name="Ucircumflex" unicode="&#xdb;" horiz-adv-x="575" 
d="M269 650l-79 -449q-9 -52 8 -75t68 -23t75.5 23t33.5 75l79 449h140l-78 -442q-11 -63 -33 -105t-56 -67.5t-79 -36t-102 -10.5t-99 10.5t-67 36t-32.5 67.5t3.5 105l78 442h140zM491 700h-86l-30 54l-49 -54h-90l76 120h147z" />
    <glyph glyph-name="Udieresis" unicode="&#xdc;" horiz-adv-x="575" 
d="M269 650l-79 -449q-9 -52 8 -75t68 -23t75.5 23t33.5 75l79 449h140l-78 -442q-11 -63 -33 -105t-56 -67.5t-79 -36t-102 -10.5t-99 10.5t-67 36t-32.5 67.5t3.5 105l78 442h140zM247 810h106l-19 -106h-106zM413 810h106l-19 -106h-106z" />
    <glyph glyph-name="Yacute" unicode="&#xdd;" horiz-adv-x="528" 
d="M196 239l-112 411h151l52 -285h2l152 285h151l-256 -411l-42 -239h-140zM349 820h127l-89 -120h-83z" />
    <glyph glyph-name="Thorn" unicode="&#xde;" horiz-adv-x="543" 
d="M169 111l-19 -111h-140l114 650h140l-19 -111h86q58 0 100 -9.5t66.5 -33.5t31.5 -66t-5 -107q-11 -60 -32.5 -100.5t-54.5 -65.5t-78.5 -35.5t-103.5 -10.5h-86zM279 229q24 0 41 4.5t29 15t20 29t13 47.5q4 27 4.5 45t-6.5 29.5t-23 16.5t-44 5h-89l-34 -192h89z" />
    <glyph glyph-name="germandbls" unicode="&#xdf;" horiz-adv-x="551" 
d="M283 98q37 0 60 21.5t32 72.5q6 32 4 53.5t-12.5 35t-31 19t-53.5 5.5h-19l20 114h6q35 0 55.5 16t28.5 63q7 35 -5 52.5t-50 17.5t-55 -19t-23 -52l-87 -497h-136l86 488q18 102 76 147t156 45q108 0 148 -43t26 -126q-11 -59 -45 -93.5t-76 -46.5q75 -14 106 -56.5
t16 -127.5q-8 -48 -24.5 -85t-43.5 -62.5t-66.5 -38.5t-94.5 -13q-23 0 -46.5 3.5t-42.5 8.5l19 109q17 -5 33 -8t39 -3z" />
    <glyph glyph-name="agrave" unicode="&#xe0;" horiz-adv-x="525" 
d="M206 98q33 0 62 10.5t55 30.5l13 69h-108q-30 0 -49.5 -15t-21.5 -44q-2 -26 11 -38.5t38 -12.5zM19 136q3 34 16.5 63t37.5 49.5t59 31t82 8.5l135 -6l9 56q6 35 -7.5 49.5t-56.5 14.5q-44 0 -63 -15.5t-25 -49.5h-134q15 86 70.5 130.5t168.5 44.5q116 0 157 -43
t26 -131l-59 -338h-96l-16 44q-80 -56 -165 -56q-83 0 -114 39.5t-25 108.5zM389 550h-83l-55 120h127z" />
    <glyph glyph-name="aacute" unicode="&#xe1;" horiz-adv-x="525" 
d="M206 98q33 0 62 10.5t55 30.5l13 69h-108q-30 0 -49.5 -15t-21.5 -44q-2 -26 11 -38.5t38 -12.5zM19 136q3 34 16.5 63t37.5 49.5t59 31t82 8.5l135 -6l9 56q6 35 -7.5 49.5t-56.5 14.5q-44 0 -63 -15.5t-25 -49.5h-134q15 86 70.5 130.5t168.5 44.5q116 0 157 -43
t26 -131l-59 -338h-96l-16 44q-80 -56 -165 -56q-83 0 -114 39.5t-25 108.5zM324 670h127l-89 -120h-83z" />
    <glyph glyph-name="acircumflex" unicode="&#xe2;" horiz-adv-x="525" 
d="M206 98q33 0 62 10.5t55 30.5l13 69h-108q-30 0 -49.5 -15t-21.5 -44q-2 -26 11 -38.5t38 -12.5zM19 136q3 34 16.5 63t37.5 49.5t59 31t82 8.5l135 -6l9 56q6 35 -7.5 49.5t-56.5 14.5q-44 0 -63 -15.5t-25 -49.5h-134q15 86 70.5 130.5t168.5 44.5q116 0 157 -43
t26 -131l-59 -338h-96l-16 44q-80 -56 -165 -56q-83 0 -114 39.5t-25 108.5zM446 550h-86l-30 54l-49 -54h-90l76 120h147z" />
    <glyph glyph-name="atilde" unicode="&#xe3;" horiz-adv-x="525" 
d="M206 98q33 0 62 10.5t55 30.5l13 69h-108q-30 0 -49.5 -15t-21.5 -44q-2 -26 11 -38.5t38 -12.5zM19 136q3 34 16.5 63t37.5 49.5t59 31t82 8.5l135 -6l9 56q6 35 -7.5 49.5t-56.5 14.5q-44 0 -63 -15.5t-25 -49.5h-134q15 86 70.5 130.5t168.5 44.5q116 0 157 -43
t26 -131l-59 -338h-96l-16 44q-80 -56 -165 -56q-83 0 -114 39.5t-25 108.5zM397 636q31 0 38 34h78q-13 -69 -40.5 -94.5t-75.5 -25.5q-26 0 -41 7t-27 16t-24 16t-31 7q-14 0 -24.5 -8t-13.5 -26h-78q12 69 39.5 94.5t75.5 25.5q26 0 41.5 -7t27.5 -16t24 -16t31 -7z" />
    <glyph glyph-name="adieresis" unicode="&#xe4;" horiz-adv-x="525" 
d="M206 98q33 0 62 10.5t55 30.5l13 69h-108q-30 0 -49.5 -15t-21.5 -44q-2 -26 11 -38.5t38 -12.5zM19 136q3 34 16.5 63t37.5 49.5t59 31t82 8.5l135 -6l9 56q6 35 -7.5 49.5t-56.5 14.5q-44 0 -63 -15.5t-25 -49.5h-134q15 86 70.5 130.5t168.5 44.5q116 0 157 -43
t26 -131l-59 -338h-96l-16 44q-80 -56 -165 -56q-83 0 -114 39.5t-25 108.5zM202 660h106l-19 -106h-106zM368 660h106l-19 -106h-106z" />
    <glyph glyph-name="aring" unicode="&#xe5;" horiz-adv-x="525" 
d="M206 98q33 0 62 10.5t55 30.5l13 69h-108q-30 0 -49.5 -15t-21.5 -44q-2 -26 11 -38.5t38 -12.5zM19 136q3 34 16.5 63t37.5 49.5t59 31t82 8.5l135 -6l9 56q6 35 -7.5 49.5t-56.5 14.5q-44 0 -63 -15.5t-25 -49.5h-134q15 86 70.5 130.5t168.5 44.5q116 0 157 -43
t26 -131l-59 -338h-96l-16 44q-80 -56 -165 -56q-83 0 -114 39.5t-25 108.5zM350 722q53 0 77.5 -23t16.5 -70t-41 -71t-86 -24t-78 24t-17 71t41.5 70t86.5 23zM327 592q39 0 45 37q6 35 -32 35q-40 0 -46 -35q-6 -37 33 -37z" />
    <glyph glyph-name="ae" unicode="&#xe6;" horiz-adv-x="813" 
d="M196 -12q-52 0 -87 10t-56 29.5t-29 46.5t-6 62q2 32 15.5 60.5t38.5 49.5t60 32.5t81 9.5l135 -6l9 56q6 35 -7.5 49.5t-56.5 14.5q-44 0 -63 -15.5t-25 -49.5h-134q15 86 70.5 130.5t168.5 44.5q54 0 89 -11t55 -32q30 23 68.5 33t89.5 10q43 0 78 -7.5t60 -26
t37.5 -49t11.5 -76.5q-2 -51 -19.5 -81t-46.5 -45.5t-67.5 -19.5t-83.5 -2l-112 4q-5 -31 -4.5 -52.5t8 -34.5t23.5 -18.5t43 -5.5q34 0 59.5 1t47.5 3.5t43 5.5t46 7l-20 -109q-45 -8 -93 -13t-101 -5q-55 0 -92.5 10t-59.5 36q-30 -25 -72 -35.5t-102 -10.5zM598 286
q34 0 49 13t18 45q6 58 -71 58q-29 0 -48 -7.5t-31 -22.5t-18.5 -36.5t-11.5 -49.5h113zM210 95q34 0 55 4.5t33.5 17.5t20.5 34.5t16 56.5h-108q-30 0 -49.5 -15t-21.5 -44q-2 -26 11.5 -40t42.5 -14z" />
    <glyph glyph-name="ccedilla" unicode="&#xe7;" horiz-adv-x="517" 
d="M294 402q-26 0 -44 -6t-30 -19t-20 -34t-13 -52l-15 -82q-6 -33 -5 -54t9 -34t24 -18t41 -5q40 0 62 16t31 66h134q-9 -53 -28.5 -89t-48.5 -58t-66.5 -32.5t-82.5 -11.5l-14 -30q32 -4 49 -20t10 -54q-8 -44 -36 -65t-90 -21h-69l11 62h67q21 0 29 6t10 18q2 13 -4 18.5
t-27 5.5h-33l39 80q-47 3 -79.5 17t-50.5 41t-22.5 69t6.5 103l11 62q12 67 34 112t54.5 71t76.5 37t100 11q51 0 89 -9t61.5 -30.5t31 -58.5t-2.5 -94h-134q4 26 2 42t-10.5 25t-23 12t-33.5 3z" />
    <glyph glyph-name="egrave" unicode="&#xe8;" horiz-adv-x="514" 
d="M299 286q34 0 49 13t18 45q6 58 -71 58q-29 0 -48 -7.5t-31 -22.5t-18.5 -36.5t-11.5 -49.5h113zM241 98q34 0 59.5 1t47.5 3.5t43 5.5t46 7l-20 -109q-45 -8 -93 -13t-101 -5q-56 0 -96 10.5t-63.5 37t-30.5 71t5 113.5l11 61q12 67 33.5 112t54 71t76.5 37t100 11
q43 0 78 -7.5t60 -26t37.5 -49t11.5 -76.5q-2 -51 -19.5 -81t-46.5 -45.5t-67.5 -19.5t-83.5 -2l-112 4q-5 -31 -4.5 -52.5t8 -34.5t23.5 -18.5t43 -5.5zM392 550h-83l-55 120h127z" />
    <glyph glyph-name="eacute" unicode="&#xe9;" horiz-adv-x="514" 
d="M299 286q34 0 49 13t18 45q6 58 -71 58q-29 0 -48 -7.5t-31 -22.5t-18.5 -36.5t-11.5 -49.5h113zM241 98q34 0 59.5 1t47.5 3.5t43 5.5t46 7l-20 -109q-45 -8 -93 -13t-101 -5q-56 0 -96 10.5t-63.5 37t-30.5 71t5 113.5l11 61q12 67 33.5 112t54 71t76.5 37t100 11
q43 0 78 -7.5t60 -26t37.5 -49t11.5 -76.5q-2 -51 -19.5 -81t-46.5 -45.5t-67.5 -19.5t-83.5 -2l-112 4q-5 -31 -4.5 -52.5t8 -34.5t23.5 -18.5t43 -5.5zM330 670h127l-89 -120h-83z" />
    <glyph glyph-name="ecircumflex" unicode="&#xea;" horiz-adv-x="514" 
d="M299 286q34 0 49 13t18 45q6 58 -71 58q-29 0 -48 -7.5t-31 -22.5t-18.5 -36.5t-11.5 -49.5h113zM241 98q34 0 59.5 1t47.5 3.5t43 5.5t46 7l-20 -109q-45 -8 -93 -13t-101 -5q-56 0 -96 10.5t-63.5 37t-30.5 71t5 113.5l11 61q12 67 33.5 112t54 71t76.5 37t100 11
q43 0 78 -7.5t60 -26t37.5 -49t11.5 -76.5q-2 -51 -19.5 -81t-46.5 -45.5t-67.5 -19.5t-83.5 -2l-112 4q-5 -31 -4.5 -52.5t8 -34.5t23.5 -18.5t43 -5.5zM452 550h-86l-30 54l-49 -54h-90l76 120h147z" />
    <glyph glyph-name="edieresis" unicode="&#xeb;" horiz-adv-x="514" 
d="M299 286q34 0 49 13t18 45q6 58 -71 58q-29 0 -48 -7.5t-31 -22.5t-18.5 -36.5t-11.5 -49.5h113zM241 98q34 0 59.5 1t47.5 3.5t43 5.5t46 7l-20 -109q-45 -8 -93 -13t-101 -5q-56 0 -96 10.5t-63.5 37t-30.5 71t5 113.5l11 61q12 67 33.5 112t54 71t76.5 37t100 11
q43 0 78 -7.5t60 -26t37.5 -49t11.5 -76.5q-2 -51 -19.5 -81t-46.5 -45.5t-67.5 -19.5t-83.5 -2l-112 4q-5 -31 -4.5 -52.5t8 -34.5t23.5 -18.5t43 -5.5zM207 660h106l-19 -106h-106zM373 660h106l-19 -106h-106z" />
    <glyph glyph-name="igrave" unicode="&#xec;" horiz-adv-x="246" 
d="M103 500h136l-88 -500h-136zM238 550h-83l-55 120h127z" />
    <glyph glyph-name="iacute" unicode="&#xed;" horiz-adv-x="246" 
d="M103 500h136l-88 -500h-136zM186 670h127l-89 -120h-83z" />
    <glyph glyph-name="icircumflex" unicode="&#xee;" horiz-adv-x="246" 
d="M103 500h136l-88 -500h-136zM309 550h-86l-30 54l-49 -54h-90l76 120h147z" />
    <glyph glyph-name="idieresis" unicode="&#xef;" horiz-adv-x="246" 
d="M103 500h136l-88 -500h-136zM65 660h106l-19 -106h-106zM231 660h106l-19 -106h-106z" />
    <glyph glyph-name="eth" unicode="&#xf0;" horiz-adv-x="541" 
d="M574 662l-50 -41q28 -46 11 -143l-49 -279q-8 -44 -24.5 -82t-46.5 -66.5t-76.5 -44.5t-113.5 -16q-68 0 -109.5 15t-62 44t-23 71.5t7.5 97.5q9 49 25.5 89t44 68.5t66.5 44t92 15.5q40 0 68 -7.5t52 -19.5l14 79q4 21 3 36l-54 -44l-30 39l57 47q-20 9 -56 9
q-17 0 -32 -1.5t-29 -3.5l19 107q11 3 29 5.5t35 2.5q51 0 86.5 -7t59.5 -21l56 45zM284 344q-51 0 -74.5 -29t-35.5 -94q-5 -30 -5.5 -53t7 -38t24 -22.5t45.5 -7.5q48 0 71.5 23t33.5 80l20 109q-14 14 -36 23t-50 9z" />
    <glyph glyph-name="ntilde" unicode="&#xf1;" horiz-adv-x="537" 
d="M202 500l15 -43q24 16 45.5 26.5t41.5 17t40 9t42 2.5q40 0 67 -9t41.5 -29.5t17.5 -54.5t-6 -84l-59 -335h-136l58 331q8 42 -3.5 56.5t-47.5 14.5q-23 0 -51.5 -11t-52.5 -31l-63 -360h-136l88 500h99zM402 636q31 0 38 34h78q-13 -69 -40.5 -94.5t-75.5 -25.5
q-26 0 -41 7t-27 16t-24 16t-31 7q-14 0 -24.5 -8t-13.5 -26h-78q12 69 39.5 94.5t75.5 25.5q26 0 41.5 -7t27.5 -16t24 -16t31 -7z" />
    <glyph glyph-name="ograve" unicode="&#xf2;" horiz-adv-x="527" 
d="M172 209q-11 -66 5 -88.5t64 -22.5q24 0 41.5 5t30 17.5t20.5 34t14 54.5l15 82q6 33 5 54.5t-9.5 34t-24 17.5t-39.5 5t-41.5 -5t-30.5 -17.5t-21 -34t-14 -54.5zM485 219q-12 -68 -34 -112.5t-55 -70.5t-76.5 -37t-98.5 -11q-56 0 -96.5 11t-63.5 37t-29 70.5t6 112.5
l11 62q12 67 34 111.5t55 71t76.5 37.5t99.5 11q55 0 94.5 -11t63 -37.5t30 -71t-5.5 -111.5zM380 550h-83l-55 120h127z" />
    <glyph glyph-name="oacute" unicode="&#xf3;" horiz-adv-x="527" 
d="M172 209q-11 -66 5 -88.5t64 -22.5q24 0 41.5 5t30 17.5t20.5 34t14 54.5l15 82q6 33 5 54.5t-9.5 34t-24 17.5t-39.5 5t-41.5 -5t-30.5 -17.5t-21 -34t-14 -54.5zM485 219q-12 -68 -34 -112.5t-55 -70.5t-76.5 -37t-98.5 -11q-56 0 -96.5 11t-63.5 37t-29 70.5t6 112.5
l11 62q12 67 34 111.5t55 71t76.5 37.5t99.5 11q55 0 94.5 -11t63 -37.5t30 -71t-5.5 -111.5zM326 670h127l-89 -120h-83z" />
    <glyph glyph-name="ocircumflex" unicode="&#xf4;" horiz-adv-x="527" 
d="M172 209q-11 -66 5 -88.5t64 -22.5q24 0 41.5 5t30 17.5t20.5 34t14 54.5l15 82q6 33 5 54.5t-9.5 34t-24 17.5t-39.5 5t-41.5 -5t-30.5 -17.5t-21 -34t-14 -54.5zM485 219q-12 -68 -34 -112.5t-55 -70.5t-76.5 -37t-98.5 -11q-56 0 -96.5 11t-63.5 37t-29 70.5t6 112.5
l11 62q12 67 34 111.5t55 71t76.5 37.5t99.5 11q55 0 94.5 -11t63 -37.5t30 -71t-5.5 -111.5zM447 550h-86l-30 54l-49 -54h-90l76 120h147z" />
    <glyph glyph-name="otilde" unicode="&#xf5;" horiz-adv-x="527" 
d="M172 209q-11 -66 5 -88.5t64 -22.5q24 0 41.5 5t30 17.5t20.5 34t14 54.5l15 82q6 33 5 54.5t-9.5 34t-24 17.5t-39.5 5t-41.5 -5t-30.5 -17.5t-21 -34t-14 -54.5zM485 219q-12 -68 -34 -112.5t-55 -70.5t-76.5 -37t-98.5 -11q-56 0 -96.5 11t-63.5 37t-29 70.5t6 112.5
l11 62q12 67 34 111.5t55 71t76.5 37.5t99.5 11q55 0 94.5 -11t63 -37.5t30 -71t-5.5 -111.5zM393 636q31 0 38 34h78q-13 -69 -40.5 -94.5t-75.5 -25.5q-26 0 -41 7t-27 16t-24 16t-31 7q-14 0 -24.5 -8t-13.5 -26h-78q12 69 39.5 94.5t75.5 25.5q26 0 41.5 -7t27.5 -16
t24 -16t31 -7z" />
    <glyph glyph-name="odieresis" unicode="&#xf6;" horiz-adv-x="527" 
d="M172 209q-11 -66 5 -88.5t64 -22.5q24 0 41.5 5t30 17.5t20.5 34t14 54.5l15 82q6 33 5 54.5t-9.5 34t-24 17.5t-39.5 5t-41.5 -5t-30.5 -17.5t-21 -34t-14 -54.5zM485 219q-12 -68 -34 -112.5t-55 -70.5t-76.5 -37t-98.5 -11q-56 0 -96.5 11t-63.5 37t-29 70.5t6 112.5
l11 62q12 67 34 111.5t55 71t76.5 37.5t99.5 11q55 0 94.5 -11t63 -37.5t30 -71t-5.5 -111.5zM203 660h106l-19 -106h-106zM369 660h106l-19 -106h-106z" />
    <glyph glyph-name="divide" unicode="&#xf7;" horiz-adv-x="512" 
d="M479 324l-18 -98h-412l18 98h412zM247 484h108l-19 -108h-108zM192 174h108l-19 -108h-108z" />
    <glyph glyph-name="oslash" unicode="&#xf8;" horiz-adv-x="527" 
d="M489 219q-12 -68 -34.5 -112.5t-55.5 -70.5t-77 -37t-99 -11q-79 0 -122 20l-24 -28h-76l54 64q-19 27 -23.5 69.5t6.5 105.5l11 62q12 67 34.5 111.5t55.5 71t77 37.5t100 11q37 0 67 -5t53 -16l25 29h76l-55 -65q19 -27 24 -69.5t-6 -104.5zM364 291q2 8 3 15.5t1 15.5
l-180 -212q15 -12 55 -12q24 0 41.5 5t30 17.5t20.5 34t14 54.5zM174 209q-2 -8 -3 -16t-1 -15l180 212q-16 12 -54 12q-24 0 -41.5 -5t-30.5 -17.5t-21 -34t-14 -54.5z" />
    <glyph glyph-name="ugrave" unicode="&#xf9;" 
d="M350 0l-16 43q-48 -32 -88.5 -43.5t-84.5 -11.5q-40 0 -66.5 9t-41 29.5t-16.5 54.5t7 84l59 335h136l-59 -331q-7 -42 4 -56.5t47 -14.5q23 0 51 11t51 31l64 360h136l-88 -500h-95zM405 550h-83l-55 120h127z" />
    <glyph glyph-name="uacute" unicode="&#xfa;" 
d="M350 0l-16 43q-48 -32 -88.5 -43.5t-84.5 -11.5q-40 0 -66.5 9t-41 29.5t-16.5 54.5t7 84l59 335h136l-59 -331q-7 -42 4 -56.5t47 -14.5q23 0 51 11t51 31l64 360h136l-88 -500h-95zM331 670h127l-89 -120h-83z" />
    <glyph glyph-name="ucircumflex" unicode="&#xfb;" 
d="M350 0l-16 43q-48 -32 -88.5 -43.5t-84.5 -11.5q-40 0 -66.5 9t-41 29.5t-16.5 54.5t7 84l59 335h136l-59 -331q-7 -42 4 -56.5t47 -14.5q23 0 51 11t51 31l64 360h136l-88 -500h-95zM453 550h-86l-30 54l-49 -54h-90l76 120h147z" />
    <glyph glyph-name="udieresis" unicode="&#xfc;" 
d="M350 0l-16 43q-48 -32 -88.5 -43.5t-84.5 -11.5q-40 0 -66.5 9t-41 29.5t-16.5 54.5t7 84l59 335h136l-59 -331q-7 -42 4 -56.5t47 -14.5q23 0 51 11t51 31l64 360h136l-88 -500h-95zM210 660h106l-19 -106h-106zM376 660h106l-19 -106h-106z" />
    <glyph glyph-name="yacute" unicode="&#xfd;" horiz-adv-x="496" 
d="M58 500h143l35 -333h2l146 333h150l-286 -558q-17 -34 -36 -57.5t-44 -38.5t-57.5 -21.5t-76.5 -6.5q-13 0 -34.5 2.5t-34.5 7.5l19 109q14 -5 31.5 -7t33.5 -2q34 0 52 12.5t36 44.5l9 17zM319 670h127l-89 -120h-83z" />
    <glyph glyph-name="thorn" unicode="&#xfe;" horiz-adv-x="539" 
d="M175 140q16 -18 40 -30t56 -12q35 0 55 17.5t29 71.5l23 126q9 54 -5 71.5t-49 17.5q-32 0 -60 -12t-50 -30zM133 670h136l-36 -201q42 23 75 33t63 10q40 0 71.5 -8.5t50.5 -31t24.5 -63.5t-5.5 -105l-19 -108q-11 -65 -31 -105.5t-47.5 -63t-62 -31t-74.5 -8.5
q-30 0 -59.5 10t-62.5 33l-35 -201h-136z" />
    <glyph glyph-name="ydieresis" unicode="&#xff;" horiz-adv-x="496" 
d="M58 500h143l35 -333h2l146 333h150l-286 -558q-17 -34 -36 -57.5t-44 -38.5t-57.5 -21.5t-76.5 -6.5q-13 0 -34.5 2.5t-34.5 7.5l19 109q14 -5 31.5 -7t33.5 -2q34 0 52 12.5t36 44.5l9 17zM188 660h106l-19 -106h-106zM354 660h106l-19 -106h-106z" />
    <glyph glyph-name="Amacron" unicode="&#x100;" horiz-adv-x="537" 
d="M336 124h-175l-47 -124h-144l283 650h177l57 -650h-145zM207 236h123l-8 293h-2zM211 800h310l-15 -86h-310z" />
    <glyph glyph-name="amacron" unicode="&#x101;" horiz-adv-x="525" 
d="M206 98q33 0 62 10.5t55 30.5l13 69h-108q-30 0 -49.5 -15t-21.5 -44q-2 -26 11 -38.5t38 -12.5zM19 136q3 34 16.5 63t37.5 49.5t59 31t82 8.5l135 -6l9 56q6 35 -7.5 49.5t-56.5 14.5q-44 0 -63 -15.5t-25 -49.5h-134q15 86 70.5 130.5t168.5 44.5q116 0 157 -43
t26 -131l-59 -338h-96l-16 44q-80 -56 -165 -56q-83 0 -114 39.5t-25 108.5zM181 650h310l-15 -86h-310z" />
    <glyph glyph-name="Abreve" unicode="&#x102;" horiz-adv-x="537" 
d="M336 124h-175l-47 -124h-144l283 650h177l57 -650h-145zM207 236h123l-8 293h-2zM345 696q-64 0 -89 35t-14 99h78q-9 -53 39 -53t57 53h78q-11 -64 -48 -99t-101 -35z" />
    <glyph glyph-name="abreve" unicode="&#x103;" horiz-adv-x="525" 
d="M206 98q33 0 62 10.5t55 30.5l13 69h-108q-30 0 -49.5 -15t-21.5 -44q-2 -26 11 -38.5t38 -12.5zM19 136q3 34 16.5 63t37.5 49.5t59 31t82 8.5l135 -6l9 56q6 35 -7.5 49.5t-56.5 14.5q-44 0 -63 -15.5t-25 -49.5h-134q15 86 70.5 130.5t168.5 44.5q116 0 157 -43
t26 -131l-59 -338h-96l-16 44q-80 -56 -165 -56q-83 0 -114 39.5t-25 108.5zM318 546q-64 0 -89 35t-14 99h78q-9 -53 39 -53t57 53h78q-11 -64 -48 -99t-101 -35z" />
    <glyph glyph-name="Aogonek" unicode="&#x104;" horiz-adv-x="537" 
d="M336 124h-175l-47 -124h-144l283 650h177l57 -650q-23 -17 -37 -33t-18 -37q-2 -14 6 -20t23 -6h9l-14 -78h-57q-38 0 -58 17t-14 54q5 28 25.5 55.5t53.5 47.5h-64zM207 236h123l-8 293h-2z" />
    <glyph glyph-name="aogonek" unicode="&#x105;" horiz-adv-x="525" 
d="M275 -103q5 26 22 51t45 45l-19 51q-80 -56 -165 -56q-83 0 -114 39.5t-25 108.5q3 34 16.5 63t37.5 49.5t59 31t82 8.5l135 -6l9 56q6 35 -7.5 49.5t-56.5 14.5q-44 0 -63 -15.5t-25 -49.5h-134q15 86 70.5 130.5t168.5 44.5q116 0 157 -43t26 -131l-59 -338
q-23 -17 -37 -33t-18 -37q-2 -14 6 -20t23 -6h9l-14 -78h-57q-38 0 -58 17t-14 54zM206 98q33 0 62 10.5t55 30.5l13 69h-108q-30 0 -49.5 -15t-21.5 -44q-2 -26 11 -38.5t38 -12.5z" />
    <glyph glyph-name="Cacute" unicode="&#x106;" horiz-adv-x="550" 
d="M256 102q48 0 73.5 23t36.5 81h138q-20 -114 -83.5 -166t-184.5 -52t-167.5 56t-25.5 177l37 208q22 124 90 178.5t185 54.5q121 0 166 -51.5t25 -165.5h-138q10 55 -7.5 79t-65.5 24q-46 0 -73.5 -22t-37.5 -76l-44 -250q-10 -54 10.5 -76t65.5 -22zM370 820h127
l-89 -120h-83z" />
    <glyph glyph-name="cacute" unicode="&#x107;" horiz-adv-x="517" 
d="M294 402q-26 0 -44 -6t-30 -19t-20 -34t-13 -52l-15 -82q-6 -33 -5 -54t9 -34t24 -18t41 -5q40 0 62 16t31 66h134q-10 -56 -31 -93t-52.5 -59t-72.5 -31t-91 -9q-57 0 -97 11t-63 38t-29 71.5t6 110.5l11 62q12 67 34 112t54.5 71t76.5 37t100 11q51 0 89 -9t61.5 -30.5
t31 -58.5t-2.5 -94h-134q4 26 2 42t-10.5 25t-23 12t-33.5 3zM327 670h127l-89 -120h-83z" />
    <glyph glyph-name="Ccircumflex" unicode="&#x108;" horiz-adv-x="550" 
d="M256 102q48 0 73.5 23t36.5 81h138q-20 -114 -83.5 -166t-184.5 -52t-167.5 56t-25.5 177l37 208q22 124 90 178.5t185 54.5q121 0 166 -51.5t25 -165.5h-138q10 55 -7.5 79t-65.5 24q-46 0 -73.5 -22t-37.5 -76l-44 -250q-10 -54 10.5 -76t65.5 -22zM489 700h-86l-30 54
l-49 -54h-90l76 120h147z" />
    <glyph glyph-name="ccircumflex" unicode="&#x109;" horiz-adv-x="517" 
d="M294 402q-26 0 -44 -6t-30 -19t-20 -34t-13 -52l-15 -82q-6 -33 -5 -54t9 -34t24 -18t41 -5q40 0 62 16t31 66h134q-10 -56 -31 -93t-52.5 -59t-72.5 -31t-91 -9q-57 0 -97 11t-63 38t-29 71.5t6 110.5l11 62q12 67 34 112t54.5 71t76.5 37t100 11q51 0 89 -9t61.5 -30.5
t31 -58.5t-2.5 -94h-134q4 26 2 42t-10.5 25t-23 12t-33.5 3zM448 550h-86l-30 54l-49 -54h-90l76 120h147z" />
    <glyph glyph-name="Cdotaccent" unicode="&#x10a;" horiz-adv-x="550" 
d="M256 102q48 0 73.5 23t36.5 81h138q-20 -114 -83.5 -166t-184.5 -52t-167.5 56t-25.5 177l37 208q22 124 90 178.5t185 54.5q121 0 166 -51.5t25 -165.5h-138q10 55 -7.5 79t-65.5 24q-46 0 -73.5 -22t-37.5 -76l-44 -250q-10 -54 10.5 -76t65.5 -22zM324 810h106
l-19 -106h-106z" />
    <glyph glyph-name="cdotaccent" unicode="&#x10b;" horiz-adv-x="517" 
d="M294 402q-26 0 -44 -6t-30 -19t-20 -34t-13 -52l-15 -82q-6 -33 -5 -54t9 -34t24 -18t41 -5q40 0 62 16t31 66h134q-10 -56 -31 -93t-52.5 -59t-72.5 -31t-91 -9q-57 0 -97 11t-63 38t-29 71.5t6 110.5l11 62q12 67 34 112t54.5 71t76.5 37t100 11q51 0 89 -9t61.5 -30.5
t31 -58.5t-2.5 -94h-134q4 26 2 42t-10.5 25t-23 12t-33.5 3zM285 660h106l-19 -106h-106z" />
    <glyph glyph-name="Ccaron" unicode="&#x10c;" horiz-adv-x="550" 
d="M256 102q48 0 73.5 23t36.5 81h138q-20 -114 -83.5 -166t-184.5 -52t-167.5 56t-25.5 177l37 208q22 124 90 178.5t185 54.5q121 0 166 -51.5t25 -165.5h-138q10 55 -7.5 79t-65.5 24q-46 0 -73.5 -22t-37.5 -76l-44 -250q-10 -54 10.5 -76t65.5 -22zM254 820h86l30 -54
l49 54h90l-76 -120h-147z" />
    <glyph glyph-name="ccaron" unicode="&#x10d;" horiz-adv-x="517" 
d="M294 402q-26 0 -44 -6t-30 -19t-20 -34t-13 -52l-15 -82q-6 -33 -5 -54t9 -34t24 -18t41 -5q40 0 62 16t31 66h134q-10 -56 -31 -93t-52.5 -59t-72.5 -31t-91 -9q-57 0 -97 11t-63 38t-29 71.5t6 110.5l11 62q12 67 34 112t54.5 71t76.5 37t100 11q51 0 89 -9t61.5 -30.5
t31 -58.5t-2.5 -94h-134q4 26 2 42t-10.5 25t-23 12t-33.5 3zM216 670h86l30 -54l49 54h90l-76 -120h-147z" />
    <glyph glyph-name="Dcaron" unicode="&#x10e;" horiz-adv-x="572" 
d="M254 536l-74 -422h79q33 0 55.5 7t36.5 21t22 34t13 46l37 214q6 36 3 56.5t-15 30t-31.5 11.5t-46.5 2h-79zM20 0l114 650h222q61 0 105.5 -9t70.5 -34.5t33.5 -70.5t-4.5 -116l-34 -188q-12 -71 -35.5 -116.5t-58.5 -71t-82.5 -35t-108.5 -9.5h-222zM249 820h86l30 -54
l49 54h90l-76 -120h-147z" />
    <glyph glyph-name="dcaron" unicode="&#x10f;" horiz-adv-x="539" 
d="M594 670h82l-56 -150h-53zM333 43q-48 -32 -86 -43.5t-73 -11.5q-38 0 -69 8t-50.5 31t-25.5 63.5t5 105.5l19 108q11 64 31 105t47.5 63.5t62 31t74.5 8.5q30 0 60 -10t62 -33l36 201h136l-118 -670h-95zM168 187q-9 -54 5 -71.5t49 -17.5q32 0 60 12t50 30l39 220
q-16 18 -40 30t-56 12q-35 0 -55 -17.5t-29 -71.5z" />
    <glyph glyph-name="Dcroat" unicode="&#x110;" horiz-adv-x="572" 
d="M20 0l49 283h-52l17 93h52l48 274h222q61 0 105.5 -9t70.5 -34.5t33.5 -70.5t-4.5 -116l-34 -188q-12 -71 -35.5 -116.5t-58.5 -71t-82.5 -35t-108.5 -9.5h-222zM254 536l-28 -160h90l-17 -93h-90l-29 -169h79q33 0 55.5 7t36.5 21t22 34t13 46l37 214q6 36 3 56.5
t-15 30t-31.5 11.5t-46.5 2h-79z" />
    <glyph glyph-name="dcroat" unicode="&#x111;" horiz-adv-x="539" 
d="M333 43q-46 -32 -84 -43.5t-75 -11.5q-38 0 -69 8t-50.5 31t-25.5 63.5t5 105.5l19 108q11 64 31 105t47.5 63.5t62 31t74.5 8.5q30 0 60 -10t62 -33l16 92h-154l14 78h154l6 31h136l-118 -670h-95zM168 187q-9 -54 5 -71.5t49 -17.5q32 0 60 12t50 30l39 220
q-16 18 -40 30t-56 12q-35 0 -55 -17.5t-29 -71.5z" />
    <glyph glyph-name="Emacron" unicode="&#x112;" horiz-adv-x="503" 
d="M134 650h398l-20 -114h-258l-27 -151h224l-19 -110h-224l-28 -161h258l-20 -114h-398zM203 800h310l-15 -86h-310z" />
    <glyph glyph-name="emacron" unicode="&#x113;" horiz-adv-x="514" 
d="M299 286q34 0 49 13t18 45q6 58 -71 58q-29 0 -48 -7.5t-31 -22.5t-18.5 -36.5t-11.5 -49.5h113zM241 98q34 0 59.5 1t47.5 3.5t43 5.5t46 7l-20 -109q-45 -8 -93 -13t-101 -5q-56 0 -96 10.5t-63.5 37t-30.5 71t5 113.5l11 61q12 67 33.5 112t54 71t76.5 37t100 11
q43 0 78 -7.5t60 -26t37.5 -49t11.5 -76.5q-2 -51 -19.5 -81t-46.5 -45.5t-67.5 -19.5t-83.5 -2l-112 4q-5 -31 -4.5 -52.5t8 -34.5t23.5 -18.5t43 -5.5zM181 650h310l-15 -86h-310z" />
    <glyph glyph-name="Ebreve" unicode="&#x114;" horiz-adv-x="503" 
d="M134 650h398l-20 -114h-258l-27 -151h224l-19 -110h-224l-28 -161h258l-20 -114h-398zM337 696q-64 0 -89 35t-14 99h78q-9 -53 39 -53t57 53h78q-11 -64 -48 -99t-101 -35z" />
    <glyph glyph-name="ebreve" unicode="&#x115;" horiz-adv-x="514" 
d="M299 286q34 0 49 13t18 45q6 58 -71 58q-29 0 -48 -7.5t-31 -22.5t-18.5 -36.5t-11.5 -49.5h113zM241 98q34 0 59.5 1t47.5 3.5t43 5.5t46 7l-20 -109q-45 -8 -93 -13t-101 -5q-56 0 -96 10.5t-63.5 37t-30.5 71t5 113.5l11 61q12 67 33.5 112t54 71t76.5 37t100 11
q43 0 78 -7.5t60 -26t37.5 -49t11.5 -76.5q-2 -51 -19.5 -81t-46.5 -45.5t-67.5 -19.5t-83.5 -2l-112 4q-5 -31 -4.5 -52.5t8 -34.5t23.5 -18.5t43 -5.5zM321 546q-64 0 -89 35t-14 99h78q-9 -53 39 -53t57 53h78q-11 -64 -48 -99t-101 -35z" />
    <glyph glyph-name="Edotaccent" unicode="&#x116;" horiz-adv-x="503" 
d="M134 650h398l-20 -114h-258l-27 -151h224l-19 -110h-224l-28 -161h258l-20 -114h-398zM314 810h106l-19 -106h-106z" />
    <glyph glyph-name="edotaccent" unicode="&#x117;" horiz-adv-x="514" 
d="M299 286q34 0 49 13t18 45q6 58 -71 58q-29 0 -48 -7.5t-31 -22.5t-18.5 -36.5t-11.5 -49.5h113zM241 98q34 0 59.5 1t47.5 3.5t43 5.5t46 7l-20 -109q-45 -8 -93 -13t-101 -5q-56 0 -96 10.5t-63.5 37t-30.5 71t5 113.5l11 61q12 67 33.5 112t54 71t76.5 37t100 11
q43 0 78 -7.5t60 -26t37.5 -49t11.5 -76.5q-2 -51 -19.5 -81t-46.5 -45.5t-67.5 -19.5t-83.5 -2l-112 4q-5 -31 -4.5 -52.5t8 -34.5t23.5 -18.5t43 -5.5zM288 660h106l-19 -106h-106z" />
    <glyph glyph-name="Eogonek" unicode="&#x118;" horiz-adv-x="503" 
d="M134 650h398l-20 -114h-258l-27 -151h224l-19 -110h-224l-28 -161h258l-20 -114q-23 -17 -37 -33t-18 -37q-2 -14 6 -20t23 -6h9l-14 -78h-57q-38 0 -58 17t-14 54q5 28 25.5 55.5t53.5 47.5h-317z" />
    <glyph glyph-name="eogonek" unicode="&#x119;" horiz-adv-x="514" 
d="M241 98q34 0 59.5 1t47.5 3.5t43 5.5t46 7l-20 -109q-23 -17 -37 -33t-18 -37q-2 -14 6 -20t23 -6h9l-14 -78h-57q-38 0 -58 17t-14 54q5 23 20 46.5t40 43.5q-23 -2 -46.5 -3.5t-47.5 -1.5q-56 0 -96 10.5t-63.5 37t-30.5 71t5 113.5l11 61q12 67 33.5 112t54 71
t76.5 37t100 11q43 0 78 -7.5t60 -26t37.5 -49t11.5 -76.5q-2 -51 -19.5 -81t-46.5 -45.5t-67.5 -19.5t-83.5 -2l-112 4q-5 -31 -4.5 -52.5t8 -34.5t23.5 -18.5t43 -5.5zM299 286q34 0 49 13t18 45q6 58 -71 58q-29 0 -48 -7.5t-31 -22.5t-18.5 -36.5t-11.5 -49.5h113z" />
    <glyph glyph-name="Ecaron" unicode="&#x11a;" horiz-adv-x="503" 
d="M134 650h398l-20 -114h-258l-27 -151h224l-19 -110h-224l-28 -161h258l-20 -114h-398zM233 820h86l30 -54l49 54h90l-76 -120h-147z" />
    <glyph glyph-name="ecaron" unicode="&#x11b;" horiz-adv-x="514" 
d="M299 286q34 0 49 13t18 45q6 58 -71 58q-29 0 -48 -7.5t-31 -22.5t-18.5 -36.5t-11.5 -49.5h113zM241 98q34 0 59.5 1t47.5 3.5t43 5.5t46 7l-20 -109q-45 -8 -93 -13t-101 -5q-56 0 -96 10.5t-63.5 37t-30.5 71t5 113.5l11 61q12 67 33.5 112t54 71t76.5 37t100 11
q43 0 78 -7.5t60 -26t37.5 -49t11.5 -76.5q-2 -51 -19.5 -81t-46.5 -45.5t-67.5 -19.5t-83.5 -2l-112 4q-5 -31 -4.5 -52.5t8 -34.5t23.5 -18.5t43 -5.5zM218 670h86l30 -54l49 54h90l-76 -120h-147z" />
    <glyph glyph-name="Gcircumflex" unicode="&#x11c;" horiz-adv-x="570" 
d="M236 -12q-121 0 -167.5 55.5t-25.5 177.5l37 207q22 123 91 178.5t184 55.5q121 0 167 -51.5t26 -165.5h-140q9 51 -8 77t-65 26q-46 0 -73.5 -22t-37.5 -76l-44 -250q-11 -57 11.5 -77.5t69.5 -20.5q48 0 76 23t39 82l12 68h-103l19 110h243l-67 -385h-68l-16 43
q-34 -28 -72 -41.5t-88 -13.5zM488 700h-86l-30 54l-49 -54h-90l76 120h147z" />
    <glyph glyph-name="gcircumflex" unicode="&#x11d;" horiz-adv-x="539" 
d="M443 -3q-17 -98 -77.5 -138.5t-174.5 -40.5q-15 0 -35 1t-41 3.5t-42 6t-39 8.5l20 112q75 -21 155 -21q45 0 68 15.5t30 53.5l8 46q-41 -23 -74 -33t-63 -10q-40 0 -71.5 8.5t-51 31t-25 63t5.5 105.5l17 96q12 65 32.5 105.5t48 63.5t61.5 31t72 8q30 0 64 -11.5
t71 -43.5l31 43h99zM373 370q-17 14 -42.5 23t-53.5 9q-39 0 -58.5 -21.5t-29.5 -77.5l-17 -94q-10 -57 2.5 -78t51.5 -21q28 0 56 9t51 23zM449 550h-86l-30 54l-49 -54h-90l76 120h147z" />
    <glyph glyph-name="Gbreve" unicode="&#x11e;" horiz-adv-x="570" 
d="M236 -12q-121 0 -167.5 55.5t-25.5 177.5l37 207q22 123 91 178.5t184 55.5q121 0 167 -51.5t26 -165.5h-140q9 51 -8 77t-65 26q-46 0 -73.5 -22t-37.5 -76l-44 -250q-11 -57 11.5 -77.5t69.5 -20.5q48 0 76 23t39 82l12 68h-103l19 110h243l-67 -385h-68l-16 43
q-34 -28 -72 -41.5t-88 -13.5zM358 696q-64 0 -89 35t-14 99h78q-9 -53 39 -53t57 53h78q-11 -64 -48 -99t-101 -35z" />
    <glyph glyph-name="gbreve" unicode="&#x11f;" horiz-adv-x="539" 
d="M443 -3q-17 -98 -77.5 -138.5t-174.5 -40.5q-15 0 -35 1t-41 3.5t-42 6t-39 8.5l20 112q75 -21 155 -21q45 0 68 15.5t30 53.5l8 46q-41 -23 -74 -33t-63 -10q-40 0 -71.5 8.5t-51 31t-25 63t5.5 105.5l17 96q12 65 32.5 105.5t48 63.5t61.5 31t72 8q30 0 64 -11.5
t71 -43.5l31 43h99zM373 370q-17 14 -42.5 23t-53.5 9q-39 0 -58.5 -21.5t-29.5 -77.5l-17 -94q-10 -57 2.5 -78t51.5 -21q28 0 56 9t51 23zM320 546q-64 0 -89 35t-14 99h78q-9 -53 39 -53t57 53h78q-11 -64 -48 -99t-101 -35z" />
    <glyph glyph-name="Gdotaccent" unicode="&#x120;" horiz-adv-x="570" 
d="M236 -12q-121 0 -167.5 55.5t-25.5 177.5l37 207q22 123 91 178.5t184 55.5q121 0 167 -51.5t26 -165.5h-140q9 51 -8 77t-65 26q-46 0 -73.5 -22t-37.5 -76l-44 -250q-11 -57 11.5 -77.5t69.5 -20.5q48 0 76 23t39 82l12 68h-103l19 110h243l-67 -385h-68l-16 43
q-34 -28 -72 -41.5t-88 -13.5zM326 810h106l-19 -106h-106z" />
    <glyph glyph-name="gdotaccent" unicode="&#x121;" horiz-adv-x="539" 
d="M443 -3q-17 -98 -77.5 -138.5t-174.5 -40.5q-15 0 -35 1t-41 3.5t-42 6t-39 8.5l20 112q75 -21 155 -21q45 0 68 15.5t30 53.5l8 46q-41 -23 -74 -33t-63 -10q-40 0 -71.5 8.5t-51 31t-25 63t5.5 105.5l17 96q12 65 32.5 105.5t48 63.5t61.5 31t72 8q30 0 64 -11.5
t71 -43.5l31 43h99zM373 370q-17 14 -42.5 23t-53.5 9q-39 0 -58.5 -21.5t-29.5 -77.5l-17 -94q-10 -57 2.5 -78t51.5 -21q28 0 56 9t51 23zM287 660h106l-19 -106h-106z" />
    <glyph glyph-name="Gcommaaccent" unicode="&#x122;" horiz-adv-x="570" 
d="M236 -12q-121 0 -167.5 55.5t-25.5 177.5l37 207q22 123 91 178.5t184 55.5q121 0 167 -51.5t26 -165.5h-140q9 51 -8 77t-65 26q-46 0 -73.5 -22t-37.5 -76l-44 -250q-11 -57 11.5 -77.5t69.5 -20.5q48 0 76 23t39 82l12 68h-103l19 110h243l-67 -385h-68l-16 43
q-34 -28 -72 -41.5t-88 -13.5zM186 -50h127l-93 -120h-83z" />
    <glyph glyph-name="gcommaaccent" unicode="&#x123;" horiz-adv-x="539" 
d="M443 -3q-17 -98 -77.5 -138.5t-174.5 -40.5q-15 0 -35 1t-41 3.5t-42 6t-39 8.5l20 112q75 -21 155 -21q45 0 68 15.5t30 53.5l8 46q-41 -23 -74 -33t-63 -10q-40 0 -71.5 8.5t-51 31t-25 63t5.5 105.5l17 96q12 65 32.5 105.5t48 63.5t61.5 31t72 8q30 0 64 -11.5
t71 -43.5l31 43h99zM373 370q-17 14 -42.5 23t-53.5 9q-39 0 -58.5 -21.5t-29.5 -77.5l-17 -94q-10 -57 2.5 -78t51.5 -21q28 0 56 9t51 23zM376.001 549.997h-126.992l92.9941 119.992h82.9951z" />
    <glyph glyph-name="Hcircumflex" unicode="&#x124;" horiz-adv-x="579" 
d="M479 0h-140l48 275h-179l-48 -275h-140l114 650h140l-47 -265h179l47 265h140zM495 700h-86l-30 54l-49 -54h-90l76 120h147z" />
    <glyph glyph-name="hcircumflex" unicode="&#x125;" horiz-adv-x="535" 
d="M269 670l-36 -203q42 26 77.5 35.5t75.5 9.5t66.5 -9t41 -29.5t17 -54.5t-6.5 -84l-59 -335h-136l58 331q8 42 -3.5 56.5t-47.5 14.5q-23 0 -50.5 -11t-51.5 -31l-63 -360h-136l118 670h136zM516 550h-86l-30 54l-49 -54h-90l76 120h147z" />
    <glyph glyph-name="Hbar" unicode="&#x126;" horiz-adv-x="579" 
d="M578 563h30l-14 -80h-30l-85 -483h-140l48 275h-179l-48 -275h-140l85 483h-30l14 80h30l15 87h140l-15 -87h179l15 87h140zM406 385l18 98h-179l-18 -98h179z" />
    <glyph glyph-name="hbar" unicode="&#x127;" horiz-adv-x="535" 
d="M269 670l-6 -31h257l-14 -78h-257l-16 -94q42 26 77.5 35.5t75.5 9.5t66.5 -9t41 -29.5t17 -54.5t-6.5 -84l-59 -335h-136l58 331q8 42 -3.5 56.5t-47.5 14.5q-23 0 -50.5 -11t-51.5 -31l-63 -360h-136l118 670h136z" />
    <glyph glyph-name="Itilde" unicode="&#x128;" horiz-adv-x="260" 
d="M282 786q22 0 28 34h76q-12 -69 -38.5 -94.5t-70.5 -25.5q-24 0 -37 7t-22.5 16t-18 16t-23.5 7q-22 0 -28 -34h-76q12 69 39 94.5t70 25.5q24 0 37 -7t22.5 -16t18 -16t23.5 -7zM134 650h140l-114 -650h-140z" />
    <glyph glyph-name="itilde" unicode="&#x129;" horiz-adv-x="246" 
d="M245 636q21 0 28 34h76q-13 -69 -39.5 -94.5t-70.5 -25.5q-24 0 -37 7t-22 16t-17.5 16t-23.5 7q-22 0 -28 -34h-76q12 69 39 94.5t70 25.5q24 0 37 -7t22.5 -16t18 -16t23.5 -7zM103 500h136l-88 -500h-136z" />
    <glyph glyph-name="Imacron" unicode="&#x12a;" horiz-adv-x="260" 
d="M106 800h250l-16 -86h-250zM134 650h140l-114 -650h-140z" />
    <glyph glyph-name="imacron" unicode="&#x12b;" horiz-adv-x="246" 
d="M72 650h250l-15 -86h-250zM103 500h136l-88 -500h-136z" />
    <glyph glyph-name="Ibreve" unicode="&#x12c;" horiz-adv-x="260" 
d="M134 650h140l-114 -650h-140zM207 696q-64 0 -89 35t-14 99h78q-9 -53 39 -53t57 53h78q-11 -64 -48 -99t-101 -35z" />
    <glyph glyph-name="ibreve" unicode="&#x12d;" horiz-adv-x="246" 
d="M103 500h136l-88 -500h-136zM181 546q-64 0 -89 35t-14 99h78q-9 -53 39 -53t57 53h78q-11 -64 -48 -99t-101 -35z" />
    <glyph glyph-name="Iogonek" unicode="&#x12e;" horiz-adv-x="260" 
d="M134 650h140l-114 -650q-23 -17 -37 -33t-18 -37q-2 -14 6 -20t23 -6h9l-14 -78h-57q-38 0 -58 17t-14 54q5 28 25.5 55.5t53.5 47.5h-59z" />
    <glyph glyph-name="iogonek" unicode="&#x12f;" horiz-adv-x="246" 
d="M103 500h136l-88 -500q-23 -17 -37 -33t-18 -37q-2 -14 6 -20t23 -6h9l-14 -78h-57q-38 0 -58 17t-14 54q5 28 25.5 55.5t53.5 47.5h-55zM133 670h136l-23 -126h-136z" />
    <glyph glyph-name="Idotaccent" unicode="&#x130;" horiz-adv-x="260" 
d="M134 650h140l-114 -650h-140zM180 810h106l-19 -106h-106z" />
    <glyph glyph-name="dotlessi" unicode="&#x131;" horiz-adv-x="246" 
d="M103 500h136l-88 -500h-136z" />
    <glyph glyph-name="Jcircumflex" unicode="&#x134;" horiz-adv-x="360" 
d="M119 536l20 114h235l-86 -488q-8 -43 -19 -75.5t-33.5 -54.5t-59.5 -33t-97 -11q-25 0 -49 3.5t-45 8.5l20 114q12 -4 34 -8t41 -4q35 0 48.5 13.5t19.5 44.5l66 376h-95zM383 700h-86l-30 54l-49 -54h-90l76 120h147z" />
    <glyph glyph-name="jcircumflex" unicode="&#x135;" horiz-adv-x="244" 
d="M141 -40q-14 -80 -54 -111t-107 -31q-26 0 -49.5 3t-40.5 8l19 107q10 -2 24 -3.5t28 -1.5q21 0 31.5 9t15.5 33l93 527h136zM304 550h-88l-30 54l-49 -54h-88l76 120h147z" />
    <glyph glyph-name="Kcommaaccent" unicode="&#x136;" horiz-adv-x="523" 
d="M332 336l146 -336h-160l-110 276l-48 -276h-140l114 650h140l-47 -266l199 266h161zM163 -50h127l-93 -120h-83z" />
    <glyph glyph-name="kcommaaccent" unicode="&#x137;" horiz-adv-x="495" 
d="M151 0h-136l118 670h136l-64 -363h2l162 193h156l-209 -232l129 -268h-161l-92 224h-2zM146 -50h127l-93 -120h-83z" />
    <glyph glyph-name="kgreenlandic" unicode="&#x138;" horiz-adv-x="495" 
d="M151 0h-136l88 500h136l-34 -193h2l162 193h156l-209 -232l129 -268h-161l-92 224h-2z" />
    <glyph glyph-name="Lacute" unicode="&#x139;" horiz-adv-x="418" 
d="M134 650h140l-94 -536h198l-20 -114h-338zM214 820h127l-89 -120h-83z" />
    <glyph glyph-name="lacute" unicode="&#x13a;" horiz-adv-x="246" 
d="M133 670h136l-118 -670h-136zM215 820h127l-89 -120h-83z" />
    <glyph glyph-name="Lcommaaccent" unicode="&#x13b;" horiz-adv-x="418" 
d="M134 650h140l-94 -536h198l-20 -114h-338zM110 -50h127l-93 -120h-83z" />
    <glyph glyph-name="lcommaaccent" unicode="&#x13c;" horiz-adv-x="246" 
d="M133 670h136l-118 -670h-136zM13 -50h127l-93 -120h-83z" />
    <glyph glyph-name="Lcaron" unicode="&#x13d;" horiz-adv-x="418" 
d="M311 670h82l-56 -150h-53zM134 650h140l-94 -536h198l-20 -114h-338z" />
    <glyph glyph-name="lcaron" unicode="&#x13e;" horiz-adv-x="246" 
d="M301 670h82l-56 -150h-53zM133 670h136l-118 -670h-136z" />
    <glyph glyph-name="Ldot" unicode="&#x13f;" horiz-adv-x="418" 
d="M268 391h122l-21 -122h-122zM134 650h140l-94 -536h198l-20 -114h-338z" />
    <glyph glyph-name="ldot" unicode="&#x140;" horiz-adv-x="365" 
d="M251 391h122l-21 -122h-122zM133 670h136l-118 -670h-136z" />
    <glyph glyph-name="Lslash" unicode="&#x141;" horiz-adv-x="418" 
d="M62 239l-47 -13l17 96l47 13l55 315h140l-48 -273l46 13l-17 -96l-46 -13l-29 -167h198l-20 -114h-338z" />
    <glyph glyph-name="lslash" unicode="&#x142;" horiz-adv-x="246" 
d="M56 240l-48 -14l17 96l48 14l59 334h138l-52 -293l47 13l-17 -96l-47 -13l-49 -281h-138z" />
    <glyph glyph-name="Nacute" unicode="&#x143;" horiz-adv-x="584" 
d="M484 0h-161l-97 453l-26 -179l-48 -274h-132l114 650h161l96 -453l28 184l47 269h132zM372 820h127l-89 -120h-83z" />
    <glyph glyph-name="nacute" unicode="&#x144;" horiz-adv-x="537" 
d="M202 500l15 -43q24 16 45.5 26.5t41.5 17t40 9t42 2.5q40 0 67 -9t41.5 -29.5t17.5 -54.5t-6 -84l-59 -335h-136l58 331q8 42 -3.5 56.5t-47.5 14.5q-23 0 -51.5 -11t-52.5 -31l-63 -360h-136l88 500h99zM325 670h127l-89 -120h-83z" />
    <glyph glyph-name="Ncommaaccent" unicode="&#x145;" horiz-adv-x="584" 
d="M484 0h-161l-97 453l-26 -179l-48 -274h-132l114 650h161l96 -453l28 184l47 269h132zM193 -50h127l-93 -120h-83z" />
    <glyph glyph-name="ncommaaccent" unicode="&#x146;" horiz-adv-x="537" 
d="M202 500l15 -43q24 16 45.5 26.5t41.5 17t40 9t42 2.5q40 0 67 -9t41.5 -29.5t17.5 -54.5t-6 -84l-59 -335h-136l58 331q8 42 -3.5 56.5t-47.5 14.5q-23 0 -51.5 -11t-52.5 -31l-63 -360h-136l88 500h99zM169 -50h127l-93 -120h-83z" />
    <glyph glyph-name="Ncaron" unicode="&#x147;" horiz-adv-x="584" 
d="M484 0h-161l-97 453l-26 -179l-48 -274h-132l114 650h161l96 -453l28 184l47 269h132zM242 820h86l30 -54l49 54h90l-76 -120h-147z" />
    <glyph glyph-name="ncaron" unicode="&#x148;" horiz-adv-x="537" 
d="M202 500l15 -43q24 16 45.5 26.5t41.5 17t40 9t42 2.5q40 0 67 -9t41.5 -29.5t17.5 -54.5t-6 -84l-59 -335h-136l58 331q8 42 -3.5 56.5t-47.5 14.5q-23 0 -51.5 -11t-52.5 -31l-63 -360h-136l88 500h99zM218 670h86l30 -54l49 54h90l-76 -120h-147z" />
    <glyph glyph-name="Eng" unicode="&#x14a;" horiz-adv-x="564" 
d="M588 650l-115 -655q-8 -43 -20 -75.5t-36 -54.5t-62 -33t-98 -11q-25 0 -45.5 3.5t-42.5 8.5l21 118q12 -4 34.5 -8t41.5 -4q30 0 46 16t21 42l1 3h-34q-20 112 -40 221.5t-40 221.5l-78 -443h-132l114 650h174q20 -112 40 -221.5t40 -221.5l78 443h132z" />
    <glyph glyph-name="eng" unicode="&#x14b;" horiz-adv-x="535" 
d="M202 500l15 -43q24 16 45.5 26.5t41.5 17t40 9t42 2.5q40 0 66.5 -9t41 -29.5t17 -54.5t-6.5 -84l-67 -375q-14 -80 -54 -111t-107 -31q-27 0 -50.5 3t-40.5 8l19 107q10 -2 24.5 -3.5t28.5 -1.5q21 0 31.5 9t15.5 33l63 358q8 42 -3.5 56.5t-47.5 14.5q-23 0 -50.5 -11
t-51.5 -31l-63 -360h-136l88 500h99z" />
    <glyph glyph-name="Omacron" unicode="&#x14c;" horiz-adv-x="569" 
d="M422 444q9 54 -10 79t-72 25q-51 0 -79.5 -24.5t-37.5 -78.5l-42 -239q-10 -54 9 -79t71 -25q53 0 81 25t38 79zM82 440q20 113 86 167.5t192 54.5q127 0 174 -53.5t27 -168.5l-40 -230q-20 -113 -87 -167.5t-193 -54.5t-172.5 54.5t-26.5 167.5zM226 800h310l-15 -86
h-310z" />
    <glyph glyph-name="omacron" unicode="&#x14d;" horiz-adv-x="527" 
d="M172 209q-11 -66 5 -88.5t64 -22.5q24 0 41.5 5t30 17.5t20.5 34t14 54.5l15 82q6 33 5 54.5t-9.5 34t-24 17.5t-39.5 5t-41.5 -5t-30.5 -17.5t-21 -34t-14 -54.5zM485 219q-12 -68 -34 -112.5t-55 -70.5t-76.5 -37t-98.5 -11q-56 0 -96.5 11t-63.5 37t-29 70.5t6 112.5
l11 62q12 67 34 111.5t55 71t76.5 37.5t99.5 11q55 0 94.5 -11t63 -37.5t30 -71t-5.5 -111.5zM182 650h310l-15 -86h-310z" />
    <glyph glyph-name="Obreve" unicode="&#x14e;" horiz-adv-x="569" 
d="M422 444q9 54 -10 79t-72 25q-51 0 -79.5 -24.5t-37.5 -78.5l-42 -239q-10 -54 9 -79t71 -25q53 0 81 25t38 79zM82 440q20 113 86 167.5t192 54.5q127 0 174 -53.5t27 -168.5l-40 -230q-20 -113 -87 -167.5t-193 -54.5t-172.5 54.5t-26.5 167.5zM360 696q-64 0 -89 35
t-14 99h78q-9 -53 39 -53t57 53h78q-11 -64 -48 -99t-101 -35z" />
    <glyph glyph-name="obreve" unicode="&#x14f;" horiz-adv-x="527" 
d="M172 209q-11 -66 5 -88.5t64 -22.5q24 0 41.5 5t30 17.5t20.5 34t14 54.5l15 82q6 33 5 54.5t-9.5 34t-24 17.5t-39.5 5t-41.5 -5t-30.5 -17.5t-21 -34t-14 -54.5zM485 219q-12 -68 -34 -112.5t-55 -70.5t-76.5 -37t-98.5 -11q-56 0 -96.5 11t-63.5 37t-29 70.5t6 112.5
l11 62q12 67 34 111.5t55 71t76.5 37.5t99.5 11q55 0 94.5 -11t63 -37.5t30 -71t-5.5 -111.5zM319 546q-64 0 -89 35t-14 99h78q-9 -53 39 -53t57 53h78q-11 -64 -48 -99t-101 -35z" />
    <glyph glyph-name="Ohungarumlaut" unicode="&#x150;" horiz-adv-x="569" 
d="M422 444q9 54 -10 79t-72 25q-51 0 -79.5 -24.5t-37.5 -78.5l-42 -239q-10 -54 9 -79t71 -25q53 0 81 25t38 79zM82 440q20 113 86 167.5t192 54.5q127 0 174 -53.5t27 -168.5l-40 -230q-20 -113 -87 -167.5t-193 -54.5t-172.5 54.5t-26.5 167.5zM298 820h117l-74 -120
h-83zM461 820h117l-94 -120h-83z" />
    <glyph glyph-name="ohungarumlaut" unicode="&#x151;" horiz-adv-x="527" 
d="M172 209q-11 -66 5 -88.5t64 -22.5q24 0 41.5 5t30 17.5t20.5 34t14 54.5l15 82q6 33 5 54.5t-9.5 34t-24 17.5t-39.5 5t-41.5 -5t-30.5 -17.5t-21 -34t-14 -54.5zM485 219q-12 -68 -34 -112.5t-55 -70.5t-76.5 -37t-98.5 -11q-56 0 -96.5 11t-63.5 37t-29 70.5t6 112.5
l11 62q12 67 34 111.5t55 71t76.5 37.5t99.5 11q55 0 94.5 -11t63 -37.5t30 -71t-5.5 -111.5zM248 670h117l-74 -120h-83zM411 670h117l-94 -120h-83z" />
    <glyph glyph-name="OE" unicode="&#x152;" horiz-adv-x="807" 
d="M354 114l74 422h-90q-51 0 -79.5 -24.5t-37.5 -78.5l-38 -215q-10 -54 9.5 -79t71.5 -25h90zM836 650l-20 -114h-248l-27 -151h214l-19 -110h-214l-28 -161h248l-20 -114h-478q-127 0 -173.5 54t-26.5 168l36 206q20 113 86 167.5t192 54.5h478z" />
    <glyph glyph-name="oe" unicode="&#x153;" horiz-adv-x="825" 
d="M552 98q34 0 59.5 1t47.5 3.5t43 5.5t46 7l-20 -109q-45 -8 -93 -13t-101 -5q-54 0 -91 10t-59 34q-29 -24 -69 -34t-94 -10q-56 0 -96.5 11t-63.5 37t-29 70.5t6 112.5l11 62q12 67 34 111.5t55 71t76.5 37.5t99.5 11q52 0 88.5 -10t57.5 -34q29 24 69.5 34t94.5 10
q43 0 78 -7.5t60 -26t37.5 -49t11.5 -76.5q-2 -51 -19.5 -81t-46.5 -45.5t-67.5 -19.5t-83.5 -2l-112 4q-5 -31 -4.5 -52.5t8 -34.5t23.5 -18.5t43 -5.5zM172 209q-11 -66 5 -88.5t64 -22.5q24 0 41.5 5t30 17.5t20.5 34t14 54.5l15 82q6 33 5 54.5t-9.5 34t-24 17.5
t-39.5 5t-41.5 -5t-30.5 -17.5t-21 -34t-14 -54.5zM610 286q34 0 49 13t18 45q6 58 -71 58q-29 0 -48 -7.5t-31 -22.5t-18.5 -36.5t-11.5 -49.5h113z" />
    <glyph glyph-name="Racute" unicode="&#x154;" horiz-adv-x="560" 
d="M134 650h223q59 0 101.5 -8.5t67.5 -32t32 -64.5t-5 -107q-14 -81 -48.5 -127t-90.5 -66l76 -245h-150l-64 228h-76l-40 -228h-140zM302 338q48 0 73.5 20t36.5 79q10 57 -8 78t-66 21h-84l-35 -198h83zM348 820h127l-89 -120h-83z" />
    <glyph glyph-name="racute" unicode="&#x155;" horiz-adv-x="339" 
d="M343 392q-35 0 -69.5 -10t-60.5 -28l-62 -354h-136l88 500h96l15 -37q36 25 74 37t76 12zM240 670h127l-89 -120h-83z" />
    <glyph glyph-name="Rcommaaccent" unicode="&#x156;" horiz-adv-x="560" 
d="M134 650h223q59 0 101.5 -8.5t67.5 -32t32 -64.5t-5 -107q-14 -81 -48.5 -127t-90.5 -66l76 -245h-150l-64 228h-76l-40 -228h-140zM302 338q48 0 73.5 20t36.5 79q10 57 -8 78t-66 21h-84l-35 -198h83zM181 -50h127l-93 -120h-83z" />
    <glyph glyph-name="rcommaaccent" unicode="&#x157;" horiz-adv-x="339" 
d="M343 392q-35 0 -69.5 -10t-60.5 -28l-62 -354h-136l88 500h96l15 -37q36 25 74 37t76 12zM13 -50h127l-93 -120h-83z" />
    <glyph glyph-name="Rcaron" unicode="&#x158;" horiz-adv-x="560" 
d="M134 650h223q59 0 101.5 -8.5t67.5 -32t32 -64.5t-5 -107q-14 -81 -48.5 -127t-90.5 -66l76 -245h-150l-64 228h-76l-40 -228h-140zM302 338q48 0 73.5 20t36.5 79q10 57 -8 78t-66 21h-84l-35 -198h83zM249 820h86l30 -54l49 54h90l-76 -120h-147z" />
    <glyph glyph-name="rcaron" unicode="&#x159;" horiz-adv-x="339" 
d="M343 392q-35 0 -69.5 -10t-60.5 -28l-62 -354h-136l88 500h96l15 -37q36 25 74 37t76 12zM138 670h86l30 -54l49 54h90l-76 -120h-147z" />
    <glyph glyph-name="Sacute" unicode="&#x15a;" horiz-adv-x="557" 
d="M366 193q3 19 0.5 32t-15 23t-37 17.5t-66.5 15.5q-47 8 -81 21.5t-55 35.5t-27.5 55t1.5 81q15 87 79.5 137.5t183.5 50.5q61 0 103 -10.5t65.5 -33.5t29.5 -59.5t-3 -88.5h-140q8 42 -10 60t-66 18t-70.5 -19t-29.5 -56q-4 -22 -2 -37.5t13 -27t33 -19t58 -13.5
q59 -10 96.5 -24t57.5 -35t24.5 -51t-2.5 -71q-10 -58 -33.5 -97.5t-59 -64t-81.5 -35t-101 -10.5q-64 0 -107 11.5t-67.5 36.5t-31 64t3.5 94h140q-9 -51 10.5 -71.5t71.5 -20.5q54 0 80 20t35 71zM363 820h127l-89 -120h-83z" />
    <glyph glyph-name="sacute" unicode="&#x15b;" horiz-adv-x="501" 
d="M451 145q-5 -29 -14.5 -57t-34 -50.5t-70 -36t-121.5 -13.5q-63 0 -103 10.5t-62 31.5t-27 52.5t3 74.5h133q-6 -35 12 -47t62 -12q42 0 61.5 11.5t24.5 35.5q3 16 1.5 27t-11.5 18t-29 11t-52 7q-56 4 -90.5 15t-52.5 29t-21.5 44t2.5 60q14 79 73.5 117.5t159.5 38.5
q58 0 96.5 -9t60.5 -29t27.5 -52.5t-2.5 -80.5h-136q1 10 1.5 20.5t-5 19.5t-19.5 15t-41 6q-44 0 -59.5 -14.5t-19.5 -35.5q-5 -27 8 -39.5t63 -16.5q66 -6 105 -15.5t58.5 -27t22.5 -43.5t-4 -65zM314 670h127l-89 -120h-83z" />
    <glyph glyph-name="Scircumflex" unicode="&#x15c;" horiz-adv-x="557" 
d="M366 193q3 19 0.5 32t-15 23t-37 17.5t-66.5 15.5q-47 8 -81 21.5t-55 35.5t-27.5 55t1.5 81q15 87 79.5 137.5t183.5 50.5q61 0 103 -10.5t65.5 -33.5t29.5 -59.5t-3 -88.5h-140q8 42 -10 60t-66 18t-70.5 -19t-29.5 -56q-4 -22 -2 -37.5t13 -27t33 -19t58 -13.5
q59 -10 96.5 -24t57.5 -35t24.5 -51t-2.5 -71q-10 -58 -33.5 -97.5t-59 -64t-81.5 -35t-101 -10.5q-64 0 -107 11.5t-67.5 36.5t-31 64t3.5 94h140q-9 -51 10.5 -71.5t71.5 -20.5q54 0 80 20t35 71zM489 700h-86l-30 54l-49 -54h-90l76 120h147z" />
    <glyph glyph-name="scircumflex" unicode="&#x15d;" horiz-adv-x="501" 
d="M451 145q-5 -29 -14.5 -57t-34 -50.5t-70 -36t-121.5 -13.5q-63 0 -103 10.5t-62 31.5t-27 52.5t3 74.5h133q-6 -35 12 -47t62 -12q42 0 61.5 11.5t24.5 35.5q3 16 1.5 27t-11.5 18t-29 11t-52 7q-56 4 -90.5 15t-52.5 29t-21.5 44t2.5 60q14 79 73.5 117.5t159.5 38.5
q58 0 96.5 -9t60.5 -29t27.5 -52.5t-2.5 -80.5h-136q1 10 1.5 20.5t-5 19.5t-19.5 15t-41 6q-44 0 -59.5 -14.5t-19.5 -35.5q-5 -27 8 -39.5t63 -16.5q66 -6 105 -15.5t58.5 -27t22.5 -43.5t-4 -65zM437 550h-86l-30 54l-49 -54h-90l76 120h147z" />
    <glyph glyph-name="Scedilla" unicode="&#x15e;" horiz-adv-x="557" 
d="M366 193q3 19 0.5 32t-15 23t-37 17.5t-66.5 15.5q-47 8 -81 21.5t-55 35.5t-27.5 55t1.5 81q15 87 79.5 137.5t183.5 50.5q61 0 103 -10.5t65.5 -33.5t29.5 -59.5t-3 -88.5h-140q8 42 -10 60t-66 18t-70.5 -19t-29.5 -56q-4 -22 -2 -37.5t13 -27t33 -19t58 -13.5
q59 -10 96.5 -24t57.5 -35t24.5 -51t-2.5 -71q-10 -55 -32 -93.5t-54 -63t-74.5 -36t-92.5 -13.5l-14 -30q32 -4 49 -20t10 -54q-8 -44 -36 -65t-90 -21h-69l11 62h67q21 0 29 6t10 18q2 13 -4 18.5t-27 5.5h-33l39 80q-53 3 -89 16.5t-56 38.5t-25 62t4 88h140
q-9 -51 10.5 -71.5t71.5 -20.5q54 0 80 20t35 71z" />
    <glyph glyph-name="scedilla" unicode="&#x15f;" horiz-adv-x="501" 
d="M451 145q-5 -28 -14 -55.5t-32 -49.5t-64 -36t-111 -16l-14 -29q32 -4 49 -20t10 -54q-8 -44 -36 -65t-90 -21h-69l11 62h67q21 0 29 6t10 18q2 13 -4 18.5t-27 5.5h-33l39 80q-51 3 -83.5 15t-49.5 33t-20.5 51t3.5 69h133q-6 -35 12 -47t62 -12q42 0 61.5 11.5
t24.5 35.5q3 16 1.5 27t-11.5 18t-29 11t-52 7q-56 4 -90.5 15t-52.5 29t-21.5 44t2.5 60q14 79 73.5 117.5t159.5 38.5q58 0 96.5 -9t60.5 -29t27.5 -52.5t-2.5 -80.5h-136q1 10 1.5 20.5t-5 19.5t-19.5 15t-41 6q-44 0 -59.5 -14.5t-19.5 -35.5q-5 -27 8 -39.5t63 -16.5
q66 -6 105 -15.5t58.5 -27t22.5 -43.5t-4 -65z" />
    <glyph glyph-name="Scaron" unicode="&#x160;" horiz-adv-x="557" 
d="M366 193q3 19 0.5 32t-15 23t-37 17.5t-66.5 15.5q-47 8 -81 21.5t-55 35.5t-27.5 55t1.5 81q15 87 79.5 137.5t183.5 50.5q61 0 103 -10.5t65.5 -33.5t29.5 -59.5t-3 -88.5h-140q8 42 -10 60t-66 18t-70.5 -19t-29.5 -56q-4 -22 -2 -37.5t13 -27t33 -19t58 -13.5
q59 -10 96.5 -24t57.5 -35t24.5 -51t-2.5 -71q-10 -58 -33.5 -97.5t-59 -64t-81.5 -35t-101 -10.5q-64 0 -107 11.5t-67.5 36.5t-31 64t3.5 94h140q-9 -51 10.5 -71.5t71.5 -20.5q54 0 80 20t35 71zM259 820h86l30 -54l49 54h90l-76 -120h-147z" />
    <glyph glyph-name="scaron" unicode="&#x161;" horiz-adv-x="501" 
d="M451 145q-5 -29 -14.5 -57t-34 -50.5t-70 -36t-121.5 -13.5q-63 0 -103 10.5t-62 31.5t-27 52.5t3 74.5h133q-6 -35 12 -47t62 -12q42 0 61.5 11.5t24.5 35.5q3 16 1.5 27t-11.5 18t-29 11t-52 7q-56 4 -90.5 15t-52.5 29t-21.5 44t2.5 60q14 79 73.5 117.5t159.5 38.5
q58 0 96.5 -9t60.5 -29t27.5 -52.5t-2.5 -80.5h-136q1 10 1.5 20.5t-5 19.5t-19.5 15t-41 6q-44 0 -59.5 -14.5t-19.5 -35.5q-5 -27 8 -39.5t63 -16.5q66 -6 105 -15.5t58.5 -27t22.5 -43.5t-4 -65zM203 670h86l30 -54l49 54h90l-76 -120h-147z" />
    <glyph glyph-name="Tcommaaccent" unicode="&#x162;" horiz-adv-x="458" 
d="M213 536h-144l20 114h428l-20 -114h-144l-94 -536h-140zM116 -50h127l-93 -120h-83z" />
    <glyph glyph-name="tcommaaccent" unicode="&#x163;" horiz-adv-x="343" 
d="M273 0q-19 -5 -44 -8.5t-52 -3.5q-68 0 -96.5 29.5t-14.5 109.5l46 263h-64l17 97l67 13l20 113l140 27l-24 -140h93l-20 -110h-93l-44 -250q-4 -24 3.5 -33t28.5 -9q14 0 29 1.5t26 3.5zM72 -50h127l-93 -120h-83z" />
    <glyph glyph-name="Tcaron" unicode="&#x164;" horiz-adv-x="458" 
d="M213 536h-144l20 114h428l-20 -114h-144l-94 -536h-140zM199 820h86l30 -54l49 54h90l-76 -120h-147z" />
    <glyph glyph-name="tcaron" unicode="&#x165;" horiz-adv-x="343" 
d="M339 670h82l-56 -150h-53zM273 0q-19 -5 -44 -8.5t-52 -3.5q-68 0 -96.5 29.5t-14.5 109.5l46 263h-64l17 97l67 13l20 113l140 27l-24 -140h93l-20 -110h-93l-44 -250q-4 -24 3.5 -33t28.5 -9q14 0 29 1.5t26 3.5z" />
    <glyph glyph-name="Tbar" unicode="&#x166;" horiz-adv-x="458" 
d="M96 385h90l27 151h-144l20 114h428l-20 -114h-144l-27 -151h90l-19 -110h-90l-48 -275h-140l48 275h-90z" />
    <glyph glyph-name="tbar" unicode="&#x167;" horiz-adv-x="343" 
d="M275 0q-19 -5 -44 -8.5t-52 -3.5q-68 0 -97.5 29.5t-15.5 109.5l15 83h-53l15 90h53l16 90h-64l17 97l67 13l20 113l142 27l-24 -140h93l-20 -110h-93l-16 -90h75l-15 -90h-75l-13 -70q-4 -24 3.5 -33t28.5 -9q14 0 29 1.5t26 3.5z" />
    <glyph glyph-name="Utilde" unicode="&#x168;" horiz-adv-x="575" 
d="M269 650l-79 -449q-9 -52 8 -75t68 -23t75.5 23t33.5 75l79 449h140l-78 -442q-11 -63 -33 -105t-56 -67.5t-79 -36t-102 -10.5t-99 10.5t-67 36t-32.5 67.5t3.5 105l78 442h140zM442 786q31 0 38 34h78q-13 -69 -40.5 -94.5t-75.5 -25.5q-26 0 -41 7t-27 16t-24 16
t-31 7q-14 0 -24.5 -8t-13.5 -26h-78q12 69 39.5 94.5t75.5 25.5q26 0 41.5 -7t27.5 -16t24 -16t31 -7z" />
    <glyph glyph-name="utilde" unicode="&#x169;" 
d="M350 0l-16 43q-48 -32 -88.5 -43.5t-84.5 -11.5q-40 0 -66.5 9t-41 29.5t-16.5 54.5t7 84l59 335h136l-59 -331q-7 -42 4 -56.5t47 -14.5q23 0 51 11t51 31l64 360h136l-88 -500h-95zM400 636q31 0 38 34h78q-13 -69 -40.5 -94.5t-75.5 -25.5q-26 0 -41 7t-27 16t-24 16
t-31 7q-14 0 -24.5 -8t-13.5 -26h-78q12 69 39.5 94.5t75.5 25.5q26 0 41.5 -7t27.5 -16t24 -16t31 -7z" />
    <glyph glyph-name="Umacron" unicode="&#x16a;" horiz-adv-x="575" 
d="M269 650l-79 -449q-9 -52 8 -75t68 -23t75.5 23t33.5 75l79 449h140l-78 -442q-11 -63 -33 -105t-56 -67.5t-79 -36t-102 -10.5t-99 10.5t-67 36t-32.5 67.5t3.5 105l78 442h140zM229 800h310l-15 -86h-310z" />
    <glyph glyph-name="umacron" unicode="&#x16b;" 
d="M350 0l-16 43q-48 -32 -88.5 -43.5t-84.5 -11.5q-40 0 -66.5 9t-41 29.5t-16.5 54.5t7 84l59 335h136l-59 -331q-7 -42 4 -56.5t47 -14.5q23 0 51 11t51 31l64 360h136l-88 -500h-95zM189 650h310l-15 -86h-310z" />
    <glyph glyph-name="Ubreve" unicode="&#x16c;" horiz-adv-x="575" 
d="M269 650l-79 -449q-9 -52 8 -75t68 -23t75.5 23t33.5 75l79 449h140l-78 -442q-11 -63 -33 -105t-56 -67.5t-79 -36t-102 -10.5t-99 10.5t-67 36t-32.5 67.5t3.5 105l78 442h140zM365 696q-64 0 -89 35t-14 99h78q-9 -53 39 -53t57 53h78q-11 -64 -48 -99t-101 -35z" />
    <glyph glyph-name="ubreve" unicode="&#x16d;" 
d="M350 0l-16 43q-48 -32 -88.5 -43.5t-84.5 -11.5q-40 0 -66.5 9t-41 29.5t-16.5 54.5t7 84l59 335h136l-59 -331q-7 -42 4 -56.5t47 -14.5q23 0 51 11t51 31l64 360h136l-88 -500h-95zM326 546q-64 0 -89 35t-14 99h78q-9 -53 39 -53t57 53h78q-11 -64 -48 -99t-101 -35z
" />
    <glyph glyph-name="Uring" unicode="&#x16e;" horiz-adv-x="575" 
d="M269 650l-79 -449q-9 -52 8 -75t68 -23t75.5 23t33.5 75l79 449h140l-78 -442q-11 -63 -33 -105t-56 -67.5t-79 -36t-102 -10.5t-99 10.5t-67 36t-32.5 67.5t3.5 105l78 442h140zM400 872q53 0 77.5 -23t16.5 -70t-41 -71t-86 -24t-78 24t-17 71t41.5 70t86.5 23z
M377 742q39 0 45 37q6 35 -32 35q-40 0 -46 -35q-6 -37 33 -37z" />
    <glyph glyph-name="uring" unicode="&#x16f;" 
d="M350 0l-16 43q-48 -32 -88.5 -43.5t-84.5 -11.5q-40 0 -66.5 9t-41 29.5t-16.5 54.5t7 84l59 335h136l-59 -331q-7 -42 4 -56.5t47 -14.5q23 0 51 11t51 31l64 360h136l-88 -500h-95zM357 722q53 0 77.5 -23t16.5 -70t-41 -71t-86 -24t-78 24t-17 71t41.5 70t86.5 23z
M334 592q39 0 45 37q6 35 -32 35q-40 0 -46 -35q-6 -37 33 -37z" />
    <glyph glyph-name="Uhungarumlaut" unicode="&#x170;" horiz-adv-x="575" 
d="M269 650l-79 -449q-9 -52 8 -75t68 -23t75.5 23t33.5 75l79 449h140l-78 -442q-11 -63 -33 -105t-56 -67.5t-79 -36t-102 -10.5t-99 10.5t-67 36t-32.5 67.5t3.5 105l78 442h140zM294 820h117l-74 -120h-83zM457 820h117l-94 -120h-83z" />
    <glyph glyph-name="uhungarumlaut" unicode="&#x171;" 
d="M350 0l-16 43q-48 -32 -88.5 -43.5t-84.5 -11.5q-40 0 -66.5 9t-41 29.5t-16.5 54.5t7 84l59 335h136l-59 -331q-7 -42 4 -56.5t47 -14.5q23 0 51 11t51 31l64 360h136l-88 -500h-95zM252 670h117l-74 -120h-83zM415 670h117l-94 -120h-83z" />
    <glyph glyph-name="Uogonek" unicode="&#x172;" horiz-adv-x="575" 
d="M269 650l-79 -449q-9 -52 8 -75t68 -23t75.5 23t33.5 75l79 449h140l-78 -442q-17 -94 -58 -142.5t-108 -65.5q-23 -17 -37 -33t-18 -37q-2 -14 6 -20t23 -6h9l-14 -78h-57q-38 0 -58 17t-14 54q5 24 20.5 48t41.5 44h-6q-57 0 -99 10.5t-67 36t-32.5 67.5t3.5 105
l78 442h140z" />
    <glyph glyph-name="uogonek" unicode="&#x173;" 
d="M289 -103q5 25 21 49t42 44l-20 53q-48 -32 -86.5 -43.5t-82.5 -11.5q-40 0 -67 9t-41.5 29.5t-17 54.5t6.5 84l59 335h138l-59 -331q-7 -42 4 -56.5t47 -14.5q23 0 51 11t51 31l64 360h138l-88 -500q-23 -17 -37 -33t-18 -37q-2 -14 6 -20t23 -6h9l-14 -78h-57
q-38 0 -58 17t-14 54z" />
    <glyph glyph-name="Wcircumflex" unicode="&#x174;" horiz-adv-x="819" 
d="M728 650h140l-233 -650h-189l16 527l-168 -527h-189l-6 650h141l-17 -529h2l174 529h170l-13 -529h2zM620 700h-86l-30 54l-49 -54h-90l76 120h147z" />
    <glyph glyph-name="wcircumflex" unicode="&#x175;" horiz-adv-x="744" 
d="M629 500h143l-208 -500h-164l-3 370l-132 -370h-164l-33 500h139l-1 -367l139 367h149l8 -369h2zM555 550h-86l-30 54l-49 -54h-90l76 120h147z" />
    <glyph glyph-name="Ycircumflex" unicode="&#x176;" horiz-adv-x="528" 
d="M196 239l-112 411h151l52 -285h2l152 285h151l-256 -411l-42 -239h-140zM471 700h-86l-30 54l-49 -54h-90l76 120h147z" />
    <glyph glyph-name="ycircumflex" unicode="&#x177;" horiz-adv-x="496" 
d="M58 500h143l35 -333h2l146 333h150l-286 -558q-17 -34 -36 -57.5t-44 -38.5t-57.5 -21.5t-76.5 -6.5q-13 0 -34.5 2.5t-34.5 7.5l19 109q14 -5 31.5 -7t33.5 -2q34 0 52 12.5t36 44.5l9 17zM431 550h-86l-30 54l-49 -54h-90l76 120h147z" />
    <glyph glyph-name="Ydieresis" unicode="&#x178;" horiz-adv-x="528" 
d="M196 239l-112 411h151l52 -285h2l152 285h151l-256 -411l-42 -239h-140zM228 810h106l-19 -106h-106zM394 810h106l-19 -106h-106z" />
    <glyph glyph-name="Zacute" unicode="&#x179;" horiz-adv-x="507" 
d="M124 650h412l-17 -99l-341 -437h274l-20 -114h-432l17 99l339 437h-252zM334 820h127l-89 -120h-83z" />
    <glyph glyph-name="zacute" unicode="&#x17a;" horiz-adv-x="470" 
d="M93 500h386l-17 -96l-281 -294h238l-19 -110h-405l16 96l281 294h-219zM295 670h127l-89 -120h-83z" />
    <glyph glyph-name="Zdotaccent" unicode="&#x17b;" horiz-adv-x="507" 
d="M124 650h412l-17 -99l-341 -437h274l-20 -114h-432l17 99l339 437h-252zM306 810h106l-19 -106h-106z" />
    <glyph glyph-name="zdotaccent" unicode="&#x17c;" horiz-adv-x="470" 
d="M93 500h386l-17 -96l-281 -294h238l-19 -110h-405l16 96l281 294h-219zM258 660h106l-19 -106h-106z" />
    <glyph glyph-name="Zcaron" unicode="&#x17d;" horiz-adv-x="507" 
d="M124 650h412l-17 -99l-341 -437h274l-20 -114h-432l17 99l339 437h-252zM234 820h86l30 -54l49 54h90l-76 -120h-147z" />
    <glyph glyph-name="zcaron" unicode="&#x17e;" horiz-adv-x="470" 
d="M93 500h386l-17 -96l-281 -294h238l-19 -110h-405l16 96l281 294h-219zM189 670h86l30 -54l49 54h90l-76 -120h-147z" />
    <glyph glyph-name="florin" unicode="&#x192;" horiz-adv-x="340" 
d="M112 390h-64l17 97l67 13l9 51q7 40 20.5 67t34 43t47 22.5t60.5 6.5q27 0 50.5 -3t40.5 -8l-18 -104q-10 2 -24.5 3.5t-28.5 1.5q-21 0 -31.5 -9t-15.5 -33l-6 -38h74l-20 -110h-74l-76 -431q-7 -40 -20.5 -67t-34 -43t-47 -22.5t-60.5 -6.5q-27 0 -50 3t-40 8l18 104
q10 -2 24 -3.5t28 -1.5q21 0 31.5 9t15.5 33z" />
    <glyph glyph-name="Scommaaccent" unicode="&#x218;" horiz-adv-x="557" 
d="M366 193q3 19 0.5 32t-15 23t-37 17.5t-66.5 15.5q-47 8 -81 21.5t-55 35.5t-27.5 55t1.5 81q15 87 79.5 137.5t183.5 50.5q61 0 103 -10.5t65.5 -33.5t29.5 -59.5t-3 -88.5h-140q8 42 -10 60t-66 18t-70.5 -19t-29.5 -56q-4 -22 -2 -37.5t13 -27t33 -19t58 -13.5
q59 -10 96.5 -24t57.5 -35t24.5 -51t-2.5 -71q-10 -58 -33.5 -97.5t-59 -64t-81.5 -35t-101 -10.5q-64 0 -107 11.5t-67.5 36.5t-31 64t3.5 94h140q-9 -51 10.5 -71.5t71.5 -20.5q54 0 80 20t35 71zM169 -50h127l-93 -120h-83z" />
    <glyph glyph-name="scommaaccent" unicode="&#x219;" horiz-adv-x="501" 
d="M451 145q-5 -29 -14.5 -57t-34 -50.5t-70 -36t-121.5 -13.5q-63 0 -103 10.5t-62 31.5t-27 52.5t3 74.5h133q-6 -35 12 -47t62 -12q42 0 61.5 11.5t24.5 35.5q3 16 1.5 27t-11.5 18t-29 11t-52 7q-56 4 -90.5 15t-52.5 29t-21.5 44t2.5 60q14 79 73.5 117.5t159.5 38.5
q58 0 96.5 -9t60.5 -29t27.5 -52.5t-2.5 -80.5h-136q1 10 1.5 20.5t-5 19.5t-19.5 15t-41 6q-44 0 -59.5 -14.5t-19.5 -35.5q-5 -27 8 -39.5t63 -16.5q66 -6 105 -15.5t58.5 -27t22.5 -43.5t-4 -65zM145 -50h127l-93 -120h-83z" />
    <glyph glyph-name="circumflex" unicode="&#x2c6;" horiz-adv-x="335" 
d="M351 550h-86l-30 54l-49 -54h-90l76 120h147z" />
    <glyph glyph-name="caron" unicode="&#x2c7;" horiz-adv-x="335" 
d="M118 670h86l30 -54l49 54h90l-76 -120h-147z" />
    <glyph glyph-name="breve" unicode="&#x2d8;" horiz-adv-x="332" 
d="M222 546q-64 0 -89 35t-14 99h78q-9 -53 39 -53t57 53h78q-11 -64 -48 -99t-101 -35z" />
    <glyph glyph-name="dotaccent" unicode="&#x2d9;" horiz-adv-x="186" 
d="M116 660h106l-19 -106h-106z" />
    <glyph glyph-name="ring" unicode="&#x2da;" horiz-adv-x="302" 
d="M238 722q53 0 77.5 -23t16.5 -70t-41 -71t-86 -24t-78 24t-17 71t41.5 70t86.5 23zM215 592q39 0 45 37q6 35 -32 35q-40 0 -46 -35q-6 -37 33 -37z" />
    <glyph glyph-name="ogonek" unicode="&#x2db;" horiz-adv-x="221" 
d="M141 0q-23 -17 -37 -33t-18 -37q-2 -14 6 -20t23 -6h9l-14 -78h-57q-38 0 -58 17t-14 54q5 28 25.5 55.5t53.5 47.5h81z" />
    <glyph glyph-name="tilde" unicode="&#x2dc;" horiz-adv-x="416" 
d="M338 636q31 0 38 34h78q-13 -69 -40.5 -94.5t-75.5 -25.5q-26 0 -41 7t-27 16t-24 16t-31 7q-14 0 -24.5 -8t-13.5 -26h-78q12 69 39.5 94.5t75.5 25.5q26 0 41.5 -7t27.5 -16t24 -16t31 -7z" />
    <glyph glyph-name="hungarumlaut" unicode="&#x2dd;" horiz-adv-x="378" 
d="M136 670h117l-74 -120h-83zM299 670h117l-94 -120h-83z" />
    <glyph glyph-name="pi" unicode="&#x3c0;" horiz-adv-x="592" 
d="M138 390h-65l20 110h502l-20 -110h-65l-37 -214q-7 -37 3.5 -51.5t49.5 -14.5l-19 -110q-59 0 -96.5 9.5t-57.5 30.5t-24 53t4 77l39 220h-96l-68 -390h-138z" />
    <glyph glyph-name="Bdotaccent" unicode="&#x1e02;" horiz-adv-x="558" 
d="M134 650h233q62 0 100.5 -10t58.5 -30.5t24 -52t-4 -75.5q-9 -54 -36 -89.5t-62 -52.5q88 -37 67 -157q-8 -42 -25.5 -76t-47.5 -57.5t-73.5 -36.5t-102.5 -13h-246zM282 114q40 0 63 17.5t31 62.5q8 49 -12 65t-57 16h-99l-28 -161h102zM254 536l-27 -151h88
q40 0 60.5 17t28.5 59q6 36 -7.5 55.5t-53.5 19.5h-89zM323 810h106l-19 -106h-106z" />
    <glyph glyph-name="bdotaccent" unicode="&#x1e03;" horiz-adv-x="539" 
d="M133 670h136l-36 -201q42 23 74.5 33t62.5 10q40 0 71.5 -8.5t51 -31t25.5 -63.5t-6 -105l-17 -97q-12 -68 -39 -110.5t-62.5 -66.5t-77.5 -33t-85 -9q-50 0 -88 11t-62 35t-33 61t0 89zM377 313q10 54 -3.5 71.5t-48.5 17.5q-32 0 -60.5 -12t-50.5 -30l-31 -178
q-8 -39 6 -62t57 -23q44 0 73 23t40 89zM343 660h106l-19 -106h-106z" />
    <glyph glyph-name="Ddotaccent" unicode="&#x1e0a;" horiz-adv-x="572" 
d="M254 536l-74 -422h79q33 0 55.5 7t36.5 21t22 34t13 46l37 214q6 36 3 56.5t-15 30t-31.5 11.5t-46.5 2h-79zM20 0l114 650h222q61 0 105.5 -9t70.5 -34.5t33.5 -70.5t-4.5 -116l-34 -188q-12 -71 -35.5 -116.5t-58.5 -71t-82.5 -35t-108.5 -9.5h-222zM319 810h106
l-19 -106h-106z" />
    <glyph glyph-name="ddotaccent" unicode="&#x1e0b;" horiz-adv-x="539" 
d="M333 43q-48 -32 -86 -43.5t-73 -11.5q-38 0 -69 8t-50.5 31t-25.5 63.5t5 105.5l19 108q11 64 31 105t47.5 63.5t62 31t74.5 8.5q30 0 60 -10t62 -33l36 201h136l-118 -670h-95zM168 187q-9 -54 5 -71.5t49 -17.5q32 0 60 12t50 30l39 220q-16 18 -40 30t-56 12
q-35 0 -55 -17.5t-29 -71.5zM249 660h106l-19 -106h-106z" />
    <glyph glyph-name="Fdotaccent" unicode="&#x1e1e;" horiz-adv-x="468" 
d="M20 0l114 650h378l-20 -114h-238l-27 -151h203l-19 -110h-203l-48 -275h-140zM294 810h106l-19 -106h-106z" />
    <glyph glyph-name="fdotaccent" unicode="&#x1e1f;" horiz-adv-x="333" 
d="M374 575q-10 2 -24.5 3.5t-28.5 1.5q-21 0 -31.5 -9t-15.5 -33l-6 -38h74l-20 -110h-74l-84 -480h-136l84 480h-64l17 97l67 13l9 51q7 40 20.5 67t33 43t46 22.5t60.5 6.5q27 0 50.5 -3t40.5 -8l-18 -104v0zM262 830h106l-19 -106h-106z" />
    <glyph glyph-name="Mdotaccent" unicode="&#x1e40;" horiz-adv-x="727" 
d="M546 301l43 199l-211 -500h-107l-35 500l-28 -200l-52 -300h-136l114 650h195l27 -461h3l189 461h195l-114 -650h-136zM409 810h106l-19 -106h-106z" />
    <glyph glyph-name="mdotaccent" unicode="&#x1e41;" horiz-adv-x="773" 
d="M605 330q7 44 -3 58t-41 14q-14 0 -37.5 -7.5t-40.5 -18.5l-66 -376h-136l58 330q7 44 -3 58t-41 14q-14 0 -37.5 -7.5t-40.5 -18.5l-66 -376h-136l88 500h96l15 -37q37 23 71.5 36t75.5 13q46 0 71 -10.5t43 -37.5q34 19 72.5 33.5t81.5 14.5q42 0 68.5 -9t39 -30.5
t13 -56.5t-8.5 -87l-58 -329h-136zM411 660h106l-19 -106h-106z" />
    <glyph glyph-name="Pdotaccent" unicode="&#x1e56;" horiz-adv-x="550" 
d="M302 338q48 0 73.5 20t36.5 79q10 57 -8 78t-66 21h-84l-35 -198h83zM134 650h223q58 0 100 -8.5t67 -32t32.5 -64.5t-4.5 -107q-11 -62 -32 -102.5t-54 -64.5t-78 -33.5t-103 -9.5h-85l-40 -228h-140zM318 810h106l-19 -106h-106z" />
    <glyph glyph-name="pdotaccent" unicode="&#x1e57;" horiz-adv-x="539" 
d="M217 457q49 32 87 43.5t68 11.5q38 0 69 -8t50.5 -31t26 -63.5t-5.5 -105.5l-19 -108q-11 -65 -31 -105.5t-47.5 -63t-62 -31t-74.5 -8.5q-30 0 -59.5 10t-62.5 33l-35 -201h-136l118 670h99zM378 313q9 54 -5 71.5t-49 17.5q-32 0 -60 -12t-50 -30l-39 -220
q16 -18 40 -30t56 -12q35 0 55 17.5t29 71.5zM292 660h106l-19 -106h-106z" />
    <glyph glyph-name="Sdotaccent" unicode="&#x1e60;" horiz-adv-x="557" 
d="M366 193q3 19 0.5 32t-15 23t-37 17.5t-66.5 15.5q-47 8 -81 21.5t-55 35.5t-27.5 55t1.5 81q15 87 79.5 137.5t183.5 50.5q61 0 103 -10.5t65.5 -33.5t29.5 -59.5t-3 -88.5h-140q8 42 -10 60t-66 18t-70.5 -19t-29.5 -56q-4 -22 -2 -37.5t13 -27t33 -19t58 -13.5
q59 -10 96.5 -24t57.5 -35t24.5 -51t-2.5 -71q-10 -58 -33.5 -97.5t-59 -64t-81.5 -35t-101 -10.5q-64 0 -107 11.5t-67.5 36.5t-31 64t3.5 94h140q-9 -51 10.5 -71.5t71.5 -20.5q54 0 80 20t35 71zM321 810h106l-19 -106h-106z" />
    <glyph glyph-name="sdotaccent" unicode="&#x1e61;" horiz-adv-x="501" 
d="M451 145q-5 -29 -14.5 -57t-34 -50.5t-70 -36t-121.5 -13.5q-63 0 -103 10.5t-62 31.5t-27 52.5t3 74.5h133q-6 -35 12 -47t62 -12q42 0 61.5 11.5t24.5 35.5q3 16 1.5 27t-11.5 18t-29 11t-52 7q-56 4 -90.5 15t-52.5 29t-21.5 44t2.5 60q14 79 73.5 117.5t159.5 38.5
q58 0 96.5 -9t60.5 -29t27.5 -52.5t-2.5 -80.5h-136q1 10 1.5 20.5t-5 19.5t-19.5 15t-41 6q-44 0 -59.5 -14.5t-19.5 -35.5q-5 -27 8 -39.5t63 -16.5q66 -6 105 -15.5t58.5 -27t22.5 -43.5t-4 -65zM276 660h106l-19 -106h-106z" />
    <glyph glyph-name="Tdotaccent" unicode="&#x1e6a;" horiz-adv-x="458" 
d="M213 536h-144l20 114h428l-20 -114h-144l-94 -536h-140zM272 810h106l-19 -106h-106z" />
    <glyph glyph-name="tdotaccent" unicode="&#x1e6b;" horiz-adv-x="343" 
d="M273 0q-19 -5 -44 -8.5t-52 -3.5q-68 0 -96.5 29.5t-14.5 109.5l46 263h-64l17 97l67 13l20 113l140 27l-24 -140h93l-20 -110h-93l-44 -250q-4 -24 3.5 -33t28.5 -9q14 0 29 1.5t26 3.5zM176 768h106l-19 -106h-106z" />
    <glyph glyph-name="Wgrave" unicode="&#x1e80;" horiz-adv-x="819" 
d="M728 650h140l-233 -650h-189l16 527l-168 -527h-189l-6 650h141l-17 -529h2l174 529h170l-13 -529h2zM555 700h-83l-55 120h127z" />
    <glyph glyph-name="wgrave" unicode="&#x1e81;" horiz-adv-x="744" 
d="M629 500h143l-208 -500h-164l-3 370l-132 -370h-164l-33 500h139l-1 -367l139 367h149l8 -369h2zM485 550h-83l-55 120h127z" />
    <glyph glyph-name="Wacute" unicode="&#x1e82;" horiz-adv-x="819" 
d="M728 650h140l-233 -650h-189l16 527l-168 -527h-189l-6 650h141l-17 -529h2l174 529h170l-13 -529h2zM492 820h127l-89 -120h-83z" />
    <glyph glyph-name="wacute" unicode="&#x1e83;" horiz-adv-x="744" 
d="M629 500h143l-208 -500h-164l-3 370l-132 -370h-164l-33 500h139l-1 -367l139 367h149l8 -369h2zM437 670h127l-89 -120h-83z" />
    <glyph glyph-name="Wdieresis" unicode="&#x1e84;" horiz-adv-x="819" 
d="M728 650h140l-233 -650h-189l16 527l-168 -527h-189l-6 650h141l-17 -529h2l174 529h170l-13 -529h2zM376 810h106l-19 -106h-106zM542 810h106l-19 -106h-106z" />
    <glyph glyph-name="wdieresis" unicode="&#x1e85;" horiz-adv-x="744" 
d="M629 500h143l-208 -500h-164l-3 370l-132 -370h-164l-33 500h139l-1 -367l139 367h149l8 -369h2zM312 660h106l-19 -106h-106zM478 660h106l-19 -106h-106z" />
    <glyph glyph-name="Ygrave" unicode="&#x1ef2;" horiz-adv-x="528" 
d="M196 239l-112 411h151l52 -285h2l152 285h151l-256 -411l-42 -239h-140zM409 700h-83l-55 120h127z" />
    <glyph glyph-name="ygrave" unicode="&#x1ef3;" horiz-adv-x="496" 
d="M58 500h143l35 -333h2l146 333h150l-286 -558q-17 -34 -36 -57.5t-44 -38.5t-57.5 -21.5t-76.5 -6.5q-13 0 -34.5 2.5t-34.5 7.5l19 109q14 -5 31.5 -7t33.5 -2q34 0 52 12.5t36 44.5l9 17zM367 550h-83l-55 120h127z" />
    <glyph glyph-name="endash" unicode="&#x2013;" horiz-adv-x="475" 
d="M68 332h375l-20 -114h-375z" />
    <glyph glyph-name="emdash" unicode="&#x2014;" horiz-adv-x="610" 
d="M58 332h530l-20 -114h-530z" />
    <glyph glyph-name="quoteleft" unicode="&#x2018;" horiz-adv-x="194" 
d="M182 390h-70l-18 260h134z" />
    <glyph glyph-name="quoteright" unicode="&#x2019;" horiz-adv-x="194" 
d="M114 650h134l-110 -260h-70z" />
    <glyph glyph-name="quotesinglbase" unicode="&#x201a;" horiz-adv-x="203" 
d="M36 150h134l-110 -260h-70z" />
    <glyph glyph-name="quotedblleft" unicode="&#x201c;" horiz-adv-x="358" 
d="M182 390h-70l-18 260h134zM346 390h-70l-18 260h134z" />
    <glyph glyph-name="quotedblright" unicode="&#x201d;" horiz-adv-x="358" 
d="M278 650h134l-110 -260h-70zM114 650h134l-110 -260h-70z" />
    <glyph glyph-name="quotedblbase" unicode="&#x201e;" horiz-adv-x="358" 
d="M26 150h134l-110 -260h-70zM190 150h134l-110 -260h-70z" />
    <glyph glyph-name="dagger" unicode="&#x2020;" horiz-adv-x="338" 
d="M196 570l18 100h67l-18 -100h95l-11 -63h-95l-44 -247h-67l44 247h-96l11 63h96z" />
    <glyph glyph-name="daggerdbl" unicode="&#x2021;" horiz-adv-x="338" 
d="M196 570l18 100h67l-18 -100h95l-11 -63h-95l-15 -84h95l-11 -62h-95l-18 -101h-67l18 101h-96l11 62h96l15 84h-96l11 63h96z" />
    <glyph glyph-name="bullet" unicode="&#x2022;" horiz-adv-x="431" 
d="M412 304q-9 -54 -26 -89t-43 -55t-61.5 -27.5t-83.5 -7.5t-81 7.5t-52 27.5t-23.5 55t4.5 89l8 42q9 54 26 89t43 55t61.5 27.5t83.5 7.5t81 -7.5t52 -27.5t23.5 -55t-4.5 -89z" />
    <glyph glyph-name="ellipsis" unicode="&#x2026;" horiz-adv-x="658" 
d="M25 146h146l-25 -146h-146zM241 146h146l-25 -146h-146zM457 146h146l-25 -146h-146z" />
    <glyph glyph-name="perthousand" unicode="&#x2030;" horiz-adv-x="847" 
d="M676 278q71 0 99.5 -31.5t14.5 -113.5t-54.5 -113.5t-111.5 -31.5q-35 0 -57 6.5t-36 21.5q-17 -15 -42.5 -21.5t-59.5 -6.5q-72 0 -100 31.5t-14 113.5t54.5 113.5t111.5 31.5q68 0 92 -28q18 15 43.5 21.5t59.5 6.5zM205 372q-36 0 -61 7t-39 24t-18 45t4 69
q14 82 54 113.5t111 31.5q72 0 100.5 -31.5t14.5 -113.5q-8 -41 -21.5 -69t-33.5 -45t-47.5 -24t-63.5 -7zM663 209q-29 0 -44.5 -15t-23.5 -61t2.5 -61t39.5 -15t44.5 15t23.5 61t-2.5 61t-39.5 15zM217 441q29 0 45 15t24 61t-2.5 61t-39.5 15t-44.5 -15t-23.5 -61t2 -61
t39 -15zM468 209q-29 0 -44.5 -15t-23.5 -61t2.5 -61t39.5 -15t44.5 15t23.5 61t-2.5 61t-39.5 15zM569 650h89l-541 -650h-89z" />
    <glyph glyph-name="guilsinglleft" unicode="&#x2039;" horiz-adv-x="327" 
d="M44 250l164 195h117l-168 -199l99 -191h-113z" />
    <glyph glyph-name="guilsinglright" unicode="&#x203a;" horiz-adv-x="327" 
d="M291 250l-164 -195h-117l168 199l-99 191h113z" />
    <glyph glyph-name="Euro" unicode="&#x20ac;" horiz-adv-x="600" 
d="M301 102q48 0 73.5 23t36.5 81h138q-20 -114 -83.5 -166t-184.5 -52t-167.5 56t-25.5 177l3 17h-53l11 60h53l9 53h-53l11 60h53l3 18q22 124 90 178.5t185 54.5q121 0 166 -51.5t25 -165.5h-138q10 55 -7.5 79t-65.5 24q-46 0 -73.5 -22t-37.5 -76l-7 -39h136l-21 -60
h-126l-9 -53h118l-21 -60h-108l-6 -38q-10 -54 10.5 -76t65.5 -22z" />
    <glyph glyph-name="trademark" unicode="&#x2122;" horiz-adv-x="546" 
d="M159 600h-62l9 50h177l-9 -50h-62l-38 -215h-53zM416 472l85 178h79l-47 -265h-53l33 186l-93 -186h-41l-26 186l-33 -186h-54l47 265h79z" />
    <glyph glyph-name="onethird" unicode="&#x2153;" horiz-adv-x="632" 
d="M136 349l43 241h-58l7 40l87 20h46l-53 -301h-72zM545 650h80l-535 -650h-80zM439 54q23 0 34 10.5t14 27.5q2 12 -1 19t-8 10.5t-11.5 4.5t-12.5 1h-34l9 51h31q17 0 27.5 6.5t14.5 28.5q2 14 -3.5 24t-27.5 10q-20 0 -31 -10t-16 -33h-69q9 51 39 76.5t87 25.5
q31 0 51 -7t30.5 -19t12.5 -28.5t-1 -35.5q-8 -44 -50 -61q23 -9 30.5 -25.5t2.5 -42.5q-4 -20 -11.5 -37t-21.5 -29t-37 -19t-58 -7q-60 0 -82.5 24.5t-13.5 76.5h71q-7 -42 35 -42z" />
    <glyph glyph-name="twothirds" unicode="&#x2154;" horiz-adv-x="670" 
d="M583 650h80l-535 -650h-80zM477 54q23 0 34 10.5t14 27.5q2 12 -1 19t-8 10.5t-11.5 4.5t-12.5 1h-34l9 51h31q17 0 27.5 6.5t14.5 28.5q2 14 -3.5 24t-27.5 10q-20 0 -31 -10t-16 -33h-69q9 51 39 76.5t87 25.5q31 0 51 -7t30.5 -19t12.5 -28.5t-1 -35.5q-8 -44 -50 -61
q23 -9 30.5 -25.5t2.5 -42.5q-4 -20 -11.5 -37t-21.5 -29t-37 -19t-58 -7q-60 0 -82.5 24.5t-13.5 76.5h71q-7 -42 35 -42zM108 553q10 56 42.5 79t83.5 23q31 0 50.5 -7t29.5 -20t12 -30.5t-2 -39.5q-4 -26 -17.5 -42.5t-31 -27.5t-37 -19t-36.5 -16t-30 -18.5t-16 -26.5
h143l-10 -59h-218l8 44q5 31 19.5 51t32.5 33t38.5 21.5t38 16t29.5 17t15 24.5q3 19 -2.5 29.5t-25.5 10.5q-19 0 -30 -10t-15 -33h-71z" />
    <glyph glyph-name="oneeighth" unicode="&#x215b;" horiz-adv-x="632" 
d="M136 349l43 241h-58l7 40l87 20h46l-53 -301h-72zM545 650h80l-535 -650h-80zM427 -5q-58 0 -83 20t-17 66q5 29 21.5 47t37.5 26q-35 20 -28 67q8 45 38.5 65t84.5 20q52 0 76.5 -19.5t16.5 -64.5q-9 -47 -51 -68q18 -9 28 -26t5 -47q-8 -46 -39.5 -66t-89.5 -20z
M459 176q15 0 27.5 7t16.5 28q3 20 -4.5 27.5t-27.5 7.5t-31 -7.5t-14 -27.5q-4 -21 6.5 -28t26.5 -7zM437 55q21 0 33.5 7.5t15.5 27.5q5 24 -6 31t-30 7q-20 0 -33 -7t-18 -31q-3 -20 6.5 -27.5t31.5 -7.5z" />
    <glyph glyph-name="threeeighths" unicode="&#x215c;" horiz-adv-x="652" 
d="M565 650h80l-535 -650h-80zM447 -5q-58 0 -83 20t-17 66q5 29 21.5 47t37.5 26q-35 20 -28 67q8 45 38.5 65t84.5 20q52 0 76.5 -19.5t16.5 -64.5q-9 -47 -51 -68q18 -9 28 -26t5 -47q-8 -46 -39.5 -66t-89.5 -20zM479 176q15 0 27.5 7t16.5 28q3 20 -4.5 27.5t-27.5 7.5
t-31 -7.5t-14 -27.5q-4 -21 6.5 -28t26.5 -7zM457 55q21 0 33.5 7.5t15.5 27.5q5 24 -6 31t-30 7q-20 0 -33 -7t-18 -31q-3 -20 6.5 -27.5t31.5 -7.5zM193 402q23 0 33.5 9.5t13.5 26.5q2 12 -1 19t-8.5 10t-12 4t-12.5 1h-32l10 57h29q17 0 28 6t15 28q2 14 -3.5 23
t-27.5 9q-20 0 -30.5 -10t-14.5 -33h-70q9 51 39 76.5t87 25.5q31 0 51 -7t30 -19t12 -28.5t-1 -35.5q-8 -44 -50 -61q23 -9 30.5 -25.5t2.5 -42.5q-3 -20 -10.5 -37t-22 -29t-37.5 -19t-58 -7q-60 0 -82 24.5t-13 76.5h72q-7 -42 33 -42z" />
    <glyph glyph-name="fiveeighths" unicode="&#x215d;" horiz-adv-x="657" 
d="M570 650h80l-535 -650h-80zM452 -5q-58 0 -83 20t-17 66q5 29 21.5 47t37.5 26q-35 20 -28 67q8 45 38.5 65t84.5 20q52 0 76.5 -19.5t16.5 -64.5q-9 -47 -51 -68q18 -9 28 -26t5 -47q-8 -46 -39.5 -66t-89.5 -20zM484 176q15 0 27.5 7t16.5 28q3 20 -4.5 27.5t-27.5 7.5
t-31 -7.5t-14 -27.5q-4 -21 6.5 -28t26.5 -7zM462 55q21 0 33.5 7.5t15.5 27.5q5 24 -6 31t-30 7q-20 0 -33 -7t-18 -31q-3 -20 6.5 -27.5t31.5 -7.5zM148 650h183l-10 -60h-121l-15 -54q25 11 50 11q43 0 64.5 -19t11.5 -76q-9 -52 -37.5 -80t-91.5 -28q-60 0 -81.5 24.5
t-12.5 76.5h72q-4 -23 4.5 -32.5t28.5 -9.5t30.5 11t15.5 38q5 26 -1.5 36.5t-28.5 10.5q-8 0 -18.5 -4.5t-16.5 -9.5h-70z" />
    <glyph glyph-name="seveneighths" unicode="&#x215e;" horiz-adv-x="632" 
d="M545 650h80l-535 -650h-80zM427 -5q-58 0 -83 20t-17 66q5 29 21.5 47t37.5 26q-35 20 -28 67q8 45 38.5 65t84.5 20q52 0 76.5 -19.5t16.5 -64.5q-9 -47 -51 -68q18 -9 28 -26t5 -47q-8 -46 -39.5 -66t-89.5 -20zM459 176q15 0 27.5 7t16.5 28q3 20 -4.5 27.5t-27.5 7.5
t-31 -7.5t-14 -27.5q-4 -21 6.5 -28t26.5 -7zM437 55q21 0 33.5 7.5t15.5 27.5q5 24 -6 31t-30 7q-20 0 -33 -7t-18 -31q-3 -20 6.5 -27.5t31.5 -7.5zM106 349l139 241h-129l10 60h205l-9 -49l-141 -252h-75z" />
    <glyph glyph-name="partialdiff" unicode="&#x2202;" horiz-adv-x="525" 
d="M320 574q-17 0 -32 -1.5t-29 -3.5l19 107q11 3 29 5.5t35 2.5q61 0 103 -10.5t65 -34.5t29 -63.5t-4 -97.5l-49 -279q-8 -44 -24.5 -82t-46.5 -66.5t-76.5 -44.5t-113.5 -16q-68 0 -109.5 15t-62 44t-23 71.5t7.5 97.5q9 49 25.5 89t44 68.5t66.5 44t92 15.5
q40 0 68 -7.5t52 -19.5l14 79q9 51 -10 69t-70 18zM284 344q-51 0 -74.5 -29t-35.5 -94q-5 -30 -5.5 -53t7 -38t24 -22.5t45.5 -7.5q48 0 71.5 23t33.5 80l20 109q-14 14 -36 23t-50 9z" />
    <glyph glyph-name="minus" unicode="&#x2212;" horiz-adv-x="512" 
d="M49 226l18 98h412l-18 -98h-412z" />
    <glyph glyph-name="integral" unicode="&#x222b;" horiz-adv-x="416" 
d="M203 2q-7 -38 -19 -62t-31 -37.5t-46 -19t-64 -5.5h-63l12 69h63q23 0 34 10.5t16 33.5l101 575q7 37 19 61.5t31 38t46 19t64 5.5h63l-12 -69h-63q-23 0 -34 -10.5t-16 -33.5z" />
    <glyph glyph-name="approxequal" unicode="&#x2248;" horiz-adv-x="513" 
d="M331 104q-31 0 -54.5 8t-43 17.5t-37.5 17.5t-37 8q-13 0 -21.5 -6t-11.5 -23h-94q6 37 18 60t29 36t38 18t45 5q30 0 52 -8t41.5 -17t38 -17t41.5 -8q14 0 22 5.5t11 23.5h94q-7 -38 -19 -61t-29 -36.5t-38 -18t-45 -4.5zM366 304q-31 0 -54.5 8t-43 17.5t-37.5 17.5
t-37 8q-13 0 -21.5 -6t-11.5 -23h-94q6 37 18 60t29 36t38 18t45 5q30 0 52 -8t41.5 -17t38 -17t41.5 -8q14 0 22 5.5t11 23.5h94q-6 -38 -18.5 -61t-29 -36.5t-38 -18t-45.5 -4.5z" />
    <glyph glyph-name="notequal" unicode="&#x2260;" horiz-adv-x="512" 
d="M147 126h-115l17 98h145l48 102h-175l17 98h205l60 126h91l-61 -126h117l-17 -98h-146l-49 -102h177l-17 -98h-207l-60 -126h-91z" />
    <glyph glyph-name="lessequal" unicode="&#x2264;" horiz-adv-x="407" 
d="M20 0l17 98h287l-17 -98h-287zM80 342l198 203h125l-201 -207l129 -198h-121z" />
    <glyph glyph-name="greaterequal" unicode="&#x2265;" horiz-adv-x="407" 
d="M20 0l17 98h287l-17 -98h-287zM367 343l-198 -203h-125l201 207l-129 198h121z" />
    <glyph glyph-name="at.caps" horiz-adv-x="790" 
d="M90 398q12 66 41 119t76.5 90t114 57t153.5 20q86 0 145.5 -20t94.5 -57t46 -90t-1 -119l-26 -146q-12 -66 -41 -119t-77 -90t-114.5 -57t-152.5 -20q-85 0 -144.5 20t-94.5 57t-46.5 90t0.5 119zM159 256q-18 -103 32 -152.5t173 -49.5t191 49.5t86 152.5l24 138
q18 103 -32 152.5t-173 49.5t-191 -49.5t-86 -152.5zM367 224q23 0 44.5 7.5t39.5 21.5l10 57l-81 -9q-23 -2 -33.5 -12.5t-12.5 -27.5q-4 -18 6 -27.5t27 -9.5zM235 251q8 47 41 72.5t94 30.5l100 7l6 35q5 24 -6 35t-40 11q-31 0 -44 -12t-18 -35h-94q11 60 52 91t118 31
q81 0 110 -30t18 -91l-42 -239h-70l-11 30q-56 -39 -114 -39t-83.5 27.5t-16.5 75.5z" />
    <glyph glyph-name="caron.salt" horiz-adv-x="162" 
d="M118 670h82l-56 -150h-53z" />
    <glyph glyph-name="commaaccent" horiz-adv-x="235" 
d="M19 -50h127l-93 -120h-83z" />
    <glyph glyph-name="one.tnum" 
d="M96 114h97l74 422h-117l13 72l144 42h120l-94 -536h97l-20 -114h-334z" />
    <glyph glyph-name="two.tnum" 
d="M79 453q10 57 32.5 97t56.5 65t79 36t100 11q66 0 107 -15t63 -42t26 -65t-4 -85q-10 -57 -39.5 -93t-69 -60.5t-83 -41t-82 -35.5t-66 -44.5t-34.5 -66.5h318l-20 -114h-465l15 89q12 69 43.5 113t72 72.5t85.5 46.5t83.5 35t66 38.5t34.5 57.5q8 46 -6 71t-65 25
q-48 0 -74 -21t-36 -74h-138z" />
    <glyph glyph-name="three.tnum" 
d="M247 102q56 0 81.5 23.5t33.5 66.5q5 30 -2 46.5t-20 25t-29.5 10t-30.5 1.5h-61l19 110h54q20 0 37.5 3t31 11.5t23 25t14.5 43.5q6 36 -7.5 58t-67.5 22q-51 0 -76 -21.5t-35 -73.5h-137q19 106 82.5 157.5t185.5 51.5q67 0 108.5 -14t63.5 -39.5t26.5 -60.5t-2.5 -77
q-9 -50 -40 -84.5t-86 -52.5q109 -33 88 -149q-8 -44 -23.5 -80t-46.5 -62t-80 -40.5t-124 -14.5q-64 0 -107 12.5t-67 38.5t-30.5 65t2.5 92h140q-8 -48 11.5 -71t70.5 -23z" />
    <glyph glyph-name="four.tnum" 
d="M294 130h-295l20 111l329 409h178l-71 -406h71l-21 -114h-71l-22 -130h-140zM315 244l49 282l-220 -282h171z" />
    <glyph glyph-name="five.tnum" 
d="M160 650h388l-20 -114h-269l-36 -143q29 14 61 22.5t60 8.5q46 0 81 -9t56.5 -32t28.5 -63t-4 -101q-10 -56 -28 -99.5t-49.5 -72.5t-79.5 -44t-117 -15q-128 0 -175.5 51t-28.5 157h138q-9 -51 11.5 -72.5t71.5 -21.5t78.5 26t38.5 91q6 32 5 53t-10 33.5t-26.5 17.5
t-44.5 5q-19 0 -44.5 -9t-39.5 -20h-139z" />
    <glyph glyph-name="six.tnum" 
d="M204 364q34 18 65.5 26t75.5 8q54 0 89 -12.5t53.5 -36.5t22.5 -60.5t-5 -84.5q-8 -46 -25.5 -85.5t-49.5 -68.5t-80.5 -45.5t-117.5 -16.5q-71 0 -113.5 17t-63.5 46.5t-24.5 68.5t4.5 83l44 250q19 106 83.5 157.5t182.5 51.5q63 0 105 -12.5t65.5 -37.5t30 -62
t-2.5 -86h-140q8 42 -9.5 63t-68.5 21q-42 0 -68.5 -18.5t-36.5 -72.5zM291 305q-31 0 -57.5 -9t-46.5 -25l-10 -61q-5 -26 -4.5 -46t8 -34t24 -21t44.5 -7q31 0 51.5 7t33.5 20t20 31.5t11 42.5q10 55 -5 78.5t-69 23.5z" />
    <glyph glyph-name="seven.tnum" 
d="M87 0l315 536h-306l20 114h454l-17 -98l-317 -552h-149z" />
    <glyph glyph-name="eight.tnum" 
d="M230 -12q-124 0 -177.5 42.5t-36.5 141.5q12 69 51.5 106t90.5 54q-44 20 -63 56.5t-9 93.5q17 96 81 138t179 42q110 0 162 -41.5t36 -135.5q-10 -57 -41.5 -94.5t-82.5 -58.5q22 -9 40 -22t30 -32t16.5 -45.5t-1.5 -60.5q-17 -99 -84 -141.5t-191 -42.5zM298 381
q18 0 35 3.5t31.5 13t24.5 25.5t14 41q9 48 -9.5 66t-66.5 18t-72.5 -18t-33.5 -66q-4 -25 0.5 -41t15.5 -25.5t27 -13t34 -3.5zM248 102q51 0 80 19.5t37 65.5q5 29 1 47t-15.5 28t-29.5 13.5t-41 3.5t-42.5 -3.5t-34.5 -13.5t-26 -28t-16 -47q-8 -46 14 -65.5t73 -19.5z
" />
    <glyph glyph-name="nine.tnum" 
d="M370 289q-17 -9 -33 -15.5t-32.5 -10.5t-35 -6t-40.5 -2q-54 0 -89 12.5t-53.5 36.5t-22.5 60.5t5 84.5q8 46 25 85t48.5 67.5t79.5 44.5t117 16q71 0 114 -17t64.5 -46.5t25 -68.5t-4.5 -83l-44 -250q-18 -106 -81.5 -157.5t-181.5 -51.5q-65 0 -107.5 12t-66.5 37
t-30 62t3 87h137q-8 -42 10 -63t69 -21q42 0 70 18.5t38 72.5zM283 348q31 0 57.5 9t46.5 25l10 58q9 52 -4.5 80t-68.5 28q-31 0 -51.5 -7t-33.5 -20t-20 -31.5t-11 -42.5q-10 -55 5.5 -77t69.5 -22z" />
    <glyph glyph-name="zero.tnum" 
d="M247 102q28 0 48 5t33 16.5t21 30.5t13 48l43 243q6 32 4 52t-11.5 31.5t-27 15.5t-44.5 4t-46 -4t-32.5 -15.5t-22 -31.5t-14.5 -52l-43 -243q-10 -57 6 -78.5t73 -21.5zM346 662q121 0 170 -51t28 -170l-40 -230q-21 -119 -89 -171t-188 -52t-169 52t-28 171l40 230
q10 60 32 102t56 68.5t80.5 38.5t107.5 12z" />
    <glyph glyph-name="dollar.tnum" 
d="M484 225q-5 -26 -13 -52t-28 -47t-55 -36t-93 -20l-16 -90h-106l16 90q-46 4 -75.5 16.5t-44.5 33.5t-18 50t4 67h134q-6 -35 9.5 -47t59.5 -12q42 0 63 11.5t25 35.5q3 16 1.5 27t-10.5 18t-28 11t-52 7q-56 4 -90.5 15t-52.5 29t-21.5 44t2.5 60q12 69 59.5 107
t125.5 46l15 81h106l-15 -81q82 -8 110.5 -47t14.5 -121h-135q1 10 2 20.5t-4.5 19.5t-19.5 15t-41 6q-44 0 -60 -14.5t-20 -35.5q-3 -14 -1.5 -23.5t9 -16t22 -10.5t39.5 -6q66 -6 105 -15.5t58.5 -27t22.5 -43.5t-4 -65z" />
    <glyph glyph-name="cent.tnum" 
d="M319 477q-26 0 -44 -6t-30.5 -19t-20.5 -34t-13 -52l-14 -82q-6 -33 -5.5 -54t8.5 -34t24 -18t41 -5q40 0 62.5 16t30.5 66h136q-17 -96 -66.5 -138t-125.5 -51l-15 -86h-106l15 85q-44 4 -74 18.5t-47.5 42t-21 68.5t6.5 100l11 62q10 60 28.5 101.5t45.5 68.5
t62.5 40.5t80.5 18.5l15 85h106l-16 -86q37 -5 64.5 -16.5t44 -34t21.5 -56.5t-4 -82h-136q4 26 2 42t-10 25t-22.5 12t-33.5 3z" />
    <glyph glyph-name="sterling.tnum" 
d="M-10 0l20 114q55 0 82 20t37 73q3 15 1.5 33.5t-3.5 33.5h-89l14 82h63q-6 26 -9.5 61.5t2.5 69.5q16 87 73.5 131t162.5 44q52 0 89 -9t59 -30t28.5 -56t-2.5 -87h-140q6 34 -5 51t-47 17q-35 0 -52.5 -16t-24.5 -51q-6 -34 -3.5 -64.5t2.5 -60.5h109l-14 -82h-97
q0 -13 -0.5 -25.5t-2.5 -24.5q-7 -38 -21 -64t-39 -46h101q38 0 54.5 16t23.5 57h140q-9 -52 -24 -87.5t-39 -57.5t-59 -32t-84 -10h-306z" />
    <glyph glyph-name="Euro.tnum" 
d="M276 102q48 0 73.5 23t36.5 81h138q-20 -114 -83.5 -166t-184.5 -52t-167.5 56t-25.5 177l3 17h-53l11 60h53l9 53h-53l11 60h53l3 18q22 124 90 178.5t185 54.5q121 0 166 -51.5t25 -165.5h-138q10 55 -7.5 79t-65.5 24q-46 0 -73.5 -22t-37.5 -76l-7 -39h136l-21 -60
h-126l-9 -53h118l-21 -60h-108l-6 -38q-10 -54 10.5 -76t65.5 -22z" />
    <glyph glyph-name="yen.tnum" 
d="M184 139l9 53h-118l11 60h112l-108 398h151l52 -285h2l152 285h151l-248 -398h112l-11 -60h-118l-9 -53h118l-11 -60h-118l-13 -79h-140l13 79h-118l11 60h118z" />
    <glyph glyph-name="numbersign.tnum" 
d="M479 156h-94l-40 -156h-91l40 156h-106l-40 -156h-90l41 156h-94l21 78h94l48 183h-94l21 78h94l40 155h90l-41 -155h106l41 155h91l-41 -155h94l-21 -78h-94l-48 -183h94zM209 234h106l48 183h-106z" />
    <glyph glyph-name="percent.tnum" 
d="M508 650h89l-531 -650h-89zM159 372q-33 0 -56 7t-36.5 24t-16.5 45t5 69q14 82 51.5 113.5t103.5 31.5t92.5 -31.5t12.5 -113.5q-8 -41 -20.5 -69t-32 -45t-45 -24t-58.5 -7zM171 441q24 0 37.5 15t21.5 61t0 61t-32 15t-37 -15t-21 -61t-0.5 -61t31.5 -15zM363 -12
q-33 0 -56 7t-36 24t-16 45t4 69q14 82 52 113.5t104 31.5t92 -31.5t12 -113.5q-7 -41 -20 -69t-32 -45t-45 -24t-59 -7zM376 57q24 0 37 15t21 61t0 61t-32 15t-37 -15t-21 -61t0 -61t32 -15z" />
    <glyph glyph-name="one.onum" horiz-adv-x="358" 
d="M102 0l68 390h-92l12 67l152 43h84l-88 -500h-136z" />
    <glyph glyph-name="two.onum" horiz-adv-x="512" 
d="M4 55q11 63 40 102t66 62t78 35.5t76 23t59 23.5t29 38q6 31 -8.5 47t-57.5 16q-42 0 -63 -16t-27 -47h-134q8 46 29.5 79t53.5 54t73 30.5t88 9.5q104 0 151 -41t32 -129q-8 -44 -34.5 -70t-62 -42t-75.5 -26t-75 -21t-59.5 -27.5t-29.5 -45.5h303l-19 -110h-442z" />
    <glyph glyph-name="three.onum" horiz-adv-x="535" 
d="M174 -182q-22 0 -46.5 2.5t-49 7t-47.5 11t-41 14.5l20 117q16 -8 38 -15t46 -12.5t49 -9t48 -3.5q68 0 99 28t40 80q6 33 3.5 53.5t-13 32t-30.5 15t-48 3.5h-63l18 106h63q37 0 59 20t30 65q7 35 -8.5 52t-58.5 17q-42 0 -62.5 -16t-26.5 -47h-134q8 46 29.5 79t53 54
t72.5 30.5t88 9.5q104 0 152 -42t32 -130q-16 -100 -115 -140q118 -34 94 -167q-9 -50 -27.5 -89.5t-52.5 -67.5t-85.5 -43t-125.5 -15z" />
    <glyph glyph-name="four.onum" horiz-adv-x="542" 
d="M275 0h-295l17 102l330 398h172l-70 -395h71l-18 -105h-71l-30 -170h-136zM293 105l48 271l-219 -271h171z" />
    <glyph glyph-name="five.onum" horiz-adv-x="526" 
d="M152 -182q-44 0 -92.5 9.5t-85.5 26.5l20 115q33 -16 81 -28.5t95 -12.5q73 0 107.5 31.5t45.5 96.5q11 63 -7 87.5t-70 24.5q-23 0 -49.5 -9t-46.5 -18h-113l96 359h363l-20 -110h-252l-39 -151q23 12 55 20t64 8q45 0 79 -11t54.5 -36t26 -65.5t-4.5 -98.5
q-9 -55 -28 -99t-54.5 -75t-90 -47.5t-134.5 -16.5z" />
    <glyph glyph-name="six.onum" horiz-adv-x="536" 
d="M284 295q-29 0 -54 -8t-43 -22l-12 -67q-9 -52 5.5 -76t62.5 -24q55 0 79 25t32 73q10 57 -6.5 78t-63.5 21zM388 452q8 42 -8.5 61t-61.5 19q-37 0 -63.5 -18t-35.5 -67l-15 -89q28 12 58.5 19.5t70.5 7.5q53 0 87.5 -11.5t52.5 -34.5t22 -57.5t-4 -80.5t-25.5 -85
t-48 -67.5t-76.5 -44.5t-112 -16q-68 0 -108.5 16.5t-61 45t-24 67t4.5 82.5l41 234q19 106 81 157.5t174 51.5q115 0 157 -49.5t29 -140.5h-134z" />
    <glyph glyph-name="seven.onum" horiz-adv-x="460" 
d="M16 -170l310 560h-278l20 110h420l-17 -94l-311 -576h-144z" />
    <glyph glyph-name="eight.onum" horiz-adv-x="528" 
d="M337 642q102 0 150.5 -42.5t32.5 -132.5q-10 -56 -40 -90.5t-78 -54.5q21 -8 38.5 -20t28.5 -31t15 -44.5t-2 -59.5q-17 -96 -81.5 -137.5t-179.5 -41.5t-164.5 41.5t-32.5 137.5q12 68 49.5 104t84.5 51q-40 20 -58 54.5t-8 90.5q16 91 79 133t166 42zM288 368
q16 0 31.5 3.5t29 13t23 25.5t14.5 40q8 47 -8.5 64.5t-60.5 17.5t-66.5 -17.5t-30.5 -64.5q-5 -24 -0.5 -40t14 -25.5t24 -13t30.5 -3.5zM241 99q47 0 73.5 18.5t34.5 63.5q5 28 1.5 46t-14 28t-27 14t-37.5 4q-42 0 -71.5 -18t-39.5 -74q-8 -45 12.5 -63.5t67.5 -18.5z
" />
    <glyph glyph-name="nine.onum" horiz-adv-x="531" 
d="M250 178q28 0 52.5 9t44.5 23l15 89q11 57 -5 80t-64 23q-55 0 -78 -27t-33 -84q-11 -63 5 -88t63 -25zM201 -72q51 0 76.5 18t34.5 69l18 99q-29 -12 -59.5 -19.5t-70.5 -7.5q-54 0 -88.5 14t-51.5 40.5t-20 65t6 87.5q9 53 28.5 93.5t51.5 68.5t78 42t108 14
q67 0 108 -16t61 -44.5t23 -66.5t-5 -82l-49 -279q-10 -55 -30 -94t-52 -64t-78 -36.5t-107 -11.5q-47 0 -91.5 9t-79.5 22l20 115q38 -17 81 -26.5t88 -9.5z" />
    <glyph glyph-name="zero.onum" horiz-adv-x="536" 
d="M372 300q6 32 3 52t-13 31t-26.5 15t-37.5 4t-38.5 -4t-31.5 -15t-24 -31t-16 -52l-17 -100q-6 -32 -2.5 -52t13.5 -31t26 -15t37 -4t38.5 4t31.5 15t24 31t16 52zM493 210q-12 -65 -35.5 -108t-57.5 -68.5t-78.5 -35.5t-96.5 -10t-92.5 10t-65.5 35.5t-33.5 68.5
t3.5 108l14 80q11 65 34.5 108t58 68.5t78.5 35.5t96 10t92.5 -10t65.5 -35.5t33.5 -68.5t-2.5 -108z" />
    <glyph glyph-name="dollar.onum" horiz-adv-x="531" 
d="M467 150q-5 -26 -13 -52t-28 -47t-55 -36t-93 -20l-16 -90h-106l16 90q-46 4 -75.5 16.5t-44.5 33.5t-18 50t4 67h136q-6 -35 10.5 -47t60.5 -12q42 0 61.5 11.5t24.5 35.5q3 16 1.5 27t-11.5 18t-29 11t-52 7q-56 4 -90.5 15t-52.5 29t-21.5 44t2.5 60q12 69 59.5 107
t125.5 46l14 81h106l-14 -81q82 -8 110.5 -47t14.5 -121h-136q1 10 1.5 20.5t-5 19.5t-20 15t-41.5 6q-44 0 -60 -14.5t-20 -35.5q-2 -14 -0.5 -23.5t9.5 -16t23 -10.5t40 -6q66 -6 105 -15.5t58.5 -27t22.5 -43.5t-4 -65z" />
    <glyph glyph-name="cent.onum" horiz-adv-x="541" 
d="M306 402q-26 0 -44 -6t-30 -19t-20 -34t-13 -52l-15 -82q-6 -33 -5 -54t9 -34t24 -18t41 -5q40 0 62 16t31 66h134q-17 -96 -65.5 -138t-124.5 -51l-15 -86h-106l15 85q-44 4 -74 18.5t-46.5 42t-20 68.5t6.5 100l11 62q10 60 28.5 101.5t44.5 68.5t61 40.5t80 18.5
l15 85h106l-15 -86q37 -5 64.5 -16.5t43.5 -34t20.5 -56.5t-4.5 -82h-134q4 26 2 42t-10.5 25t-23 12t-33.5 3z" />
    <glyph glyph-name="sterling.onum" horiz-adv-x="568" 
d="M12 0l19 110q39 0 64 11.5t38.5 31.5t16.5 48.5t-3 62.5h-89l15 82h63q-6 26 -10.5 56.5t1.5 64.5q15 87 72 131t162 44q52 0 88.5 -9t57.5 -30t27 -56t-3 -87h-136q6 34 -5 53t-47 19q-69 0 -81 -71q-6 -34 -4 -59.5t4 -55.5h112l-15 -82h-97q-1 -50 -13.5 -86.5
t-48.5 -67.5h103q38 0 54.5 16t24.5 57h136q-9 -52 -24.5 -87t-39.5 -56.5t-58.5 -30.5t-83.5 -9h-300z" />
    <glyph glyph-name="Euro.onum" horiz-adv-x="596" 
d="M304 102q24 0 42 4.5t31 16t22 30.5t14 48h136q-10 -57 -30 -97.5t-52 -66t-77 -37.5t-106 -12q-121 0 -166.5 56t-24.5 177l2 10h-55l11 60h55l8 47h-55l11 60h55l2 11q22 124 89 178.5t184 54.5q61 0 102 -12t63.5 -37.5t28 -65.5t-4.5 -97h-136q10 55 -7.5 76.5
t-65.5 21.5q-46 0 -74 -22t-38 -76l-5 -32h136l-21 -60h-126l-8 -47h118l-21 -60h-108l-5 -31q-10 -54 10.5 -76t65.5 -22z" />
    <glyph glyph-name="yen.onum" horiz-adv-x="548" 
d="M188 139l9 53h-118l11 60h112l-111 378h147l54 -268h2l150 268h155l-245 -378h112l-11 -60h-118l-9 -53h118l-11 -60h-118l-13 -79h-140l13 79h-118l11 60h118z" />
    <glyph glyph-name="numbersign.onum" horiz-adv-x="581" 
d="M501 156h-94l-40 -156h-91l40 156h-106l-40 -156h-90l41 156h-94l21 78h94l42 163h-94l20 78h94l41 155h90l-42 -155h106l42 155h91l-42 -155h94l-20 -78h-94l-42 -163h94zM231 234h106l42 163h-106z" />
    <glyph glyph-name="percent.onum" horiz-adv-x="652" 
d="M202 352q-36 0 -61 7t-39.5 24t-18 45t3.5 69q14 82 54.5 113.5t111.5 31.5q72 0 100 -31.5t14 -113.5q-7 -41 -20.5 -69t-33.5 -45t-47.5 -24t-63.5 -7zM214 421q29 0 44.5 15t23.5 61t-2 61t-39 15t-45 -15t-24 -61t2.5 -61t39.5 -15zM566 630h89l-538 -630h-89z
M481 278q71 0 99.5 -31.5t14.5 -113.5t-54.5 -113.5t-111.5 -31.5q-72 0 -100 31.5t-14 113.5t54.5 113.5t111.5 31.5zM468 209q-29 0 -44.5 -15t-23.5 -61t2.5 -61t39.5 -15t44.5 15t23.5 61t-2.5 61t-39.5 15z" />
    <glyph glyph-name="a.smcp" horiz-adv-x="500" 
d="M307 98h-158l-39 -98h-135l245 556h176l49 -556h-133zM189 202h114l-13 246h-2z" />
    <glyph glyph-name="b.smcp" horiz-adv-x="525" 
d="M118 556h239q48 0 79.5 -8.5t48.5 -26.5t21.5 -45t-2.5 -64q-8 -49 -35.5 -80t-70.5 -47q51 -16 66.5 -50t6.5 -87q-6 -36 -19.5 -63.5t-37 -46.5t-59.5 -28.5t-88 -9.5h-247zM196 228l-21 -118h90q37 0 52.5 15.5t20.5 44.5q5 28 -5 43t-46 15h-91zM214 332h80
q35 0 50.5 14.5t21.5 45.5q5 30 -7.5 42t-44.5 12h-80z" />
    <glyph glyph-name="c.smcp" horiz-adv-x="504" 
d="M233 98q45 0 63 20t25 58h134q-8 -41 -22.5 -75.5t-42 -59.5t-70 -39t-105.5 -14q-108 0 -155 45.5t-27 155.5l31 178q19 106 78 153.5t172 47.5q63 0 101 -14t57.5 -39t22.5 -59.5t-4 -75.5h-134q7 39 -4.5 58.5t-56.5 19.5q-43 0 -64.5 -17.5t-30.5 -67.5l-33 -191
q-9 -48 7.5 -66t57.5 -18z" />
    <glyph glyph-name="d.smcp" horiz-adv-x="538" 
d="M20 0l98 556h225q53 0 89.5 -10t57 -33.5t25.5 -61.5t-5 -94l-27 -158q-10 -56 -28 -94.5t-45.5 -61.5t-67 -33t-92.5 -10h-230zM251 110q25 0 41.5 5t27 15.5t16.5 26.5t10 37l29 166q4 22 3.5 38t-7 26.5t-21.5 16t-40 5.5h-76l-59 -336h76z" />
    <glyph glyph-name="e.smcp" horiz-adv-x="477" 
d="M394 228h-198l-21 -118h231l-19 -110h-367l98 556h367l-20 -110h-231l-20 -114h198z" />
    <glyph glyph-name="f.smcp" horiz-adv-x="448" 
d="M20 0l98 556h348l-20 -110h-212l-20 -114h179l-18 -104h-179l-40 -228h-136z" />
    <glyph glyph-name="g.smcp" horiz-adv-x="533" 
d="M74 367q19 107 81 154t169 47q62 0 100 -14.5t57 -40t22.5 -60.5t-3.5 -76h-132q7 39 -5 60t-57 21q-41 0 -63.5 -18t-31.5 -70l-33 -185q-8 -48 8 -67.5t57 -19.5q45 0 63.5 18.5t23.5 47.5l12 65h-83l18 104h219l-58 -333h-58l-10 42q-26 -26 -62 -40t-86 -14
q-51 0 -89 10.5t-61 34.5t-31 62.5t2 93.5z" />
    <glyph glyph-name="h.smcp" horiz-adv-x="544" 
d="M444 0h-136l40 228h-152l-40 -228h-136l98 556h136l-40 -224h152l40 224h136z" />
    <glyph glyph-name="i.smcp" horiz-adv-x="256" 
d="M118 556h136l-98 -556h-136z" />
    <glyph glyph-name="j.smcp" horiz-adv-x="344" 
d="M108 446l20 110h214l-75 -425q-8 -41 -22 -68.5t-34.5 -44t-47.5 -23.5t-61 -7q-26 0 -55 3t-47 9l19 112q23 -5 37 -7.5t30 -2.5q23 0 33 9.5t13 26.5l54 308h-78z" />
    <glyph glyph-name="k.smcp" horiz-adv-x="487" 
d="M156 0h-136l98 556h136l-40 -227l168 227h152l-222 -286l125 -270h-147l-94 232z" />
    <glyph glyph-name="l.smcp" horiz-adv-x="396" 
d="M118 556h136l-79 -446h170l-19 -110h-306z" />
    <glyph glyph-name="m.smcp" horiz-adv-x="694" 
d="M333 170h2l164 386h193l-98 -556h-134l40 230l37 182l-179 -412h-103l-34 412l-26 -177l-41 -235h-134l98 556h189z" />
    <glyph glyph-name="n.smcp" horiz-adv-x="555" 
d="M455 0h-165l-77 381l-67 -381h-126l98 556h166l75 -381l68 381h126z" />
    <glyph glyph-name="o.smcp" horiz-adv-x="526" 
d="M481 200q-11 -59 -31 -99t-52 -65.5t-75.5 -36.5t-100.5 -11t-97 11t-63.5 36.5t-30.5 65.5t4 99l27 157q10 58 31 98.5t52.5 65.5t75 36t100.5 11t97.5 -11t63.5 -36t29.5 -65.5t-3.5 -98.5zM373 359q10 57 -6.5 78t-63.5 21t-70.5 -21.5t-33.5 -77.5l-29 -161
q-10 -57 6.5 -78.5t63.5 -21.5q46 0 70 22t34 78z" />
    <glyph glyph-name="p.smcp" horiz-adv-x="501" 
d="M118 556h206q106 0 148 -40.5t25 -140.5q-9 -52 -27.5 -87.5t-48 -57t-69.5 -31t-93 -9.5h-70l-33 -190h-136zM207 294h71q38 0 56.5 20t25.5 58q7 36 -4.5 55t-53.5 19h-68z" />
    <glyph glyph-name="q.smcp" horiz-adv-x="526" 
d="M481 200q-18 -101 -66.5 -149t-134.5 -59q0 -17 11.5 -24t30.5 -7h54l-38 -62h-80q-45 0 -72 21.5t-21 70.5q-83 10 -115.5 58.5t-14.5 150.5l27 157q10 58 31 98.5t53.5 65.5t76 36t100.5 11t97 -11t63 -36t29 -65.5t-4 -98.5zM373 359q10 57 -6.5 78t-63.5 21
t-70.5 -21.5t-33.5 -77.5l-29 -161q-10 -57 6.5 -78.5t63.5 -21.5q46 0 70 22t34 78z" />
    <glyph glyph-name="r.smcp" horiz-adv-x="517" 
d="M447 0h-135l-62 190h-61l-33 -190h-136l98 556h202q55 0 93.5 -9.5t61 -30.5t29 -55.5t-2.5 -84.5q-14 -76 -47.5 -116t-78.5 -57zM207 294h68q40 0 61 19t28 59t-7.5 57t-54.5 17h-68z" />
    <glyph glyph-name="s.smcp" horiz-adv-x="514" 
d="M233 99q49 0 68.5 16t24.5 46q6 35 -12 49.5t-70 22.5q-53 7 -89 18.5t-56 31t-25.5 49t2.5 73.5q14 78 71.5 120.5t164.5 42.5q59 0 97 -11t58.5 -33t25 -55t-2.5 -76h-132q6 35 -8 50t-56 15q-72 0 -83 -59q-3 -19 0.5 -31t13.5 -20t25.5 -12.5t36.5 -7.5
q64 -11 101.5 -24t56.5 -32t21.5 -46.5t-4.5 -66.5q-14 -75 -74 -122.5t-171 -47.5q-63 0 -104 11.5t-63 34.5t-28 57t2 78h134q-3 -18 -1.5 -31.5t9.5 -22t24.5 -13t42.5 -4.5z" />
    <glyph glyph-name="t.smcp" horiz-adv-x="438" 
d="M189 446h-131l20 110h398l-20 -110h-131l-78 -446h-136z" />
    <glyph glyph-name="u.smcp" horiz-adv-x="534" 
d="M249 556l-67 -377q-8 -43 5.5 -62t56.5 -19t62.5 19t27.5 62l67 377h136l-67 -377q-9 -54 -28.5 -90.5t-49.5 -58.5t-71 -31.5t-93 -9.5q-53 0 -91.5 9.5t-61.5 31.5t-30.5 58.5t1.5 90.5l67 377h136z" />
    <glyph glyph-name="v.smcp" horiz-adv-x="494" 
d="M229 143h2l159 413h147l-247 -556h-166l-51 556h143z" />
    <glyph glyph-name="w.smcp" horiz-adv-x="768" 
d="M515 556l3 -412h2l136 412h140l-213 -556h-165l2 432l-150 -432h-165l-17 556h136l-10 -412h2l149 412h150z" />
    <glyph glyph-name="x.smcp" horiz-adv-x="474" 
d="M323 287l99 -287h-144l-46 184l-110 -184h-150l199 287l-97 269h145l43 -169l103 169h151z" />
    <glyph glyph-name="y.smcp" horiz-adv-x="465" 
d="M160 203l-87 353h142l31 -230h2l115 230h145l-212 -353l-35 -203h-136z" />
    <glyph glyph-name="z.smcp" horiz-adv-x="481" 
d="M113 556h376l-16 -88l-286 -358h233l-19 -110h-391l15 87l286 359h-218z" />
    <glyph glyph-name="ampersand.smcp" horiz-adv-x="598" 
d="M478 228l-13 -74q-6 -31 7.5 -42t43.5 -11l-17 -101q-23 0 -41 1.5t-33 6t-27 13.5t-23 23q-29 -24 -68.5 -40t-87.5 -16q-111 0 -154 38t-28 123q8 48 40 83.5t83 49.5q-42 17 -57.5 50.5t-8.5 75.5q14 79 69 118.5t156 39.5q108 0 148 -40t24 -133h-135q6 33 -8.5 48
t-47.5 15q-29 0 -48 -14.5t-25 -49.5q-7 -35 11 -47.5t49 -12.5h266l-18 -104h-57zM243 98q35 0 58 17t31 56l10 57h-86q-29 0 -51 -14t-28 -49q-7 -38 11.5 -52.5t54.5 -14.5z" />
    <glyph glyph-name="one.smcp" horiz-adv-x="342" 
d="M84 0l78 446h-94l12 69l146 42h94l-98 -557h-138z" />
    <glyph glyph-name="two.smcp" horiz-adv-x="487" 
d="M12 67q11 63 38 102.5t61 65t71.5 41.5t70 31t55.5 33.5t29 50.5q7 38 -6.5 52.5t-46.5 14.5q-34 0 -52 -17t-24 -50h-134q16 88 71.5 132.5t158.5 44.5q57 0 93 -12t55.5 -35t23.5 -55.5t-3 -74.5q-8 -47 -33 -77.5t-58.5 -52t-70.5 -37t-69.5 -31t-55.5 -35t-28 -48.5
h279l-19 -110h-417z" />
    <glyph glyph-name="three.smcp" horiz-adv-x="501" 
d="M70 391q17 97 75.5 137t160.5 40q107 0 146.5 -44.5t25.5 -122.5q-8 -43 -37.5 -73t-75.5 -44q54 -11 75 -45t13 -85q-6 -33 -20.5 -63t-42.5 -52.5t-70.5 -36t-105.5 -13.5q-60 0 -99.5 10.5t-61.5 32.5t-27.5 54.5t2.5 76.5h134q-3 -15 -1.5 -27t9 -20.5t22.5 -13
t41 -4.5q46 0 63 17.5t22 48.5q4 21 0.5 34t-12.5 20t-23.5 9.5t-33.5 2.5h-40l18 104h40q28 0 47.5 10.5t26.5 48.5q5 31 -6.5 48t-48.5 17q-39 0 -57 -16t-25 -51h-134z" />
    <glyph glyph-name="four.smcp" horiz-adv-x="486" 
d="M248 100h-251l19 107l284 349h165l-61 -346h59l-20 -110h-59l-17 -100h-136zM268 210l38 216l-173 -216h135z" />
    <glyph glyph-name="five.smcp" horiz-adv-x="503" 
d="M60 247l85 309h342l-20 -110h-232l-27 -107q27 10 53.5 15t48.5 5q97 0 131.5 -42.5t17.5 -139.5q-17 -94 -76 -141.5t-172 -47.5q-62 0 -101.5 11.5t-60 34t-25 55t3.5 74.5h132q-6 -34 9 -49.5t56 -15.5q46 0 67 19t29 62q9 51 -3.5 72t-50.5 21q-20 0 -42 -4.5
t-51 -20.5h-114z" />
    <glyph glyph-name="six.smcp" horiz-adv-x="508" 
d="M196 317q25 13 56 21.5t60 8.5q51 0 83 -11t48.5 -32.5t19 -54t-4.5 -74.5q-17 -95 -73.5 -141t-169.5 -46q-111 0 -153.5 49.5t-22.5 158.5l29 163q19 113 81 161t165 48q44 0 80.5 -6.5t60.5 -25t33 -51t0 -83.5h-134q5 29 -8 42.5t-51 13.5q-37 0 -58 -15.5t-29 -60.5
zM265 262q-39 0 -82 -23l-12 -65q-7 -40 6.5 -58t55.5 -18q46 0 64 22.5t24 57.5q8 45 -4 64.5t-52 19.5z" />
    <glyph glyph-name="seven.smcp" horiz-adv-x="424" 
d="M59 0l244 446h-245l20 110h384l-17 -91l-243 -465h-143z" />
    <glyph glyph-name="eight.smcp" horiz-adv-x="514" 
d="M214 -12q-118 0 -163 40t-31 117q8 47 45 84t93 54q-47 17 -63 53t-8 81q14 80 76 115.5t154 35.5q93 0 141 -35.5t34 -115.5q-8 -45 -37 -81t-81 -53q51 -17 74.5 -54t15.5 -84q-14 -77 -73 -117t-177 -40zM247 238q-36 0 -58 -18.5t-28 -50.5q-6 -37 10.5 -54t62.5 -17
t68.5 17t28.5 54q6 32 -10 50.5t-51 18.5h-23zM288 330q19 0 39.5 13.5t25.5 46.5q7 39 -8.5 53.5t-47.5 14.5t-53 -14.5t-28 -53.5q-5 -33 10.5 -46.5t34.5 -13.5h27z" />
    <glyph glyph-name="nine.smcp" horiz-adv-x="510" 
d="M331 239q-25 -13 -56.5 -21.5t-60.5 -8.5q-51 0 -83 11t-48.5 32.5t-20 54t4.5 74.5q17 95 75.5 141t171.5 46q111 0 152 -49.5t22 -158.5l-29 -163q-20 -113 -82 -161t-165 -48q-44 0 -80.5 6.5t-60.5 25t-33.5 51t-0.5 83.5h136q-5 -29 8.5 -42.5t51.5 -13.5
q39 0 58.5 15.5t27.5 60.5zM261 294q40 0 83 23l12 65q7 40 -7 58t-56 18q-46 0 -64.5 -22.5t-24.5 -57.5q-8 -45 4.5 -64.5t52.5 -19.5z" />
    <glyph glyph-name="zero.smcp" horiz-adv-x="503" 
d="M457 197q-20 -113 -79.5 -161t-165.5 -48q-107 0 -152.5 48t-25.5 161l29 162q20 113 80.5 161t165.5 48t151 -48t26 -161zM352 371q9 50 -5.5 68.5t-54.5 18.5q-41 0 -61.5 -18.5t-29.5 -68.5l-33 -186q-9 -52 5.5 -69.5t55.5 -17.5q40 0 60.5 17.5t29.5 69.5z" />
    <glyph glyph-name="dollar.smcp" horiz-adv-x="509" 
d="M457 177q-5 -26 -13.5 -52t-28 -47t-55 -36t-93.5 -20l-15 -90h-106l15 90q-46 4 -75 16.5t-44 33.5t-18 50t4 67h136q-6 -35 10 -47t60 -12q42 0 62 11.5t25 35.5q3 16 1 27t-11.5 18t-28.5 11t-52 7q-56 4 -90.5 15t-52.5 29t-21.5 44t2.5 60q12 69 59.5 107t125.5 46
l14 81h106l-14 -81q82 -8 110.5 -46.5t13.5 -121.5h-136q2 10 2.5 20.5t-5 19.5t-20 15t-41.5 6q-44 0 -60 -14.5t-20 -35.5q-2 -14 -0.5 -23.5t9 -16t22.5 -10.5t40 -6q66 -6 105.5 -15.5t59 -27t22.5 -43.5t-4 -65z" />
    <glyph glyph-name="cent.smcp" horiz-adv-x="522" 
d="M298 430q-26 0 -44 -6t-30 -19t-20 -34t-13 -52l-15 -82q-6 -33 -5 -54t9 -34t24 -18t41 -5q40 0 62 16t31 66h134q-17 -96 -65.5 -138t-124.5 -51l-15 -86h-106l15 85q-44 4 -74 18.5t-46.5 42t-20 68.5t6.5 100l11 62q10 60 28.5 101.5t44.5 68.5t61 40.5t80 18.5
l15 85h106l-15 -86q37 -5 64.5 -16.5t43.5 -34t20.5 -56.5t-4.5 -82h-134q4 26 2 42t-10.5 25t-23 12t-33.5 3z" />
    <glyph glyph-name="sterling.smcp" horiz-adv-x="529" 
d="M232 394q-5 -29 -4 -51.5t2 -39.5h87l-13 -76h-73q-1 -30 -11 -61t-37 -56h79q25 0 41 4.5t26 14t15 24.5t9 37h134q-11 -60 -27.5 -97t-41 -58t-58 -28t-78.5 -7h-282l19 110q44 0 70 18.5t33 53.5q2 10 2 21t-2 24h-82l13 76h57q-8 24 -12 48t1 55q14 78 68 118.5
t154 40.5q56 0 91.5 -10.5t54 -32t22 -54t-3.5 -75.5h-134q5 32 -5.5 47t-43.5 15q-60 0 -70 -61z" />
    <glyph glyph-name="Euro.smcp" horiz-adv-x="551" 
d="M91 253l9 50h-57l9 54h57l2 10q19 107 82 154t170 47q62 0 99.5 -14.5t56.5 -40t22 -60.5t-4 -76h-134q7 39 -4 60t-56 21q-41 0 -64 -19.5t-32 -72.5l-2 -9h118l-19 -54h-108l-9 -50h98l-18 -54h-89l-3 -14q-8 -48 8 -67.5t57 -19.5q45 0 63 21.5t25 59.5h134
q-7 -41 -22.5 -76t-43.5 -60.5t-71 -40t-105 -14.5q-51 0 -89 10.5t-61.5 34.5t-31.5 62.5t2 93.5l2 10h-57l9 54h57z" />
    <glyph glyph-name="yen.smcp" horiz-adv-x="496" 
d="M161 120l7 42h-113l10 58h106l-83 336h142l32 -230h2l114 230h146l-203 -336h106l-10 -58h-113l-7 -42h113l-11 -58h-113l-10 -62h-136l10 62h-113l11 58h113z" />
    <glyph glyph-name="numbersign.smcp" horiz-adv-x="518" 
d="M445 131h-79l-33 -131h-93l33 131h-88l-33 -131h-93l33 131h-79l21 80h79l35 134h-79l21 80h79l35 131h93l-35 -131h88l35 131h93l-35 -131h79l-21 -80h-79l-35 -134h79zM206 211h88l35 134h-88z" />
    <glyph glyph-name="percent.smcp" horiz-adv-x="614" 
d="M117 0h-89l471 556h89zM163 444q-7 -39 0 -52t30 -13q22 0 34.5 12.5t18.5 50.5q7 37 -1 49.5t-30 12.5t-34 -12.5t-18 -47.5zM377 118q-7 -39 0.5 -52t30.5 -13q22 0 34 12.5t19 50.5q7 37 -1 49.5t-30 12.5t-34.5 -12.5t-18.5 -47.5zM323 441q-6 -36 -17.5 -60.5
t-29 -39.5t-41 -21t-53.5 -6q-62 0 -86 27t-11 100q13 72 46.5 99.5t95.5 27.5q61 0 85 -27.5t11 -99.5zM538 115q-13 -73 -47 -100t-95 -27q-62 0 -85.5 27t-10.5 100q13 72 46 99.5t95 27.5q61 0 85.5 -27.5t11.5 -99.5z" />
    <glyph glyph-name="one.tnum_smcp" horiz-adv-x="500" 
d="M88 110h94l59 336h-99l12 69l126 42h119l-79 -447h94l-19 -110h-326z" />
    <glyph glyph-name="two.tnum_smcp" horiz-adv-x="500" 
d="M12 67q11 63 38 103t61 65.5t71.5 41t70 30.5t55.5 34t29 50q7 38 -6.5 52.5t-46.5 14.5q-34 0 -52 -17t-24 -50h-134q16 88 71.5 132.5t158.5 44.5q57 0 93 -12t55.5 -35t23.5 -55.5t-3 -74.5q-8 -47 -33 -77.5t-58.5 -52t-70.5 -37t-69.5 -31t-55.5 -35t-28 -48.5h279
l-19 -110h-417z" />
    <glyph glyph-name="three.tnum_smcp" horiz-adv-x="500" 
d="M67 391q17 97 76.5 137t161.5 40q54 0 89.5 -11.5t56 -33t26 -52.5t-1.5 -70q-8 -43 -37.5 -73t-75.5 -44q54 -11 75 -45t13 -85q-6 -33 -21 -63t-43 -52.5t-71 -36t-106 -13.5q-60 0 -99.5 10.5t-60.5 32.5t-26.5 54.5t2.5 76.5h134q-3 -15 -1.5 -27t9 -20.5t22.5 -13
t41 -4.5q46 0 63 17.5t22 48.5q4 21 0.5 34t-12.5 20t-23.5 9.5t-33.5 2.5h-40l18 104h40q28 0 47.5 10.5t26.5 48.5q5 31 -6.5 48t-48.5 17q-39 0 -57 -16t-25 -51h-134z" />
    <glyph glyph-name="four.tnum_smcp" horiz-adv-x="500" 
d="M255 100h-251l19 107l283 349h166l-61 -346h59l-20 -110h-59l-17 -100h-136zM275 210l38 216l-172 -216h134z" />
    <glyph glyph-name="five.tnum_smcp" horiz-adv-x="500" 
d="M56 247l85 309h342l-20 -110h-232l-27 -107q27 10 53.5 15t48.5 5q97 0 131.5 -42.5t17.5 -139.5q-17 -94 -76.5 -141.5t-172.5 -47.5q-62 0 -101 11.5t-59.5 34t-25 55t3.5 74.5h133q-6 -34 8.5 -49.5t55.5 -15.5q46 0 67 19t29 62q9 51 -3.5 72t-50.5 21
q-20 0 -42 -4.5t-51 -20.5h-114z" />
    <glyph glyph-name="six.tnum_smcp" horiz-adv-x="500" 
d="M189 317q25 13 56 21.5t60 8.5q51 0 83 -11t48.5 -32.5t19 -54t-4.5 -74.5q-17 -95 -75 -141t-171 -46q-111 0 -152 49.5t-21 158.5l29 163q19 113 78.5 161t166.5 48q44 0 80.5 -6.5t60.5 -25t33.5 -51t0.5 -83.5h-136q5 29 -8 42.5t-51 13.5q-37 0 -57 -15.5t-28 -60.5
zM258 262q-39 0 -82 -23l-12 -65q-7 -40 6.5 -58t55.5 -18q46 0 64 22.5t24 57.5q8 45 -4 64.5t-52 19.5z" />
    <glyph glyph-name="seven.tnum_smcp" horiz-adv-x="500" 
d="M93 0l254 446h-255l20 110h394l-17 -91l-253 -465h-143z" />
    <glyph glyph-name="eight.tnum_smcp" horiz-adv-x="500" 
d="M209 -12q-118 0 -164 40t-32 117q8 47 45 84t93 54q-47 17 -63 53t-8 81q14 80 76 115.5t154 35.5q93 0 141 -35.5t34 -115.5q-8 -45 -37 -81t-81 -53q51 -17 74.5 -54t15.5 -84q-14 -77 -72 -117t-176 -40zM240 238q-36 0 -58 -18.5t-28 -50.5q-6 -37 10.5 -54t62.5 -17
t68.5 17t28.5 54q6 32 -10 50.5t-51 18.5h-23zM281 330q19 0 39.5 13.5t25.5 46.5q7 39 -8.5 53.5t-47.5 14.5t-53 -14.5t-28 -53.5q-5 -33 10.5 -46.5t34.5 -13.5h27z" />
    <glyph glyph-name="nine.tnum_smcp" horiz-adv-x="500" 
d="M328 239q-25 -13 -56.5 -21.5t-60.5 -8.5q-51 0 -83 11t-48.5 32.5t-20 54t4.5 74.5q17 95 75.5 141t171.5 46q111 0 152 -49.5t22 -158.5l-29 -163q-10 -60 -30.5 -100t-51.5 -64.5t-72.5 -34.5t-92.5 -10q-44 0 -80.5 6.5t-60.5 25t-33.5 51t-0.5 83.5h132
q-5 -29 9.5 -42.5t52.5 -13.5q39 0 59.5 15.5t28.5 60.5zM258 294q40 0 83 23l12 65q7 40 -7 58t-56 18q-46 0 -64.5 -22.5t-24.5 -57.5q-8 -45 4.5 -64.5t52.5 -19.5z" />
    <glyph glyph-name="zero.tnum_smcp" horiz-adv-x="500" 
d="M455 197q-20 -113 -79.5 -161t-165.5 -48q-107 0 -152.5 48t-25.5 161l29 162q19 113 80.5 161t166.5 48t150 -48t26 -161zM350 371q9 50 -5.5 68.5t-54.5 18.5q-41 0 -61.5 -18.5t-29.5 -68.5l-33 -186q-9 -52 5.5 -69.5t55.5 -17.5q40 0 60.5 17.5t29.5 69.5z" />
    <glyph glyph-name="dollar.tnum_smcp" horiz-adv-x="500" 
d="M456 177q-5 -26 -13.5 -52t-28 -47t-55 -36t-93.5 -20l-15 -90h-106l15 90q-46 4 -75 16.5t-44 33.5t-18 50t4 67h134q-6 -35 10 -47t60 -12q42 0 63 11.5t26 35.5q3 16 1 27t-11.5 18t-28.5 11t-52 7q-55 4 -89.5 16t-52.5 30.5t-22 44t2 57.5q12 69 59.5 107t125.5 46
l14 81h106l-14 -81q82 -8 110.5 -46.5t13.5 -121.5h-134q2 10 2.5 20.5t-5 19.5t-20 15t-41.5 6q-44 0 -61 -14.5t-21 -35.5q-2 -14 -0.5 -23.5t9 -16t22.5 -10.5t40 -6q65 -6 104.5 -16.5t59 -28.5t23 -44t-3.5 -62z" />
    <glyph glyph-name="cent.tnum_smcp" horiz-adv-x="500" 
d="M290 430q-26 0 -44 -6t-30 -19t-20 -34t-13 -52l-15 -82q-6 -33 -5 -54t9 -34t24 -18t41 -5q40 0 62 16t31 66h134q-17 -96 -65.5 -138t-124.5 -51l-15 -86h-106l15 85q-44 4 -74 18.5t-46.5 42t-20 68.5t6.5 100l11 62q10 60 28.5 101.5t44.5 68.5t61 40.5t80 18.5
l15 85h106l-15 -86q37 -5 64.5 -16.5t43.5 -34t20.5 -56.5t-4.5 -82h-134q4 26 2 42t-10.5 25t-23 12t-33.5 3z" />
    <glyph glyph-name="sterling.tnum_smcp" horiz-adv-x="500" 
d="M216 394q-5 -29 -4 -51.5t2 -39.5h87l-13 -76h-73q-1 -30 -11 -61t-37 -56h79q25 0 41 4.5t26 14t15 24.5t9 37h134q-11 -60 -27.5 -97t-41 -58t-58 -28t-78.5 -7h-282l19 110q44 0 70 18.5t33 53.5q2 10 2 21t-2 24h-82l13 76h57q-8 24 -12 48t1 55q14 78 68 118.5
t154 40.5q56 0 91.5 -10.5t54 -32t22 -54t-3.5 -75.5h-134q5 32 -5.5 47t-43.5 15q-60 0 -70 -61z" />
    <glyph glyph-name="Euro.tnum_smcp" horiz-adv-x="500" 
d="M70 253l9 50h-57l9 54h57l2 10q19 107 82 154t170 47q62 0 99.5 -14.5t56.5 -40t22 -60.5t-4 -76h-134q7 39 -4 60t-56 21q-41 0 -64 -19.5t-32 -72.5l-2 -9h118l-19 -54h-108l-9 -50h98l-18 -54h-89l-3 -14q-8 -48 8 -67.5t57 -19.5q45 0 63 21.5t25 59.5h134
q-7 -41 -22.5 -76t-43.5 -60.5t-71 -40t-105 -14.5q-51 0 -89 10.5t-61.5 34.5t-31.5 62.5t2 93.5l2 10h-57l9 54h57z" />
    <glyph glyph-name="yen.tnum_smcp" horiz-adv-x="500" 
d="M163 120l7 42h-113l10 58h106l-83 336h142l32 -230h2l114 230h146l-203 -336h106l-10 -58h-113l-7 -42h113l-11 -58h-113l-10 -62h-136l10 62h-113l11 58h113z" />
    <glyph glyph-name="numbersign.tnum_smcp" horiz-adv-x="500" 
d="M436 131h-79l-33 -131h-93l33 131h-88l-33 -131h-93l33 131h-79l21 80h79l35 134h-79l21 80h79l35 131h93l-35 -131h88l35 131h93l-35 -131h79l-21 -80h-79l-35 -134h79zM197 211h88l35 134h-88z" />
    <glyph glyph-name="percent.tnum_smcp" horiz-adv-x="500" 
d="M64 0h-89l471 556h89zM110 444q-7 -39 0 -52t30 -13q22 0 34.5 12.5t18.5 50.5q7 37 -1 49.5t-30 12.5t-34 -12.5t-18 -47.5zM324 118q-7 -39 0.5 -52t30.5 -13q22 0 34 12.5t19 50.5q7 37 -1 49.5t-30 12.5t-34.5 -12.5t-18.5 -47.5zM270 441q-6 -36 -17.5 -60.5
t-29 -39.5t-41 -21t-53.5 -6q-62 0 -86 27t-11 100q13 72 46.5 99.5t95.5 27.5q61 0 85 -27.5t11 -99.5zM485 115q-13 -73 -47 -100t-95 -27q-62 0 -85.5 27t-10.5 100q13 72 46 99.5t95 27.5q61 0 85.5 -27.5t11.5 -99.5z" />
    <glyph glyph-name="acute.smcp" horiz-adv-x="235" 
d="M154 720h127l-93 -120h-83z" />
    <glyph glyph-name="grave.smcp" horiz-adv-x="235" 
d="M260 600h-83l-51 120h127z" />
    <glyph glyph-name="circumflex.smcp" horiz-adv-x="335" 
d="M360 600h-86l-30 54l-49 -54h-90l75 120h147z" />
    <glyph glyph-name="dieresis.smcp" horiz-adv-x="352" 
d="M125 710h106l-19 -106h-106zM291 710h106l-19 -106h-106z" />
    <glyph glyph-name="tilde.smcp" horiz-adv-x="416" 
d="M346 686q14 0 24.5 8t13.5 26h78q-12 -69 -39.5 -94.5t-75.5 -25.5q-26 0 -41.5 7t-27.5 16t-24 16t-31 7q-31 0 -38 -34h-78q13 69 40.5 94.5t75.5 25.5q26 0 41 -7t27 -16t24 -16t31 -7z" />
    <glyph glyph-name="caron.smcp" horiz-adv-x="335" 
d="M306 600h-147l-33 120h86l30 -54l49 54h90z" />
    <glyph glyph-name="ring.smcp" horiz-adv-x="302" 
d="M247 772q53 0 77.5 -23t16.5 -70t-41.5 -71t-86.5 -24t-77.5 24t-16.5 71t41.5 70t86.5 23zM224 642q39 0 45 37q6 35 -33 35t-45 -35q-6 -37 33 -37z" />
    <glyph glyph-name="breve.smcp" horiz-adv-x="332" 
d="M231 596q-64 0 -89 35t-14 99h78q-9 -53 39 -53t57 53h78q-11 -64 -48 -99t-101 -35z" />
    <glyph glyph-name="macron.smcp" horiz-adv-x="390" 
d="M123 700h310l-15 -86h-310z" />
    <glyph glyph-name="dotaccent.smcp" horiz-adv-x="186" 
d="M125 710h106l-19 -106h-106z" />
    <glyph glyph-name="hungarumlaut.smcp" horiz-adv-x="378" 
d="M144 720h117l-73 -120h-83zM307 720h117l-93 -120h-83z" />
    <glyph glyph-name="aacute.smcp" horiz-adv-x="500" 
d="M307 98h-158l-39 -98h-135l245 556h176l49 -556h-133zM189 202h114l-13 246h-2zM326 720h127l-93 -120h-83z" />
    <glyph glyph-name="agrave.smcp" horiz-adv-x="500" 
d="M307 98h-158l-39 -98h-135l245 556h176l49 -556h-133zM189 202h114l-13 246h-2zM372 600h-83l-51 120h127z" />
    <glyph glyph-name="acircumflex.smcp" horiz-adv-x="500" 
d="M307 98h-158l-39 -98h-135l245 556h176l49 -556h-133zM189 202h114l-13 246h-2zM442 600h-86l-30 54l-49 -54h-90l75 120h147z" />
    <glyph glyph-name="adieresis.smcp" horiz-adv-x="500" 
d="M307 98h-158l-39 -98h-135l245 556h176l49 -556h-133zM189 202h114l-13 246h-2zM199 710h106l-19 -106h-106zM365 710h106l-19 -106h-106z" />
    <glyph glyph-name="atilde.smcp" horiz-adv-x="500" 
d="M307 98h-158l-39 -98h-135l245 556h176l49 -556h-133zM189 202h114l-13 246h-2zM388 686q14 0 24.5 8t13.5 26h78q-12 -69 -39.5 -94.5t-75.5 -25.5q-26 0 -41.5 7t-27.5 16t-24 16t-31 7q-31 0 -38 -34h-78q13 69 40.5 94.5t75.5 25.5q26 0 41 -7t27 -16t24 -16t31 -7z
" />
    <glyph glyph-name="aring.smcp" horiz-adv-x="500" 
d="M307 98h-158l-39 -98h-135l245 556h176l49 -556h-133zM189 202h114l-13 246h-2zM346 772q53 0 77.5 -23t16.5 -70t-41.5 -71t-86.5 -24t-77.5 24t-16.5 71t41.5 70t86.5 23zM323 642q39 0 45 37q6 35 -33 35t-45 -35q-6 -37 33 -37z" />
    <glyph glyph-name="amacron.smcp" horiz-adv-x="500" 
d="M307 98h-158l-39 -98h-135l245 556h176l49 -556h-133zM189 202h114l-13 246h-2zM178 700h310l-15 -86h-310z" />
    <glyph glyph-name="abreve.smcp" horiz-adv-x="500" 
d="M307 98h-158l-39 -98h-135l245 556h176l49 -556h-133zM189 202h114l-13 246h-2zM315 596q-64 0 -89 35t-14 99h78q-9 -53 39 -53t57 53h78q-11 -64 -48 -99t-101 -35z" />
    <glyph glyph-name="aogonek.smcp" horiz-adv-x="500" 
d="M306 98h-158l-39 -98h-134l245 556h176l49 -556q-23 -17 -37 -33t-18 -37q-2 -14 6 -20t23 -6h9l-14 -78h-57q-38 0 -58 17t-14 54q5 28 25.5 55.5t53.5 47.5h-53zM188 202h114l-13 246h-2z" />
    <glyph glyph-name="ae.smcp" horiz-adv-x="768" 
d="M685 228h-198l-21 -118h231l-19 -110h-367l16 98h-158l-60 -98h-134l368 556h433l-20 -110h-231l-20 -114h198zM232 202h114l42 246h-2z" />
    <glyph glyph-name="bdotaccent.smcp" horiz-adv-x="525" 
d="M118 556h239q48 0 79.5 -8.5t48.5 -26.5t21.5 -45t-2.5 -64q-8 -49 -35.5 -80t-70.5 -47q51 -16 66.5 -50t6.5 -87q-6 -36 -19.5 -63.5t-37 -46.5t-59.5 -28.5t-88 -9.5h-247zM196 228l-21 -118h90q37 0 52.5 15.5t20.5 44.5q5 28 -5 43t-46 15h-91zM214 332h80
q35 0 50.5 14.5t21.5 45.5q5 30 -7.5 42t-44.5 12h-80zM294 710h106l-19 -106h-106z" />
    <glyph glyph-name="cacute.smcp" horiz-adv-x="504" 
d="M233 98q45 0 63 20t25 58h134q-8 -41 -22.5 -75.5t-42 -59.5t-70 -39t-105.5 -14q-108 0 -155 45.5t-27 155.5l31 178q19 106 78 153.5t172 47.5q63 0 101 -14t57.5 -39t22.5 -59.5t-4 -75.5h-134q7 39 -4.5 58.5t-56.5 19.5q-43 0 -64.5 -17.5t-30.5 -67.5l-33 -191
q-9 -48 7.5 -66t57.5 -18zM325 720h127l-93 -120h-83z" />
    <glyph glyph-name="ccircumflex.smcp" horiz-adv-x="504" 
d="M233 98q45 0 63 20t25 58h134q-8 -41 -22.5 -75.5t-42 -59.5t-70 -39t-105.5 -14q-108 0 -155 45.5t-27 155.5l31 178q19 106 78 153.5t172 47.5q63 0 101 -14t57.5 -39t22.5 -59.5t-4 -75.5h-134q7 39 -4.5 58.5t-56.5 19.5q-43 0 -64.5 -17.5t-30.5 -67.5l-33 -191
q-9 -48 7.5 -66t57.5 -18zM449 600h-86l-30 54l-49 -54h-90l75 120h147z" />
    <glyph glyph-name="ccaron.smcp" horiz-adv-x="504" 
d="M233 98q45 0 63 20t25 58h134q-8 -41 -22.5 -75.5t-42 -59.5t-70 -39t-105.5 -14q-108 0 -155 45.5t-27 155.5l31 178q19 106 78 153.5t172 47.5q63 0 101 -14t57.5 -39t22.5 -59.5t-4 -75.5h-134q7 39 -4.5 58.5t-56.5 19.5q-43 0 -64.5 -17.5t-30.5 -67.5l-33 -191
q-9 -48 7.5 -66t57.5 -18zM390 600h-147l-33 120h86l30 -54l49 54h90z" />
    <glyph glyph-name="ccedilla.smcp" horiz-adv-x="504" 
d="M233 98q45 0 63 20t25 58h134q-7 -39 -21 -72t-39 -58t-63.5 -39.5t-95.5 -17.5l-14 -30q32 -4 49 -20t10 -54q-8 -44 -36 -65t-90 -21h-69l11 62h67q21 0 29 6t10 18q2 13 -4 18.5t-27 5.5h-33l39 80q-89 7 -126 53t-19 147l31 178q19 107 78.5 154t173.5 47
q63 0 101 -14t56.5 -39t21.5 -59.5t-4 -75.5h-134q7 39 -4.5 58.5t-56.5 19.5q-43 0 -64.5 -17.5t-30.5 -67.5l-33 -191q-9 -48 7.5 -66t57.5 -18z" />
    <glyph glyph-name="cdotaccent.smcp" horiz-adv-x="504" 
d="M233 98q45 0 63 20t25 58h134q-8 -41 -22.5 -75.5t-42 -59.5t-70 -39t-105.5 -14q-108 0 -155 45.5t-27 155.5l31 178q19 106 78 153.5t172 47.5q63 0 101 -14t57.5 -39t22.5 -59.5t-4 -75.5h-134q7 39 -4.5 58.5t-56.5 19.5q-43 0 -64.5 -17.5t-30.5 -67.5l-33 -191
q-9 -48 7.5 -66t57.5 -18zM289 710h106l-19 -106h-106z" />
    <glyph glyph-name="dcaron.smcp" horiz-adv-x="538" 
d="M20 0l98 556h225q53 0 89.5 -10t57 -33.5t25.5 -61.5t-5 -94l-27 -158q-10 -56 -28 -94.5t-45.5 -61.5t-67 -33t-92.5 -10h-230zM251 110q25 0 41.5 5t27 15.5t16.5 26.5t10 37l29 166q4 22 3.5 38t-7 26.5t-21.5 16t-40 5.5h-76l-59 -336h76zM387 600h-147l-33 120h86
l30 -54l49 54h90z" />
    <glyph glyph-name="ddotaccent.smcp" horiz-adv-x="538" 
d="M20 0l98 556h225q53 0 89.5 -10t57 -33.5t25.5 -61.5t-5 -94l-27 -158q-10 -56 -28 -94.5t-45.5 -61.5t-67 -33t-92.5 -10h-230zM251 110q25 0 41.5 5t27 15.5t16.5 26.5t10 37l29 166q4 22 3.5 38t-7 26.5t-21.5 16t-40 5.5h-76l-59 -336h76zM281 710h106l-19 -106h-106
z" />
    <glyph glyph-name="dcroat.smcp" horiz-adv-x="538" 
d="M26 323h50l42 233h225q53 0 89.5 -10t57 -33.5t25.5 -61.5t-5 -94l-27 -158q-10 -56 -28 -94.5t-45.5 -61.5t-67 -33t-92.5 -10h-230l41 237h-50zM251 110q25 0 41.5 5t27 15.5t16.5 26.5t10 37l29 166q4 22 3.5 38t-7 26.5t-21.5 16t-40 5.5h-76l-22 -123h64l-15 -86
h-64l-22 -127h76z" />
    <glyph glyph-name="eth.smcp" horiz-adv-x="538" 
d="M26 323h50l42 233h225q53 0 89.5 -10t57 -33.5t25.5 -61.5t-5 -94l-27 -158q-10 -56 -28 -94.5t-45.5 -61.5t-67 -33t-92.5 -10h-230l41 237h-50zM251 110q25 0 41.5 5t27 15.5t16.5 26.5t10 37l29 166q4 22 3.5 38t-7 26.5t-21.5 16t-40 5.5h-76l-22 -123h64l-15 -86
h-64l-22 -127h76z" />
    <glyph glyph-name="eacute.smcp" horiz-adv-x="477" 
d="M394 228h-198l-21 -118h231l-19 -110h-367l98 556h367l-20 -110h-231l-20 -114h198zM318 720h127l-93 -120h-83z" />
    <glyph glyph-name="egrave.smcp" horiz-adv-x="477" 
d="M394 228h-198l-21 -118h231l-19 -110h-367l98 556h367l-20 -110h-231l-20 -114h198zM381 600h-83l-51 120h127z" />
    <glyph glyph-name="ecircumflex.smcp" horiz-adv-x="477" 
d="M394 228h-198l-21 -118h231l-19 -110h-367l98 556h367l-20 -110h-231l-20 -114h198zM431 600h-86l-30 54l-49 -54h-90l75 120h147z" />
    <glyph glyph-name="edieresis.smcp" horiz-adv-x="477" 
d="M394 228h-198l-21 -118h231l-19 -110h-367l98 556h367l-20 -110h-231l-20 -114h198zM197 710h106l-19 -106h-106zM363 710h106l-19 -106h-106z" />
    <glyph glyph-name="ecaron.smcp" horiz-adv-x="477" 
d="M394 228h-198l-21 -118h231l-19 -110h-367l98 556h367l-20 -110h-231l-20 -114h198zM387 600h-147l-33 120h86l30 -54l49 54h90z" />
    <glyph glyph-name="emacron.smcp" horiz-adv-x="477" 
d="M394 228h-198l-21 -118h231l-19 -110h-367l98 556h367l-20 -110h-231l-20 -114h198zM171 700h310l-15 -86h-310z" />
    <glyph glyph-name="ebreve.smcp" horiz-adv-x="477" 
d="M394 228h-198l-21 -118h231l-19 -110h-367l98 556h367l-20 -110h-231l-20 -114h198zM313 596q-64 0 -89 35t-14 99h78q-9 -53 39 -53t57 53h78q-11 -64 -48 -99t-101 -35z" />
    <glyph glyph-name="eogonek.smcp" horiz-adv-x="477" 
d="M20 0l98 556h367l-20 -110h-231l-20 -114h198l-18 -104h-198l-21 -118h231l-19 -110q-23 -17 -37 -33t-18 -37q-2 -14 6 -20t23 -6h9l-14 -78h-57q-38 0 -58 17t-14 54q5 28 25.5 55.5t53.5 47.5h-286z" />
    <glyph glyph-name="edotaccent.smcp" horiz-adv-x="477" 
d="M394 228h-198l-21 -118h231l-19 -110h-367l98 556h367l-20 -110h-231l-20 -114h198zM270 710h106l-19 -106h-106z" />
    <glyph glyph-name="fdotaccent.smcp" horiz-adv-x="448" 
d="M20 0l98 556h348l-20 -110h-212l-20 -114h179l-18 -104h-179l-40 -228h-136zM266 710h106l-19 -106h-106z" />
    <glyph glyph-name="gcircumflex.smcp" horiz-adv-x="533" 
d="M74 367q19 107 81 154t169 47q62 0 100 -14.5t57 -40t22.5 -60.5t-3.5 -76h-132q7 39 -5 60t-57 21q-41 0 -63.5 -18t-31.5 -70l-33 -185q-8 -48 8 -67.5t57 -19.5q45 0 63.5 18.5t23.5 47.5l12 65h-83l18 104h219l-58 -333h-58l-10 42q-26 -26 -62 -40t-86 -14
q-51 0 -89 10.5t-61 34.5t-31 62.5t2 93.5zM459 600h-86l-30 54l-49 -54h-90l75 120h147z" />
    <glyph glyph-name="gbreve.smcp" horiz-adv-x="533" 
d="M74 367q19 107 81 154t169 47q62 0 100 -14.5t57 -40t22.5 -60.5t-3.5 -76h-132q7 39 -5 60t-57 21q-41 0 -63.5 -18t-31.5 -70l-33 -185q-8 -48 8 -67.5t57 -19.5q45 0 63.5 18.5t23.5 47.5l12 65h-83l18 104h219l-58 -333h-58l-10 42q-26 -26 -62 -40t-86 -14
q-51 0 -89 10.5t-61 34.5t-31 62.5t2 93.5zM331 596q-64 0 -89 35t-14 99h78q-9 -53 39 -53t57 53h78q-11 -64 -48 -99t-101 -35z" />
    <glyph glyph-name="gdotaccent.smcp" horiz-adv-x="533" 
d="M74 367q19 107 81 154t169 47q62 0 100 -14.5t57 -40t22.5 -60.5t-3.5 -76h-132q7 39 -5 60t-57 21q-41 0 -63.5 -18t-31.5 -70l-33 -185q-8 -48 8 -67.5t57 -19.5q45 0 63.5 18.5t23.5 47.5l12 65h-83l18 104h219l-58 -333h-58l-10 42q-26 -26 -62 -40t-86 -14
q-51 0 -89 10.5t-61 34.5t-31 62.5t2 93.5zM298 710h106l-19 -106h-106z" />
    <glyph glyph-name="gcommaaccent.smcp" horiz-adv-x="533" 
d="M74 367q19 107 81 154t169 47q62 0 100 -14.5t57 -40t22.5 -60.5t-3.5 -76h-132q7 39 -5 60t-57 21q-41 0 -63.5 -18t-31.5 -70l-33 -185q-8 -48 8 -67.5t57 -19.5q45 0 63.5 18.5t23.5 47.5l12 65h-83l18 104h219l-58 -333h-58l-10 42q-26 -26 -62 -40t-86 -14
q-51 0 -89 10.5t-61 34.5t-31 62.5t2 93.5zM168 -50h127l-93 -120h-83z" />
    <glyph glyph-name="hcircumflex.smcp" horiz-adv-x="544" 
d="M444 0h-136l40 228h-152l-40 -228h-136l98 556h136l-40 -224h152l40 224h136zM464 600h-86l-30 54l-49 -54h-90l75 120h147z" />
    <glyph glyph-name="hbar.smcp" horiz-adv-x="544" 
d="M66 488h40l12 68h136l-12 -68h152l12 68h136l-12 -68h40l-14 -76h-40l-72 -412h-136l40 228h-152l-40 -228h-136l72 412h-40zM366 332l14 80h-152l-14 -80h152z" />
    <glyph glyph-name="iacute.smcp" horiz-adv-x="256" 
d="M118 556h136l-98 -556h-136zM204 720h127l-93 -120h-83z" />
    <glyph glyph-name="igrave.smcp" horiz-adv-x="256" 
d="M118 556h136l-98 -556h-136zM249 600h-83l-51 120h127z" />
    <glyph glyph-name="icircumflex.smcp" horiz-adv-x="256" 
d="M118 556h136l-98 -556h-136zM322 600h-86l-30 54l-49 -54h-90l75 120h147z" />
    <glyph glyph-name="idieresis.smcp" horiz-adv-x="256" 
d="M118 556h136l-98 -556h-136zM78 710h106l-19 -106h-106zM244 710h106l-19 -106h-106z" />
    <glyph glyph-name="itilde.smcp" horiz-adv-x="256" 
d="M257 686q22 0 28 34h76q-12 -69 -38.5 -94.5t-70.5 -25.5q-24 0 -37 7t-22.5 16t-18 16t-23.5 7q-21 0 -28 -34h-76q13 69 40 94.5t70 25.5q24 0 37 -7t22 -16t17.5 -16t23.5 -7zM118 556h136l-98 -556h-136z" />
    <glyph glyph-name="imacron.smcp" horiz-adv-x="256" 
d="M106 700h210l-15 -86h-210zM118 556h136l-98 -556h-136z" />
    <glyph glyph-name="ibreve.smcp" horiz-adv-x="256" 
d="M118 556h136l-98 -556h-136zM194 596q-64 0 -89 35t-14 99h78q-9 -53 39 -53t57 53h78q-11 -64 -48 -99t-101 -35z" />
    <glyph glyph-name="iogonek.smcp" horiz-adv-x="256" 
d="M118 556h136l-98 -556q-23 -17 -37 -33t-18 -37q-2 -14 6 -20t23 -6h9l-14 -78h-57q-38 0 -58 17t-14 54q5 28 25.5 55.5t53.5 47.5h-55z" />
    <glyph glyph-name="jcircumflex.smcp" horiz-adv-x="344" 
d="M108 446l20 110h214l-75 -425q-8 -41 -22 -68.5t-34.5 -44t-47.5 -23.5t-61 -7q-26 0 -55 3t-47 9l19 112q23 -5 37 -7.5t30 -2.5q23 0 33 9.5t13 26.5l54 308h-78zM364 600h-86l-30 54l-49 -54h-90l75 120h147z" />
    <glyph glyph-name="kcommaaccent.smcp" horiz-adv-x="487" 
d="M156 0h-136l98 556h136l-40 -227l168 227h152l-222 -286l125 -270h-147l-94 232zM145 -50h127l-93 -120h-83z" />
    <glyph glyph-name="lacute.smcp" horiz-adv-x="396" 
d="M118 556h136l-79 -446h170l-19 -110h-306zM204 720h127l-93 -120h-83z" />
    <glyph glyph-name="lcaron.smcp" horiz-adv-x="396" 
d="M289 576h82l-55 -150h-53zM118 556h136l-79 -446h170l-19 -110h-306z" />
    <glyph glyph-name="lcommaaccent.smcp" horiz-adv-x="396" 
d="M118 556h136l-79 -446h170l-19 -110h-306zM99 -50h127l-93 -120h-83z" />
    <glyph glyph-name="ldot.smcp" horiz-adv-x="396" 
d="M251 361h122l-21 -122h-122zM118 556h136l-79 -446h170l-19 -110h-306z" />
    <glyph glyph-name="lslash.smcp" horiz-adv-x="396" 
d="M56 209l-48 -13l17 96l48 13l45 251h136l-37 -210l48 14l-17 -96l-48 -14l-25 -140h170l-19 -110h-306z" />
    <glyph glyph-name="mdotaccent.smcp" horiz-adv-x="694" 
d="M333 170h2l164 386h193l-98 -556h-134l40 230l37 182l-179 -412h-103l-34 412l-26 -177l-41 -235h-134l98 556h189zM379 710h106l-19 -106h-106z" />
    <glyph glyph-name="nacute.smcp" horiz-adv-x="555" 
d="M455 0h-165l-77 381l-67 -381h-126l98 556h166l75 -381l68 381h126zM351 720h127l-93 -120h-83z" />
    <glyph glyph-name="ntilde.smcp" horiz-adv-x="555" 
d="M455 0h-165l-77 381l-67 -381h-126l98 556h166l75 -381l68 381h126zM415 686q14 0 24.5 8t13.5 26h78q-12 -69 -39.5 -94.5t-75.5 -25.5q-26 0 -41.5 7t-27.5 16t-24 16t-31 7q-31 0 -38 -34h-78q13 69 40.5 94.5t75.5 25.5q26 0 41 -7t27 -16t24 -16t31 -7z" />
    <glyph glyph-name="ncaron.smcp" horiz-adv-x="555" 
d="M455 0h-165l-77 381l-67 -381h-126l98 556h166l75 -381l68 381h126zM416 600h-147l-33 120h86l30 -54l49 54h90z" />
    <glyph glyph-name="ncommaaccent.smcp" horiz-adv-x="555" 
d="M455 0h-165l-77 381l-67 -381h-126l98 556h166l75 -381l68 381h126zM179 -50h127l-93 -120h-83z" />
    <glyph glyph-name="eng.smcp" horiz-adv-x="555" 
d="M448 -39q-8 -41 -22 -68.5t-34.5 -44t-47.5 -23.5t-61 -7q-26 0 -55 3t-47 9l19 112q23 -5 37.5 -7.5t30.5 -2.5q23 0 32.5 9.5t12.5 26.5l6 32h-33l-73 381l-67 -381h-126l98 556h169l72 -381l68 381h126z" />
    <glyph glyph-name="oacute.smcp" horiz-adv-x="526" 
d="M481 200q-11 -59 -31 -99t-52 -65.5t-75.5 -36.5t-100.5 -11t-97 11t-63.5 36.5t-30.5 65.5t4 99l27 157q10 58 31 98.5t52.5 65.5t75 36t100.5 11t97.5 -11t63.5 -36t29.5 -65.5t-3.5 -98.5zM373 359q10 57 -6.5 78t-63.5 21t-70.5 -21.5t-33.5 -77.5l-29 -161
q-10 -57 6.5 -78.5t63.5 -21.5q46 0 70 22t34 78zM332 720h127l-93 -120h-83z" />
    <glyph glyph-name="ograve.smcp" horiz-adv-x="526" 
d="M481 200q-11 -59 -31 -99t-52 -65.5t-75.5 -36.5t-100.5 -11t-97 11t-63.5 36.5t-30.5 65.5t4 99l27 157q10 58 31 98.5t52.5 65.5t75 36t100.5 11t97.5 -11t63.5 -36t29.5 -65.5t-3.5 -98.5zM373 359q10 57 -6.5 78t-63.5 21t-70.5 -21.5t-33.5 -77.5l-29 -161
q-10 -57 6.5 -78.5t63.5 -21.5q46 0 70 22t34 78zM389 600h-83l-51 120h127z" />
    <glyph glyph-name="ocircumflex.smcp" horiz-adv-x="526" 
d="M481 200q-11 -59 -31 -99t-52 -65.5t-75.5 -36.5t-100.5 -11t-97 11t-63.5 36.5t-30.5 65.5t4 99l27 157q10 58 31 98.5t52.5 65.5t75 36t100.5 11t97.5 -11t63.5 -36t29.5 -65.5t-3.5 -98.5zM373 359q10 57 -6.5 78t-63.5 21t-70.5 -21.5t-33.5 -77.5l-29 -161
q-10 -57 6.5 -78.5t63.5 -21.5q46 0 70 22t34 78zM455 600h-86l-30 54l-49 -54h-90l75 120h147z" />
    <glyph glyph-name="odieresis.smcp" horiz-adv-x="526" 
d="M481 200q-11 -59 -31 -99t-52 -65.5t-75.5 -36.5t-100.5 -11t-97 11t-63.5 36.5t-30.5 65.5t4 99l27 157q10 58 31 98.5t52.5 65.5t75 36t100.5 11t97.5 -11t63.5 -36t29.5 -65.5t-3.5 -98.5zM373 359q10 57 -6.5 78t-63.5 21t-70.5 -21.5t-33.5 -77.5l-29 -161
q-10 -57 6.5 -78.5t63.5 -21.5q46 0 70 22t34 78zM212 710h106l-19 -106h-106zM378 710h106l-19 -106h-106z" />
    <glyph glyph-name="otilde.smcp" horiz-adv-x="526" 
d="M481 200q-11 -59 -31 -99t-52 -65.5t-75.5 -36.5t-100.5 -11t-97 11t-63.5 36.5t-30.5 65.5t4 99l27 157q10 58 31 98.5t52.5 65.5t75 36t100.5 11t97.5 -11t63.5 -36t29.5 -65.5t-3.5 -98.5zM373 359q10 57 -6.5 78t-63.5 21t-70.5 -21.5t-33.5 -77.5l-29 -161
q-10 -57 6.5 -78.5t63.5 -21.5q46 0 70 22t34 78zM401 686q14 0 24.5 8t13.5 26h78q-12 -69 -39.5 -94.5t-75.5 -25.5q-26 0 -41.5 7t-27.5 16t-24 16t-31 7q-31 0 -38 -34h-78q13 69 40.5 94.5t75.5 25.5q26 0 41 -7t27 -16t24 -16t31 -7z" />
    <glyph glyph-name="obreve.smcp" horiz-adv-x="526" 
d="M481 200q-11 -59 -31 -99t-52 -65.5t-75.5 -36.5t-100.5 -11t-97 11t-63.5 36.5t-30.5 65.5t4 99l27 157q10 58 31 98.5t52.5 65.5t75 36t100.5 11t97.5 -11t63.5 -36t29.5 -65.5t-3.5 -98.5zM373 359q10 57 -6.5 78t-63.5 21t-70.5 -21.5t-33.5 -77.5l-29 -161
q-10 -57 6.5 -78.5t63.5 -21.5q46 0 70 22t34 78zM328 596q-64 0 -89 35t-14 99h78q-9 -53 39 -53t57 53h78q-11 -64 -48 -99t-101 -35z" />
    <glyph glyph-name="omacron.smcp" horiz-adv-x="526" 
d="M481 200q-11 -59 -31 -99t-52 -65.5t-75.5 -36.5t-100.5 -11t-97 11t-63.5 36.5t-30.5 65.5t4 99l27 157q10 58 31 98.5t52.5 65.5t75 36t100.5 11t97.5 -11t63.5 -36t29.5 -65.5t-3.5 -98.5zM373 359q10 57 -6.5 78t-63.5 21t-70.5 -21.5t-33.5 -77.5l-29 -161
q-10 -57 6.5 -78.5t63.5 -21.5q46 0 70 22t34 78zM191 700h310l-15 -86h-310z" />
    <glyph glyph-name="ohungarumlaut.smcp" horiz-adv-x="526" 
d="M481 200q-11 -59 -31 -99t-52 -65.5t-75.5 -36.5t-100.5 -11t-97 11t-63.5 36.5t-30.5 65.5t4 99l27 157q10 58 31 98.5t52.5 65.5t75 36t100.5 11t97.5 -11t63.5 -36t29.5 -65.5t-3.5 -98.5zM373 359q10 57 -6.5 78t-63.5 21t-70.5 -21.5t-33.5 -77.5l-29 -161
q-10 -57 6.5 -78.5t63.5 -21.5q46 0 70 22t34 78zM256 720h117l-73 -120h-83zM419 720h117l-93 -120h-83z" />
    <glyph glyph-name="oslash.smcp" horiz-adv-x="526" 
d="M50 48q-33 50 -15 152l27 157q10 58 31 98.5t53.5 65.5t76 36t100.5 11q80 0 125 -22l24 30h75l-54 -68q17 -25 21 -62t-6 -89l-27 -157q-11 -59 -31.5 -99t-52.5 -65.5t-76 -36.5t-101 -11q-78 0 -125 22l-23 -30h-76zM170 198l193 242q-17 18 -60 18q-47 0 -70.5 -21.5
t-33.5 -77.5zM372 357l-192 -241q17 -18 60 -18q46 0 70 22t34 78z" />
    <glyph glyph-name="oe.smcp" horiz-adv-x="767" 
d="M301 446q-47 0 -70.5 -21.5t-33.5 -77.5l-24 -137q-11 -57 5.5 -78.5t63.5 -21.5h87l59 336h-87zM223 0q-113 0 -160 47.5t-26 164.5l23 133q10 58 31 98.5t53.5 65.5t76 36t100.5 11h454l-20 -110h-231l-20 -114h198l-18 -104h-198l-21 -118h231l-19 -110h-454z" />
    <glyph glyph-name="thorn.smcp" horiz-adv-x="501" 
d="M344 278q6 36 -5 55t-53 19h-68l-27 -148h68q42 0 60 19t25 55zM307 462q55 0 92.5 -9t58.5 -30.5t26 -57t-4 -87.5t-27 -87.5t-46.5 -57t-69 -30.5t-95.5 -9h-70l-16 -94h-136l98 556h136l-17 -94h70z" />
    <glyph glyph-name="pdotaccent.smcp" horiz-adv-x="501" 
d="M118 556h206q106 0 148 -40.5t25 -140.5q-9 -52 -27.5 -87.5t-48 -57t-69.5 -31t-93 -9.5h-70l-33 -190h-136zM207 294h71q38 0 56.5 20t25.5 58q7 36 -4.5 55t-53.5 19h-68zM282 710h106l-19 -106h-106z" />
    <glyph glyph-name="racute.smcp" horiz-adv-x="517" 
d="M447 0h-135l-62 190h-61l-33 -190h-136l98 556h202q55 0 93.5 -9.5t61 -30.5t29 -55.5t-2.5 -84.5q-14 -76 -47.5 -116t-78.5 -57zM207 294h68q40 0 61 19t28 59t-7.5 57t-54.5 17h-68zM312 720h127l-93 -120h-83z" />
    <glyph glyph-name="rcaron.smcp" horiz-adv-x="517" 
d="M447 0h-135l-62 190h-61l-33 -190h-136l98 556h202q55 0 93.5 -9.5t61 -30.5t29 -55.5t-2.5 -84.5q-14 -76 -47.5 -116t-78.5 -57zM207 294h68q40 0 61 19t28 59t-7.5 57t-54.5 17h-68zM387 600h-147l-33 120h86l30 -54l49 54h90z" />
    <glyph glyph-name="rcommaaccent.smcp" horiz-adv-x="517" 
d="M447 0h-135l-62 190h-61l-33 -190h-136l98 556h202q55 0 93.5 -9.5t61 -30.5t29 -55.5t-2.5 -84.5q-14 -76 -47.5 -116t-78.5 -57zM207 294h68q40 0 61 19t28 59t-7.5 57t-54.5 17h-68zM160 -50h127l-93 -120h-83z" />
    <glyph glyph-name="sacute.smcp" horiz-adv-x="514" 
d="M233 99q49 0 68.5 16t24.5 46q6 35 -12 49.5t-70 22.5q-53 7 -89 18.5t-56 31t-25.5 49t2.5 73.5q14 78 71.5 120.5t164.5 42.5q59 0 97 -11t58.5 -33t25 -55t-2.5 -76h-132q6 35 -8 50t-56 15q-72 0 -83 -59q-3 -19 0.5 -31t13.5 -20t25.5 -12.5t36.5 -7.5
q64 -11 101.5 -24t56.5 -32t21.5 -46.5t-4.5 -66.5q-14 -75 -74 -122.5t-171 -47.5q-63 0 -104 11.5t-63 34.5t-28 57t2 78h134q-3 -18 -1.5 -31.5t9.5 -22t24.5 -13t42.5 -4.5zM333 720h127l-93 -120h-83z" />
    <glyph glyph-name="scircumflex.smcp" horiz-adv-x="514" 
d="M233 99q49 0 68.5 16t24.5 46q6 35 -12 49.5t-70 22.5q-53 7 -89 18.5t-56 31t-25.5 49t2.5 73.5q14 78 71.5 120.5t164.5 42.5q59 0 97 -11t58.5 -33t25 -55t-2.5 -76h-132q6 35 -8 50t-56 15q-72 0 -83 -59q-3 -19 0.5 -31t13.5 -20t25.5 -12.5t36.5 -7.5
q64 -11 101.5 -24t56.5 -32t21.5 -46.5t-4.5 -66.5q-14 -75 -74 -122.5t-171 -47.5q-63 0 -104 11.5t-63 34.5t-28 57t2 78h134q-3 -18 -1.5 -31.5t9.5 -22t24.5 -13t42.5 -4.5zM449 600h-86l-30 54l-49 -54h-90l75 120h147z" />
    <glyph glyph-name="scaron.smcp" horiz-adv-x="514" 
d="M233 99q49 0 68.5 16t24.5 46q6 35 -12 49.5t-70 22.5q-53 7 -89 18.5t-56 31t-25.5 49t2.5 73.5q14 78 71.5 120.5t164.5 42.5q59 0 97 -11t58.5 -33t25 -55t-2.5 -76h-132q6 35 -8 50t-56 15q-72 0 -83 -59q-3 -19 0.5 -31t13.5 -20t25.5 -12.5t36.5 -7.5
q64 -11 101.5 -24t56.5 -32t21.5 -46.5t-4.5 -66.5q-14 -75 -74 -122.5t-171 -47.5q-63 0 -104 11.5t-63 34.5t-28 57t2 78h134q-3 -18 -1.5 -31.5t9.5 -22t24.5 -13t42.5 -4.5zM395 600h-147l-33 120h86l30 -54l49 54h90z" />
    <glyph glyph-name="sdotaccent.smcp" horiz-adv-x="514" 
d="M233 99q49 0 68.5 16t24.5 46q6 35 -12 49.5t-70 22.5q-53 7 -89 18.5t-56 31t-25.5 49t2.5 73.5q14 78 71.5 120.5t164.5 42.5q59 0 97 -11t58.5 -33t25 -55t-2.5 -76h-132q6 35 -8 50t-56 15q-72 0 -83 -59q-3 -19 0.5 -31t13.5 -20t25.5 -12.5t36.5 -7.5
q64 -11 101.5 -24t56.5 -32t21.5 -46.5t-4.5 -66.5q-14 -75 -74 -122.5t-171 -47.5q-63 0 -104 11.5t-63 34.5t-28 57t2 78h134q-3 -18 -1.5 -31.5t9.5 -22t24.5 -13t42.5 -4.5zM289 710h106l-19 -106h-106z" />
    <glyph glyph-name="scedilla.smcp" horiz-adv-x="514" 
d="M234 103q49 0 68 16t24 42q6 35 -12 48.5t-70 21.5q-53 7 -89 19t-56 32t-25.5 49.5t2.5 73.5q14 78 72.5 120.5t165.5 42.5q59 0 96.5 -11t58 -33t24.5 -55t-3 -76h-134q5 32 -8.5 46.5t-55.5 14.5q-72 0 -81 -55q-3 -19 0.5 -31t13.5 -19.5t25.5 -12t36.5 -7.5
q64 -11 101.5 -24t56.5 -32.5t21.5 -47t-4.5 -66.5q-13 -72 -69 -118t-156 -51l-15 -31q32 -4 49 -20t10 -54q-8 -44 -36 -65t-90 -21h-69l11 62h67q21 0 29 6t10 18q2 13 -4 18.5t-27 5.5h-33l40 81q-53 3 -86 16.5t-51 36t-21.5 54.5t3.5 73h136q-2 -15 -1 -27t8.5 -21
t23.5 -14t43 -5z" />
    <glyph glyph-name="scommaaccent.smcp" horiz-adv-x="514" 
d="M233 99q49 0 68.5 16t24.5 46q6 35 -12 49.5t-70 22.5q-53 7 -89 18.5t-56 31t-25.5 49t2.5 73.5q14 78 71.5 120.5t164.5 42.5q59 0 97 -11t58.5 -33t25 -55t-2.5 -76h-132q6 35 -8 50t-56 15q-72 0 -83 -59q-3 -19 0.5 -31t13.5 -20t25.5 -12.5t36.5 -7.5
q64 -11 101.5 -24t56.5 -32t21.5 -46.5t-4.5 -66.5q-14 -75 -74 -122.5t-171 -47.5q-63 0 -104 11.5t-63 34.5t-28 57t2 78h134q-3 -18 -1.5 -31.5t9.5 -22t24.5 -13t42.5 -4.5zM138 -50h127l-93 -120h-83z" />
    <glyph glyph-name="germandbls.smcp" horiz-adv-x="1028" 
d="M233 99q49 0 68.5 16t24.5 46q6 35 -12 49.5t-70 22.5q-53 7 -89 18.5t-56 31t-25.5 49t2.5 73.5q14 78 71.5 120.5t164.5 42.5q59 0 97 -11t58.5 -33t25 -55t-2.5 -76h-132q6 35 -8 50t-56 15q-72 0 -83 -59q-3 -19 0.5 -31t13.5 -20t25.5 -12.5t36.5 -7.5
q64 -11 101.5 -24t56.5 -32t21.5 -46.5t-4.5 -66.5q-14 -75 -74 -122.5t-171 -47.5q-63 0 -104 11.5t-63 34.5t-28 57t2 78h134q-3 -18 -1.5 -31.5t9.5 -22t24.5 -13t42.5 -4.5zM747 99q49 0 68.5 16t24.5 46q6 35 -12 49.5t-70 22.5q-53 7 -89 18.5t-56 31t-25.5 49
t2.5 73.5q14 78 71.5 120.5t164.5 42.5q59 0 97 -11t58.5 -33t25 -55t-2.5 -76h-132q6 35 -8 50t-56 15q-72 0 -83 -59q-3 -19 0.5 -31t13.5 -20t25.5 -12.5t36.5 -7.5q64 -11 101.5 -24t56.5 -32t21.5 -46.5t-4.5 -66.5q-14 -75 -74 -122.5t-171 -47.5q-63 0 -104 11.5
t-63 34.5t-28 57t2 78h134q-3 -18 -1.5 -31.5t9.5 -22t24.5 -13t42.5 -4.5z" />
    <glyph glyph-name="tcaron.smcp" horiz-adv-x="438" 
d="M189 446h-131l20 110h398l-20 -110h-131l-78 -446h-136zM357 600h-147l-33 120h86l30 -54l49 54h90z" />
    <glyph glyph-name="tdotaccent.smcp" horiz-adv-x="438" 
d="M189 446h-131l20 110h398l-20 -110h-131l-78 -446h-136zM251 710h106l-19 -106h-106z" />
    <glyph glyph-name="tcommaaccent.smcp" horiz-adv-x="438" 
d="M189 446h-131l20 110h398l-20 -110h-131l-78 -446h-136zM106 -50h127l-93 -120h-83z" />
    <glyph glyph-name="tbar.smcp" horiz-adv-x="438" 
d="M75 292h87l27 154h-131l20 110h398l-20 -110h-131l-27 -154h87l-15 -86h-87l-36 -206h-136l36 206h-87z" />
    <glyph glyph-name="uacute.smcp" horiz-adv-x="534" 
d="M249 556l-67 -377q-8 -43 5.5 -62t56.5 -19t62.5 19t27.5 62l67 377h136l-67 -377q-9 -54 -28.5 -90.5t-49.5 -58.5t-71 -31.5t-93 -9.5q-53 0 -91.5 9.5t-61.5 31.5t-30.5 58.5t1.5 90.5l67 377h136zM337 720h127l-93 -120h-83z" />
    <glyph glyph-name="ugrave.smcp" horiz-adv-x="534" 
d="M249 556l-67 -377q-8 -43 5.5 -62t56.5 -19t62.5 19t27.5 62l67 377h136l-67 -377q-9 -54 -28.5 -90.5t-49.5 -58.5t-71 -31.5t-93 -9.5q-53 0 -91.5 9.5t-61.5 31.5t-30.5 58.5t1.5 90.5l67 377h136zM409 600h-83l-51 120h127z" />
    <glyph glyph-name="ucircumflex.smcp" horiz-adv-x="534" 
d="M249 556l-67 -377q-8 -43 5.5 -62t56.5 -19t62.5 19t27.5 62l67 377h136l-67 -377q-9 -54 -28.5 -90.5t-49.5 -58.5t-71 -31.5t-93 -9.5q-53 0 -91.5 9.5t-61.5 31.5t-30.5 58.5t1.5 90.5l67 377h136zM459 600h-86l-30 54l-49 -54h-90l75 120h147z" />
    <glyph glyph-name="udieresis.smcp" horiz-adv-x="534" 
d="M249 556l-67 -377q-8 -43 5.5 -62t56.5 -19t62.5 19t27.5 62l67 377h136l-67 -377q-9 -54 -28.5 -90.5t-49.5 -58.5t-71 -31.5t-93 -9.5q-53 0 -91.5 9.5t-61.5 31.5t-30.5 58.5t1.5 90.5l67 377h136zM216 710h106l-19 -106h-106zM382 710h106l-19 -106h-106z" />
    <glyph glyph-name="utilde.smcp" horiz-adv-x="534" 
d="M249 556l-67 -377q-8 -43 5.5 -62t56.5 -19t62.5 19t27.5 62l67 377h136l-67 -377q-9 -54 -28.5 -90.5t-49.5 -58.5t-71 -31.5t-93 -9.5q-53 0 -91.5 9.5t-61.5 31.5t-30.5 58.5t1.5 90.5l67 377h136zM405 686q14 0 24.5 8t13.5 26h78q-12 -69 -39.5 -94.5t-75.5 -25.5
q-26 0 -41.5 7t-27.5 16t-24 16t-31 7q-31 0 -38 -34h-78q13 69 40.5 94.5t75.5 25.5q26 0 41 -7t27 -16t24 -16t31 -7z" />
    <glyph glyph-name="uring.smcp" horiz-adv-x="534" 
d="M249 556l-67 -377q-8 -43 5.5 -62t56.5 -19t62.5 19t27.5 62l67 377h136l-67 -377q-9 -54 -28.5 -90.5t-49.5 -58.5t-71 -31.5t-93 -9.5q-53 0 -91.5 9.5t-61.5 31.5t-30.5 58.5t1.5 90.5l67 377h136zM363 772q53 0 77.5 -23t16.5 -70t-41.5 -71t-86.5 -24t-77.5 24
t-16.5 71t41.5 70t86.5 23zM340 642q39 0 45 37q6 35 -33 35t-45 -35q-6 -37 33 -37z" />
    <glyph glyph-name="ubreve.smcp" horiz-adv-x="534" 
d="M249 556l-67 -377q-8 -43 5.5 -62t56.5 -19t62.5 19t27.5 62l67 377h136l-67 -377q-9 -54 -28.5 -90.5t-49.5 -58.5t-71 -31.5t-93 -9.5q-53 0 -91.5 9.5t-61.5 31.5t-30.5 58.5t1.5 90.5l67 377h136zM332 596q-64 0 -89 35t-14 99h78q-9 -53 39 -53t57 53h78
q-11 -64 -48 -99t-101 -35z" />
    <glyph glyph-name="umacron.smcp" horiz-adv-x="534" 
d="M249 556l-67 -377q-8 -43 5.5 -62t56.5 -19t62.5 19t27.5 62l67 377h136l-67 -377q-9 -54 -28.5 -90.5t-49.5 -58.5t-71 -31.5t-93 -9.5q-53 0 -91.5 9.5t-61.5 31.5t-30.5 58.5t1.5 90.5l67 377h136zM195 700h310l-15 -86h-310z" />
    <glyph glyph-name="uhungarumlaut.smcp" horiz-adv-x="534" 
d="M249 556l-67 -377q-8 -43 5.5 -62t56.5 -19t62.5 19t27.5 62l67 377h136l-67 -377q-9 -54 -28.5 -90.5t-49.5 -58.5t-71 -31.5t-93 -9.5q-53 0 -91.5 9.5t-61.5 31.5t-30.5 58.5t1.5 90.5l67 377h136zM254 720h117l-73 -120h-83zM417 720h117l-93 -120h-83z" />
    <glyph glyph-name="uogonek.smcp" horiz-adv-x="534" 
d="M249 556l-67 -377q-8 -43 5.5 -62t56.5 -19t62.5 19t27.5 62l67 377h136l-67 -377q-15 -84 -54 -126t-104 -56q-21 -16 -33.5 -31.5t-16.5 -35.5q-2 -14 6 -20t23 -6h9l-14 -78h-57q-38 0 -58 17t-14 54q5 24 20.5 48t41.5 44q-51 0 -88 10t-59 32t-28.5 58.5t2.5 89.5
l67 377h136z" />
    <glyph glyph-name="wacute.smcp" horiz-adv-x="768" 
d="M515 556l3 -412h2l136 412h140l-213 -556h-165l2 432l-150 -432h-165l-17 556h136l-10 -412h2l149 412h150zM458 720h127l-93 -120h-83z" />
    <glyph glyph-name="wgrave.smcp" horiz-adv-x="768" 
d="M515 556l3 -412h2l136 412h140l-213 -556h-165l2 432l-150 -432h-165l-17 556h136l-10 -412h2l149 412h150zM526 600h-83l-51 120h127z" />
    <glyph glyph-name="wcircumflex.smcp" horiz-adv-x="768" 
d="M515 556l3 -412h2l136 412h140l-213 -556h-165l2 432l-150 -432h-165l-17 556h136l-10 -412h2l149 412h150zM576 600h-86l-30 54l-49 -54h-90l75 120h147z" />
    <glyph glyph-name="wdieresis.smcp" horiz-adv-x="768" 
d="M515 556l3 -412h2l136 412h140l-213 -556h-165l2 432l-150 -432h-165l-17 556h136l-10 -412h2l149 412h150zM333 710h106l-19 -106h-106zM499 710h106l-19 -106h-106z" />
    <glyph glyph-name="yacute.smcp" horiz-adv-x="465" 
d="M160 203l-87 353h142l31 -230h2l115 230h145l-212 -353l-35 -203h-136zM304 720h127l-93 -120h-83z" />
    <glyph glyph-name="ygrave.smcp" horiz-adv-x="465" 
d="M160 203l-87 353h142l31 -230h2l115 230h145l-212 -353l-35 -203h-136zM375 600h-83l-51 120h127z" />
    <glyph glyph-name="ycircumflex.smcp" horiz-adv-x="465" 
d="M160 203l-87 353h142l31 -230h2l115 230h145l-212 -353l-35 -203h-136zM425 600h-86l-30 54l-49 -54h-90l75 120h147z" />
    <glyph glyph-name="ydieresis.smcp" horiz-adv-x="465" 
d="M160 203l-87 353h142l31 -230h2l115 230h145l-212 -353l-35 -203h-136zM181 710h106l-19 -106h-106zM347 710h106l-19 -106h-106z" />
    <glyph glyph-name="zacute.smcp" horiz-adv-x="481" 
d="M113 556h376l-16 -88l-286 -358h233l-19 -110h-391l15 87l286 359h-218zM306 720h127l-93 -120h-83z" />
    <glyph glyph-name="zcaron.smcp" horiz-adv-x="481" 
d="M113 556h376l-16 -88l-286 -358h233l-19 -110h-391l15 87l286 359h-218zM379 600h-147l-33 120h86l30 -54l49 54h90z" />
    <glyph glyph-name="zdotaccent.smcp" horiz-adv-x="481" 
d="M113 556h376l-16 -88l-286 -358h233l-19 -110h-391l15 87l286 359h-218zM272 710h106l-19 -106h-106z" />
    </font>
</defs>
</svg>
