<?xml version="1.0" standalone="no"?>
<!DOCTYPE svg PUBLIC "-//W3C//DTD SVG 1.1//EN" "http://www.w3.org/Graphics/SVG/1.1/DTD/svg11.dtd" >
<svg xmlns="http://www.w3.org/2000/svg" xmlns:xlink="http://www.w3.org/1999/xlink" version="1.1">
<metadata>
Created by FontForge 20170731 at Tue Sep 16 06:13:17 2008
 By Aleksey,,,
Copyright (c) 2007 by Silas Dilworth. All rights reserved.
</metadata>
<defs>
<font id="BreuerText-Regular" horiz-adv-x="528" >
  <font-face 
    font-family="Breuer Text"
    font-weight="400"
    font-stretch="normal"
    units-per-em="1000"
    panose-1="2 0 5 6 4 0 0 2 0 4"
    ascent="750"
    descent="-250"
    x-height="500"
    cap-height="650"
    bbox="-48 -192 934 864"
    underline-thickness="50"
    underline-position="-150"
    unicode-range="U+0020-2265"
  />
<missing-glyph horiz-adv-x="180" 
 />
    <glyph glyph-name=".notdef" horiz-adv-x="180" 
 />
    <glyph glyph-name=".null" horiz-adv-x="0" 
 />
    <glyph glyph-name="nonmarkingreturn" horiz-adv-x="0" 
 />
    <glyph glyph-name="space" unicode=" " horiz-adv-x="220" 
 />
    <glyph glyph-name="exclam" unicode="!" horiz-adv-x="241" 
d="M65 650h111l-28 -453h-55zM72 90h97v-90h-97v90z" />
    <glyph glyph-name="quotedbl" unicode="&#x22;" horiz-adv-x="298" 
d="M40 650h90l-20 -210h-50zM164 650h90l-20 -210h-50z" />
    <glyph glyph-name="numbersign" unicode="#" horiz-adv-x="562" 
d="M492 166h-100l-15 -166h-61l15 166h-128l-15 -166h-60l14 166h-100l5 54h100l18 211h-100l5 54h100l15 165h60l-14 -165h128l14 165h61l-14 -165h100l-5 -54h-100l-18 -211h100zM208 220h128l18 211h-128z" />
    <glyph glyph-name="dollar" unicode="$" horiz-adv-x="523" 
d="M228 -20v87q-50 3 -82.5 15t-51.5 32t-26.5 47.5t-7.5 61.5h78q0 -24 5.5 -41t19.5 -28t37 -16t59 -5q41 0 66 6t38.5 16.5t17.5 26t4 34.5q0 20 -5.5 34.5t-20.5 24.5t-40.5 16t-65.5 9q-51 4 -86 14t-57 27t-31.5 41.5t-9.5 59.5q0 70 42 104.5t117 39.5v84h68v-84
q81 -6 118 -42.5t37 -112.5h-78q0 22 -5 39t-18 28.5t-35 17.5t-55 6q-56 0 -84.5 -18.5t-28.5 -62.5q0 -42 26.5 -60t92.5 -23q59 -5 97 -15t60.5 -26.5t31 -41.5t8.5 -59q0 -28 -5.5 -53.5t-22.5 -45.5t-50.5 -33.5t-88.5 -16.5v-87h-68z" />
    <glyph glyph-name="percent" unicode="%" horiz-adv-x="663" 
d="M153 0h-64l420 650h65zM320 515q0 -82 -33 -113.5t-102 -31.5t-102 31.5t-33 113.5q0 81 33 113t102 32t102 -32t33 -113zM613 134q0 -41 -8.5 -69t-25 -45t-42 -24t-59.5 -7q-35 0 -60 7t-42 24t-25 45t-8 69q0 81 33 113t102 32t102 -32t33 -113zM261 515q0 56 -18 76
t-58 20q-41 0 -58.5 -19.5t-17.5 -72.5q0 -59 17 -79t59 -20q40 0 58 19.5t18 75.5zM554 134q0 56 -18 75.5t-58 19.5q-41 0 -58.5 -19t-17.5 -72q0 -59 17 -79.5t59 -20.5q40 0 58 19.5t18 76.5z" />
    <glyph glyph-name="ampersand" unicode="&#x26;" horiz-adv-x="611" 
d="M484 296v-145q0 -47 22 -65.5t70 -18.5v-67q-51 0 -84.5 14t-52.5 48q-21 -32 -63.5 -52t-111.5 -20q-106 0 -160 45t-54 140q0 59 30 98t75 59q-38 19 -62 56.5t-24 91.5q0 92 52.5 136t149.5 44q108 0 154 -43t46 -137h-79q0 60 -28 86t-93 26q-61 0 -92 -26t-31 -89
q0 -54 25.5 -83.5t70.5 -29.5h317v-68h-77zM264 56q41 0 68.5 9t43.5 26.5t22.5 41.5t6.5 54v109h-165q-48 0 -79.5 -30.5t-31.5 -87.5q0 -66 35 -94t100 -28z" />
    <glyph glyph-name="quotesingle" unicode="'" horiz-adv-x="171" 
d="M40 650h90l-20 -210h-50z" />
    <glyph glyph-name="parenleft" unicode="(" horiz-adv-x="318" 
d="M126 285q0 -121 39 -224.5t103 -180.5h-65q-72 81 -110 185t-38 220t38 220t110 185h65q-64 -77 -103 -180.5t-39 -224.5z" />
    <glyph glyph-name="parenright" unicode=")" horiz-adv-x="318" 
d="M192 285q0 121 -39 224.5t-103 180.5h65q72 -81 110 -185t38 -220t-38 -220t-110 -185h-65q64 77 103 180.5t39 224.5z" />
    <glyph glyph-name="asterisk" unicode="*" horiz-adv-x="533" 
d="M266 429q-19 -40 -40 -86.5t-42 -90.5l-86 63l142 132l-193 25l33 101q42 -23 87 -49t83 -46q-10 48 -18.5 96t-18.5 96h106q-8 -48 -18.5 -98.5t-18.5 -93.5q39 20 83.5 46t86.5 49l34 -101l-194 -25l143 -132l-87 -63q-20 44 -41 90.5t-41 86.5z" />
    <glyph glyph-name="plus" unicode="+" horiz-adv-x="517" 
d="M55 306h172v172h62v-172h173v-62h-173v-174h-62v174h-172v62z" />
    <glyph glyph-name="comma" unicode="," horiz-adv-x="214" 
d="M60 94h94l-40 -188h-54v188z" />
    <glyph glyph-name="hyphen" unicode="-" horiz-adv-x="350" 
d="M50 316h250v-66h-250v66z" />
    <glyph glyph-name="period" unicode="." horiz-adv-x="214" 
d="M60 94h94v-94h-94v94z" />
    <glyph glyph-name="slash" unicode="/" horiz-adv-x="331" 
d="M235 690h66l-206 -730h-65z" />
    <glyph glyph-name="zero" unicode="0" horiz-adv-x="553" 
d="M417 424q0 48 -8 80t-25 51t-44 27t-64 8q-38 0 -65 -8t-44 -27t-24.5 -51.5t-7.5 -80.5v-197q0 -48 8 -80t25 -51t43.5 -27t64.5 -8q37 0 64 8t44 27t25 51t8 80v198zM55 424q0 65 13 110t40 73t68.5 40.5t99.5 12.5t99.5 -12.5t68.5 -41t40 -73.5t13 -109v-198
q0 -65 -13 -110t-40 -73t-68.5 -40.5t-99.5 -12.5t-99.5 12.5t-68.5 40.5t-40 73t-13 110v198z" />
    <glyph glyph-name="one" unicode="1" horiz-adv-x="337" 
d="M147 0v580h-97v42l128 28h49v-650h-80z" />
    <glyph glyph-name="two" unicode="2" horiz-adv-x="530" 
d="M55 468q0 96 49.5 144t162.5 48q60 0 100.5 -12.5t65 -36.5t35 -58.5t10.5 -79.5q0 -58 -25 -97.5t-62.5 -69t-81 -52.5t-81.5 -48.5t-64 -57.5t-27 -78h348v-70h-429v50q0 62 25.5 104.5t63 74t82 56.5t82 51t63 57.5t25.5 77.5q0 64 -29 92t-101 28q-30 0 -54.5 -5.5
t-42 -19.5t-26.5 -38t-9 -60h-80v0z" />
    <glyph glyph-name="three" unicode="3" horiz-adv-x="549" 
d="M418 184q0 54 -29 83.5t-81 29.5h-83v66h80q48 0 71.5 31.5t23.5 75.5q0 64 -30 92.5t-103 28.5q-71 0 -102 -29.5t-31 -98.5h-80q0 197 213 197q113 0 163 -48t50 -143q0 -52 -25.5 -85.5t-67.5 -50.5q53 -16 82.5 -51t29.5 -100q0 -97 -53 -144.5t-174 -47.5
q-118 0 -168.5 47t-50.5 149h80q0 -68 31 -98t108 -30t111.5 28.5t34.5 97.5z" />
    <glyph glyph-name="four" unicode="4" horiz-adv-x="551" 
d="M357 151h-321v60l298 439h103v-432h79v-67h-79v-151h-80v151zM357 218v356l-240 -356h240z" />
    <glyph glyph-name="five" unicode="5" horiz-adv-x="551" 
d="M150 363q33 25 72.5 39t81.5 14q45 0 80.5 -10t60.5 -34t38 -63.5t13 -97.5q0 -109 -50.5 -165t-172.5 -56q-61 0 -103 14t-68 40t-37.5 63t-11.5 84h80q0 -63 31.5 -98t108.5 -35q79 0 111 36.5t32 116.5q0 82 -34 114.5t-99 32.5q-42 0 -75 -17t-54 -34h-85
q8 86 15 171t14 172h365v-69h-296z" />
    <glyph glyph-name="six" unicode="6" horiz-adv-x="547" 
d="M135 346q35 20 77 32t86 12q107 0 152 -47t45 -144q0 -100 -50.5 -155t-166.5 -55q-61 0 -103.5 13t-69 41t-38.5 71.5t-12 104.5v210q0 123 51.5 177t163.5 54q111 0 159.5 -45.5t49.5 -138.5h-80q0 60 -28 87t-101 27q-37 0 -62.5 -7.5t-41.5 -26t-23.5 -49.5t-7.5 -78
v-83zM281 333q-38 0 -75.5 -12t-70.5 -32v-70q0 -48 7.5 -79t24 -49t43.5 -25t66 -7q76 0 107.5 32.5t31.5 105.5q0 37 -6.5 63t-21.5 42t-41 23.5t-65 7.5z" />
    <glyph glyph-name="seven" unicode="7" horiz-adv-x="475" 
d="M127 0l229 580h-324v70h410v-62l-229 -588h-86z" />
    <glyph glyph-name="eight" unicode="8" horiz-adv-x="557" 
d="M278 -10q-122 0 -177.5 42t-55.5 139q0 65 32 104.5t89 56.5q-51 17 -77 56t-26 96q0 48 14.5 81.5t42 54.5t67.5 30.5t91 9.5t91 -9.5t68 -30.5t42.5 -54.5t14.5 -81.5q0 -57 -26.5 -96t-77.5 -56q57 -17 89.5 -56.5t32.5 -104.5q0 -97 -56 -139t-178 -42zM278 591
q-69 0 -102 -24t-33 -90q0 -61 30 -88.5t90 -27.5h30q61 0 91 28t30 88q0 66 -33 90t-103 24zM278 58q81 0 117 27.5t36 91.5q0 54 -31 88t-107 34h-30q-75 0 -106 -34t-31 -88q0 -64 35.5 -91.5t116.5 -27.5z" />
    <glyph glyph-name="nine" unicode="9" horiz-adv-x="547" 
d="M277 58q37 0 62.5 7.5t41.5 26.5t23.5 50t7.5 78v83q-35 -20 -77.5 -32t-85.5 -12q-107 0 -152 47t-45 145q0 100 50.5 154.5t166.5 54.5q61 0 103.5 -13t69 -40.5t38.5 -71t12 -104.5v-210q0 -124 -51.5 -178t-163.5 -54q-111 0 -159.5 45.5t-49.5 138.5h80
q0 -30 6.5 -51.5t21.5 -35.5t39.5 -21t61.5 -7zM266 316q38 0 75.5 12t70.5 32v71q0 48 -7.5 79t-24 49t-43.5 25t-66 7q-76 0 -107.5 -33t-31.5 -105q0 -38 6.5 -64t21.5 -42t41 -23.5t65 -7.5z" />
    <glyph glyph-name="colon" unicode=":" horiz-adv-x="214" 
d="M60 94h94v-94h-94v94zM60 420h94v-94h-94v94z" />
    <glyph glyph-name="semicolon" unicode=";" horiz-adv-x="214" 
d="M60 94h94l-40 -188h-54v188zM60 420h94v-94h-94v94z" />
    <glyph glyph-name="less" unicode="&#x3c;" horiz-adv-x="372" 
d="M50 325l199 345h73l-200 -345l200 -345h-73z" />
    <glyph glyph-name="equal" unicode="=" horiz-adv-x="517" 
d="M55 344v62h407v-62h-407zM55 144v62h407v-62h-407z" />
    <glyph glyph-name="greater" unicode="&#x3e;" horiz-adv-x="372" 
d="M123 -20h-73l199 345l-199 345h73l199 -345z" />
    <glyph glyph-name="question" unicode="?" horiz-adv-x="508" 
d="M225 196q-3 34 -6 67.5t-7 67.5q46 0 79 6t53.5 21.5t30 41.5t9.5 67q0 67 -31 96t-102 29q-64 0 -94 -28t-30 -86h-80q0 87 48 134.5t154 47.5q114 0 165 -47t51 -146q0 -98 -46.5 -145t-136.5 -53l-7 -73h-50zM202 90h97v-90h-97v90z" />
    <glyph glyph-name="at" unicode="@" horiz-adv-x="794" 
d="M70 320q0 64 19.5 115t60 86.5t102 54.5t145.5 19q83 0 144.5 -19t102 -54.5t60.5 -86.5t20 -115v-146q0 -128 -80.5 -201.5t-246.5 -73.5q-164 0 -245.5 73.5t-81.5 201.5v146zM131 178q0 -113 65.5 -167.5t200.5 -54.5t200.5 54.5t65.5 167.5v138q0 222 -266 222
t-266 -222v-138zM239 167q0 48 31.5 74t88.5 30l124 8v42q0 39 -18.5 55t-68.5 16q-45 0 -65.5 -15t-20.5 -55h-56q0 36 10.5 59t29 36.5t44.5 19t58 5.5q75 0 109 -26.5t34 -94.5v-253h-38l-11 35q-27 -21 -56 -32t-65 -11q-60 0 -95 26t-35 81zM372 110q34 0 61 11t50 29
v87l-119 -10q-37 -3 -52.5 -17.5t-15.5 -40.5q0 -59 76 -59z" />
    <glyph glyph-name="A" unicode="A" horiz-adv-x="523" 
d="M375 158h-227l-44 -158h-84l191 650h101l191 -650h-83zM166 226h191l-94 345h-2z" />
    <glyph glyph-name="B" unicode="B" horiz-adv-x="548" 
d="M70 650h211q112 0 159.5 -39.5t47.5 -128.5q0 -57 -26.5 -95.5t-70.5 -52.5q62 -17 89.5 -55.5t27.5 -101.5q0 -95 -51 -136t-160 -41h-227v650zM295 70q72 0 101.5 25.5t29.5 86.5t-32.5 87.5t-95.5 26.5h-148v-226h145zM150 580v-216h146q59 0 85 29t26 80q0 59 -29 83
t-96 24h-132z" />
    <glyph glyph-name="C" unicode="C" horiz-adv-x="545" 
d="M277 60q70 0 101.5 26.5t31.5 97.5h80q0 -105 -52 -149.5t-161 -44.5q-58 0 -100 12t-69 39t-40 72t-13 111v202q0 64 12.5 108.5t39.5 72.5t69 40.5t101 12.5q109 0 161 -45t52 -150h-80q0 70 -31 97.5t-102 27.5q-39 0 -66 -7.5t-44 -25.5t-24.5 -48.5t-7.5 -76.5v-214
q0 -46 7.5 -76.5t24 -48.5t44 -25.5t66.5 -7.5z" />
    <glyph glyph-name="D" unicode="D" horiz-adv-x="562" 
d="M150 580v-510h115q41 0 71.5 7t50.5 25t30 48.5t10 77.5v196q0 51 -11 81.5t-31.5 47t-50.5 22t-69 5.5h-115zM70 0v650h196q58 0 103 -10t75.5 -35.5t46.5 -71t16 -115.5v-186q0 -71 -16 -116t-46.5 -70.5t-75.5 -35.5t-103 -10h-196z" />
    <glyph glyph-name="E" unicode="E" horiz-adv-x="495" 
d="M70 650h370v-70h-290v-216h254v-68h-254v-226h290v-70h-370v650z" />
    <glyph glyph-name="F" unicode="F" horiz-adv-x="471" 
d="M70 0v650h351v-70h-271v-216h236v-68h-236v-296h-80z" />
    <glyph glyph-name="G" unicode="G" horiz-adv-x="570" 
d="M282 660q109 0 161 -44.5t52 -149.5h-80q0 70 -31 97t-102 27q-39 0 -66 -7.5t-44 -25.5t-24.5 -48.5t-7.5 -76.5v-214q0 -47 7.5 -77.5t25 -48.5t45 -25t67.5 -7q75 0 107.5 29.5t32.5 91.5v115h-133v68h213v-364h-42l-17 55q-27 -32 -64 -48.5t-100 -16.5
q-58 0 -100 12t-69 39.5t-40 72t-13 109.5v204q0 63 12.5 107.5t39.5 72.5t69 40.5t101 12.5z" />
    <glyph glyph-name="H" unicode="H" horiz-adv-x="565" 
d="M495 0h-80v296h-265v-296h-80v650h80v-286h265v286h80v-650z" />
    <glyph glyph-name="I" unicode="I" horiz-adv-x="220" 
d="M70 650h80v-650h-80v650z" />
    <glyph glyph-name="J" unicode="J" horiz-adv-x="363" 
d="M90 580v70h203v-512q0 -37 -7 -64.5t-24.5 -46t-47.5 -28t-76 -9.5q-55 0 -98 10v70q20 -5 44.5 -7.5t49.5 -2.5q42 0 60.5 16t18.5 62v442h-123z" />
    <glyph glyph-name="K" unicode="K" horiz-adv-x="498" 
d="M218 334l260 -334h-96q-55 76 -92 125t-62.5 81t-43.5 52t-34 40v-298h-80v650h80v-288l226 288h97z" />
    <glyph glyph-name="L" unicode="L" horiz-adv-x="422" 
d="M70 650h80v-580h232v-70h-312v650z" />
    <glyph glyph-name="M" unicode="M" horiz-adv-x="717" 
d="M568 550l-176 -550h-67l-176 550v-550h-79v650h117l171 -539h1l171 539h117v-650h-79v550z" />
    <glyph glyph-name="N" unicode="N" horiz-adv-x="574" 
d="M504 0h-102l-252 535v-535h-80v650h102l252 -535v535h80v-650z" />
    <glyph glyph-name="O" unicode="O" horiz-adv-x="559" 
d="M424 430q0 48 -8.5 79t-26 49t-45 25t-64.5 7q-38 0 -65.5 -7t-45 -25t-26 -49.5t-8.5 -79.5v-209q0 -48 8.5 -79t26 -49t45 -25t65.5 -7q37 0 64.5 7t45 25t26 49t8.5 79v210zM55 430q0 65 13.5 109t41 71t70 38.5t100.5 11.5t100 -12t69.5 -39t41 -71t13.5 -108v-210
q0 -65 -13.5 -109t-41 -71t-69.5 -38.5t-100 -11.5t-100.5 11.5t-70 38.5t-41 71t-13.5 109v210z" />
    <glyph glyph-name="P" unicode="P" horiz-adv-x="543" 
d="M278 314q38 0 64 6t42.5 21t23.5 40.5t7 64.5q0 42 -8 68t-24.5 41t-42.5 20t-63 5h-127v-266h128zM70 650h206q57 0 98.5 -9t69 -32t41 -62.5t13.5 -100.5q0 -56 -13 -94t-40 -61.5t-68.5 -34t-98.5 -10.5h-128v-246h-80v650z" />
    <glyph glyph-name="Q" unicode="Q" horiz-adv-x="559" 
d="M55 430q0 65 13.5 109t41 71t70 38.5t100.5 11.5t100 -12t69.5 -39t41 -71t13.5 -108v-210q0 -60 -11.5 -102.5t-35.5 -69.5t-60 -40.5t-85 -16.5q2 -29 18 -39t47 -10h62l-20 -46h-62q-22 0 -41.5 5t-34.5 16t-25 29.5t-11 44.5q-49 3 -84.5 17t-59 41t-35 69t-11.5 102
v210zM424 430q0 48 -8.5 79t-26 49t-45 25t-64.5 7q-38 0 -65.5 -7t-45 -25t-26 -49.5t-8.5 -79.5v-209q0 -48 8.5 -79t26 -49t45 -25t65.5 -7q37 0 64.5 7t45 25t26 49t8.5 79v210z" />
    <glyph glyph-name="R" unicode="R" horiz-adv-x="548" 
d="M70 650h205q57 0 98.5 -9t69.5 -32t41.5 -62.5t13.5 -100.5q0 -81 -28 -126t-88 -62l126 -258h-87l-118 246h-153v-246h-80v650zM277 314q38 0 64 6t42.5 21t24 40.5t7.5 64.5q0 42 -8 68t-25 41t-43 20t-63 5h-126v-266h127z" />
    <glyph glyph-name="S" unicode="S" horiz-adv-x="537" 
d="M255 302q-55 7 -93 21t-62 35.5t-35 52.5t-11 72q0 85 51.5 131t159.5 46t160 -41.5t52 -142.5h-80q0 65 -30.5 89.5t-100.5 24.5q-67 0 -99.5 -25t-32.5 -82q0 -27 6 -47t22.5 -34.5t44.5 -23.5t72 -15q65 -8 106.5 -23t65 -37.5t32.5 -54t9 -73.5q0 -98 -53.5 -141.5
t-171.5 -43.5q-52 0 -93.5 9t-70 30.5t-43.5 57t-15 89.5h80q0 -69 35.5 -92.5t106.5 -23.5q40 0 68 6.5t44.5 20.5t24 35.5t7.5 52.5q0 28 -5.5 49t-22 36t-47 25t-81.5 17z" />
    <glyph glyph-name="T" unicode="T" horiz-adv-x="458" 
d="M189 580h-164v70h408v-70h-164v-580h-80v580z" />
    <glyph glyph-name="U" unicode="U" horiz-adv-x="575" 
d="M150 650v-450q0 -79 32 -110t105 -31t105.5 31t32.5 110v450h80v-448q0 -62 -14 -103t-41.5 -65.5t-68.5 -34.5t-94 -10t-93.5 10t-68 34.5t-41.5 65.5t-14 103v448h80z" />
    <glyph glyph-name="V" unicode="V" horiz-adv-x="533" 
d="M268 83q39 143 78 283.5t79 283.5h83q-48 -164 -95.5 -325t-95.5 -325h-101l-191 650h84q39 -143 78 -283.5t79 -283.5h2z" />
    <glyph glyph-name="W" unicode="W" horiz-adv-x="817" 
d="M408 565l-123 -565h-106l-144 650h83l114 -562h2q30 141 61 280.5t61 281.5h104l123 -562h2q28 141 56.5 280.5t56.5 281.5h84l-145 -650h-106z" />
    <glyph glyph-name="X" unicode="X" horiz-adv-x="515" 
d="M257 399h1l132 251h92l-180 -317q47 -84 93.5 -166.5t94.5 -166.5h-91l-141 266h-1l-141 -266h-91q48 84 94.5 166.5t93.5 166.5l-180 317h92z" />
    <glyph glyph-name="Y" unicode="Y" horiz-adv-x="510" 
d="M215 253l-190 397h89l140 -317h2l140 317h89l-190 -397v-253h-80v253z" />
    <glyph glyph-name="Z" unicode="Z" horiz-adv-x="500" 
d="M60 650h390v-61l-306 -519h316v-70h-410v59l306 521h-296v70z" />
    <glyph glyph-name="bracketleft" unicode="[" horiz-adv-x="311" 
d="M80 691h176v-51h-112v-710h112v-51h-176v812z" />
    <glyph glyph-name="backslash" unicode="\" horiz-adv-x="331" 
d="M301 -40h-65l-206 730h66z" />
    <glyph glyph-name="bracketright" unicode="]" horiz-adv-x="321" 
d="M241 -121h-176v51h112v710h-112v51h176v-812z" />
    <glyph glyph-name="asciicircum" unicode="^" horiz-adv-x="484" 
d="M128 351h-73l151 299h74l149 -299h-73l-113 232h-2z" />
    <glyph glyph-name="underscore" unicode="_" horiz-adv-x="465" 
d="M45 66h375v-66h-375v66z" />
    <glyph glyph-name="grave" unicode="`" horiz-adv-x="243" 
d="M183 550h-44l-79 120h90z" />
    <glyph glyph-name="a" unicode="a" horiz-adv-x="501" 
d="M40 132q0 65 39 101.5t120 41.5l169 11v60q0 26 -5 44.5t-18 30.5t-35.5 17.5t-56.5 5.5q-63 0 -89 -21t-26 -72h-78q0 45 13 75.5t37.5 49t60.5 26.5t82 8q53 0 89.5 -9t59.5 -28.5t33.5 -50.5t10.5 -76v-346h-52l-18 49q-37 -29 -74.5 -44.5t-86.5 -15.5
q-86 0 -130.5 36t-44.5 107zM221 55q48 0 81 14t66 43v123l-161 -17q-45 -5 -66.5 -24.5t-21.5 -57.5q0 -42 26 -61.5t76 -19.5z" />
    <glyph glyph-name="b" unicode="b" horiz-adv-x="533" 
d="M284 55q31 0 54 7.5t38 26t22 49.5t7 79v66q0 48 -7 79t-22 49.5t-38 25.5t-54 7q-35 0 -73.5 -15.5t-67.5 -41.5v-272q29 -29 68.5 -44.5t72.5 -15.5zM294 -11q-42 0 -83 16.5t-76 43.5l-18 -49h-52v670h78v-215q34 24 73 39.5t78 15.5q44 0 79 -9.5t59.5 -34
t37.5 -68.5t13 -113v-71q0 -69 -13 -112.5t-37.5 -68.5t-59.5 -34.5t-79 -9.5z" />
    <glyph glyph-name="c" unicode="c" horiz-adv-x="506" 
d="M261 444q-37 0 -62.5 -7t-41 -26t-22.5 -51t-7 -83v-54q0 -51 7 -83.5t22.5 -51.5t41 -26t62.5 -7q34 0 56 5.5t35.5 17.5t19.5 31t6 47h78q0 -92 -48 -129.5t-147 -37.5q-54 0 -93.5 10.5t-66 37.5t-39 72t-12.5 114v54q0 69 13 114t39 71.5t66 37t93 10.5
q99 0 147 -37.5t48 -128.5h-78q0 27 -6 46t-19.5 31t-35.5 17.5t-56 5.5z" />
    <glyph glyph-name="d" unicode="d" horiz-adv-x="533" 
d="M249 55q33 0 72.5 15.5t68.5 44.5v272q-29 26 -67.5 41.5t-73.5 15.5q-32 0 -54.5 -7t-37.5 -25.5t-22 -49.5t-7 -79v-66q0 -48 7 -79t22 -49.5t37.5 -26t54.5 -7.5zM239 -11q-44 0 -79 9.5t-59.5 34.5t-37.5 68.5t-13 112.5v71q0 69 13 113t37.5 68.5t59.5 34t79 9.5
q39 0 78 -15.5t73 -39.5v215h78v-670h-52l-18 49q-35 -27 -76 -43.5t-83 -16.5z" />
    <glyph glyph-name="e" unicode="e" horiz-adv-x="506" 
d="M383 279q0 46 -5 77.5t-18.5 51t-37.5 28t-63 8.5q-38 0 -63.5 -8t-40.5 -27.5t-21 -51t-6 -78.5h255zM265 55q54 0 94.5 5.5t78.5 13.5v-66q-35 -8 -78 -13t-96 -5q-54 0 -94 10t-66.5 36t-40 71t-13.5 116v54q0 69 13 114t39.5 71.5t65.5 37t91 10.5q51 0 88.5 -10.5
t63 -36.5t38 -71t12.5 -114v-58h-333q0 -49 6.5 -81t22.5 -50.5t42.5 -26t65.5 -7.5z" />
    <glyph glyph-name="f" unicode="f" horiz-adv-x="316" 
d="M291 606q-11 3 -26.5 6t-35.5 3q-30 0 -42.5 -14.5t-12.5 -41.5v-59h92v-66h-92v-434h-78v434h-66v53l66 13v60q0 63 30 93t90 30q24 0 43 -3t32 -8v-66v0z" />
    <glyph glyph-name="g" unicode="g" horiz-adv-x="533" 
d="M390 55q-34 -24 -73 -39.5t-78 -15.5q-44 0 -79 9.5t-59.5 34t-37.5 68.5t-13 113v60q0 69 13 113t37.5 68.5t59.5 34t79 9.5q42 0 83 -16.5t76 -42.5l18 49h52v-501q0 -95 -44.5 -137t-150.5 -42q-38 0 -79.5 4.5t-76.5 14.5v70q38 -12 77 -17.5t78 -5.5q31 0 53 5
t36.5 18t21.5 35t7 55v56zM249 444q-32 0 -54.5 -7.5t-37.5 -26t-22 -49.5t-7 -78v-56q0 -48 7 -79t22 -49.5t37.5 -25.5t54.5 -7q35 0 73.5 15.5t67.5 41.5v262q-29 29 -68.5 44t-72.5 15z" />
    <glyph glyph-name="h" unicode="h" horiz-adv-x="537" 
d="M143 454q40 28 77.5 42t80.5 14q44 0 74.5 -9.5t50 -30.5t28.5 -55t9 -82v-333h-78v333q0 33 -6.5 54.5t-19 34t-32.5 17.5t-47 5q-36 0 -71.5 -13t-65.5 -37v-394h-78v670h78v-216z" />
    <glyph glyph-name="i" unicode="i" horiz-adv-x="208" 
d="M65 500h78v-500h-78v500zM63 670h82v-82h-82v82z" />
    <glyph glyph-name="j" unicode="j" horiz-adv-x="208" 
d="M143 -53q0 -64 -26 -95.5t-90 -31.5q-22 0 -41.5 2.5t-33.5 7.5v66q12 -3 27.5 -6t32.5 -3q30 0 41.5 15.5t11.5 44.5v553h78v-553zM63 670h82v-82h-82v82z" />
    <glyph glyph-name="k" unicode="k" horiz-adv-x="460" 
d="M143 0h-78v670h78v-381h2l188 211h96l-217 -236q8 -11 26.5 -32t41.5 -46.5t48.5 -53.5t48.5 -53.5t41 -46.5t27 -32h-99l-201 236h-2v-236z" />
    <glyph glyph-name="l" unicode="l" horiz-adv-x="208" 
d="M65 670h78v-670h-78v670z" />
    <glyph glyph-name="m" unicode="m" horiz-adv-x="785" 
d="M135 451q39 29 76.5 44t79.5 15q49 0 78.5 -16.5t48.5 -43.5q39 28 77.5 44t83.5 16q43 0 70.5 -10t43.5 -30t21.5 -50.5t5.5 -71.5v-348h-78v348q0 55 -18.5 75.5t-68.5 20.5q-27 0 -60.5 -13.5t-63.5 -36.5v-394h-78v348q0 27 -4 45.5t-14 30t-26.5 16t-41.5 4.5
q-29 0 -61.5 -13t-62.5 -37v-394h-78v500h52z" />
    <glyph glyph-name="n" unicode="n" 
d="M117 500l18 -49q38 29 76.5 44t88.5 15q43 0 74 -9t50.5 -29.5t29 -54.5t9.5 -84v-333h-78v333q0 33 -6.5 54.5t-19 34t-32.5 17.5t-47 5q-36 0 -71.5 -13t-65.5 -37v-394h-78v500h52z" />
    <glyph glyph-name="o" unicode="o" horiz-adv-x="511" 
d="M466 223q0 -68 -12.5 -113t-38 -72t-65.5 -38t-95 -11t-95 11t-65.5 38t-37.5 72t-12 113v54q0 67 12.5 112t38 72t65.5 38t94 11q55 0 94.5 -11t65.5 -38t38.5 -72t12.5 -112v-54zM388 277q0 50 -6.5 82.5t-22 51t-41 26t-63.5 7.5t-63.5 -7.5t-40.5 -26t-21.5 -51
t-6.5 -82.5v-54q0 -51 6.5 -83.5t21.5 -51t40.5 -26t63.5 -7.5t63.5 7.5t41 26t22 51t6.5 83.5v54z" />
    <glyph glyph-name="p" unicode="p" horiz-adv-x="533" 
d="M284 444q-33 0 -72.5 -15t-68.5 -44v-273q29 -26 67.5 -41.5t73.5 -15.5q31 0 54 7.5t38 25.5t22 49.5t7 79.5v66q0 47 -7 78t-22 49.5t-38 26t-54 7.5zM294 510q44 0 79 -9.5t59.5 -34t37.5 -68.5t13 -113v-71q0 -69 -13 -112.5t-37.5 -68.5t-59.5 -34.5t-79 -9.5
q-39 0 -78 15.5t-73 39.5v-214h-78v670h52l18 -49q35 26 76 42.5t83 16.5z" />
    <glyph glyph-name="q" unicode="q" horiz-adv-x="533" 
d="M249 444q-32 0 -54.5 -7.5t-37.5 -26t-22 -49.5t-7 -78v-66q0 -48 7 -79.5t22 -49.5t37.5 -25.5t54.5 -7.5q35 0 73.5 15.5t67.5 41.5v273q-29 29 -68.5 44t-72.5 15zM238 510q42 0 83.5 -16.5t76.5 -42.5l18 49h52v-670h-78v214q-34 -24 -73 -39.5t-79 -15.5
q-44 0 -78.5 9.5t-59 34.5t-37.5 68.5t-13 112.5v71q0 69 13 113t37.5 68.5t59 34t78.5 9.5z" />
    <glyph glyph-name="r" unicode="r" horiz-adv-x="317" 
d="M282 438q-47 0 -78.5 -12.5t-60.5 -39.5v-386h-78v500h52l18 -49q32 28 67 43.5t80 15.5v-72z" />
    <glyph glyph-name="s" unicode="s" horiz-adv-x="493" 
d="M448 139q0 -30 -6.5 -57.5t-27.5 -47.5t-61.5 -32t-108.5 -12q-59 0 -97.5 10.5t-61 30.5t-31.5 49t-9 66h78q0 -24 5.5 -41t19.5 -28.5t37 -16.5t59 -5q41 0 66 6t38.5 16.5t17.5 26t4 35.5t-5.5 34.5t-20.5 24.5t-40.5 16t-65.5 9q-51 4 -86 14t-57 27t-31.5 41.5
t-9.5 58.5q0 77 51 111.5t140 34.5q101 0 146 -36t45 -121h-78q0 22 -5 39t-18 28.5t-35 17.5t-55 6q-56 0 -84.5 -18t-28.5 -62q0 -42 26.5 -60.5t92.5 -23.5q59 -5 97 -14.5t60.5 -26t31 -41t8.5 -59.5z" />
    <glyph glyph-name="t" unicode="t" horiz-adv-x="331" 
d="M90 434h-65v54l65 12v122l78 13v-135h113v-66h-113v-317q0 -29 12.5 -45t43.5 -16q21 0 37 3.5t30 6.5v-66q-15 -5 -36.5 -8t-44.5 -3q-63 0 -91.5 31.5t-28.5 97.5v316z" />
    <glyph glyph-name="u" unicode="u" 
d="M411 0l-18 49q-40 -30 -77.5 -44.5t-87.5 -14.5q-43 0 -74 9t-50.5 29.5t-29 54t-9.5 83.5v334h78v-334q0 -33 6.5 -54.5t19 -34t32.5 -17.5t47 -5q36 0 71.5 13.5t65.5 37.5v394h78v-500h-52z" />
    <glyph glyph-name="v" unicode="v" horiz-adv-x="492" 
d="M245 84h2l136 416h84l-177 -500h-87l-178 500h85z" />
    <glyph glyph-name="w" unicode="w" horiz-adv-x="730" 
d="M618 500h82q-33 -126 -65 -250t-65 -250h-95l-110 423l-111 -423h-95l-129 500h82l96 -418h1l108 418h95l109 -418z" />
    <glyph glyph-name="x" unicode="x" horiz-adv-x="491" 
d="M363 500h92l-165 -243l176 -257h-92l-128 196h-1l-128 -196h-92l176 257l-165 243h92l117 -182z" />
    <glyph glyph-name="y" unicode="y" horiz-adv-x="495" 
d="M25 500h85l137 -404h2l137 404h84l-206 -568q-12 -32 -26 -53.5t-32.5 -34.5t-43.5 -18.5t-58 -5.5q-31 0 -56 9v66q25 -9 56 -9q35 0 54 14.5t35 56.5l16 43z" />
    <glyph glyph-name="z" unicode="z" horiz-adv-x="486" 
d="M55 500h368v-55l-279 -379h292v-66h-391v54l278 380h-268v66z" />
    <glyph glyph-name="braceleft" unicode="{" horiz-adv-x="394" 
d="M223 -14q0 -29 12.5 -42.5t41.5 -13.5h57v-51h-57q-31 0 -53.5 4t-36.5 15.5t-21 31t-7 49.5v233q0 26 -11 36.5t-36 10.5h-62v51h62q25 0 36 10.5t11 36.5v234q0 59 28.5 79.5t89.5 20.5h57v-51h-57q-29 0 -41.5 -13.5t-12.5 -42.5v-185q0 -24 -1 -42t-6 -31.5
t-14.5 -23.5t-27.5 -17q27 -12 38 -33t11 -53v-213z" />
    <glyph glyph-name="bar" unicode="|" horiz-adv-x="220" 
d="M140 -120h-60v810h60v-810z" />
    <glyph glyph-name="braceright" unicode="}" horiz-adv-x="394" 
d="M166 199q0 32 11 53t38 33q-18 7 -27.5 17t-14.5 23.5t-6 31.5t-1 42v185q0 29 -12.5 42.5t-41.5 13.5h-57v51h57q63 0 90.5 -25t27.5 -85v-224q0 -26 11 -36.5t36 -10.5h62v-51h-62q-25 0 -36 -10.5t-11 -36.5v-223q0 -60 -28 -85t-90 -25h-57v51h57q29 0 41.5 13.5
t12.5 42.5v213z" />
    <glyph glyph-name="asciitilde" unicode="~" horiz-adv-x="459" 
d="M147 660q30 0 52 -12t39.5 -26.5t33.5 -26.5t35 -12q26 0 38 14.5t12 52.5h62q0 -74 -28.5 -101.5t-78.5 -27.5q-30 0 -52 12t-39.5 26.5t-34 26.5t-35.5 12q-26 0 -37.5 -14.5t-11.5 -52.5h-62q0 73 28.5 101t78.5 28z" />
    <glyph glyph-name="nonbreakingspace" unicode="&#xa0;" horiz-adv-x="110" 
 />
    <glyph glyph-name="exclamdown" unicode="&#xa1;" horiz-adv-x="241" 
d="M93 303h55l28 -453h-111zM72 500h97v-91h-97v91z" />
    <glyph glyph-name="cent" unicode="&#xa2;" horiz-adv-x="516" 
d="M266 519q-38 0 -63 -7t-41 -26t-22.5 -51t-6.5 -83v-54q0 -51 6.5 -83.5t22.5 -51.5t41 -26t63 -7q33 0 55.5 5.5t36 17.5t19 31t6.5 47h78q0 -84 -39.5 -122t-121.5 -44v-85h-68v85q-45 3 -78.5 16t-55.5 40t-32.5 70t-10.5 107v54q0 63 11 106t32.5 70t55 40t78.5 16
v86h68v-86q82 -6 121.5 -44t39.5 -121h-78q-1 27 -6.5 46t-19 31t-36 17.5t-55.5 5.5z" />
    <glyph glyph-name="sterling" unicode="&#xa3;" horiz-adv-x="562" 
d="M50 0v70q57 0 82 29.5t25 91.5q0 21 -6 44t-14 49h-87v56h69q-11 35 -20.5 69t-9.5 74q0 94 52 135.5t138 41.5q102 0 146.5 -40.5t44.5 -135.5h-80q0 60 -25.5 83t-85.5 23q-59 0 -84.5 -25t-25.5 -82q0 -38 8.5 -73t18.5 -70h125v-56h-113q7 -23 11.5 -45t4.5 -43
q0 -45 -12.5 -76t-40.5 -50h177q44 0 64 18.5t20 66.5h80q0 -40 -7.5 -69t-25.5 -48t-47 -28.5t-72 -9.5h-310z" />
    <glyph glyph-name="currency" unicode="&#xa4;" horiz-adv-x="620" 
d="M442 352q0 50 -6.5 82.5t-21.5 51t-40.5 26t-63.5 7.5t-63.5 -7.5t-40.5 -26t-21.5 -51t-6.5 -82.5v-53q0 -51 6.5 -83.5t21.5 -51t40.5 -26t63.5 -7.5t63.5 7.5t40.5 26t21.5 51t6.5 83.5v53zM520 299q0 -94 -24 -146l74 -86l-47 -40l-65 76q-26 -20 -62.5 -29t-85.5 -9
q-50 0 -86 9t-62 29l-65 -76l-47 40l74 86q-24 52 -24 146v53q0 93 23 143l-73 86l47 40l64 -75q26 21 62.5 30t86.5 9q49 0 86 -9t63 -30l64 75l47 -40l-74 -86q24 -53 24 -143v-53z" />
    <glyph glyph-name="yen" unicode="&#xa5;" horiz-adv-x="538" 
d="M229 74h-138v46h138v70h-138v46h138v18l-190 396h89l140 -317h2l140 317h89l-190 -396v-18h138v-46h-138v-70h138v-46h-138v-74h-80v74z" />
    <glyph glyph-name="brokenbar" unicode="&#xa6;" horiz-adv-x="220" 
d="M140 -120h-60v340h60v-340zM140 350h-60v340h60v-340z" />
    <glyph glyph-name="section" unicode="&#xa7;" horiz-adv-x="564" 
d="M504 230q0 -39 -19 -69t-51 -50q32 -19 46 -48.5t14 -71.5q0 -75 -52 -118t-156 -43q-113 0 -162.5 41t-49.5 134h79q0 -62 31.5 -86t100.5 -24t99 24t30 72q0 24 -7 40.5t-23 28t-43.5 19t-67.5 12.5q-63 7 -104 20t-65.5 33t-34 48.5t-9.5 67.5t18.5 68.5t50.5 49.5
q-31 20 -45 49t-14 72q0 75 52 118t156 43q112 0 162 -41t50 -134h-79q0 62 -31.5 86t-100.5 24t-99 -24t-30 -72q0 -24 7 -40.5t23 -28t43 -19t68 -12.5q63 -8 104 -20.5t65.5 -32.5t34 -48.5t9.5 -67.5zM268 338q-23 3 -42 6.5t-36 8.5q-51 -26 -51 -88q0 -26 6.5 -44.5
t24 -31.5t48 -22t78.5 -15q43 -6 78 -15q51 25 51 88q0 25 -6.5 44t-24 32.5t-48 22t-78.5 14.5z" />
    <glyph glyph-name="dieresis" unicode="&#xa8;" horiz-adv-x="356" 
d="M60 650h82v-82h-82v82zM214 650h82v-82h-82v82z" />
    <glyph glyph-name="copyright" unicode="&#xa9;" horiz-adv-x="774" 
d="M60 398q0 64 19.5 115t60 86.5t102 54.5t145.5 19q83 0 144.5 -19t102 -54.5t60.5 -86.5t20 -115v-146q0 -128 -80.5 -201.5t-246.5 -73.5q-164 0 -245.5 73.5t-81.5 201.5v146zM121 256q0 -113 65.5 -167.5t200.5 -54.5t200.5 54.5t65.5 167.5v138q0 222 -266 222
t-266 -222v-138zM473 378q0 39 -19 56t-72 17q-26 0 -44 -4.5t-29.5 -15.5t-17 -30t-5.5 -48v-58q0 -55 21 -77t75 -22q53 0 72 17.5t19 55.5h59q0 -30 -7 -54t-24.5 -40t-46.5 -24.5t-72 -8.5q-39 0 -68 8t-48.5 26t-29.5 47t-10 72v58q0 85 38 119t118 34
q85 0 117.5 -32.5t32.5 -95.5h-59z" />
    <glyph glyph-name="ordfeminine" unicode="&#xaa;" horiz-adv-x="428" 
d="M45 357q0 51 31 81t96 35l136 9v47q0 44 -21.5 59.5t-72.5 15.5q-50 0 -69.5 -17t-19.5 -55h-65q0 72 39.5 100t114.5 28q45 0 75.5 -7.5t49 -23.5t26.5 -41t8 -59v-278h-44l-15 39q-27 -24 -60 -35.5t-69 -11.5q-140 0 -140 114zM189 298q37 0 65 11.5t54 34.5v94
l-130 -13q-36 -4 -51.5 -20.5t-15.5 -44.5q0 -62 78 -62z" />
    <glyph glyph-name="guillemotleft" unicode="&#xab;" horiz-adv-x="494" 
d="M60 250l138 180h72l-139 -180l139 -180h-72zM224 250l138 180h72l-139 -180l139 -180h-72z" />
    <glyph glyph-name="logicalnot" unicode="&#xac;" horiz-adv-x="517" 
d="M462 399v-258h-62v196h-345v62h407z" />
    <glyph glyph-name="uni00AD" unicode="&#xad;" horiz-adv-x="350" 
d="M50 316h250v-66h-250v66z" />
    <glyph glyph-name="registered" unicode="&#xae;" horiz-adv-x="774" 
d="M60 398q0 64 19.5 115t60 86.5t102 54.5t145.5 19q83 0 144.5 -19t102 -54.5t60.5 -86.5t20 -115v-146q0 -128 -80.5 -201.5t-246.5 -73.5q-84 0 -146 19t-102 54.5t-59.5 86.5t-19.5 115v146zM121 256q0 -113 65.5 -167.5t200.5 -54.5t200.5 54.5t65.5 167.5v138
q0 222 -266 222t-266 -222v-138zM415 276h-101v-130h-61v358h158q68 0 96.5 -26t28.5 -84q0 -47 -18 -71t-43 -36l70 -141h-66zM314 330h98q35 0 48.5 18t13.5 44q0 29 -13.5 43.5t-45.5 14.5h-101v-120z" />
    <glyph glyph-name="macron" unicode="&#xaf;" horiz-adv-x="370" 
d="M70 630h230v-60h-230v60z" />
    <glyph glyph-name="degree" unicode="&#xb0;" horiz-adv-x="410" 
d="M360 502q0 -47 -9.5 -77.5t-29 -48.5t-48.5 -25.5t-68 -7.5t-68 7.5t-48.5 25.5t-29 48.5t-9.5 77.5q0 46 9.5 76.5t29 48.5t48.5 25.5t68 7.5t68 -7.5t48.5 -25.5t29 -48.5t9.5 -76.5zM114 505q0 -33 5 -53.5t16 -32t28.5 -16t41.5 -4.5t41 4t28 15t16 30.5t5 50.5v3
q0 61 -21.5 82t-68.5 21q-48 0 -69.5 -20t-21.5 -80z" />
    <glyph glyph-name="plusminus" unicode="&#xb1;" horiz-adv-x="517" 
d="M55 0v62h407v-62h-407zM55 375h172v173h62v-173h173v-62h-173v-173h-62v173h-172v62z" />
    <glyph glyph-name="twosuperior" unicode="&#xb2;" horiz-adv-x="332" 
d="M70 600q0 48 23 71.5t77 23.5q57 0 78 -23t21 -66q0 -26 -11 -44t-27.5 -31.5t-36.5 -24.5t-37 -22t-28.5 -24t-12.5 -31h156v-40h-202v27q0 28 11.5 47.5t28.5 34t37 25.5t37 23t28.5 25.5t11.5 33.5q0 27 -12 38.5t-42 11.5q-26 0 -40.5 -11t-14.5 -44h-45z" />
    <glyph glyph-name="threesuperior" unicode="&#xb3;" horiz-adv-x="330" 
d="M224 477q0 46 -45 46h-42v38h41q20 0 29 13t9 31q0 27 -12.5 39t-42.5 12q-29 0 -42 -13.5t-13 -44.5h-45q0 97 100 97q54 0 77 -22.5t23 -67.5q0 -21 -9.5 -36.5t-25.5 -24.5q21 -8 32.5 -24t11.5 -44q0 -46 -25 -68.5t-82 -22.5q-56 0 -79.5 23t-23.5 73h45
q0 -30 13 -43.5t45 -13.5t46.5 12t14.5 41z" />
    <glyph glyph-name="acute" unicode="&#xb4;" horiz-adv-x="243" 
d="M93 670h90l-79 -120h-44z" />
    <glyph glyph-name="mu" unicode="&#xb5;" 
d="M143 -170h-78v670h78v-394q30 -24 65.5 -37t71.5 -13q27 0 47 5t32.5 17.5t19 34t6.5 54.5v333h78v-333q0 -48 -9 -82t-28.5 -55t-50 -30.5t-74.5 -9.5q-43 0 -80.5 14t-77.5 42v-216z" />
    <glyph glyph-name="mu" unicode="&#x3bc;" 
d="M143 -170h-78v670h78v-394q30 -24 65.5 -37t71.5 -13q27 0 47 5t32.5 17.5t19 34t6.5 54.5v333h78v-333q0 -48 -9 -82t-28.5 -55t-50 -30.5t-74.5 -9.5q-43 0 -80.5 14t-77.5 42v-216z" />
    <glyph glyph-name="paragraph" unicode="&#xb6;" horiz-adv-x="707" 
d="M53 404q0 70 16.5 117.5t48 76t78 40.5t106.5 12h313v-824h-67v764h-75v-764h-67v339h-106q-126 0 -186.5 56.5t-60.5 182.5z" />
    <glyph glyph-name="periodcentered" unicode="&#xb7;" horiz-adv-x="228" 
d="M65 378h98v-97h-98v97z" />
    <glyph glyph-name="cedilla" unicode="&#xb8;" horiz-adv-x="239" 
d="M135 -46q33 -2 51 -18t18 -51q0 -41 -24.5 -59t-76.5 -18h-66v48h64q25 0 33 7.5t8 21.5q0 15 -8 22t-33 7h-27l27 86h47z" />
    <glyph glyph-name="onesuperior" unicode="&#xb9;" horiz-adv-x="251" 
d="M126 389v258h-56v27l74 16h27v-301h-45z" />
    <glyph glyph-name="ordmasculine" unicode="&#xba;" horiz-adv-x="444" 
d="M391 430q0 -54 -10 -90t-30.5 -57.5t-52.5 -30.5t-76 -9t-76 9t-52.5 30.5t-30 57.5t-9.5 90v43q0 54 10 90t30.5 57.5t52 30.5t75.5 9t76 -9t52.5 -30.5t30.5 -57.5t10 -90v-43zM328 473q0 40 -5 66t-17.5 41t-33 21t-50.5 6t-50.5 -6t-33 -21t-17.5 -41t-5 -66v-43
q0 -41 5 -67t17.5 -41t33 -20.5t50.5 -5.5t50.5 5.5t33 20.5t17.5 41t5 67v43z" />
    <glyph glyph-name="guillemotright" unicode="&#xbb;" horiz-adv-x="494" 
d="M296 70h-72l139 180l-139 180h72l138 -180zM132 70h-72l139 180l-139 180h72l138 -180z" />
    <glyph glyph-name="onequarter" unicode="&#xbc;" horiz-adv-x="644" 
d="M486 68h-144v32l136 200h53v-194h36v-38h-36v-68h-45v68zM486 106v142l-95 -142h95zM526 650h50l-431 -650h-50zM126 349v258h-56v27l74 16h27v-301h-45z" />
    <glyph glyph-name="onehalf" unicode="&#xbd;" horiz-adv-x="642" 
d="M130 349v258h-56v27l74 16h27v-301h-45zM370 211q0 48 23 71.5t77 23.5q57 0 78 -23t21 -66q0 -26 -11 -44t-27.5 -31.5t-36.5 -24.5t-37 -22t-28.5 -24t-12.5 -31h156v-40h-202v27q0 28 11.5 47.5t28.5 34t37 25.5t37 23t28.5 25.5t11.5 33.5q0 27 -12 38.5t-42 11.5
q-26 0 -40.5 -11t-14.5 -44h-45zM499 650h50l-431 -650h-50z" />
    <glyph glyph-name="threequarters" unicode="&#xbe;" horiz-adv-x="648" 
d="M234 437q0 46 -45 46h-42v38h41q20 0 29 13t9 31q0 27 -12.5 39t-42.5 12q-29 0 -42 -13.5t-13 -44.5h-45q0 97 100 97q54 0 77 -22.5t23 -67.5q0 -21 -9.5 -36.5t-25.5 -24.5q21 -8 32.5 -24t11.5 -44q0 -46 -25 -68.5t-82 -22.5q-56 0 -79.5 23t-23.5 73h45
q0 -30 13 -43.5t45 -13.5t46.5 12t14.5 41zM490 68h-144v32l136 200h53v-194h36v-38h-36v-68h-45v68zM490 106v142l-95 -142h95zM530 650h50l-431 -650h-50z" />
    <glyph glyph-name="questiondown" unicode="&#xbf;" horiz-adv-x="517" 
d="M289 304q4 -34 7 -67.5t6 -67.5q-46 0 -78.5 -6t-53.5 -21.5t-30.5 -42t-9.5 -67.5q0 -66 31.5 -95t102.5 -29q64 0 93.5 28t29.5 85h80q0 -86 -48 -133.5t-154 -47.5q-114 0 -164.5 47t-50.5 145q0 99 46.5 145.5t136.5 53.5l6 73h50zM313 409h-97v91h97v-91z" />
    <glyph glyph-name="Agrave" unicode="&#xc0;" horiz-adv-x="523" 
d="M375 158h-227l-44 -158h-84l191 650h101l191 -650h-83zM166 226h191l-94 345h-2zM285 700h-44l-79 120h90z" />
    <glyph glyph-name="Aacute" unicode="&#xc1;" horiz-adv-x="523" 
d="M375 158h-227l-44 -158h-84l191 650h101l191 -650h-83zM166 226h191l-94 345h-2zM276 820h90l-79 -120h-44z" />
    <glyph glyph-name="Acircumflex" unicode="&#xc2;" horiz-adv-x="523" 
d="M375 158h-227l-44 -158h-84l191 650h101l191 -650h-83zM166 226h191l-94 345h-2zM369 700h-53l-55 69l-55 -69h-53l65 120h86z" />
    <glyph glyph-name="Atilde" unicode="&#xc3;" horiz-adv-x="523" 
d="M375 158h-227l-44 -158h-84l191 650h101l191 -650h-83zM166 226h191l-94 345h-2zM323 696q-22 0 -37.5 8t-28 18t-24.5 18t-28 8q-22 0 -29 -12t-7 -30h-50q0 50 18 76t62 26q22 0 37 -8t28 -18t25 -18t28 -8q22 0 29 12t7 30h50q0 -50 -18 -76t-62 -26z" />
    <glyph glyph-name="Adieresis" unicode="&#xc4;" horiz-adv-x="523" 
d="M375 158h-227l-44 -158h-84l191 650h101l191 -650h-83zM166 226h191l-94 345h-2zM143 800h82v-82h-82v82zM297 800h82v-82h-82v82z" />
    <glyph glyph-name="Aring" unicode="&#xc5;" horiz-adv-x="523" 
d="M375 158h-227l-44 -158h-84l191 650h101l191 -650h-83zM166 226h191l-94 345h-2zM360 779q0 -42 -25.5 -63.5t-72.5 -21.5q-48 0 -73.5 21.5t-25.5 63.5t25.5 63.5t73.5 21.5q47 0 72.5 -21.5t25.5 -63.5zM307 779q0 20 -10.5 30t-34.5 10q-25 0 -35.5 -10t-10.5 -30
t10.5 -30t35.5 -10q24 0 34.5 10t10.5 30z" />
    <glyph glyph-name="AE" unicode="&#xc6;" horiz-adv-x="850" 
d="M430 158h-238l-88 -158h-84l366 650h414v-70h-290v-216h254v-68h-254v-226h290v-70h-370v158zM230 226h200v354h-2z" />
    <glyph glyph-name="Ccedilla" unicode="&#xc7;" horiz-adv-x="545" 
d="M277 60q70 0 101.5 26.5t31.5 97.5h80q0 -101 -48 -146t-149 -48l-10 -36q33 -2 51 -18t18 -51q0 -41 -24.5 -59t-76.5 -18h-66v48h64q25 0 33 7.5t8 21.5q0 15 -8 22t-33 7h-27l24 77q-50 3 -86 16.5t-59.5 41.5t-34.5 70.5t-11 104.5v202q0 64 12.5 108.5t39.5 72.5
t69 40.5t101 12.5q109 0 161 -45t52 -150h-80q0 70 -31 97.5t-102 27.5q-39 0 -66 -7.5t-44 -25.5t-24.5 -48.5t-7.5 -76.5v-214q0 -46 7.5 -76.5t24 -48.5t44 -25.5t66.5 -7.5z" />
    <glyph glyph-name="Egrave" unicode="&#xc8;" horiz-adv-x="495" 
d="M70 650h370v-70h-290v-216h254v-68h-254v-226h290v-70h-370v650zM306 700h-44l-79 120h90z" />
    <glyph glyph-name="Eacute" unicode="&#xc9;" horiz-adv-x="495" 
d="M70 650h370v-70h-290v-216h254v-68h-254v-226h290v-70h-370v650zM265 820h90l-79 -120h-44z" />
    <glyph glyph-name="Ecircumflex" unicode="&#xca;" horiz-adv-x="495" 
d="M70 650h370v-70h-290v-216h254v-68h-254v-226h290v-70h-370v650zM366 700h-53l-55 69l-55 -69h-53l65 120h86z" />
    <glyph glyph-name="Edieresis" unicode="&#xcb;" horiz-adv-x="495" 
d="M70 650h370v-70h-290v-216h254v-68h-254v-226h290v-70h-370v650zM132 800h82v-82h-82v82zM286 800h82v-82h-82v82z" />
    <glyph glyph-name="Igrave" unicode="&#xcc;" horiz-adv-x="220" 
d="M70 650h80v-650h-80v650zM173 700h-44l-79 120h90z" />
    <glyph glyph-name="Iacute" unicode="&#xcd;" horiz-adv-x="220" 
d="M70 650h80v-650h-80v650zM126 820h90l-79 -120h-44z" />
    <glyph glyph-name="Icircumflex" unicode="&#xce;" horiz-adv-x="220" 
d="M70 650h80v-650h-80v650zM219 700h-53l-55 69l-55 -69h-53l65 120h86z" />
    <glyph glyph-name="Idieresis" unicode="&#xcf;" horiz-adv-x="220" 
d="M70 650h80v-650h-80v650zM-7 800h82v-82h-82v82zM147 800h82v-82h-82v82z" />
    <glyph glyph-name="Eth" unicode="&#xd0;" horiz-adv-x="567" 
d="M12 360h58v290h196q58 0 103 -10t75.5 -35.5t46.5 -71t16 -115.5v-186q0 -71 -16 -116t-46.5 -70.5t-75.5 -35.5t-103 -10h-196v301h-58v59zM150 580v-220h120v-59h-120v-231h115q41 0 71.5 7t50.5 25t30 48.5t10 77.5v196q0 51 -11 81.5t-31.5 47t-50.5 22t-69 5.5h-115
z" />
    <glyph glyph-name="Ntilde" unicode="&#xd1;" horiz-adv-x="574" 
d="M504 0h-102l-252 535v-535h-80v650h102l252 -535v535h80v-650zM349 696q-22 0 -37.5 8t-28 18t-24.5 18t-28 8q-22 0 -29 -12t-7 -30h-50q0 50 18 76t62 26q22 0 37 -8t28 -18t25 -18t28 -8q22 0 29 12t7 30h50q0 -50 -18 -76t-62 -26z" />
    <glyph glyph-name="Ograve" unicode="&#xd2;" horiz-adv-x="559" 
d="M424 430q0 48 -8.5 79t-26 49t-45 25t-64.5 7q-38 0 -65.5 -7t-45 -25t-26 -49.5t-8.5 -79.5v-209q0 -48 8.5 -79t26 -49t45 -25t65.5 -7q37 0 64.5 7t45 25t26 49t8.5 79v210zM55 430q0 65 13.5 109t41 71t70 38.5t100.5 11.5t100 -12t69.5 -39t41 -71t13.5 -108v-210
q0 -65 -13.5 -109t-41 -71t-69.5 -38.5t-100 -11.5t-100.5 11.5t-70 38.5t-41 71t-13.5 109v210zM320 700h-44l-79 120h90z" />
    <glyph glyph-name="Oacute" unicode="&#xd3;" horiz-adv-x="559" 
d="M424 430q0 48 -8.5 79t-26 49t-45 25t-64.5 7q-38 0 -65.5 -7t-45 -25t-26 -49.5t-8.5 -79.5v-209q0 -48 8.5 -79t26 -49t45 -25t65.5 -7q37 0 64.5 7t45 25t26 49t8.5 79v210zM55 430q0 65 13.5 109t41 71t70 38.5t100.5 11.5t100 -12t69.5 -39t41 -71t13.5 -108v-210
q0 -65 -13.5 -109t-41 -71t-69.5 -38.5t-100 -11.5t-100.5 11.5t-70 38.5t-41 71t-13.5 109v210zM299 820h90l-79 -120h-44z" />
    <glyph glyph-name="Ocircumflex" unicode="&#xd4;" horiz-adv-x="559" 
d="M424 430q0 48 -8.5 79t-26 49t-45 25t-64.5 7q-38 0 -65.5 -7t-45 -25t-26 -49.5t-8.5 -79.5v-209q0 -48 8.5 -79t26 -49t45 -25t65.5 -7q37 0 64.5 7t45 25t26 49t8.5 79v210zM55 430q0 65 13.5 109t41 71t70 38.5t100.5 11.5t100 -12t69.5 -39t41 -71t13.5 -108v-210
q0 -65 -13.5 -109t-41 -71t-69.5 -38.5t-100 -11.5t-100.5 11.5t-70 38.5t-41 71t-13.5 109v210zM387 700h-53l-55 69l-55 -69h-53l65 120h86z" />
    <glyph glyph-name="Otilde" unicode="&#xd5;" horiz-adv-x="559" 
d="M424 430q0 48 -8.5 79t-26 49t-45 25t-64.5 7q-38 0 -65.5 -7t-45 -25t-26 -49.5t-8.5 -79.5v-209q0 -48 8.5 -79t26 -49t45 -25t65.5 -7q37 0 64.5 7t45 25t26 49t8.5 79v210zM55 430q0 65 13.5 109t41 71t70 38.5t100.5 11.5t100 -12t69.5 -39t41 -71t13.5 -108v-210
q0 -65 -13.5 -109t-41 -71t-69.5 -38.5t-100 -11.5t-100.5 11.5t-70 38.5t-41 71t-13.5 109v210zM341 696q-22 0 -37.5 8t-28 18t-24.5 18t-28 8q-22 0 -29 -12t-7 -30h-50q0 50 18 76t62 26q22 0 37 -8t28 -18t25 -18t28 -8q22 0 29 12t7 30h50q0 -50 -18 -76t-62 -26z" />
    <glyph glyph-name="Odieresis" unicode="&#xd6;" horiz-adv-x="559" 
d="M424 430q0 48 -8.5 79t-26 49t-45 25t-64.5 7q-38 0 -65.5 -7t-45 -25t-26 -49.5t-8.5 -79.5v-209q0 -48 8.5 -79t26 -49t45 -25t65.5 -7q37 0 64.5 7t45 25t26 49t8.5 79v210zM55 430q0 65 13.5 109t41 71t70 38.5t100.5 11.5t100 -12t69.5 -39t41 -71t13.5 -108v-210
q0 -65 -13.5 -109t-41 -71t-69.5 -38.5t-100 -11.5t-100.5 11.5t-70 38.5t-41 71t-13.5 109v210zM161 800h82v-82h-82v82zM315 800h82v-82h-82v82z" />
    <glyph glyph-name="multiply" unicode="&#xd7;" horiz-adv-x="470" 
d="M55 138l136 137l-136 135l43 44l137 -136l136 136l43 -44l-136 -135l137 -137l-44 -44l-136 137l-137 -137z" />
    <glyph glyph-name="Oslash" unicode="&#xd8;" horiz-adv-x="559" 
d="M90 64q-35 52 -35 156v210q0 65 13.5 109t41 71t70 38.5t100.5 11.5q45 0 81 -7t63 -24l24 41h66l-48 -80q38 -53 38 -160v-210q0 -65 -13.5 -109t-41 -71t-69.5 -38.5t-100 -11.5q-98 0 -150 33l-25 -43h-65zM424 430q0 43 -8 75l-246 -415q17 -18 44.5 -25t65.5 -7
q37 0 64.5 7t45 25.5t26 49.5t8.5 79v211zM135 219q0 -40 6 -68l244 412q-18 16 -44 22t-61 6q-38 0 -65.5 -7t-45 -25.5t-26 -50t-8.5 -79.5v-210z" />
    <glyph glyph-name="Ugrave" unicode="&#xd9;" horiz-adv-x="575" 
d="M150 650v-450q0 -79 32 -110t105 -31t105.5 31t32.5 110v450h80v-448q0 -62 -14 -103t-41.5 -65.5t-68.5 -34.5t-94 -10t-93.5 10t-68 34.5t-41.5 65.5t-14 103v448h80zM349 700h-44l-79 120h90z" />
    <glyph glyph-name="Uacute" unicode="&#xda;" horiz-adv-x="575" 
d="M150 650v-450q0 -79 32 -110t105 -31t105.5 31t32.5 110v450h80v-448q0 -62 -14 -103t-41.5 -65.5t-68.5 -34.5t-94 -10t-93.5 10t-68 34.5t-41.5 65.5t-14 103v448h80zM293 820h90l-79 -120h-44z" />
    <glyph glyph-name="Ucircumflex" unicode="&#xdb;" horiz-adv-x="575" 
d="M150 650v-450q0 -79 32 -110t105 -31t105.5 31t32.5 110v450h80v-448q0 -62 -14 -103t-41.5 -65.5t-68.5 -34.5t-94 -10t-93.5 10t-68 34.5t-41.5 65.5t-14 103v448h80zM395 700h-53l-55 69l-55 -69h-53l65 120h86z" />
    <glyph glyph-name="Udieresis" unicode="&#xdc;" horiz-adv-x="575" 
d="M150 650v-450q0 -79 32 -110t105 -31t105.5 31t32.5 110v450h80v-448q0 -62 -14 -103t-41.5 -65.5t-68.5 -34.5t-94 -10t-93.5 10t-68 34.5t-41.5 65.5t-14 103v448h80zM169 800h82v-82h-82v82zM323 800h82v-82h-82v82z" />
    <glyph glyph-name="Yacute" unicode="&#xdd;" horiz-adv-x="510" 
d="M215 253l-190 397h89l140 -317h2l140 317h89l-190 -397v-253h-80v253zM273 820h90l-79 -120h-44z" />
    <glyph glyph-name="Thorn" unicode="&#xde;" horiz-adv-x="543" 
d="M150 125v-125h-80v650h80v-117h126q57 0 98.5 -9t69 -32t41 -62.5t13.5 -100.5q0 -62 -13.5 -102t-41 -62.5t-69 -31t-98.5 -8.5h-126zM277 195q37 0 63 5t42.5 20t24.5 41t8 68t-8 68t-24.5 41t-42.5 20t-63 5h-127v-268h127z" />
    <glyph glyph-name="germandbls" unicode="&#xdf;" horiz-adv-x="551" 
d="M227 395h30q33 0 54.5 8t34.5 22.5t18 35t5 45.5q0 57 -27.5 82.5t-85.5 25.5q-33 0 -54.5 -7.5t-34.5 -21.5t-18.5 -33.5t-5.5 -44.5v-507h-78v507q0 88 46 130.5t145 42.5q101 0 146 -42.5t45 -126.5q0 -57 -24 -92t-68 -50q34 -5 62 -16.5t48 -32.5t30.5 -52.5
t10.5 -77.5v-7q0 -57 -16 -94.5t-44 -59t-66.5 -30.5t-84.5 -9q-26 0 -53 2.5t-50 7.5v68q26 -7 50 -9.5t50 -2.5q67 0 101.5 27t34.5 100v7q0 43 -10 70t-29 42.5t-45 21t-59 5.5h-58v66z" />
    <glyph glyph-name="agrave" unicode="&#xe0;" horiz-adv-x="501" 
d="M40 132q0 65 39 101.5t120 41.5l169 11v60q0 26 -5 44.5t-18 30.5t-35.5 17.5t-56.5 5.5q-63 0 -89 -21t-26 -72h-78q0 45 13 75.5t37.5 49t60.5 26.5t82 8q53 0 89.5 -9t59.5 -28.5t33.5 -50.5t10.5 -76v-346h-52l-18 49q-37 -29 -74.5 -44.5t-86.5 -15.5
q-86 0 -130.5 36t-44.5 107zM221 55q48 0 81 14t66 43v123l-161 -17q-45 -5 -66.5 -24.5t-21.5 -57.5q0 -42 26 -61.5t76 -19.5zM290 550h-44l-79 120h90z" />
    <glyph glyph-name="aacute" unicode="&#xe1;" horiz-adv-x="501" 
d="M40 132q0 65 39 101.5t120 41.5l169 11v60q0 26 -5 44.5t-18 30.5t-35.5 17.5t-56.5 5.5q-63 0 -89 -21t-26 -72h-78q0 45 13 75.5t37.5 49t60.5 26.5t82 8q53 0 89.5 -9t59.5 -28.5t33.5 -50.5t10.5 -76v-346h-52l-18 49q-37 -29 -74.5 -44.5t-86.5 -15.5
q-86 0 -130.5 36t-44.5 107zM221 55q48 0 81 14t66 43v123l-161 -17q-45 -5 -66.5 -24.5t-21.5 -57.5q0 -42 26 -61.5t76 -19.5zM267 670h90l-79 -120h-44z" />
    <glyph glyph-name="acircumflex" unicode="&#xe2;" horiz-adv-x="501" 
d="M40 132q0 65 39 101.5t120 41.5l169 11v60q0 26 -5 44.5t-18 30.5t-35.5 17.5t-56.5 5.5q-63 0 -89 -21t-26 -72h-78q0 45 13 75.5t37.5 49t60.5 26.5t82 8q53 0 89.5 -9t59.5 -28.5t33.5 -50.5t10.5 -76v-346h-52l-18 49q-37 -29 -74.5 -44.5t-86.5 -15.5
q-86 0 -130.5 36t-44.5 107zM221 55q48 0 81 14t66 43v123l-161 -17q-45 -5 -66.5 -24.5t-21.5 -57.5q0 -42 26 -61.5t76 -19.5zM358 550h-53l-55 69l-55 -69h-53l65 120h86z" />
    <glyph glyph-name="atilde" unicode="&#xe3;" horiz-adv-x="501" 
d="M40 132q0 65 39 101.5t120 41.5l169 11v60q0 26 -5 44.5t-18 30.5t-35.5 17.5t-56.5 5.5q-63 0 -89 -21t-26 -72h-78q0 45 13 75.5t37.5 49t60.5 26.5t82 8q53 0 89.5 -9t59.5 -28.5t33.5 -50.5t10.5 -76v-346h-52l-18 49q-37 -29 -74.5 -44.5t-86.5 -15.5
q-86 0 -130.5 36t-44.5 107zM221 55q48 0 81 14t66 43v123l-161 -17q-45 -5 -66.5 -24.5t-21.5 -57.5q0 -42 26 -61.5t76 -19.5zM312 546q-22 0 -37.5 8t-28 18t-24.5 18t-28 8q-22 0 -29 -12t-7 -30h-50q0 50 18 76t62 26q22 0 37 -8t28 -18t25 -18t28 -8q22 0 29 12t7 30
h50q0 -50 -18 -76t-62 -26z" />
    <glyph glyph-name="adieresis" unicode="&#xe4;" horiz-adv-x="501" 
d="M40 132q0 65 39 101.5t120 41.5l169 11v60q0 26 -5 44.5t-18 30.5t-35.5 17.5t-56.5 5.5q-63 0 -89 -21t-26 -72h-78q0 45 13 75.5t37.5 49t60.5 26.5t82 8q53 0 89.5 -9t59.5 -28.5t33.5 -50.5t10.5 -76v-346h-52l-18 49q-37 -29 -74.5 -44.5t-86.5 -15.5
q-86 0 -130.5 36t-44.5 107zM221 55q48 0 81 14t66 43v123l-161 -17q-45 -5 -66.5 -24.5t-21.5 -57.5q0 -42 26 -61.5t76 -19.5zM132 650h82v-82h-82v82zM286 650h82v-82h-82v82z" />
    <glyph glyph-name="aring" unicode="&#xe5;" horiz-adv-x="501" 
d="M40 132q0 65 39 101.5t120 41.5l169 11v60q0 26 -5 44.5t-18 30.5t-35.5 17.5t-56.5 5.5q-63 0 -89 -21t-26 -72h-78q0 45 13 75.5t37.5 49t60.5 26.5t82 8q53 0 89.5 -9t59.5 -28.5t33.5 -50.5t10.5 -76v-346h-52l-18 49q-37 -29 -74.5 -44.5t-86.5 -15.5
q-86 0 -130.5 36t-44.5 107zM221 55q48 0 81 14t66 43v123l-161 -17q-45 -5 -66.5 -24.5t-21.5 -57.5q0 -42 26 -61.5t76 -19.5zM349 629q0 -42 -25.5 -63.5t-72.5 -21.5q-48 0 -73.5 21.5t-25.5 63.5t25.5 63.5t73.5 21.5q47 0 72.5 -21.5t25.5 -63.5zM296 629
q0 20 -10.5 30t-34.5 10q-25 0 -35.5 -10t-10.5 -30t10.5 -30t35.5 -10q24 0 34.5 10t10.5 30z" />
    <glyph glyph-name="ae" unicode="&#xe6;" horiz-adv-x="824" 
d="M583 55q54 0 94.5 5.5t78.5 13.5v-66q-35 -8 -78 -13t-96 -5q-66 0 -109 15.5t-66 57.5q-24 -42 -68 -57.5t-116 -15.5q-88 0 -135.5 35.5t-47.5 108.5q0 74 46 109.5t124 35.5h158v67q0 26 -5 44.5t-18 30.5t-35.5 17.5t-56.5 5.5q-63 0 -89 -21t-26 -72h-78
q0 45 13 75.5t37.5 49t60.5 26.5t82 8q66 0 105 -14t57 -46q24 33 64 46.5t98 13.5q51 0 88.5 -10.5t63 -37.5t38 -72t12.5 -114v-56h-333q0 -49 6 -81t22 -50.5t42 -26t67 -7.5zM701 279q0 47 -5 79t-18.5 51t-37.5 27t-63 8q-38 0 -63.5 -8t-40.5 -26.5t-21 -50.5t-6 -80
h255zM217 220q-43 0 -70.5 -18t-27.5 -64q0 -44 26 -63.5t80 -19.5q43 0 70.5 7t43.5 25.5t22.5 50.5t6.5 82h-151z" />
    <glyph glyph-name="ccedilla" unicode="&#xe7;" horiz-adv-x="506" 
d="M261 444q-37 0 -62.5 -7t-41 -26t-22.5 -51t-7 -83v-54q0 -51 7 -83.5t22.5 -51.5t41 -26t62.5 -7q34 0 56 5.5t35.5 17.5t19.5 31t6 47h78q0 -89 -44 -126.5t-135 -39.5l-10 -36q33 -2 51 -18t18 -51q0 -41 -24.5 -59t-76.5 -18h-66v48h64q25 0 33 7.5t8 21.5
q0 15 -8 22t-33 7h-27l24 76q-46 3 -80 16t-56 40t-33 70t-11 107v54q0 69 13 114t39 71.5t66 37t93 10.5q99 0 147 -37.5t48 -128.5h-78q0 27 -6 46t-19.5 31t-35.5 17.5t-56 5.5z" />
    <glyph glyph-name="egrave" unicode="&#xe8;" horiz-adv-x="506" 
d="M383 279q0 46 -5 77.5t-18.5 51t-37.5 28t-63 8.5q-38 0 -63.5 -8t-40.5 -27.5t-21 -51t-6 -78.5h255zM265 55q54 0 94.5 5.5t78.5 13.5v-66q-35 -8 -78 -13t-96 -5q-54 0 -94 10t-66.5 36t-40 71t-13.5 116v54q0 69 13 114t39.5 71.5t65.5 37t91 10.5q51 0 88.5 -10.5
t63 -36.5t38 -71t12.5 -114v-58h-333q0 -49 6.5 -81t22.5 -50.5t42.5 -26t65.5 -7.5zM314 550h-44l-79 120h90z" />
    <glyph glyph-name="eacute" unicode="&#xe9;" horiz-adv-x="506" 
d="M383 279q0 46 -5 77.5t-18.5 51t-37.5 28t-63 8.5q-38 0 -63.5 -8t-40.5 -27.5t-21 -51t-6 -78.5h255zM265 55q54 0 94.5 5.5t78.5 13.5v-66q-35 -8 -78 -13t-96 -5q-54 0 -94 10t-66.5 36t-40 71t-13.5 116v54q0 69 13 114t39.5 71.5t65.5 37t91 10.5q51 0 88.5 -10.5
t63 -36.5t38 -71t12.5 -114v-58h-333q0 -49 6.5 -81t22.5 -50.5t42.5 -26t65.5 -7.5zM278 670h90l-79 -120h-44z" />
    <glyph glyph-name="ecircumflex" unicode="&#xea;" horiz-adv-x="506" 
d="M383 279q0 46 -5 77.5t-18.5 51t-37.5 28t-63 8.5q-38 0 -63.5 -8t-40.5 -27.5t-21 -51t-6 -78.5h255zM265 55q54 0 94.5 5.5t78.5 13.5v-66q-35 -8 -78 -13t-96 -5q-54 0 -94 10t-66.5 36t-40 71t-13.5 116v54q0 69 13 114t39.5 71.5t65.5 37t91 10.5q51 0 88.5 -10.5
t63 -36.5t38 -71t12.5 -114v-58h-333q0 -49 6.5 -81t22.5 -50.5t42.5 -26t65.5 -7.5zM361 550h-53l-55 69l-55 -69h-53l65 120h86z" />
    <glyph glyph-name="edieresis" unicode="&#xeb;" horiz-adv-x="506" 
d="M383 279q0 46 -5 77.5t-18.5 51t-37.5 28t-63 8.5q-38 0 -63.5 -8t-40.5 -27.5t-21 -51t-6 -78.5h255zM265 55q54 0 94.5 5.5t78.5 13.5v-66q-35 -8 -78 -13t-96 -5q-54 0 -94 10t-66.5 36t-40 71t-13.5 116v54q0 69 13 114t39.5 71.5t65.5 37t91 10.5q51 0 88.5 -10.5
t63 -36.5t38 -71t12.5 -114v-58h-333q0 -49 6.5 -81t22.5 -50.5t42.5 -26t65.5 -7.5zM140 650h82v-82h-82v82zM294 650h82v-82h-82v82z" />
    <glyph glyph-name="igrave" unicode="&#xec;" horiz-adv-x="213" 
d="M67 500h78v-500h-78v500zM169 550h-44l-79 120h90z" />
    <glyph glyph-name="iacute" unicode="&#xed;" horiz-adv-x="213" 
d="M67 500h78v-500h-78v500zM122 670h90l-79 -120h-44z" />
    <glyph glyph-name="icircumflex" unicode="&#xee;" horiz-adv-x="213" 
d="M67 500h78v-500h-78v500zM216 550h-53l-55 69l-55 -69h-53l65 120h86z" />
    <glyph glyph-name="idieresis" unicode="&#xef;" horiz-adv-x="213" 
d="M67 500h78v-500h-78v500zM-10 650h82v-82h-82v82zM144 650h82v-82h-82v82z" />
    <glyph glyph-name="eth" unicode="&#xf0;" horiz-adv-x="529" 
d="M435 613q34 -50 34 -147v-247q0 -60 -11.5 -103.5t-37 -71.5t-65.5 -41t-98 -13q-112 0 -159.5 58t-47.5 165q0 99 43 153.5t144 54.5q42 0 81 -11.5t73 -31.5v87q0 33 -3.5 57t-11.5 41l-66 -57l-33 38l65 56q-27 14 -80 14q-45 0 -88 -18v68q18 8 41 12t46 4
q90 0 138 -32l66 57l33 -38zM253 362q-72 0 -98.5 -39t-26.5 -112q0 -78 28.5 -116t101.5 -38q37 0 62.5 8.5t41 27.5t22.5 50.5t7 77.5v99q-32 20 -66 31t-72 11z" />
    <glyph glyph-name="ntilde" unicode="&#xf1;" 
d="M117 500l18 -49q38 29 76.5 44t88.5 15q43 0 74 -9t50.5 -29.5t29 -54.5t9.5 -84v-333h-78v333q0 33 -6.5 54.5t-19 34t-32.5 17.5t-47 5q-36 0 -71.5 -13t-65.5 -37v-394h-78v500h52zM326 546q-22 0 -37.5 8t-28 18t-24.5 18t-28 8q-22 0 -29 -12t-7 -30h-50q0 50 18 76
t62 26q22 0 37 -8t28 -18t25 -18t28 -8q22 0 29 12t7 30h50q0 -50 -18 -76t-62 -26z" />
    <glyph glyph-name="ograve" unicode="&#xf2;" horiz-adv-x="511" 
d="M466 223q0 -68 -12.5 -113t-38 -72t-65.5 -38t-95 -11t-95 11t-65.5 38t-37.5 72t-12 113v54q0 67 12.5 112t38 72t65.5 38t94 11q55 0 94.5 -11t65.5 -38t38.5 -72t12.5 -112v-54zM388 277q0 50 -6.5 82.5t-22 51t-41 26t-63.5 7.5t-63.5 -7.5t-40.5 -26t-21.5 -51
t-6.5 -82.5v-54q0 -51 6.5 -83.5t21.5 -51t40.5 -26t63.5 -7.5t63.5 7.5t41 26t22 51t6.5 83.5v54zM317 550h-44l-79 120h90z" />
    <glyph glyph-name="oacute" unicode="&#xf3;" horiz-adv-x="511" 
d="M466 223q0 -68 -12.5 -113t-38 -72t-65.5 -38t-95 -11t-95 11t-65.5 38t-37.5 72t-12 113v54q0 67 12.5 112t38 72t65.5 38t94 11q55 0 94.5 -11t65.5 -38t38.5 -72t12.5 -112v-54zM388 277q0 50 -6.5 82.5t-22 51t-41 26t-63.5 7.5t-63.5 -7.5t-40.5 -26t-21.5 -51
t-6.5 -82.5v-54q0 -51 6.5 -83.5t21.5 -51t40.5 -26t63.5 -7.5t63.5 7.5t41 26t22 51t6.5 83.5v54zM273 670h90l-79 -120h-44z" />
    <glyph glyph-name="ocircumflex" unicode="&#xf4;" horiz-adv-x="511" 
d="M466 223q0 -68 -12.5 -113t-38 -72t-65.5 -38t-95 -11t-95 11t-65.5 38t-37.5 72t-12 113v54q0 67 12.5 112t38 72t65.5 38t94 11q55 0 94.5 -11t65.5 -38t38.5 -72t12.5 -112v-54zM388 277q0 50 -6.5 82.5t-22 51t-41 26t-63.5 7.5t-63.5 -7.5t-40.5 -26t-21.5 -51
t-6.5 -82.5v-54q0 -51 6.5 -83.5t21.5 -51t40.5 -26t63.5 -7.5t63.5 7.5t41 26t22 51t6.5 83.5v54zM363 550h-53l-55 69l-55 -69h-53l65 120h86z" />
    <glyph glyph-name="otilde" unicode="&#xf5;" horiz-adv-x="511" 
d="M466 223q0 -68 -12.5 -113t-38 -72t-65.5 -38t-95 -11t-95 11t-65.5 38t-37.5 72t-12 113v54q0 67 12.5 112t38 72t65.5 38t94 11q55 0 94.5 -11t65.5 -38t38.5 -72t12.5 -112v-54zM388 277q0 50 -6.5 82.5t-22 51t-41 26t-63.5 7.5t-63.5 -7.5t-40.5 -26t-21.5 -51
t-6.5 -82.5v-54q0 -51 6.5 -83.5t21.5 -51t40.5 -26t63.5 -7.5t63.5 7.5t41 26t22 51t6.5 83.5v54zM317 546q-22 0 -37.5 8t-28 18t-24.5 18t-28 8q-22 0 -29 -12t-7 -30h-50q0 50 18 76t62 26q22 0 37 -8t28 -18t25 -18t28 -8q22 0 29 12t7 30h50q0 -50 -18 -76t-62 -26z
" />
    <glyph glyph-name="odieresis" unicode="&#xf6;" horiz-adv-x="511" 
d="M466 223q0 -68 -12.5 -113t-38 -72t-65.5 -38t-95 -11t-95 11t-65.5 38t-37.5 72t-12 113v54q0 67 12.5 112t38 72t65.5 38t94 11q55 0 94.5 -11t65.5 -38t38.5 -72t12.5 -112v-54zM388 277q0 50 -6.5 82.5t-22 51t-41 26t-63.5 7.5t-63.5 -7.5t-40.5 -26t-21.5 -51
t-6.5 -82.5v-54q0 -51 6.5 -83.5t21.5 -51t40.5 -26t63.5 -7.5t63.5 7.5t41 26t22 51t6.5 83.5v54zM137 650h82v-82h-82v82zM291 650h82v-82h-82v82z" />
    <glyph glyph-name="divide" unicode="&#xf7;" horiz-adv-x="517" 
d="M215 159h87v-83h-87v83zM215 473h87v-83h-87v83zM55 244v62h407v-62h-407z" />
    <glyph glyph-name="oslash" unicode="&#xf8;" horiz-adv-x="511" 
d="M466 223q0 -68 -12.5 -113t-38 -72t-65.5 -38t-95 -11q-43 0 -75.5 6.5t-57.5 21.5l-26 -37h-66l52 74q-20 27 -28.5 68.5t-8.5 100.5v54q0 67 12.5 112t38 72t65.5 38t94 11q41 0 73 -6t57 -20l25 36h66l-51 -72q41 -53 41 -171v-54zM388 277q0 65 -12 101l-213 -302
q16 -12 38 -16.5t54 -4.5q38 0 63.5 7.5t41 26t22 51t6.5 83.5v54zM123 223q0 -31 2 -55t7 -42l211 299q-15 11 -37 15t-51 4q-38 0 -63.5 -7.5t-40.5 -26t-21.5 -51t-6.5 -82.5v-54z" />
    <glyph glyph-name="ugrave" unicode="&#xf9;" 
d="M411 0l-18 49q-40 -30 -77.5 -44.5t-87.5 -14.5q-43 0 -74 9t-50.5 29.5t-29 54t-9.5 83.5v334h78v-334q0 -33 6.5 -54.5t19 -34t32.5 -17.5t47 -5q36 0 71.5 13.5t65.5 37.5v394h78v-500h-52zM311 550h-44l-79 120h90z" />
    <glyph glyph-name="uacute" unicode="&#xfa;" 
d="M411 0l-18 49q-40 -30 -77.5 -44.5t-87.5 -14.5q-43 0 -74 9t-50.5 29.5t-29 54t-9.5 83.5v334h78v-334q0 -33 6.5 -54.5t19 -34t32.5 -17.5t47 -5q36 0 71.5 13.5t65.5 37.5v394h78v-500h-52zM276 670h90l-79 -120h-44z" />
    <glyph glyph-name="ucircumflex" unicode="&#xfb;" 
d="M411 0l-18 49q-40 -30 -77.5 -44.5t-87.5 -14.5q-43 0 -74 9t-50.5 29.5t-29 54t-9.5 83.5v334h78v-334q0 -33 6.5 -54.5t19 -34t32.5 -17.5t47 -5q36 0 71.5 13.5t65.5 37.5v394h78v-500h-52zM372 550h-53l-55 69l-55 -69h-53l65 120h86z" />
    <glyph glyph-name="udieresis" unicode="&#xfc;" 
d="M411 0l-18 49q-40 -30 -77.5 -44.5t-87.5 -14.5q-43 0 -74 9t-50.5 29.5t-29 54t-9.5 83.5v334h78v-334q0 -33 6.5 -54.5t19 -34t32.5 -17.5t47 -5q36 0 71.5 13.5t65.5 37.5v394h78v-500h-52zM146 650h82v-82h-82v82zM300 650h82v-82h-82v82z" />
    <glyph glyph-name="yacute" unicode="&#xfd;" horiz-adv-x="495" 
d="M25 500h85l137 -404h2l137 404h84l-206 -568q-12 -32 -26 -53.5t-32.5 -34.5t-43.5 -18.5t-58 -5.5q-31 0 -56 9v66q25 -9 56 -9q35 0 54 14.5t35 56.5l16 43zM268 670h90l-79 -120h-44z" />
    <glyph glyph-name="thorn" unicode="&#xfe;" horiz-adv-x="533" 
d="M405 283q0 48 -7 79.5t-22 49.5t-38 25.5t-54 7.5q-35 0 -73.5 -16t-67.5 -44v-273q29 -26 67.5 -41.5t73.5 -15.5q31 0 54 7.5t38 25.5t22 49.5t7 79.5v66zM143 456q34 24 73 39.5t78 15.5q44 0 79 -9.5t59.5 -34.5t37.5 -69t13 -113v-71q0 -69 -13 -112.5t-37.5 -68.5
t-59.5 -34.5t-79 -9.5q-39 0 -78 15.5t-73 39.5v-214h-78v840h78v-214z" />
    <glyph glyph-name="ydieresis" unicode="&#xff;" horiz-adv-x="495" 
d="M25 500h85l137 -404h2l137 404h84l-206 -568q-12 -32 -26 -53.5t-32.5 -34.5t-43.5 -18.5t-58 -5.5q-31 0 -56 9v66q25 -9 56 -9q35 0 54 14.5t35 56.5l16 43zM131 650h82v-82h-82v82zM285 650h82v-82h-82v82z" />
    <glyph glyph-name="Amacron" unicode="&#x100;" horiz-adv-x="523" 
d="M375 158h-227l-44 -158h-84l191 650h101l191 -650h-83zM166 226h191l-94 345h-2zM146 780h230v-60h-230v60z" />
    <glyph glyph-name="amacron" unicode="&#x101;" horiz-adv-x="501" 
d="M40 132q0 65 39 101.5t120 41.5l169 11v60q0 26 -5 44.5t-18 30.5t-35.5 17.5t-56.5 5.5q-63 0 -89 -21t-26 -72h-78q0 45 13 75.5t37.5 49t60.5 26.5t82 8q53 0 89.5 -9t59.5 -28.5t33.5 -50.5t10.5 -76v-346h-52l-18 49q-37 -29 -74.5 -44.5t-86.5 -15.5
q-86 0 -130.5 36t-44.5 107zM221 55q48 0 81 14t66 43v123l-161 -17q-45 -5 -66.5 -24.5t-21.5 -57.5q0 -42 26 -61.5t76 -19.5zM138 630h230v-60h-230v60z" />
    <glyph glyph-name="Abreve" unicode="&#x102;" horiz-adv-x="523" 
d="M375 158h-227l-44 -158h-84l191 650h101l191 -650h-83zM166 226h191l-94 345h-2zM262 748q65 0 65 72h54q0 -61 -29.5 -93.5t-89.5 -32.5t-90 32.5t-30 93.5h55q0 -72 65 -72z" />
    <glyph glyph-name="abreve" unicode="&#x103;" horiz-adv-x="501" 
d="M40 132q0 65 39 101.5t120 41.5l169 11v60q0 26 -5 44.5t-18 30.5t-35.5 17.5t-56.5 5.5q-63 0 -89 -21t-26 -72h-78q0 45 13 75.5t37.5 49t60.5 26.5t82 8q53 0 89.5 -9t59.5 -28.5t33.5 -50.5t10.5 -76v-346h-52l-18 49q-37 -29 -74.5 -44.5t-86.5 -15.5
q-86 0 -130.5 36t-44.5 107zM221 55q48 0 81 14t66 43v123l-161 -17q-45 -5 -66.5 -24.5t-21.5 -57.5q0 -42 26 -61.5t76 -19.5zM251 598q65 0 65 72h54q0 -61 -29.5 -93.5t-89.5 -32.5t-90 32.5t-30 93.5h55q0 -72 65 -72z" />
    <glyph glyph-name="Aogonek" unicode="&#x104;" horiz-adv-x="523" 
d="M379 -99q0 46 45 85l-49 172h-227l-44 -158h-84l191 650h101l191 -650q-31 -20 -46 -41.5t-15 -41.5q0 -19 10.5 -26t28.5 -7h20v-54h-47q-75 0 -75 71zM166 226h191l-94 345h-2z" />
    <glyph glyph-name="aogonek" unicode="&#x105;" horiz-adv-x="501" 
d="M376 49q-37 -29 -74.5 -44.5t-86.5 -15.5q-86 0 -130.5 36t-44.5 107q0 65 39 101.5t120 41.5l169 11v60q0 26 -5 44.5t-18 30.5t-35.5 17.5t-56.5 5.5q-63 0 -89 -21t-26 -72h-78q0 45 13 75.5t37.5 49t60.5 26.5t82 8q53 0 89.5 -9t59.5 -28.5t33.5 -50.5t10.5 -76
v-346q-31 -20 -46 -41.5t-15 -41.5q0 -19 10.5 -26t28.5 -7h20v-54h-47q-75 0 -75 71q0 57 71 102zM221 55q48 0 81 14t66 43v123l-161 -17q-88 -9 -88 -82q0 -42 26 -61.5t76 -19.5z" />
    <glyph glyph-name="Cacute" unicode="&#x106;" horiz-adv-x="545" 
d="M282 60q70 0 101.5 26.5t31.5 97.5h80q0 -105 -52 -149.5t-161 -44.5q-58 0 -100 12t-69 39t-40 72t-13 111v202q0 64 12.5 108.5t39.5 72.5t69 40.5t101 12.5q109 0 161 -45t52 -150h-80q0 70 -31 97.5t-102 27.5q-39 0 -66 -7.5t-44 -25.5t-24.5 -48.5t-7.5 -76.5v-214
q0 -46 7.5 -76.5t24 -48.5t44 -25.5t66.5 -7.5zM295 820h90l-79 -120h-44z" />
    <glyph glyph-name="cacute" unicode="&#x107;" horiz-adv-x="506" 
d="M261 444q-37 0 -62.5 -7t-41 -26t-22.5 -51t-7 -83v-54q0 -51 7 -83.5t22.5 -51.5t41 -26t62.5 -7q34 0 56 5.5t35.5 17.5t19.5 31t6 47h78q0 -92 -48 -129.5t-147 -37.5q-54 0 -93.5 10.5t-66 37.5t-39 72t-12.5 114v54q0 69 13 114t39 71.5t66 37t93 10.5
q99 0 147 -37.5t48 -128.5h-78q0 27 -6 46t-19.5 31t-35.5 17.5t-56 5.5zM277 670h90l-79 -120h-44z" />
    <glyph glyph-name="Ccircumflex" unicode="&#x108;" horiz-adv-x="545" 
d="M282 60q70 0 101.5 26.5t31.5 97.5h80q0 -105 -52 -149.5t-161 -44.5q-58 0 -100 12t-69 39t-40 72t-13 111v202q0 64 12.5 108.5t39.5 72.5t69 40.5t101 12.5q109 0 161 -45t52 -150h-80q0 70 -31 97.5t-102 27.5q-39 0 -66 -7.5t-44 -25.5t-24.5 -48.5t-7.5 -76.5v-214
q0 -46 7.5 -76.5t24 -48.5t44 -25.5t66.5 -7.5zM390 700h-53l-55 69l-55 -69h-53l65 120h86z" />
    <glyph glyph-name="ccircumflex" unicode="&#x109;" horiz-adv-x="506" 
d="M261 444q-37 0 -62.5 -7t-41 -26t-22.5 -51t-7 -83v-54q0 -51 7 -83.5t22.5 -51.5t41 -26t62.5 -7q34 0 56 5.5t35.5 17.5t19.5 31t6 47h78q0 -92 -48 -129.5t-147 -37.5q-54 0 -93.5 10.5t-66 37.5t-39 72t-12.5 114v54q0 69 13 114t39 71.5t66 37t93 10.5
q99 0 147 -37.5t48 -128.5h-78q0 27 -6 46t-19.5 31t-35.5 17.5t-56 5.5zM368 550h-53l-55 69l-55 -69h-53l65 120h86z" />
    <glyph glyph-name="Cdotaccent" unicode="&#x10a;" horiz-adv-x="545" 
d="M282 60q70 0 101.5 26.5t31.5 97.5h80q0 -105 -52 -149.5t-161 -44.5q-58 0 -100 12t-69 39t-40 72t-13 111v202q0 64 12.5 108.5t39.5 72.5t69 40.5t101 12.5q109 0 161 -45t52 -150h-80q0 70 -31 97.5t-102 27.5q-39 0 -66 -7.5t-44 -25.5t-24.5 -48.5t-7.5 -76.5v-214
q0 -46 7.5 -76.5t24 -48.5t44 -25.5t66.5 -7.5zM244 800h82v-82h-82v82z" />
    <glyph glyph-name="cdotaccent" unicode="&#x10b;" horiz-adv-x="506" 
d="M261 444q-37 0 -62.5 -7t-41 -26t-22.5 -51t-7 -83v-54q0 -51 7 -83.5t22.5 -51.5t41 -26t62.5 -7q34 0 56 5.5t35.5 17.5t19.5 31t6 47h78q0 -92 -48 -129.5t-147 -37.5q-54 0 -93.5 10.5t-66 37.5t-39 72t-12.5 114v54q0 69 13 114t39 71.5t66 37t93 10.5
q99 0 147 -37.5t48 -128.5h-78q0 27 -6 46t-19.5 31t-35.5 17.5t-56 5.5zM222 650h82v-82h-82v82z" />
    <glyph glyph-name="Ccaron" unicode="&#x10c;" horiz-adv-x="545" 
d="M282 60q70 0 101.5 26.5t31.5 97.5h80q0 -105 -52 -149.5t-161 -44.5q-58 0 -100 12t-69 39t-40 72t-13 111v202q0 64 12.5 108.5t39.5 72.5t69 40.5t101 12.5q109 0 161 -45t52 -150h-80q0 70 -31 97.5t-102 27.5q-39 0 -66 -7.5t-44 -25.5t-24.5 -48.5t-7.5 -76.5v-214
q0 -46 7.5 -76.5t24 -48.5t44 -25.5t66.5 -7.5zM325 700h-86l-65 120h53l55 -69l55 69h53z" />
    <glyph glyph-name="ccaron" unicode="&#x10d;" horiz-adv-x="506" 
d="M261 444q-37 0 -62.5 -7t-41 -26t-22.5 -51t-7 -83v-54q0 -51 7 -83.5t22.5 -51.5t41 -26t62.5 -7q34 0 56 5.5t35.5 17.5t19.5 31t6 47h78q0 -92 -48 -129.5t-147 -37.5q-54 0 -93.5 10.5t-66 37.5t-39 72t-12.5 114v54q0 69 13 114t39 71.5t66 37t93 10.5
q99 0 147 -37.5t48 -128.5h-78q0 27 -6 46t-19.5 31t-35.5 17.5t-56 5.5zM306 550h-86l-65 120h53l55 -69l55 69h53z" />
    <glyph glyph-name="Dcaron" unicode="&#x10e;" horiz-adv-x="567" 
d="M150 580v-510h115q41 0 71.5 7t50.5 25t30 48.5t10 77.5v196q0 51 -11 81.5t-31.5 47t-50.5 22t-69 5.5h-115zM70 0v650h196q58 0 103 -10t75.5 -35.5t46.5 -71t16 -115.5v-186q0 -71 -16 -116t-46.5 -70.5t-75.5 -35.5t-103 -10h-196zM306 700h-86l-65 120h53l55 -69
l55 69h53z" />
    <glyph glyph-name="dcaron" unicode="&#x10f;" horiz-adv-x="574" 
d="M249 55q33 0 72.5 15.5t68.5 44.5v272q-29 26 -67.5 41.5t-73.5 15.5q-32 0 -54.5 -7t-37.5 -25.5t-22 -49.5t-7 -79v-66q0 -48 7 -79t22 -49.5t37.5 -26t54.5 -7.5zM239 -11q-44 0 -79 9.5t-59.5 34.5t-37.5 68.5t-13 112.5v71q0 69 13 113t37.5 68.5t59.5 34t79 9.5
q39 0 78 -15.5t73 -39.5v215h78v-670h-52l-18 49q-35 -27 -76 -43.5t-83 -16.5zM512 670h62l-29 -150h-33v150z" />
    <glyph glyph-name="Dcroat" unicode="&#x110;" horiz-adv-x="567" 
d="M12 360h58v290h196q58 0 103 -10t75.5 -35.5t46.5 -71t16 -115.5v-186q0 -71 -16 -116t-46.5 -70.5t-75.5 -35.5t-103 -10h-196v301h-58v59zM150 580v-220h120v-59h-120v-231h115q41 0 71.5 7t50.5 25t30 48.5t10 77.5v196q0 51 -11 81.5t-31.5 47t-50.5 22t-69 5.5h-115
z" />
    <glyph glyph-name="dcroat" unicode="&#x111;" horiz-adv-x="533" 
d="M221 621h169v49h78v-670h-52l-18 49q-35 -27 -76 -43.5t-83 -16.5q-44 0 -79 9.5t-59.5 34.5t-37.5 68.5t-13 112.5v71q0 69 13 113t37.5 68.5t59.5 34t79 9.5q39 0 78 -15.5t73 -39.5v110h-169v56zM249 55q33 0 72.5 15.5t68.5 44.5v272q-29 26 -67.5 41.5t-73.5 15.5
q-32 0 -54.5 -7t-37.5 -25.5t-22 -49.5t-7 -79v-66q0 -48 7 -79t22 -49.5t37.5 -26t54.5 -7.5z" />
    <glyph glyph-name="Emacron" unicode="&#x112;" horiz-adv-x="495" 
d="M70 650h370v-70h-290v-216h254v-68h-254v-226h290v-70h-370v650zM147 780h230v-60h-230v60z" />
    <glyph glyph-name="emacron" unicode="&#x113;" horiz-adv-x="506" 
d="M383 279q0 46 -5 77.5t-18.5 51t-37.5 28t-63 8.5q-38 0 -63.5 -8t-40.5 -27.5t-21 -51t-6 -78.5h255zM265 55q54 0 94.5 5.5t78.5 13.5v-66q-35 -8 -78 -13t-96 -5q-54 0 -94 10t-66.5 36t-40 71t-13.5 116v54q0 69 13 114t39.5 71.5t65.5 37t91 10.5q51 0 88.5 -10.5
t63 -36.5t38 -71t12.5 -114v-58h-333q0 -49 6.5 -81t22.5 -50.5t42.5 -26t65.5 -7.5zM148 630h230v-60h-230v60z" />
    <glyph glyph-name="Ebreve" unicode="&#x114;" horiz-adv-x="495" 
d="M70 650h370v-70h-290v-216h254v-68h-254v-226h290v-70h-370v650zM263 748q65 0 65 72h54q0 -61 -29.5 -93.5t-89.5 -32.5t-90 32.5t-30 93.5h55q0 -72 65 -72z" />
    <glyph glyph-name="ebreve" unicode="&#x115;" horiz-adv-x="506" 
d="M383 279q0 46 -5 77.5t-18.5 51t-37.5 28t-63 8.5q-38 0 -63.5 -8t-40.5 -27.5t-21 -51t-6 -78.5h255zM265 55q54 0 94.5 5.5t78.5 13.5v-66q-35 -8 -78 -13t-96 -5q-54 0 -94 10t-66.5 36t-40 71t-13.5 116v54q0 69 13 114t39.5 71.5t65.5 37t91 10.5q51 0 88.5 -10.5
t63 -36.5t38 -71t12.5 -114v-58h-333q0 -49 6.5 -81t22.5 -50.5t42.5 -26t65.5 -7.5zM263 598q65 0 65 72h54q0 -61 -29.5 -93.5t-89.5 -32.5t-90 32.5t-30 93.5h55q0 -72 65 -72z" />
    <glyph glyph-name="Edotaccent" unicode="&#x116;" horiz-adv-x="495" 
d="M70 650h370v-70h-290v-216h254v-68h-254v-226h290v-70h-370v650zM227 800h82v-82h-82v82z" />
    <glyph glyph-name="edotaccent" unicode="&#x117;" horiz-adv-x="506" 
d="M383 279q0 46 -5 77.5t-18.5 51t-37.5 28t-63 8.5q-38 0 -63.5 -8t-40.5 -27.5t-21 -51t-6 -78.5h255zM265 55q54 0 94.5 5.5t78.5 13.5v-66q-35 -8 -78 -13t-96 -5q-54 0 -94 10t-66.5 36t-40 71t-13.5 116v54q0 69 13 114t39.5 71.5t65.5 37t91 10.5q51 0 88.5 -10.5
t63 -36.5t38 -71t12.5 -114v-58h-333q0 -49 6.5 -81t22.5 -50.5t42.5 -26t65.5 -7.5zM215 650h82v-82h-82v82z" />
    <glyph glyph-name="Eogonek" unicode="&#x118;" horiz-adv-x="495" 
d="M70 650h370v-70h-290v-216h254v-68h-254v-226h290v-70q-31 -20 -46 -41.5t-15 -41.5q0 -19 10.5 -26t28.5 -7h20v-54h-47q-75 0 -75 71q0 28 17 53.5t48 45.5h-311v650z" />
    <glyph glyph-name="eogonek" unicode="&#x119;" horiz-adv-x="506" 
d="M265 55q54 0 94.5 5.5t78.5 13.5v-66q-31 -20 -46 -41.5t-15 -41.5q0 -19 10.5 -26t28.5 -7h20v-54h-47q-75 0 -75 71q0 48 47 87q-44 -6 -97 -6q-54 0 -94 10t-66.5 36t-40 71t-13.5 116v54q0 69 13 114t39.5 71.5t65.5 37t91 10.5q51 0 88.5 -10.5t63 -36.5t38 -71
t12.5 -114v-58h-333q0 -49 6.5 -81t22.5 -50.5t42.5 -26t65.5 -7.5zM383 279q0 46 -5 77.5t-18.5 51t-37.5 28t-63 8.5q-38 0 -63.5 -8t-40.5 -27.5t-21 -51t-6 -78.5h255z" />
    <glyph glyph-name="Ecaron" unicode="&#x11a;" horiz-adv-x="495" 
d="M70 650h370v-70h-290v-216h254v-68h-254v-226h290v-70h-370v650zM306 700h-86l-65 120h53l55 -69l55 69h53z" />
    <glyph glyph-name="ecaron" unicode="&#x11b;" horiz-adv-x="506" 
d="M383 279q0 46 -5 77.5t-18.5 51t-37.5 28t-63 8.5q-38 0 -63.5 -8t-40.5 -27.5t-21 -51t-6 -78.5h255zM265 55q54 0 94.5 5.5t78.5 13.5v-66q-35 -8 -78 -13t-96 -5q-54 0 -94 10t-66.5 36t-40 71t-13.5 116v54q0 69 13 114t39.5 71.5t65.5 37t91 10.5q51 0 88.5 -10.5
t63 -36.5t38 -71t12.5 -114v-58h-333q0 -49 6.5 -81t22.5 -50.5t42.5 -26t65.5 -7.5zM296 550h-86l-65 120h53l55 -69l55 69h53z" />
    <glyph glyph-name="Gcircumflex" unicode="&#x11c;" horiz-adv-x="570" 
d="M282 660q109 0 161 -44.5t52 -149.5h-80q0 70 -31 97t-102 27q-39 0 -66 -7.5t-44 -25.5t-24.5 -48.5t-7.5 -76.5v-214q0 -47 7.5 -77.5t25 -48.5t45 -25t67.5 -7q75 0 107.5 29.5t32.5 91.5v115h-133v68h213v-364h-42l-17 55q-27 -32 -64 -48.5t-100 -16.5
q-58 0 -100 12t-69 39.5t-40 72t-13 109.5v204q0 63 12.5 107.5t39.5 72.5t69 40.5t101 12.5zM393 700h-53l-55 69l-55 -69h-53l65 120h86z" />
    <glyph glyph-name="gcircumflex" unicode="&#x11d;" horiz-adv-x="533" 
d="M390 55q-34 -24 -73 -39.5t-78 -15.5q-44 0 -79 9.5t-59.5 34t-37.5 68.5t-13 113v60q0 69 13 113t37.5 68.5t59.5 34t79 9.5q42 0 83 -16.5t76 -42.5l18 49h52v-501q0 -95 -44.5 -137t-150.5 -42q-38 0 -79.5 4.5t-76.5 14.5v70q38 -12 77 -17.5t78 -5.5q31 0 53 5
t36.5 18t21.5 35t7 55v56zM249 444q-32 0 -54.5 -7.5t-37.5 -26t-22 -49.5t-7 -78v-56q0 -48 7 -79t22 -49.5t37.5 -25.5t54.5 -7q35 0 73.5 15.5t67.5 41.5v262q-29 29 -68.5 44t-72.5 15zM374 550h-53l-55 69l-55 -69h-53l65 120h86z" />
    <glyph glyph-name="Gbreve" unicode="&#x11e;" horiz-adv-x="570" 
d="M282 660q109 0 161 -44.5t52 -149.5h-80q0 70 -31 97t-102 27q-39 0 -66 -7.5t-44 -25.5t-24.5 -48.5t-7.5 -76.5v-214q0 -47 7.5 -77.5t25 -48.5t45 -25t67.5 -7q75 0 107.5 29.5t32.5 91.5v115h-133v68h213v-364h-42l-17 55q-27 -32 -64 -48.5t-100 -16.5
q-58 0 -100 12t-69 39.5t-40 72t-13 109.5v204q0 63 12.5 107.5t39.5 72.5t69 40.5t101 12.5zM285 748q65 0 65 72h54q0 -61 -29.5 -93.5t-89.5 -32.5t-90 32.5t-30 93.5h55q0 -72 65 -72z" />
    <glyph glyph-name="gbreve" unicode="&#x11f;" horiz-adv-x="533" 
d="M390 55q-34 -24 -73 -39.5t-78 -15.5q-44 0 -79 9.5t-59.5 34t-37.5 68.5t-13 113v60q0 69 13 113t37.5 68.5t59.5 34t79 9.5q42 0 83 -16.5t76 -42.5l18 49h52v-501q0 -95 -44.5 -137t-150.5 -42q-38 0 -79.5 4.5t-76.5 14.5v70q38 -12 77 -17.5t78 -5.5q31 0 53 5
t36.5 18t21.5 35t7 55v56zM249 444q-32 0 -54.5 -7.5t-37.5 -26t-22 -49.5t-7 -78v-56q0 -48 7 -79t22 -49.5t37.5 -25.5t54.5 -7q35 0 73.5 15.5t67.5 41.5v262q-29 29 -68.5 44t-72.5 15zM267 598q65 0 65 72h54q0 -61 -29.5 -93.5t-89.5 -32.5t-90 32.5t-30 93.5h55
q0 -72 65 -72z" />
    <glyph glyph-name="Gdotaccent" unicode="&#x120;" horiz-adv-x="570" 
d="M282 660q109 0 161 -44.5t52 -149.5h-80q0 70 -31 97t-102 27q-39 0 -66 -7.5t-44 -25.5t-24.5 -48.5t-7.5 -76.5v-214q0 -47 7.5 -77.5t25 -48.5t45 -25t67.5 -7q75 0 107.5 29.5t32.5 91.5v115h-133v68h213v-364h-42l-17 55q-27 -32 -64 -48.5t-100 -16.5
q-58 0 -100 12t-69 39.5t-40 72t-13 109.5v204q0 63 12.5 107.5t39.5 72.5t69 40.5t101 12.5zM247 800h82v-82h-82v82z" />
    <glyph glyph-name="gdotaccent" unicode="&#x121;" horiz-adv-x="533" 
d="M390 55q-34 -24 -73 -39.5t-78 -15.5q-44 0 -79 9.5t-59.5 34t-37.5 68.5t-13 113v60q0 69 13 113t37.5 68.5t59.5 34t79 9.5q42 0 83 -16.5t76 -42.5l18 49h52v-501q0 -95 -44.5 -137t-150.5 -42q-38 0 -79.5 4.5t-76.5 14.5v70q38 -12 77 -17.5t78 -5.5q31 0 53 5
t36.5 18t21.5 35t7 55v56zM249 444q-32 0 -54.5 -7.5t-37.5 -26t-22 -49.5t-7 -78v-56q0 -48 7 -79t22 -49.5t37.5 -25.5t54.5 -7q35 0 73.5 15.5t67.5 41.5v262q-29 29 -68.5 44t-72.5 15zM228 650h82v-82h-82v82z" />
    <glyph glyph-name="Gcommaaccent" unicode="&#x122;" horiz-adv-x="570" 
d="M282 660q109 0 161 -44.5t52 -149.5h-80q0 70 -31 97t-102 27q-39 0 -66 -7.5t-44 -25.5t-24.5 -48.5t-7.5 -76.5v-214q0 -47 7.5 -77.5t25 -48.5t45 -25t67.5 -7q75 0 107.5 29.5t32.5 91.5v115h-133v68h213v-364h-42l-17 55q-27 -32 -64 -48.5t-100 -16.5
q-58 0 -100 12t-69 39.5t-40 72t-13 109.5v204q0 63 12.5 107.5t39.5 72.5t69 40.5t101 12.5zM254 -40h90l-79 -120h-44z" />
    <glyph glyph-name="gcommaaccent" unicode="&#x123;" horiz-adv-x="533" 
d="M390 55q-34 -24 -73 -39.5t-78 -15.5q-44 0 -79 9.5t-59.5 34t-37.5 68.5t-13 113v60q0 69 13 113t37.5 68.5t59.5 34t79 9.5q42 0 83 -16.5t76 -42.5l18 49h52v-501q0 -95 -44.5 -137t-150.5 -42q-38 0 -79.5 4.5t-76.5 14.5v70q38 -12 77 -17.5t78 -5.5q31 0 53 5
t36.5 18t21.5 35t7 55v56zM249 444q-32 0 -54.5 -7.5t-37.5 -26t-22 -49.5t-7 -78v-56q0 -48 7 -79t22 -49.5t37.5 -25.5t54.5 -7q35 0 73.5 15.5t67.5 41.5v262q-29 29 -68.5 44t-72.5 15zM297.006 539.998h-89.9941l78.9951 119.992h43.9971z" />
    <glyph glyph-name="Hcircumflex" unicode="&#x124;" horiz-adv-x="565" 
d="M495 0h-80v296h-265v-296h-80v650h80v-286h265v286h80v-650zM390 700h-53l-55 69l-55 -69h-53l65 120h86z" />
    <glyph glyph-name="hcircumflex" unicode="&#x125;" horiz-adv-x="537" 
d="M143 454q40 28 77.5 42t80.5 14q44 0 74.5 -9.5t50 -30.5t28.5 -55t9 -82v-333h-78v333q0 33 -6.5 54.5t-19 34t-32.5 17.5t-47 5q-36 0 -71.5 -13t-65.5 -37v-394h-78v670h78v-216zM397 550h-53l-55 69l-55 -69h-53l65 120h86z" />
    <glyph glyph-name="Hbar" unicode="&#x126;" horiz-adv-x="565" 
d="M30 540h40v110h80v-110h265v110h80v-110h40v-59h-40v-481h-80v296h-265v-296h-80v481h-40v59zM415 364v117h-265v-117h265z" />
    <glyph glyph-name="hbar" unicode="&#x127;" horiz-adv-x="537" 
d="M143 620h280v-49h-280v-117q40 28 77.5 42t80.5 14q44 0 74.5 -9.5t50 -30.5t28.5 -55t9 -82v-333h-78v333q0 33 -6.5 54.5t-19 34t-32.5 17.5t-47 5q-36 0 -71.5 -13t-65.5 -37v-394h-78v670h78v-50z" />
    <glyph glyph-name="Itilde" unicode="&#x128;" horiz-adv-x="220" 
d="M162 684q-20 0 -33.5 8t-24.5 18t-20 18t-20 8q-16 0 -20.5 -12t-4.5 -30h-52q0 50 16 76t56 26q19 0 32.5 -8t24 -18t20 -18t21.5 -8q15 0 20 12t5 30h51q0 -50 -16 -76t-55 -26zM70 650h80v-650h-80v650z" />
    <glyph glyph-name="itilde" unicode="&#x129;" horiz-adv-x="213" 
d="M158 539q-20 0 -33.5 8t-24.5 18t-20 18t-20 8q-16 0 -20.5 -12t-4.5 -30h-52q0 50 16 76t56 26q19 0 32.5 -8t24 -18t20 -18t21.5 -8q15 0 20 12t5 30h51q0 -50 -16 -76t-55 -26zM67 500h78v-500h-78v500z" />
    <glyph glyph-name="Imacron" unicode="&#x12a;" horiz-adv-x="220" 
d="M70 650h80v-650h-80v650zM-4 780h230v-60h-230v60z" />
    <glyph glyph-name="imacron" unicode="&#x12b;" horiz-adv-x="213" 
d="M12 620h190v-59h-190v59zM67 500h78v-500h-78v500z" />
    <glyph glyph-name="Ibreve" unicode="&#x12c;" horiz-adv-x="220" 
d="M70 650h80v-650h-80v650zM112 748q65 0 65 72h54q0 -61 -29.5 -93.5t-89.5 -32.5t-90 32.5t-30 93.5h55q0 -72 65 -72z" />
    <glyph glyph-name="ibreve" unicode="&#x12d;" horiz-adv-x="213" 
d="M67 500h78v-500h-78v500zM108 598q65 0 65 72h54q0 -61 -29.5 -93.5t-89.5 -32.5t-90 32.5t-30 93.5h55q0 -72 65 -72z" />
    <glyph glyph-name="Iogonek" unicode="&#x12e;" horiz-adv-x="220" 
d="M70 650h80v-650q-31 -20 -46 -41.5t-15 -41.5q0 -19 10.5 -26t28.5 -7h20v-54h-47q-75 0 -75 71q0 28 17 53.5t48 45.5h-21v650z" />
    <glyph glyph-name="iogonek" unicode="&#x12f;" horiz-adv-x="208" 
d="M19 -99q0 48 46 85v514h78v-500q-31 -20 -46 -41.5t-15 -41.5q0 -19 10.5 -26t28.5 -7h20v-54h-47q-75 0 -75 71zM63 670h82v-82h-82v82z" />
    <glyph glyph-name="Idotaccent" unicode="&#x130;" horiz-adv-x="220" 
d="M70 650h80v-650h-80v650zM72 800h82v-82h-82v82z" />
    <glyph glyph-name="dotlessi" unicode="&#x131;" horiz-adv-x="213" 
d="M67 500h78v-500h-78v500z" />
    <glyph glyph-name="Jcircumflex" unicode="&#x134;" horiz-adv-x="363" 
d="M90 580v70h203v-512q0 -37 -7 -64.5t-24.5 -46t-47.5 -28t-76 -9.5q-55 0 -98 10v70q20 -5 44.5 -7.5t49.5 -2.5q42 0 60.5 16t18.5 62v442h-123zM300 700h-53l-55 69l-55 -69h-53l65 120h86z" />
    <glyph glyph-name="jcircumflex" unicode="&#x135;" horiz-adv-x="208" 
d="M145 -53q0 -64 -26 -95.5t-90 -31.5q-22 0 -41.5 2.5t-33.5 7.5v66q12 -3 27.5 -6t32.5 -3q30 0 41.5 15.5t11.5 44.5v553h78v-553zM212 550h-53l-55 69l-55 -69h-53l65 120h86z" />
    <glyph glyph-name="Kcommaaccent" unicode="&#x136;" horiz-adv-x="508" 
d="M218 334l260 -334h-96q-55 76 -92 125t-62.5 81t-43.5 52t-34 40v-298h-80v650h80v-288l226 288h97zM223 -40h90l-79 -120h-44z" />
    <glyph glyph-name="kcommaaccent" unicode="&#x137;" horiz-adv-x="460" 
d="M143 0h-78v670h78v-381h2l188 211h96l-217 -236q8 -11 26.5 -32t41.5 -46.5t48.5 -53.5t48.5 -53.5t41 -46.5t27 -32h-99l-201 236h-2v-236zM199 -40h90l-79 -120h-44z" />
    <glyph glyph-name="kgreenlandic" unicode="&#x138;" horiz-adv-x="460" 
d="M143 0h-78v500h78v-211h2l188 211h96l-217 -236q8 -11 26.5 -32t41.5 -46.5t48.5 -53.5t48.5 -53.5t41 -46.5t27 -32h-99l-201 236h-2v-236z" />
    <glyph glyph-name="Lacute" unicode="&#x139;" horiz-adv-x="422" 
d="M70 650h80v-580h232v-70h-312v650zM125 820h90l-79 -120h-44z" />
    <glyph glyph-name="lacute" unicode="&#x13a;" horiz-adv-x="208" 
d="M65 670h78v-670h-78v670zM120 840h90l-79 -120h-44z" />
    <glyph glyph-name="Lcommaaccent" unicode="&#x13b;" horiz-adv-x="422" 
d="M70 650h80v-580h232v-70h-312v650zM180 -40h90l-79 -120h-44z" />
    <glyph glyph-name="lcommaaccent" unicode="&#x13c;" horiz-adv-x="208" 
d="M65 670h78v-670h-78v670zM65 -40h90l-79 -120h-44z" />
    <glyph glyph-name="Lcaron" unicode="&#x13d;" horiz-adv-x="422" 
d="M70 650h80v-580h232v-70h-312v650zM197 670h62l-29 -150h-33v150z" />
    <glyph glyph-name="lcaron" unicode="&#x13e;" horiz-adv-x="249" 
d="M65 670h78v-670h-78v670zM187 670h62l-29 -150h-33v150z" />
    <glyph glyph-name="Ldot" unicode="&#x13f;" horiz-adv-x="422" 
d="M70 650h80v-580h232v-70h-312v650zM202 378h98v-97h-98v97z" />
    <glyph glyph-name="ldot" unicode="&#x140;" horiz-adv-x="301" 
d="M65 670h78v-670h-78v670zM183 378h98v-97h-98v97z" />
    <glyph glyph-name="Lslash" unicode="&#x141;" horiz-adv-x="422" 
d="M70 264l-60 -16v60l60 16v326h80v-304l60 17v-60l-60 -17v-216h232v-70h-312v264z" />
    <glyph glyph-name="lslash" unicode="&#x142;" horiz-adv-x="208" 
d="M65 262l-55 -14v60l55 14v348h78v-327l55 15v-60l-55 -15v-283h-78v262z" />
    <glyph glyph-name="Nacute" unicode="&#x143;" horiz-adv-x="574" 
d="M504 0h-102l-252 535v-535h-80v650h102l252 -535v535h80v-650zM304 820h90l-79 -120h-44z" />
    <glyph glyph-name="nacute" unicode="&#x144;" 
d="M117 500l18 -49q38 29 76.5 44t88.5 15q43 0 74 -9t50.5 -29.5t29 -54.5t9.5 -84v-333h-78v333q0 33 -6.5 54.5t-19 34t-32.5 17.5t-47 5q-36 0 -71.5 -13t-65.5 -37v-394h-78v500h52zM279 670h90l-79 -120h-44z" />
    <glyph glyph-name="Ncommaaccent" unicode="&#x145;" horiz-adv-x="574" 
d="M504 0h-102l-252 535v-535h-80v650h102l252 -535v535h80v-650zM256 -40h90l-79 -120h-44z" />
    <glyph glyph-name="ncommaaccent" unicode="&#x146;" 
d="M117 500l18 -49q38 29 76.5 44t88.5 15q43 0 74 -9t50.5 -29.5t29 -54.5t9.5 -84v-333h-78v333q0 33 -6.5 54.5t-19 34t-32.5 17.5t-47 5q-36 0 -71.5 -13t-65.5 -37v-394h-78v500h52zM233 -40h90l-79 -120h-44z" />
    <glyph glyph-name="Ncaron" unicode="&#x147;" horiz-adv-x="574" 
d="M504 0h-102l-252 535v-535h-80v650h102l252 -535v535h80v-650zM330 700h-86l-65 120h53l55 -69l55 69h53z" />
    <glyph glyph-name="ncaron" unicode="&#x148;" 
d="M117 500l18 -49q38 29 76.5 44t88.5 15q43 0 74 -9t50.5 -29.5t29 -54.5t9.5 -84v-333h-78v333q0 33 -6.5 54.5t-19 34t-32.5 17.5t-47 5q-36 0 -71.5 -13t-65.5 -37v-394h-78v500h52zM307 550h-86l-65 120h53l55 -69l55 69h53z" />
    <glyph glyph-name="Eng" unicode="&#x14a;" horiz-adv-x="574" 
d="M504 650v-675q0 -37 -7 -64.5t-24.5 -46t-47.5 -28t-76 -9.5q-55 0 -98 10v70q20 -5 44.5 -7.5t49.5 -2.5q42 0 60.5 16t18.5 62v25h-22l-252 535v-535h-80v650h102l252 -535v535h80z" />
    <glyph glyph-name="eng" unicode="&#x14b;" 
d="M117 500l18 -49q38 29 76.5 44t88.5 15q43 0 74 -9t50.5 -29.5t29 -54.5t9.5 -84v-386q0 -64 -26 -95.5t-90 -31.5q-22 0 -41.5 2.5t-33.5 7.5v66q12 -3 27.5 -6t32.5 -3q30 0 41.5 15.5t11.5 44.5v386q0 33 -6.5 54.5t-19 34t-32.5 17.5t-47 5q-36 0 -71.5 -13
t-65.5 -37v-394h-78v500h52z" />
    <glyph glyph-name="Omacron" unicode="&#x14c;" horiz-adv-x="559" 
d="M424 430q0 48 -8.5 79t-26 49t-45 25t-64.5 7q-38 0 -65.5 -7t-45 -25t-26 -49.5t-8.5 -79.5v-209q0 -48 8.5 -79t26 -49t45 -25t65.5 -7q37 0 64.5 7t45 25t26 49t8.5 79v210zM55 430q0 65 13.5 109t41 71t70 38.5t100.5 11.5t100 -12t69.5 -39t41 -71t13.5 -108v-210
q0 -65 -13.5 -109t-41 -71t-69.5 -38.5t-100 -11.5t-100.5 11.5t-70 38.5t-41 71t-13.5 109v210zM164 780h230v-60h-230v60z" />
    <glyph glyph-name="omacron" unicode="&#x14d;" horiz-adv-x="511" 
d="M466 223q0 -68 -12.5 -113t-38 -72t-65.5 -38t-95 -11t-95 11t-65.5 38t-37.5 72t-12 113v54q0 67 12.5 112t38 72t65.5 38t94 11q55 0 94.5 -11t65.5 -38t38.5 -72t12.5 -112v-54zM388 277q0 50 -6.5 82.5t-22 51t-41 26t-63.5 7.5t-63.5 -7.5t-40.5 -26t-21.5 -51
t-6.5 -82.5v-54q0 -51 6.5 -83.5t21.5 -51t40.5 -26t63.5 -7.5t63.5 7.5t41 26t22 51t6.5 83.5v54zM140 630h230v-60h-230v60z" />
    <glyph glyph-name="Obreve" unicode="&#x14e;" horiz-adv-x="559" 
d="M424 430q0 48 -8.5 79t-26 49t-45 25t-64.5 7q-38 0 -65.5 -7t-45 -25t-26 -49.5t-8.5 -79.5v-209q0 -48 8.5 -79t26 -49t45 -25t65.5 -7q37 0 64.5 7t45 25t26 49t8.5 79v210zM55 430q0 65 13.5 109t41 71t70 38.5t100.5 11.5t100 -12t69.5 -39t41 -71t13.5 -108v-210
q0 -65 -13.5 -109t-41 -71t-69.5 -38.5t-100 -11.5t-100.5 11.5t-70 38.5t-41 71t-13.5 109v210zM280 748q65 0 65 72h54q0 -61 -29.5 -93.5t-89.5 -32.5t-90 32.5t-30 93.5h55q0 -72 65 -72z" />
    <glyph glyph-name="obreve" unicode="&#x14f;" horiz-adv-x="511" 
d="M466 223q0 -68 -12.5 -113t-38 -72t-65.5 -38t-95 -11t-95 11t-65.5 38t-37.5 72t-12 113v54q0 67 12.5 112t38 72t65.5 38t94 11q55 0 94.5 -11t65.5 -38t38.5 -72t12.5 -112v-54zM388 277q0 50 -6.5 82.5t-22 51t-41 26t-63.5 7.5t-63.5 -7.5t-40.5 -26t-21.5 -51
t-6.5 -82.5v-54q0 -51 6.5 -83.5t21.5 -51t40.5 -26t63.5 -7.5t63.5 7.5t41 26t22 51t6.5 83.5v54zM256 598q65 0 65 72h54q0 -61 -29.5 -93.5t-89.5 -32.5t-90 32.5t-30 93.5h55q0 -72 65 -72z" />
    <glyph glyph-name="Ohungarumlaut" unicode="&#x150;" horiz-adv-x="559" 
d="M424 430q0 48 -8.5 79t-26 49t-45 25t-64.5 7q-38 0 -65.5 -7t-45 -25t-26 -49.5t-8.5 -79.5v-209q0 -48 8.5 -79t26 -49t45 -25t65.5 -7q37 0 64.5 7t45 25t26 49t8.5 79v210zM55 430q0 65 13.5 109t41 71t70 38.5t100.5 11.5t100 -12t69.5 -39t41 -71t13.5 -108v-210
q0 -65 -13.5 -109t-41 -71t-69.5 -38.5t-100 -11.5t-100.5 11.5t-70 38.5t-41 71t-13.5 109v210zM219 810h83l-54 -120h-47zM357 810h84l-73 -120h-51z" />
    <glyph glyph-name="ohungarumlaut" unicode="&#x151;" horiz-adv-x="511" 
d="M466 223q0 -68 -12.5 -113t-38 -72t-65.5 -38t-95 -11t-95 11t-65.5 38t-37.5 72t-12 113v54q0 67 12.5 112t38 72t65.5 38t94 11q55 0 94.5 -11t65.5 -38t38.5 -72t12.5 -112v-54zM388 277q0 50 -6.5 82.5t-22 51t-41 26t-63.5 7.5t-63.5 -7.5t-40.5 -26t-21.5 -51
t-6.5 -82.5v-54q0 -51 6.5 -83.5t21.5 -51t40.5 -26t63.5 -7.5t63.5 7.5t41 26t22 51t6.5 83.5v54zM196 660h83l-54 -120h-47zM334 660h84l-73 -120h-51z" />
    <glyph glyph-name="OE" unicode="&#x152;" horiz-adv-x="835" 
d="M412 580h-129q-38 0 -65.5 -7t-46 -24.5t-27.5 -47.5t-9 -76v-200q0 -47 9.5 -77t28 -47t46.5 -24t64 -7h129v510zM782 650v-70h-290v-216h254v-68h-254v-226h290v-70h-499q-57 0 -99.5 11.5t-71 37.5t-43 69.5t-14.5 106.5v199q0 64 14.5 107.5t43 69.5t71 37.5
t99.5 11.5h499z" />
    <glyph glyph-name="oe" unicode="&#x153;" horiz-adv-x="844" 
d="M603 55q54 0 94.5 5.5t78.5 13.5v-66q-35 -8 -78 -13t-96 -5q-66 0 -109 15t-66 57q-23 -41 -64.5 -57t-107.5 -16q-55 0 -95 11t-65.5 38t-37.5 72t-12 113v54q0 67 12.5 112t38 72t65.5 38t94 11q66 0 107.5 -16t64.5 -57q23 41 65 57t105 16q51 0 88.5 -10.5t63 -37.5
t38 -72t12.5 -114v-56h-333q0 -50 6.5 -82t22.5 -50.5t42.5 -25.5t65.5 -7zM388 277q0 50 -6.5 82.5t-22 51t-41 26t-63.5 7.5t-63.5 -7.5t-40.5 -26t-21.5 -51t-6.5 -82.5v-54q0 -51 6.5 -83.5t21.5 -51t40.5 -26t63.5 -7.5t63.5 7.5t41 26t22 51t6.5 83.5v54zM721 279
q0 46 -5 77.5t-18.5 51t-37.5 28t-63 8.5q-38 0 -63.5 -8t-40.5 -26.5t-21 -50.5t-6 -80h255z" />
    <glyph glyph-name="Racute" unicode="&#x154;" horiz-adv-x="548" 
d="M70 650h205q57 0 98.5 -9t69.5 -32t41.5 -62.5t13.5 -100.5q0 -81 -28 -126t-88 -62l126 -258h-87l-118 246h-153v-246h-80v650zM277 314q38 0 64 6t42.5 21t24 40.5t7.5 64.5q0 42 -8 68t-25 41t-43 20t-63 5h-126v-266h127zM271 820h90l-79 -120h-44z" />
    <glyph glyph-name="racute" unicode="&#x155;" horiz-adv-x="317" 
d="M282 438q-47 0 -78.5 -12.5t-60.5 -39.5v-386h-78v500h52l18 -49q32 28 67 43.5t80 15.5v-72zM190 670h90l-79 -120h-44z" />
    <glyph glyph-name="Rcommaaccent" unicode="&#x156;" horiz-adv-x="548" 
d="M70 650h205q57 0 98.5 -9t69.5 -32t41.5 -62.5t13.5 -100.5q0 -81 -28 -126t-88 -62l126 -258h-87l-118 246h-153v-246h-80v650zM277 314q38 0 64 6t42.5 21t24 40.5t7.5 64.5q0 42 -8 68t-25 41t-43 20t-63 5h-126v-266h127zM243 -40h90l-79 -120h-44z" />
    <glyph glyph-name="rcommaaccent" unicode="&#x157;" horiz-adv-x="317" 
d="M282 438q-47 0 -78.5 -12.5t-60.5 -39.5v-386h-78v500h52l18 -49q32 28 67 43.5t80 15.5v-72zM65 -40h90l-79 -120h-44z" />
    <glyph glyph-name="Rcaron" unicode="&#x158;" horiz-adv-x="548" 
d="M70 650h205q57 0 98.5 -9t69.5 -32t41.5 -62.5t13.5 -100.5q0 -81 -28 -126t-88 -62l126 -258h-87l-118 246h-153v-246h-80v650zM277 314q38 0 64 6t42.5 21t24 40.5t7.5 64.5q0 42 -8 68t-25 41t-43 20t-63 5h-126v-266h127zM317 700h-86l-65 120h53l55 -69l55 69h53z
" />
    <glyph glyph-name="rcaron" unicode="&#x159;" horiz-adv-x="317" 
d="M282 438q-47 0 -78.5 -12.5t-60.5 -39.5v-386h-78v500h52l18 -49q32 28 67 43.5t80 15.5v-72zM219 550h-86l-65 120h53l55 -69l55 69h53z" />
    <glyph glyph-name="Sacute" unicode="&#x15a;" horiz-adv-x="537" 
d="M255 302q-55 7 -93 21t-62 35.5t-35 52.5t-11 72q0 85 51.5 131t159.5 46t160 -41.5t52 -142.5h-80q0 65 -30.5 89.5t-100.5 24.5q-67 0 -99.5 -25t-32.5 -82q0 -27 6 -47t22.5 -34.5t44.5 -23.5t72 -15q65 -8 106.5 -23t65 -37.5t32.5 -54t9 -73.5q0 -98 -53.5 -141.5
t-171.5 -43.5q-52 0 -93.5 9t-70 30.5t-43.5 57t-15 89.5h80q0 -69 35.5 -92.5t106.5 -23.5q40 0 68 6.5t44.5 20.5t24 35.5t7.5 52.5q0 28 -5.5 49t-22 36t-47 25t-81.5 17zM285 820h90l-79 -120h-44z" />
    <glyph glyph-name="sacute" unicode="&#x15b;" horiz-adv-x="493" 
d="M448 139q0 -30 -6.5 -57.5t-27.5 -47.5t-61.5 -32t-108.5 -12q-59 0 -97.5 10.5t-61 30.5t-31.5 49t-9 66h78q0 -24 5.5 -41t19.5 -28.5t37 -16.5t59 -5q41 0 66 6t38.5 16.5t17.5 26t4 35.5t-5.5 34.5t-20.5 24.5t-40.5 16t-65.5 9q-51 4 -86 14t-57 27t-31.5 41.5
t-9.5 58.5q0 77 51 111.5t140 34.5q101 0 146 -36t45 -121h-78q0 22 -5 39t-18 28.5t-35 17.5t-55 6q-56 0 -84.5 -18t-28.5 -62q0 -42 26.5 -60.5t92.5 -23.5q59 -5 97 -14.5t60.5 -26t31 -41t8.5 -59.5zM265 670h90l-79 -120h-44z" />
    <glyph glyph-name="Scircumflex" unicode="&#x15c;" horiz-adv-x="537" 
d="M255 302q-55 7 -93 21t-62 35.5t-35 52.5t-11 72q0 85 51.5 131t159.5 46t160 -41.5t52 -142.5h-80q0 65 -30.5 89.5t-100.5 24.5q-67 0 -99.5 -25t-32.5 -82q0 -27 6 -47t22.5 -34.5t44.5 -23.5t72 -15q65 -8 106.5 -23t65 -37.5t32.5 -54t9 -73.5q0 -98 -53.5 -141.5
t-171.5 -43.5q-52 0 -93.5 9t-70 30.5t-43.5 57t-15 89.5h80q0 -69 35.5 -92.5t106.5 -23.5q40 0 68 6.5t44.5 20.5t24 35.5t7.5 52.5q0 28 -5.5 49t-22 36t-47 25t-81.5 17zM381 700h-53l-55 69l-55 -69h-53l65 120h86z" />
    <glyph glyph-name="scircumflex" unicode="&#x15d;" horiz-adv-x="493" 
d="M448 139q0 -30 -6.5 -57.5t-27.5 -47.5t-61.5 -32t-108.5 -12q-59 0 -97.5 10.5t-61 30.5t-31.5 49t-9 66h78q0 -24 5.5 -41t19.5 -28.5t37 -16.5t59 -5q41 0 66 6t38.5 16.5t17.5 26t4 35.5t-5.5 34.5t-20.5 24.5t-40.5 16t-65.5 9q-51 4 -86 14t-57 27t-31.5 41.5
t-9.5 58.5q0 77 51 111.5t140 34.5q101 0 146 -36t45 -121h-78q0 22 -5 39t-18 28.5t-35 17.5t-55 6q-56 0 -84.5 -18t-28.5 -62q0 -42 26.5 -60.5t92.5 -23.5q59 -5 97 -14.5t60.5 -26t31 -41t8.5 -59.5zM354 550h-53l-55 69l-55 -69h-53l65 120h86z" />
    <glyph glyph-name="Scedilla" unicode="&#x15e;" horiz-adv-x="537" 
d="M255 302q-55 7 -93 21t-62 35.5t-35 52.5t-11 72q0 85 51.5 131t159.5 46t160 -41.5t52 -142.5h-80q0 65 -30.5 89.5t-100.5 24.5q-67 0 -99.5 -25t-32.5 -82q0 -27 6 -47t22.5 -34.5t44.5 -23.5t72 -15q65 -8 106.5 -23t65 -37.5t32.5 -54t9 -73.5q0 -95 -50 -138.5
t-159 -46.5l-10 -36q33 -2 51 -18t18 -51q0 -41 -24.5 -59t-76.5 -18h-66v48h64q25 0 33 7.5t8 21.5q0 15 -8 22t-33 7h-27l24 77q-45 2 -80.5 12.5t-60 32.5t-37.5 56t-13 84h80q0 -69 35.5 -92.5t106.5 -23.5q40 0 68 6.5t44.5 20.5t24 35.5t7.5 52.5q0 28 -5.5 49t-22 36
t-47 25t-81.5 17z" />
    <glyph glyph-name="scedilla" unicode="&#x15f;" horiz-adv-x="493" 
d="M448 139q0 -30 -6 -56t-25.5 -46.5t-56.5 -33t-99 -13.5l-10 -36q33 -2 51 -18t18 -51q0 -41 -24.5 -59t-76.5 -18h-66v48h64q25 0 33 7.5t8 21.5q0 15 -8 22t-33 7h-27l24 77q-50 3 -82.5 14.5t-52 31t-27 47t-7.5 62.5h78q0 -24 5.5 -41t19.5 -28.5t37 -16.5t59 -5
q41 0 66 6t38.5 16.5t17.5 26t4 35.5t-5.5 34.5t-20.5 24.5t-40.5 16t-65.5 9q-51 4 -86 14t-57 27t-31.5 41.5t-9.5 58.5q0 77 51 111.5t140 34.5q101 0 146 -36t45 -121h-78q0 22 -5 39t-18 28.5t-35 17.5t-55 6q-56 0 -84.5 -18t-28.5 -62q0 -42 26.5 -60.5t92.5 -23.5
q59 -5 97 -14.5t60.5 -26t31 -41t8.5 -59.5z" />
    <glyph glyph-name="Scaron" unicode="&#x160;" horiz-adv-x="537" 
d="M255 302q-55 7 -93 21t-62 35.5t-35 52.5t-11 72q0 85 51.5 131t159.5 46t160 -41.5t52 -142.5h-80q0 65 -30.5 89.5t-100.5 24.5q-67 0 -99.5 -25t-32.5 -82q0 -27 6 -47t22.5 -34.5t44.5 -23.5t72 -15q65 -8 106.5 -23t65 -37.5t32.5 -54t9 -73.5q0 -98 -53.5 -141.5
t-171.5 -43.5q-52 0 -93.5 9t-70 30.5t-43.5 57t-15 89.5h80q0 -69 35.5 -92.5t106.5 -23.5q40 0 68 6.5t44.5 20.5t24 35.5t7.5 52.5q0 28 -5.5 49t-22 36t-47 25t-81.5 17zM316 700h-86l-65 120h53l55 -69l55 69h53z" />
    <glyph glyph-name="scaron" unicode="&#x161;" horiz-adv-x="493" 
d="M448 139q0 -30 -6.5 -57.5t-27.5 -47.5t-61.5 -32t-108.5 -12q-59 0 -97.5 10.5t-61 30.5t-31.5 49t-9 66h78q0 -24 5.5 -41t19.5 -28.5t37 -16.5t59 -5q41 0 66 6t38.5 16.5t17.5 26t4 35.5t-5.5 34.5t-20.5 24.5t-40.5 16t-65.5 9q-51 4 -86 14t-57 27t-31.5 41.5
t-9.5 58.5q0 77 51 111.5t140 34.5q101 0 146 -36t45 -121h-78q0 22 -5 39t-18 28.5t-35 17.5t-55 6q-56 0 -84.5 -18t-28.5 -62q0 -42 26.5 -60.5t92.5 -23.5q59 -5 97 -14.5t60.5 -26t31 -41t8.5 -59.5zM289 550h-86l-65 120h53l55 -69l55 69h53z" />
    <glyph glyph-name="Tcommaaccent" unicode="&#x162;" horiz-adv-x="468" 
d="M194 580h-164v70h408v-70h-164v-580h-80v580zM193 -40h90l-79 -120h-44z" />
    <glyph glyph-name="tcommaaccent" unicode="&#x163;" horiz-adv-x="331" 
d="M95 434h-65v54l65 12v122l78 13v-135h113v-66h-113v-317q0 -29 12.5 -45t43.5 -16q21 0 37 3.5t30 6.5v-66q-15 -5 -36.5 -8t-44.5 -3q-63 0 -91.5 31.5t-28.5 97.5v316zM153 -40h90l-79 -120h-44z" />
    <glyph glyph-name="Tcaron" unicode="&#x164;" horiz-adv-x="468" 
d="M194 580h-164v70h408v-70h-164v-580h-80v580zM277 700h-86l-65 120h53l55 -69l55 69h53z" />
    <glyph glyph-name="tcaron" unicode="&#x165;" horiz-adv-x="331" 
d="M241 670h62l-29 -150h-33v150zM95 434h-65v54l65 12v122l78 13v-135h113v-66h-113v-317q0 -29 12.5 -45t43.5 -16q21 0 37 3.5t30 6.5v-66q-15 -5 -36.5 -8t-44.5 -3q-63 0 -91.5 31.5t-28.5 97.5v316z" />
    <glyph glyph-name="Tbar" unicode="&#x166;" horiz-adv-x="468" 
d="M104 363h90v217h-164v70h408v-70h-164v-217h90v-66h-90v-297h-80v297h-90v66z" />
    <glyph glyph-name="tbar" unicode="&#x167;" horiz-adv-x="331" 
d="M50 305h45v129h-65v54l65 12v122l78 13v-135h113v-66h-113v-129h91v-58h-91v-130q0 -29 12.5 -45t43.5 -16q21 0 37 3.5t30 6.5v-66q-15 -5 -36.5 -8t-44.5 -3q-63 0 -91.5 31.5t-28.5 97.5v129h-45v58z" />
    <glyph glyph-name="Utilde" unicode="&#x168;" horiz-adv-x="575" 
d="M150 650v-450q0 -79 32 -110t105 -31t105.5 31t32.5 110v450h80v-448q0 -62 -14 -103t-41.5 -65.5t-68.5 -34.5t-94 -10t-93.5 10t-68 34.5t-41.5 65.5t-14 103v448h80zM349 696q-22 0 -37.5 8t-28 18t-24.5 18t-28 8q-22 0 -29 -12t-7 -30h-50q0 50 18 76t62 26
q22 0 37 -8t28 -18t25 -18t28 -8q22 0 29 12t7 30h50q0 -50 -18 -76t-62 -26z" />
    <glyph glyph-name="utilde" unicode="&#x169;" 
d="M411 0l-18 49q-40 -30 -77.5 -44.5t-87.5 -14.5q-43 0 -74 9t-50.5 29.5t-29 54t-9.5 83.5v334h78v-334q0 -33 6.5 -54.5t19 -34t32.5 -17.5t47 -5q36 0 71.5 13.5t65.5 37.5v394h78v-500h-52zM326 546q-22 0 -37.5 8t-28 18t-24.5 18t-28 8q-22 0 -29 -12t-7 -30h-50
q0 50 18 76t62 26q22 0 37 -8t28 -18t25 -18t28 -8q22 0 29 12t7 30h50q0 -50 -18 -76t-62 -26z" />
    <glyph glyph-name="Umacron" unicode="&#x16a;" horiz-adv-x="575" 
d="M150 650v-450q0 -79 32 -110t105 -31t105.5 31t32.5 110v450h80v-448q0 -62 -14 -103t-41.5 -65.5t-68.5 -34.5t-94 -10t-93.5 10t-68 34.5t-41.5 65.5t-14 103v448h80zM172 780h230v-60h-230v60z" />
    <glyph glyph-name="umacron" unicode="&#x16b;" 
d="M411 0l-18 49q-40 -30 -77.5 -44.5t-87.5 -14.5q-43 0 -74 9t-50.5 29.5t-29 54t-9.5 83.5v334h78v-334q0 -33 6.5 -54.5t19 -34t32.5 -17.5t47 -5q36 0 71.5 13.5t65.5 37.5v394h78v-500h-52zM149 630h230v-60h-230v60z" />
    <glyph glyph-name="Ubreve" unicode="&#x16c;" horiz-adv-x="575" 
d="M150 650v-450q0 -79 32 -110t105 -31t105.5 31t32.5 110v450h80v-448q0 -62 -14 -103t-41.5 -65.5t-68.5 -34.5t-94 -10t-93.5 10t-68 34.5t-41.5 65.5t-14 103v448h80zM288 748q65 0 65 72h54q0 -61 -29.5 -93.5t-89.5 -32.5t-90 32.5t-30 93.5h55q0 -72 65 -72z" />
    <glyph glyph-name="ubreve" unicode="&#x16d;" 
d="M411 0l-18 49q-40 -30 -77.5 -44.5t-87.5 -14.5q-43 0 -74 9t-50.5 29.5t-29 54t-9.5 83.5v334h78v-334q0 -33 6.5 -54.5t19 -34t32.5 -17.5t47 -5q36 0 71.5 13.5t65.5 37.5v394h78v-500h-52zM264 598q65 0 65 72h54q0 -61 -29.5 -93.5t-89.5 -32.5t-90 32.5t-30 93.5
h55q0 -72 65 -72z" />
    <glyph glyph-name="Uring" unicode="&#x16e;" horiz-adv-x="575" 
d="M150 650v-450q0 -79 32 -110t105 -31t105.5 31t32.5 110v450h80v-448q0 -62 -14 -103t-41.5 -65.5t-68.5 -34.5t-94 -10t-93.5 10t-68 34.5t-41.5 65.5t-14 103v448h80zM386 779q0 -42 -25.5 -63.5t-72.5 -21.5q-48 0 -73.5 21.5t-25.5 63.5t25.5 63.5t73.5 21.5
q47 0 72.5 -21.5t25.5 -63.5zM333 779q0 20 -10.5 30t-34.5 10q-25 0 -35.5 -10t-10.5 -30t10.5 -30t35.5 -10q24 0 34.5 10t10.5 30z" />
    <glyph glyph-name="uring" unicode="&#x16f;" 
d="M411 0l-18 49q-40 -30 -77.5 -44.5t-87.5 -14.5q-43 0 -74 9t-50.5 29.5t-29 54t-9.5 83.5v334h78v-334q0 -33 6.5 -54.5t19 -34t32.5 -17.5t47 -5q36 0 71.5 13.5t65.5 37.5v394h78v-500h-52zM362 629q0 -42 -25.5 -63.5t-72.5 -21.5q-48 0 -73.5 21.5t-25.5 63.5
t25.5 63.5t73.5 21.5q47 0 72.5 -21.5t25.5 -63.5zM309 629q0 20 -10.5 30t-34.5 10q-25 0 -35.5 -10t-10.5 -30t10.5 -30t35.5 -10q24 0 34.5 10t10.5 30z" />
    <glyph glyph-name="Uhungarumlaut" unicode="&#x170;" horiz-adv-x="575" 
d="M150 650v-450q0 -79 32 -110t105 -31t105.5 31t32.5 110v450h80v-448q0 -62 -14 -103t-41.5 -65.5t-68.5 -34.5t-94 -10t-93.5 10t-68 34.5t-41.5 65.5t-14 103v448h80zM222 810h83l-54 -120h-47zM360 810h84l-73 -120h-51z" />
    <glyph glyph-name="uhungarumlaut" unicode="&#x171;" 
d="M411 0l-18 49q-40 -30 -77.5 -44.5t-87.5 -14.5q-43 0 -74 9t-50.5 29.5t-29 54t-9.5 83.5v334h78v-334q0 -33 6.5 -54.5t19 -34t32.5 -17.5t47 -5q36 0 71.5 13.5t65.5 37.5v394h78v-500h-52zM199 660h83l-54 -120h-47zM337 660h84l-73 -120h-51z" />
    <glyph glyph-name="Uogonek" unicode="&#x172;" horiz-adv-x="575" 
d="M150 650v-450q0 -79 32 -110t105 -31t105.5 31t32.5 110v450h80v-448q0 -93 -32 -140t-93 -63q-30 -19 -44.5 -40.5t-14.5 -41.5q0 -19 10.5 -26t28.5 -7h20v-54h-47q-75 0 -75 71q0 25 13 47t37 42q-5 0 -10.5 -0.5t-10.5 -0.5q-53 0 -93.5 10t-68 34.5t-41.5 65.5
t-14 103v448h80z" />
    <glyph glyph-name="uogonek" unicode="&#x173;" 
d="M393 49q-40 -30 -77.5 -44.5t-87.5 -14.5q-43 0 -74 9t-50.5 29.5t-29 54t-9.5 83.5v334h78v-334q0 -33 6.5 -54.5t19 -34t32.5 -17.5t47 -5q36 0 71.5 13.5t65.5 37.5v394h78v-500q-31 -20 -46 -41.5t-15 -41.5q0 -19 10.5 -26t28.5 -7h20v-54h-47q-75 0 -75 71
q0 57 71 102z" />
    <glyph glyph-name="Wcircumflex" unicode="&#x174;" horiz-adv-x="817" 
d="M408 565l-123 -565h-106l-144 650h83l114 -562h2q30 141 61 280.5t61 281.5h104l123 -562h2q28 141 56.5 280.5t56.5 281.5h84l-145 -650h-106zM516 700h-53l-55 69l-55 -69h-53l65 120h86z" />
    <glyph glyph-name="wcircumflex" unicode="&#x175;" horiz-adv-x="730" 
d="M618 500h82q-33 -126 -65 -250t-65 -250h-95l-110 423l-111 -423h-95l-129 500h82l96 -418h1l108 418h95l109 -418zM473 550h-53l-55 69l-55 -69h-53l65 120h86z" />
    <glyph glyph-name="Ycircumflex" unicode="&#x176;" horiz-adv-x="510" 
d="M215 253l-190 397h89l140 -317h2l140 317h89l-190 -397v-253h-80v253zM363 700h-53l-55 69l-55 -69h-53l65 120h86z" />
    <glyph glyph-name="ycircumflex" unicode="&#x177;" horiz-adv-x="495" 
d="M25 500h85l137 -404h2l137 404h84l-206 -568q-12 -32 -26 -53.5t-32.5 -34.5t-43.5 -18.5t-58 -5.5q-31 0 -56 9v66q25 -9 56 -9q35 0 54 14.5t35 56.5l16 43zM355 550h-53l-55 69l-55 -69h-53l65 120h86z" />
    <glyph glyph-name="Ydieresis" unicode="&#x178;" horiz-adv-x="510" 
d="M215 253l-190 397h89l140 -317h2l140 317h89l-190 -397v-253h-80v253zM137 800h82v-82h-82v82zM291 800h82v-82h-82v82z" />
    <glyph glyph-name="Zacute" unicode="&#x179;" horiz-adv-x="500" 
d="M60 650h390v-61l-306 -519h316v-70h-410v59l306 521h-296v70zM262 820h90l-79 -120h-44z" />
    <glyph glyph-name="zacute" unicode="&#x17a;" horiz-adv-x="486" 
d="M55 500h368v-55l-279 -379h292v-66h-391v54l278 380h-268v66zM242 670h90l-79 -120h-44z" />
    <glyph glyph-name="Zdotaccent" unicode="&#x17b;" horiz-adv-x="500" 
d="M60 650h390v-61l-306 -519h316v-70h-410v59l306 521h-296v70zM212 800h82v-82h-82v82z" />
    <glyph glyph-name="zdotaccent" unicode="&#x17c;" horiz-adv-x="486" 
d="M55 500h368v-55l-279 -379h292v-66h-391v54l278 380h-268v66zM192 650h82v-82h-82v82z" />
    <glyph glyph-name="Zcaron" unicode="&#x17d;" horiz-adv-x="500" 
d="M60 650h390v-61l-306 -519h316v-70h-410v59l306 521h-296v70zM293 700h-86l-65 120h53l55 -69l55 69h53z" />
    <glyph glyph-name="zcaron" unicode="&#x17e;" horiz-adv-x="486" 
d="M55 500h368v-55l-279 -379h292v-66h-391v54l278 380h-268v66zM286 550h-86l-65 120h53l55 -69l55 69h53z" />
    <glyph glyph-name="florin" unicode="&#x192;" horiz-adv-x="360" 
d="M203 -36q0 -74 -26.5 -109t-93.5 -35q-25 0 -43.5 3t-31.5 8v66q11 -3 26 -6t35 -3q56 0 56 56v490h-66v53l66 13v60q0 63 30 93t90 30q24 0 43 -3t32 -8v-66q-11 3 -26.5 6t-35.5 3q-30 0 -42.5 -14.5t-12.5 -41.5v-59h92v-66h-92v-470z" />
    <glyph glyph-name="Scommaaccent" unicode="&#x218;" horiz-adv-x="537" 
d="M255 302q-55 7 -93 21t-62 35.5t-35 52.5t-11 72q0 85 51.5 131t159.5 46t160 -41.5t52 -142.5h-80q0 65 -30.5 89.5t-100.5 24.5q-67 0 -99.5 -25t-32.5 -82q0 -27 6 -47t22.5 -34.5t44.5 -23.5t72 -15q65 -8 106.5 -23t65 -37.5t32.5 -54t9 -73.5q0 -98 -53.5 -141.5
t-171.5 -43.5q-52 0 -93.5 9t-70 30.5t-43.5 57t-15 89.5h80q0 -69 35.5 -92.5t106.5 -23.5q40 0 68 6.5t44.5 20.5t24 35.5t7.5 52.5q0 28 -5.5 49t-22 36t-47 25t-81.5 17zM232 -40h90l-79 -120h-44z" />
    <glyph glyph-name="scommaaccent" unicode="&#x219;" horiz-adv-x="493" 
d="M448 139q0 -30 -6.5 -57.5t-27.5 -47.5t-61.5 -32t-108.5 -12q-59 0 -97.5 10.5t-61 30.5t-31.5 49t-9 66h78q0 -24 5.5 -41t19.5 -28.5t37 -16.5t59 -5q41 0 66 6t38.5 16.5t17.5 26t4 35.5t-5.5 34.5t-20.5 24.5t-40.5 16t-65.5 9q-51 4 -86 14t-57 27t-31.5 41.5
t-9.5 58.5q0 77 51 111.5t140 34.5q101 0 146 -36t45 -121h-78q0 22 -5 39t-18 28.5t-35 17.5t-55 6q-56 0 -84.5 -18t-28.5 -62q0 -42 26.5 -60.5t92.5 -23.5q59 -5 97 -14.5t60.5 -26t31 -41t8.5 -59.5zM205 -40h90l-79 -120h-44z" />
    <glyph glyph-name="circumflex" unicode="&#x2c6;" horiz-adv-x="336" 
d="M276 550h-53l-55 69l-55 -69h-53l65 120h86z" />
    <glyph glyph-name="caron" unicode="&#x2c7;" horiz-adv-x="336" 
d="M211 550h-86l-65 120h53l55 -69l55 69h53z" />
    <glyph glyph-name="breve" unicode="&#x2d8;" horiz-adv-x="359" 
d="M180 598q65 0 65 72h54q0 -61 -29.5 -93.5t-89.5 -32.5t-90 32.5t-30 93.5h55q0 -72 65 -72z" />
    <glyph glyph-name="dotaccent" unicode="&#x2d9;" horiz-adv-x="202" 
d="M60 650h82v-82h-82v82z" />
    <glyph glyph-name="ring" unicode="&#x2da;" horiz-adv-x="317" 
d="M257 629q0 -42 -25.5 -63.5t-72.5 -21.5q-48 0 -73.5 21.5t-25.5 63.5t25.5 63.5t73.5 21.5q47 0 72.5 -21.5t25.5 -63.5zM204 629q0 20 -10.5 30t-34.5 10q-25 0 -35.5 -10t-10.5 -30t10.5 -30t35.5 -10q24 0 34.5 10t10.5 30z" />
    <glyph glyph-name="ogonek" unicode="&#x2db;" horiz-adv-x="213" 
d="M164 0q-31 -20 -46 -41.5t-15 -41.5q0 -19 10.5 -26t28.5 -7h20v-54h-47q-75 0 -75 71q0 28 17 53.5t48 45.5h59z" />
    <glyph glyph-name="tilde" unicode="&#x2dc;" horiz-adv-x="404" 
d="M264 546q-22 0 -37.5 8t-28 18t-24.5 18t-28 8q-22 0 -29 -12t-7 -30h-50q0 50 18 76t62 26q22 0 37 -8t28 -18t25 -18t28 -8q22 0 29 12t7 30h50q0 -50 -18 -76t-62 -26z" />
    <glyph glyph-name="hungarumlaut" unicode="&#x2dd;" horiz-adv-x="360" 
d="M78 660h83l-54 -120h-47zM216 660h84l-73 -120h-51z" />
    <glyph glyph-name="pi" unicode="&#x3c0;" horiz-adv-x="612" 
d="M150 434h-95v66h502v-66h-95v-302q0 -35 14.5 -50.5t51.5 -15.5h14v-66h-15q-75 0 -109 30t-34 98v306h-156v-434h-78v434z" />
    <glyph glyph-name="Bdotaccent" unicode="&#x1e02;" horiz-adv-x="558" 
d="M70 650h211q112 0 159.5 -39.5t47.5 -128.5q0 -57 -26.5 -95.5t-70.5 -52.5q62 -17 89.5 -55.5t27.5 -101.5q0 -95 -51 -136t-160 -41h-227v650zM295 70q72 0 101.5 25.5t29.5 86.5t-32.5 87.5t-95.5 26.5h-148v-226h145zM150 580v-216h146q59 0 85 29t26 80q0 59 -29 83
t-96 24h-132zM224 800h82v-82h-82v82z" />
    <glyph glyph-name="bdotaccent" unicode="&#x1e03;" horiz-adv-x="533" 
d="M284 55q31 0 54 7.5t38 26t22 49.5t7 79v66q0 48 -7 79t-22 49.5t-38 25.5t-54 7q-35 0 -73.5 -15.5t-67.5 -41.5v-272q29 -29 68.5 -44.5t72.5 -15.5zM294 -11q-42 0 -83 16.5t-76 43.5l-18 -49h-52v670h78v-215q34 24 73 39.5t78 15.5q44 0 79 -9.5t59.5 -34
t37.5 -68.5t13 -113v-71q0 -69 -13 -112.5t-37.5 -68.5t-59.5 -34.5t-79 -9.5zM255 650h82v-82h-82v82z" />
    <glyph glyph-name="Ddotaccent" unicode="&#x1e0a;" horiz-adv-x="567" 
d="M150 580v-510h115q41 0 71.5 7t50.5 25t30 48.5t10 77.5v196q0 51 -11 81.5t-31.5 47t-50.5 22t-69 5.5h-115zM70 0v650h196q58 0 103 -10t75.5 -35.5t46.5 -71t16 -115.5v-186q0 -71 -16 -116t-46.5 -70.5t-75.5 -35.5t-103 -10h-196zM225 800h82v-82h-82v82z" />
    <glyph glyph-name="ddotaccent" unicode="&#x1e0b;" horiz-adv-x="533" 
d="M249 55q33 0 72.5 15.5t68.5 44.5v272q-29 26 -67.5 41.5t-73.5 15.5q-32 0 -54.5 -7t-37.5 -25.5t-22 -49.5t-7 -79v-66q0 -48 7 -79t22 -49.5t37.5 -26t54.5 -7.5zM239 -11q-44 0 -79 9.5t-59.5 34.5t-37.5 68.5t-13 112.5v71q0 69 13 113t37.5 68.5t59.5 34t79 9.5
q39 0 78 -15.5t73 -39.5v215h78v-670h-52l-18 49q-35 -27 -76 -43.5t-83 -16.5zM209 650h82v-82h-82v82z" />
    <glyph glyph-name="Fdotaccent" unicode="&#x1e1e;" horiz-adv-x="461" 
d="M70 0v650h351v-70h-271v-216h236v-68h-236v-296h-80zM212 800h82v-82h-82v82z" />
    <glyph glyph-name="fdotaccent" unicode="&#x1e1f;" horiz-adv-x="321" 
d="M291 606q-11 3 -26.5 6t-35.5 3q-30 0 -42.5 -14.5t-12.5 -41.5v-59h92v-66h-92v-434h-78v434h-66v53l66 13v60q0 63 30 93t90 30q24 0 43 -3t32 -8v-66v0zM160 810h82v-82h-82v82z" />
    <glyph glyph-name="Mdotaccent" unicode="&#x1e40;" horiz-adv-x="717" 
d="M568 550l-176 -550h-67l-176 550v-550h-79v650h117l171 -539h1l171 539h117v-650h-79v550zM320 800h82v-82h-82v82z" />
    <glyph glyph-name="mdotaccent" unicode="&#x1e41;" horiz-adv-x="785" 
d="M135 451q39 29 76.5 44t79.5 15q49 0 78.5 -16.5t48.5 -43.5q39 28 77.5 44t83.5 16q43 0 70.5 -10t43.5 -30t21.5 -50.5t5.5 -71.5v-348h-78v348q0 55 -18.5 75.5t-68.5 20.5q-27 0 -60.5 -13.5t-63.5 -36.5v-394h-78v348q0 27 -4 45.5t-14 30t-26.5 16t-41.5 4.5
q-29 0 -61.5 -13t-62.5 -37v-394h-78v500h52zM354 650h82v-82h-82v82z" />
    <glyph glyph-name="Pdotaccent" unicode="&#x1e56;" horiz-adv-x="543" 
d="M278 314q38 0 64 6t42.5 21t23.5 40.5t7 64.5q0 42 -8 68t-24.5 41t-42.5 20t-63 5h-127v-266h128zM70 650h206q57 0 98.5 -9t69 -32t41 -62.5t13.5 -100.5q0 -56 -13 -94t-40 -61.5t-68.5 -34t-98.5 -10.5h-128v-246h-80v650zM223 800h82v-82h-82v82z" />
    <glyph glyph-name="pdotaccent" unicode="&#x1e57;" horiz-adv-x="533" 
d="M284 444q-33 0 -72.5 -15t-68.5 -44v-273q29 -26 67.5 -41.5t73.5 -15.5q31 0 54 7.5t38 25.5t22 49.5t7 79.5v66q0 47 -7 78t-22 49.5t-38 26t-54 7.5zM294 510q44 0 79 -9.5t59.5 -34t37.5 -68.5t13 -113v-71q0 -69 -13 -112.5t-37.5 -68.5t-59.5 -34.5t-79 -9.5
q-39 0 -78 15.5t-73 39.5v-214h-78v670h52l18 -49q35 26 76 42.5t83 16.5zM245 650h82v-82h-82v82z" />
    <glyph glyph-name="Sdotaccent" unicode="&#x1e60;" horiz-adv-x="537" 
d="M255 302q-55 7 -93 21t-62 35.5t-35 52.5t-11 72q0 85 51.5 131t159.5 46t160 -41.5t52 -142.5h-80q0 65 -30.5 89.5t-100.5 24.5q-67 0 -99.5 -25t-32.5 -82q0 -27 6 -47t22.5 -34.5t44.5 -23.5t72 -15q65 -8 106.5 -23t65 -37.5t32.5 -54t9 -73.5q0 -98 -53.5 -141.5
t-171.5 -43.5q-52 0 -93.5 9t-70 30.5t-43.5 57t-15 89.5h80q0 -69 35.5 -92.5t106.5 -23.5q40 0 68 6.5t44.5 20.5t24 35.5t7.5 52.5q0 28 -5.5 49t-22 36t-47 25t-81.5 17zM235 800h82v-82h-82v82z" />
    <glyph glyph-name="sdotaccent" unicode="&#x1e61;" horiz-adv-x="493" 
d="M448 139q0 -30 -6.5 -57.5t-27.5 -47.5t-61.5 -32t-108.5 -12q-59 0 -97.5 10.5t-61 30.5t-31.5 49t-9 66h78q0 -24 5.5 -41t19.5 -28.5t37 -16.5t59 -5q41 0 66 6t38.5 16.5t17.5 26t4 35.5t-5.5 34.5t-20.5 24.5t-40.5 16t-65.5 9q-51 4 -86 14t-57 27t-31.5 41.5
t-9.5 58.5q0 77 51 111.5t140 34.5q101 0 146 -36t45 -121h-78q0 22 -5 39t-18 28.5t-35 17.5t-55 6q-56 0 -84.5 -18t-28.5 -62q0 -42 26.5 -60.5t92.5 -23.5q59 -5 97 -14.5t60.5 -26t31 -41t8.5 -59.5zM208 650h82v-82h-82v82z" />
    <glyph glyph-name="Tdotaccent" unicode="&#x1e6a;" horiz-adv-x="468" 
d="M194 580h-164v70h408v-70h-164v-580h-80v580zM193 800h82v-82h-82v82z" />
    <glyph glyph-name="tdotaccent" unicode="&#x1e6b;" horiz-adv-x="331" 
d="M95 434h-65v54l65 12v122l78 13v-135h113v-66h-113v-317q0 -29 12.5 -45t43.5 -16q21 0 37 3.5t30 6.5v-66q-15 -5 -36.5 -8t-44.5 -3q-63 0 -91.5 31.5t-28.5 97.5v316zM98 760h82v-82h-82v82z" />
    <glyph glyph-name="Wgrave" unicode="&#x1e80;" horiz-adv-x="817" 
d="M408 565l-123 -565h-106l-144 650h83l114 -562h2q30 141 61 280.5t61 281.5h104l123 -562h2q28 141 56.5 280.5t56.5 281.5h84l-145 -650h-106zM446 700h-44l-79 120h90z" />
    <glyph glyph-name="wgrave" unicode="&#x1e81;" horiz-adv-x="730" 
d="M618 500h82q-33 -126 -65 -250t-65 -250h-95l-110 423l-111 -423h-95l-129 500h82l96 -418h1l108 418h95l109 -418zM401 550h-44l-79 120h90z" />
    <glyph glyph-name="Wacute" unicode="&#x1e82;" horiz-adv-x="817" 
d="M408 565l-123 -565h-106l-144 650h83l114 -562h2q30 141 61 280.5t61 281.5h104l123 -562h2q28 141 56.5 280.5t56.5 281.5h84l-145 -650h-106zM425 820h90l-79 -120h-44z" />
    <glyph glyph-name="wacute" unicode="&#x1e83;" horiz-adv-x="730" 
d="M618 500h82q-33 -126 -65 -250t-65 -250h-95l-110 423l-111 -423h-95l-129 500h82l96 -418h1l108 418h95l109 -418zM377 670h90l-79 -120h-44z" />
    <glyph glyph-name="Wdieresis" unicode="&#x1e84;" horiz-adv-x="817" 
d="M408 565l-123 -565h-106l-144 650h83l114 -562h2q30 141 61 280.5t61 281.5h104l123 -562h2q28 141 56.5 280.5t56.5 281.5h84l-145 -650h-106zM290 800h82v-82h-82v82zM444 800h82v-82h-82v82z" />
    <glyph glyph-name="wdieresis" unicode="&#x1e85;" horiz-adv-x="730" 
d="M618 500h82q-33 -126 -65 -250t-65 -250h-95l-110 423l-111 -423h-95l-129 500h82l96 -418h1l108 418h95l109 -418zM247 650h82v-82h-82v82zM401 650h82v-82h-82v82z" />
    <glyph glyph-name="Ygrave" unicode="&#x1ef2;" horiz-adv-x="510" 
d="M215 253l-190 397h89l140 -317h2l140 317h89l-190 -397v-253h-80v253zM290 700h-44l-79 120h90z" />
    <glyph glyph-name="ygrave" unicode="&#x1ef3;" horiz-adv-x="495" 
d="M25 500h85l137 -404h2l137 404h84l-206 -568q-12 -32 -26 -53.5t-32.5 -34.5t-43.5 -18.5t-58 -5.5q-31 0 -56 9v66q25 -9 56 -9q35 0 54 14.5t35 56.5l16 43zM276 550h-44l-79 120h90z" />
    <glyph glyph-name="endash" unicode="&#x2013;" horiz-adv-x="475" 
d="M50 316h375v-66h-375v66z" />
    <glyph glyph-name="emdash" unicode="&#x2014;" horiz-adv-x="690" 
d="M60 316h570v-66h-570v66z" />
    <glyph glyph-name="quoteleft" unicode="&#x2018;" horiz-adv-x="181" 
d="M140 440h-50l-40 210h90v-210z" />
    <glyph glyph-name="quoteright" unicode="&#x2019;" horiz-adv-x="181" 
d="M50 650h90l-40 -210h-50v210z" />
    <glyph glyph-name="quotesinglbase" unicode="&#x201a;" horiz-adv-x="201" 
d="M50 100h90l-40 -210h-50v210z" />
    <glyph glyph-name="quotedblleft" unicode="&#x201c;" horiz-adv-x="306" 
d="M256 440h-50l-40 210h90v-210zM130 440h-50l-40 210h90v-210z" />
    <glyph glyph-name="quotedblright" unicode="&#x201d;" horiz-adv-x="306" 
d="M50 650h90l-40 -210h-50v210zM176 650h90l-40 -210h-50v210z" />
    <glyph glyph-name="quotedblbase" unicode="&#x201e;" horiz-adv-x="328" 
d="M50 100h90l-40 -210h-50v210zM176 100h90l-40 -210h-50v210z" />
    <glyph glyph-name="dagger" unicode="&#x2020;" horiz-adv-x="344" 
d="M145 564v106h53v-106h101v-45h-101v-259h-53v259h-100v45h100z" />
    <glyph glyph-name="daggerdbl" unicode="&#x2021;" horiz-adv-x="344" 
d="M145 564v106h53v-106h101v-45h-101v-108h101v-46h-101v-105h-53v105h-100v46h100v108h-100v45h100z" />
    <glyph glyph-name="bullet" unicode="&#x2022;" horiz-adv-x="441" 
d="M383 304q0 -48 -9.5 -79t-29.5 -49t-51 -24.5t-73 -6.5t-73 6.5t-51 24.5t-29.5 49t-9.5 79v42q0 48 9.5 79t29.5 49t51 24.5t73 6.5t73 -6.5t51 -24.5t29.5 -49t9.5 -79v-42z" />
    <glyph glyph-name="ellipsis" unicode="&#x2026;" horiz-adv-x="582" 
d="M60 94h94v-94h-94v94zM244 94h94v-94h-94v94zM428 94h94v-94h-94v94z" />
    <glyph glyph-name="perthousand" unicode="&#x2030;" horiz-adv-x="874" 
d="M153 0h-64l420 650h65zM320 515q0 -82 -33 -113.5t-102 -31.5t-102 31.5t-33 113.5q0 81 33 113t102 32t102 -32t33 -113zM261 515q0 56 -18 76t-58 20q-41 0 -58.5 -19.5t-17.5 -72.5q0 -59 17 -79t59 -20q40 0 58 19.5t18 75.5zM824 134q0 -41 -8.5 -69t-25 -45
t-42 -24t-59.5 -7q-40 0 -66 11t-40 37q-14 -26 -40.5 -37t-64.5 -11q-35 0 -60 7t-42 24t-25 45t-8 69q0 81 33 113t102 32q38 0 64.5 -12t40.5 -38q14 26 40 38t66 12q69 0 102 -32t33 -113zM765 134q0 56 -18 75.5t-58 19.5q-41 0 -58.5 -19t-17.5 -72q0 -59 17 -79.5
t59 -20.5q40 0 58 19.5t18 76.5zM554 134q0 56 -18 75.5t-58 19.5q-41 0 -58.5 -19t-17.5 -72q0 -59 17 -79.5t59 -20.5q40 0 58 19.5t18 76.5z" />
    <glyph glyph-name="guilsinglleft" unicode="&#x2039;" horiz-adv-x="330" 
d="M60 250l138 180h72l-139 -180l139 -180h-72z" />
    <glyph glyph-name="guilsinglright" unicode="&#x203a;" horiz-adv-x="330" 
d="M132 70h-72l139 180l-139 180h72l138 -180z" />
    <glyph glyph-name="Euro" unicode="&#x20ac;" horiz-adv-x="598" 
d="M188 359v-69h187l-8 -48h-179v-24q0 -46 7.5 -76.5t24 -49t44 -26t66.5 -7.5q70 0 101.5 27t31.5 98h80q0 -105 -52 -150t-161 -45q-58 0 -100 12t-69 39.5t-40 72.5t-13 111v18h-63v48h63v69h-63v48h63v19q0 64 12.5 108.5t39.5 72.5t69 40.5t101 12.5q109 0 161 -44.5
t52 -149.5h-80q0 70 -31 97t-102 27q-39 0 -66 -7.5t-44 -25.5t-24.5 -48.5t-7.5 -76.5v-25h207l-8 -48h-199z" />
    <glyph glyph-name="trademark" unicode="&#x2122;" horiz-adv-x="572" 
d="M112 616h-68v34h175v-34h-68v-231h-39v231zM383 434l72 216h57v-265h-39v214l-72 -214h-35l-73 214v-214h-38v265h57z" />
    <glyph glyph-name="onethird" unicode="&#x2153;" horiz-adv-x="649" 
d="M130 349v258h-56v27l74 16h27v-301h-45zM499 650h50l-431 -650h-50zM533 88q0 46 -45 46h-42v38h41q20 0 29 13t9 31q0 27 -12.5 39t-42.5 12q-29 0 -42 -13.5t-13 -44.5h-45q0 97 100 97q54 0 77 -22.5t23 -67.5q0 -21 -9.5 -36.5t-25.5 -24.5q21 -8 32.5 -24t11.5 -44
q0 -46 -25 -68.5t-82 -22.5q-56 0 -79.5 23t-23.5 73h45q0 -30 13 -43.5t45 -13.5t46.5 12t14.5 41z" />
    <glyph glyph-name="twothirds" unicode="&#x2154;" horiz-adv-x="681" 
d="M531 650h50l-431 -650h-50zM565 88q0 46 -45 46h-42v38h41q20 0 29 13t9 31q0 27 -12.5 39t-42.5 12q-29 0 -42 -13.5t-13 -44.5h-45q0 97 100 97q54 0 77 -22.5t23 -67.5q0 -21 -9.5 -36.5t-25.5 -24.5q21 -8 32.5 -24t11.5 -44q0 -46 -25 -68.5t-82 -22.5
q-56 0 -79.5 23t-23.5 73h45q0 -30 13 -43.5t45 -13.5t46.5 12t14.5 41zM70 560q0 48 23 71.5t77 23.5q57 0 78 -23t21 -66q0 -26 -11 -44t-27.5 -31.5t-36.5 -24.5t-37 -22t-28.5 -24t-12.5 -31h156v-40h-202v27q0 28 11.5 47.5t28.5 34t37 25.5t37 23t28.5 25.5t11.5 33.5
q0 27 -12 38.5t-42 11.5q-26 0 -40.5 -11t-14.5 -44h-45z" />
    <glyph glyph-name="oneeighth" unicode="&#x215b;" horiz-adv-x="650" 
d="M130 349v258h-56v27l74 16h27v-301h-45zM499 650h50l-431 -650h-50zM470 -4q-57 0 -83 20t-26 66q0 27 12.5 45t34.5 28q-39 18 -39 68q0 46 26.5 64.5t74.5 18.5t75 -18.5t27 -64.5q0 -49 -39 -68q47 -20 47 -73q0 -46 -26.5 -66t-83.5 -20zM470 267q-29 0 -42.5 -10
t-13.5 -38q0 -48 50 -48h13q50 0 50 48q0 28 -14 38t-43 10zM470 35q35 0 50 11.5t15 37.5q0 23 -13 37t-45 14h-13q-32 0 -45 -14t-13 -37q0 -26 15 -37.5t49 -11.5z" />
    <glyph glyph-name="threeeighths" unicode="&#x215c;" horiz-adv-x="681" 
d="M234 437q0 46 -45 46h-42v38h41q20 0 29 13t9 31q0 27 -12.5 39t-42.5 12q-29 0 -42 -13.5t-13 -44.5h-45q0 97 100 97q54 0 77 -22.5t23 -67.5q0 -21 -9.5 -36.5t-25.5 -24.5q21 -8 32.5 -24t11.5 -44q0 -46 -25 -68.5t-82 -22.5q-56 0 -79.5 23t-23.5 73h45
q0 -30 13 -43.5t45 -13.5t46.5 12t14.5 41zM530 650h50l-431 -650h-50zM501 -4q-57 0 -83 20t-26 66q0 27 12.5 45t34.5 28q-39 18 -39 68q0 46 26.5 64.5t74.5 18.5t75 -18.5t27 -64.5q0 -49 -39 -68q47 -20 47 -73q0 -46 -26.5 -66t-83.5 -20zM501 267q-29 0 -42.5 -10
t-13.5 -38q0 -48 50 -48h13q50 0 50 48q0 28 -14 38t-43 10zM501 35q35 0 50 11.5t15 37.5q0 23 -13 37t-45 14h-13q-32 0 -45 -14t-13 -37q0 -26 15 -37.5t49 -11.5z" />
    <glyph glyph-name="fiveeighths" unicode="&#x215d;" horiz-adv-x="682" 
d="M531 650h50l-431 -650h-50zM502 -4q-57 0 -83 20t-26 66q0 27 12.5 45t34.5 28q-39 18 -39 68q0 46 26.5 64.5t74.5 18.5t75 -18.5t27 -64.5q0 -49 -39 -68q47 -20 47 -73q0 -46 -26.5 -66t-83.5 -20zM502 267q-29 0 -42.5 -10t-13.5 -38q0 -48 50 -48h13q50 0 50 48
q0 28 -14 38t-43 10zM502 35q35 0 50 11.5t15 37.5q0 23 -13 37t-45 14h-13q-32 0 -45 -14t-13 -37q0 -26 15 -37.5t49 -11.5zM123 525q14 8 31 13.5t34 5.5q42 0 66.5 -20.5t24.5 -75.5q0 -51 -24 -77.5t-81 -26.5t-80.5 26.5t-23.5 72.5h45q0 -29 13.5 -44.5t45.5 -15.5
q33 0 46.5 15.5t13.5 49.5q0 35 -14.5 48.5t-41.5 13.5q-17 0 -32 -7.5t-24 -15.5h-45l14 163h173v-40h-134z" />
    <glyph glyph-name="seveneighths" unicode="&#x215e;" horiz-adv-x="650" 
d="M499 650h50l-431 -650h-50zM470 -4q-57 0 -83 20t-26 66q0 27 12.5 45t34.5 28q-39 18 -39 68q0 46 26.5 64.5t74.5 18.5t75 -18.5t27 -64.5q0 -49 -39 -68q47 -20 47 -73q0 -46 -26.5 -66t-83.5 -20zM470 267q-29 0 -42.5 -10t-13.5 -38q0 -48 50 -48h13q50 0 50 48
q0 28 -14 38t-43 10zM470 35q35 0 50 11.5t15 37.5q0 23 -13 37t-45 14h-13q-32 0 -45 -14t-13 -37q0 -26 15 -37.5t49 -11.5zM119 350l103 261h-144v39h194v-32l-105 -268h-48z" />
    <glyph glyph-name="partialdiff" unicode="&#x2202;" horiz-adv-x="531" 
d="M250 660q61 0 105 -12t72.5 -38.5t42 -69.5t13.5 -105v-222q0 -59 -12.5 -101t-39.5 -69t-69 -40t-102 -13q-116 0 -168 54.5t-52 154.5q0 97 45.5 144t152.5 47q44 0 87 -12t78 -32v89q0 46 -8 76t-26 48t-46 25t-68 7h-5v69zM260 58q40 0 67 7.5t44 25.5t24.5 48
t7.5 74v76q-34 20 -72 32t-76 12q-39 0 -65 -7.5t-41.5 -23.5t-22 -42t-6.5 -63q0 -73 32 -106t108 -33z" />
    <glyph glyph-name="minus" unicode="&#x2212;" horiz-adv-x="517" 
d="M55 244v62h407v-62h-407z" />
    <glyph glyph-name="integral" unicode="&#x222b;" horiz-adv-x="384" 
d="M219 -11q0 -61 -27.5 -86t-90.5 -25h-57v51h57q29 0 41.5 13.5t12.5 42.5v595q0 60 28 85.5t90 25.5h58v-51h-58q-54 0 -54 -56v-595z" />
    <glyph glyph-name="approxequal" unicode="&#x2248;" horiz-adv-x="517" 
d="M355 304q-32 0 -57.5 13t-47.5 28.5t-42.5 28.5t-42.5 13q-23 0 -36.5 -14t-13.5 -41h-60q1 65 29.5 90t76.5 25q32 0 57 -13t47.5 -29t43 -29t43.5 -13t36.5 13t13.5 42h60q-1 -64 -30 -89t-77 -25zM355 104q-32 0 -57.5 13t-47.5 28.5t-42.5 28.5t-42.5 13
q-23 0 -36.5 -14.5t-13.5 -40.5h-60q1 64 29.5 89.5t76.5 25.5q32 0 57 -13t47.5 -29t43 -29t43.5 -13q50 0 50 55h60q-1 -65 -30.5 -89.5t-76.5 -24.5z" />
    <glyph glyph-name="notequal" unicode="&#x2260;" horiz-adv-x="517" 
d="M183 144h-128v62h148l48 138h-196v62h216l50 144h61l-49 -144h129v-62h-150l-47 -138h197v-62h-217l-50 -144h-61z" />
    <glyph glyph-name="lessequal" unicode="&#x2264;" horiz-adv-x="407" 
d="M60 0v62h287v-62h-287zM60 342l202 203h85l-203 -203l203 -202h-85z" />
    <glyph glyph-name="greaterequal" unicode="&#x2265;" horiz-adv-x="407" 
d="M60 0v62h287v-62h-287zM145 140h-85l203 202l-203 203h85l202 -203z" />
    <glyph glyph-name="at.caps" horiz-adv-x="794" 
d="M70 398q0 64 19.5 115t60 86.5t102 54.5t145.5 19q83 0 144.5 -19t102 -54.5t60.5 -86.5t20 -115v-146q0 -128 -80.5 -201.5t-246.5 -73.5q-164 0 -245.5 73.5t-81.5 201.5v146zM131 256q0 -113 65.5 -167.5t200.5 -54.5t200.5 54.5t65.5 167.5v138q0 222 -266 222
t-266 -222v-138zM239 245q0 48 31.5 74t88.5 30l124 8v42q0 39 -18.5 55t-68.5 16q-45 0 -65.5 -15t-20.5 -55h-56q0 36 10.5 59t29 36.5t44.5 19t58 5.5q75 0 109 -26.5t34 -94.5v-253h-38l-11 35q-27 -21 -56 -32t-65 -11q-60 0 -95 26t-35 81zM372 188q34 0 61 11t50 29
v87l-119 -10q-37 -3 -52.5 -17.5t-15.5 -40.5q0 -59 76 -59z" />
    <glyph glyph-name="caron.salt" horiz-adv-x="182" 
d="M60 670h62l-29 -150h-33v150z" />
    <glyph glyph-name="commaaccent" horiz-adv-x="260" 
d="M96 -40h90l-79 -120h-44z" />
    <glyph glyph-name="one.tnum" horiz-adv-x="540" 
d="M162 70h86v510h-107v44l113 26h74v-580h86v-70h-252v70z" />
    <glyph glyph-name="two.tnum" horiz-adv-x="540" 
d="M55 468q0 96 49.5 144t162.5 48q60 0 100.5 -12.5t65 -36.5t35 -58.5t10.5 -79.5q0 -58 -25 -97.5t-62.5 -69t-81 -52.5t-81.5 -48.5t-64 -57.5t-27 -78h348v-70h-429v50q0 62 25.5 104.5t63 74t82 56.5t82 51t63 57.5t25.5 77.5q0 64 -29 92t-101 28q-30 0 -54.5 -5.5
t-42 -19.5t-26.5 -38t-9 -60h-80v0z" />
    <glyph glyph-name="three.tnum" horiz-adv-x="540" 
d="M412 184q0 54 -29 83.5t-81 29.5h-83v66h80q48 0 71.5 31.5t23.5 75.5q0 64 -30 92.5t-103 28.5q-71 0 -102 -29.5t-31 -98.5h-80q0 197 213 197q113 0 163 -48t50 -143q0 -52 -25.5 -85.5t-67.5 -50.5q53 -16 82.5 -51t29.5 -100q0 -97 -53 -144.5t-174 -47.5
q-118 0 -168.5 47t-50.5 149h80q0 -68 31 -98t108 -30t111.5 28.5t34.5 97.5z" />
    <glyph glyph-name="four.tnum" horiz-adv-x="540" 
d="M351 151h-321v60l298 439h103v-432h79v-67h-79v-151h-80v151zM351 218v356l-240 -356h240z" />
    <glyph glyph-name="five.tnum" horiz-adv-x="540" 
d="M145 363q33 25 72.5 39t81.5 14q45 0 80.5 -10t60.5 -34t38 -63.5t13 -97.5q0 -109 -50.5 -165t-172.5 -56q-61 0 -103 14t-68 40t-37.5 63t-11.5 84h80q0 -63 31.5 -98t108.5 -35q79 0 111 36.5t32 116.5q0 82 -34 114.5t-99 32.5q-42 0 -75 -17t-54 -34h-85
q8 86 15 171t14 172h365v-69h-296z" />
    <glyph glyph-name="six.tnum" horiz-adv-x="540" 
d="M130 346q35 20 77 32t86 12q107 0 152 -47t45 -144q0 -100 -50.5 -155t-166.5 -55q-61 0 -103.5 13t-69 41t-38.5 71.5t-12 104.5v210q0 123 51.5 177t163.5 54q111 0 159.5 -45.5t49.5 -138.5h-80q0 60 -28 87.5t-101 27.5q-37 0 -62.5 -7.5t-41.5 -26t-23.5 -50
t-7.5 -78.5v-83zM276 333q-38 0 -75.5 -12t-70.5 -32v-70q0 -48 7.5 -79t24 -49t43.5 -25.5t66 -7.5q76 0 107.5 33t31.5 106q0 37 -6.5 63t-21.5 42t-41 23.5t-65 7.5z" />
    <glyph glyph-name="seven.tnum" horiz-adv-x="540" 
d="M160 0l229 580h-343v70h429v-62l-229 -588h-86z" />
    <glyph glyph-name="eight.tnum" horiz-adv-x="540" 
d="M269 -10q-122 0 -177.5 42t-55.5 139q0 65 32 104.5t89 56.5q-51 17 -77 56t-26 96q0 48 14.5 81.5t42 54.5t67.5 30.5t91 9.5t91 -9.5t68 -30.5t42.5 -54.5t14.5 -81.5q0 -57 -26.5 -96t-77.5 -56q57 -17 89.5 -56.5t32.5 -104.5q0 -97 -56 -139t-178 -42zM269 591
q-69 0 -102 -24t-33 -90q0 -61 30 -89t90 -28h30q61 0 91 28.5t30 88.5q0 66 -33 90t-103 24zM269 58q81 0 117 27.5t36 91.5q0 54 -31 87.5t-107 33.5h-30q-75 0 -106 -33.5t-31 -87.5q0 -64 35.5 -91.5t116.5 -27.5z" />
    <glyph glyph-name="nine.tnum" horiz-adv-x="540" 
d="M275 58q37 0 62.5 7.5t41.5 26.5t23.5 50t7.5 78v83q-35 -20 -77.5 -32t-85.5 -12q-107 0 -152 47t-45 145q0 100 50.5 154.5t166.5 54.5q61 0 103.5 -13t69 -40.5t38.5 -71t12 -104.5v-210q0 -124 -51.5 -178t-163.5 -54q-111 0 -159.5 45.5t-49.5 138.5h80
q0 -30 6.5 -51.5t21.5 -35.5t39.5 -21t61.5 -7zM264 316q38 0 75.5 12t70.5 32v71q0 48 -7.5 79t-24 49t-43.5 25t-66 7q-76 0 -107.5 -33t-31.5 -105q0 -38 6.5 -64t21.5 -42t41 -23.5t65 -7.5z" />
    <glyph glyph-name="zero.tnum" horiz-adv-x="540" 
d="M128 250q0 -57 7 -94t23.5 -58.5t43.5 -30.5t67 -9q37 0 64 8t44 27t25.5 50.5t8.5 79.5v176q0 56 -7.5 93t-24 59t-43.5 31t-67 9q-37 0 -63.5 -8t-44 -26.5t-25.5 -50t-8 -79.5v-177zM491 225q0 -64 -13.5 -109t-41 -73t-69.5 -40.5t-98 -12.5t-97.5 12.5t-69 40.5
t-41 73t-13.5 109v200q0 128 55 181.5t166 53.5q56 0 97.5 -12.5t69.5 -40.5t41.5 -73t13.5 -109v-200z" />
    <glyph glyph-name="dollar.tnum" horiz-adv-x="523" 
d="M228 -20v87q-50 3 -82.5 15t-51.5 32t-26.5 47.5t-7.5 61.5h78q0 -24 5.5 -41t19.5 -28t37 -16t59 -5q41 0 66 6t38.5 16.5t17.5 26t4 34.5q0 20 -5.5 34.5t-20.5 24.5t-40.5 16t-65.5 9q-51 4 -86 14t-57 27t-31.5 41.5t-9.5 59.5q0 70 42 104.5t117 39.5v84h68v-84
q81 -6 118 -42.5t37 -112.5h-78q0 22 -5 39t-18 28.5t-35 17.5t-55 6q-56 0 -84.5 -18.5t-28.5 -62.5q0 -42 26.5 -60t92.5 -23q59 -5 97 -15t60.5 -26.5t31 -41.5t8.5 -59q0 -28 -5.5 -53.5t-22.5 -45.5t-50.5 -33.5t-88.5 -16.5v-87h-68z" />
    <glyph glyph-name="cent.tnum" horiz-adv-x="516" 
d="M266 519q-38 0 -63 -7t-41 -26t-22.5 -51t-6.5 -83v-54q0 -51 6.5 -83.5t22.5 -51.5t41 -26t63 -7q33 0 55.5 5.5t36 17.5t19 31t6.5 47h78q0 -84 -39.5 -122t-121.5 -44v-85h-68v85q-45 3 -78.5 16t-55.5 40t-32.5 70t-10.5 107v54q0 63 11 106t32.5 70t55 40t78.5 16
v86h68v-86q82 -6 121.5 -44t39.5 -121h-78q-1 27 -6.5 46t-19 31t-36 17.5t-55.5 5.5z" />
    <glyph glyph-name="sterling.tnum" horiz-adv-x="562" 
d="M50 0v69q57 0 82 29.5t25 91.5q0 21 -6 44.5t-14 49.5h-87v56h69q-11 35 -20.5 69t-9.5 74q0 94 52 135.5t138 41.5q102 0 146.5 -40.5t44.5 -135.5h-80q0 60 -25.5 83.5t-85.5 23.5q-59 0 -84.5 -25.5t-25.5 -82.5q0 -38 8.5 -73t18.5 -70h125v-56h-113
q7 -23 11.5 -45.5t4.5 -43.5q0 -45 -12.5 -76t-40.5 -50h177q44 0 64 18.5t20 66.5h80q0 -40 -7.5 -69t-25.5 -48t-47 -28t-72 -9h-310z" />
    <glyph glyph-name="Euro.tnum" horiz-adv-x="598" 
d="M188 359v-69h187l-8 -48h-179v-24q0 -46 7.5 -76.5t24 -49t44 -26.5t66.5 -8q70 0 101.5 27.5t31.5 98.5h80q0 -105 -52 -150t-161 -45q-58 0 -100 12t-69 39.5t-40 72.5t-13 111v18h-63v48h63v69h-63v48h63v19q0 64 12.5 108.5t39.5 72.5t69 40.5t101 12.5
q109 0 161 -44.5t52 -149.5h-80q0 70 -31 97.5t-102 27.5q-39 0 -66 -7.5t-44 -26t-24.5 -49t-7.5 -76.5v-25h207l-8 -48h-199z" />
    <glyph glyph-name="yen.tnum" horiz-adv-x="538" 
d="M229 74h-138v46h138v70h-138v46h138l-11 41l-179 373h89q35 -80 70 -158.5t70 -158.5h2q35 80 70 158.5t70 158.5h89l-180 -373l-10 -41h138v-46h-138v-70h138v-46h-138v-74h-80v74z" />
    <glyph glyph-name="numbersign.tnum" horiz-adv-x="562" 
d="M492 166h-100l-15 -166h-61l15 166h-128l-15 -166h-60l14 166h-100l5 54h100l18 211h-100l5 54h100l15 165h60l-14 -165h128l14 165h61l-14 -165h100l-5 -54h-100l-18 -211h100zM208 220h128l18 211h-128z" />
    <glyph glyph-name="percent.tnum" horiz-adv-x="540" 
d="M93 0h-64l417 650h65zM270 525q0 -38 -7.5 -64t-23 -42t-39 -22.5t-55.5 -6.5t-55.5 6.5t-39 22.5t-23 42t-7.5 64q0 75 30.5 105t94.5 30t94.5 -30t30.5 -105zM211 525q0 50 -16 68t-50 18q-35 0 -50.5 -17t-15.5 -65q0 -53 15 -71t51 -18q34 0 50 17.5t16 67.5z
M520 125q0 -38 -7.5 -64t-23 -42t-39 -22.5t-55.5 -6.5t-55.5 6.5t-39 22.5t-23 42t-7.5 64q0 75 30.5 105t94.5 30t94.5 -30t30.5 -105zM461 125q0 50 -16 68t-50 18q-35 0 -50.5 -17t-15.5 -65q0 -53 15 -71t51 -18q34 0 50 17.5t16 67.5z" />
    <glyph glyph-name="one.onum" horiz-adv-x="334" 
d="M156 0v433h-96v39l126 28h48v-500h-78z" />
    <glyph glyph-name="two.onum" horiz-adv-x="508" 
d="M55 39q0 54 23.5 89.5t58.5 59t76.5 39.5t76.5 32t58.5 36t23.5 52q0 22 -5.5 39.5t-19 30.5t-36.5 20t-57 7q-66 0 -92 -25t-26 -73h-78q0 80 48 122t148 42q54 0 91.5 -11.5t60.5 -32.5t33.5 -51t10.5 -67q0 -43 -23 -71t-58 -48t-75.5 -35t-75.5 -32t-58.5 -39.5
t-23.5 -56.5h327v-66h-408v39z" />
    <glyph glyph-name="three.onum" horiz-adv-x="516" 
d="M443 347q0 -64 -27 -99t-64 -51q56 -16 87.5 -55.5t31.5 -110.5q0 -46 -10.5 -85t-36.5 -67t-70.5 -43.5t-112.5 -15.5q-47 0 -93 9t-83 21v75q41 -17 86 -27t90 -10q83 0 117.5 35t34.5 109q0 66 -28.5 98.5t-91.5 32.5h-82v64h82q45 0 68.5 30.5t23.5 85.5q0 23 -6 42
t-19.5 32.5t-36.5 20.5t-57 7q-63 0 -90.5 -24.5t-27.5 -74.5h-78q0 36 10.5 66.5t33.5 52.5t60.5 34t90.5 12q58 0 96.5 -13t61 -35.5t31.5 -52.5t9 -63z" />
    <glyph glyph-name="four.onum" horiz-adv-x="554" 
d="M360 0h-320v59l298 441h100v-434h76v-66h-76v-160h-78v160zM360 66v359l-240 -359h240z" />
    <glyph glyph-name="five.onum" horiz-adv-x="519" 
d="M226 -180q-45 0 -91.5 9t-84.5 23v74q39 -17 86 -27.5t89 -10.5q91 0 128.5 42.5t37.5 127.5q0 84 -31 115.5t-96 31.5q-36 0 -70.5 -11t-61.5 -29h-67l30 335h332v-66h-267l-19 -210q29 19 65 29.5t75 10.5q90 0 139 -47.5t49 -159.5q0 -54 -13 -98t-42.5 -75
t-75.5 -47.5t-112 -16.5z" />
    <glyph glyph-name="six.onum" horiz-adv-x="527" 
d="M133 342q34 20 72 32.5t81 12.5q52 0 87.5 -12t57.5 -36t31.5 -59.5t9.5 -83.5q0 -98 -48 -152t-158 -54q-58 0 -98 12.5t-65 40t-36.5 70.5t-11.5 103v199q0 120 50.5 172.5t154.5 52.5q106 0 151.5 -40.5t46.5 -129.5h-76q0 56 -26 80t-96 24q-34 0 -58 -7.5t-39.5 -26
t-22.5 -49t-7 -75.5v-74zM270 329q-38 0 -71.5 -12t-65.5 -32v-69q0 -47 6.5 -78t21.5 -49t40.5 -25.5t63.5 -7.5q73 0 101 33t28 105q0 37 -5.5 62.5t-19 41.5t-38 23.5t-61.5 7.5z" />
    <glyph glyph-name="seven.onum" horiz-adv-x="474" 
d="M135 -170l218 604h-313v66h394v-58l-217 -612h-82z" />
    <glyph glyph-name="eight.onum" horiz-adv-x="535" 
d="M291 352q49 0 75.5 29t26.5 80q0 65 -32.5 89t-92.5 24q-61 0 -93.5 -24.5t-32.5 -88.5q0 -51 26.5 -80t75.5 -29h47zM268 55q75 0 108.5 27t33.5 90q0 24 -6.5 45.5t-21 38t-37 26.5t-54.5 10h-47q-32 0 -54.5 -10t-37 -26.5t-21 -38t-6.5 -45.5q0 -63 34 -90t109 -27z
M268 -11q-58 0 -100 10t-69 31t-39.5 54.5t-12.5 80.5q0 65 32 102t92 54q-51 15 -78.5 54t-27.5 97q0 47 14.5 79.5t41 52t64 28t83.5 8.5t83 -8.5t63.5 -28t41 -52t14.5 -79.5q0 -59 -27 -97.5t-78 -53.5q60 -17 91.5 -54t31.5 -102q0 -47 -12.5 -80.5t-39.5 -54.5
t-68.5 -31t-99.5 -10z" />
    <glyph glyph-name="nine.onum" horiz-adv-x="515" 
d="M254 -180q-47 0 -90.5 8.5t-78.5 22.5v72q42 -17 82.5 -27t85.5 -10q36 0 61 6t40 22.5t21.5 45.5t6.5 75v97q-34 -20 -73 -31.5t-81 -11.5q-101 0 -144 52t-43 151q0 108 47.5 163t159.5 55q58 0 98 -13t65.5 -41t37 -71.5t11.5 -103.5v-247q0 -59 -12 -99.5t-37 -66
t-64 -37t-93 -11.5zM244 148q38 0 72 11t66 31v89q0 46 -7 77.5t-22.5 50.5t-41 27.5t-62.5 8.5q-73 0 -101.5 -35.5t-28.5 -113.5q0 -73 26.5 -109.5t98.5 -36.5z" />
    <glyph glyph-name="zero.onum" 
d="M400 279q0 90 -33.5 127.5t-102.5 37.5q-70 0 -103 -38t-33 -127v-58q0 -90 33 -128t103 -38q69 0 102.5 38t33.5 128v58zM478 223q0 -64 -15.5 -108.5t-44 -72.5t-68 -40.5t-86.5 -12.5q-48 0 -87 12.5t-67.5 40.5t-44 72.5t-15.5 108.5v54q0 64 15.5 108.5t44 72
t67.5 40t87 12.5q47 0 86.5 -12.5t68 -40t44 -72t15.5 -108.5v-54z" />
    <glyph glyph-name="dollar.onum" horiz-adv-x="531" 
d="M468 139q0 -27 -5.5 -52.5t-23.5 -45.5t-50.5 -33.5t-86.5 -16.5v-86h-72v86q-48 3 -80 15t-50.5 32t-26.5 47.5t-8 60.5h78q0 -48 25.5 -69t95.5 -21q40 0 65 6t38.5 16.5t18 26t4.5 34.5q0 20 -5.5 34.5t-20.5 24.5t-40.5 16t-65.5 9q-50 4 -85 14.5t-57 27.5t-32 42
t-10 58q0 69 41.5 103.5t114.5 40.5v86h72v-86q79 -6 116.5 -43t37.5 -112h-78q0 22 -5 39t-18 28.5t-35 17.5t-55 6q-56 0 -84.5 -18.5t-28.5 -62.5q0 -42 26.5 -60t92.5 -23q59 -5 97 -15t60.5 -26.5t31 -41.5t8.5 -59z" />
    <glyph glyph-name="cent.onum" horiz-adv-x="508" 
d="M263 445q-37 0 -62.5 -7t-41 -26t-22.5 -51.5t-7 -83.5v-54q0 -51 7 -83t22.5 -51t41 -26t62.5 -7q34 0 56 5t35.5 17t19.5 31t6 47h78q0 -84 -39.5 -121.5t-120.5 -43.5v-85h-72v86q-45 3 -77.5 16t-54 40t-32 69.5t-10.5 105.5v54q0 63 10.5 105.5t32 69.5t54.5 40.5
t77 16.5v86h72v-86q81 -6 120.5 -44t39.5 -121h-78q0 28 -6 47t-19.5 31t-35.5 17.5t-56 5.5z" />
    <glyph glyph-name="sterling.onum" horiz-adv-x="563" 
d="M164 466q0 -41 9.5 -76t20.5 -68h120v-53h-102q6 -21 10.5 -42t4.5 -42q0 -42 -11.5 -72t-37.5 -47h170q26 0 42.5 5t25.5 15.5t12.5 27.5t3.5 41h78q0 -84 -34 -119.5t-116 -35.5h-310v66h8q54 2 78.5 30t24.5 85q0 23 -6.5 44.5t-14.5 43.5h-90v53h68
q-13 31 -22.5 66.5t-9.5 78.5q0 91 49.5 132t137.5 41q101 0 145 -42t44 -130h-78q0 57 -25.5 81t-84.5 24q-57 0 -83.5 -25t-26.5 -82z" />
    <glyph glyph-name="Euro.onum" horiz-adv-x="598" 
d="M188 349v-70h186l-9 -46h-177v-17q0 -46 7.5 -76.5t24.5 -49t44.5 -26.5t66.5 -8q70 0 101.5 27.5t31.5 98.5h78q0 -105 -51 -149t-160 -44q-58 0 -100 11.5t-69 39t-39.5 72t-12.5 110.5v11h-63v46h63v70h-63v46h63v13q0 64 12.5 108.5t39 72t68.5 39.5t101 12
q109 0 160 -43.5t51 -148.5h-78q0 70 -31 97.5t-102 27.5q-39 0 -66 -7.5t-44 -26t-25 -49t-8 -76.5v-19h207l-9 -46h-198z" />
    <glyph glyph-name="yen.onum" horiz-adv-x="536" 
d="M230 142v65h-139v44h139l-191 379h89q35 -78 70 -152.5t70 -152.5h2q35 78 70 152.5t70 152.5h89l-191 -379h139v-44h-139v-65h139v-44h-139v-98h-78v98h-139v44h139z" />
    <glyph glyph-name="numbersign.onum" horiz-adv-x="564" 
d="M492 166h-100l-15 -166h-61l15 166h-128l-15 -166h-60l14 166h-100l5 54h100l17 191h-100l5 54h100l15 165h60l-14 -165h128l14 165h61l-14 -165h100l-5 -54h-100l-17 -191h100zM208 220h128l17 191h-128z" />
    <glyph glyph-name="percent.onum" horiz-adv-x="683" 
d="M155 0h-71l443 630h72zM623 134q0 -41 -8.5 -69t-25 -45t-42 -24t-59.5 -7q-35 0 -60 7t-42 24t-25 45t-8 69q0 81 33 113t102 32t102 -32t33 -113zM330 496q0 -82 -33 -113.5t-102 -31.5t-102 31.5t-33 113.5q0 81 33 113t102 32t102 -32t33 -113zM417 138
q0 -56 16 -75.5t55 -19.5q38 0 54.5 18.5t16.5 72.5q0 53 -16.5 71.5t-54.5 18.5t-54.5 -18t-16.5 -68zM124 499q0 -28 4 -46t12 -28.5t21.5 -14.5t33.5 -4q37 0 54 18.5t17 71.5t-17 72t-54 19q-38 0 -54.5 -19t-16.5 -69z" />
    <glyph glyph-name="a.smcp" horiz-adv-x="484" 
d="M346 130h-207l-39 -130h-80l175 555h95l174 -555h-80zM157 198h170l-84 285h-2z" />
    <glyph glyph-name="b.smcp" horiz-adv-x="511" 
d="M60 555h200q100 0 141 -36t41 -108q0 -49 -24.5 -82t-66.5 -47q58 -16 84 -48.5t26 -85.5q0 -80 -45.5 -114t-145.5 -34h-210v555zM138 248v-182h131q33 0 55 5t35 16t18.5 28t5.5 41q0 47 -24.5 69.5t-84.5 22.5h-136zM138 312h133q53 0 73.5 25t20.5 66q0 48 -23.5 67
t-84.5 19h-119v-177z" />
    <glyph glyph-name="c.smcp" horiz-adv-x="502" 
d="M255 56q66 0 92.5 23t26.5 80h78q0 -85 -45.5 -127t-151.5 -42q-53 0 -91.5 10t-64 34t-37.5 63t-12 96v170q0 108 48.5 155t156.5 47q106 0 151.5 -41.5t45.5 -127.5h-78q0 57 -26.5 80t-92.5 23q-38 0 -62.5 -7.5t-39 -24t-20 -42t-5.5 -61.5v-172q0 -37 5.5 -62.5
t19.5 -42t39 -24t63 -7.5z" />
    <glyph glyph-name="d.smcp" horiz-adv-x="515" 
d="M60 0v555h189q53 0 93.5 -9t67.5 -31t41 -60.5t14 -96.5v-159q0 -59 -14 -97t-41 -61t-67.5 -32t-93.5 -9h-189zM244 66q38 0 65 5.5t44.5 20.5t25.5 40.5t8 65.5v159q0 40 -8 65.5t-25.5 40.5t-44.5 20.5t-65 5.5h-106v-423h106z" />
    <glyph glyph-name="e.smcp" horiz-adv-x="453" 
d="M370 248h-232v-182h265v-66h-343v555h343v-66h-265v-177h232v-64z" />
    <glyph glyph-name="f.smcp" horiz-adv-x="425" 
d="M352 248h-214v-248h-78v555h325v-66h-247v-177h214v-64z" />
    <glyph glyph-name="g.smcp" horiz-adv-x="514" 
d="M256 -11q-53 0 -91.5 10t-64 34t-38 63t-12.5 97v172q0 54 11.5 92t36 62t63 35.5t93.5 11.5q106 0 151 -42t45 -128h-78q0 55 -26.5 79.5t-91.5 24.5q-36 0 -60.5 -7.5t-39 -23.5t-20.5 -42t-6 -62v-173q0 -36 5.5 -62t20 -42.5t39 -24.5t63.5 -8q37 0 61 7.5t38.5 21
t20 31t5.5 37.5v92h-117v66h195v-310h-38l-15 50q-22 -26 -55 -43.5t-95 -17.5z" />
    <glyph glyph-name="h.smcp" horiz-adv-x="514" 
d="M454 0h-78v247h-238v-247h-78v555h78v-242h238v242h78v-555z" />
    <glyph glyph-name="i.smcp" horiz-adv-x="198" 
d="M60 555h78v-555h-78v555z" />
    <glyph glyph-name="j.smcp" horiz-adv-x="332" 
d="M84 489v66h188v-437q0 -66 -31.5 -97t-103.5 -31q-26 0 -51 2.5t-46 7.5v66q44 -10 85 -10q37 0 53 14t16 55v364h-110z" />
    <glyph glyph-name="k.smcp" horiz-adv-x="452" 
d="M138 0h-78v555h78v-236l193 236h96l-227 -268l232 -287h-95l-199 252v-252z" />
    <glyph glyph-name="l.smcp" horiz-adv-x="384" 
d="M60 555h78v-489h206v-66h-284v555z" />
    <glyph glyph-name="m.smcp" horiz-adv-x="658" 
d="M328 96h2l152 459h116v-555h-76v470l-159 -470h-69l-158 470v-470h-76v555h115z" />
    <glyph glyph-name="n.smcp" horiz-adv-x="525" 
d="M465 0h-100l-229 453v-453h-76v555h100l229 -453v453h76v-555z" />
    <glyph glyph-name="o.smcp" horiz-adv-x="518" 
d="M390 359q0 42 -7.5 69.5t-23 43.5t-40.5 22t-60 6t-60 -6t-41 -22t-23 -43.5t-7 -69.5v-163q0 -42 7 -69.5t23 -43.5t41 -22t60 -6t60 6t40.5 22t23 43.5t7.5 69.5v163zM468 196q0 -59 -13 -98.5t-39 -63.5t-65 -34.5t-92 -10.5t-92.5 10.5t-65.5 34.5t-38.5 63.5
t-12.5 98.5v163q0 58 12.5 98t38.5 64t65.5 34.5t92.5 10.5t92 -10.5t65 -34.5t39 -64t13 -98v-163z" />
    <glyph glyph-name="p.smcp" horiz-adv-x="493" 
d="M60 555h190q53 0 91.5 -8.5t63 -28.5t36.5 -53.5t12 -83.5q0 -47 -11.5 -80t-36 -54t-62.5 -30.5t-91 -9.5h-114v-207h-78v555zM138 273h114q35 0 58.5 5.5t38 18.5t20.5 33.5t6 50.5q0 63 -28.5 85.5t-96.5 22.5h-112v-216z" />
    <glyph glyph-name="q.smcp" horiz-adv-x="518" 
d="M468 196q0 -107 -44 -153.5t-132 -52.5q2 -27 16 -37t46 -10h51l-19 -44h-54q-44 0 -72 21t-33 70q-90 5 -133.5 51.5t-43.5 154.5v163q0 58 12.5 98t38.5 64t65.5 34.5t92.5 10.5t92 -10.5t65 -34.5t39 -64t13 -98v-163zM390 359q0 42 -7.5 69.5t-23 43.5t-40.5 22
t-60 6t-60 -6t-41 -22t-23 -43.5t-7 -69.5v-163q0 -42 7 -69.5t23 -43.5t41 -22t60 -6t60 6t40.5 22t23 43.5t7.5 69.5v163z" />
    <glyph glyph-name="r.smcp" horiz-adv-x="505" 
d="M138 207v-207h-78v555h190q53 0 91.5 -8.5t63 -28.5t36.5 -53.5t12 -83.5q0 -69 -26 -109t-80 -55q29 -55 58.5 -109t59.5 -108h-84l-111 207h-132zM138 273h114q35 0 58.5 5.5t38 18.5t20.5 33.5t6 50.5q0 63 -28.5 85.5t-96.5 22.5h-112v-216z" />
    <glyph glyph-name="s.smcp" horiz-adv-x="487" 
d="M243 55q38 0 62.5 5.5t38.5 17t19.5 29t5.5 40.5q0 25 -4 43t-18 30.5t-40 20.5t-70 14q-102 13 -145.5 49t-43.5 109q0 74 48 113.5t143 39.5q101 0 147 -38t46 -125h-78q0 24 -5 42t-18 30.5t-35.5 18.5t-56.5 6q-60 0 -86.5 -22t-26.5 -67q0 -23 5.5 -39.5t20 -28.5
t38 -19t59.5 -11q62 -7 101 -20.5t60.5 -34t29 -49t7.5 -64.5q0 -75 -46.5 -115.5t-157.5 -40.5q-104 0 -153.5 37t-49.5 127h78q0 -56 28.5 -77t96.5 -21z" />
    <glyph glyph-name="t.smcp" horiz-adv-x="438" 
d="M182 489h-152v66h378v-66h-148v-489h-78v489z" />
    <glyph glyph-name="u.smcp" horiz-adv-x="524" 
d="M138 555v-380q0 -67 27 -93.5t97 -26.5t97 26.5t27 93.5v380h78v-380q0 -53 -13.5 -88.5t-39.5 -57.5t-63.5 -31t-85.5 -9t-85.5 9t-63.5 31t-39.5 57.5t-13.5 88.5v380h78z" />
    <glyph glyph-name="v.smcp" horiz-adv-x="485" 
d="M242 78h2l137 477h84l-176 -555h-92l-177 555h84z" />
    <glyph glyph-name="w.smcp" horiz-adv-x="779" 
d="M439 555l111 -467h2l105 467h82l-141 -555h-93l-116 482l-116 -482h-92l-141 555h81l105 -467h2l112 467h99z" />
    <glyph glyph-name="x.smcp" horiz-adv-x="469" 
d="M277 285l172 -285h-87l-127 224l-127 -224h-88l172 285l-165 270h88l120 -210l118 210h88z" />
    <glyph glyph-name="y.smcp" horiz-adv-x="455" 
d="M188 214l-168 341h82l124 -271h2l124 271h83l-169 -341v-214h-78v214z" />
    <glyph glyph-name="z.smcp" horiz-adv-x="465" 
d="M59 555h356v-55l-276 -434h286v-66h-375v53l277 436h-268v66z" />
    <glyph glyph-name="ampersand.smcp" horiz-adv-x="611" 
d="M452 250v-112q0 -40 17 -56t60 -16v-66q-49 0 -76 13t-44 42q-20 -29 -60 -47t-102 -18q-92 0 -144 39.5t-52 117.5q0 49 25 85.5t72 54.5q-35 14 -58.5 45.5t-23.5 78.5q0 77 47.5 116t138.5 39q94 0 139.5 -39.5t45.5 -125.5h-79q0 51 -24 75t-81 24q-58 0 -83 -22
t-25 -74q0 -47 24.5 -68.5t56.5 -21.5h303v-64h-77zM249 56q36 0 60.5 7t38.5 20.5t20 33t6 45.5v88h-148q-42 0 -69.5 -23t-27.5 -73q0 -55 32.5 -76.5t87.5 -21.5z" />
    <glyph glyph-name="one.smcp" horiz-adv-x="306" 
d="M138 0v490h-88v39l116 26h50v-555h-78z" />
    <glyph glyph-name="two.smcp" horiz-adv-x="508" 
d="M60 47q0 55 23 92t58 63.5t75.5 46t75.5 40.5t58 47t23 64q0 24 -5 42.5t-18 31.5t-35.5 19.5t-58.5 6.5q-67 0 -92.5 -25t-25.5 -78h-78q0 83 47.5 126t148.5 43q54 0 91 -11.5t60 -32.5t33.5 -51.5t10.5 -69.5q0 -49 -23 -82.5t-57 -57.5t-74.5 -43t-75 -40t-58 -47
t-24.5 -65h319v-66h-398v47z" />
    <glyph glyph-name="three.smcp" horiz-adv-x="512" 
d="M50 397q0 89 50.5 129t145.5 40q103 0 150 -40t47 -125q0 -45 -23 -74.5t-63 -42.5q51 -13 78 -44t27 -86q0 -83 -49.5 -124t-160.5 -41q-109 0 -155.5 40t-46.5 129h78q0 -56 26 -79.5t98 -23.5q73 0 102.5 23t29.5 79q0 43 -22 68t-75 25h-76v64h76q41 0 59 25.5
t18 59.5q0 54 -26 77.5t-92 23.5q-62 0 -90 -23t-28 -80h-78z" />
    <glyph glyph-name="four.smcp" horiz-adv-x="499" 
d="M322 120h-292v59l279 376h91v-369h69v-66h-69v-120h-78v120zM322 186v288l-214 -288h214z" />
    <glyph glyph-name="five.smcp" horiz-adv-x="510" 
d="M64 255l28 300h335v-66h-267l-16 -175q32 20 67 31.5t72 11.5q89 0 133 -41t44 -139q0 -94 -47 -141t-160 -47q-59 0 -98 12.5t-62 35.5t-33 54.5t-10 70.5h78q0 -52 28 -79.5t97 -27.5q38 0 63 7t39.5 22t20.5 38t6 55q0 70 -27.5 96.5t-86.5 26.5q-38 0 -71 -13
t-58 -32h-75z" />
    <glyph glyph-name="six.smcp" horiz-adv-x="507" 
d="M128 301q32 18 70.5 29t74.5 11q101 0 142.5 -41t41.5 -131q0 -92 -49 -136t-153 -44q-53 0 -92 10t-64 33.5t-37 62.5t-12 97v167q0 113 49 160t152 47q94 0 141 -35.5t49 -122.5h-78q0 50 -25 71t-88 21q-34 0 -57.5 -7t-37.5 -23t-20.5 -43.5t-6.5 -67.5v-58zM259 285
q-35 0 -68 -10.5t-63 -27.5v-61q0 -40 7.5 -65.5t23.5 -40t40 -20t56 -5.5q66 0 95 27.5t29 87.5q0 33 -5.5 55t-19.5 35.5t-37 19t-58 5.5z" />
    <glyph glyph-name="seven.smcp" horiz-adv-x="434" 
d="M119 0l204 489h-293v66h374v-57l-202 -498h-83z" />
    <glyph glyph-name="eight.smcp" horiz-adv-x="530" 
d="M265 -11q-114 0 -164.5 38t-50.5 118q0 52 29 87.5t88 50.5q-53 13 -76 49.5t-23 85.5q0 80 53.5 114t143.5 34q45 0 81 -8t61.5 -26t39.5 -46t14 -68q0 -49 -23 -85.5t-75 -49.5q59 -15 88 -50.5t29 -87.5q0 -80 -50.5 -118t-164.5 -38zM288 313q45 0 69.5 24t24.5 68
q0 56 -29.5 75.5t-87.5 19.5q-60 0 -89 -19.5t-29 -75.5q0 -44 25 -68t70 -24h46zM242 253q-32 0 -53.5 -8t-34.5 -21.5t-19 -31.5t-6 -37q0 -53 30.5 -76.5t105.5 -23.5t105.5 23.5t30.5 76.5q0 19 -6 37t-19.5 31.5t-35.5 21.5t-53 8h-45z" />
    <glyph glyph-name="nine.smcp" horiz-adv-x="507" 
d="M379 254q-32 -18 -70.5 -29t-74.5 -11q-101 0 -142.5 41t-41.5 131q0 92 49 136t153 44q53 0 92 -10t64 -33.5t37 -62.5t12 -97v-167q0 -113 -49 -160t-152 -47q-95 0 -142 35.5t-48 122.5h78q0 -50 25 -71t88 -21q34 0 57.5 7t37.5 23t20.5 43t6.5 68v58zM248 270
q35 0 68 10.5t63 27.5v61q0 40 -8 65.5t-23.5 40t-39.5 20t-56 5.5q-66 0 -95 -27.5t-29 -87.5q0 -33 5.5 -55t19.5 -35.5t37 -19t58 -5.5z" />
    <glyph glyph-name="zero.smcp" horiz-adv-x="507" 
d="M457 198q0 -113 -50.5 -161t-153.5 -48t-153 48t-50 161v159q0 113 51 161t152 48q102 0 153 -48t51 -161v-159zM379 357q0 81 -29.5 112t-96.5 31t-96 -31t-29 -112v-159q0 -81 29 -112t96 -31t96.5 31t29.5 112v159z" />
    <glyph glyph-name="dollar.smcp" horiz-adv-x="523" 
d="M463 166q0 -27 -5.5 -52.5t-23 -45.5t-50 -33.5t-86.5 -16.5v-86h-72v86q-48 3 -80 15t-51 32t-27 47.5t-8 60.5h78q0 -48 25.5 -69t95.5 -21q40 0 65 6t38.5 16.5t18 26t4.5 34.5q0 20 -5.5 34.5t-20.5 24.5t-40.5 16t-65.5 9q-50 4 -85 14.5t-57 27.5t-32 42t-10 58
q0 69 42 103.5t115 40.5v86h72v-86q79 -6 116 -43t37 -112h-78q0 22 -5 39t-18 28.5t-35 17.5t-55 6q-56 0 -84.5 -18.5t-28.5 -62.5q0 -42 26.5 -60t92.5 -23q59 -5 97 -15t60.5 -26.5t31 -41.5t8.5 -59z" />
    <glyph glyph-name="cent.smcp" horiz-adv-x="526" 
d="M271 472q-38 0 -63 -7t-41 -26t-22.5 -51t-6.5 -83v-54q0 -51 6.5 -83.5t22.5 -51.5t41 -26t63 -7q33 0 55.5 5.5t36 17.5t19 31t6.5 47h78q0 -84 -40 -122t-121 -44v-85h-72v86q-44 3 -76.5 16t-54 40t-32 70t-10.5 106v54q0 63 10.5 105.5t32 69.5t54 40t76.5 16v87h72
v-86q81 -6 121 -44t40 -121h-78q-1 27 -6.5 46t-19 31t-36 17.5t-55.5 5.5z" />
    <glyph glyph-name="sterling.smcp" horiz-adv-x="547" 
d="M172 404q0 -32 6.5 -60t14.5 -54h113v-54h-97q5 -15 7.5 -31t2.5 -31q0 -38 -9 -64.5t-32 -43.5h155q50 0 68 17t18 62h78q0 -40 -8 -67.5t-25 -45t-45 -25t-68 -7.5h-291v66q54 0 75.5 25t21.5 77q0 15 -5 33t-10 35h-82v54h61q-11 26 -19 55.5t-8 64.5q0 79 47 117
t133 38q97 0 138.5 -40t41.5 -120h-78q0 51 -23 72.5t-79 21.5q-53 0 -77.5 -22.5t-24.5 -72.5z" />
    <glyph glyph-name="Euro.smcp" horiz-adv-x="565" 
d="M189 305v-56h170l-9 -50h-161v-16q0 -37 6.5 -61.5t21.5 -39.5t39.5 -21t60.5 -6q66 0 93 22.5t27 81.5h78q0 -47 -11 -79t-35 -52.5t-61.5 -29.5t-90.5 -9q-55 0 -94 11t-64 34.5t-36.5 61t-11.5 90.5v13h-61v50h61v56h-61v50h61v13q0 53 11 90.5t35.5 61.5t63.5 35
t96 11q106 0 152 -38t46 -129h-78q0 58 -28 79.5t-92 21.5q-36 0 -60.5 -6.5t-39.5 -21.5t-21.5 -39.5t-6.5 -61.5v-16h188l-8 -50h-180z" />
    <glyph glyph-name="yen.smcp" horiz-adv-x="504" 
d="M213 126v46h-136v50h136l-173 333h85l126 -268h2l126 268h85l-173 -333h136v-50h-136v-46h136v-50h-136v-76h-78v76h-136v50h136z" />
    <glyph glyph-name="numbersign.smcp" horiz-adv-x="549" 
d="M474 139h-89l-12 -139h-66l12 139h-114l-12 -139h-66l12 139h-89l5 56h89l15 166h-89l5 56h89l12 138h66l-12 -138h114l12 138h66l-12 -138h89l-5 -56h-89l-15 -166h89zM210 195h114l15 166h-114z" />
    <glyph glyph-name="percent.smcp" horiz-adv-x="598" 
d="M147 0h-74l378 555h74zM284 440q0 -71 -28.5 -98.5t-88.5 -27.5t-88.5 27.5t-28.5 98.5q0 70 28.5 97.5t88.5 27.5t88.5 -27.5t28.5 -97.5zM110 442q0 -47 13 -62t44 -15q30 0 43.5 15t13.5 60q0 44 -13.5 59t-43.5 15t-43.5 -15t-13.5 -57zM548 115q0 -71 -29 -98
t-88 -27q-60 0 -89 27t-29 98t29 98.5t89 27.5t88.5 -27.5t28.5 -98.5zM374 118q0 -47 12.5 -62.5t44.5 -15.5q30 0 43.5 15t13.5 60q0 44 -13.5 59.5t-43.5 15.5t-43.5 -15t-13.5 -57z" />
    <glyph glyph-name="one.tnum_smcp" horiz-adv-x="520" 
d="M232 66v423h-102v40l110 26h70v-489h77v-66h-232v66h77z" />
    <glyph glyph-name="two.tnum_smcp" horiz-adv-x="520" 
d="M61 47q0 55 23 92t58 63.5t75.5 46t75.5 40.5t58 47t23 64q0 24 -5 42.5t-18 31.5t-35.5 19.5t-58.5 6.5q-67 0 -92.5 -25t-25.5 -78h-78q0 83 47.5 126t148.5 43q54 0 91 -11.5t60 -32.5t33.5 -51.5t10.5 -69.5q0 -49 -23 -82.5t-57 -57.5t-74.5 -43t-75 -40t-58 -47
t-24.5 -65h319v-66h-398v47z" />
    <glyph glyph-name="three.tnum_smcp" horiz-adv-x="520" 
d="M54 397q0 89 50.5 129t145.5 40q103 0 150 -40t47 -125q0 -45 -23 -74.5t-63 -42.5q51 -13 78 -44t27 -86q0 -83 -49.5 -124t-160.5 -41q-109 0 -155.5 40t-46.5 129h78q0 -56 26 -79.5t98 -23.5q73 0 102.5 23t29.5 79q0 43 -22 68t-75 25h-76v64h76q41 0 59 25.5
t18 59.5q0 54 -26 77.5t-92 23.5q-62 0 -90 -23t-28 -80h-78z" />
    <glyph glyph-name="four.tnum_smcp" horiz-adv-x="520" 
d="M332 120h-292v59l279 376h91v-369h69v-66h-69v-120h-78v120zM332 186v288l-214 -288h214z" />
    <glyph glyph-name="five.tnum_smcp" horiz-adv-x="520" 
d="M69 255l28 300h335v-66h-267l-16 -175q32 20 67 31.5t72 11.5q89 0 133 -41t44 -139q0 -94 -47 -141t-160 -47q-59 0 -98 12.5t-62 35.5t-33 54.5t-10 70.5h78q0 -52 28 -79.5t97 -27.5q38 0 63 7t39.5 22t20.5 38t6 55q0 70 -27.5 96.5t-86.5 26.5q-38 0 -71 -13
t-58 -32h-75z" />
    <glyph glyph-name="six.tnum_smcp" horiz-adv-x="520" 
d="M134 301q32 18 70.5 29t74.5 11q101 0 142.5 -41t41.5 -131q0 -92 -49 -136t-153 -44q-53 0 -92 10t-64 33.5t-37 62.5t-12 97v167q0 113 49 160t152 47q94 0 141 -35.5t49 -122.5h-78q0 50 -25 71t-88 21q-34 0 -57.5 -7t-37.5 -23t-20.5 -43.5t-6.5 -67.5v-58zM265 285
q-35 0 -68 -10.5t-63 -27.5v-61q0 -40 7.5 -65.5t23.5 -40t40 -20t56 -5.5q66 0 95 27.5t29 87.5q0 33 -5.5 55t-19.5 35.5t-37 19t-58 5.5z" />
    <glyph glyph-name="seven.tnum_smcp" horiz-adv-x="520" 
d="M162 0l204 489h-293v66h374v-57l-202 -498h-83z" />
    <glyph glyph-name="eight.tnum_smcp" horiz-adv-x="520" 
d="M260 -11q-114 0 -164.5 38t-50.5 118q0 52 29 87.5t88 50.5q-53 13 -76 49.5t-23 85.5q0 80 53.5 114t143.5 34q45 0 81 -8t61.5 -26t39.5 -46t14 -68q0 -49 -23 -85.5t-75 -49.5q59 -15 88 -50.5t29 -87.5q0 -80 -50.5 -118t-164.5 -38zM283 313q45 0 69.5 24t24.5 68
q0 56 -29.5 75.5t-87.5 19.5q-60 0 -89 -19.5t-29 -75.5q0 -44 25 -68t70 -24h46zM237 253q-32 0 -53.5 -8t-34.5 -21.5t-19 -31.5t-6 -37q0 -53 30.5 -76.5t105.5 -23.5t105.5 23.5t30.5 76.5q0 19 -6 37t-19.5 31.5t-35.5 21.5t-53 8h-45z" />
    <glyph glyph-name="nine.tnum_smcp" horiz-adv-x="520" 
d="M385 254q-32 -18 -70.5 -29t-74.5 -11q-101 0 -142.5 41t-41.5 131q0 92 49 136t153 44q53 0 92 -10t64 -33.5t37 -62.5t12 -97v-167q0 -113 -49 -160t-152 -47q-95 0 -142 35.5t-48 122.5h78q0 -50 25 -71t88 -21q34 0 57.5 7t37.5 23t20.5 43t6.5 68v58zM254 270
q35 0 68 10.5t63 27.5v61q0 40 -8 65.5t-23.5 40t-39.5 20t-56 5.5q-66 0 -95 -27.5t-29 -87.5q0 -33 5.5 -55t19.5 -35.5t37 -19t58 -5.5z" />
    <glyph glyph-name="zero.tnum_smcp" horiz-adv-x="520" 
d="M463 198q0 -113 -50.5 -161t-153.5 -48t-153 48t-50 161v159q0 113 51 161t152 48q102 0 153 -48t51 -161v-159zM385 357q0 81 -29.5 112t-96.5 31t-96 -31t-29 -112v-159q0 -81 29 -112t96 -31t96.5 31t29.5 112v159z" />
    <glyph glyph-name="dollar.tnum_smcp" horiz-adv-x="520" 
d="M461 166q0 -27 -5.5 -52.5t-23 -45.5t-50 -33.5t-86.5 -16.5v-86h-72v86q-48 3 -80 15t-51 32t-27 47.5t-8 60.5h78q0 -48 25.5 -69t95.5 -21q40 0 65 6t38.5 16.5t18 26t4.5 34.5q0 20 -5.5 34.5t-20.5 24.5t-40.5 16t-65.5 9q-50 4 -85 14.5t-57 27.5t-32 42t-10 58
q0 69 42 103.5t115 40.5v86h72v-86q79 -6 116 -43t37 -112h-78q0 22 -5 39t-18 28.5t-35 17.5t-55 6q-56 0 -84.5 -18.5t-28.5 -62.5q0 -42 26.5 -60t92.5 -23q59 -5 97 -15t60.5 -26.5t31 -41.5t8.5 -59z" />
    <glyph glyph-name="cent.tnum_smcp" horiz-adv-x="520" 
d="M268 472q-38 0 -63 -7t-41 -26t-22.5 -51t-6.5 -83v-54q0 -51 6.5 -83.5t22.5 -51.5t41 -26t63 -7q33 0 55.5 5.5t36 17.5t19 31t6.5 47h78q0 -84 -40 -122t-121 -44v-85h-72v86q-44 3 -76.5 16t-54 40t-32 70t-10.5 106v54q0 63 10.5 105.5t32 69.5t54 40t76.5 16v87h72
v-86q81 -6 121 -44t40 -121h-78q-1 27 -6.5 46t-19 31t-36 17.5t-55.5 5.5z" />
    <glyph glyph-name="sterling.tnum_smcp" horiz-adv-x="520" 
d="M153 404q0 -32 6.5 -60t14.5 -54h113v-54h-97q5 -15 7.5 -31t2.5 -31q0 -38 -9 -64.5t-32 -43.5h155q50 0 68 17t18 62h78q0 -40 -8 -67.5t-25 -45t-45 -25t-68 -7.5h-291v66q54 0 75.5 25t21.5 77q0 15 -5 33t-10 35h-82v54h61q-11 26 -19 55.5t-8 64.5q0 79 47 117
t133 38q97 0 138.5 -40t41.5 -120h-78q0 51 -23 72.5t-79 21.5q-53 0 -77.5 -22.5t-24.5 -72.5z" />
    <glyph glyph-name="Euro.tnum_smcp" horiz-adv-x="520" 
d="M166 305v-56h170l-9 -50h-161v-16q0 -37 6.5 -61.5t21.5 -39.5t39.5 -21t60.5 -6q66 0 93 22.5t27 81.5h78q0 -47 -11 -79t-35 -52.5t-61.5 -29.5t-90.5 -9q-55 0 -94 11t-64 34.5t-36.5 61t-11.5 90.5v13h-61v50h61v56h-61v50h61v13q0 53 11 90.5t35.5 61.5t63.5 35
t96 11q106 0 152 -38t46 -129h-78q0 58 -28 79.5t-92 21.5q-36 0 -60.5 -6.5t-39.5 -21.5t-21.5 -39.5t-6.5 -61.5v-16h188l-8 -50h-180z" />
    <glyph glyph-name="yen.tnum_smcp" horiz-adv-x="520" 
d="M221 126v46h-136v50h136l-173 333h85l126 -268h2l126 268h85l-173 -333h136v-50h-136v-46h136v-50h-136v-76h-78v76h-136v50h136z" />
    <glyph glyph-name="numbersign.tnum_smcp" horiz-adv-x="520" 
d="M459 139h-89l-12 -139h-66l12 139h-114l-12 -139h-66l12 139h-89l5 56h89l15 166h-89l5 56h89l12 138h66l-12 -138h114l12 138h66l-12 -138h89l-5 -56h-89l-15 -166h89zM195 195h114l15 166h-114z" />
    <glyph glyph-name="percent.tnum_smcp" horiz-adv-x="520" 
d="M108 0h-74l378 555h74zM245 440q0 -71 -28.5 -98.5t-88.5 -27.5t-88.5 27.5t-28.5 98.5q0 70 28.5 97.5t88.5 27.5t88.5 -27.5t28.5 -97.5zM71 442q0 -47 13 -62t44 -15q30 0 43.5 15t13.5 60q0 44 -13.5 59t-43.5 15t-43.5 -15t-13.5 -57zM509 115q0 -71 -29 -98
t-88 -27q-60 0 -89 27t-29 98t29 98.5t89 27.5t88.5 -27.5t28.5 -98.5zM335 118q0 -47 12.5 -62.5t44.5 -15.5q30 0 43.5 15t13.5 60q0 44 -13.5 59.5t-43.5 15.5t-43.5 -15t-13.5 -57z" />
    <glyph glyph-name="acute.smcp" horiz-adv-x="243" 
d="M93 720h90l-79 -120h-44z" />
    <glyph glyph-name="grave.smcp" horiz-adv-x="243" 
d="M183 600h-44l-79 120h90z" />
    <glyph glyph-name="circumflex.smcp" horiz-adv-x="336" 
d="M276 600h-53l-55 69l-55 -69h-53l65 120h86z" />
    <glyph glyph-name="dieresis.smcp" horiz-adv-x="356" 
d="M60 700h82v-82h-82v82zM214 700h82v-82h-82v82z" />
    <glyph glyph-name="tilde.smcp" horiz-adv-x="404" 
d="M264 596q-22 0 -37.5 8t-28 18t-24.5 18t-28 8q-22 0 -29 -12t-7 -30h-50q0 50 18 76t62 26q22 0 37 -8t28 -18t25 -18t28 -8q22 0 29 12t7 30h50q0 -50 -18 -76t-62 -26z" />
    <glyph glyph-name="caron.smcp" horiz-adv-x="336" 
d="M211 600h-86l-65 120h53l55 -69l55 69h53z" />
    <glyph glyph-name="ring.smcp" horiz-adv-x="317" 
d="M257 679q0 -42 -25.5 -63.5t-72.5 -21.5q-48 0 -73.5 21.5t-25.5 63.5t25.5 63.5t73.5 21.5q47 0 72.5 -21.5t25.5 -63.5zM204 679q0 20 -10.5 30t-34.5 10q-25 0 -35.5 -10t-10.5 -30t10.5 -30t35.5 -10q24 0 34.5 10t10.5 30z" />
    <glyph glyph-name="breve.smcp" horiz-adv-x="359" 
d="M180 648q65 0 65 72h54q0 -61 -29.5 -93.5t-89.5 -32.5t-90 32.5t-30 93.5h55q0 -72 65 -72z" />
    <glyph glyph-name="macron.smcp" horiz-adv-x="370" 
d="M70 680h230v-60h-230v60z" />
    <glyph glyph-name="dotaccent.smcp" horiz-adv-x="202" 
d="M60 700h82v-82h-82v82z" />
    <glyph glyph-name="hungarumlaut.smcp" horiz-adv-x="360" 
d="M78 710h83l-54 -120h-47zM216 710h84l-73 -120h-51z" />
    <glyph glyph-name="aacute.smcp" horiz-adv-x="484" 
d="M346 130h-207l-39 -130h-80l175 555h95l174 -555h-80zM157 198h170l-84 285h-2zM255 720h90l-79 -120h-44z" />
    <glyph glyph-name="agrave.smcp" horiz-adv-x="484" 
d="M346 130h-207l-39 -130h-80l175 555h95l174 -555h-80zM157 198h170l-84 285h-2zM303 600h-44l-79 120h90z" />
    <glyph glyph-name="acircumflex.smcp" horiz-adv-x="484" 
d="M346 130h-207l-39 -130h-80l175 555h95l174 -555h-80zM157 198h170l-84 285h-2zM350 600h-53l-55 69l-55 -69h-53l65 120h86z" />
    <glyph glyph-name="adieresis.smcp" horiz-adv-x="484" 
d="M346 130h-207l-39 -130h-80l175 555h95l174 -555h-80zM157 198h170l-84 285h-2zM124 700h82v-82h-82v82zM278 700h82v-82h-82v82z" />
    <glyph glyph-name="atilde.smcp" horiz-adv-x="484" 
d="M346 130h-207l-39 -130h-80l175 555h95l174 -555h-80zM157 198h170l-84 285h-2zM304 596q-22 0 -37.5 8t-28 18t-24.5 18t-28 8q-22 0 -29 -12t-7 -30h-50q0 50 18 76t62 26q22 0 37 -8t28 -18t25 -18t28 -8q22 0 29 12t7 30h50q0 -50 -18 -76t-62 -26z" />
    <glyph glyph-name="aring.smcp" horiz-adv-x="484" 
d="M346 130h-207l-39 -130h-80l175 555h95l174 -555h-80zM157 198h170l-84 285h-2zM340 679q0 -42 -25.5 -63.5t-72.5 -21.5q-48 0 -73.5 21.5t-25.5 63.5t25.5 63.5t73.5 21.5q47 0 72.5 -21.5t25.5 -63.5zM287 679q0 20 -10.5 30t-34.5 10q-25 0 -35.5 -10t-10.5 -30
t10.5 -30t35.5 -10q24 0 34.5 10t10.5 30z" />
    <glyph glyph-name="amacron.smcp" horiz-adv-x="484" 
d="M346 130h-207l-39 -130h-80l175 555h95l174 -555h-80zM157 198h170l-84 285h-2zM127 680h230v-60h-230v60z" />
    <glyph glyph-name="abreve.smcp" horiz-adv-x="484" 
d="M346 130h-207l-39 -130h-80l175 555h95l174 -555h-80zM157 198h170l-84 285h-2zM242 648q65 0 65 72h54q0 -61 -29.5 -93.5t-89.5 -32.5t-90 32.5t-30 93.5h55q0 -72 65 -72z" />
    <glyph glyph-name="aogonek.smcp" horiz-adv-x="484" 
d="M464 0q-31 -20 -46 -41.5t-15 -41.5q0 -19 10.5 -26t28.5 -7h20v-54h-47q-75 0 -75 71q0 24 13 46.5t36 41.5l-43 141h-207l-39 -130h-80l175 555h95zM157 198h170l-84 285h-2z" />
    <glyph glyph-name="ae.smcp" horiz-adv-x="780" 
d="M697 248h-232v-182h265v-66h-343v130h-211l-76 -130h-85l334 555h381v-66h-265v-177h232v-64zM214 198h173v291h-2z" />
    <glyph glyph-name="bdotaccent.smcp" horiz-adv-x="511" 
d="M60 555h200q100 0 141 -36t41 -108q0 -49 -24.5 -82t-66.5 -47q58 -16 84 -48.5t26 -85.5q0 -80 -45.5 -114t-145.5 -34h-210v555zM138 248v-182h131q33 0 55 5t35 16t18.5 28t5.5 41q0 47 -24.5 69.5t-84.5 22.5h-136zM138 312h133q53 0 73.5 25t20.5 66q0 48 -23.5 67
t-84.5 19h-119v-177zM214 700h82v-82h-82v82z" />
    <glyph glyph-name="cacute.smcp" horiz-adv-x="502" 
d="M255 56q66 0 92.5 23t26.5 80h78q0 -85 -45.5 -127t-151.5 -42q-53 0 -91.5 10t-64 34t-37.5 63t-12 96v170q0 108 48.5 155t156.5 47q106 0 151.5 -41.5t45.5 -127.5h-78q0 57 -26.5 80t-92.5 23q-38 0 -62.5 -7.5t-39 -24t-20 -42t-5.5 -61.5v-172q0 -37 5.5 -62.5
t19.5 -42t39 -24t63 -7.5zM272 720h90l-79 -120h-44z" />
    <glyph glyph-name="ccircumflex.smcp" horiz-adv-x="502" 
d="M255 56q66 0 92.5 23t26.5 80h78q0 -85 -45.5 -127t-151.5 -42q-53 0 -91.5 10t-64 34t-37.5 63t-12 96v170q0 108 48.5 155t156.5 47q106 0 151.5 -41.5t45.5 -127.5h-78q0 57 -26.5 80t-92.5 23q-38 0 -62.5 -7.5t-39 -24t-20 -42t-5.5 -61.5v-172q0 -37 5.5 -62.5
t19.5 -42t39 -24t63 -7.5zM359 600h-53l-55 69l-55 -69h-53l65 120h86z" />
    <glyph glyph-name="ccaron.smcp" horiz-adv-x="502" 
d="M255 56q66 0 92.5 23t26.5 80h78q0 -85 -45.5 -127t-151.5 -42q-53 0 -91.5 10t-64 34t-37.5 63t-12 96v170q0 108 48.5 155t156.5 47q106 0 151.5 -41.5t45.5 -127.5h-78q0 57 -26.5 80t-92.5 23q-38 0 -62.5 -7.5t-39 -24t-20 -42t-5.5 -61.5v-172q0 -37 5.5 -62.5
t19.5 -42t39 -24t63 -7.5zM294 600h-86l-65 120h53l55 -69l55 69h53z" />
    <glyph glyph-name="ccedilla.smcp" horiz-adv-x="502" 
d="M255 56q66 0 92.5 23t26.5 80h78q0 -81 -41 -122.5t-136 -45.5l-10 -37q33 -2 51 -18t18 -51q0 -41 -24.5 -59t-76.5 -18h-66v48h64q25 0 33 7.5t8 21.5q0 15 -8 22t-33 7h-27l24 77q-46 3 -79.5 14.5t-55.5 35.5t-32.5 61t-10.5 91v170q0 108 48.5 155t156.5 47
q106 0 151.5 -41.5t45.5 -127.5h-78q0 57 -26.5 80t-92.5 23q-38 0 -62.5 -7.5t-39 -24t-20 -42t-5.5 -61.5v-172q0 -37 5.5 -62.5t19.5 -42t39 -24t63 -7.5z" />
    <glyph glyph-name="cdotaccent.smcp" horiz-adv-x="502" 
d="M255 56q66 0 92.5 23t26.5 80h78q0 -85 -45.5 -127t-151.5 -42q-53 0 -91.5 10t-64 34t-37.5 63t-12 96v170q0 108 48.5 155t156.5 47q106 0 151.5 -41.5t45.5 -127.5h-78q0 57 -26.5 80t-92.5 23q-38 0 -62.5 -7.5t-39 -24t-20 -42t-5.5 -61.5v-172q0 -37 5.5 -62.5
t19.5 -42t39 -24t63 -7.5zM219 700h82v-82h-82v82z" />
    <glyph glyph-name="dcaron.smcp" horiz-adv-x="515" 
d="M60 0v555h189q53 0 93.5 -9t67.5 -31t41 -60.5t14 -96.5v-159q0 -59 -14 -97t-41 -61t-67.5 -32t-93.5 -9h-189zM244 66q38 0 65 5.5t44.5 20.5t25.5 40.5t8 65.5v159q0 40 -8 65.5t-25.5 40.5t-44.5 20.5t-65 5.5h-106v-423h106zM290 600h-86l-65 120h53l55 -69l55 69
h53z" />
    <glyph glyph-name="ddotaccent.smcp" horiz-adv-x="515" 
d="M60 0v555h189q53 0 93.5 -9t67.5 -31t41 -60.5t14 -96.5v-159q0 -59 -14 -97t-41 -61t-67.5 -32t-93.5 -9h-189zM244 66q38 0 65 5.5t44.5 20.5t25.5 40.5t8 65.5v159q0 40 -8 65.5t-25.5 40.5t-44.5 20.5t-65 5.5h-106v-423h106zM216 700h82v-82h-82v82z" />
    <glyph glyph-name="dcroat.smcp" horiz-adv-x="515" 
d="M10 308h50v247h189q53 0 93.5 -9t67.5 -31t41 -60.5t14 -96.5v-159q0 -59 -14 -97t-41 -61t-67.5 -32t-93.5 -9h-189v248h-50v60zM244 66q38 0 65 5.5t44.5 20.5t25.5 40.5t8 65.5v159q0 40 -8 65.5t-25.5 40.5t-44.5 20.5t-65 5.5h-106v-181h102v-60h-102v-182h106z" />
    <glyph glyph-name="eth.smcp" horiz-adv-x="515" 
d="M10 308h50v247h189q53 0 93.5 -9t67.5 -31t41 -60.5t14 -96.5v-159q0 -59 -14 -97t-41 -61t-67.5 -32t-93.5 -9h-189v248h-50v60zM244 66q38 0 65 5.5t44.5 20.5t25.5 40.5t8 65.5v159q0 40 -8 65.5t-25.5 40.5t-44.5 20.5t-65 5.5h-106v-181h102v-60h-102v-182h106z" />
    <glyph glyph-name="eacute.smcp" horiz-adv-x="453" 
d="M370 248h-232v-182h265v-66h-343v555h343v-66h-265v-177h232v-64zM254 720h90l-79 -120h-44z" />
    <glyph glyph-name="egrave.smcp" horiz-adv-x="453" 
d="M370 248h-232v-182h265v-66h-343v555h343v-66h-265v-177h232v-64zM288 600h-44l-79 120h90z" />
    <glyph glyph-name="ecircumflex.smcp" horiz-adv-x="453" 
d="M370 248h-232v-182h265v-66h-343v555h343v-66h-265v-177h232v-64zM344 600h-53l-55 69l-55 -69h-53l65 120h86z" />
    <glyph glyph-name="edieresis.smcp" horiz-adv-x="453" 
d="M370 248h-232v-182h265v-66h-343v555h343v-66h-265v-177h232v-64zM113 700h82v-82h-82v82zM267 700h82v-82h-82v82z" />
    <glyph glyph-name="ecaron.smcp" horiz-adv-x="453" 
d="M370 248h-232v-182h265v-66h-343v555h343v-66h-265v-177h232v-64zM274 600h-86l-65 120h53l55 -69l55 69h53z" />
    <glyph glyph-name="emacron.smcp" horiz-adv-x="453" 
d="M370 248h-232v-182h265v-66h-343v555h343v-66h-265v-177h232v-64zM120 680h230v-60h-230v60z" />
    <glyph glyph-name="ebreve.smcp" horiz-adv-x="453" 
d="M370 248h-232v-182h265v-66h-343v555h343v-66h-265v-177h232v-64zM237 648q65 0 65 72h54q0 -61 -29.5 -93.5t-89.5 -32.5t-90 32.5t-30 93.5h55q0 -72 65 -72z" />
    <glyph glyph-name="eogonek.smcp" horiz-adv-x="453" 
d="M60 0v555h343v-66h-265v-177h232v-64h-232v-182h265v-66q-31 -20 -46 -41.5t-15 -41.5q0 -19 10.5 -26t28.5 -7h20v-54h-47q-75 0 -75 71q0 28 17 53.5t48 45.5h-284z" />
    <glyph glyph-name="edotaccent.smcp" horiz-adv-x="453" 
d="M370 248h-232v-182h265v-66h-343v555h343v-66h-265v-177h232v-64zM195 700h82v-82h-82v82z" />
    <glyph glyph-name="fdotaccent.smcp" horiz-adv-x="425" 
d="M352 248h-214v-248h-78v555h325v-66h-247v-177h214v-64zM181 700h82v-82h-82v82z" />
    <glyph glyph-name="gcircumflex.smcp" horiz-adv-x="514" 
d="M256 -11q-53 0 -91.5 10t-64 34t-38 63t-12.5 97v172q0 54 11.5 92t36 62t63 35.5t93.5 11.5q106 0 151 -42t45 -128h-78q0 55 -26.5 79.5t-91.5 24.5q-36 0 -60.5 -7.5t-39 -23.5t-20.5 -42t-6 -62v-173q0 -36 5.5 -62t20 -42.5t39 -24.5t63.5 -8q37 0 61 7.5t38.5 21
t20 31t5.5 37.5v92h-117v66h195v-310h-38l-15 50q-22 -26 -55 -43.5t-95 -17.5zM365 600h-53l-55 69l-55 -69h-53l65 120h86z" />
    <glyph glyph-name="gbreve.smcp" horiz-adv-x="514" 
d="M256 -11q-53 0 -91.5 10t-64 34t-38 63t-12.5 97v172q0 54 11.5 92t36 62t63 35.5t93.5 11.5q106 0 151 -42t45 -128h-78q0 55 -26.5 79.5t-91.5 24.5q-36 0 -60.5 -7.5t-39 -23.5t-20.5 -42t-6 -62v-173q0 -36 5.5 -62t20 -42.5t39 -24.5t63.5 -8q37 0 61 7.5t38.5 21
t20 31t5.5 37.5v92h-117v66h195v-310h-38l-15 50q-22 -26 -55 -43.5t-95 -17.5zM257 648q65 0 65 72h54q0 -61 -29.5 -93.5t-89.5 -32.5t-90 32.5t-30 93.5h55q0 -72 65 -72z" />
    <glyph glyph-name="gdotaccent.smcp" horiz-adv-x="514" 
d="M256 -11q-53 0 -91.5 10t-64 34t-38 63t-12.5 97v172q0 54 11.5 92t36 62t63 35.5t93.5 11.5q106 0 151 -42t45 -128h-78q0 55 -26.5 79.5t-91.5 24.5q-36 0 -60.5 -7.5t-39 -23.5t-20.5 -42t-6 -62v-173q0 -36 5.5 -62t20 -42.5t39 -24.5t63.5 -8q37 0 61 7.5t38.5 21
t20 31t5.5 37.5v92h-117v66h195v-310h-38l-15 50q-22 -26 -55 -43.5t-95 -17.5zM216 700h82v-82h-82v82z" />
    <glyph glyph-name="gcommaaccent.smcp" horiz-adv-x="514" 
d="M256 -11q-53 0 -91.5 10t-64 34t-38 63t-12.5 97v172q0 54 11.5 92t36 62t63 35.5t93.5 11.5q106 0 151 -42t45 -128h-78q0 55 -26.5 79.5t-91.5 24.5q-36 0 -60.5 -7.5t-39 -23.5t-20.5 -42t-6 -62v-173q0 -36 5.5 -62t20 -42.5t39 -24.5t63.5 -8q37 0 61 7.5t38.5 21
t20 31t5.5 37.5v92h-117v66h195v-310h-38l-15 50q-22 -26 -55 -43.5t-95 -17.5zM219 -40h90l-79 -120h-44z" />
    <glyph glyph-name="hcircumflex.smcp" horiz-adv-x="514" 
d="M454 0h-78v247h-238v-247h-78v555h78v-242h238v242h78v-555zM365 600h-53l-55 69l-55 -69h-53l65 120h86z" />
    <glyph glyph-name="hbar.smcp" horiz-adv-x="514" 
d="M20 463h40v92h78v-92h238v92h78v-92h40v-60h-40v-403h-78v247h-238v-247h-78v403h-40v60zM376 313v90h-238v-90h238z" />
    <glyph glyph-name="iacute.smcp" horiz-adv-x="198" 
d="M60 555h78v-555h-78v555zM113 720h90l-79 -120h-44z" />
    <glyph glyph-name="igrave.smcp" horiz-adv-x="198" 
d="M60 555h78v-555h-78v555zM130 600h-44l-79 120h90z" />
    <glyph glyph-name="icircumflex.smcp" horiz-adv-x="198" 
d="M60 555h78v-555h-78v555zM208 600h-53l-55 69l-55 -69h-53l65 120h86z" />
    <glyph glyph-name="idieresis.smcp" horiz-adv-x="198" 
d="M60 555h78v-555h-78v555zM-18 700h82v-82h-82v82zM136 700h82v-82h-82v82z" />
    <glyph glyph-name="itilde.smcp" horiz-adv-x="198" 
d="M60 555h78v-555h-78v555zM162 596q-22 0 -37.5 8t-28 18t-24.5 18t-28 8q-22 0 -29 -12t-7 -30h-50q0 50 18 76t62 26q22 0 37 -8t28 -18t25 -18t28 -8q22 0 29 12t7 30h50q0 -50 -18 -76t-62 -26z" />
    <glyph glyph-name="imacron.smcp" horiz-adv-x="198" 
d="M60 555h78v-555h-78v555zM-15 680h230v-60h-230v60z" />
    <glyph glyph-name="ibreve.smcp" horiz-adv-x="198" 
d="M60 555h78v-555h-78v555zM101 648q65 0 65 72h54q0 -61 -29.5 -93.5t-89.5 -32.5t-90 32.5t-30 93.5h55q0 -72 65 -72z" />
    <glyph glyph-name="iogonek.smcp" horiz-adv-x="198" 
d="M14 -99q0 48 46 85v569h78v-555q-31 -20 -46 -41.5t-15 -41.5q0 -19 10.5 -26t28.5 -7h20v-54h-47q-75 0 -75 71z" />
    <glyph glyph-name="jcircumflex.smcp" horiz-adv-x="332" 
d="M84 489v66h188v-437q0 -66 -31.5 -97t-103.5 -31q-26 0 -51 2.5t-46 7.5v66q44 -10 85 -10q37 0 53 14t16 55v364h-110zM275 600h-53l-55 69l-55 -69h-53l65 120h86z" />
    <glyph glyph-name="kcommaaccent.smcp" horiz-adv-x="452" 
d="M138 0h-78v555h78v-236l193 236h96l-227 -268l232 -287h-95l-199 252v-252zM197 -40h90l-79 -120h-44z" />
    <glyph glyph-name="lacute.smcp" horiz-adv-x="384" 
d="M60 555h78v-489h206v-66h-284v555zM113 720h90l-79 -120h-44z" />
    <glyph glyph-name="lcaron.smcp" horiz-adv-x="384" 
d="M192 575h70l-40 -170h-30v170zM60 555h78v-489h206v-66h-284v555z" />
    <glyph glyph-name="lcommaaccent.smcp" horiz-adv-x="384" 
d="M60 555h78v-489h206v-66h-284v555zM163 -40h90l-79 -120h-44z" />
    <glyph glyph-name="ldot.smcp" horiz-adv-x="384" 
d="M60 555h78v-489h206v-66h-284v555zM204 339h98v-97h-98v97z" />
    <glyph glyph-name="lslash.smcp" horiz-adv-x="384" 
d="M60 232l-55 -14v60l55 14v263h78v-242l55 15v-60l-55 -15v-187h206v-66h-284v232z" />
    <glyph glyph-name="mdotaccent.smcp" horiz-adv-x="658" 
d="M328 96h2l152 459h116v-555h-76v470l-159 -470h-69l-158 470v-470h-76v555h115zM288 700h82v-82h-82v82z" />
    <glyph glyph-name="nacute.smcp" horiz-adv-x="525" 
d="M465 0h-100l-229 453v-453h-76v555h100l229 -453v453h76v-555zM270 720h90l-79 -120h-44z" />
    <glyph glyph-name="ntilde.smcp" horiz-adv-x="525" 
d="M465 0h-100l-229 453v-453h-76v555h100l229 -453v453h76v-555zM324 596q-22 0 -37.5 8t-28 18t-24.5 18t-28 8q-22 0 -29 -12t-7 -30h-50q0 50 18 76t62 26q22 0 37 -8t28 -18t25 -18t28 -8q22 0 29 12t7 30h50q0 -50 -18 -76t-62 -26z" />
    <glyph glyph-name="ncaron.smcp" horiz-adv-x="525" 
d="M465 0h-100l-229 453v-453h-76v555h100l229 -453v453h76v-555zM305 600h-86l-65 120h53l55 -69l55 69h53z" />
    <glyph glyph-name="ncommaaccent.smcp" horiz-adv-x="525" 
d="M465 0h-100l-229 453v-453h-76v555h100l229 -453v453h76v-555zM234 -40h90l-79 -120h-44z" />
    <glyph glyph-name="eng.smcp" horiz-adv-x="525" 
d="M465 -52q0 -66 -31.5 -97t-103.5 -31q-26 0 -51 2.5t-46 7.5v66q44 -10 85 -10q37 0 53 14t16 55v45h-22l-229 453v-453h-76v555h100l229 -453v453h76v-607z" />
    <glyph glyph-name="oacute.smcp" horiz-adv-x="518" 
d="M390 359q0 42 -7.5 69.5t-23 43.5t-40.5 22t-60 6t-60 -6t-41 -22t-23 -43.5t-7 -69.5v-163q0 -42 7 -69.5t23 -43.5t41 -22t60 -6t60 6t40.5 22t23 43.5t7.5 69.5v163zM468 196q0 -59 -13 -98.5t-39 -63.5t-65 -34.5t-92 -10.5t-92.5 10.5t-65.5 34.5t-38.5 63.5
t-12.5 98.5v163q0 58 12.5 98t38.5 64t65.5 34.5t92.5 10.5t92 -10.5t65 -34.5t39 -64t13 -98v-163zM273 720h90l-79 -120h-44z" />
    <glyph glyph-name="ograve.smcp" horiz-adv-x="518" 
d="M390 359q0 42 -7.5 69.5t-23 43.5t-40.5 22t-60 6t-60 -6t-41 -22t-23 -43.5t-7 -69.5v-163q0 -42 7 -69.5t23 -43.5t41 -22t60 -6t60 6t40.5 22t23 43.5t7.5 69.5v163zM468 196q0 -59 -13 -98.5t-39 -63.5t-65 -34.5t-92 -10.5t-92.5 10.5t-65.5 34.5t-38.5 63.5
t-12.5 98.5v163q0 58 12.5 98t38.5 64t65.5 34.5t92.5 10.5t92 -10.5t65 -34.5t39 -64t13 -98v-163zM320 600h-44l-79 120h90z" />
    <glyph glyph-name="ocircumflex.smcp" horiz-adv-x="518" 
d="M390 359q0 42 -7.5 69.5t-23 43.5t-40.5 22t-60 6t-60 -6t-41 -22t-23 -43.5t-7 -69.5v-163q0 -42 7 -69.5t23 -43.5t41 -22t60 -6t60 6t40.5 22t23 43.5t7.5 69.5v163zM468 196q0 -59 -13 -98.5t-39 -63.5t-65 -34.5t-92 -10.5t-92.5 10.5t-65.5 34.5t-38.5 63.5
t-12.5 98.5v163q0 58 12.5 98t38.5 64t65.5 34.5t92.5 10.5t92 -10.5t65 -34.5t39 -64t13 -98v-163zM367 600h-53l-55 69l-55 -69h-53l65 120h86z" />
    <glyph glyph-name="odieresis.smcp" horiz-adv-x="518" 
d="M390 359q0 42 -7.5 69.5t-23 43.5t-40.5 22t-60 6t-60 -6t-41 -22t-23 -43.5t-7 -69.5v-163q0 -42 7 -69.5t23 -43.5t41 -22t60 -6t60 6t40.5 22t23 43.5t7.5 69.5v163zM468 196q0 -59 -13 -98.5t-39 -63.5t-65 -34.5t-92 -10.5t-92.5 10.5t-65.5 34.5t-38.5 63.5
t-12.5 98.5v163q0 58 12.5 98t38.5 64t65.5 34.5t92.5 10.5t92 -10.5t65 -34.5t39 -64t13 -98v-163zM141 700h82v-82h-82v82zM295 700h82v-82h-82v82z" />
    <glyph glyph-name="otilde.smcp" horiz-adv-x="518" 
d="M390 359q0 42 -7.5 69.5t-23 43.5t-40.5 22t-60 6t-60 -6t-41 -22t-23 -43.5t-7 -69.5v-163q0 -42 7 -69.5t23 -43.5t41 -22t60 -6t60 6t40.5 22t23 43.5t7.5 69.5v163zM468 196q0 -59 -13 -98.5t-39 -63.5t-65 -34.5t-92 -10.5t-92.5 10.5t-65.5 34.5t-38.5 63.5
t-12.5 98.5v163q0 58 12.5 98t38.5 64t65.5 34.5t92.5 10.5t92 -10.5t65 -34.5t39 -64t13 -98v-163zM321 596q-22 0 -37.5 8t-28 18t-24.5 18t-28 8q-22 0 -29 -12t-7 -30h-50q0 50 18 76t62 26q22 0 37 -8t28 -18t25 -18t28 -8q22 0 29 12t7 30h50q0 -50 -18 -76t-62 -26z
" />
    <glyph glyph-name="obreve.smcp" horiz-adv-x="518" 
d="M390 359q0 42 -7.5 69.5t-23 43.5t-40.5 22t-60 6t-60 -6t-41 -22t-23 -43.5t-7 -69.5v-163q0 -42 7 -69.5t23 -43.5t41 -22t60 -6t60 6t40.5 22t23 43.5t7.5 69.5v163zM468 196q0 -59 -13 -98.5t-39 -63.5t-65 -34.5t-92 -10.5t-92.5 10.5t-65.5 34.5t-38.5 63.5
t-12.5 98.5v163q0 58 12.5 98t38.5 64t65.5 34.5t92.5 10.5t92 -10.5t65 -34.5t39 -64t13 -98v-163zM259 648q65 0 65 72h54q0 -61 -29.5 -93.5t-89.5 -32.5t-90 32.5t-30 93.5h55q0 -72 65 -72z" />
    <glyph glyph-name="omacron.smcp" horiz-adv-x="518" 
d="M390 359q0 42 -7.5 69.5t-23 43.5t-40.5 22t-60 6t-60 -6t-41 -22t-23 -43.5t-7 -69.5v-163q0 -42 7 -69.5t23 -43.5t41 -22t60 -6t60 6t40.5 22t23 43.5t7.5 69.5v163zM468 196q0 -59 -13 -98.5t-39 -63.5t-65 -34.5t-92 -10.5t-92.5 10.5t-65.5 34.5t-38.5 63.5
t-12.5 98.5v163q0 58 12.5 98t38.5 64t65.5 34.5t92.5 10.5t92 -10.5t65 -34.5t39 -64t13 -98v-163zM144 680h230v-60h-230v60z" />
    <glyph glyph-name="ohungarumlaut.smcp" horiz-adv-x="518" 
d="M390 359q0 42 -7.5 69.5t-23 43.5t-40.5 22t-60 6t-60 -6t-41 -22t-23 -43.5t-7 -69.5v-163q0 -42 7 -69.5t23 -43.5t41 -22t60 -6t60 6t40.5 22t23 43.5t7.5 69.5v163zM468 196q0 -59 -13 -98.5t-39 -63.5t-65 -34.5t-92 -10.5t-92.5 10.5t-65.5 34.5t-38.5 63.5
t-12.5 98.5v163q0 58 12.5 98t38.5 64t65.5 34.5t92.5 10.5t92 -10.5t65 -34.5t39 -64t13 -98v-163zM197 710h83l-54 -120h-47zM335 710h84l-73 -120h-51z" />
    <glyph glyph-name="oslash.smcp" horiz-adv-x="518" 
d="M468 196q0 -59 -13 -98.5t-39 -63.5t-65 -34.5t-92 -10.5q-88 0 -137 29l-24 -38h-66l50 76q-32 47 -32 140v163q0 58 12.5 98t38.5 64t65.5 34.5t92.5 10.5q87 0 136 -29l25 38h66l-50 -77q32 -49 32 -139v-163zM390 359q0 18 -1.5 33t-3.5 28l-223 -341q16 -14 40 -19
t57 -5q35 0 60 6t40.5 22t23 43.5t7.5 69.5v163zM128 196q0 -18 1 -33t4 -28l222 341q-16 14 -39.5 19t-56.5 5q-35 0 -60 -6t-41 -22t-23 -43.5t-7 -69.5v-163z" />
    <glyph glyph-name="oe.smcp" horiz-adv-x="771" 
d="M688 248h-232v-182h265v-66h-462q-53 0 -92.5 8.5t-65.5 31t-38.5 60t-12.5 96.5v163q0 58 12.5 96t38.5 60.5t65.5 31t92.5 8.5h462v-66h-265v-177h232v-64zM378 489h-119q-35 0 -60 -4.5t-41 -18t-23 -39.5t-7 -68v-163q0 -42 7 -68t23 -39.5t41 -18t60 -4.5h119v423z
" />
    <glyph glyph-name="thorn.smcp" horiz-adv-x="493" 
d="M138 169h112q68 0 96.5 23t28.5 86t-28.5 85.5t-96.5 22.5h-112v-217zM138 452h112q53 0 91.5 -8.5t63 -28.5t36.5 -53.5t12 -83.5t-12 -83.5t-36.5 -54t-63 -29t-91.5 -8.5h-112v-103h-78v555h78v-103z" />
    <glyph glyph-name="pdotaccent.smcp" horiz-adv-x="493" 
d="M60 555h190q53 0 91.5 -8.5t63 -28.5t36.5 -53.5t12 -83.5q0 -47 -11.5 -80t-36 -54t-62.5 -30.5t-91 -9.5h-114v-207h-78v555zM138 273h114q35 0 58.5 5.5t38 18.5t20.5 33.5t6 50.5q0 63 -28.5 85.5t-96.5 22.5h-112v-216zM205 700h82v-82h-82v82z" />
    <glyph glyph-name="racute.smcp" horiz-adv-x="505" 
d="M138 207v-207h-78v555h190q53 0 91.5 -8.5t63 -28.5t36.5 -53.5t12 -83.5q0 -69 -26 -109t-80 -55q29 -55 58.5 -109t59.5 -108h-84l-111 207h-132zM138 273h114q35 0 58.5 5.5t38 18.5t20.5 33.5t6 50.5q0 63 -28.5 85.5t-96.5 22.5h-112v-216zM224 720h90l-79 -120h-44
z" />
    <glyph glyph-name="rcaron.smcp" horiz-adv-x="505" 
d="M138 207v-207h-78v555h190q53 0 91.5 -8.5t63 -28.5t36.5 -53.5t12 -83.5q0 -69 -26 -109t-80 -55q29 -55 58.5 -109t59.5 -108h-84l-111 207h-132zM138 273h114q35 0 58.5 5.5t38 18.5t20.5 33.5t6 50.5q0 63 -28.5 85.5t-96.5 22.5h-112v-216zM295 600h-86l-65 120h53
l55 -69l55 69h53z" />
    <glyph glyph-name="rcommaaccent.smcp" horiz-adv-x="505" 
d="M138 207v-207h-78v555h190q53 0 91.5 -8.5t63 -28.5t36.5 -53.5t12 -83.5q0 -69 -26 -109t-80 -55q29 -55 58.5 -109t59.5 -108h-84l-111 207h-132zM138 273h114q35 0 58.5 5.5t38 18.5t20.5 33.5t6 50.5q0 63 -28.5 85.5t-96.5 22.5h-112v-216zM224 -40h90l-79 -120h-44
z" />
    <glyph glyph-name="sacute.smcp" horiz-adv-x="487" 
d="M243 55q38 0 62.5 5.5t38.5 17t19.5 29t5.5 40.5q0 25 -4 43t-18 30.5t-40 20.5t-70 14q-102 13 -145.5 49t-43.5 109q0 74 48 113.5t143 39.5q101 0 147 -38t46 -125h-78q0 24 -5 42t-18 30.5t-35.5 18.5t-56.5 6q-60 0 -86.5 -22t-26.5 -67q0 -23 5.5 -39.5t20 -28.5
t38 -19t59.5 -11q62 -7 101 -20.5t60.5 -34t29 -49t7.5 -64.5q0 -75 -46.5 -115.5t-157.5 -40.5q-104 0 -153.5 37t-49.5 127h78q0 -56 28.5 -77t96.5 -21zM215 720h90l-79 -120h-44z" />
    <glyph glyph-name="scircumflex.smcp" horiz-adv-x="487" 
d="M243 55q38 0 62.5 5.5t38.5 17t19.5 29t5.5 40.5q0 25 -4 43t-18 30.5t-40 20.5t-70 14q-102 13 -145.5 49t-43.5 109q0 74 48 113.5t143 39.5q101 0 147 -38t46 -125h-78q0 24 -5 42t-18 30.5t-35.5 18.5t-56.5 6q-60 0 -86.5 -22t-26.5 -67q0 -23 5.5 -39.5t20 -28.5
t38 -19t59.5 -11q62 -7 101 -20.5t60.5 -34t29 -49t7.5 -64.5q0 -75 -46.5 -115.5t-157.5 -40.5q-104 0 -153.5 37t-49.5 127h78q0 -56 28.5 -77t96.5 -21zM351 600h-53l-55 69l-55 -69h-53l65 120h86z" />
    <glyph glyph-name="scaron.smcp" horiz-adv-x="487" 
d="M243 55q38 0 62.5 5.5t38.5 17t19.5 29t5.5 40.5q0 25 -4 43t-18 30.5t-40 20.5t-70 14q-102 13 -145.5 49t-43.5 109q0 74 48 113.5t143 39.5q101 0 147 -38t46 -125h-78q0 24 -5 42t-18 30.5t-35.5 18.5t-56.5 6q-60 0 -86.5 -22t-26.5 -67q0 -23 5.5 -39.5t20 -28.5
t38 -19t59.5 -11q62 -7 101 -20.5t60.5 -34t29 -49t7.5 -64.5q0 -75 -46.5 -115.5t-157.5 -40.5q-104 0 -153.5 37t-49.5 127h78q0 -56 28.5 -77t96.5 -21zM286 600h-86l-65 120h53l55 -69l55 69h53z" />
    <glyph glyph-name="sdotaccent.smcp" horiz-adv-x="487" 
d="M243 55q38 0 62.5 5.5t38.5 17t19.5 29t5.5 40.5q0 25 -4 43t-18 30.5t-40 20.5t-70 14q-102 13 -145.5 49t-43.5 109q0 74 48 113.5t143 39.5q101 0 147 -38t46 -125h-78q0 24 -5 42t-18 30.5t-35.5 18.5t-56.5 6q-60 0 -86.5 -22t-26.5 -67q0 -23 5.5 -39.5t20 -28.5
t38 -19t59.5 -11q62 -7 101 -20.5t60.5 -34t29 -49t7.5 -64.5q0 -75 -46.5 -115.5t-157.5 -40.5q-104 0 -153.5 37t-49.5 127h78q0 -56 28.5 -77t96.5 -21zM202 700h82v-82h-82v82z" />
    <glyph glyph-name="scedilla.smcp" horiz-adv-x="487" 
d="M243 55q38 0 62.5 5.5t38.5 17t19.5 29t5.5 40.5q0 25 -4 43t-18 30.5t-40 20.5t-70 14q-102 13 -145.5 49t-43.5 109q0 74 48 113.5t143 39.5q101 0 147 -38t46 -125h-78q0 24 -5 42t-18 30.5t-35.5 18.5t-56.5 6q-60 0 -86.5 -22t-26.5 -67q0 -23 5.5 -39.5t20 -28.5
t38 -19t59.5 -11q62 -7 101 -20.5t60.5 -34t29 -49t7.5 -64.5q0 -71 -41 -110.5t-138 -44.5l-10 -36q33 -2 51 -18t18 -51q0 -41 -24.5 -59t-76.5 -18h-66v48h64q25 0 33 7.5t8 21.5q0 15 -8 22t-33 7h-27l23 76q-92 4 -136 40.5t-44 122.5h78q0 -56 28.5 -77t96.5 -21z" />
    <glyph glyph-name="scommaaccent.smcp" horiz-adv-x="487" 
d="M243 55q38 0 62.5 5.5t38.5 17t19.5 29t5.5 40.5q0 25 -4 43t-18 30.5t-40 20.5t-70 14q-102 13 -145.5 49t-43.5 109q0 74 48 113.5t143 39.5q101 0 147 -38t46 -125h-78q0 24 -5 42t-18 30.5t-35.5 18.5t-56.5 6q-60 0 -86.5 -22t-26.5 -67q0 -23 5.5 -39.5t20 -28.5
t38 -19t59.5 -11q62 -7 101 -20.5t60.5 -34t29 -49t7.5 -64.5q0 -75 -46.5 -115.5t-157.5 -40.5q-104 0 -153.5 37t-49.5 127h78q0 -56 28.5 -77t96.5 -21zM195 -40h90l-79 -120h-44z" />
    <glyph glyph-name="germandbls.smcp" horiz-adv-x="974" 
d="M243 55q38 0 62.5 5.5t38.5 17t19.5 29t5.5 40.5q0 25 -4 43t-18 30.5t-40 20.5t-70 14q-102 13 -145.5 49t-43.5 109q0 74 48 113.5t143 39.5q101 0 147 -38t46 -125h-78q0 24 -5 42t-18 30.5t-35.5 18.5t-56.5 6q-60 0 -86.5 -22t-26.5 -67q0 -23 5.5 -39.5t20 -28.5
t38 -19t59.5 -11q62 -7 101 -20.5t60.5 -34t29 -49t7.5 -64.5q0 -75 -46.5 -115.5t-157.5 -40.5q-104 0 -153.5 37t-49.5 127h78q0 -56 28.5 -77t96.5 -21zM730 55q38 0 62.5 5.5t38.5 17t19.5 29t5.5 40.5q0 25 -4 43t-18 30.5t-40 20.5t-70 14q-102 13 -145.5 49
t-43.5 109q0 74 48 113.5t143 39.5q101 0 147 -38t46 -125h-78q0 24 -5 42t-18 30.5t-35.5 18.5t-56.5 6q-60 0 -86.5 -22t-26.5 -67q0 -23 5.5 -39.5t20 -28.5t38 -19t59.5 -11q62 -7 101 -20.5t60.5 -34t29 -49t7.5 -64.5q0 -75 -46.5 -115.5t-157.5 -40.5
q-104 0 -153.5 37t-49.5 127h78q0 -56 28.5 -77t96.5 -21z" />
    <glyph glyph-name="tcaron.smcp" horiz-adv-x="438" 
d="M182 489h-152v66h378v-66h-148v-489h-78v489zM262 600h-86l-65 120h53l55 -69l55 69h53z" />
    <glyph glyph-name="tdotaccent.smcp" horiz-adv-x="438" 
d="M182 489h-152v66h378v-66h-148v-489h-78v489zM178 700h82v-82h-82v82z" />
    <glyph glyph-name="tcommaaccent.smcp" horiz-adv-x="438" 
d="M182 489h-152v66h378v-66h-148v-489h-78v489zM190 -40h90l-79 -120h-44z" />
    <glyph glyph-name="tbar.smcp" horiz-adv-x="438" 
d="M104 306h78v183h-152v66h378v-66h-148v-183h74v-60h-74v-246h-78v246h-78v60z" />
    <glyph glyph-name="uacute.smcp" horiz-adv-x="524" 
d="M138 555v-380q0 -67 27 -93.5t97 -26.5t97 26.5t27 93.5v380h78v-380q0 -53 -13.5 -88.5t-39.5 -57.5t-63.5 -31t-85.5 -9t-85.5 9t-63.5 31t-39.5 57.5t-13.5 88.5v380h78zM277 720h90l-79 -120h-44z" />
    <glyph glyph-name="ugrave.smcp" horiz-adv-x="524" 
d="M138 555v-380q0 -67 27 -93.5t97 -26.5t97 26.5t27 93.5v380h78v-380q0 -53 -13.5 -88.5t-39.5 -57.5t-63.5 -31t-85.5 -9t-85.5 9t-63.5 31t-39.5 57.5t-13.5 88.5v380h78zM323 600h-44l-79 120h90z" />
    <glyph glyph-name="ucircumflex.smcp" horiz-adv-x="524" 
d="M138 555v-380q0 -67 27 -93.5t97 -26.5t97 26.5t27 93.5v380h78v-380q0 -53 -13.5 -88.5t-39.5 -57.5t-63.5 -31t-85.5 -9t-85.5 9t-63.5 31t-39.5 57.5t-13.5 88.5v380h78zM370 600h-53l-55 69l-55 -69h-53l65 120h86z" />
    <glyph glyph-name="udieresis.smcp" horiz-adv-x="524" 
d="M138 555v-380q0 -67 27 -93.5t97 -26.5t97 26.5t27 93.5v380h78v-380q0 -53 -13.5 -88.5t-39.5 -57.5t-63.5 -31t-85.5 -9t-85.5 9t-63.5 31t-39.5 57.5t-13.5 88.5v380h78zM144 700h82v-82h-82v82zM298 700h82v-82h-82v82z" />
    <glyph glyph-name="utilde.smcp" horiz-adv-x="524" 
d="M138 555v-380q0 -67 27 -93.5t97 -26.5t97 26.5t27 93.5v380h78v-380q0 -53 -13.5 -88.5t-39.5 -57.5t-63.5 -31t-85.5 -9t-85.5 9t-63.5 31t-39.5 57.5t-13.5 88.5v380h78zM324 596q-22 0 -37.5 8t-28 18t-24.5 18t-28 8q-22 0 -29 -12t-7 -30h-50q0 50 18 76t62 26
q22 0 37 -8t28 -18t25 -18t28 -8q22 0 29 12t7 30h50q0 -50 -18 -76t-62 -26z" />
    <glyph glyph-name="uring.smcp" horiz-adv-x="524" 
d="M138 555v-380q0 -67 27 -93.5t97 -26.5t97 26.5t27 93.5v380h78v-380q0 -53 -13.5 -88.5t-39.5 -57.5t-63.5 -31t-85.5 -9t-85.5 9t-63.5 31t-39.5 57.5t-13.5 88.5v380h78zM360 679q0 -42 -25.5 -63.5t-72.5 -21.5q-48 0 -73.5 21.5t-25.5 63.5t25.5 63.5t73.5 21.5
q47 0 72.5 -21.5t25.5 -63.5zM307 679q0 20 -10.5 30t-34.5 10q-25 0 -35.5 -10t-10.5 -30t10.5 -30t35.5 -10q24 0 34.5 10t10.5 30z" />
    <glyph glyph-name="ubreve.smcp" horiz-adv-x="524" 
d="M138 555v-380q0 -67 27 -93.5t97 -26.5t97 26.5t27 93.5v380h78v-380q0 -53 -13.5 -88.5t-39.5 -57.5t-63.5 -31t-85.5 -9t-85.5 9t-63.5 31t-39.5 57.5t-13.5 88.5v380h78zM262 648q65 0 65 72h54q0 -61 -29.5 -93.5t-89.5 -32.5t-90 32.5t-30 93.5h55q0 -72 65 -72z
" />
    <glyph glyph-name="umacron.smcp" horiz-adv-x="524" 
d="M138 555v-380q0 -67 27 -93.5t97 -26.5t97 26.5t27 93.5v380h78v-380q0 -53 -13.5 -88.5t-39.5 -57.5t-63.5 -31t-85.5 -9t-85.5 9t-63.5 31t-39.5 57.5t-13.5 88.5v380h78zM147 680h230v-60h-230v60z" />
    <glyph glyph-name="uhungarumlaut.smcp" horiz-adv-x="524" 
d="M138 555v-380q0 -67 27 -93.5t97 -26.5t97 26.5t27 93.5v380h78v-380q0 -53 -13.5 -88.5t-39.5 -57.5t-63.5 -31t-85.5 -9t-85.5 9t-63.5 31t-39.5 57.5t-13.5 88.5v380h78zM196 710h83l-54 -120h-47zM334 710h84l-73 -120h-51z" />
    <glyph glyph-name="uogonek.smcp" horiz-adv-x="524" 
d="M138 555v-380q0 -67 27 -93.5t97 -26.5t97 26.5t27 93.5v380h78v-380q0 -80 -30 -121.5t-87 -55.5q-29 -19 -43.5 -40t-14.5 -41q0 -19 10.5 -26t28.5 -7h20v-54h-47q-75 0 -75 71q0 49 50 88h-14q-48 0 -85.5 9t-63.5 31t-39.5 57.5t-13.5 88.5v380h78z" />
    <glyph glyph-name="wacute.smcp" horiz-adv-x="779" 
d="M439 555l111 -467h2l105 467h82l-141 -555h-93l-116 482l-116 -482h-92l-141 555h81l105 -467h2l112 467h99zM361 720h90l-79 -120h-44z" />
    <glyph glyph-name="wgrave.smcp" horiz-adv-x="779" 
d="M439 555l111 -467h2l105 467h82l-141 -555h-93l-116 482l-116 -482h-92l-141 555h81l105 -467h2l112 467h99zM451 600h-44l-79 120h90z" />
    <glyph glyph-name="wcircumflex.smcp" horiz-adv-x="779" 
d="M439 555l111 -467h2l105 467h82l-141 -555h-93l-116 482l-116 -482h-92l-141 555h81l105 -467h2l112 467h99zM497 600h-53l-55 69l-55 -69h-53l65 120h86z" />
    <glyph glyph-name="wdieresis.smcp" horiz-adv-x="779" 
d="M439 555l111 -467h2l105 467h82l-141 -555h-93l-116 482l-116 -482h-92l-141 555h81l105 -467h2l112 467h99zM271 700h82v-82h-82v82zM425 700h82v-82h-82v82z" />
    <glyph glyph-name="yacute.smcp" horiz-adv-x="455" 
d="M188 214l-168 341h82l124 -271h2l124 271h83l-169 -341v-214h-78v214zM241 720h90l-79 -120h-44z" />
    <glyph glyph-name="ygrave.smcp" horiz-adv-x="455" 
d="M188 214l-168 341h82l124 -271h2l124 271h83l-169 -341v-214h-78v214zM289 600h-44l-79 120h90z" />
    <glyph glyph-name="ycircumflex.smcp" horiz-adv-x="455" 
d="M188 214l-168 341h82l124 -271h2l124 271h83l-169 -341v-214h-78v214zM335 600h-53l-55 69l-55 -69h-53l65 120h86z" />
    <glyph glyph-name="ydieresis.smcp" horiz-adv-x="455" 
d="M188 214l-168 341h82l124 -271h2l124 271h83l-169 -341v-214h-78v214zM109 700h82v-82h-82v82zM263 700h82v-82h-82v82z" />
    <glyph glyph-name="zacute.smcp" horiz-adv-x="465" 
d="M59 555h356v-55l-276 -434h286v-66h-375v53l277 436h-268v66zM238 720h90l-79 -120h-44z" />
    <glyph glyph-name="zcaron.smcp" horiz-adv-x="465" 
d="M59 555h356v-55l-276 -434h286v-66h-375v53l277 436h-268v66zM275 600h-86l-65 120h53l55 -69l55 69h53z" />
    <glyph glyph-name="zdotaccent.smcp" horiz-adv-x="465" 
d="M59 555h356v-55l-276 -434h286v-66h-375v53l277 436h-268v66zM191 700h82v-82h-82v82z" />
    </font>
</defs>
</svg>
