<?xml version="1.0" standalone="no"?>
<!DOCTYPE svg PUBLIC "-//W3C//DTD SVG 1.1//EN" "http://www.w3.org/Graphics/SVG/1.1/DTD/svg11.dtd" >
<svg xmlns="http://www.w3.org/2000/svg" xmlns:xlink="http://www.w3.org/1999/xlink" version="1.1">
<metadata>
Created by FontForge 20170731 at Tue Sep 16 06:13:11 2008
 By Aleksey,,,
Copyright (c) 2007 by Silas Dilworth. All rights reserved.
</metadata>
<defs>
<font id="BreuerText-RegularItalic" horiz-adv-x="528" >
  <font-face 
    font-family="Breuer Text"
    font-weight="400"
    font-style="italic"
    font-stretch="normal"
    units-per-em="1000"
    panose-1="2 0 5 6 0 0 0 2 0 4"
    ascent="750"
    descent="-250"
    x-height="500"
    cap-height="650"
    bbox="-115 -192 954.128 864"
    underline-thickness="50"
    underline-position="-150"
    slope="-10"
    unicode-range="U+0020-2265"
  />
<missing-glyph horiz-adv-x="180" 
 />
    <glyph glyph-name=".notdef" horiz-adv-x="180" 
 />
    <glyph glyph-name=".null" horiz-adv-x="0" 
 />
    <glyph glyph-name="nonmarkingreturn" horiz-adv-x="0" 
 />
    <glyph glyph-name="space" unicode=" " horiz-adv-x="220" 
 />
    <glyph glyph-name="exclam" unicode="!" horiz-adv-x="241" 
d="M139 650h111l-108 -453h-55zM47 90h97l-15 -90h-97z" />
    <glyph glyph-name="quotedbl" unicode="&#x22;" horiz-adv-x="298" 
d="M114 650h90l-57 -210h-50zM238 650h90l-57 -210h-50z" />
    <glyph glyph-name="numbersign" unicode="#" horiz-adv-x="562" 
d="M481 166h-100l-44 -166h-61l44 166h-128l-44 -166h-60l43 166h-100l14 54h100l55 211h-100l15 54h100l44 165h60l-43 -165h128l43 165h61l-43 -165h100l-15 -54h-100l-55 -211h100zM206 220h128l55 211h-128z" />
    <glyph glyph-name="dollar" unicode="$" horiz-adv-x="523" 
d="M184 -20l15 87q-49 3 -79.5 15t-46 32t-18 47.5t3.5 61.5h78q-4 -24 -1.5 -41t14.5 -28t34 -16t58 -5q41 0 67 6t41.5 16.5t22.5 26t10 34.5q3 20 0 34.5t-16 24.5t-38 16t-64 9q-50 4 -83.5 14t-52 27t-24 41.5t0.5 59.5q13 70 61.5 104.5t123.5 39.5l15 84h68l-15 -84
q80 -6 110.5 -42.5t16.5 -112.5h-78q4 22 2 39t-12.5 28.5t-31.5 17.5t-54 6q-56 0 -88 -18.5t-40 -62.5q-8 -42 16 -60t89 -23q58 -5 94 -15t55.5 -26.5t24 -41.5t-1.5 -59q-5 -28 -15 -53.5t-31 -45.5t-56.5 -33.5t-91.5 -16.5l-15 -87h-68z" />
    <glyph glyph-name="percent" unicode="%" horiz-adv-x="663" 
d="M113 0h-64l534 650h65zM370 515q-14 -82 -53 -113.5t-107 -31.5q-69 0 -96.5 31.5t-13.5 113.5q14 81 53 113t108 32t96 -32t13 -113zM596 134q-7 -41 -20 -69t-33 -45t-46.5 -24t-60.5 -7q-35 0 -59 7t-37.5 24t-17 45t3.5 69q14 81 53 113t108 32t96 -32t13 -113z
M311 515q10 56 -4.5 76t-54.5 20q-41 0 -61.5 -19.5t-30.5 -72.5q-11 -59 3 -79t56 -20q40 0 61 19.5t31 75.5zM537 134q10 56 -4.5 75.5t-54.5 19.5q-41 0 -62 -19t-30 -72q-11 -59 2.5 -79.5t55.5 -20.5q40 0 61.5 19.5t31.5 76.5z" />
    <glyph glyph-name="ampersand" unicode="&#x26;" horiz-adv-x="611" 
d="M496 296l-26 -145q-8 -47 10.5 -65.5t66.5 -18.5l-11 -67q-51 0 -82.5 14t-44.5 48q-26 -32 -72 -52t-115 -20q-106 0 -152.5 45t-29.5 140q11 59 47.5 98t85.5 59q-35 19 -52.5 56.5t-7.5 91.5q17 92 77 136t157 44q54 0 90 -10.5t56 -32.5t25 -56t-3 -81h-79
q11 60 -12.5 86t-88.5 26q-61 0 -96.5 -26t-46.5 -89q-10 -54 10.5 -84.5t65.5 -30.5h317l-12 -66h-77zM233 56q41 0 70 9t48 26.5t30 41.5t16 54l20 109h-165q-48 0 -85 -30.5t-47 -87.5q-11 -66 18.5 -94t94.5 -28z" />
    <glyph glyph-name="quotesingle" unicode="'" horiz-adv-x="171" 
d="M114 650h90l-57 -210h-50z" />
    <glyph glyph-name="parenleft" unicode="(" horiz-adv-x="318" 
d="M136 285q-22 -121 -1.5 -224.5t71.5 -180.5h-65q-57 81 -76.5 185t0.5 220t76.5 220t142.5 185h65q-78 -77 -135 -180.5t-78 -224.5z" />
    <glyph glyph-name="parenright" unicode=")" horiz-adv-x="318" 
d="M202 285q21 121 0.5 224.5t-71.5 180.5h65q57 -81 77 -185t0 -220t-77 -220t-143 -185h-65q78 77 135 180.5t79 224.5z" />
    <glyph glyph-name="asterisk" unicode="*" horiz-adv-x="533" 
d="M301 429q-26 -40 -55 -86.5t-58 -90.5l-75 63l165 132l-188 25l51 101q38 -23 78 -49t75 -46q-2 48 -2 96t-1 96h106q-17 -48 -36 -98.5t-35 -93.5q43 20 91.5 46t95.5 49l16 -101l-199 -25l120 -132l-98 -63q-13 44 -25.5 90.5t-25.5 86.5z" />
    <glyph glyph-name="plus" unicode="+" horiz-adv-x="517" 
d="M68 306h172l31 172h62l-31 -172h173l-10 -62h-173l-31 -174h-62l31 174h-172z" />
    <glyph glyph-name="comma" unicode="," horiz-adv-x="214" 
d="M36 94h94l-73 -188h-54z" />
    <glyph glyph-name="hyphen" unicode="-" horiz-adv-x="350" 
d="M65 316h250l-11 -66h-250z" />
    <glyph glyph-name="period" unicode="." horiz-adv-x="214" 
d="M36 94h94l-16 -94h-94z" />
    <glyph glyph-name="slash" unicode="/" horiz-adv-x="331" 
d="M316 690h66l-335 -730h-65z" />
    <glyph glyph-name="zero" unicode="0" horiz-adv-x="553" 
d="M451 424q9 48 6.5 80t-16 51t-39 27t-62.5 8q-38 0 -66.5 -8t-48.5 -27t-33.5 -51.5t-22.5 -80.5l-35 -197q-8 -48 -6 -80t15.5 -51t39 -27t63.5 -8q37 0 65.5 8t49 27t34 51t21.5 80zM89 424q12 65 32.5 110t52 73t75 40.5t101.5 12.5t97.5 -12.5t62 -41t28 -73.5
t-6.5 -109l-35 -198q-11 -65 -31.5 -110t-52 -73t-75 -40.5t-101.5 -12.5t-98 12.5t-62.5 40.5t-27.5 73t6 110z" />
    <glyph glyph-name="one" unicode="1" horiz-adv-x="337" 
d="M107 0l102 580h-97l7 42l133 28h49l-114 -650h-80z" />
    <glyph glyph-name="two" unicode="2" horiz-adv-x="530" 
d="M97 468q17 96 75 144t171 48q60 0 98.5 -12.5t58.5 -36.5t24.5 -58.5t-3.5 -79.5q-10 -58 -42 -97.5t-75 -68.5t-90.5 -52t-90 -48.5t-74 -57.5t-40.5 -79h348l-12 -70h-429l9 52q11 63 43.5 105.5t76 74t92 56t91 50t73.5 57t39 76.5q11 64 -13 92t-96 28
q-30 0 -55.5 -5.5t-45.5 -19.5t-33.5 -38t-19.5 -60h-80v0z" />
    <glyph glyph-name="three" unicode="3" horiz-adv-x="549" 
d="M410 184q10 54 -14 83.5t-76 29.5h-83l12 66h80q48 0 76.5 31.5t36.5 75.5q11 64 -13.5 92.5t-97.5 28.5q-71 0 -107.5 -29.5t-48.5 -98.5h-80q34 197 246 197q114 0 156 -47.5t25 -143.5q-9 -52 -40.5 -85.5t-76.5 -50.5q51 -16 74 -51t12 -100q-17 -96 -76.5 -144
t-182.5 -48q-118 0 -161.5 47t-25.5 149h79q-12 -68 14 -98t103 -30t117 28.5t52 97.5z" />
    <glyph glyph-name="four" unicode="4" horiz-adv-x="551" 
d="M343 151h-321l11 60l373 439h105l-76 -432h79l-12 -67h-79l-26 -151h-80zM355 218l63 356l-301 -356h238z" />
    <glyph glyph-name="five" unicode="5" horiz-adv-x="551" 
d="M174 363q37 25 79 39t84 14q45 0 79 -10t54.5 -34t26.5 -63.5t-4 -97.5q-10 -54 -29 -95.5t-50 -69.5t-76 -42t-106 -14q-60 0 -99.5 14t-61.5 40t-27.5 63t2.5 84h78q-11 -63 14.5 -98t102.5 -35q79 0 118.5 36.5t53.5 116.5q14 82 -14 114.5t-93 32.5q-42 0 -78 -17
t-60 -34h-85q23 86 45 171t44 172h365l-12 -69h-296z" />
    <glyph glyph-name="six" unicode="6" horiz-adv-x="547" 
d="M156 346q38 20 82 32t88 12q54 0 89 -11.5t54.5 -35.5t24 -60t-3.5 -84q-18 -100 -77 -155t-175 -55q-61 0 -101.5 13t-62.5 41t-27 71.5t6 104.5l37 210q22 123 82.5 177t172.5 54q111 0 152 -45.5t25 -138.5h-80q11 60 -11.5 87t-96.5 27q-37 0 -64 -7.5t-46.5 -26
t-32.5 -49.5t-21 -78zM299 333q-38 0 -77.5 -12t-76.5 -32l-12 -70q-8 -48 -6.5 -79t15 -49t39 -25t64.5 -7q76 0 113.5 32.5t50.5 105.5q7 37 5 63t-14.5 42t-37 23.5t-63.5 7.5z" />
    <glyph glyph-name="seven" unicode="7" horiz-adv-x="475" 
d="M85 0l333 580h-324l12 70h410l-11 -62l-332 -588h-88z" />
    <glyph glyph-name="eight" unicode="8" horiz-adv-x="557" 
d="M238 -10q-122 0 -171 42t-32 139q11 65 50 104.5t99 56.5q-48 17 -67.5 56t-8.5 96q17 97 80 136.5t165 39.5q51 0 89.5 -9.5t63 -30.5t33.5 -54.5t0 -81.5q-11 -57 -44 -96t-87 -56q54 -17 79.5 -56.5t14.5 -104.5q-17 -97 -80 -139t-184 -42zM342 591q-69 0 -106.5 -24
t-48.5 -90q-11 -61 14 -88.5t85 -27.5h30q61 0 96 28t46 88q11 66 -17.5 90t-98.5 24zM248 58q81 0 122 27.5t52 91.5q4 27 0.5 49.5t-17 38.5t-38 25t-62.5 9h-30q-75 0 -112 -34t-46 -88q-11 -64 19.5 -91.5t111.5 -27.5z" />
    <glyph glyph-name="nine" unicode="9" horiz-adv-x="547" 
d="M245 58q37 0 64 7.5t47 26.5t33 50t21 78l15 83q-38 -20 -82 -32t-87 -12q-107 0 -144.5 47t-20.5 145q17 100 76.5 154.5t175.5 54.5q121 0 163.5 -53.5t20.5 -175.5l-37 -210q-11 -62 -31 -106t-51 -72t-73.5 -41t-98.5 -13q-111 0 -152.5 45.5t-25.5 138.5h78
q-5 -30 -2.5 -51.5t15 -35.5t36 -21t60.5 -7zM281 316q38 0 77.5 12t76.5 32l12 71q8 48 6.5 79t-15 49t-39 25t-64.5 7q-76 0 -113.5 -33t-50.5 -105q-6 -38 -4.5 -64t14 -42t37 -23.5t63.5 -7.5z" />
    <glyph glyph-name="colon" unicode=":" horiz-adv-x="214" 
d="M36 94h94l-16 -94h-94zM94 420h94l-17 -94h-94z" />
    <glyph glyph-name="semicolon" unicode=";" horiz-adv-x="214" 
d="M36 94h94l-73 -188h-54zM94 420h94l-17 -94h-94z" />
    <glyph glyph-name="less" unicode="&#x3c;" horiz-adv-x="372" 
d="M67 325l260 345h73l-261 -345l139 -345h-73z" />
    <glyph glyph-name="equal" unicode="=" horiz-adv-x="517" 
d="M75 344l11 62h407l-11 -62h-407zM40 144l11 62h407l-11 -62h-407z" />
    <glyph glyph-name="greater" unicode="&#x3e;" horiz-adv-x="372" 
d="M79 -20h-73l260 345l-138 345h73l138 -345z" />
    <glyph glyph-name="question" unicode="?" horiz-adv-x="508" 
d="M219 196q3 34 6 67.5t5 67.5q46 0 80 6t57.5 21.5t37.5 41.5t21 67q12 67 -14 96t-97 29q-125 0 -144 -114h-80q15 87 71.5 134.5t162.5 47.5q115 0 157 -46.5t25 -146.5q-17 -98 -72 -145t-146 -53l-20 -73h-50zM177 90h97l-15 -90h-97z" />
    <glyph glyph-name="at" unicode="@" horiz-adv-x="794" 
d="M86 320q11 64 39.5 115t75 86.5t111.5 54.5t149 19q83 0 141.5 -19t92.5 -54.5t45 -86.5t0 -115l-26 -146q-23 -128 -116 -201.5t-259 -73.5q-164 0 -233 73.5t-46 201.5zM122 178q-20 -113 36 -167.5t191 -54.5t210 54.5t95 167.5l24 138q39 222 -227 222t-305 -222z
M228 167q8 48 44 74t94 30l126 8l7 42q7 39 -8.5 55t-65.5 16q-45 0 -68 -15t-31 -55h-56q6 36 20.5 59t35.5 36.5t48 19t59 5.5q75 0 104.5 -26.5t17.5 -94.5l-45 -253h-38l-4 35q-31 -21 -62 -32t-67 -11q-60 0 -90.5 26t-20.5 81zM351 110q34 0 63 11t55 29l15 87
l-120 -10q-38 -3 -56 -17.5t-23 -40.5q-10 -59 66 -59z" />
    <glyph glyph-name="A" unicode="A" horiz-adv-x="523" 
d="M362 158h-227l-71 -158h-84l305 650h101l77 -650h-83zM165 226h191l-33 345h-2z" />
    <glyph glyph-name="B" unicode="B" horiz-adv-x="548" 
d="M144 650h211q112 0 152.5 -39.5t24.5 -128.5q-10 -57 -43 -95.5t-80 -52.5q59 -17 80 -55.5t10 -101.5q-17 -95 -75 -136t-167 -41h-227zM267 70q71 0 105.5 25.5t45.5 86.5t-17 87.5t-91 26.5h-148l-40 -226h145zM212 580l-38 -216h146q59 0 90 29t40 80q11 59 -14 83
t-92 24h-132z" />
    <glyph glyph-name="C" unicode="C" horiz-adv-x="545" 
d="M247 60q35 0 61.5 6t45 20.5t30.5 38t18 59.5h80q-19 -105 -78.5 -149.5t-168.5 -44.5q-58 0 -98 12t-62.5 39t-27.5 72t7 111l36 202q11 64 31.5 108.5t52 72.5t76 40.5t103.5 12.5q109 0 153 -45t25 -150h-80q13 70 -13 97.5t-97 27.5q-39 0 -67.5 -7.5t-48.5 -25.5
t-33 -48.5t-21 -76.5l-38 -214q-8 -46 -6 -76.5t15.5 -48.5t39.5 -25.5t65 -7.5z" />
    <glyph glyph-name="D" unicode="D" horiz-adv-x="562" 
d="M212 580l-90 -510h115q41 0 72.5 7t55 25t39 48.5t23.5 77.5l34 196q9 51 3.5 81.5t-23 47t-46.5 22t-68 5.5h-115zM30 0l114 650h196q58 0 101 -10t69.5 -35.5t34 -71t-4.5 -115.5l-33 -186q-12 -71 -36 -116t-59 -70.5t-81.5 -35.5t-104.5 -10h-196z" />
    <glyph glyph-name="E" unicode="E" horiz-adv-x="495" 
d="M144 650h370l-12 -70h-290l-38 -216h254l-12 -68h-254l-40 -226h290l-12 -70h-370z" />
    <glyph glyph-name="F" unicode="F" horiz-adv-x="471" 
d="M30 0l114 650h351l-12 -70h-271l-38 -216h236l-12 -68h-236l-52 -296h-80z" />
    <glyph glyph-name="G" unicode="G" horiz-adv-x="570" 
d="M358 660q109 0 153 -44.5t26 -149.5h-80q12 70 -14 97t-97 27q-39 0 -67.5 -7.5t-48.5 -25.5t-33 -48.5t-21 -76.5l-38 -214q-8 -47 -6 -77.5t16 -48.5t40.5 -25t66.5 -7q75 0 112.5 29.5t48.5 91.5l21 115h-133l12 68h213l-64 -364h-42l-8 55q-32 -32 -72 -48.5
t-103 -16.5q-58 0 -98 12t-62.5 39.5t-27.5 72t7 109.5l36 204q11 63 31.5 107.5t52 72.5t76 40.5t103.5 12.5z" />
    <glyph glyph-name="H" unicode="H" horiz-adv-x="565" 
d="M455 0h-80l52 296h-265l-52 -296h-80l114 650h80l-50 -286h265l50 286h80z" />
    <glyph glyph-name="I" unicode="I" horiz-adv-x="220" 
d="M144 650h80l-114 -650h-80z" />
    <glyph glyph-name="J" unicode="J" horiz-adv-x="363" 
d="M152 580l12 70h203l-90 -512q-6 -37 -18 -64.5t-33 -46t-52.5 -28t-77.5 -9.5q-26 0 -50.5 2.5t-45.5 7.5l12 70q20 -5 43.5 -7.5t48.5 -2.5q42 0 63.5 16t29.5 62l78 442h-123z" />
    <glyph glyph-name="K" unicode="K" horiz-adv-x="498" 
d="M236 334l202 -334h-96q-42 76 -70 125t-48.5 81t-34.5 52t-27 40l-52 -298h-80l114 650h80l-51 -288l277 288h97z" />
    <glyph glyph-name="L" unicode="L" horiz-adv-x="422" 
d="M144 650h80l-102 -580h232l-12 -70h-312z" />
    <glyph glyph-name="M" unicode="M" horiz-adv-x="717" 
d="M624 550l-272 -550h-67l-80 550l-96 -550h-79l114 650h117l76 -539h1l266 539h117l-114 -650h-79z" />
    <glyph glyph-name="N" unicode="N" horiz-adv-x="574" 
d="M464 0h-102l-158 535l-94 -535h-80l114 650h102l158 -535l94 535h80z" />
    <glyph glyph-name="O" unicode="O" horiz-adv-x="559" 
d="M459 430q9 48 6 79t-17.5 49t-40.5 25t-63 7q-38 0 -67 -7t-50 -25t-34.5 -49.5t-22.5 -79.5l-37 -209q-8 -48 -5 -79t17.5 -49t40.5 -25t64 -7q37 0 65.5 7t49.5 25t35 49t22 79zM90 430q12 65 33 109t53.5 71t77 38.5t102.5 11.5t98 -12t63 -39t28.5 -71t-6.5 -108
l-37 -210q-11 -65 -32 -109t-53.5 -71t-76.5 -38.5t-102 -11.5t-98 11.5t-63.5 38.5t-29 71t5.5 109z" />
    <glyph glyph-name="P" unicode="P" horiz-adv-x="543" 
d="M293 314q38 0 65 6t46 21t30.5 40.5t18.5 64.5q7 42 4 68t-17 41t-39 20t-62 5h-127l-47 -266h128zM144 650h206q57 0 97 -9t63.5 -32t30 -62.5t-4.5 -100.5q-10 -56 -29.5 -94t-50.5 -61.5t-74.5 -34t-100.5 -10.5h-128l-43 -246h-80z" />
    <glyph glyph-name="Q" unicode="Q" horiz-adv-x="559" 
d="M90 430q12 65 33 109t53.5 71t77 38.5t102.5 11.5t98 -12t63 -39t28.5 -71t-6.5 -108l-37 -210q-11 -60 -30 -102.5t-47.5 -69.5t-67 -40.5t-87.5 -16.5q-4 -29 10.5 -39t45.5 -10h62l-28 -46h-62q-22 0 -40.5 5t-31.5 16t-19.5 29.5t-3.5 44.5q-48 3 -81.5 17t-52 41
t-23 69t6.5 102zM459 430q9 48 6 79t-17.5 49t-40.5 25t-63 7q-38 0 -67 -7t-50 -25t-34.5 -49.5t-22.5 -79.5l-37 -209q-8 -48 -5 -79t17.5 -49t40.5 -25t64 -7q37 0 65.5 7t49.5 25t35 49t22 79z" />
    <glyph glyph-name="R" unicode="R" horiz-adv-x="548" 
d="M144 650h205q57 0 97 -9t64 -32t30.5 -62.5t-4.5 -100.5q-14 -81 -50 -126t-99 -62l81 -258h-87l-75 246h-153l-43 -246h-80zM292 314q38 0 65.5 6t46.5 21t30.5 40.5t18.5 64.5q7 42 4 68t-17.5 41t-39.5 20t-62 5h-126l-47 -266h127z" />
    <glyph glyph-name="S" unicode="S" horiz-adv-x="537" 
d="M268 302q-54 7 -89.5 21t-56 35.5t-26 52.5t2.5 72q15 85 74.5 131t167.5 46t152.5 -41.5t26.5 -142.5h-80q12 65 -14 89.5t-96 24.5q-67 0 -104 -25t-47 -82q-5 -27 -2.5 -47t16.5 -34.5t40.5 -23.5t69.5 -15q64 -8 102.5 -23t58 -37.5t22.5 -54t-4 -73.5
q-17 -98 -78.5 -141.5t-178.5 -43.5q-52 0 -92 9t-64.5 30.5t-33.5 57t1 89.5h80q-6 -35 -1.5 -57t20 -35.5t41 -18.5t61.5 -5q40 0 69 6.5t48.5 20.5t30.5 35.5t16 52.5q5 28 3.5 49t-15.5 36t-43 25t-78 17z" />
    <glyph glyph-name="T" unicode="T" horiz-adv-x="458" 
d="M251 580h-164l12 70h408l-12 -70h-164l-102 -580h-80z" />
    <glyph glyph-name="U" unicode="U" horiz-adv-x="575" 
d="M224 650l-79 -450q-14 -79 12.5 -110t99.5 -31t111 31t52 110l79 450h80l-79 -448q-11 -62 -32 -103t-53 -65.5t-74.5 -34.5t-95.5 -10t-92 10t-62 34.5t-30 65.5t4 103l79 448h80z" />
    <glyph glyph-name="V" unicode="V" horiz-adv-x="533" 
d="M242 83q64 143 128 283.5t129 283.5h83q-76 -164 -152 -325t-153 -325h-101l-77 650h84q14 -143 28 -283.5t29 -283.5h2z" />
    <glyph glyph-name="W" unicode="W" horiz-adv-x="817" 
d="M467 565l-222 -565h-106l-30 650h83l15 -562h2q55 141 110.5 280.5t110.5 281.5h104l24 -562h2q53 141 106 280.5t106 281.5h84l-259 -650h-106z" />
    <glyph glyph-name="X" unicode="X" horiz-adv-x="515" 
d="M287 399h1l176 251h92l-236 -317q32 -84 64.5 -166.5t65.5 -166.5h-91l-95 266h-1l-187 -266h-91q62 84 123.5 166.5t122.5 166.5l-124 317h92z" />
    <glyph glyph-name="Y" unicode="Y" horiz-adv-x="510" 
d="M219 253l-120 397h89l84 -317h2l196 317h89l-260 -397l-44 -253h-80z" />
    <glyph glyph-name="Z" unicode="Z" horiz-adv-x="500" 
d="M134 650h390l-11 -61l-397 -519h316l-12 -70h-410l10 59l398 521h-296z" />
    <glyph glyph-name="bracketleft" unicode="[" horiz-adv-x="311" 
d="M161 691h176l-9 -51h-112l-125 -710h112l-9 -51h-176z" />
    <glyph glyph-name="backslash" unicode="\" horiz-adv-x="331" 
d="M253 -40h-65l-77 730h66z" />
    <glyph glyph-name="bracketright" unicode="]" horiz-adv-x="321" 
d="M179 -121h-176l9 51h112l125 710h-112l9 51h176z" />
    <glyph glyph-name="asciicircum" unicode="^" horiz-adv-x="484" 
d="M149 351h-73l204 299h74l96 -299h-73l-72 232h-2z" />
    <glyph glyph-name="underscore" unicode="_" horiz-adv-x="465" 
d="M16 66h375l-11 -66h-375z" />
    <glyph glyph-name="grave" unicode="`" horiz-adv-x="243" 
d="M239 550h-44l-57 120h90z" />
    <glyph glyph-name="a" unicode="a" horiz-adv-x="501" 
d="M23 140q6 32 21 58.5t39.5 45.5t58 28.5t76.5 7.5l158 -7l13 73q4 26 2 44.5t-12.5 30.5t-32 17.5t-55.5 5.5q-63 0 -93.5 -21t-38.5 -72h-78q8 45 26 75.5t46 49t65.5 26.5t83.5 8q53 0 88.5 -9t55 -28.5t24.5 -50.5t-3 -76l-61 -346h-49l-11 51q-42 -32 -83 -47
t-90 -15q-86 0 -124 40t-26 111zM190 55q48 0 83.5 14t73.5 43l20 107h-159q-92 0 -105 -78q-15 -86 87 -86z" />
    <glyph glyph-name="b" unicode="b" horiz-adv-x="533" 
d="M236 55q31 0 58.5 7.5t49 26t36.5 49.5t23 79l11 66q8 48 6.5 79t-13 49.5t-33 25.5t-52.5 7q-35 0 -76 -15.5t-75 -41.5l-34 -191q-12 -74 9.5 -107.5t89.5 -33.5zM233 -11q-58 0 -95.5 14.5t-57 41.5t-24 65.5t3.5 86.5l83 473h78l-39 -215q39 24 80.5 39.5t80.5 15.5
q44 0 77.5 -9.5t53.5 -34t25.5 -68.5t-6.5 -113l-12 -71q-12 -69 -36 -112.5t-56.5 -68.5t-72 -34.5t-83.5 -9.5z" />
    <glyph glyph-name="c" unicode="c" horiz-adv-x="506" 
d="M299 444q-37 0 -64 -7t-46 -26t-31.5 -51t-21.5 -83l-9 -54q-9 -51 -8 -83.5t13.5 -51.5t36.5 -26t61 -7q34 0 57 5.5t39 17.5t25 31t14 47h78q-17 -92 -71 -129.5t-153 -37.5q-54 0 -92 10.5t-59.5 37.5t-26 72t7.5 114l9 54q12 69 33 114t52 71.5t72.5 37t94.5 10.5
q99 0 140.5 -37.5t25.5 -128.5h-78q4 27 2 46t-13.5 31t-32.5 17.5t-55 5.5z" />
    <glyph glyph-name="d" unicode="d" horiz-adv-x="533" 
d="M218 55q33 0 75.5 15.5t76.5 44.5l48 272q-25 26 -60.5 41.5t-70.5 15.5q-32 0 -56 -7t-42 -25.5t-30.5 -49.5t-21.5 -79l-11 -66q-9 -48 -7.5 -79t13 -49.5t33 -26t53.5 -7.5zM197 -11q-44 0 -77.5 9.5t-53.5 34.5t-25.5 68.5t6.5 112.5l13 71q12 69 32.5 113t49.5 68.5
t65.5 34t80.5 9.5q39 0 75.5 -15.5t66.5 -39.5l38 215h78l-118 -670h-52l-10 49q-39 -27 -83 -43.5t-86 -16.5z" />
    <glyph glyph-name="e" unicode="e" horiz-adv-x="506" 
d="M486 356q-9 -74 -54.5 -108.5t-146.5 -29.5l-158 7q-9 -51 -8.5 -84t12.5 -52t37 -26.5t66 -7.5q54 0 95.5 5.5t81.5 13.5l-11 -66q-38 -8 -81.5 -13t-96.5 -5q-54 0 -92 10t-60.5 36t-27.5 71t7 116l9 54q12 69 33 114t52 71.5t72 37t93 10.5q101 0 144 -43t34 -111z
M405 355q11 89 -108 89q-38 0 -64.5 -8t-45 -27.5t-30 -51t-20.5 -78.5h165q51 0 74.5 16t28.5 60z" />
    <glyph glyph-name="f" unicode="f" horiz-adv-x="316" 
d="M357 606q-11 3 -25.5 6t-34.5 3q-30 0 -45 -14.5t-20 -41.5l-10 -59h92l-12 -66h-92l-92 -524h-78l92 524h-66l9 53l69 13l10 60q11 63 46.5 93t95.5 30q24 0 42.5 -3t30.5 -8l-12 -66v0z" />
    <glyph glyph-name="g" unicode="g" horiz-adv-x="533" 
d="M359 55q-38 -24 -79.5 -39.5t-80.5 -15.5q-44 0 -77.5 9.5t-53.5 34t-25.5 68.5t6.5 113l11 60q12 69 32.5 113t49.5 68.5t65.5 34t80.5 9.5q42 0 80.5 -16.5t68.5 -42.5l27 49h52l-89 -501q-8 -47 -24.5 -81t-43.5 -56t-66 -32t-92 -10q-38 0 -79 4.5t-74 14.5l12 70
q37 -12 74.5 -17.5t76.5 -5.5q31 0 54 5t40 18t27.5 35t16.5 55zM287 444q-32 0 -56 -7.5t-42 -26t-30.5 -49.5t-21.5 -78l-9 -56q-9 -48 -7.5 -79t13 -49.5t33 -25.5t53.5 -7q35 0 76 15.5t75 41.5l46 262q-23 29 -60 44t-70 15z" />
    <glyph glyph-name="h" unicode="h" horiz-adv-x="537" 
d="M183 454q45 28 84.5 42t82.5 14q44 0 73 -9.5t45 -30.5t19 -55t-6 -82l-58 -333h-78l58 333q6 33 3.5 54.5t-13 34t-29.5 17.5t-46 5q-36 0 -73.5 -13t-72.5 -37l-69 -394h-78l118 670h78z" />
    <glyph glyph-name="i" unicode="i" horiz-adv-x="208" 
d="M113 500h78l-88 -500h-78zM141 670h82l-15 -82h-82z" />
    <glyph glyph-name="j" unicode="j" horiz-adv-x="208" 
d="M95 -53q-11 -64 -42.5 -95.5t-94.5 -31.5q-45 0 -73 10l11 66q11 -3 26.5 -6t32.5 -3q29 0 43 15.5t19 44.5l98 553h78zM141 670h82l-15 -82h-82z" />
    <glyph glyph-name="k" unicode="k" horiz-adv-x="460" 
d="M103 0h-78l118 670h78l-68 -381h2l224 211h98l-259 -241q6 -11 21 -31.5t33.5 -45.5t39 -52.5t39 -52.5t33 -45.5t21.5 -31.5h-95l-164 236h-2z" />
    <glyph glyph-name="l" unicode="l" horiz-adv-x="208" 
d="M143 670h78l-118 -670h-78z" />
    <glyph glyph-name="m" unicode="m" horiz-adv-x="785" 
d="M174 451q45 29 84.5 44t81.5 15q49 0 76 -16.5t41 -43.5q44 28 85 44t86 16q43 0 69 -10t38 -30t12.5 -50.5t-6.5 -71.5l-61 -348h-78l61 348q10 55 -5 75.5t-65 20.5q-27 0 -63 -13.5t-70 -36.5l-69 -394h-78l61 348q10 55 -4.5 75.5t-64.5 20.5q-29 0 -63.5 -13
t-69.5 -37l-69 -394h-78l88 500h52z" />
    <glyph glyph-name="n" unicode="n" 
d="M165 500l9 -49q44 29 84.5 44t90.5 15q43 0 72.5 -9t45.5 -29.5t19.5 -54.5t-5.5 -84l-58 -333h-78l58 333q6 33 3.5 54.5t-13 34t-29.5 17.5t-46 5q-36 0 -73.5 -13t-72.5 -37l-69 -394h-78l88 500h52z" />
    <glyph glyph-name="o" unicode="o" horiz-adv-x="511" 
d="M465 223q-12 -68 -32 -113t-50.5 -72t-72.5 -38t-97 -11t-93 11t-59 38t-25 72t8 113l9 54q12 67 32.5 112t51 72t72 38t95.5 11q55 0 93 -11t59 -38t25.5 -72t-7.5 -112zM396 277q9 50 8 82.5t-13 51t-36 26t-62 7.5t-64.5 -7.5t-45.5 -26t-31 -51t-21 -82.5l-9 -54
q-9 -51 -8.5 -83.5t12.5 -51t36 -26t62 -7.5t65 7.5t45.5 26t31 51t21.5 83.5z" />
    <glyph glyph-name="p" unicode="p" horiz-adv-x="533" 
d="M322 444q-33 0 -75.5 -15t-76.5 -44l-48 -273q25 -26 60.5 -41.5t70.5 -15.5q31 0 55.5 7.5t42.5 25.5t30.5 49.5t21.5 79.5l11 66q9 47 7.5 78t-13 49.5t-33.5 26t-53 7.5zM343 510q44 0 77.5 -9.5t53.5 -34t25.5 -68.5t-6.5 -113l-13 -71q-12 -69 -32.5 -112.5
t-49.5 -68.5t-65.5 -34.5t-80.5 -9.5q-39 0 -75.5 15.5t-66.5 39.5l-37 -214h-78l118 670h52l9 -49q39 26 83 42.5t86 16.5z" />
    <glyph glyph-name="q" unicode="q" horiz-adv-x="533" 
d="M287 444q-32 0 -56 -7.5t-42 -26t-30.5 -49.5t-21.5 -78l-11 -66q-9 -48 -7.5 -79.5t13 -49.5t33 -25.5t53.5 -7.5q35 0 76 15.5t75 41.5l48 273q-24 29 -60.5 44t-69.5 15zM287 510q42 0 80.5 -16.5t69.5 -42.5l27 49h52l-118 -670h-78l37 214q-38 -24 -79.5 -39.5
t-81.5 -15.5q-44 0 -77 9.5t-53 34.5t-25.5 68.5t6.5 112.5l13 71q12 69 32.5 113t49.5 68.5t65 34t80 9.5z" />
    <glyph glyph-name="r" unicode="r" horiz-adv-x="317" 
d="M319 438q-47 0 -81 -12.5t-67 -39.5l-68 -386h-78l88 500h52l9 -49q37 28 74.5 43.5t82.5 15.5z" />
    <glyph glyph-name="s" unicode="s" horiz-adv-x="493" 
d="M432 139q-5 -30 -16 -57.5t-36 -47.5t-67 -32t-109 -12q-59 0 -96 10.5t-56.5 30.5t-23.5 49t2 66h76q-4 -24 -1.5 -41t14.5 -28.5t34 -16.5t58 -5q41 0 67.5 6t42 16.5t23 26t10.5 35.5q4 20 0.5 34.5t-17 24.5t-38 16t-63.5 9q-98 9 -134 42t-24 99q14 78 69.5 112
t145.5 34q101 0 140.5 -36t24.5 -121h-76q4 22 1.5 39t-13 28.5t-31.5 17.5t-54 6q-56 0 -88.5 -18t-40.5 -62q-8 -42 13.5 -60.5t90.5 -23.5q58 -5 94 -14.5t55.5 -25.5t24 -40.5t-1.5 -60.5z" />
    <glyph glyph-name="t" unicode="t" horiz-adv-x="331" 
d="M126 434h-65l10 54l67 12l21 122l80 13l-23 -135h113l-12 -66h-113l-56 -317q-5 -29 4.5 -45t40.5 -16q21 0 38 3.5t31 6.5l-11 -66q-17 -5 -38.5 -8t-44.5 -3q-63 0 -86 31.5t-12 97.5z" />
    <glyph glyph-name="u" unicode="u" 
d="M371 0l-10 49q-45 -30 -85 -44.5t-90 -14.5q-43 0 -72.5 9t-45.5 29.5t-19.5 54t5.5 83.5l59 334h78l-59 -334q-6 -33 -3.5 -54.5t13 -34t29.5 -17.5t46 -5q36 0 74 13.5t72 37.5l70 394h78l-88 -500h-52z" />
    <glyph glyph-name="v" unicode="v" horiz-adv-x="492" 
d="M217 84h2l210 416h86l-265 -500h-87l-90 500h83z" />
    <glyph glyph-name="w" unicode="w" horiz-adv-x="730" 
d="M664 500h84q-56 -126 -109.5 -250t-108.5 -250h-93l-38 426l-183 -426h-97l-41 500h80l24 -418h1l180 418h95l37 -418z" />
    <glyph glyph-name="x" unicode="x" horiz-adv-x="491" 
d="M410 500h92l-209 -245l133 -255h-90l-95 198h-1l-163 -198h-92l222 260l-124 240h91l84 -185z" />
    <glyph glyph-name="y" unicode="y" horiz-adv-x="495" 
d="M73 500h83l64 -405h2l210 405h86l-306 -568q-18 -32 -35 -53.5t-37 -34.5t-46 -18.5t-62 -5.5q-31 0 -55 9l12 66q24 -9 54 -9q35 0 57 14.5t45 56.5l24 43z" />
    <glyph glyph-name="z" unicode="z" horiz-adv-x="486" 
d="M103 500h368l-10 -55l-341 -379h288l-11 -66h-391l8 54l341 380h-264z" />
    <glyph glyph-name="braceleft" unicode="{" horiz-adv-x="394" 
d="M180 -14q-5 -29 5 -42.5t39 -13.5h57l-9 -51h-57q-31 0 -52.5 4t-34 15.5t-15.5 31t2 49.5l41 233q5 26 -4.5 36.5t-34.5 10.5h-62l9 51h62q25 0 37.5 10.5t17.5 36.5l42 234q5 30 15.5 49t27 30.5t39.5 16t53 4.5h57l-9 -51h-57q-29 0 -44 -13.5t-20 -42.5l-32 -185
q-4 -24 -8.5 -42t-11.5 -31.5t-18.5 -23.5t-30.5 -17q25 -12 32 -33t2 -53z" />
    <glyph glyph-name="bar" unicode="|" horiz-adv-x="220" 
d="M78 -120h-60l143 810h60z" />
    <glyph glyph-name="braceright" unicode="}" horiz-adv-x="394" 
d="M161 199q5 32 20 53t44 33q-17 7 -25 17t-10 23.5t0 31.5t6 42l32 185q5 29 -5 42.5t-39 13.5h-57l9 51h57q63 0 86.5 -25t12.5 -85l-40 -224q-5 -26 4.5 -36.5t34.5 -10.5h62l-9 -51h-62q-25 0 -37.5 -10.5t-17.5 -36.5l-39 -223q-11 -60 -43.5 -85t-94.5 -25h-57l9 51
h57q29 0 44 13.5t20 42.5z" />
    <glyph glyph-name="asciitilde" unicode="~" horiz-adv-x="459" 
d="M223 660q30 0 49.5 -12t34.5 -26.5t29 -26.5t33 -12q26 0 40.5 14.5t21.5 52.5h62q-13 -74 -46.5 -101.5t-83.5 -27.5q-30 0 -49.5 12t-34.5 26.5t-29.5 26.5t-33.5 12q-26 0 -40 -14.5t-21 -52.5h-62q13 73 46.5 101t83.5 28z" />
    <glyph glyph-name="nonbreakingspace" unicode="&#xa0;" horiz-adv-x="220" 
 />
    <glyph glyph-name="exclamdown" unicode="&#xa1;" horiz-adv-x="241" 
d="M106 303h55l-52 -453h-111zM120 500h97l-16 -91h-97z" />
    <glyph glyph-name="cent" unicode="&#xa2;" horiz-adv-x="516" 
d="M317 519q-38 0 -64.5 -7t-45.5 -26t-31 -51t-21 -83l-10 -54q-9 -51 -8 -83.5t13 -51.5t36 -26t62 -7q33 0 56.5 5.5t39 17.5t24.5 31t15 47h78q-15 -84 -61.5 -122t-128.5 -44l-15 -85h-68l15 85q-45 3 -76 16t-48 40t-20 70t8 107l10 54q11 63 29 106t45 70t62.5 40
t80.5 16l16 86h68l-16 -86q81 -6 114 -44t18 -121h-78q4 27 1.5 46t-13.5 31t-32.5 17.5t-54.5 5.5z" />
    <glyph glyph-name="sterling" unicode="&#xa3;" horiz-adv-x="562" 
d="M10 0l12 70q57 0 87 29.5t41 91.5q4 21 2 44t-5 49h-87l9 56h69q-4 35 -8 69t4 74q17 95 76 136t145 41q102 0 139 -40.5t21 -135.5h-80q11 60 -10.5 83t-81.5 23q-59 0 -89 -25t-40 -82q-7 -38 -4.5 -73t5.5 -70h125l-9 -56h-113q2 -23 3 -45t-3 -43q-8 -45 -26 -76
t-49 -50h177q44 0 67.5 18.5t31.5 66.5h80q-14 -80 -54 -117.5t-125 -37.5h-310z" />
    <glyph glyph-name="currency" unicode="&#xa4;" horiz-adv-x="620" 
d="M464 352q9 50 8 82.5t-13 51t-36 26t-62 7.5t-64.5 -7.5t-45 -26t-30.5 -51t-21 -82.5l-10 -53q-9 -51 -8 -83.5t13 -51t36 -26t62 -7.5t64.5 7.5t45 26t30.5 51t21 83.5zM532 299q-17 -95 -50 -146l59 -86l-54 -40l-51 76q-29 -20 -67.5 -29t-87.5 -9q-50 0 -84.5 9
t-56.5 29l-79 -76l-40 40l89 86q-14 54 2 146l10 53q15 90 48 143l-58 86l54 40l51 -75q29 21 67.5 30t88.5 9q49 0 84.5 -9t57.5 -30l77 75l40 -40l-89 -86q14 -50 -1 -143z" />
    <glyph glyph-name="yen" unicode="&#xa5;" horiz-adv-x="538" 
d="M202 74h-138l8 46h138l12 70h-138l8 46h138l3 18l-120 396h87l84 -317h2l196 317h91l-260 -396l-3 -18h138l-8 -46h-138l-12 -70h138l-8 -46h-138l-13 -74h-80z" />
    <glyph glyph-name="brokenbar" unicode="&#xa6;" horiz-adv-x="220" 
d="M78 -120h-60l60 340h60zM161 350h-60l60 340h60z" />
    <glyph glyph-name="section" unicode="&#xa7;" horiz-adv-x="564" 
d="M504 230q-7 -39 -31.5 -69t-59.5 -50q29 -19 38.5 -50t1.5 -73q-14 -75 -72.5 -116.5t-162.5 -41.5q-113 0 -156.5 41t-27.5 134h79q-11 -62 16.5 -86t96.5 -24t103.5 24t42.5 72q4 24 0 40.5t-18 28t-40 19t-65 12.5q-60 7 -98.5 20.5t-60 33.5t-27 48.5t1.5 66.5
q8 39 31.5 68.5t58.5 49.5q-53 38 -38 124q14 75 72 116.5t162 41.5q112 0 156 -41t28 -134h-79q11 62 -16.5 86t-96.5 24t-103 -24t-43 -72q-4 -24 0 -40.5t18 -28t40 -19t66 -12.5q61 -8 100 -20.5t59.5 -32.5t25.5 -48.5t-2 -67.5zM287 338q-22 3 -40.5 6.5t-34.5 8.5
q-59 -28 -69 -88q-5 -26 -1 -44.5t19.5 -31.5t44.5 -22t76 -15q42 -6 76 -15q56 26 67 88q4 25 1 44t-18.5 32.5t-44.5 22t-76 14.5z" />
    <glyph glyph-name="dieresis" unicode="&#xa8;" horiz-adv-x="356" 
d="M134 650h82l-14 -82h-82zM288 650h82l-14 -82h-82z" />
    <glyph glyph-name="copyright" unicode="&#xa9;" horiz-adv-x="774" 
d="M90 398q11 64 39.5 115t75 86.5t111.5 54.5t149 19q83 0 141.5 -19t92.5 -54.5t45 -86.5t0 -115l-26 -146q-11 -64 -40 -115t-76 -86.5t-112 -54.5t-148 -19q-164 0 -232.5 73.5t-45.5 201.5zM126 256q-20 -113 35.5 -167.5t190.5 -54.5t210.5 54.5t95.5 167.5l24 138
q39 222 -227 222t-305 -222zM499 378q7 39 -9 56t-69 17q-26 0 -45 -4.5t-32.5 -15.5t-22 -30t-13.5 -48l-10 -58q-10 -55 7 -77t71 -22q53 0 75 17.5t29 55.5h59q-5 -30 -16.5 -54t-31.5 -40t-50.5 -24.5t-73.5 -8.5q-39 0 -67 8t-44.5 26t-21 47t3.5 72l10 58
q15 85 59 119t124 34q85 0 111.5 -32.5t15.5 -95.5h-59z" />
    <glyph glyph-name="ordfeminine" unicode="&#xaa;" horiz-adv-x="428" 
d="M66 364q9 52 48 83.5t108 28.5l127 -6l10 59q3 21 1.5 36t-10 24t-25.5 13.5t-44 4.5q-51 0 -75 -16.5t-31 -57.5h-62q13 72 57.5 99.5t119.5 27.5q84 0 114 -30t18 -101l-49 -277h-39l-9 41q-33 -26 -66.5 -38t-72.5 -12q-69 0 -99 32t-21 89zM200 296q38 0 67 11.5
t59 34.5l16 85h-128q-72 0 -84 -62q-12 -69 70 -69z" />
    <glyph glyph-name="guillemotleft" unicode="&#xab;" horiz-adv-x="494" 
d="M64 250l169 180h72l-173 -185l110 -175h-68zM228 250l169 180h72l-173 -185l110 -175h-68z" />
    <glyph glyph-name="logicalnot" unicode="&#xac;" horiz-adv-x="517" 
d="M492 399l-46 -258h-62l35 196h-345l11 62h407z" />
    <glyph glyph-name="uni00AD" unicode="&#xad;" horiz-adv-x="350" 
d="M65 316h250l-11 -66h-250z" />
    <glyph glyph-name="registered" unicode="&#xae;" horiz-adv-x="774" 
d="M90 398q11 64 39.5 115t75 86.5t111.5 54.5t149 19q83 0 141.5 -19t92.5 -54.5t45 -86.5t0 -115l-26 -146q-11 -64 -40 -115t-76 -86.5t-112 -54.5t-148 -19q-84 0 -142.5 19t-92 54.5t-44 86.5t0.5 115zM126 256q-20 -113 35.5 -167.5t190.5 -54.5t210.5 54.5
t95.5 167.5l24 138q39 222 -227 222t-305 -222zM423 276h-101l-23 -130h-61l63 358h158q68 0 92.5 -26t13.5 -84q-8 -47 -30.5 -71t-49.5 -36l45 -141h-66zM332 330h98q35 0 51.5 18t21.5 44q5 29 -6 43.5t-43 14.5h-101z" />
    <glyph glyph-name="macron" unicode="&#xaf;" horiz-adv-x="370" 
d="M141 630h230l-11 -60h-230z" />
    <glyph glyph-name="degree" unicode="&#xb0;" horiz-adv-x="410" 
d="M408 502q-8 -47 -23.5 -77.5t-38 -48.5t-52.5 -25.5t-69 -7.5t-67 7.5t-44 25.5t-20 48.5t4 77.5q8 46 23 76.5t37.5 48.5t53 25.5t69.5 7.5t66.5 -7.5t44 -25.5t20.5 -48.5t-4 -76.5zM163 505q-6 -33 -4.5 -53.5t10.5 -32t25.5 -16t40.5 -4.5t41.5 4t30.5 15t21.5 30.5
t13.5 50.5l1 3q10 61 -7.5 82t-64.5 21q-24 0 -42 -4.5t-31 -15.5t-21.5 -30.5t-13.5 -49.5z" />
    <glyph glyph-name="plusminus" unicode="&#xb1;" horiz-adv-x="517" 
d="M15 0l10 62h407l-10 -62h-407zM81 375h172l30 173h62l-30 -173h173l-11 -62h-173l-31 -173h-62l31 173h-172z" />
    <glyph glyph-name="twosuperior" unicode="&#xb2;" horiz-adv-x="332" 
d="M135 600q8 48 35.5 71.5t81.5 23.5q57 0 74 -23t9 -66q-5 -26 -19 -44t-33 -31.5t-40.5 -24.5t-40.5 -22t-33 -24t-18 -31h156l-7 -40h-202l5 27q5 28 20 47.5t34.5 34t41.5 25.5t41 23t32.5 25.5t17.5 33.5q5 27 -5 38.5t-40 11.5q-26 0 -42.5 -11t-22.5 -44h-45z" />
    <glyph glyph-name="threesuperior" unicode="&#xb3;" horiz-adv-x="330" 
d="M268 477q8 46 -37 46h-42l6 38h41q20 0 31.5 13t14.5 31q5 27 -5.5 39t-40.5 12q-29 0 -44.5 -13.5t-20.5 -44.5h-45q16 97 117 97q54 0 73 -22.5t11 -67.5q-4 -21 -16 -36.5t-30 -24.5q20 -8 28.5 -24t3.5 -44q-8 -46 -37 -68.5t-86 -22.5q-56 0 -75 23t-11 73h45
q-5 -30 5.5 -43.5t42.5 -13.5t49 12t22 41z" />
    <glyph glyph-name="acute" unicode="&#xb4;" horiz-adv-x="243" 
d="M171 670h90l-101 -120h-44z" />
    <glyph glyph-name="mu" unicode="&#xb5;" 
d="M73 -170h-78l118 670h78l-70 -394q26 -24 59 -37t69 -13q27 0 47.5 5t36 17.5t25.5 34t16 54.5l59 333h78l-59 -333q-9 -48 -23.5 -82t-37.5 -55t-55.5 -30.5t-76.5 -9.5q-43 0 -78 14t-70 42z" />
    <glyph glyph-name="mu" unicode="&#x3bc;" 
d="M73 -170h-78l118 670h78l-70 -394q26 -24 59 -37t69 -13q27 0 47.5 5t36 17.5t25.5 34t16 54.5l59 333h78l-59 -333q-9 -48 -23.5 -82t-37.5 -55t-55.5 -30.5t-76.5 -9.5q-43 0 -78 14t-70 42z" />
    <glyph glyph-name="paragraph" unicode="&#xb6;" horiz-adv-x="707" 
d="M84 404q12 70 36.5 117.5t61.5 76t85.5 40.5t108.5 12h313l-145 -824h-67l135 764h-75l-135 -764h-67l60 339h-106q-126 0 -177 56.5t-28 182.5z" />
    <glyph glyph-name="periodcentered" unicode="&#xb7;" horiz-adv-x="228" 
d="M91 378h98l-17 -97h-98z" />
    <glyph glyph-name="cedilla" unicode="&#xb8;" horiz-adv-x="239" 
d="M86 -46q33 -2 48 -18t9 -51q-7 -41 -34.5 -59t-79.5 -18h-66l8 48h64q25 0 34.5 7.5t11.5 21.5q3 15 -4 22t-32 7h-27l43 86h47z" />
    <glyph glyph-name="onesuperior" unicode="&#xb9;" horiz-adv-x="251" 
d="M154 389l46 258h-56l4 27l77 16h27l-53 -301h-45z" />
    <glyph glyph-name="ordmasculine" unicode="&#xba;" horiz-adv-x="444" 
d="M427 430q-10 -54 -26 -90t-40.5 -57.5t-58 -30.5t-77.5 -9t-74 9t-46.5 30.5t-20 57.5t5.5 90l7 44q10 54 26 90t40.5 57t57.5 30t77 9t74.5 -9t47.5 -30t20.5 -57t-6.5 -90zM372 474q7 40 6.5 66t-10.5 41t-29.5 20.5t-49.5 5.5t-51 -5.5t-36 -20.5t-25 -41t-17 -66
l-7 -44q-8 -41 -7.5 -67t10 -41t29 -20.5t49.5 -5.5t51.5 5.5t36.5 20.5t25 41t18 67z" />
    <glyph glyph-name="guillemotright" unicode="&#xbb;" horiz-adv-x="494" 
d="M268 70h-72l171 180l-108 180h72l107 -180zM104 70h-72l171 180l-108 180h72l107 -180z" />
    <glyph glyph-name="onequarter" unicode="&#xbc;" horiz-adv-x="644" 
d="M457 68h-144l6 32l171 200h53l-34 -194h36l-7 -38h-36l-11 -68h-45zM464 106l25 142l-120 -142h95zM600 650h50l-545 -650h-50zM147 349l46 258h-56l4 27l77 16h27l-53 -301h-45z" />
    <glyph glyph-name="onehalf" unicode="&#xbd;" horiz-adv-x="644" 
d="M153 349l46 258h-56l4 27l77 16h27l-53 -301h-45zM369 211q8 48 35 71.5t81 23.5q57 0 74.5 -23t9.5 -66q-5 -26 -19 -44t-33.5 -31.5t-41 -24.5t-40 -22t-32.5 -24t-18 -31h156l-7 -40h-202l4 27q5 28 20 47.5t34.5 34t41.5 25.5t41.5 23t33 25.5t17.5 33.5
q5 27 -5.5 38.5t-40.5 11.5q-26 0 -42.5 -11t-21.5 -44h-45zM575 650h50l-545 -650h-50z" />
    <glyph glyph-name="threequarters" unicode="&#xbe;" horiz-adv-x="648" 
d="M271 437q8 46 -37 46h-42l6 38h41q20 0 31.5 13t14.5 31q5 27 -5.5 39t-40.5 12q-29 0 -44.5 -13.5t-20.5 -44.5h-45q16 97 117 97q54 0 73 -22.5t11 -67.5q-4 -21 -16.5 -36.5t-29.5 -24.5q20 -8 28.5 -24t3.5 -44q-8 -46 -37 -68.5t-86 -22.5q-56 0 -75 23t-11 73h45
q-5 -30 5.5 -43.5t42.5 -13.5t49 12t22 41zM461 68h-144l6 32l171 200h53l-34 -194h36l-7 -38h-36l-11 -68h-45zM468 106l25 142l-120 -142h95zM604 650h50l-545 -650h-50z" />
    <glyph glyph-name="questiondown" unicode="&#xbf;" horiz-adv-x="517" 
d="M302 304q-2 -34 -5 -67.5t-6 -67.5q-46 0 -80 -6t-57 -21.5t-37.5 -42t-21.5 -67.5q-11 -66 15 -95t97 -29q64 0 98.5 28t44.5 85h80q-15 -86 -71.5 -133.5t-162.5 -47.5q-114 0 -156 47t-25 145q17 99 72 145.5t146 53.5l19 73h50zM345 409h-97l16 91h97z" />
    <glyph glyph-name="Agrave" unicode="&#xc0;" horiz-adv-x="523" 
d="M362 158h-227l-71 -158h-84l305 650h101l77 -650h-83zM165 226h191l-33 345h-2zM371 700h-44l-57 120h90z" />
    <glyph glyph-name="Aacute" unicode="&#xc1;" horiz-adv-x="523" 
d="M362 158h-227l-71 -158h-84l305 650h101l77 -650h-83zM165 226h191l-33 345h-2zM376 820h90l-101 -120h-44z" />
    <glyph glyph-name="Acircumflex" unicode="&#xc2;" horiz-adv-x="523" 
d="M362 158h-227l-71 -158h-84l305 650h101l77 -650h-83zM165 226h191l-33 345h-2zM457 700h-51l-42 69l-68 -69h-55l87 120h86z" />
    <glyph glyph-name="Atilde" unicode="&#xc3;" horiz-adv-x="523" 
d="M362 158h-227l-71 -158h-84l305 650h101l77 -650h-83zM165 226h191l-33 345h-2zM405 696q-22 0 -36 8t-25 18t-21.5 18t-26.5 8q-22 0 -31 -12t-12 -30h-50q8 50 31 76t67 26q22 0 35.5 -8t24.5 -18t21.5 -18t26.5 -8q22 0 31.5 12t12.5 30h50q-9 -50 -31.5 -76
t-66.5 -26z" />
    <glyph glyph-name="Adieresis" unicode="&#xc4;" horiz-adv-x="523" 
d="M362 158h-227l-71 -158h-84l305 650h101l77 -650h-83zM165 226h191l-33 345h-2zM244 800h82l-14 -82h-82zM398 800h82l-14 -82h-82z" />
    <glyph glyph-name="Aring" unicode="&#xc5;" horiz-adv-x="523" 
d="M362 158h-227l-71 -158h-84l305 650h101l77 -650h-83zM165 226h191l-33 345h-2zM456 779q-7 -42 -36.5 -63.5t-76.5 -21.5q-48 0 -69.5 21.5t-14.5 63.5q8 42 37 63.5t77 21.5q47 0 69 -21.5t14 -63.5zM403 779q8 40 -38 40q-25 0 -37 -10t-16 -30q-3 -20 5.5 -30
t33.5 -10q46 0 52 40z" />
    <glyph glyph-name="AE" unicode="&#xc6;" horiz-adv-x="850" 
d="M417 158h-235l-114 -158h-88l477 650h417l-12 -70h-290l-38 -216h254l-12 -68h-254l-40 -226h290l-12 -70h-370zM231 226h198l63 354h-2z" />
    <glyph glyph-name="Ccedilla" unicode="&#xc7;" horiz-adv-x="545" 
d="M247 60q35 0 61.5 6t45 20.5t30.5 38t18 59.5h80q-18 -101 -74 -146t-157 -48l-17 -36q33 -2 48 -18t9 -51q-7 -41 -34.5 -59t-79.5 -18h-66l8 48h64q25 0 34.5 7.5t11.5 21.5q3 15 -4 22t-32 7h-27l38 77q-50 3 -83.5 16.5t-52 41.5t-22 70.5t7.5 104.5l36 202
q11 64 31.5 108.5t52 72.5t76 40.5t103.5 12.5q109 0 153 -45t25 -150h-80q13 70 -13 97.5t-97 27.5q-39 0 -67.5 -7.5t-48.5 -25.5t-33 -48.5t-21 -76.5l-38 -214q-8 -46 -6 -76.5t15.5 -48.5t39.5 -25.5t65 -7.5z" />
    <glyph glyph-name="Egrave" unicode="&#xc8;" horiz-adv-x="495" 
d="M144 650h370l-12 -70h-290l-38 -216h254l-12 -68h-254l-40 -226h290l-12 -70h-370zM395 700h-44l-57 120h90z" />
    <glyph glyph-name="Eacute" unicode="&#xc9;" horiz-adv-x="495" 
d="M144 650h370l-12 -70h-290l-38 -216h254l-12 -68h-254l-40 -226h290l-12 -70h-370zM376 820h90l-101 -120h-44z" />
    <glyph glyph-name="Ecircumflex" unicode="&#xca;" horiz-adv-x="495" 
d="M144 650h370l-12 -70h-290l-38 -216h254l-12 -68h-254l-40 -226h290l-12 -70h-370zM454 700h-51l-42 69l-68 -69h-55l87 120h86z" />
    <glyph glyph-name="Edieresis" unicode="&#xcb;" horiz-adv-x="495" 
d="M144 650h370l-12 -70h-290l-38 -216h254l-12 -68h-254l-40 -226h290l-12 -70h-370zM246 800h82l-14 -82h-82zM400 800h82l-14 -82h-82z" />
    <glyph glyph-name="Igrave" unicode="&#xcc;" horiz-adv-x="220" 
d="M144 650h80l-114 -650h-80zM229 700h-44l-57 120h90z" />
    <glyph glyph-name="Iacute" unicode="&#xcd;" horiz-adv-x="220" 
d="M144 650h80l-114 -650h-80zM226 820h90l-101 -120h-44z" />
    <glyph glyph-name="Icircumflex" unicode="&#xce;" horiz-adv-x="220" 
d="M144 650h80l-114 -650h-80zM305 700h-51l-42 69l-68 -69h-55l87 120h86z" />
    <glyph glyph-name="Idieresis" unicode="&#xcf;" horiz-adv-x="220" 
d="M144 650h80l-114 -650h-80zM92 800h82l-14 -82h-82zM246 800h82l-14 -82h-82z" />
    <glyph glyph-name="Eth" unicode="&#xd0;" horiz-adv-x="567" 
d="M35 360h58l51 290h196q58 0 101 -10t69.5 -35.5t34 -71t-4.5 -115.5l-33 -186q-12 -71 -36 -116t-59 -70.5t-81.5 -35.5t-104.5 -10h-196l53 301h-58zM212 580l-39 -220h120l-10 -59h-120l-41 -231h115q41 0 72.5 7t55 25t39 48.5t23.5 77.5l34 196q9 51 3.5 81.5t-23 47
t-46.5 22t-68 5.5h-115z" />
    <glyph glyph-name="Ntilde" unicode="&#xd1;" horiz-adv-x="574" 
d="M464 0h-102l-158 535l-94 -535h-80l114 650h102l158 -535l94 535h80zM425 696q-22 0 -36 8t-25 18t-21.5 18t-26.5 8q-22 0 -31 -12t-12 -30h-50q8 50 31 76t67 26q22 0 35.5 -8t24.5 -18t21.5 -18t26.5 -8q22 0 31.5 12t12.5 30h50q-9 -50 -31.5 -76t-66.5 -26z" />
    <glyph glyph-name="Ograve" unicode="&#xd2;" horiz-adv-x="559" 
d="M459 430q9 48 6 79t-17.5 49t-40.5 25t-63 7q-38 0 -67 -7t-50 -25t-34.5 -49.5t-22.5 -79.5l-37 -209q-8 -48 -5 -79t17.5 -49t40.5 -25t64 -7q37 0 65.5 7t49.5 25t35 49t22 79zM90 430q12 65 33 109t53.5 71t77 38.5t102.5 11.5t98 -12t63 -39t28.5 -71t-6.5 -108
l-37 -210q-11 -65 -32 -109t-53.5 -71t-76.5 -38.5t-102 -11.5t-98 11.5t-63.5 38.5t-29 71t5.5 109zM396 700h-44l-57 120h90z" />
    <glyph glyph-name="Oacute" unicode="&#xd3;" horiz-adv-x="559" 
d="M459 430q9 48 6 79t-17.5 49t-40.5 25t-63 7q-38 0 -67 -7t-50 -25t-34.5 -49.5t-22.5 -79.5l-37 -209q-8 -48 -5 -79t17.5 -49t40.5 -25t64 -7q37 0 65.5 7t49.5 25t35 49t22 79zM90 430q12 65 33 109t53.5 71t77 38.5t102.5 11.5t98 -12t63 -39t28.5 -71t-6.5 -108
l-37 -210q-11 -65 -32 -109t-53.5 -71t-76.5 -38.5t-102 -11.5t-98 11.5t-63.5 38.5t-29 71t5.5 109zM397 820h90l-101 -120h-44z" />
    <glyph glyph-name="Ocircumflex" unicode="&#xd4;" horiz-adv-x="559" 
d="M459 430q9 48 6 79t-17.5 49t-40.5 25t-63 7q-38 0 -67 -7t-50 -25t-34.5 -49.5t-22.5 -79.5l-37 -209q-8 -48 -5 -79t17.5 -49t40.5 -25t64 -7q37 0 65.5 7t49.5 25t35 49t22 79zM90 430q12 65 33 109t53.5 71t77 38.5t102.5 11.5t98 -12t63 -39t28.5 -71t-6.5 -108
l-37 -210q-11 -65 -32 -109t-53.5 -71t-76.5 -38.5t-102 -11.5t-98 11.5t-63.5 38.5t-29 71t5.5 109zM463 700h-51l-42 69l-68 -69h-55l87 120h86z" />
    <glyph glyph-name="Otilde" unicode="&#xd5;" horiz-adv-x="559" 
d="M459 430q9 48 6 79t-17.5 49t-40.5 25t-63 7q-38 0 -67 -7t-50 -25t-34.5 -49.5t-22.5 -79.5l-37 -209q-8 -48 -5 -79t17.5 -49t40.5 -25t64 -7q37 0 65.5 7t49.5 25t35 49t22 79zM90 430q12 65 33 109t53.5 71t77 38.5t102.5 11.5t98 -12t63 -39t28.5 -71t-6.5 -108
l-37 -210q-11 -65 -32 -109t-53.5 -71t-76.5 -38.5t-102 -11.5t-98 11.5t-63.5 38.5t-29 71t5.5 109zM417 696q-22 0 -36 8t-25 18t-21.5 18t-26.5 8q-22 0 -31 -12t-12 -30h-50q8 50 31 76t67 26q22 0 35.5 -8t24.5 -18t21.5 -18t26.5 -8q22 0 31.5 12t12.5 30h50
q-9 -50 -31.5 -76t-66.5 -26z" />
    <glyph glyph-name="Odieresis" unicode="&#xd6;" horiz-adv-x="559" 
d="M459 430q9 48 6 79t-17.5 49t-40.5 25t-63 7q-38 0 -67 -7t-50 -25t-34.5 -49.5t-22.5 -79.5l-37 -209q-8 -48 -5 -79t17.5 -49t40.5 -25t64 -7q37 0 65.5 7t49.5 25t35 49t22 79zM90 430q12 65 33 109t53.5 71t77 38.5t102.5 11.5t98 -12t63 -39t28.5 -71t-6.5 -108
l-37 -210q-11 -65 -32 -109t-53.5 -71t-76.5 -38.5t-102 -11.5t-98 11.5t-63.5 38.5t-29 71t5.5 109zM255 800h82l-14 -82h-82zM409 800h82l-14 -82h-82z" />
    <glyph glyph-name="multiply" unicode="&#xd7;" horiz-adv-x="470" 
d="M37 140l161 139l-110 133l48 39l111 -134l162 139l37 -46l-164 -137l115 -138l-49 -39l-112 138l-162 -140z" />
    <glyph glyph-name="Oslash" unicode="&#xd8;" horiz-adv-x="559" 
d="M61 64q-26 52 -8 156l37 210q12 65 33 109t53.5 71t77 38.5t102.5 11.5q45 0 79.5 -7t58.5 -24l32 41h66l-62 -80q28 -54 9 -160l-37 -210q-11 -65 -32 -109t-53.5 -71t-76.5 -38.5t-102 -11.5q-98 0 -144 33l-33 -43h-65zM459 430q5 23 6 41.5t0 33.5l-320 -415
q14 -18 40.5 -25t64.5 -7q37 0 65.5 7t49.5 25.5t35 49.5t22 79zM133 219q-7 -40 -6 -68l317 412q-16 16 -40.5 22t-59.5 6q-38 0 -67 -7t-50 -25.5t-34.5 -50t-22.5 -79.5z" />
    <glyph glyph-name="Ugrave" unicode="&#xd9;" horiz-adv-x="575" 
d="M224 650l-79 -450q-14 -79 12.5 -110t99.5 -31t111 31t52 110l79 450h80l-79 -448q-11 -62 -32 -103t-53 -65.5t-74.5 -34.5t-95.5 -10t-92 10t-62 34.5t-30 65.5t4 103l79 448h80zM425 700h-44l-57 120h90z" />
    <glyph glyph-name="Uacute" unicode="&#xda;" horiz-adv-x="575" 
d="M224 650l-79 -450q-14 -79 12.5 -110t99.5 -31t111 31t52 110l79 450h80l-79 -448q-11 -62 -32 -103t-53 -65.5t-74.5 -34.5t-95.5 -10t-92 10t-62 34.5t-30 65.5t4 103l79 448h80zM391 820h90l-101 -120h-44z" />
    <glyph glyph-name="Ucircumflex" unicode="&#xdb;" horiz-adv-x="575" 
d="M224 650l-79 -450q-14 -79 12.5 -110t99.5 -31t111 31t52 110l79 450h80l-79 -448q-11 -62 -32 -103t-53 -65.5t-74.5 -34.5t-95.5 -10t-92 10t-62 34.5t-30 65.5t4 103l79 448h80zM474 700h-51l-42 69l-68 -69h-55l87 120h86z" />
    <glyph glyph-name="Udieresis" unicode="&#xdc;" horiz-adv-x="575" 
d="M224 650l-79 -450q-14 -79 12.5 -110t99.5 -31t111 31t52 110l79 450h80l-79 -448q-11 -62 -32 -103t-53 -65.5t-74.5 -34.5t-95.5 -10t-92 10t-62 34.5t-30 65.5t4 103l79 448h80zM263 800h82l-14 -82h-82zM417 800h82l-14 -82h-82z" />
    <glyph glyph-name="Yacute" unicode="&#xdd;" horiz-adv-x="510" 
d="M219 253l-120 397h89l84 -317h2l196 317h89l-260 -397l-44 -253h-80zM371 820h90l-101 -120h-44z" />
    <glyph glyph-name="Thorn" unicode="&#xde;" horiz-adv-x="543" 
d="M132 125l-22 -125h-80l114 650h80l-21 -117h126q57 0 97 -9t63.5 -32t30 -62.5t-3.5 -100.5q-11 -62 -31.5 -102t-52 -62.5t-74.5 -31t-100 -8.5h-126zM271 195q37 0 64 5t46.5 20t31.5 41t20 68q7 42 4 68t-17.5 41t-39.5 20t-62 5h-127l-47 -268h127z" />
    <glyph glyph-name="germandbls" unicode="&#xdf;" horiz-adv-x="551" 
d="M256 395h30q33 0 56 8t38.5 22.5t24 35t13.5 45.5q10 57 -13 82.5t-81 25.5q-65 0 -94 -29t-38 -78l-89 -507h-78l89 507q16 88 69 130.5t152 42.5q101 0 138.5 -42.5t23.5 -126.5q-11 -57 -41 -92t-76 -50q33 -5 59 -16.5t42 -32.5t21 -52.5t-3 -77.5l-1 -7
q-10 -57 -32.5 -94.5t-54.5 -59t-72 -30.5t-86 -9q-26 0 -53 2.5t-48 7.5l11 68q25 -7 48.5 -9.5t49.5 -2.5q67 0 106.5 27t52.5 100l1 7q7 43 2 70t-21 42.5t-41 21t-58 5.5h-58z" />
    <glyph glyph-name="agrave" unicode="&#xe0;" horiz-adv-x="501" 
d="M23 140q6 32 21 58.5t39.5 45.5t58 28.5t76.5 7.5l158 -7l13 73q4 26 2 44.5t-12.5 30.5t-32 17.5t-55.5 5.5q-63 0 -93.5 -21t-38.5 -72h-78q8 45 26 75.5t46 49t65.5 26.5t83.5 8q53 0 88.5 -9t55 -28.5t24.5 -50.5t-3 -76l-61 -346h-49l-11 51q-42 -32 -83 -47
t-90 -15q-86 0 -124 40t-26 111zM190 55q48 0 83.5 14t73.5 43l20 107h-159q-92 0 -105 -78q-15 -86 87 -86zM346 550h-44l-57 120h90z" />
    <glyph glyph-name="aacute" unicode="&#xe1;" horiz-adv-x="501" 
d="M23 140q6 32 21 58.5t39.5 45.5t58 28.5t76.5 7.5l158 -7l13 73q4 26 2 44.5t-12.5 30.5t-32 17.5t-55.5 5.5q-63 0 -93.5 -21t-38.5 -72h-78q8 45 26 75.5t46 49t65.5 26.5t83.5 8q53 0 88.5 -9t55 -28.5t24.5 -50.5t-3 -76l-61 -346h-49l-11 51q-42 -32 -83 -47
t-90 -15q-86 0 -124 40t-26 111zM190 55q48 0 83.5 14t73.5 43l20 107h-159q-92 0 -105 -78q-15 -86 87 -86zM345 670h90l-101 -120h-44z" />
    <glyph glyph-name="acircumflex" unicode="&#xe2;" horiz-adv-x="501" 
d="M23 140q6 32 21 58.5t39.5 45.5t58 28.5t76.5 7.5l158 -7l13 73q4 26 2 44.5t-12.5 30.5t-32 17.5t-55.5 5.5q-63 0 -93.5 -21t-38.5 -72h-78q8 45 26 75.5t46 49t65.5 26.5t83.5 8q53 0 88.5 -9t55 -28.5t24.5 -50.5t-3 -76l-61 -346h-49l-11 51q-42 -32 -83 -47
t-90 -15q-86 0 -124 40t-26 111zM190 55q48 0 83.5 14t73.5 43l20 107h-159q-92 0 -105 -78q-15 -86 87 -86zM414 550h-51l-42 69l-68 -69h-55l87 120h86z" />
    <glyph glyph-name="atilde" unicode="&#xe3;" horiz-adv-x="501" 
d="M23 140q6 32 21 58.5t39.5 45.5t58 28.5t76.5 7.5l158 -7l13 73q4 26 2 44.5t-12.5 30.5t-32 17.5t-55.5 5.5q-63 0 -93.5 -21t-38.5 -72h-78q8 45 26 75.5t46 49t65.5 26.5t83.5 8q53 0 88.5 -9t55 -28.5t24.5 -50.5t-3 -76l-61 -346h-49l-11 51q-42 -32 -83 -47
t-90 -15q-86 0 -124 40t-26 111zM190 55q48 0 83.5 14t73.5 43l20 107h-159q-92 0 -105 -78q-15 -86 87 -86zM368 546q-22 0 -36 8t-25 18t-21.5 18t-26.5 8q-22 0 -31 -12t-12 -30h-50q8 50 31 76t67 26q22 0 35.5 -8t24.5 -18t21.5 -18t26.5 -8q22 0 31.5 12t12.5 30h50
q-9 -50 -31.5 -76t-66.5 -26z" />
    <glyph glyph-name="adieresis" unicode="&#xe4;" horiz-adv-x="501" 
d="M23 140q6 32 21 58.5t39.5 45.5t58 28.5t76.5 7.5l158 -7l13 73q4 26 2 44.5t-12.5 30.5t-32 17.5t-55.5 5.5q-63 0 -93.5 -21t-38.5 -72h-78q8 45 26 75.5t46 49t65.5 26.5t83.5 8q53 0 88.5 -9t55 -28.5t24.5 -50.5t-3 -76l-61 -346h-49l-11 51q-42 -32 -83 -47
t-90 -15q-86 0 -124 40t-26 111zM190 55q48 0 83.5 14t73.5 43l20 107h-159q-92 0 -105 -78q-15 -86 87 -86zM206 650h82l-14 -82h-82zM360 650h82l-14 -82h-82z" />
    <glyph glyph-name="aring" unicode="&#xe5;" horiz-adv-x="501" 
d="M23 140q6 32 21 58.5t39.5 45.5t58 28.5t76.5 7.5l158 -7l13 73q4 26 2 44.5t-12.5 30.5t-32 17.5t-55.5 5.5q-63 0 -93.5 -21t-38.5 -72h-78q8 45 26 75.5t46 49t65.5 26.5t83.5 8q53 0 88.5 -9t55 -28.5t24.5 -50.5t-3 -76l-61 -346h-49l-11 51q-42 -32 -83 -47
t-90 -15q-86 0 -124 40t-26 111zM190 55q48 0 83.5 14t73.5 43l20 107h-159q-92 0 -105 -78q-15 -86 87 -86zM419 629q-7 -42 -36.5 -63.5t-76.5 -21.5q-48 0 -69.5 21.5t-14.5 63.5q8 42 37 63.5t77 21.5q47 0 69 -21.5t14 -63.5zM366 629q8 40 -38 40q-25 0 -37 -10
t-16 -30q-3 -20 5.5 -30t33.5 -10q46 0 52 40z" />
    <glyph glyph-name="ae" unicode="&#xe6;" horiz-adv-x="824" 
d="M190 55q45 0 74.5 7.5t49.5 26t32 50t21 80.5h-159q-92 0 -105 -78q-15 -86 87 -86zM723 355q11 89 -108 89q-38 0 -64.5 -8t-45 -27.5t-30 -51t-20.5 -78.5h165q51 0 74.5 16t28.5 60zM177 -11q-91 0 -128.5 40t-25.5 111q6 32 21 58.5t39.5 45.5t58 28.5t76.5 7.5
l158 -7l13 73q4 26 2.5 44.5t-12.5 30.5t-32.5 17.5t-55.5 5.5q-63 0 -93.5 -21t-38.5 -72h-78q8 45 26 75.5t46 49t65.5 26.5t83.5 8q66 0 102 -14t50 -46q29 34 71.5 47t100.5 13q101 0 144 -43t34 -111q-9 -74 -54.5 -108.5t-146.5 -29.5l-158 7q-9 -51 -8.5 -84
t12.5 -52t37 -26.5t66 -7.5q54 0 95.5 5.5t81.5 13.5l-11 -66q-38 -8 -81.5 -13t-96.5 -5q-67 0 -107.5 15.5t-55.5 59.5q-33 -45 -82 -60.5t-118 -15.5z" />
    <glyph glyph-name="ccedilla" unicode="&#xe7;" horiz-adv-x="506" 
d="M299 444q-37 0 -64 -7t-46 -26t-31.5 -51t-21.5 -83l-9 -54q-9 -51 -8 -83.5t13.5 -51.5t36.5 -26t61 -7q34 0 57 5.5t39 17.5t25 31t14 47h78q-8 -44 -24.5 -75t-42 -51t-61 -29.5t-80.5 -10.5l-17 -36q33 -2 48 -18t9 -51q-7 -41 -34.5 -59t-79.5 -18h-66l8 48h64
q25 0 34.5 7.5t11.5 21.5q3 15 -4 22t-32 7h-27l38 76q-46 3 -77.5 16t-49 40t-20.5 70t8 107l9 54q12 69 33 114t52 71.5t72.5 37t94.5 10.5q99 0 140.5 -37.5t25.5 -128.5h-78q4 27 2 46t-13.5 31t-32.5 17.5t-55 5.5z" />
    <glyph glyph-name="egrave" unicode="&#xe8;" horiz-adv-x="506" 
d="M486 356q-9 -74 -54.5 -108.5t-146.5 -29.5l-158 7q-9 -51 -8.5 -84t12.5 -52t37 -26.5t66 -7.5q54 0 95.5 5.5t81.5 13.5l-11 -66q-38 -8 -81.5 -13t-96.5 -5q-54 0 -92 10t-60.5 36t-27.5 71t7 116l9 54q12 69 33 114t52 71.5t72 37t93 10.5q101 0 144 -43t34 -111z
M405 355q11 89 -108 89q-38 0 -64.5 -8t-45 -27.5t-30 -51t-20.5 -78.5h165q51 0 74.5 16t28.5 60zM370 550h-44l-57 120h90z" />
    <glyph glyph-name="eacute" unicode="&#xe9;" horiz-adv-x="506" 
d="M486 356q-9 -74 -54.5 -108.5t-146.5 -29.5l-158 7q-9 -51 -8.5 -84t12.5 -52t37 -26.5t66 -7.5q54 0 95.5 5.5t81.5 13.5l-11 -66q-38 -8 -81.5 -13t-96.5 -5q-54 0 -92 10t-60.5 36t-27.5 71t7 116l9 54q12 69 33 114t52 71.5t72 37t93 10.5q101 0 144 -43t34 -111z
M405 355q11 89 -108 89q-38 0 -64.5 -8t-45 -27.5t-30 -51t-20.5 -78.5h165q51 0 74.5 16t28.5 60zM356 670h90l-101 -120h-44z" />
    <glyph glyph-name="ecircumflex" unicode="&#xea;" horiz-adv-x="506" 
d="M486 356q-9 -74 -54.5 -108.5t-146.5 -29.5l-158 7q-9 -51 -8.5 -84t12.5 -52t37 -26.5t66 -7.5q54 0 95.5 5.5t81.5 13.5l-11 -66q-38 -8 -81.5 -13t-96.5 -5q-54 0 -92 10t-60.5 36t-27.5 71t7 116l9 54q12 69 33 114t52 71.5t72 37t93 10.5q101 0 144 -43t34 -111z
M405 355q11 89 -108 89q-38 0 -64.5 -8t-45 -27.5t-30 -51t-20.5 -78.5h165q51 0 74.5 16t28.5 60zM417 550h-51l-42 69l-68 -69h-55l87 120h86z" />
    <glyph glyph-name="edieresis" unicode="&#xeb;" horiz-adv-x="506" 
d="M486 356q-9 -74 -54.5 -108.5t-146.5 -29.5l-158 7q-9 -51 -8.5 -84t12.5 -52t37 -26.5t66 -7.5q54 0 95.5 5.5t81.5 13.5l-11 -66q-38 -8 -81.5 -13t-96.5 -5q-54 0 -92 10t-60.5 36t-27.5 71t7 116l9 54q12 69 33 114t52 71.5t72 37t93 10.5q101 0 144 -43t34 -111z
M405 355q11 89 -108 89q-38 0 -64.5 -8t-45 -27.5t-30 -51t-20.5 -78.5h165q51 0 74.5 16t28.5 60zM214 650h82l-14 -82h-82zM368 650h82l-14 -82h-82z" />
    <glyph glyph-name="igrave" unicode="&#xec;" horiz-adv-x="213" 
d="M115 500h78l-88 -500h-78zM225 550h-44l-57 120h90z" />
    <glyph glyph-name="iacute" unicode="&#xed;" horiz-adv-x="213" 
d="M115 500h78l-88 -500h-78zM200 670h90l-101 -120h-44z" />
    <glyph glyph-name="icircumflex" unicode="&#xee;" horiz-adv-x="213" 
d="M115 500h78l-88 -500h-78zM272 550h-51l-42 69l-68 -69h-55l87 120h86z" />
    <glyph glyph-name="idieresis" unicode="&#xef;" horiz-adv-x="213" 
d="M115 500h78l-88 -500h-78zM64 650h82l-14 -82h-82zM218 650h82l-14 -82h-82z" />
    <glyph glyph-name="eth" unicode="&#xf0;" horiz-adv-x="529" 
d="M503 613q25 -49 8 -147l-44 -247q-11 -60 -30 -103.5t-49 -71.5t-72.5 -41t-100.5 -13q-56 0 -92.5 14.5t-56.5 43t-24 70t5 95.5q17 99 70 153.5t154 54.5q42 0 79 -11.5t67 -31.5l15 87q12 65 3 98l-76 -57l-27 38l75 56q-24 14 -77 14q-45 0 -91 -18l12 68
q19 8 42.5 12t46.5 4q91 0 133 -32l76 57l26 -38zM276 362q-72 0 -105 -39t-46 -112q-14 -78 8 -116t95 -38q37 0 64 8.5t46 27.5t31 50.5t20 77.5l18 99q-29 20 -61 31t-70 11z" />
    <glyph glyph-name="ntilde" unicode="&#xf1;" 
d="M165 500l9 -49q44 29 84.5 44t90.5 15q43 0 72.5 -9t45.5 -29.5t19.5 -54.5t-5.5 -84l-58 -333h-78l58 333q6 33 3.5 54.5t-13 34t-29.5 17.5t-46 5q-36 0 -73.5 -13t-72.5 -37l-69 -394h-78l88 500h52zM382 546q-22 0 -36 8t-25 18t-21.5 18t-26.5 8q-22 0 -31 -12
t-12 -30h-50q8 50 31 76t67 26q22 0 35.5 -8t24.5 -18t21.5 -18t26.5 -8q22 0 31.5 12t12.5 30h50q-9 -50 -31.5 -76t-66.5 -26z" />
    <glyph glyph-name="ograve" unicode="&#xf2;" horiz-adv-x="511" 
d="M465 223q-12 -68 -32 -113t-50.5 -72t-72.5 -38t-97 -11t-93 11t-59 38t-25 72t8 113l9 54q12 67 32.5 112t51 72t72 38t95.5 11q55 0 93 -11t59 -38t25.5 -72t-7.5 -112zM396 277q9 50 8 82.5t-13 51t-36 26t-62 7.5t-64.5 -7.5t-45.5 -26t-31 -51t-21 -82.5l-9 -54
q-9 -51 -8.5 -83.5t12.5 -51t36 -26t62 -7.5t65 7.5t45.5 26t31 51t21.5 83.5zM373 550h-44l-57 120h90z" />
    <glyph glyph-name="oacute" unicode="&#xf3;" horiz-adv-x="511" 
d="M465 223q-12 -68 -32 -113t-50.5 -72t-72.5 -38t-97 -11t-93 11t-59 38t-25 72t8 113l9 54q12 67 32.5 112t51 72t72 38t95.5 11q55 0 93 -11t59 -38t25.5 -72t-7.5 -112zM396 277q9 50 8 82.5t-13 51t-36 26t-62 7.5t-64.5 -7.5t-45.5 -26t-31 -51t-21 -82.5l-9 -54
q-9 -51 -8.5 -83.5t12.5 -51t36 -26t62 -7.5t65 7.5t45.5 26t31 51t21.5 83.5zM351 670h90l-101 -120h-44z" />
    <glyph glyph-name="ocircumflex" unicode="&#xf4;" horiz-adv-x="511" 
d="M465 223q-12 -68 -32 -113t-50.5 -72t-72.5 -38t-97 -11t-93 11t-59 38t-25 72t8 113l9 54q12 67 32.5 112t51 72t72 38t95.5 11q55 0 93 -11t59 -38t25.5 -72t-7.5 -112zM396 277q9 50 8 82.5t-13 51t-36 26t-62 7.5t-64.5 -7.5t-45.5 -26t-31 -51t-21 -82.5l-9 -54
q-9 -51 -8.5 -83.5t12.5 -51t36 -26t62 -7.5t65 7.5t45.5 26t31 51t21.5 83.5zM419 550h-51l-42 69l-68 -69h-55l87 120h86z" />
    <glyph glyph-name="otilde" unicode="&#xf5;" horiz-adv-x="511" 
d="M465 223q-12 -68 -32 -113t-50.5 -72t-72.5 -38t-97 -11t-93 11t-59 38t-25 72t8 113l9 54q12 67 32.5 112t51 72t72 38t95.5 11q55 0 93 -11t59 -38t25.5 -72t-7.5 -112zM396 277q9 50 8 82.5t-13 51t-36 26t-62 7.5t-64.5 -7.5t-45.5 -26t-31 -51t-21 -82.5l-9 -54
q-9 -51 -8.5 -83.5t12.5 -51t36 -26t62 -7.5t65 7.5t45.5 26t31 51t21.5 83.5zM373 546q-22 0 -36 8t-25 18t-21.5 18t-26.5 8q-22 0 -31 -12t-12 -30h-50q8 50 31 76t67 26q22 0 35.5 -8t24.5 -18t21.5 -18t26.5 -8q22 0 31.5 12t12.5 30h50q-9 -50 -31.5 -76t-66.5 -26z
" />
    <glyph glyph-name="odieresis" unicode="&#xf6;" horiz-adv-x="511" 
d="M465 223q-12 -68 -32 -113t-50.5 -72t-72.5 -38t-97 -11t-93 11t-59 38t-25 72t8 113l9 54q12 67 32.5 112t51 72t72 38t95.5 11q55 0 93 -11t59 -38t25.5 -72t-7.5 -112zM396 277q9 50 8 82.5t-13 51t-36 26t-62 7.5t-64.5 -7.5t-45.5 -26t-31 -51t-21 -82.5l-9 -54
q-9 -51 -8.5 -83.5t12.5 -51t36 -26t62 -7.5t65 7.5t45.5 26t31 51t21.5 83.5zM211 650h82l-14 -82h-82zM365 650h82l-14 -82h-82z" />
    <glyph glyph-name="divide" unicode="&#xf7;" horiz-adv-x="517" 
d="M203 159h87l-15 -83h-87zM258 473h87l-15 -83h-87zM58 244l10 62h407l-10 -62h-407z" />
    <glyph glyph-name="oslash" unicode="&#xf8;" horiz-adv-x="511" 
d="M465 223q-12 -68 -32 -113t-50.5 -72t-72.5 -38t-97 -11q-43 0 -74.5 6.5t-54.5 21.5l-32 -37h-66l65 74q-15 27 -16.5 68.5t9.5 100.5l9 54q12 67 32.5 112t51 72t72 38t95.5 11q41 0 72 -6t54 -20l31 36h66l-64 -72q32 -52 11 -171zM396 277q12 66 6 101l-266 -302
q14 -12 35 -16.5t53 -4.5q38 0 65 7.5t45.5 26t31 51t21.5 83.5zM122 223q-5 -31 -7.5 -55t-0.5 -42l263 299q-13 11 -34 15t-50 4q-38 0 -64.5 -7.5t-45.5 -26t-31 -51t-21 -82.5z" />
    <glyph glyph-name="ugrave" unicode="&#xf9;" 
d="M371 0l-10 49q-45 -30 -85 -44.5t-90 -14.5q-43 0 -72.5 9t-45.5 29.5t-19.5 54t5.5 83.5l59 334h78l-59 -334q-6 -33 -3.5 -54.5t13 -34t29.5 -17.5t46 -5q36 0 74 13.5t72 37.5l70 394h78l-88 -500h-52zM367 550h-44l-57 120h90z" />
    <glyph glyph-name="uacute" unicode="&#xfa;" 
d="M371 0l-10 49q-45 -30 -85 -44.5t-90 -14.5q-43 0 -72.5 9t-45.5 29.5t-19.5 54t5.5 83.5l59 334h78l-59 -334q-6 -33 -3.5 -54.5t13 -34t29.5 -17.5t46 -5q36 0 74 13.5t72 37.5l70 394h78l-88 -500h-52zM354 670h90l-101 -120h-44z" />
    <glyph glyph-name="ucircumflex" unicode="&#xfb;" 
d="M371 0l-10 49q-45 -30 -85 -44.5t-90 -14.5q-43 0 -72.5 9t-45.5 29.5t-19.5 54t5.5 83.5l59 334h78l-59 -334q-6 -33 -3.5 -54.5t13 -34t29.5 -17.5t46 -5q36 0 74 13.5t72 37.5l70 394h78l-88 -500h-52zM428 550h-51l-42 69l-68 -69h-55l87 120h86z" />
    <glyph glyph-name="udieresis" unicode="&#xfc;" 
d="M371 0l-10 49q-45 -30 -85 -44.5t-90 -14.5q-43 0 -72.5 9t-45.5 29.5t-19.5 54t5.5 83.5l59 334h78l-59 -334q-6 -33 -3.5 -54.5t13 -34t29.5 -17.5t46 -5q36 0 74 13.5t72 37.5l70 394h78l-88 -500h-52zM220 650h82l-14 -82h-82zM374 650h82l-14 -82h-82z" />
    <glyph glyph-name="yacute" unicode="&#xfd;" horiz-adv-x="495" 
d="M73 500h83l64 -405h2l210 405h86l-306 -568q-18 -32 -35 -53.5t-37 -34.5t-46 -18.5t-62 -5.5q-31 0 -55 9l12 66q24 -9 54 -9q35 0 57 14.5t45 56.5l24 43zM346 670h90l-101 -120h-44z" />
    <glyph glyph-name="thorn" unicode="&#xfe;" horiz-adv-x="533" 
d="M414 283q9 48 7.5 79.5t-13 49.5t-33.5 25.5t-53 7.5q-35 0 -76 -16t-76 -44l-48 -273q25 -26 60.5 -41.5t70.5 -15.5q31 0 55.5 7.5t42.5 25.5t30.5 49.5t21.5 79.5zM183 456q38 24 80 39.5t81 15.5q44 0 77 -9.5t53 -34.5t25.5 -69t-6.5 -113l-13 -71
q-12 -69 -32.5 -112.5t-49.5 -68.5t-65.5 -34.5t-80.5 -9.5q-39 0 -75.5 15.5t-66.5 39.5l-37 -214h-78l148 840h78z" />
    <glyph glyph-name="ydieresis" unicode="&#xff;" horiz-adv-x="495" 
d="M73 500h83l64 -405h2l210 405h86l-306 -568q-18 -32 -35 -53.5t-37 -34.5t-46 -18.5t-62 -5.5q-31 0 -55 9l12 66q24 -9 54 -9q35 0 57 14.5t45 56.5l24 43zM205 650h82l-14 -82h-82zM359 650h82l-14 -82h-82z" />
    <glyph glyph-name="Amacron" unicode="&#x100;" horiz-adv-x="523" 
d="M362 158h-227l-71 -158h-84l305 650h101l77 -650h-83zM165 226h191l-33 345h-2zM246 780h230l-11 -60h-230z" />
    <glyph glyph-name="amacron" unicode="&#x101;" horiz-adv-x="501" 
d="M23 140q6 32 21 58.5t39.5 45.5t58 28.5t76.5 7.5l158 -7l13 73q4 26 2 44.5t-12.5 30.5t-32 17.5t-55.5 5.5q-63 0 -93.5 -21t-38.5 -72h-78q8 45 26 75.5t46 49t65.5 26.5t83.5 8q53 0 88.5 -9t55 -28.5t24.5 -50.5t-3 -76l-61 -346h-49l-11 51q-42 -32 -83 -47
t-90 -15q-86 0 -124 40t-26 111zM190 55q48 0 83.5 14t73.5 43l20 107h-159q-92 0 -105 -78q-15 -86 87 -86zM209 630h230l-11 -60h-230z" />
    <glyph glyph-name="Abreve" unicode="&#x102;" horiz-adv-x="523" 
d="M362 158h-227l-71 -158h-84l305 650h101l77 -650h-83zM165 226h191l-33 345h-2zM350 748q64 0 78 72h54q-11 -61 -46.5 -93.5t-95.5 -32.5t-84 32.5t-13 93.5h55q-14 -72 52 -72z" />
    <glyph glyph-name="abreve" unicode="&#x103;" horiz-adv-x="501" 
d="M23 140q6 32 21 58.5t39.5 45.5t58 28.5t76.5 7.5l158 -7l13 73q4 26 2 44.5t-12.5 30.5t-32 17.5t-55.5 5.5q-63 0 -93.5 -21t-38.5 -72h-78q8 45 26 75.5t46 49t65.5 26.5t83.5 8q53 0 88.5 -9t55 -28.5t24.5 -50.5t-3 -76l-61 -346h-49l-11 51q-42 -32 -83 -47
t-90 -15q-86 0 -124 40t-26 111zM190 55q48 0 83.5 14t73.5 43l20 107h-159q-92 0 -105 -78q-15 -86 87 -86zM316 598q64 0 78 72h54q-11 -61 -46.5 -93.5t-95.5 -32.5t-84 32.5t-13 93.5h55q-14 -72 52 -72z" />
    <glyph glyph-name="Aogonek" unicode="&#x104;" horiz-adv-x="523" 
d="M321 -99q9 46 60 85l-19 172h-227l-71 -158h-84l305 650h101l77 -650q-35 -20 -54 -41.5t-22 -41.5q-4 -19 5.5 -26t27.5 -7h20l-9 -54h-47q-75 0 -63 71zM165 226h191l-33 345h-2z" />
    <glyph glyph-name="aogonek" unicode="&#x105;" horiz-adv-x="501" 
d="M356 5l-10 46q-42 -32 -83 -47t-90 -15q-86 0 -124 40t-26 111q6 32 21 58.5t39.5 45.5t58 28.5t76.5 7.5l158 -7l13 73q4 26 2 44.5t-12.5 30.5t-32 17.5t-55.5 5.5q-63 0 -93.5 -21t-38.5 -72h-78q8 45 26 75.5t46 49t65.5 26.5t83.5 8q53 0 88.5 -9t55 -28.5
t24.5 -50.5t-3 -76l-61 -346q-35 -20 -54 -41.5t-22 -41.5q-4 -19 5.5 -26t27.5 -7h20l-9 -54h-47q-75 0 -63 71q5 28 26.5 53.5t56.5 45.5zM190 55q48 0 83.5 14t73.5 43l20 107h-159q-92 0 -105 -78q-15 -86 87 -86z" />
    <glyph glyph-name="Cacute" unicode="&#x106;" horiz-adv-x="545" 
d="M252 60q35 0 61.5 6t45 20.5t30.5 38t18 59.5h80q-19 -105 -78.5 -149.5t-168.5 -44.5q-58 0 -98 12t-62.5 39t-27.5 72t7 111l36 202q11 64 31.5 108.5t52 72.5t76 40.5t103.5 12.5q109 0 153 -45t25 -150h-80q13 70 -13 97.5t-97 27.5q-39 0 -67.5 -7.5t-48.5 -25.5
t-33 -48.5t-21 -76.5l-38 -214q-8 -46 -6 -76.5t15.5 -48.5t39.5 -25.5t65 -7.5zM407 820h90l-101 -120h-44z" />
    <glyph glyph-name="cacute" unicode="&#x107;" horiz-adv-x="506" 
d="M299 444q-37 0 -64 -7t-46 -26t-31.5 -51t-21.5 -83l-9 -54q-9 -51 -8 -83.5t13.5 -51.5t36.5 -26t61 -7q34 0 57 5.5t39 17.5t25 31t14 47h78q-17 -92 -71 -129.5t-153 -37.5q-54 0 -92 10.5t-59.5 37.5t-26 72t7.5 114l9 54q12 69 33 114t52 71.5t72.5 37t94.5 10.5
q99 0 140.5 -37.5t25.5 -128.5h-78q4 27 2 46t-13.5 31t-32.5 17.5t-55 5.5zM355 670h90l-101 -120h-44z" />
    <glyph glyph-name="Ccircumflex" unicode="&#x108;" horiz-adv-x="545" 
d="M252 60q35 0 61.5 6t45 20.5t30.5 38t18 59.5h80q-19 -105 -78.5 -149.5t-168.5 -44.5q-58 0 -98 12t-62.5 39t-27.5 72t7 111l36 202q11 64 31.5 108.5t52 72.5t76 40.5t103.5 12.5q109 0 153 -45t25 -150h-80q13 70 -13 97.5t-97 27.5q-39 0 -67.5 -7.5t-48.5 -25.5
t-33 -48.5t-21 -76.5l-38 -214q-8 -46 -6 -76.5t15.5 -48.5t39.5 -25.5t65 -7.5zM471 700h-51l-42 69l-68 -69h-55l87 120h86z" />
    <glyph glyph-name="ccircumflex" unicode="&#x109;" horiz-adv-x="506" 
d="M299 444q-37 0 -64 -7t-46 -26t-31.5 -51t-21.5 -83l-9 -54q-9 -51 -8 -83.5t13.5 -51.5t36.5 -26t61 -7q34 0 57 5.5t39 17.5t25 31t14 47h78q-17 -92 -71 -129.5t-153 -37.5q-54 0 -92 10.5t-59.5 37.5t-26 72t7.5 114l9 54q12 69 33 114t52 71.5t72.5 37t94.5 10.5
q99 0 140.5 -37.5t25.5 -128.5h-78q4 27 2 46t-13.5 31t-32.5 17.5t-55 5.5zM424 550h-51l-42 69l-68 -69h-55l87 120h86z" />
    <glyph glyph-name="Cdotaccent" unicode="&#x10a;" horiz-adv-x="545" 
d="M252 60q35 0 61.5 6t45 20.5t30.5 38t18 59.5h80q-19 -105 -78.5 -149.5t-168.5 -44.5q-58 0 -98 12t-62.5 39t-27.5 72t7 111l36 202q11 64 31.5 108.5t52 72.5t76 40.5t103.5 12.5q109 0 153 -45t25 -150h-80q13 70 -13 97.5t-97 27.5q-39 0 -67.5 -7.5t-48.5 -25.5
t-33 -48.5t-21 -76.5l-38 -214q-8 -46 -6 -76.5t15.5 -48.5t39.5 -25.5t65 -7.5zM344 800h82l-14 -82h-82z" />
    <glyph glyph-name="cdotaccent" unicode="&#x10b;" horiz-adv-x="506" 
d="M299 444q-37 0 -64 -7t-46 -26t-31.5 -51t-21.5 -83l-9 -54q-9 -51 -8 -83.5t13.5 -51.5t36.5 -26t61 -7q34 0 57 5.5t39 17.5t25 31t14 47h78q-17 -92 -71 -129.5t-153 -37.5q-54 0 -92 10.5t-59.5 37.5t-26 72t7.5 114l9 54q12 69 33 114t52 71.5t72.5 37t94.5 10.5
q99 0 140.5 -37.5t25.5 -128.5h-78q4 27 2 46t-13.5 31t-32.5 17.5t-55 5.5zM296 650h82l-14 -82h-82z" />
    <glyph glyph-name="Ccaron" unicode="&#x10c;" horiz-adv-x="545" 
d="M252 60q35 0 61.5 6t45 20.5t30.5 38t18 59.5h80q-19 -105 -78.5 -149.5t-168.5 -44.5q-58 0 -98 12t-62.5 39t-27.5 72t7 111l36 202q11 64 31.5 108.5t52 72.5t76 40.5t103.5 12.5q109 0 153 -45t25 -150h-80q13 70 -13 97.5t-97 27.5q-39 0 -67.5 -7.5t-48.5 -25.5
t-33 -48.5t-21 -76.5l-38 -214q-8 -46 -6 -76.5t15.5 -48.5t39.5 -25.5t65 -7.5zM414 700h-86l-43 120h51l42 -69l68 69h55z" />
    <glyph glyph-name="ccaron" unicode="&#x10d;" horiz-adv-x="506" 
d="M299 444q-37 0 -64 -7t-46 -26t-31.5 -51t-21.5 -83l-9 -54q-9 -51 -8 -83.5t13.5 -51.5t36.5 -26t61 -7q34 0 57 5.5t39 17.5t25 31t14 47h78q-17 -92 -71 -129.5t-153 -37.5q-54 0 -92 10.5t-59.5 37.5t-26 72t7.5 114l9 54q12 69 33 114t52 71.5t72.5 37t94.5 10.5
q99 0 140.5 -37.5t25.5 -128.5h-78q4 27 2 46t-13.5 31t-32.5 17.5t-55 5.5zM362 550h-86l-43 120h51l42 -69l68 69h55z" />
    <glyph glyph-name="Dcaron" unicode="&#x10e;" horiz-adv-x="567" 
d="M212 580l-90 -510h115q41 0 72.5 7t55 25t39 48.5t23.5 77.5l34 196q9 51 3.5 81.5t-23 47t-46.5 22t-68 5.5h-115zM30 0l114 650h196q58 0 101 -10t69.5 -35.5t34 -71t-4.5 -115.5l-33 -186q-12 -71 -36 -116t-59 -70.5t-81.5 -35.5t-104.5 -10h-196zM390 700h-86
l-43 120h51l42 -69l68 69h55z" />
    <glyph glyph-name="dcaron" unicode="&#x10f;" horiz-adv-x="574" 
d="M218 55q33 0 75.5 15.5t76.5 44.5l48 272q-25 26 -60.5 41.5t-70.5 15.5q-32 0 -56 -7t-42 -25.5t-30.5 -49.5t-21.5 -79l-11 -66q-9 -48 -7.5 -79t13 -49.5t33 -26t53.5 -7.5zM197 -11q-44 0 -77.5 9.5t-53.5 34.5t-25.5 68.5t6.5 112.5l13 71q12 69 32.5 113t49.5 68.5
t65.5 34t80.5 9.5q39 0 75.5 -15.5t66.5 -39.5l38 215h78l-118 -670h-52l-10 49q-39 -27 -83 -43.5t-86 -16.5zM590 670h62l-56 -150h-33z" />
    <glyph glyph-name="Dcroat" unicode="&#x110;" horiz-adv-x="567" 
d="M35 360h58l51 290h196q58 0 101 -10t69.5 -35.5t34 -71t-4.5 -115.5l-33 -186q-12 -71 -36 -116t-59 -70.5t-81.5 -35.5t-104.5 -10h-196l53 301h-58zM212 580l-39 -220h120l-10 -59h-120l-41 -231h115q41 0 72.5 7t55 25t39 48.5t23.5 77.5l34 196q9 51 3.5 81.5t-23 47
t-46.5 22t-68 5.5h-115z" />
    <glyph glyph-name="dcroat" unicode="&#x111;" horiz-adv-x="533" 
d="M290 621h169l9 49h78l-118 -670h-52l-10 49q-39 -27 -83 -43.5t-86 -16.5q-44 0 -77.5 9.5t-53.5 34.5t-25.5 68.5t6.5 112.5l13 71q12 69 32.5 113t49.5 68.5t65.5 34t80.5 9.5q39 0 75.5 -15.5t66.5 -39.5l19 110h-169zM218 55q33 0 75.5 15.5t76.5 44.5l48 272
q-25 26 -60.5 41.5t-70.5 15.5q-32 0 -56 -7t-42 -25.5t-30.5 -49.5t-21.5 -79l-11 -66q-9 -48 -7.5 -79t13 -49.5t33 -26t53.5 -7.5z" />
    <glyph glyph-name="Emacron" unicode="&#x112;" horiz-adv-x="495" 
d="M144 650h370l-12 -70h-290l-38 -216h254l-12 -68h-254l-40 -226h290l-12 -70h-370zM247 780h230l-11 -60h-230z" />
    <glyph glyph-name="emacron" unicode="&#x113;" horiz-adv-x="506" 
d="M486 356q-9 -74 -54.5 -108.5t-146.5 -29.5l-158 7q-9 -51 -8.5 -84t12.5 -52t37 -26.5t66 -7.5q54 0 95.5 5.5t81.5 13.5l-11 -66q-38 -8 -81.5 -13t-96.5 -5q-54 0 -92 10t-60.5 36t-27.5 71t7 116l9 54q12 69 33 114t52 71.5t72 37t93 10.5q101 0 144 -43t34 -111z
M405 355q11 89 -108 89q-38 0 -64.5 -8t-45 -27.5t-30 -51t-20.5 -78.5h165q51 0 74.5 16t28.5 60zM219 630h230l-11 -60h-230z" />
    <glyph glyph-name="Ebreve" unicode="&#x114;" horiz-adv-x="495" 
d="M144 650h370l-12 -70h-290l-38 -216h254l-12 -68h-254l-40 -226h290l-12 -70h-370zM360 748q64 0 78 72h54q-11 -61 -46.5 -93.5t-95.5 -32.5t-84 32.5t-13 93.5h55q-14 -72 52 -72z" />
    <glyph glyph-name="ebreve" unicode="&#x115;" horiz-adv-x="506" 
d="M486 356q-9 -74 -54.5 -108.5t-146.5 -29.5l-158 7q-9 -51 -8.5 -84t12.5 -52t37 -26.5t66 -7.5q54 0 95.5 5.5t81.5 13.5l-11 -66q-38 -8 -81.5 -13t-96.5 -5q-54 0 -92 10t-60.5 36t-27.5 71t7 116l9 54q12 69 33 114t52 71.5t72 37t93 10.5q101 0 144 -43t34 -111z
M405 355q11 89 -108 89q-38 0 -64.5 -8t-45 -27.5t-30 -51t-20.5 -78.5h165q51 0 74.5 16t28.5 60zM328 598q64 0 78 72h54q-11 -61 -46.5 -93.5t-95.5 -32.5t-84 32.5t-13 93.5h55q-14 -72 52 -72z" />
    <glyph glyph-name="Edotaccent" unicode="&#x116;" horiz-adv-x="495" 
d="M144 650h370l-12 -70h-290l-38 -216h254l-12 -68h-254l-40 -226h290l-12 -70h-370zM325 800h82l-14 -82h-82z" />
    <glyph glyph-name="edotaccent" unicode="&#x117;" horiz-adv-x="506" 
d="M486 356q-9 -74 -54.5 -108.5t-146.5 -29.5l-158 7q-9 -51 -8.5 -84t12.5 -52t37 -26.5t66 -7.5q54 0 95.5 5.5t81.5 13.5l-11 -66q-38 -8 -81.5 -13t-96.5 -5q-54 0 -92 10t-60.5 36t-27.5 71t7 116l9 54q12 69 33 114t52 71.5t72 37t93 10.5q101 0 144 -43t34 -111z
M405 355q11 89 -108 89q-38 0 -64.5 -8t-45 -27.5t-30 -51t-20.5 -78.5h165q51 0 74.5 16t28.5 60zM289 650h82l-14 -82h-82z" />
    <glyph glyph-name="Eogonek" unicode="&#x118;" horiz-adv-x="495" 
d="M144 650h370l-12 -70h-290l-38 -216h254l-12 -68h-254l-40 -226h290l-12 -70q-35 -20 -54 -41.5t-22 -41.5q-4 -19 5.5 -26t27.5 -7h20l-9 -54h-47q-75 0 -63 71q5 28 26.5 53.5t56.5 45.5h-311z" />
    <glyph glyph-name="eogonek" unicode="&#x119;" horiz-adv-x="506" 
d="M486 356q-9 -74 -54.5 -108.5t-146.5 -29.5l-158 7q-9 -51 -8.5 -84t12.5 -52t37 -26.5t66 -7.5q54 0 95.5 5.5t81.5 13.5l-11 -66q-35 -20 -54 -41.5t-22 -41.5q-4 -19 5.5 -26t27.5 -7h20l-9 -54h-47q-75 0 -63 71q9 48 63 87q-45 -6 -99 -6t-92 10t-60.5 36t-27.5 71
t7 116l9 54q12 69 33 114t52 71.5t72 37t93 10.5q101 0 144 -43t34 -111zM405 355q11 89 -108 89q-38 0 -64.5 -8t-45 -27.5t-30 -51t-20.5 -78.5h165q51 0 74.5 16t28.5 60z" />
    <glyph glyph-name="Ecaron" unicode="&#x11a;" horiz-adv-x="495" 
d="M144 650h370l-12 -70h-290l-38 -216h254l-12 -68h-254l-40 -226h290l-12 -70h-370zM393 700h-86l-43 120h51l42 -69l68 69h55z" />
    <glyph glyph-name="ecaron" unicode="&#x11b;" horiz-adv-x="506" 
d="M486 356q-9 -74 -54.5 -108.5t-146.5 -29.5l-158 7q-9 -51 -8.5 -84t12.5 -52t37 -26.5t66 -7.5q54 0 95.5 5.5t81.5 13.5l-11 -66q-38 -8 -81.5 -13t-96.5 -5q-54 0 -92 10t-60.5 36t-27.5 71t7 116l9 54q12 69 33 114t52 71.5t72 37t93 10.5q101 0 144 -43t34 -111z
M405 355q11 89 -108 89q-38 0 -64.5 -8t-45 -27.5t-30 -51t-20.5 -78.5h165q51 0 74.5 16t28.5 60zM352 550h-86l-43 120h51l42 -69l68 69h55z" />
    <glyph glyph-name="Gcircumflex" unicode="&#x11c;" horiz-adv-x="570" 
d="M358 660q109 0 153 -44.5t26 -149.5h-80q12 70 -14 97t-97 27q-39 0 -67.5 -7.5t-48.5 -25.5t-33 -48.5t-21 -76.5l-38 -214q-8 -47 -6 -77.5t16 -48.5t40.5 -25t66.5 -7q75 0 112.5 29.5t48.5 91.5l21 115h-133l12 68h213l-64 -364h-42l-8 55q-32 -32 -72 -48.5
t-103 -16.5q-58 0 -98 12t-62.5 39.5t-27.5 72t7 109.5l36 204q11 63 31.5 107.5t52 72.5t76 40.5t103.5 12.5zM476 700h-51l-42 69l-68 -69h-55l87 120h86z" />
    <glyph glyph-name="gcircumflex" unicode="&#x11d;" horiz-adv-x="533" 
d="M359 55q-38 -24 -79.5 -39.5t-80.5 -15.5q-44 0 -77.5 9.5t-53.5 34t-25.5 68.5t6.5 113l11 60q12 69 32.5 113t49.5 68.5t65.5 34t80.5 9.5q42 0 80.5 -16.5t68.5 -42.5l27 49h52l-89 -501q-8 -47 -24.5 -81t-43.5 -56t-66 -32t-92 -10q-38 0 -79 4.5t-74 14.5l12 70
q37 -12 74.5 -17.5t76.5 -5.5q31 0 54 5t40 18t27.5 35t16.5 55zM287 444q-32 0 -56 -7.5t-42 -26t-30.5 -49.5t-21.5 -78l-9 -56q-9 -48 -7.5 -79t13 -49.5t33 -25.5t53.5 -7q35 0 76 15.5t75 41.5l46 262q-23 29 -60 44t-70 15zM430 550h-51l-42 69l-68 -69h-55l87 120h86
z" />
    <glyph glyph-name="Gbreve" unicode="&#x11e;" horiz-adv-x="570" 
d="M358 660q109 0 153 -44.5t26 -149.5h-80q12 70 -14 97t-97 27q-39 0 -67.5 -7.5t-48.5 -25.5t-33 -48.5t-21 -76.5l-38 -214q-8 -47 -6 -77.5t16 -48.5t40.5 -25t66.5 -7q75 0 112.5 29.5t48.5 91.5l21 115h-133l12 68h213l-64 -364h-42l-8 55q-32 -32 -72 -48.5
t-103 -16.5q-58 0 -98 12t-62.5 39.5t-27.5 72t7 109.5l36 204q11 63 31.5 107.5t52 72.5t76 40.5t103.5 12.5zM387 748q64 0 78 72h54q-11 -61 -46.5 -93.5t-95.5 -32.5t-84 32.5t-13 93.5h55q-14 -72 52 -72z" />
    <glyph glyph-name="gbreve" unicode="&#x11f;" horiz-adv-x="533" 
d="M359 55q-38 -24 -79.5 -39.5t-80.5 -15.5q-44 0 -77.5 9.5t-53.5 34t-25.5 68.5t6.5 113l11 60q12 69 32.5 113t49.5 68.5t65.5 34t80.5 9.5q42 0 80.5 -16.5t68.5 -42.5l27 49h52l-89 -501q-8 -47 -24.5 -81t-43.5 -56t-66 -32t-92 -10q-38 0 -79 4.5t-74 14.5l12 70
q37 -12 74.5 -17.5t76.5 -5.5q31 0 54 5t40 18t27.5 35t16.5 55zM287 444q-32 0 -56 -7.5t-42 -26t-30.5 -49.5t-21.5 -78l-9 -56q-9 -48 -7.5 -79t13 -49.5t33 -25.5t53.5 -7q35 0 76 15.5t75 41.5l46 262q-23 29 -60 44t-70 15zM332 598q64 0 78 72h54
q-11 -61 -46.5 -93.5t-95.5 -32.5t-84 32.5t-13 93.5h55q-14 -72 52 -72z" />
    <glyph glyph-name="Gdotaccent" unicode="&#x120;" horiz-adv-x="570" 
d="M358 660q109 0 153 -44.5t26 -149.5h-80q12 70 -14 97t-97 27q-39 0 -67.5 -7.5t-48.5 -25.5t-33 -48.5t-21 -76.5l-38 -214q-8 -47 -6 -77.5t16 -48.5t40.5 -25t66.5 -7q75 0 112.5 29.5t48.5 91.5l21 115h-133l12 68h213l-64 -364h-42l-8 55q-32 -32 -72 -48.5
t-103 -16.5q-58 0 -98 12t-62.5 39.5t-27.5 72t7 109.5l36 204q11 63 31.5 107.5t52 72.5t76 40.5t103.5 12.5zM346 800h82l-14 -82h-82z" />
    <glyph glyph-name="gdotaccent" unicode="&#x121;" horiz-adv-x="533" 
d="M359 55q-38 -24 -79.5 -39.5t-80.5 -15.5q-44 0 -77.5 9.5t-53.5 34t-25.5 68.5t6.5 113l11 60q12 69 32.5 113t49.5 68.5t65.5 34t80.5 9.5q42 0 80.5 -16.5t68.5 -42.5l27 49h52l-89 -501q-8 -47 -24.5 -81t-43.5 -56t-66 -32t-92 -10q-38 0 -79 4.5t-74 14.5l12 70
q37 -12 74.5 -17.5t76.5 -5.5q31 0 54 5t40 18t27.5 35t16.5 55zM287 444q-32 0 -56 -7.5t-42 -26t-30.5 -49.5t-21.5 -78l-9 -56q-9 -48 -7.5 -79t13 -49.5t33 -25.5t53.5 -7q35 0 76 15.5t75 41.5l46 262q-23 29 -60 44t-70 15zM302 650h82l-14 -82h-82z" />
    <glyph glyph-name="Gcommaaccent" unicode="&#x122;" horiz-adv-x="570" 
d="M358 660q109 0 153 -44.5t26 -149.5h-80q12 70 -14 97t-97 27q-39 0 -67.5 -7.5t-48.5 -25.5t-33 -48.5t-21 -76.5l-38 -214q-8 -47 -6 -77.5t16 -48.5t40.5 -25t66.5 -7q75 0 112.5 29.5t48.5 91.5l21 115h-133l12 68h213l-64 -364h-42l-8 55q-32 -32 -72 -48.5
t-103 -16.5q-58 0 -98 12t-62.5 39.5t-27.5 72t7 109.5l36 204q11 63 31.5 107.5t52 72.5t76 40.5t103.5 12.5zM206 -40h90l-100 -120h-44z" />
    <glyph glyph-name="gcommaaccent" unicode="&#x123;" horiz-adv-x="533" 
d="M359 55q-38 -24 -79.5 -39.5t-80.5 -15.5q-44 0 -77.5 9.5t-53.5 34t-25.5 68.5t6.5 113l11 60q12 69 32.5 113t49.5 68.5t65.5 34t80.5 9.5q42 0 80.5 -16.5t68.5 -42.5l27 49h52l-89 -501q-8 -47 -24.5 -81t-43.5 -56t-66 -32t-92 -10q-38 0 -79 4.5t-74 14.5l12 70
q37 -12 74.5 -17.5t76.5 -5.5q31 0 54 5t40 18t27.5 35t16.5 55zM287 444q-32 0 -56 -7.5t-42 -26t-30.5 -49.5t-21.5 -78l-9 -56q-9 -48 -7.5 -79t13 -49.5t33 -25.5t53.5 -7q35 0 76 15.5t75 41.5l46 262q-23 29 -60 44t-70 15zM345.003 539.998h-89.9941l99.9932 119.992
h43.998z" />
    <glyph glyph-name="Hcircumflex" unicode="&#x124;" horiz-adv-x="565" 
d="M455 0h-80l52 296h-265l-52 -296h-80l114 650h80l-50 -286h265l50 286h80zM476 700h-51l-42 69l-68 -69h-55l87 120h86z" />
    <glyph glyph-name="hcircumflex" unicode="&#x125;" horiz-adv-x="537" 
d="M183 454q45 28 84.5 42t82.5 14q44 0 73 -9.5t45 -30.5t19 -55t-6 -82l-58 -333h-78l58 333q6 33 3.5 54.5t-13 34t-29.5 17.5t-46 5q-36 0 -73.5 -13t-72.5 -37l-69 -394h-78l118 670h78zM453 550h-51l-42 69l-68 -69h-55l87 120h86z" />
    <glyph glyph-name="Hbar" unicode="&#x126;" horiz-adv-x="565" 
d="M85 540h40l19 110h80l-19 -110h265l19 110h80l-19 -110h40l-11 -59h-40l-84 -481h-80l52 296h-265l-52 -296h-80l84 481h-40zM439 364l20 117h-265l-20 -117h265z" />
    <glyph glyph-name="hbar" unicode="&#x127;" horiz-adv-x="537" 
d="M212 620h280l-9 -49h-280l-20 -117q45 28 84.5 42t82.5 14q44 0 73 -9.5t45 -30.5t19 -55t-6 -82l-58 -333h-78l58 333q6 33 3.5 54.5t-13 34t-29.5 17.5t-46 5q-36 0 -73.5 -13t-72.5 -37l-69 -394h-78l118 670h78z" />
    <glyph glyph-name="Itilde" unicode="&#x128;" horiz-adv-x="220" 
d="M242 684q-20 0 -32.5 8t-21.5 18t-16.5 18t-18.5 8q-16 0 -22.5 -12t-9.5 -30h-52q9 50 29.5 76t60.5 26q19 0 31 -8t21 -18t17 -18t20 -8q15 0 22 12t10 30h51q-9 -50 -29.5 -76t-59.5 -26zM144 650h80l-114 -650h-80z" />
    <glyph glyph-name="itilde" unicode="&#x129;" horiz-adv-x="213" 
d="M213 539q-20 0 -32.5 8t-21.5 18t-16.5 18t-18.5 8q-16 0 -22.5 -12t-10.5 -30h-52q9 50 29.5 76t60.5 26q19 0 31 -8t21 -18t17 -18t20 -8q15 0 22 12t11 30h51q-9 -50 -29.5 -76t-59.5 -26zM115 500h78l-88 -500h-78z" />
    <glyph glyph-name="Imacron" unicode="&#x12a;" horiz-adv-x="220" 
d="M112 780h190l-11 -60h-190zM144 650h80l-114 -650h-80z" />
    <glyph glyph-name="imacron" unicode="&#x12b;" horiz-adv-x="213" 
d="M81 620h190l-11 -59h-190zM115 500h78l-88 -500h-78z" />
    <glyph glyph-name="Ibreve" unicode="&#x12c;" horiz-adv-x="220" 
d="M144 650h80l-114 -650h-80zM197 748q64 0 78 72h54q-11 -61 -46.5 -93.5t-95.5 -32.5t-84 32.5t-13 93.5h55q-14 -72 52 -72z" />
    <glyph glyph-name="ibreve" unicode="&#x12d;" horiz-adv-x="213" 
d="M115 500h78l-88 -500h-78zM173 598q64 0 78 72h54q-11 -61 -46.5 -93.5t-95.5 -32.5t-84 32.5t-13 93.5h55q-14 -72 52 -72z" />
    <glyph glyph-name="Iogonek" unicode="&#x12e;" horiz-adv-x="220" 
d="M144 650h80l-114 -650q-35 -20 -54 -41.5t-22 -41.5q-4 -19 5.5 -26t27.5 -7h20l-9 -54h-47q-75 0 -63 71q5 28 26.5 53.5t56.5 45.5h-21z" />
    <glyph glyph-name="iogonek" unicode="&#x12f;" horiz-adv-x="213" 
d="M-37 -99q9 49 61 85l91 514h78l-88 -500q-35 -20 -54 -41.5t-22 -41.5q-4 -19 5.5 -26t27.5 -7h20l-9 -54h-47q-74 0 -63 71zM141 670h82l-15 -82h-82z" />
    <glyph glyph-name="Idotaccent" unicode="&#x130;" horiz-adv-x="220" 
d="M144 650h80l-114 -650h-80zM166 800h82l-14 -82h-82z" />
    <glyph glyph-name="dotlessi" unicode="&#x131;" horiz-adv-x="213" 
d="M115 500h78l-88 -500h-78z" />
    <glyph glyph-name="Jcircumflex" unicode="&#x134;" horiz-adv-x="363" 
d="M152 580l12 70h203l-90 -512q-6 -37 -18 -64.5t-33 -46t-52.5 -28t-77.5 -9.5q-26 0 -50.5 2.5t-45.5 7.5l12 70q20 -5 43.5 -7.5t48.5 -2.5q42 0 63.5 16t29.5 62l78 442h-123zM378 700h-51l-42 69l-68 -69h-55l87 120h86z" />
    <glyph glyph-name="jcircumflex" unicode="&#x135;" horiz-adv-x="208" 
d="M95 -53q-11 -64 -42.5 -95.5t-94.5 -31.5q-45 0 -73 10l11 66q11 -3 26.5 -6t32.5 -3q29 0 43 15.5t19 44.5l98 553h78zM268 550h-53l-42 69l-68 -69h-53l87 120h86z" />
    <glyph glyph-name="Kcommaaccent" unicode="&#x136;" horiz-adv-x="508" 
d="M236 334l202 -334h-96q-42 76 -70 125t-48.5 81t-34.5 52t-27 40l-52 -298h-80l114 650h80l-51 -288l277 288h97zM175 -40h90l-100 -120h-44z" />
    <glyph glyph-name="kcommaaccent" unicode="&#x137;" horiz-adv-x="460" 
d="M103 0h-78l118 670h78l-68 -381h2l224 211h98l-259 -241q6 -11 21 -31.5t33.5 -45.5t39 -52.5t39 -52.5t33 -45.5t21.5 -31.5h-95l-164 236h-2zM151 -40h90l-100 -120h-44z" />
    <glyph glyph-name="kgreenlandic" unicode="&#x138;" horiz-adv-x="460" 
d="M103 0h-78l88 500h78l-38 -211h2l226 211h96l-259 -236q6 -11 21 -32t33.5 -46.5t39 -53.5t39 -53.5t33 -46.5t21.5 -32h-99l-160 236h-2z" />
    <glyph glyph-name="Lacute" unicode="&#x139;" horiz-adv-x="422" 
d="M144 650h80l-102 -580h232l-12 -70h-312zM223 820h90l-101 -120h-44z" />
    <glyph glyph-name="lacute" unicode="&#x13a;" horiz-adv-x="208" 
d="M143 670h78l-118 -670h-78zM228 840h90l-101 -120h-44z" />
    <glyph glyph-name="Lcommaaccent" unicode="&#x13b;" horiz-adv-x="422" 
d="M144 650h80l-102 -580h232l-12 -70h-312zM132 -40h90l-100 -120h-44z" />
    <glyph glyph-name="lcommaaccent" unicode="&#x13c;" horiz-adv-x="208" 
d="M143 670h78l-118 -670h-78zM17 -40h90l-100 -120h-44z" />
    <glyph glyph-name="Lcaron" unicode="&#x13d;" horiz-adv-x="422" 
d="M266 670h62l-56 -150h-33zM144 650h80l-102 -580h232l-12 -70h-312z" />
    <glyph glyph-name="lcaron" unicode="&#x13e;" horiz-adv-x="249" 
d="M143 670h78l-118 -670h-78zM265 670h62l-56 -150h-33z" />
    <glyph glyph-name="Ldot" unicode="&#x13f;" horiz-adv-x="422" 
d="M144 650h80l-102 -580h232l-12 -70h-312zM228 378h98l-17 -97h-98z" />
    <glyph glyph-name="ldot" unicode="&#x140;" horiz-adv-x="301" 
d="M143 670h78l-118 -670h-78zM209 378h98l-17 -97h-98z" />
    <glyph glyph-name="Lslash" unicode="&#x141;" horiz-adv-x="422" 
d="M76 264l-63 -16l11 60l63 16l57 326h80l-53 -304l63 17l-11 -60l-63 -17l-38 -216h232l-12 -70h-312z" />
    <glyph glyph-name="lslash" unicode="&#x142;" horiz-adv-x="208" 
d="M71 262l-58 -14l11 60l57 14l62 348h78l-58 -327l58 15l-11 -60l-58 -15l-49 -283h-78z" />
    <glyph glyph-name="Nacute" unicode="&#x143;" horiz-adv-x="574" 
d="M464 0h-102l-158 535l-94 -535h-80l114 650h102l158 -535l94 535h80zM402 820h90l-101 -120h-44z" />
    <glyph glyph-name="nacute" unicode="&#x144;" 
d="M165 500l9 -49q44 29 84.5 44t90.5 15q43 0 72.5 -9t45.5 -29.5t19.5 -54.5t-5.5 -84l-58 -333h-78l58 333q6 33 3.5 54.5t-13 34t-29.5 17.5t-46 5q-36 0 -73.5 -13t-72.5 -37l-69 -394h-78l88 500h52zM357 670h90l-101 -120h-44z" />
    <glyph glyph-name="Ncommaaccent" unicode="&#x145;" horiz-adv-x="574" 
d="M464 0h-102l-158 535l-94 -535h-80l114 650h102l158 -535l94 535h80zM208 -40h90l-100 -120h-44z" />
    <glyph glyph-name="ncommaaccent" unicode="&#x146;" 
d="M165 500l9 -49q44 29 84.5 44t90.5 15q43 0 72.5 -9t45.5 -29.5t19.5 -54.5t-5.5 -84l-58 -333h-78l58 333q6 33 3.5 54.5t-13 34t-29.5 17.5t-46 5q-36 0 -73.5 -13t-72.5 -37l-69 -394h-78l88 500h52zM185 -40h90l-100 -120h-44z" />
    <glyph glyph-name="Ncaron" unicode="&#x147;" horiz-adv-x="574" 
d="M464 0h-102l-158 535l-94 -535h-80l114 650h102l158 -535l94 535h80zM406 700h-86l-43 120h51l42 -69l68 69h55z" />
    <glyph glyph-name="ncaron" unicode="&#x148;" 
d="M165 500l9 -49q44 29 84.5 44t90.5 15q43 0 72.5 -9t45.5 -29.5t19.5 -54.5t-5.5 -84l-58 -333h-78l58 333q6 33 3.5 54.5t-13 34t-29.5 17.5t-46 5q-36 0 -73.5 -13t-72.5 -37l-69 -394h-78l88 500h52zM363 550h-86l-43 120h51l42 -69l68 69h55z" />
    <glyph glyph-name="Eng" unicode="&#x14a;" horiz-adv-x="574" 
d="M578 650l-119 -675q-6 -37 -18 -64.5t-33 -46t-52.5 -28t-77.5 -9.5q-55 0 -96 10l12 70q20 -5 43.5 -7.5t48.5 -2.5q42 0 63.5 16t29.5 62l5 25h-22l-158 535l-94 -535h-80l114 650h102l158 -535l94 535h80z" />
    <glyph glyph-name="eng" unicode="&#x14b;" 
d="M165 500l9 -49q44 29 84.5 44t90.5 15q43 0 72.5 -9t45.5 -29.5t19.5 -54.5t-5.5 -84l-68 -386q-11 -64 -42.5 -95.5t-95.5 -31.5q-45 0 -73 10l11 66q11 -3 26.5 -6t32.5 -3q30 0 44 15.5t19 44.5l68 386q6 33 3.5 54.5t-13 34t-29.5 17.5t-46 5q-36 0 -73.5 -13
t-72.5 -37l-69 -394h-78l88 500h52z" />
    <glyph glyph-name="Omacron" unicode="&#x14c;" horiz-adv-x="559" 
d="M459 430q9 48 6 79t-17.5 49t-40.5 25t-63 7q-38 0 -67 -7t-50 -25t-34.5 -49.5t-22.5 -79.5l-37 -209q-8 -48 -5 -79t17.5 -49t40.5 -25t64 -7q37 0 65.5 7t49.5 25t35 49t22 79zM90 430q12 65 33 109t53.5 71t77 38.5t102.5 11.5t98 -12t63 -39t28.5 -71t-6.5 -108
l-37 -210q-11 -65 -32 -109t-53.5 -71t-76.5 -38.5t-102 -11.5t-98 11.5t-63.5 38.5t-29 71t5.5 109zM255 780h230l-11 -60h-230z" />
    <glyph glyph-name="omacron" unicode="&#x14d;" horiz-adv-x="511" 
d="M465 223q-12 -68 -32 -113t-50.5 -72t-72.5 -38t-97 -11t-93 11t-59 38t-25 72t8 113l9 54q12 67 32.5 112t51 72t72 38t95.5 11q55 0 93 -11t59 -38t25.5 -72t-7.5 -112zM396 277q9 50 8 82.5t-13 51t-36 26t-62 7.5t-64.5 -7.5t-45.5 -26t-31 -51t-21 -82.5l-9 -54
q-9 -51 -8.5 -83.5t12.5 -51t36 -26t62 -7.5t65 7.5t45.5 26t31 51t21.5 83.5zM211 630h230l-11 -60h-230z" />
    <glyph glyph-name="Obreve" unicode="&#x14e;" horiz-adv-x="559" 
d="M459 430q9 48 6 79t-17.5 49t-40.5 25t-63 7q-38 0 -67 -7t-50 -25t-34.5 -49.5t-22.5 -79.5l-37 -209q-8 -48 -5 -79t17.5 -49t40.5 -25t64 -7q37 0 65.5 7t49.5 25t35 49t22 79zM90 430q12 65 33 109t53.5 71t77 38.5t102.5 11.5t98 -12t63 -39t28.5 -71t-6.5 -108
l-37 -210q-11 -65 -32 -109t-53.5 -71t-76.5 -38.5t-102 -11.5t-98 11.5t-63.5 38.5t-29 71t5.5 109zM365 748q64 0 78 72h54q-11 -61 -46.5 -93.5t-95.5 -32.5t-84 32.5t-13 93.5h55q-14 -72 52 -72z" />
    <glyph glyph-name="obreve" unicode="&#x14f;" horiz-adv-x="511" 
d="M465 223q-12 -68 -32 -113t-50.5 -72t-72.5 -38t-97 -11t-93 11t-59 38t-25 72t8 113l9 54q12 67 32.5 112t51 72t72 38t95.5 11q55 0 93 -11t59 -38t25.5 -72t-7.5 -112zM396 277q9 50 8 82.5t-13 51t-36 26t-62 7.5t-64.5 -7.5t-45.5 -26t-31 -51t-21 -82.5l-9 -54
q-9 -51 -8.5 -83.5t12.5 -51t36 -26t62 -7.5t65 7.5t45.5 26t31 51t21.5 83.5zM321 598q64 0 78 72h54q-11 -61 -46.5 -93.5t-95.5 -32.5t-84 32.5t-13 93.5h55q-14 -72 52 -72z" />
    <glyph glyph-name="Ohungarumlaut" unicode="&#x150;" horiz-adv-x="559" 
d="M459 430q9 48 6 79t-17.5 49t-40.5 25t-63 7q-38 0 -67 -7t-50 -25t-34.5 -49.5t-22.5 -79.5l-37 -209q-8 -48 -5 -79t17.5 -49t40.5 -25t64 -7q37 0 65.5 7t49.5 25t35 49t22 79zM90 430q12 65 33 109t53.5 71t77 38.5t102.5 11.5t98 -12t63 -39t28.5 -71t-6.5 -108
l-37 -210q-11 -65 -32 -109t-53.5 -71t-76.5 -38.5t-102 -11.5t-98 11.5t-63.5 38.5t-29 71t5.5 109zM315 810h83l-75 -120h-47zM453 810h84l-94 -120h-51z" />
    <glyph glyph-name="ohungarumlaut" unicode="&#x151;" horiz-adv-x="511" 
d="M465 223q-12 -68 -32 -113t-50.5 -72t-72.5 -38t-97 -11t-93 11t-59 38t-25 72t8 113l9 54q12 67 32.5 112t51 72t72 38t95.5 11q55 0 93 -11t59 -38t25.5 -72t-7.5 -112zM396 277q9 50 8 82.5t-13 51t-36 26t-62 7.5t-64.5 -7.5t-45.5 -26t-31 -51t-21 -82.5l-9 -54
q-9 -51 -8.5 -83.5t12.5 -51t36 -26t62 -7.5t65 7.5t45.5 26t31 51t21.5 83.5zM272 660h83l-75 -120h-47zM410 660h84l-94 -120h-51z" />
    <glyph glyph-name="OE" unicode="&#x152;" horiz-adv-x="835" 
d="M474 580h-129q-38 0 -67 -7t-50.5 -24.5t-36 -47.5t-22.5 -76l-35 -200q-8 -47 -4 -77t20 -47t42.5 -24t62.5 -7h129zM856 650l-12 -70h-290l-38 -216h254l-12 -68h-254l-40 -226h290l-12 -70h-499q-57 0 -97.5 11.5t-64.5 37.5t-31 69.5t4 106.5l35 199q11 64 33 107.5
t55.5 69.5t78 37.5t101.5 11.5h499z" />
    <glyph glyph-name="oe" unicode="&#x153;" horiz-adv-x="844" 
d="M396 277q9 50 8 82.5t-13 51t-36 26t-62 7.5t-64.5 -7.5t-45.5 -26t-31 -51t-21 -82.5l-9 -54q-9 -51 -8.5 -83.5t12.5 -51t36 -26t62 -7.5t65 7.5t45.5 26t31 51t21.5 83.5zM743 355q11 89 -108 89q-38 0 -64.5 -8t-45 -27.5t-30 -51t-20.5 -78.5h165q51 0 74.5 16
t28.5 60zM824 356q-9 -74 -54.5 -108.5t-146.5 -29.5l-158 7q-9 -51 -8.5 -84t12.5 -52t37 -26.5t66 -7.5q54 0 95.5 5.5t81.5 13.5l-11 -66q-38 -8 -81.5 -13t-96.5 -5q-66 0 -106 15t-56 57q-29 -41 -74 -57t-111 -16q-55 0 -93 11t-59 38t-25 72t8 113l9 54
q12 67 32.5 112t51 72t72 38t95.5 11q66 0 105 -16t54 -58q30 42 75 58t108 16q101 0 144 -43t34 -111z" />
    <glyph glyph-name="Racute" unicode="&#x154;" horiz-adv-x="548" 
d="M144 650h205q57 0 97 -9t64 -32t30.5 -62.5t-4.5 -100.5q-14 -81 -50 -126t-99 -62l81 -258h-87l-75 246h-153l-43 -246h-80zM292 314q38 0 65.5 6t46.5 21t30.5 40.5t18.5 64.5q7 42 4 68t-17.5 41t-39.5 20t-62 5h-126l-47 -266h127zM369 820h90l-101 -120h-44z" />
    <glyph glyph-name="racute" unicode="&#x155;" horiz-adv-x="317" 
d="M319 438q-47 0 -81 -12.5t-67 -39.5l-68 -386h-78l88 500h52l9 -49q37 28 74.5 43.5t82.5 15.5zM268 670h90l-101 -120h-44z" />
    <glyph glyph-name="Rcommaaccent" unicode="&#x156;" horiz-adv-x="548" 
d="M144 650h205q57 0 97 -9t64 -32t30.5 -62.5t-4.5 -100.5q-14 -81 -50 -126t-99 -62l81 -258h-87l-75 246h-153l-43 -246h-80zM292 314q38 0 65.5 6t46.5 21t30.5 40.5t18.5 64.5q7 42 4 68t-17.5 41t-39.5 20t-62 5h-126l-47 -266h127zM195 -40h90l-100 -120h-44z" />
    <glyph glyph-name="rcommaaccent" unicode="&#x157;" horiz-adv-x="317" 
d="M319 438q-47 0 -81 -12.5t-67 -39.5l-68 -386h-78l88 500h52l9 -49q37 28 74.5 43.5t82.5 15.5zM17 -40h90l-100 -120h-44z" />
    <glyph glyph-name="Rcaron" unicode="&#x158;" horiz-adv-x="548" 
d="M144 650h205q57 0 97 -9t64 -32t30.5 -62.5t-4.5 -100.5q-14 -81 -50 -126t-99 -62l81 -258h-87l-75 246h-153l-43 -246h-80zM292 314q38 0 65.5 6t46.5 21t30.5 40.5t18.5 64.5q7 42 4 68t-17.5 41t-39.5 20t-62 5h-126l-47 -266h127zM393 700h-86l-43 120h51l42 -69
l68 69h55z" />
    <glyph glyph-name="rcaron" unicode="&#x159;" horiz-adv-x="317" 
d="M319 438q-47 0 -81 -12.5t-67 -39.5l-68 -386h-78l88 500h52l9 -49q37 28 74.5 43.5t82.5 15.5zM275 550h-86l-43 120h51l42 -69l68 69h55z" />
    <glyph glyph-name="Sacute" unicode="&#x15a;" horiz-adv-x="537" 
d="M268 302q-54 7 -89.5 21t-56 35.5t-26 52.5t2.5 72q15 85 74.5 131t167.5 46t152.5 -41.5t26.5 -142.5h-80q12 65 -14 89.5t-96 24.5q-67 0 -104 -25t-47 -82q-5 -27 -2.5 -47t16.5 -34.5t40.5 -23.5t69.5 -15q64 -8 102.5 -23t58 -37.5t22.5 -54t-4 -73.5
q-17 -98 -78.5 -141.5t-178.5 -43.5q-52 0 -92 9t-64.5 30.5t-33.5 57t1 89.5h80q-6 -35 -1.5 -57t20 -35.5t41 -18.5t61.5 -5q40 0 69 6.5t48.5 20.5t30.5 35.5t16 52.5q5 28 3.5 49t-15.5 36t-43 25t-78 17zM383 820h90l-101 -120h-44z" />
    <glyph glyph-name="sacute" unicode="&#x15b;" horiz-adv-x="493" 
d="M432 139q-5 -30 -16 -57.5t-36 -47.5t-67 -32t-109 -12q-59 0 -96 10.5t-56.5 30.5t-23.5 49t2 66h76q-4 -24 -1.5 -41t14.5 -28.5t34 -16.5t58 -5q41 0 67.5 6t42 16.5t23 26t10.5 35.5q4 20 0.5 34.5t-17 24.5t-38 16t-63.5 9q-98 9 -134 42t-24 99q14 78 69.5 112
t145.5 34q101 0 140.5 -36t24.5 -121h-76q4 22 1.5 39t-13 28.5t-31.5 17.5t-54 6q-56 0 -88.5 -18t-40.5 -62q-8 -42 13.5 -60.5t90.5 -23.5q58 -5 94 -14.5t55.5 -25.5t24 -40.5t-1.5 -60.5zM343 670h90l-101 -120h-44z" />
    <glyph glyph-name="Scircumflex" unicode="&#x15c;" horiz-adv-x="537" 
d="M268 302q-54 7 -89.5 21t-56 35.5t-26 52.5t2.5 72q15 85 74.5 131t167.5 46t152.5 -41.5t26.5 -142.5h-80q12 65 -14 89.5t-96 24.5q-67 0 -104 -25t-47 -82q-5 -27 -2.5 -47t16.5 -34.5t40.5 -23.5t69.5 -15q64 -8 102.5 -23t58 -37.5t22.5 -54t-4 -73.5
q-17 -98 -78.5 -141.5t-178.5 -43.5q-52 0 -92 9t-64.5 30.5t-33.5 57t1 89.5h80q-6 -35 -1.5 -57t20 -35.5t41 -18.5t61.5 -5q40 0 69 6.5t48.5 20.5t30.5 35.5t16 52.5q5 28 3.5 49t-15.5 36t-43 25t-78 17zM457 700h-51l-42 69l-68 -69h-55l87 120h86z" />
    <glyph glyph-name="scircumflex" unicode="&#x15d;" horiz-adv-x="493" 
d="M432 139q-5 -30 -16 -57.5t-36 -47.5t-67 -32t-109 -12q-59 0 -96 10.5t-56.5 30.5t-23.5 49t2 66h76q-4 -24 -1.5 -41t14.5 -28.5t34 -16.5t58 -5q41 0 67.5 6t42 16.5t23 26t10.5 35.5q4 20 0.5 34.5t-17 24.5t-38 16t-63.5 9q-98 9 -134 42t-24 99q14 78 69.5 112
t145.5 34q101 0 140.5 -36t24.5 -121h-76q4 22 1.5 39t-13 28.5t-31.5 17.5t-54 6q-56 0 -88.5 -18t-40.5 -62q-8 -42 13.5 -60.5t90.5 -23.5q58 -5 94 -14.5t55.5 -25.5t24 -40.5t-1.5 -60.5zM410 550h-51l-42 69l-68 -69h-55l87 120h86z" />
    <glyph glyph-name="Scedilla" unicode="&#x15e;" horiz-adv-x="537" 
d="M268 302q-54 7 -89.5 21t-56 35.5t-26 52.5t2.5 72q15 85 74.5 131t167.5 46t152.5 -41.5t26.5 -142.5h-80q12 65 -14 89.5t-96 24.5q-67 0 -104 -25t-47 -82q-5 -27 -2.5 -47t16.5 -34.5t40.5 -23.5t69.5 -15q64 -8 102.5 -23t58 -37.5t22.5 -54t-4 -73.5
q-17 -95 -74.5 -138.5t-166.5 -46.5l-17 -36q33 -2 48 -18t9 -51q-7 -41 -34.5 -59t-79.5 -18h-66l8 48h64q25 0 34.5 7.5t11.5 21.5q3 15 -4 22t-32 7h-27l38 77q-45 2 -78.5 12.5t-54.5 32.5t-27.5 56t2.5 84h80q-6 -35 -1.5 -57t20 -35.5t41 -18.5t61.5 -5q40 0 69 6.5
t48.5 20.5t30.5 35.5t16 52.5q5 28 3.5 49t-15.5 36t-43 25t-78 17z" />
    <glyph glyph-name="scedilla" unicode="&#x15f;" horiz-adv-x="493" 
d="M432 139q-5 -30 -15.5 -56t-34 -46.5t-62.5 -33t-101 -13.5l-17 -36q33 -2 48 -18t9 -51q-7 -41 -34.5 -59t-79.5 -18h-66l8 48h64q25 0 34.5 7.5t11.5 21.5q3 15 -4 22t-32 7h-27l38 77q-50 3 -80.5 14.5t-46 31t-18.5 47t3 62.5h78q-4 -24 -1.5 -41t14.5 -28.5
t34 -16.5t58 -5q41 0 67 6t41.5 16.5t22.5 26t10 35.5q4 20 0.5 34.5t-16.5 24.5t-37.5 16t-63.5 9q-50 4 -83.5 14t-52.5 27t-24 41.5t1 58.5q14 78 70 112t146 34q101 0 140 -36t24 -121h-78q4 22 1.5 39t-13 28.5t-31.5 17.5t-54 6q-56 0 -87.5 -18t-39.5 -62
q-8 -42 15.5 -60.5t88.5 -23.5q58 -5 94 -14.5t55.5 -26t24 -41t-1.5 -59.5z" />
    <glyph glyph-name="Scaron" unicode="&#x160;" horiz-adv-x="537" 
d="M268 302q-54 7 -89.5 21t-56 35.5t-26 52.5t2.5 72q15 85 74.5 131t167.5 46t152.5 -41.5t26.5 -142.5h-80q12 65 -14 89.5t-96 24.5q-67 0 -104 -25t-47 -82q-5 -27 -2.5 -47t16.5 -34.5t40.5 -23.5t69.5 -15q64 -8 102.5 -23t58 -37.5t22.5 -54t-4 -73.5
q-17 -98 -78.5 -141.5t-178.5 -43.5q-52 0 -92 9t-64.5 30.5t-33.5 57t1 89.5h80q-6 -35 -1.5 -57t20 -35.5t41 -18.5t61.5 -5q40 0 69 6.5t48.5 20.5t30.5 35.5t16 52.5q5 28 3.5 49t-15.5 36t-43 25t-78 17zM392 700h-86l-43 120h51l42 -69l68 69h55z" />
    <glyph glyph-name="scaron" unicode="&#x161;" horiz-adv-x="493" 
d="M432 139q-5 -30 -16 -57.5t-36 -47.5t-67 -32t-109 -12q-59 0 -96 10.5t-56.5 30.5t-23.5 49t2 66h76q-4 -24 -1.5 -41t14.5 -28.5t34 -16.5t58 -5q41 0 67.5 6t42 16.5t23 26t10.5 35.5q4 20 0.5 34.5t-17 24.5t-38 16t-63.5 9q-98 9 -134 42t-24 99q14 78 69.5 112
t145.5 34q101 0 140.5 -36t24.5 -121h-76q4 22 1.5 39t-13 28.5t-31.5 17.5t-54 6q-56 0 -88.5 -18t-40.5 -62q-8 -42 13.5 -60.5t90.5 -23.5q58 -5 94 -14.5t55.5 -25.5t24 -40.5t-1.5 -60.5zM345 550h-86l-43 120h51l42 -69l68 69h55z" />
    <glyph glyph-name="Tcommaaccent" unicode="&#x162;" horiz-adv-x="468" 
d="M256 580h-164l12 70h408l-12 -70h-164l-102 -580h-80zM145 -40h90l-100 -120h-44z" />
    <glyph glyph-name="tcommaaccent" unicode="&#x163;" horiz-adv-x="331" 
d="M131 434h-65l10 54l67 12l21 122l80 13l-23 -135h113l-12 -66h-113l-56 -317q-5 -29 4.5 -45t40.5 -16q21 0 38 3.5t31 6.5l-11 -66q-17 -5 -38.5 -8t-44.5 -3q-63 0 -86 31.5t-12 97.5zM105 -40h90l-100 -120h-44z" />
    <glyph glyph-name="Tcaron" unicode="&#x164;" horiz-adv-x="468" 
d="M256 580h-164l12 70h408l-12 -70h-164l-102 -580h-80zM353 700h-86l-43 120h51l42 -69l68 69h55z" />
    <glyph glyph-name="tcaron" unicode="&#x165;" horiz-adv-x="331" 
d="M319 670h62l-56 -150h-33zM131 434h-65l10 54l67 12l21 122l80 13l-23 -135h113l-12 -66h-113l-56 -317q-5 -29 4.5 -45t40.5 -16q21 0 38 3.5t31 6.5l-11 -66q-17 -5 -38.5 -8t-44.5 -3q-63 0 -86 31.5t-12 97.5z" />
    <glyph glyph-name="Tbar" unicode="&#x166;" horiz-adv-x="468" 
d="M128 363h90l38 217h-164l12 70h408l-12 -70h-164l-38 -217h90l-12 -66h-90l-52 -297h-80l52 297h-90z" />
    <glyph glyph-name="tbar" unicode="&#x167;" horiz-adv-x="331" 
d="M63 305h45l23 129h-65l10 54l67 12l21 122l80 13l-23 -135h113l-12 -66h-113l-23 -129h91l-10 -58h-91l-23 -130q-5 -29 4.5 -45t40.5 -16q21 0 38 3.5t31 6.5l-11 -66q-17 -5 -38.5 -8t-44.5 -3q-63 0 -86 31.5t-12 97.5l23 129h-45z" />
    <glyph glyph-name="Utilde" unicode="&#x168;" horiz-adv-x="575" 
d="M224 650l-79 -450q-14 -79 12.5 -110t99.5 -31t111 31t52 110l79 450h80l-79 -448q-11 -62 -32 -103t-53 -65.5t-74.5 -34.5t-95.5 -10t-92 10t-62 34.5t-30 65.5t4 103l79 448h80zM425 696q-22 0 -36 8t-25 18t-21.5 18t-26.5 8q-22 0 -31 -12t-12 -30h-50q8 50 31 76
t67 26q22 0 35.5 -8t24.5 -18t21.5 -18t26.5 -8q22 0 31.5 12t12.5 30h50q-9 -50 -31.5 -76t-66.5 -26z" />
    <glyph glyph-name="utilde" unicode="&#x169;" 
d="M371 0l-10 49q-45 -30 -85 -44.5t-90 -14.5q-43 0 -72.5 9t-45.5 29.5t-19.5 54t5.5 83.5l59 334h78l-59 -334q-6 -33 -3.5 -54.5t13 -34t29.5 -17.5t46 -5q36 0 74 13.5t72 37.5l70 394h78l-88 -500h-52zM382 546q-22 0 -36 8t-25 18t-21.5 18t-26.5 8q-22 0 -31 -12
t-12 -30h-50q8 50 31 76t67 26q22 0 35.5 -8t24.5 -18t21.5 -18t26.5 -8q22 0 31.5 12t12.5 30h50q-9 -50 -31.5 -76t-66.5 -26z" />
    <glyph glyph-name="Umacron" unicode="&#x16a;" horiz-adv-x="575" 
d="M224 650l-79 -450q-14 -79 12.5 -110t99.5 -31t111 31t52 110l79 450h80l-79 -448q-11 -62 -32 -103t-53 -65.5t-74.5 -34.5t-95.5 -10t-92 10t-62 34.5t-30 65.5t4 103l79 448h80zM263 780h230l-11 -60h-230z" />
    <glyph glyph-name="umacron" unicode="&#x16b;" 
d="M371 0l-10 49q-45 -30 -85 -44.5t-90 -14.5q-43 0 -72.5 9t-45.5 29.5t-19.5 54t5.5 83.5l59 334h78l-59 -334q-6 -33 -3.5 -54.5t13 -34t29.5 -17.5t46 -5q36 0 74 13.5t72 37.5l70 394h78l-88 -500h-52zM220 630h230l-11 -60h-230z" />
    <glyph glyph-name="Ubreve" unicode="&#x16c;" horiz-adv-x="575" 
d="M224 650l-79 -450q-14 -79 12.5 -110t99.5 -31t111 31t52 110l79 450h80l-79 -448q-11 -62 -32 -103t-53 -65.5t-74.5 -34.5t-95.5 -10t-92 10t-62 34.5t-30 65.5t4 103l79 448h80zM373 748q64 0 78 72h54q-11 -61 -46.5 -93.5t-95.5 -32.5t-84 32.5t-13 93.5h55
q-14 -72 52 -72z" />
    <glyph glyph-name="ubreve" unicode="&#x16d;" 
d="M371 0l-10 49q-45 -30 -85 -44.5t-90 -14.5q-43 0 -72.5 9t-45.5 29.5t-19.5 54t5.5 83.5l59 334h78l-59 -334q-6 -33 -3.5 -54.5t13 -34t29.5 -17.5t46 -5q36 0 74 13.5t72 37.5l70 394h78l-88 -500h-52zM329 598q64 0 78 72h54q-11 -61 -46.5 -93.5t-95.5 -32.5
t-84 32.5t-13 93.5h55q-14 -72 52 -72z" />
    <glyph glyph-name="Uring" unicode="&#x16e;" horiz-adv-x="575" 
d="M224 650l-79 -450q-14 -79 12.5 -110t99.5 -31t111 31t52 110l79 450h80l-79 -448q-11 -62 -32 -103t-53 -65.5t-74.5 -34.5t-95.5 -10t-92 10t-62 34.5t-30 65.5t4 103l79 448h80zM476 779q-7 -42 -36.5 -63.5t-76.5 -21.5q-48 0 -69.5 21.5t-14.5 63.5q8 42 37 63.5
t77 21.5q47 0 69 -21.5t14 -63.5zM423 779q8 40 -38 40q-25 0 -37 -10t-16 -30q-3 -20 5.5 -30t33.5 -10q46 0 52 40z" />
    <glyph glyph-name="uring" unicode="&#x16f;" 
d="M371 0l-10 49q-45 -30 -85 -44.5t-90 -14.5q-43 0 -72.5 9t-45.5 29.5t-19.5 54t5.5 83.5l59 334h78l-59 -334q-6 -33 -3.5 -54.5t13 -34t29.5 -17.5t46 -5q36 0 74 13.5t72 37.5l70 394h78l-88 -500h-52zM432 629q-7 -42 -36.5 -63.5t-76.5 -21.5q-48 0 -69.5 21.5
t-14.5 63.5q8 42 37 63.5t77 21.5q47 0 69 -21.5t14 -63.5zM379 629q8 40 -38 40q-25 0 -37 -10t-16 -30q-3 -20 5.5 -30t33.5 -10q46 0 52 40z" />
    <glyph glyph-name="Uhungarumlaut" unicode="&#x170;" horiz-adv-x="575" 
d="M224 650l-79 -450q-14 -79 12.5 -110t99.5 -31t111 31t52 110l79 450h80l-79 -448q-11 -62 -32 -103t-53 -65.5t-74.5 -34.5t-95.5 -10t-92 10t-62 34.5t-30 65.5t4 103l79 448h80zM318 810h83l-75 -120h-47zM456 810h84l-94 -120h-51z" />
    <glyph glyph-name="uhungarumlaut" unicode="&#x171;" 
d="M371 0l-10 49q-45 -30 -85 -44.5t-90 -14.5q-43 0 -72.5 9t-45.5 29.5t-19.5 54t5.5 83.5l59 334h78l-59 -334q-6 -33 -3.5 -54.5t13 -34t29.5 -17.5t46 -5q36 0 74 13.5t72 37.5l70 394h78l-88 -500h-52zM275 660h83l-75 -120h-47zM413 660h84l-94 -120h-51z" />
    <glyph glyph-name="Uogonek" unicode="&#x172;" horiz-adv-x="575" 
d="M224 650l-79 -450q-14 -79 12.5 -110t99.5 -31t111 31t52 110l79 450h80l-79 -448q-17 -93 -57 -140t-104 -63q-33 -19 -51.5 -40.5t-21.5 -41.5q-4 -19 5.5 -26t27.5 -7h20l-9 -54h-47q-75 0 -63 71q9 49 66 89q-5 0 -10.5 -0.5t-10.5 -0.5q-53 0 -92 10t-62 34.5
t-30 65.5t4 103l79 448h80z" />
    <glyph glyph-name="uogonek" unicode="&#x173;" 
d="M361 49q-45 -30 -85 -44.5t-90 -14.5q-43 0 -72.5 9t-45.5 29.5t-19.5 54t5.5 83.5l59 334h78l-59 -334q-6 -33 -3.5 -54.5t13 -34t29.5 -17.5t46 -5q36 0 74 13.5t72 37.5l70 394h78l-88 -500q-35 -20 -54 -41.5t-22 -41.5q-4 -19 5.5 -26t27.5 -7h20l-9 -54h-47
q-75 0 -63 71q11 57 89 102z" />
    <glyph glyph-name="Wcircumflex" unicode="&#x174;" horiz-adv-x="817" 
d="M467 565l-222 -565h-106l-30 650h83l15 -562h2q55 141 110.5 280.5t110.5 281.5h104l24 -562h2q53 141 106 280.5t106 281.5h84l-259 -650h-106zM592 700h-51l-42 69l-68 -69h-55l87 120h86z" />
    <glyph glyph-name="wcircumflex" unicode="&#x175;" horiz-adv-x="730" 
d="M664 500h84q-56 -126 -109.5 -250t-108.5 -250h-93l-38 426l-183 -426h-97l-41 500h80l24 -418h1l180 418h95l37 -418zM529 550h-51l-42 69l-68 -69h-55l87 120h86z" />
    <glyph glyph-name="Ycircumflex" unicode="&#x176;" horiz-adv-x="510" 
d="M219 253l-120 397h89l84 -317h2l196 317h89l-260 -397l-44 -253h-80zM439 700h-51l-42 69l-68 -69h-55l87 120h86z" />
    <glyph glyph-name="ycircumflex" unicode="&#x177;" horiz-adv-x="495" 
d="M73 500h83l64 -405h2l210 405h86l-306 -568q-18 -32 -35 -53.5t-37 -34.5t-46 -18.5t-62 -5.5q-31 0 -55 9l12 66q24 -9 54 -9q35 0 57 14.5t45 56.5l24 43zM411 550h-51l-42 69l-68 -69h-55l87 120h86z" />
    <glyph glyph-name="Ydieresis" unicode="&#x178;" horiz-adv-x="510" 
d="M219 253l-120 397h89l84 -317h2l196 317h89l-260 -397l-44 -253h-80zM231 800h82l-14 -82h-82zM385 800h82l-14 -82h-82z" />
    <glyph glyph-name="Zacute" unicode="&#x179;" horiz-adv-x="500" 
d="M134 650h390l-11 -61l-397 -519h316l-12 -70h-410l10 59l398 521h-296zM360 820h90l-101 -120h-44z" />
    <glyph glyph-name="zacute" unicode="&#x17a;" horiz-adv-x="486" 
d="M103 500h368l-10 -55l-341 -379h288l-11 -66h-391l8 54l341 380h-264zM320 670h90l-101 -120h-44z" />
    <glyph glyph-name="Zdotaccent" unicode="&#x17b;" horiz-adv-x="500" 
d="M134 650h390l-11 -61l-397 -519h316l-12 -70h-410l10 59l398 521h-296zM306 800h82l-14 -82h-82z" />
    <glyph glyph-name="zdotaccent" unicode="&#x17c;" horiz-adv-x="486" 
d="M103 500h368l-10 -55l-341 -379h288l-11 -66h-391l8 54l341 380h-264zM266 650h82l-14 -82h-82z" />
    <glyph glyph-name="Zcaron" unicode="&#x17d;" horiz-adv-x="500" 
d="M134 650h390l-11 -61l-397 -519h316l-12 -70h-410l10 59l398 521h-296zM369 700h-86l-43 120h51l42 -69l68 69h55z" />
    <glyph glyph-name="zcaron" unicode="&#x17e;" horiz-adv-x="486" 
d="M103 500h368l-10 -55l-341 -379h288l-11 -66h-391l8 54l341 380h-264zM342 550h-86l-43 120h51l42 -69l68 69h55z" />
    <glyph glyph-name="florin" unicode="&#x192;" horiz-adv-x="360" 
d="M156 -36q-13 -74 -45.5 -109t-99.5 -35q-25 0 -42.5 3t-29.5 8l11 66q11 -3 25 -6t34 -3q56 0 66 56l86 490h-66l9 53l69 13l10 60q11 63 46.5 93t95.5 30q24 0 42.5 -3t30.5 -8l-12 -66q-11 3 -25.5 6t-34.5 3q-30 0 -45 -14.5t-20 -41.5l-10 -59h92l-12 -66h-92z" />
    <glyph glyph-name="Scommaaccent" unicode="&#x218;" horiz-adv-x="537" 
d="M268 302q-54 7 -89.5 21t-56 35.5t-26 52.5t2.5 72q15 85 74.5 131t167.5 46t152.5 -41.5t26.5 -142.5h-80q12 65 -14 89.5t-96 24.5q-67 0 -104 -25t-47 -82q-5 -27 -2.5 -47t16.5 -34.5t40.5 -23.5t69.5 -15q64 -8 102.5 -23t58 -37.5t22.5 -54t-4 -73.5
q-17 -98 -78.5 -141.5t-178.5 -43.5q-52 0 -92 9t-64.5 30.5t-33.5 57t1 89.5h80q-6 -35 -1.5 -57t20 -35.5t41 -18.5t61.5 -5q40 0 69 6.5t48.5 20.5t30.5 35.5t16 52.5q5 28 3.5 49t-15.5 36t-43 25t-78 17zM184 -40h90l-100 -120h-44z" />
    <glyph glyph-name="scommaaccent" unicode="&#x219;" horiz-adv-x="493" 
d="M432 139q-5 -30 -16 -57.5t-36 -47.5t-67 -32t-109 -12q-59 0 -96 10.5t-56.5 30.5t-23.5 49t2 66h76q-4 -24 -1.5 -41t14.5 -28.5t34 -16.5t58 -5q41 0 67.5 6t42 16.5t23 26t10.5 35.5q4 20 0.5 34.5t-17 24.5t-38 16t-63.5 9q-98 9 -134 42t-24 99q14 78 69.5 112
t145.5 34q101 0 140.5 -36t24.5 -121h-76q4 22 1.5 39t-13 28.5t-31.5 17.5t-54 6q-56 0 -88.5 -18t-40.5 -62q-8 -42 13.5 -60.5t90.5 -23.5q58 -5 94 -14.5t55.5 -25.5t24 -40.5t-1.5 -60.5zM157 -40h90l-100 -120h-44z" />
    <glyph glyph-name="circumflex" unicode="&#x2c6;" horiz-adv-x="336" 
d="M332 550h-51l-42 69l-68 -69h-55l87 120h86z" />
    <glyph glyph-name="caron" unicode="&#x2c7;" horiz-adv-x="336" 
d="M267 550h-86l-43 120h51l42 -69l68 69h55z" />
    <glyph glyph-name="breve" unicode="&#x2d8;" horiz-adv-x="359" 
d="M245 598q64 0 78 72h54q-11 -61 -46.5 -93.5t-95.5 -32.5t-84 32.5t-13 93.5h55q-14 -72 52 -72z" />
    <glyph glyph-name="dotaccent" unicode="&#x2d9;" horiz-adv-x="202" 
d="M134 650h82l-14 -82h-82z" />
    <glyph glyph-name="ring" unicode="&#x2da;" horiz-adv-x="317" 
d="M327 629q-7 -42 -36.5 -63.5t-76.5 -21.5q-48 0 -69.5 21.5t-14.5 63.5q8 42 37 63.5t77 21.5q47 0 69 -21.5t14 -63.5zM274 629q8 40 -38 40q-25 0 -37 -10t-16 -30q-3 -20 5.5 -30t33.5 -10q46 0 52 40z" />
    <glyph glyph-name="ogonek" unicode="&#x2db;" horiz-adv-x="213" 
d="M124 0q-35 -20 -54 -41.5t-22 -41.5q-4 -19 5.5 -26t27.5 -7h20l-9 -54h-47q-75 0 -63 71q5 28 26.5 53.5t56.5 45.5h59z" />
    <glyph glyph-name="tilde" unicode="&#x2dc;" horiz-adv-x="404" 
d="M320 546q-22 0 -36 8t-25 18t-21.5 18t-26.5 8q-22 0 -31 -12t-12 -30h-50q8 50 31 76t67 26q22 0 35.5 -8t24.5 -18t21.5 -18t26.5 -8q22 0 31.5 12t12.5 30h50q-9 -50 -31.5 -76t-66.5 -26z" />
    <glyph glyph-name="hungarumlaut" unicode="&#x2dd;" horiz-adv-x="360" 
d="M154 660h83l-75 -120h-47zM292 660h84l-94 -120h-51z" />
    <glyph glyph-name="pi" unicode="&#x3c0;" horiz-adv-x="612" 
d="M186 434h-95l12 66h502l-12 -66h-95l-53 -302q-7 -35 5 -50.5t49 -15.5h14l-11 -66h-15q-75 0 -104 30t-17 98l54 306h-156l-76 -434h-78z" />
    <glyph glyph-name="Bdotaccent" unicode="&#x1e02;" horiz-adv-x="558" 
d="M144 650h211q112 0 152.5 -39.5t24.5 -128.5q-10 -57 -43 -95.5t-80 -52.5q59 -17 80 -55.5t10 -101.5q-17 -95 -75 -136t-167 -41h-227zM267 70q71 0 105.5 25.5t45.5 86.5t-17 87.5t-91 26.5h-148l-40 -226h145zM212 580l-38 -216h146q59 0 90 29t40 80q11 59 -14 83
t-92 24h-132zM325 800h82l-14 -82h-82z" />
    <glyph glyph-name="bdotaccent" unicode="&#x1e03;" horiz-adv-x="533" 
d="M236 55q31 0 58.5 7.5t49 26t36.5 49.5t23 79l11 66q8 48 6.5 79t-13 49.5t-33 25.5t-52.5 7q-35 0 -76 -15.5t-75 -41.5l-34 -191q-12 -74 9.5 -107.5t89.5 -33.5zM233 -11q-58 0 -95.5 14.5t-57 41.5t-24 65.5t3.5 86.5l83 473h78l-39 -215q39 24 80.5 39.5t80.5 15.5
q44 0 77.5 -9.5t53.5 -34t25.5 -68.5t-6.5 -113l-12 -71q-12 -69 -36 -112.5t-56.5 -68.5t-72 -34.5t-83.5 -9.5zM329 650h82l-14 -82h-82z" />
    <glyph glyph-name="Ddotaccent" unicode="&#x1e0a;" horiz-adv-x="567" 
d="M212 580l-90 -510h115q41 0 72.5 7t55 25t39 48.5t23.5 77.5l34 196q9 51 3.5 81.5t-23 47t-46.5 22t-68 5.5h-115zM30 0l114 650h196q58 0 101 -10t69.5 -35.5t34 -71t-4.5 -115.5l-33 -186q-12 -71 -36 -116t-59 -70.5t-81.5 -35.5t-104.5 -10h-196zM331 800h82
l-14 -82h-82z" />
    <glyph glyph-name="ddotaccent" unicode="&#x1e0b;" horiz-adv-x="533" 
d="M218 55q33 0 75.5 15.5t76.5 44.5l48 272q-25 26 -60.5 41.5t-70.5 15.5q-32 0 -56 -7t-42 -25.5t-30.5 -49.5t-21.5 -79l-11 -66q-9 -48 -7.5 -79t13 -49.5t33 -26t53.5 -7.5zM197 -11q-44 0 -77.5 9.5t-53.5 34.5t-25.5 68.5t6.5 112.5l13 71q12 69 32.5 113t49.5 68.5
t65.5 34t80.5 9.5q39 0 75.5 -15.5t66.5 -39.5l38 215h78l-118 -670h-52l-10 49q-39 -27 -83 -43.5t-86 -16.5zM283 650h82l-14 -82h-82z" />
    <glyph glyph-name="Fdotaccent" unicode="&#x1e1e;" horiz-adv-x="461" 
d="M30 0l114 650h351l-12 -70h-271l-38 -216h236l-12 -68h-236l-52 -296h-80zM309 800h82l-14 -82h-82z" />
    <glyph glyph-name="fdotaccent" unicode="&#x1e1f;" horiz-adv-x="321" 
d="M357 606q-11 3 -25.5 6t-34.5 3q-30 0 -45 -14.5t-20 -41.5l-10 -59h92l-12 -66h-92l-92 -524h-78l92 524h-66l9 53l69 13l10 60q11 63 46.5 93t95.5 30q24 0 42.5 -3t30.5 -8l-12 -66v0zM254 810h82l-14 -82h-82z" />
    <glyph glyph-name="Mdotaccent" unicode="&#x1e40;" horiz-adv-x="717" 
d="M624 550l-272 -550h-67l-80 550l-96 -550h-79l114 650h117l76 -539h1l266 539h117l-114 -650h-79zM414 800h82l-14 -82h-82z" />
    <glyph glyph-name="mdotaccent" unicode="&#x1e41;" horiz-adv-x="785" 
d="M174 451q45 29 84.5 44t81.5 15q49 0 76 -16.5t41 -43.5q44 28 85 44t86 16q43 0 69 -10t38 -30t12.5 -50.5t-6.5 -71.5l-61 -348h-78l61 348q10 55 -5 75.5t-65 20.5q-27 0 -63 -13.5t-70 -36.5l-69 -394h-78l61 348q10 55 -4.5 75.5t-64.5 20.5q-29 0 -63.5 -13
t-69.5 -37l-69 -394h-78l88 500h52zM428 650h82l-14 -82h-82z" />
    <glyph glyph-name="Pdotaccent" unicode="&#x1e56;" horiz-adv-x="543" 
d="M293 314q38 0 65 6t46 21t30.5 40.5t18.5 64.5q7 42 4 68t-17 41t-39 20t-62 5h-127l-47 -266h128zM144 650h206q57 0 97 -9t63.5 -32t30 -62.5t-4.5 -100.5q-10 -56 -29.5 -94t-50.5 -61.5t-74.5 -34t-100.5 -10.5h-128l-43 -246h-80zM317 800h82l-14 -82h-82z" />
    <glyph glyph-name="pdotaccent" unicode="&#x1e57;" horiz-adv-x="533" 
d="M322 444q-33 0 -75.5 -15t-76.5 -44l-48 -273q25 -26 60.5 -41.5t70.5 -15.5q31 0 55.5 7.5t42.5 25.5t30.5 49.5t21.5 79.5l11 66q9 47 7.5 78t-13 49.5t-33.5 26t-53 7.5zM343 510q44 0 77.5 -9.5t53.5 -34t25.5 -68.5t-6.5 -113l-13 -71q-12 -69 -32.5 -112.5
t-49.5 -68.5t-65.5 -34.5t-80.5 -9.5q-39 0 -75.5 15.5t-66.5 39.5l-37 -214h-78l118 670h52l9 -49q39 26 83 42.5t86 16.5zM319 650h82l-14 -82h-82z" />
    <glyph glyph-name="Sdotaccent" unicode="&#x1e60;" horiz-adv-x="537" 
d="M268 302q-54 7 -89.5 21t-56 35.5t-26 52.5t2.5 72q15 85 74.5 131t167.5 46t152.5 -41.5t26.5 -142.5h-80q12 65 -14 89.5t-96 24.5q-67 0 -104 -25t-47 -82q-5 -27 -2.5 -47t16.5 -34.5t40.5 -23.5t69.5 -15q64 -8 102.5 -23t58 -37.5t22.5 -54t-4 -73.5
q-17 -98 -78.5 -141.5t-178.5 -43.5q-52 0 -92 9t-64.5 30.5t-33.5 57t1 89.5h80q-6 -35 -1.5 -57t20 -35.5t41 -18.5t61.5 -5q40 0 69 6.5t48.5 20.5t30.5 35.5t16 52.5q5 28 3.5 49t-15.5 36t-43 25t-78 17zM329 800h82l-14 -82h-82z" />
    <glyph glyph-name="sdotaccent" unicode="&#x1e61;" horiz-adv-x="493" 
d="M432 139q-5 -30 -16 -57.5t-36 -47.5t-67 -32t-109 -12q-59 0 -96 10.5t-56.5 30.5t-23.5 49t2 66h76q-4 -24 -1.5 -41t14.5 -28.5t34 -16.5t58 -5q41 0 67.5 6t42 16.5t23 26t10.5 35.5q4 20 0.5 34.5t-17 24.5t-38 16t-63.5 9q-98 9 -134 42t-24 99q14 78 69.5 112
t145.5 34q101 0 140.5 -36t24.5 -121h-76q4 22 1.5 39t-13 28.5t-31.5 17.5t-54 6q-56 0 -88.5 -18t-40.5 -62q-8 -42 13.5 -60.5t90.5 -23.5q58 -5 94 -14.5t55.5 -25.5t24 -40.5t-1.5 -60.5zM282 650h82l-14 -82h-82z" />
    <glyph glyph-name="Tdotaccent" unicode="&#x1e6a;" horiz-adv-x="468" 
d="M256 580h-164l12 70h408l-12 -70h-164l-102 -580h-80zM287 800h82l-14 -82h-82z" />
    <glyph glyph-name="tdotaccent" unicode="&#x1e6b;" horiz-adv-x="331" 
d="M131 434h-65l10 54l67 12l21 122l80 13l-23 -135h113l-12 -66h-113l-56 -317q-5 -29 4.5 -45t40.5 -16q21 0 38 3.5t31 6.5l-11 -66q-17 -5 -38.5 -8t-44.5 -3q-63 0 -86 31.5t-12 97.5zM172 760h82l-14 -82h-82z" />
    <glyph glyph-name="Wgrave" unicode="&#x1e80;" horiz-adv-x="817" 
d="M467 565l-222 -565h-106l-30 650h83l15 -562h2q55 141 110.5 280.5t110.5 281.5h104l24 -562h2q53 141 106 280.5t106 281.5h84l-259 -650h-106zM522 700h-44l-57 120h90z" />
    <glyph glyph-name="wgrave" unicode="&#x1e81;" horiz-adv-x="730" 
d="M664 500h84q-56 -126 -109.5 -250t-108.5 -250h-93l-38 426l-183 -426h-97l-41 500h80l24 -418h1l180 418h95l37 -418zM457 550h-44l-57 120h90z" />
    <glyph glyph-name="Wacute" unicode="&#x1e82;" horiz-adv-x="817" 
d="M467 565l-222 -565h-106l-30 650h83l15 -562h2q55 141 110.5 280.5t110.5 281.5h104l24 -562h2q53 141 106 280.5t106 281.5h84l-259 -650h-106zM523 820h90l-101 -120h-44z" />
    <glyph glyph-name="wacute" unicode="&#x1e83;" horiz-adv-x="730" 
d="M664 500h84q-56 -126 -109.5 -250t-108.5 -250h-93l-38 426l-183 -426h-97l-41 500h80l24 -418h1l180 418h95l37 -418zM455 670h90l-101 -120h-44z" />
    <glyph glyph-name="Wdieresis" unicode="&#x1e84;" horiz-adv-x="817" 
d="M467 565l-222 -565h-106l-30 650h83l15 -562h2q55 141 110.5 280.5t110.5 281.5h104l24 -562h2q53 141 106 280.5t106 281.5h84l-259 -650h-106zM387 800h82l-14 -82h-82zM541 800h82l-14 -82h-82z" />
    <glyph glyph-name="wdieresis" unicode="&#x1e85;" horiz-adv-x="730" 
d="M664 500h84q-56 -126 -109.5 -250t-108.5 -250h-93l-38 426l-183 -426h-97l-41 500h80l24 -418h1l180 418h95l37 -418zM321 650h82l-14 -82h-82zM475 650h82l-14 -82h-82z" />
    <glyph glyph-name="Ygrave" unicode="&#x1ef2;" horiz-adv-x="510" 
d="M219 253l-120 397h89l84 -317h2l196 317h89l-260 -397l-44 -253h-80zM376 700h-44l-57 120h90z" />
    <glyph glyph-name="ygrave" unicode="&#x1ef3;" horiz-adv-x="495" 
d="M73 500h83l64 -405h2l210 405h86l-306 -568q-18 -32 -35 -53.5t-37 -34.5t-46 -18.5t-62 -5.5q-31 0 -55 9l12 66q24 -9 54 -9q35 0 57 14.5t45 56.5l24 43zM332 550h-44l-57 120h90z" />
    <glyph glyph-name="endash" unicode="&#x2013;" horiz-adv-x="475" 
d="M65 316h375l-11 -66h-375z" />
    <glyph glyph-name="emdash" unicode="&#x2014;" horiz-adv-x="690" 
d="M75 316h570l-11 -66h-570z" />
    <glyph glyph-name="quoteleft" unicode="&#x2018;" horiz-adv-x="181" 
d="M177 440h-50l-3 210h90z" />
    <glyph glyph-name="quoteright" unicode="&#x2019;" horiz-adv-x="181" 
d="M124 650h90l-77 -210h-50z" />
    <glyph glyph-name="quotesinglbase" unicode="&#x201a;" horiz-adv-x="201" 
d="M27 100h90l-77 -210h-50z" />
    <glyph glyph-name="quotedblleft" unicode="&#x201c;" horiz-adv-x="306" 
d="M293 440h-50l-3 210h90zM167 440h-50l-3 210h90z" />
    <glyph glyph-name="quotedblright" unicode="&#x201d;" horiz-adv-x="306" 
d="M124 650h90l-77 -210h-50zM250 650h90l-77 -210h-50z" />
    <glyph glyph-name="quotedblbase" unicode="&#x201e;" horiz-adv-x="328" 
d="M27 100h90l-77 -210h-50zM153 100h90l-77 -210h-50z" />
    <glyph glyph-name="dagger" unicode="&#x2020;" horiz-adv-x="344" 
d="M204 564l19 106h53l-19 -106h101l-8 -45h-101l-46 -259h-53l46 259h-100l8 45h100z" />
    <glyph glyph-name="daggerdbl" unicode="&#x2021;" horiz-adv-x="344" 
d="M204 564l19 106h53l-19 -106h101l-8 -45h-101l-19 -108h101l-8 -46h-101l-19 -105h-53l19 105h-100l8 46h100l19 108h-100l8 45h100z" />
    <glyph glyph-name="bullet" unicode="&#x2022;" horiz-adv-x="441" 
d="M396 304q-9 -48 -24 -79t-38 -49t-55 -24.5t-74 -6.5t-72 6.5t-46.5 24.5t-21 49t4.5 79l8 42q8 48 23 79t38.5 49t55.5 24.5t74 6.5t71.5 -6.5t46.5 -24.5t21 -49t-4 -79z" />
    <glyph glyph-name="ellipsis" unicode="&#x2026;" horiz-adv-x="582" 
d="M36 94h94l-16 -94h-94zM220 94h94l-16 -94h-94zM404 94h94l-16 -94h-94z" />
    <glyph glyph-name="perthousand" unicode="&#x2030;" horiz-adv-x="874" 
d="M113 0h-64l534 650h65zM370 515q-14 -82 -53 -113.5t-107 -31.5q-69 0 -96.5 31.5t-13.5 113.5q14 81 53 113t108 32t96 -32t13 -113zM311 515q10 56 -4.5 76t-54.5 20q-41 0 -61.5 -19.5t-30.5 -72.5q-11 -59 3 -79t56 -20q40 0 61 19.5t31 75.5zM807 134
q-7 -41 -20 -69t-33 -45t-46.5 -24t-60.5 -7q-40 0 -64 11t-34 37q-19 -26 -47 -37t-66 -11q-35 0 -59 7t-37.5 24t-17 45t3.5 69q14 81 53 113t108 32q77 0 96 -50q19 26 47 38t68 12q69 0 96 -32t13 -113zM748 134q10 56 -4.5 75.5t-54.5 19.5q-41 0 -62 -19t-30 -72
q-11 -59 2.5 -79.5t55.5 -20.5q40 0 61.5 19.5t31.5 76.5zM537 134q10 56 -4.5 75.5t-54.5 19.5q-41 0 -62 -19t-30 -72q-11 -59 2.5 -79.5t55.5 -20.5q40 0 61.5 19.5t31.5 76.5z" />
    <glyph glyph-name="guilsinglleft" unicode="&#x2039;" horiz-adv-x="330" 
d="M64 250l169 180h72l-173 -185l110 -175h-68z" />
    <glyph glyph-name="guilsinglright" unicode="&#x203a;" horiz-adv-x="330" 
d="M274 250l-169 -180h-72l173 185l-110 175h68z" />
    <glyph glyph-name="Euro" unicode="&#x20ac;" horiz-adv-x="598" 
d="M211 359l-12 -69h187l-17 -48h-179l-4 -24q-8 -46 -6 -76.5t15.5 -49t39.5 -26t65 -7.5q70 0 106 27t49 98h80q-19 -105 -78.5 -150t-168.5 -45q-58 0 -98 12t-62.5 39.5t-27.5 72.5t7 111l3 18h-63l9 48h63l12 69h-63l8 48h63l4 19q11 64 31.5 108.5t52 72.5t76 40.5
t103.5 12.5q109 0 153 -44.5t26 -149.5h-80q12 70 -14 97t-97 27q-39 0 -67.5 -7.5t-48.5 -25.5t-33 -48.5t-21 -76.5l-5 -25h207l-16 -48h-199z" />
    <glyph glyph-name="trademark" unicode="&#x2122;" horiz-adv-x="572" 
d="M180 616h-68l6 34h175l-6 -34h-68l-41 -231h-39zM419 434l110 216h57l-47 -265h-39l38 214l-110 -214h-35l-35 214l-38 -214h-38l47 265h57z" />
    <glyph glyph-name="onethird" unicode="&#x2153;" horiz-adv-x="651" 
d="M153 349l46 258h-56l4 27l77 16h27l-53 -301h-45zM575 650h50l-545 -650h-50zM510 88q8 46 -37 46h-42l7 38h41q20 0 31 13t15 31q5 27 -5.5 39t-40.5 12q-29 0 -44.5 -13.5t-21.5 -44.5h-45q9 49 37.5 73t79.5 24q54 0 73.5 -22.5t11.5 -67.5q-4 -21 -16.5 -36.5
t-29.5 -24.5q20 -8 28.5 -24t3.5 -44q-8 -46 -37 -68.5t-86 -22.5q-56 0 -75.5 23t-10.5 73h45q-5 -30 5.5 -43.5t42.5 -13.5t48.5 12t21.5 41z" />
    <glyph glyph-name="twothirds" unicode="&#x2154;" horiz-adv-x="681" 
d="M605 650h50l-545 -650h-50zM540 88q8 46 -37 46h-42l7 38h41q20 0 31 13t15 31q5 27 -5.5 39t-40.5 12q-29 0 -44.5 -13.5t-21.5 -44.5h-45q9 49 37.5 73t79.5 24q54 0 73.5 -22.5t11.5 -67.5q-4 -21 -16.5 -36.5t-29.5 -24.5q20 -8 28.5 -24t3.5 -44q-8 -46 -37 -68.5
t-86 -22.5q-56 0 -75.5 23t-10.5 73h45q-5 -30 5.5 -43.5t42.5 -13.5t48.5 12t21.5 41zM128 560q8 48 35.5 71.5t81.5 23.5q57 0 74 -23t9 -66q-4 -26 -18.5 -44t-33.5 -31.5t-40.5 -24.5t-40.5 -22t-33 -24t-18 -31h156l-7 -40h-202l5 27q5 28 20 47.5t34.5 34t41.5 25.5
t41 23t32.5 25.5t17.5 33.5q5 27 -5 38.5t-40 11.5q-26 0 -42.5 -11t-22.5 -44h-45z" />
    <glyph glyph-name="oneeighth" unicode="&#x215b;" horiz-adv-x="652" 
d="M153 349l46 258h-56l4 27l77 16h27l-53 -301h-45zM575 650h50l-545 -650h-50zM431 -4q-57 0 -79.5 20t-14.5 66q5 27 21 45t39 28q-36 18 -27 68q8 46 37.5 64.5t77.5 18.5t72 -18.5t16 -64.5q-9 -49 -51 -68q43 -20 34 -73q-8 -46 -38 -66t-87 -20zM479 267
q-29 0 -44.5 -10t-20.5 -38q-9 -48 42 -48h13q49 0 58 48q5 28 -7 38t-41 10zM438 35q35 0 51.5 11.5t21.5 37.5q5 23 -6 37t-43 14h-13q-32 0 -47 -14t-20 -37q-5 -26 8.5 -37.5t47.5 -11.5z" />
    <glyph glyph-name="threeeighths" unicode="&#x215c;" horiz-adv-x="681" 
d="M271 437q8 46 -37 46h-42l6 38h41q20 0 31.5 13t14.5 31q5 27 -5.5 39t-40.5 12q-29 0 -44.5 -13.5t-20.5 -44.5h-45q16 97 117 97q54 0 73 -22.5t11 -67.5q-4 -21 -16.5 -36.5t-29.5 -24.5q20 -8 28.5 -24t3.5 -44q-8 -46 -37 -68.5t-86 -22.5q-56 0 -75 23t-11 73h45
q-5 -30 5.5 -43.5t42.5 -13.5t49 12t22 41zM604 650h50l-545 -650h-50zM460 -4q-57 0 -79.5 20t-14.5 66q5 27 21 45t39 28q-36 18 -27 68q8 46 37.5 64.5t77.5 18.5t72 -18.5t16 -64.5q-9 -49 -51 -68q43 -20 34 -73q-8 -46 -38 -66t-87 -20zM508 267q-29 0 -44.5 -10
t-20.5 -38q-9 -48 42 -48h13q49 0 58 48q5 28 -7 38t-41 10zM467 35q35 0 51.5 11.5t21.5 37.5q5 23 -6 37t-43 14h-13q-32 0 -47 -14t-20 -37q-5 -26 8.5 -37.5t47.5 -11.5z" />
    <glyph glyph-name="fiveeighths" unicode="&#x215d;" horiz-adv-x="682" 
d="M605 650h50l-545 -650h-50zM461 -4q-57 0 -79.5 20t-14.5 66q5 27 21 45t39 28q-36 18 -27 68q8 46 37.5 64.5t77.5 18.5t72 -18.5t16 -64.5q-9 -49 -51 -68q43 -20 34 -73q-8 -46 -38 -66t-87 -20zM509 267q-29 0 -44.5 -10t-20.5 -38q-9 -48 42 -48h13q49 0 58 48
q5 28 -7 38t-41 10zM468 35q35 0 51.5 11.5t21.5 37.5q5 23 -6 37t-43 14h-13q-32 0 -47 -14t-20 -37q-5 -26 8.5 -37.5t47.5 -11.5zM175 525q16 8 33.5 13.5t34.5 5.5q42 0 63 -20.5t11 -75.5q-8 -51 -37 -77.5t-86 -26.5t-75.5 26.5t-10.5 72.5h45q-5 -29 5.5 -44.5
t42.5 -15.5q33 0 49.5 15.5t21.5 49.5q7 35 -5.5 48.5t-39.5 13.5q-17 0 -33 -7.5t-27 -15.5h-45l43 163h173l-7 -40h-134z" />
    <glyph glyph-name="seveneighths" unicode="&#x215e;" horiz-adv-x="652" 
d="M575 650h50l-545 -650h-50zM431 -4q-57 0 -79.5 20t-14.5 66q5 27 21 45t39 28q-36 18 -27 68q8 46 37.5 64.5t77.5 18.5t72 -18.5t16 -64.5q-9 -49 -51 -68q43 -20 34 -73q-8 -46 -38 -66t-87 -20zM479 267q-29 0 -44.5 -10t-20.5 -38q-9 -48 42 -48h13q49 0 58 48
q5 28 -7 38t-41 10zM438 35q35 0 51.5 11.5t21.5 37.5q5 23 -6 37t-43 14h-13q-32 0 -47 -14t-20 -37q-5 -26 8.5 -37.5t47.5 -11.5zM142 350l149 261h-144l7 39h194l-6 -32l-152 -268h-48z" />
    <glyph glyph-name="partialdiff" unicode="&#x2202;" horiz-adv-x="531" 
d="M326 660q61 0 103 -12t65.5 -38.5t29.5 -69.5t-5 -105l-39 -222q-11 -59 -30.5 -101t-51 -69t-76 -40t-104.5 -13q-116 0 -158.5 54.5t-24.5 154.5q16 97 70 144t161 47q44 0 85 -12t73 -32l15 89q8 46 5.5 76t-17 48t-41.5 25t-67 7h-5zM230 58q40 0 68.5 7.5t48.5 25.5
t32.5 48t20.5 74l13 76q-30 20 -66 32t-74 12q-39 0 -66 -7.5t-45.5 -23.5t-29.5 -42t-18 -63q-13 -73 13.5 -106t102.5 -33z" />
    <glyph glyph-name="minus" unicode="&#x2212;" horiz-adv-x="517" 
d="M58 244l10 62h407l-10 -62h-407z" />
    <glyph glyph-name="integral" unicode="&#x222b;" horiz-adv-x="384" 
d="M177 -11q-11 -61 -43 -86t-95 -25h-57l9 51h57q29 0 44 13.5t20 42.5l105 595q11 60 43 85.5t94 25.5h58l-9 -51h-58q-54 0 -64 -56z" />
    <glyph glyph-name="approxequal" unicode="&#x2248;" horiz-adv-x="517" 
d="M368 304q-32 0 -55 13t-42.5 28.5t-37.5 28.5t-40 13q-23 0 -39 -14t-21 -41h-60q12 65 45 90t81 25q32 0 55 -13t42.5 -29t38 -29t41.5 -13t38.5 13t20.5 42h60q-12 -64 -45.5 -89t-81.5 -25zM333 104q-32 0 -55.5 13t-43 28.5t-37.5 28.5t-40 13q-23 0 -38.5 -14.5
t-20.5 -40.5h-60q12 64 45 89.5t81 25.5q32 0 55 -13t42 -29t37.5 -29t41.5 -13q50 0 60 55h60q-12 -65 -46 -89.5t-81 -24.5z" />
    <glyph glyph-name="notequal" unicode="&#x2260;" horiz-adv-x="517" 
d="M168 144h-128l11 62h148l72 138h-196l11 62h216l75 144h61l-74 -144h129l-11 -62h-150l-71 -138h197l-11 -62h-217l-75 -144h-61z" />
    <glyph glyph-name="lessequal" unicode="&#x2264;" horiz-adv-x="407" 
d="M20 0l10 62h287l-10 -62h-287zM80 342l238 203h85l-239 -203l167 -202h-85z" />
    <glyph glyph-name="greaterequal" unicode="&#x2265;" horiz-adv-x="407" 
d="M20 0l10 62h287l-10 -62h-287zM129 140h-85l239 202l-167 203h85l166 -203z" />
    <glyph glyph-name="at.caps" horiz-adv-x="794" 
d="M100 398q11 64 39.5 115t75 86.5t111.5 54.5t149 19q83 0 141.5 -19t92.5 -54.5t45 -86.5t0 -115l-26 -146q-11 -64 -40 -115t-76 -86.5t-112 -54.5t-148 -19q-164 0 -232.5 73.5t-45.5 201.5zM136 256q-20 -113 35.5 -167.5t190.5 -54.5t210.5 54.5t95.5 167.5l24 138
q39 222 -227 222t-305 -222zM242 245q8 48 44 74t94 30l125 8l8 42q7 39 -9 55t-66 16q-45 0 -68 -15t-30 -55h-56q6 36 20.5 59t35.5 36.5t48 19t59 5.5q75 0 104.5 -26.5t17.5 -94.5l-45 -253h-38l-5 35q-31 -21 -61.5 -32t-66.5 -11q-60 0 -90.5 26t-20.5 81zM365 188
q34 0 63 11t55 29l15 87l-121 -10q-37 -3 -55 -17.5t-23 -40.5q-10 -59 66 -59z" />
    <glyph glyph-name="caron.salt" horiz-adv-x="182" 
d="M138 670h62l-56 -150h-33z" />
    <glyph glyph-name="commaaccent" horiz-adv-x="260" 
d="M48 -40h90l-100 -120h-44z" />
    <glyph glyph-name="one.tnum" horiz-adv-x="540" 
d="M134 70h86l90 510h-107l8 44l117 26h74l-102 -580h86l-12 -70h-252z" />
    <glyph glyph-name="two.tnum" horiz-adv-x="540" 
d="M97 468q17 96 75 144t171 48q60 0 98.5 -12.5t58.5 -36.5t24.5 -58.5t-3.5 -79.5q-10 -58 -42 -97.5t-75 -68.5t-90.5 -52t-90 -48.5t-74 -57.5t-40.5 -79h348l-12 -70h-429l9 52q11 63 43.5 105.5t76 74t92 56t91 50t73.5 57t39 76.5q11 64 -13 92t-96 28
q-30 0 -55.5 -5.5t-45.5 -19.5t-33.5 -38t-19.5 -60h-80v0z" />
    <glyph glyph-name="three.tnum" horiz-adv-x="540" 
d="M404 184q10 54 -14 83.5t-76 29.5h-83l12 66h80q48 0 76.5 31.5t36.5 75.5q11 64 -13.5 92.5t-97.5 28.5q-71 0 -107.5 -29.5t-48.5 -98.5h-80q34 197 246 197q114 0 156 -47.5t25 -143.5q-9 -52 -40.5 -85.5t-76.5 -50.5q51 -16 74 -51t12 -100q-17 -96 -76.5 -144
t-182.5 -48q-118 0 -161.5 47t-25.5 149h79q-12 -68 14 -98t103 -30t117 28.5t52 97.5z" />
    <glyph glyph-name="four.tnum" horiz-adv-x="540" 
d="M337 151h-321l11 60l373 439h105l-76 -432h79l-12 -67h-79l-26 -151h-80zM349 218l63 356l-301 -356h238z" />
    <glyph glyph-name="five.tnum" horiz-adv-x="540" 
d="M169 363q37 25 79 39t84 14q45 0 79 -10t54.5 -34t26.5 -63.5t-4 -97.5q-10 -54 -29 -95.5t-50 -69.5t-76 -42t-106 -14q-60 0 -99.5 14t-61.5 40t-27.5 63t2.5 84h78q-11 -63 14.5 -98t102.5 -35q79 0 118.5 36.5t53.5 116.5q14 82 -14 114.5t-93 32.5q-42 0 -78 -17
t-60 -34h-85q23 86 45 171t44 172h365l-12 -69h-296z" />
    <glyph glyph-name="six.tnum" horiz-adv-x="540" 
d="M151 346q38 20 82 32t88 12q54 0 89 -11.5t54.5 -35.5t24 -60t-3.5 -84q-18 -100 -77 -155t-175 -55q-61 0 -101.5 13t-62.5 41t-27 71.5t6 104.5l37 210q22 123 82.5 177t172.5 54q111 0 152 -45.5t25 -138.5h-80q11 60 -11.5 87t-96.5 27q-37 0 -64 -7.5t-46.5 -26
t-32.5 -49.5t-21 -78zM294 333q-38 0 -77.5 -12t-76.5 -32l-12 -70q-8 -48 -6.5 -79t15 -49t39 -25t64.5 -7q76 0 113.5 32.5t50.5 105.5q7 37 5 63t-14.5 42t-37 23.5t-63.5 7.5z" />
    <glyph glyph-name="seven.tnum" horiz-adv-x="540" 
d="M118 0l331 580h-341l12 70h429l-11 -62l-332 -588h-88z" />
    <glyph glyph-name="eight.tnum" horiz-adv-x="540" 
d="M227 -10q-122 0 -170 42t-31 139q11 65 50 104.5t99 56.5q-48 17 -67.5 56t-8.5 96q9 48 29 81.5t51.5 54.5t73 30.5t92.5 9.5t89.5 -9.5t62.5 -30.5t33 -54.5t0 -81.5q-11 -57 -44 -96t-87 -56q54 -17 79.5 -56.5t14.5 -104.5q-17 -97 -80.5 -139t-185.5 -42zM333 591
q-69 0 -106.5 -24t-48.5 -90q-11 -61 14 -89t85 -28h30q61 0 96 28.5t46 88.5q11 66 -17.5 90t-98.5 24zM239 58q81 0 122 27.5t52 91.5q4 27 0.5 49.5t-17 38t-38 24.5t-62.5 9h-30q-75 0 -112 -33.5t-46 -87.5q-11 -64 19.5 -91.5t111.5 -27.5z" />
    <glyph glyph-name="nine.tnum" horiz-adv-x="540" 
d="M245 58q37 0 64 7.5t46 26.5t32 50t21 78l15 83q-38 -20 -83 -32t-88 -12q-54 0 -89 11.5t-54.5 35.5t-24 60t4.5 85q17 100 77.5 154.5t176.5 54.5q121 0 162.5 -53.5t19.5 -175.5l-37 -210q-11 -62 -31 -106t-51.5 -72t-74 -41t-98.5 -13q-111 0 -152 45.5t-25 138.5
h80q-5 -30 -2.5 -51.5t15 -35.5t36 -21t60.5 -7zM279 316q38 0 77.5 12t76.5 32l12 71q9 48 7 79t-15.5 49t-39 25t-64.5 7q-76 0 -113.5 -33t-50.5 -105q-6 -38 -4.5 -64t14 -42t37 -23.5t63.5 -7.5z" />
    <glyph glyph-name="zero.tnum" horiz-adv-x="540" 
d="M445 424q9 48 6.5 80t-16 51t-39 27t-62.5 8q-38 0 -66.5 -8t-48.5 -27t-33.5 -51.5t-22.5 -80.5l-35 -197q-8 -48 -6 -80t15.5 -51t39 -27t63.5 -8q37 0 65.5 8t49 27t34 51t21.5 80zM83 424q12 65 32.5 110t52 73t75 40.5t101.5 12.5t97.5 -12.5t62 -41t28 -73.5
t-6.5 -109l-35 -198q-11 -65 -31.5 -110t-52 -73t-75 -40.5t-101.5 -12.5t-98 12.5t-62.5 40.5t-27.5 73t6 110z" />
    <glyph glyph-name="dollar.tnum" horiz-adv-x="523" 
d="M184 -20l15 87q-49 3 -79.5 15t-46 32t-18 47.5t3.5 61.5h78q-4 -24 -1.5 -41t14.5 -28t34 -16t58 -5q41 0 67 6t41.5 16.5t22.5 26t10 34.5q3 20 0 34.5t-16 24.5t-38 16t-64 9q-50 4 -83.5 14t-52 27t-24 41.5t0.5 59.5q13 70 61.5 104.5t123.5 39.5l15 84h68l-15 -84
q80 -6 110.5 -42.5t16.5 -112.5h-78q4 22 2 39t-12.5 28.5t-31.5 17.5t-54 6q-56 0 -88 -18.5t-40 -62.5q-8 -42 16 -60t89 -23q58 -5 94 -15t55.5 -26.5t24 -41.5t-1.5 -59q-5 -28 -15 -53.5t-31 -45.5t-56.5 -33.5t-91.5 -16.5l-15 -87h-68z" />
    <glyph glyph-name="cent.tnum" horiz-adv-x="516" 
d="M317 519q-38 0 -64.5 -7t-45.5 -26t-31 -51t-21 -83l-10 -54q-9 -51 -8 -83.5t13 -51.5t36 -26t62 -7q33 0 56.5 5.5t39 17.5t24.5 31t15 47h78q-15 -84 -61.5 -122t-128.5 -44l-15 -85h-68l15 85q-45 3 -76 16t-48 40t-20 70t8 107l10 54q11 63 29 106t45 70t62.5 40
t80.5 16l16 86h68l-16 -86q81 -6 114 -44t18 -121h-78q4 27 1.5 46t-13.5 31t-32.5 17.5t-54.5 5.5z" />
    <glyph glyph-name="sterling.tnum" horiz-adv-x="562" 
d="M10 0l12 69q57 0 87 29.5t41 91.5q4 21 2 44.5t-5 49.5h-87l9 56h69q-4 35 -8 69t4 74q17 95 76 136t145 41q102 0 139 -40.5t21 -135.5h-80q11 60 -10.5 83.5t-81.5 23.5q-59 0 -89 -25.5t-40 -82.5q-7 -38 -4.5 -73t5.5 -70h125l-9 -56h-113q2 -23 3 -45.5t-3 -43.5
q-8 -45 -26 -76t-49 -50h177q44 0 67 18.5t32 66.5h80q-14 -80 -54 -117t-125 -37h-310z" />
    <glyph glyph-name="Euro.tnum" horiz-adv-x="598" 
d="M211 359l-12 -69h187l-17 -48h-179l-4 -24q-8 -46 -6 -76.5t15.5 -49t39.5 -26.5t65 -8q70 0 106 27.5t49 98.5h80q-19 -105 -78.5 -150t-168.5 -45q-58 0 -98 12t-62.5 39.5t-27.5 72.5t7 111l3 18h-63l9 48h63l12 69h-63l8 48h63l4 19q11 64 31.5 108.5t52 72.5
t76 40.5t103.5 12.5q109 0 153 -44.5t26 -149.5h-80q12 70 -14 97.5t-97 27.5q-39 0 -67.5 -7.5t-48.5 -26t-33 -49t-21 -76.5l-5 -25h207l-16 -48h-199z" />
    <glyph glyph-name="yen.tnum" horiz-adv-x="538" 
d="M202 74h-138l8 46h138l12 70h-138l8 46h138l-4 41l-113 373h89q20 -80 41.5 -158.5t42.5 -158.5h2q49 80 97.5 158.5t98.5 158.5h89l-246 -373l-17 -41h138l-8 -46h-138l-12 -70h138l-8 -46h-138l-13 -74h-80z" />
    <glyph glyph-name="numbersign.tnum" horiz-adv-x="562" 
d="M481 166h-100l-44 -166h-61l44 166h-128l-44 -166h-60l43 166h-100l14 54h100l55 211h-100l15 54h100l44 165h60l-43 -165h128l43 165h61l-43 -165h100l-15 -54h-100l-55 -211h100zM206 220h128l55 211h-128z" />
    <glyph glyph-name="percent.tnum" horiz-adv-x="540" 
d="M53 0h-64l531 650h65zM322 525q-7 -38 -19 -64t-30.5 -42t-43 -22.5t-56.5 -6.5t-54 6.5t-35 22.5t-16 42t4 64q14 75 49.5 105t99.5 30t89.5 -30t11.5 -105zM263 525q9 50 -4 68t-47 18q-35 0 -53.5 -17t-26.5 -65q-10 -53 2 -71t48 -18q34 0 53 17.5t28 67.5zM502 125
q-7 -38 -19 -64t-30.5 -42t-43 -22.5t-56.5 -6.5t-54 6.5t-35 22.5t-16 42t4 64q13 75 48.5 105t99.5 30t89.5 -30t12.5 -105zM443 125q8 50 -4.5 68t-46.5 18q-35 0 -53.5 -17t-27.5 -65q-9 -53 3 -71t48 -18q34 0 53 17.5t28 67.5z" />
    <glyph glyph-name="one.onum" horiz-adv-x="334" 
d="M116 0l76 433h-96l7 39l131 28h48l-88 -500h-78z" />
    <glyph glyph-name="two.onum" horiz-adv-x="508" 
d="M21 39q9 57 38 93t68.5 60t84 39.5t83 31t65.5 34.5t33 50q4 22 1.5 39.5t-14 30.5t-33 20t-55.5 7q-66 0 -96.5 -25t-38.5 -73h-78q14 80 69 122t155 42q54 0 89.5 -11.5t55 -32.5t24.5 -51t-1 -67q-7 -44 -35.5 -72t-66.5 -48t-81.5 -35t-81.5 -31.5t-65.5 -39
t-33.5 -56.5h327l-11 -66h-408z" />
    <glyph glyph-name="three.onum" horiz-adv-x="516" 
d="M464 347q-6 -32 -17.5 -56.5t-27.5 -42.5t-34.5 -30.5t-38.5 -20.5q54 -16 78.5 -55.5t11.5 -110.5q-8 -46 -25.5 -85t-48 -67t-78 -43.5t-115.5 -15.5q-47 0 -91.5 9t-79.5 21l13 75q38 -17 81.5 -27t88.5 -10q83 0 123.5 35t53.5 109q11 66 -11.5 98.5t-85.5 32.5h-82
l12 64h82q45 0 73.5 30.5t38.5 85.5q4 23 1.5 42t-14 32.5t-33 20.5t-55.5 7q-63 0 -95 -24.5t-40 -74.5h-78q6 36 22 66.5t43 52.5t66.5 34t92.5 12q58 0 94 -13t54.5 -35.5t22.5 -52.5t-2 -63z" />
    <glyph glyph-name="four.onum" horiz-adv-x="554" 
d="M320 0h-320l10 59l376 441h100l-77 -434h76l-11 -66h-76l-29 -160h-78zM331 66l63 359l-303 -359h240z" />
    <glyph glyph-name="five.onum" horiz-adv-x="519" 
d="M154 -180q-45 0 -90.5 9t-80.5 23l13 74q37 -17 82 -27.5t87 -10.5q91 0 136 42.5t60 127.5q14 84 -11 115.5t-90 31.5q-36 0 -72.5 -11t-66.5 -29h-67l89 335h332l-12 -66h-267l-56 -210q32 19 70 29.5t77 10.5q90 0 130.5 -47.5t21.5 -159.5q-10 -54 -31 -98t-55.5 -75
t-83.5 -47.5t-115 -16.5z" />
    <glyph glyph-name="six.onum" horiz-adv-x="527" 
d="M153 342q37 20 77.5 32.5t83.5 12.5q52 0 85 -12t51 -36t21 -59.5t-5 -83.5q-17 -98 -74.5 -152t-167.5 -54q-58 0 -96 12.5t-58 40t-24 70.5t7 103l35 199q21 119 80.5 172t163.5 53q106 0 144.5 -40t23.5 -130h-76q10 56 -11.5 80t-91.5 24q-34 0 -59.5 -7.5t-44 -26
t-31 -49t-20.5 -75.5zM288 329q-38 0 -74 -12t-71 -32l-12 -69q-9 -47 -8 -78t13 -49t36 -25.5t62 -7.5q37 0 63 8t44 25t29.5 43t17.5 62q6 37 5.5 62.5t-11.5 41.5t-34 23.5t-60 7.5z" />
    <glyph glyph-name="seven.onum" horiz-adv-x="474" 
d="M62 -170l327 604h-313l12 66h394l-11 -58l-324 -612h-85z" />
    <glyph glyph-name="eight.onum" horiz-adv-x="535" 
d="M313 352q49 0 80.5 29t40.5 80q11 65 -17 89t-88 24q-61 0 -98 -24.5t-48 -88.5q-9 -51 12.5 -80t70.5 -29h47zM237 55q75 0 113.5 27t49.5 90q4 24 1 45.5t-14 38t-32 26.5t-53 10h-47q-32 0 -56.5 -10t-41.5 -26.5t-27.5 -38t-14.5 -45.5q-11 -63 18 -90t104 -27z
M226 -11q-117 0 -162 40.5t-28 135.5q11 65 49.5 102t101.5 54q-48 15 -69 54t-10 97q8 47 28 79.5t50 52t69 28t85 8.5t81.5 -8.5t59 -28t32 -52t0.5 -79.5q-11 -59 -44.5 -97.5t-87.5 -53.5q57 -17 82 -54t14 -102q-9 -47 -27.5 -80.5t-48.5 -54.5t-73.5 -31t-101.5 -10z
" />
    <glyph glyph-name="nine.onum" horiz-adv-x="515" 
d="M182 -180q-47 0 -89.5 8.5t-74.5 22.5l13 72q38 -17 77 -27t84 -10q36 0 62 6t44 22.5t30 45.5t20 75l17 97q-38 -20 -79 -31.5t-83 -11.5q-101 0 -134.5 52t-16.5 151q19 108 76 163t169 55q58 0 96 -13t58.5 -41t24 -71.5t-6.5 -103.5l-44 -247q-10 -59 -29 -99.5
t-48.5 -66t-70.5 -37t-95 -11.5zM230 148q38 0 73.5 11t71.5 31l16 89q8 46 6.5 77.5t-13.5 50.5t-36 27.5t-61 8.5q-73 0 -108 -35.5t-49 -113.5q-13 -73 7.5 -109.5t92.5 -36.5z" />
    <glyph glyph-name="zero.onum" 
d="M409 279q16 89 -11 127t-96 38q-70 0 -109.5 -38t-55.5 -127l-11 -58q-16 -90 10.5 -128t96.5 -38q69 0 109 38.5t56 127.5zM477 223q-11 -64 -34.5 -108.5t-57 -72.5t-75 -40.5t-88.5 -12.5q-48 0 -85 12.5t-60.5 40.5t-31 72.5t3.5 108.5l9 54q11 64 34.5 108.5
t56.5 72t74.5 40t89.5 12.5q47 0 84.5 -12.5t60.5 -40t31 -72t-3 -108.5z" />
    <glyph glyph-name="dollar.onum" horiz-adv-x="531" 
d="M452 139q-5 -27 -15 -52.5t-31 -45.5t-56 -33.5t-90 -16.5l-15 -86h-72l15 86q-48 3 -77.5 15t-45 32t-18.5 47.5t3 60.5h78q-8 -48 13.5 -69t91.5 -21q40 0 66 6t41.5 16.5t23 26t10.5 34.5q4 20 0.5 34.5t-16.5 24.5t-37.5 16t-63.5 9q-99 9 -135 42t-24 100
q12 69 59.5 103.5t121.5 40.5l15 86h72l-15 -86q78 -6 109.5 -43t17.5 -112h-78q4 22 1.5 39t-13 28.5t-31.5 17.5t-54 6q-56 0 -87.5 -18.5t-39.5 -62.5q-8 -42 15.5 -60t88.5 -23q58 -5 94.5 -15t55.5 -26.5t23.5 -41.5t-1.5 -59z" />
    <glyph glyph-name="cent.onum" horiz-adv-x="508" 
d="M301 445q-37 0 -64 -7t-46 -26t-31.5 -51.5t-21.5 -83.5l-9 -54q-9 -51 -8 -83t13.5 -51t36.5 -26t61 -7q34 0 57 5t39 17t25 31t14 47h78q-15 -83 -61 -121t-128 -44l-15 -85h-72l15 86q-44 3 -74.5 16t-47 40t-19.5 69.5t8 105.5l9 54q11 63 29.5 105.5t44.5 69.5
t61 40.5t80 16.5l15 86h72l-15 -86q81 -6 113.5 -44t17.5 -121h-78q9 55 -11.5 78t-87.5 23z" />
    <glyph glyph-name="sterling.onum" horiz-adv-x="563" 
d="M206 466q-8 -41 -4.5 -76t8.5 -68h120l-9 -53h-102q2 -21 3 -42t-3 -42q-8 -42 -24.5 -72t-45.5 -47h170q26 0 43 5t28.5 15.5t17.5 27.5t11 41h78q-8 -42 -21 -71.5t-34 -48t-51 -27t-71 -8.5h-310l11 66h8q54 2 83.5 30t39.5 85q5 23 2.5 44.5t-7.5 43.5h-90l9 53h68
q-7 31 -10.5 66.5t4.5 78.5q16 91 72.5 132t144.5 41q102 0 138.5 -41.5t20.5 -130.5h-78q10 57 -11 81t-80 24q-57 0 -88 -25t-41 -82z" />
    <glyph glyph-name="Euro.onum" horiz-adv-x="598" 
d="M209 349l-12 -70h186l-17 -46h-177l-3 -17q-8 -46 -6 -76.5t15.5 -49t39.5 -26.5t65 -8q70 0 106.5 27.5t49.5 98.5h78q-9 -53 -28 -89.5t-49 -59.5t-71.5 -33.5t-96.5 -10.5q-58 0 -98 11.5t-62 39t-27 72t7 110.5l2 11h-63l8 46h63l12 70h-63l8 46h63l2 13
q12 64 32 108.5t51.5 72t75.5 39.5t103 12q109 0 152.5 -43.5t24.5 -148.5h-78q13 70 -13 97.5t-97 27.5q-39 0 -67.5 -7.5t-49 -26t-34 -49t-21.5 -76.5l-3 -19h207l-17 -46h-198z" />
    <glyph glyph-name="yen.onum" horiz-adv-x="536" 
d="M215 142l11 65h-139l8 44h139l-124 379h89q20 -78 42 -152.5t44 -152.5h2q48 78 96 152.5t98 152.5h89l-258 -379h139l-8 -44h-139l-11 -65h139l-8 -44h-139l-17 -98h-78l17 98h-139l8 44h139z" />
    <glyph glyph-name="numbersign.onum" horiz-adv-x="564" 
d="M481 166h-100l-44 -166h-61l44 166h-128l-44 -166h-60l43 166h-100l14 54h100l51 191h-100l14 54h100l45 165h60l-44 -165h128l44 165h61l-44 -165h100l-14 -54h-100l-51 -191h100zM206 220h128l51 191h-128z" />
    <glyph glyph-name="percent.onum" horiz-adv-x="683" 
d="M115 0h-71l554 630h72zM606 134q-7 -41 -20 -69t-33 -45t-46.5 -24t-60.5 -7q-35 0 -59 7t-37.5 24t-17 45t3.5 69q14 81 53 113t108 32t96 -32t13 -113zM377 496q-14 -82 -53 -113.5t-108 -31.5t-96 31.5t-13 113.5q14 81 53 113t108 32t96 -32t13 -113zM401 138
q-10 -56 2.5 -75.5t51.5 -19.5q38 0 57.5 18.5t29.5 72.5q9 53 -4 71.5t-51 18.5t-58 -18t-28 -68zM171 499q-5 -28 -4.5 -46t7.5 -28.5t19.5 -14.5t32.5 -4q37 0 57 18.5t30 71.5q9 53 -4.5 72t-50.5 19q-38 0 -58 -19t-29 -69z" />
    <glyph glyph-name="a.smcp" horiz-adv-x="484" 
d="M328 130h-207l-61 -130h-80l272 555h95l77 -555h-80zM151 198h170l-33 285h-2z" />
    <glyph glyph-name="b.smcp" horiz-adv-x="511" 
d="M117 555h200q100 0 135 -36t22 -108q-8 -49 -38.5 -82t-75.5 -47q56 -16 76 -48.5t11 -85.5q-14 -81 -65.5 -114.5t-151.5 -33.5h-210zM141 248l-32 -182h131q33 0 56 5t38 16t23.5 28t12.5 41q8 47 -12.5 69.5t-80.5 22.5h-136zM153 312h133q53 0 77.5 25t32.5 66
q8 48 -12 67t-81 19h-119z" />
    <glyph glyph-name="c.smcp" horiz-adv-x="502" 
d="M224 56q66 0 96.5 23.5t41.5 79.5h78q-15 -85 -68 -127t-159 -42q-53 0 -90 10t-58 34t-26 63t5 96l30 170q19 108 75.5 155t164.5 47q106 0 144 -41.5t23 -127.5h-78q11 57 -12 80t-89 23q-38 0 -64 -7.5t-43 -24t-27 -42t-16 -61.5l-31 -172q-6 -37 -5 -62.5t12 -42
t34.5 -24t61.5 -7.5z" />
    <glyph glyph-name="d.smcp" horiz-adv-x="515" 
d="M20 0l97 555h189q53 0 92 -9t62.5 -31t30.5 -60.5t-3 -96.5l-28 -159q-11 -59 -31.5 -97t-51.5 -61t-73 -32t-95 -9h-189zM215 66q38 0 66 5.5t48 20.5t32.5 40.5t19.5 65.5l28 159q7 40 3.5 65.5t-18 40.5t-40.5 20.5t-64 5.5h-106l-75 -423h106z" />
    <glyph glyph-name="e.smcp" horiz-adv-x="453" 
d="M373 248h-232l-32 -182h265l-11 -66h-343l97 555h343l-11 -66h-265l-31 -177h232z" />
    <glyph glyph-name="f.smcp" horiz-adv-x="425" 
d="M355 248h-214l-43 -248h-78l97 555h325l-11 -66h-247l-31 -177h214z" />
    <glyph glyph-name="g.smcp" horiz-adv-x="514" 
d="M214 -11q-53 0 -90 10t-58.5 34t-27 63t5.5 97l30 172q9 54 27 92t47 62t69.5 35.5t95.5 11.5q106 0 143.5 -42t22.5 -128h-78q10 55 -12 79.5t-87 24.5q-36 0 -62 -7.5t-43 -23.5t-28 -42t-17 -62l-31 -173q-6 -36 -5 -62t12 -42.5t34.5 -24.5t62.5 -8q37 0 62.5 7.5
t42 21t25.5 31t12 37.5l17 92h-117l11 66h195l-54 -310h-38l-7 50q-26 -26 -62 -43.5t-98 -17.5z" />
    <glyph glyph-name="h.smcp" horiz-adv-x="514" 
d="M414 0h-78l43 247h-238l-43 -247h-78l97 555h78l-42 -242h238l42 242h78z" />
    <glyph glyph-name="i.smcp" horiz-adv-x="198" 
d="M117 555h78l-97 -555h-78z" />
    <glyph glyph-name="j.smcp" horiz-adv-x="332" 
d="M130 489l11 66h188l-77 -437q-11 -66 -48 -97t-109 -31q-26 0 -50.5 2.5t-44.5 7.5l11 66q23 -5 42 -7.5t41 -2.5q37 0 55.5 14t26.5 55l64 364h-110z" />
    <glyph glyph-name="k.smcp" horiz-adv-x="452" 
d="M98 0h-78l97 555h78l-41 -236l234 236h96l-274 -268l182 -287h-95l-155 252z" />
    <glyph glyph-name="l.smcp" horiz-adv-x="384" 
d="M117 555h78l-86 -489h206l-11 -66h-284z" />
    <glyph glyph-name="m.smcp" horiz-adv-x="658" 
d="M304 96h2l233 459h116l-97 -555h-76l82 470l-241 -470h-69l-76 470l-82 -470h-76l97 555h115z" />
    <glyph glyph-name="n.smcp" horiz-adv-x="525" 
d="M425 0h-100l-150 453l-79 -453h-76l97 555h100l149 -453l80 453h76z" />
    <glyph glyph-name="o.smcp" horiz-adv-x="518" 
d="M413 359q7 42 5 69.5t-15 43.5t-37 22t-59 6t-61 -6t-44.5 -22t-31 -43.5t-19.5 -69.5l-29 -163q-8 -42 -5.5 -69.5t15.5 -43.5t37 -22t59 -6t61 6t44.5 22t30.5 43.5t20 69.5zM462 196q-10 -59 -30 -98.5t-50 -63.5t-71 -34.5t-94 -10.5t-90.5 10.5t-59.5 34.5
t-27.5 63.5t4.5 98.5l29 163q10 58 29.5 98t49.5 64t71.5 34.5t94.5 10.5t90.5 -10.5t59 -34.5t27.5 -64t-4 -98z" />
    <glyph glyph-name="p.smcp" horiz-adv-x="493" 
d="M117 555h190q53 0 90 -8.5t58 -28.5t27.5 -53.5t-2.5 -83.5q-9 -47 -26.5 -80t-45.5 -54t-67.5 -30.5t-92.5 -9.5h-114l-36 -207h-78zM146 273h114q35 0 59.5 5.5t41 18.5t26.5 33.5t15 50.5q5 31 2 52t-15.5 33.5t-35.5 17.5t-57 5h-112z" />
    <glyph glyph-name="q.smcp" horiz-adv-x="518" 
d="M462 196q-19 -107 -71 -153.5t-141 -52.5q-3 -27 9 -37t44 -10h51l-26 -44h-54q-44 0 -68.5 21t-20.5 70q-89 5 -124.5 51.5t-16.5 154.5l29 163q10 58 29.5 98t49.5 64t71.5 34.5t94.5 10.5t90.5 -10.5t59 -34.5t27.5 -64t-4 -98zM413 359q7 42 5 69.5t-15 43.5t-37 22
t-59 6t-61 -6t-44.5 -22t-31 -43.5t-19.5 -69.5l-29 -163q-8 -42 -5.5 -69.5t15.5 -43.5t37 -22t59 -6t61 6t44.5 22t30.5 43.5t20 69.5z" />
    <glyph glyph-name="r.smcp" horiz-adv-x="505" 
d="M134 207l-36 -207h-78l97 555h190q53 0 90 -8.5t58 -28.5t27.5 -53.5t-2.5 -83.5q-13 -69 -45.5 -109t-89.5 -55q20 -55 39.5 -109t40.5 -108h-84l-75 207h-132zM146 273h114q35 0 59.5 5.5t41 18.5t26.5 33.5t15 50.5q5 31 2 52t-15.5 33.5t-35.5 17.5t-57 5h-112z" />
    <glyph glyph-name="s.smcp" horiz-adv-x="487" 
d="M212 55q38 0 63.5 5.5t41.5 17t24.5 29t12.5 40.5q4 25 3.5 43t-12 30.5t-36.5 20.5t-68 14q-50 6 -83.5 18t-53 31t-25 46t0.5 63q14 74 68.5 113.5t149.5 39.5q101 0 140.5 -38t24.5 -125h-78q4 24 2 42t-12.5 30.5t-32 18.5t-55.5 6q-60 0 -90.5 -22t-38.5 -67
q-4 -23 -1.5 -39.5t14.5 -28.5t34.5 -19t58.5 -11q61 -7 97.5 -20.5t54 -34t20 -49t-3.5 -64.5q-7 -38 -23 -67t-44 -48.5t-68.5 -30t-95.5 -10.5q-104 0 -147.5 37t-27.5 127h78q-10 -56 15 -77t93 -21z" />
    <glyph glyph-name="t.smcp" horiz-adv-x="438" 
d="M228 489h-152l11 66h378l-11 -66h-148l-86 -489h-78z" />
    <glyph glyph-name="u.smcp" horiz-adv-x="524" 
d="M195 555l-67 -380q-6 -33 -3.5 -56t14.5 -37.5t34.5 -20.5t57.5 -6t60 6t42 20.5t27 37.5t16 56l67 380h78l-67 -380q-9 -53 -29 -88.5t-49.5 -57.5t-68.5 -31t-87 -9t-84 9t-58.5 31t-29.5 57.5t2 88.5l67 380h78z" />
    <glyph glyph-name="v.smcp" horiz-adv-x="485" 
d="M212 78h2l221 477h87l-273 -555h-92l-80 555h81z" />
    <glyph glyph-name="w.smcp" horiz-adv-x="779" 
d="M494 555l31 -467h2l185 467h84l-238 -555h-93l-32 482l-200 -482h-92l-44 555h79l25 -467h2l192 467h99z" />
    <glyph glyph-name="x.smcp" horiz-adv-x="469" 
d="M287 283l122 -283h-85l-89 224l-165 -224h-90l222 287l-118 268h86l84 -210l154 210h90z" />
    <glyph glyph-name="y.smcp" horiz-adv-x="455" 
d="M185 214l-108 341h79l77 -271h2l171 271h86l-229 -341l-37 -214h-78z" />
    <glyph glyph-name="z.smcp" horiz-adv-x="465" 
d="M116 555h356l-9 -55l-350 -434h283l-11 -66h-375l9 53l351 436h-265z" />
    <glyph glyph-name="ampersand.smcp" horiz-adv-x="611" 
d="M456 251l-20 -113q-8 -40 6.5 -56t57.5 -16l-11 -66q-49 0 -74.5 13t-36.5 42q-26 -29 -68.5 -47t-104.5 -18q-92 0 -137.5 39.5t-31.5 117.5q9 49 40.5 85.5t81.5 54.5q-33 14 -50.5 45.5t-9.5 78.5q14 77 68 116t145 39q94 0 132.5 -39.5t23.5 -125.5h-79
q9 51 -10.5 75t-76.5 24q-58 0 -87 -22t-38 -74q-8 -47 12.5 -69t52.5 -22h303l-11 -62h-77zM218 56q36 0 61.5 7t42.5 20.5t26 33t14 45.5l16 89h-148q-42 0 -74 -23.5t-40 -73.5q-10 -55 18.5 -76.5t83.5 -21.5z" />
    <glyph glyph-name="one.smcp" horiz-adv-x="306" 
d="M98 0l86 490h-88l7 39l120 26h50l-97 -555h-78z" />
    <glyph glyph-name="two.smcp" horiz-adv-x="508" 
d="M28 47q10 55 39.5 92t69 63.5t83.5 46t82.5 40.5t66 47t34.5 64q4 24 2.5 42.5t-12 31.5t-32 19.5t-57.5 6.5q-67 0 -97 -25t-39 -78h-78q14 83 69 126t156 43q54 0 89 -11.5t54.5 -32.5t24.5 -51.5t-2 -69.5q-9 -49 -37.5 -82.5t-67 -57.5t-82 -43t-82 -40t-66.5 -47
t-36 -65h319l-11 -66h-398z" />
    <glyph glyph-name="three.smcp" horiz-adv-x="512" 
d="M80 397q15 89 72.5 129t152.5 40q103 0 143 -40t25 -125q-8 -45 -36 -74.5t-70 -42.5q49 -13 70.5 -44t11.5 -86q-15 -83 -70 -124t-166 -41q-109 0 -150 40t-26 129h76q-10 -56 12 -79.5t94 -23.5q73 0 107.5 23t44.5 79q8 43 -9.5 68t-70.5 25h-76l11 64h76
q42 0 64 25.5t28 59.5q9 54 -12.5 77.5t-87.5 23.5q-62 0 -94 -23t-42 -80h-78z" />
    <glyph glyph-name="four.smcp" horiz-adv-x="499" 
d="M303 120h-292l10 59l340 376h96l-65 -369h69l-11 -66h-69l-21 -120h-78zM314 186l51 288l-260 -288h209z" />
    <glyph glyph-name="five.smcp" horiz-adv-x="510" 
d="M68 255l81 300h335l-11 -66h-267l-47 -175q35 20 72 31.5t74 11.5q89 0 126 -41t20 -139q-8 -47 -25 -82t-45.5 -58.5t-69.5 -35.5t-98 -12q-59 0 -96 12.5t-57 35.5t-24.5 54.5t2.5 70.5h75q-9 -52 14 -79.5t92 -27.5q38 0 64.5 7t44.5 22t28.5 38t16.5 55
q12 70 -11 96.5t-82 26.5q-38 0 -73 -13t-64 -32h-75z" />
    <glyph glyph-name="six.smcp" horiz-adv-x="507" 
d="M141 301q35 18 75.5 29t76.5 11q101 0 135 -41t18 -131q-16 -92 -71 -136t-159 -44q-53 0 -90.5 10t-59.5 33.5t-27.5 62.5t4.5 97l30 167q10 57 28.5 96t47.5 64t68.5 36t90.5 11q94 0 136 -35.5t28 -122.5h-78q9 50 -12 71t-84 21q-34 0 -58.5 -7t-42 -23t-28.5 -43.5
t-18 -67.5zM269 285q-35 0 -70 -10.5t-68 -27.5l-11 -61q-7 -40 -4 -65.5t16.5 -40t36.5 -20t55 -5.5q66 0 99.5 27.5t44.5 87.5q6 33 4.5 55t-13 35.5t-33.5 19t-57 5.5z" />
    <glyph glyph-name="seven.smcp" horiz-adv-x="434" 
d="M77 0l290 489h-291l11 66h374l-10 -57l-289 -498h-85z" />
    <glyph glyph-name="eight.smcp" horiz-adv-x="530" 
d="M225 -11q-115 0 -159.5 38t-30.5 118q9 52 44.5 87.5t96.5 50.5q-51 13 -67 49.5t-8 85.5q14 80 72.5 114t148.5 34q45 0 80 -8t58 -26t32 -46t2 -68q-8 -49 -38 -85.5t-84 -49.5q57 -15 79.5 -50.5t13.5 -87.5q-14 -80 -70 -118t-170 -38zM303 313q45 0 73.5 24t36.5 68
q10 55 -16 75t-84 20q-60 0 -92.5 -19.5t-42.5 -75.5q-8 -44 13 -68t66 -24h46zM246 253q-32 0 -54.5 -8t-38.5 -21.5t-25 -31.5t-12 -37q-10 -53 16.5 -76.5t101.5 -23.5t109.5 23.5t44.5 76.5q3 19 0.5 37t-14 31.5t-32 21.5t-51.5 8h-45z" />
    <glyph glyph-name="nine.smcp" horiz-adv-x="507" 
d="M383 254q-35 -18 -75.5 -29t-76.5 -11q-101 0 -135.5 41t-17.5 131q16 92 72.5 136t160.5 44q53 0 90 -10t58 -33.5t26.5 -62.5t-4.5 -97l-30 -167q-10 -58 -28 -97.5t-46.5 -64t-68 -35t-91.5 -10.5q-97 0 -138.5 35.5t-27.5 122.5h78q-8 -50 13 -71t84 -21q34 0 58.5 7
t42 23t28.5 43t18 68zM255 270q35 0 70 10.5t68 27.5l11 61q7 40 3.5 65.5t-16.5 40t-36 20t-55 5.5q-66 0 -100 -27.5t-45 -87.5q-6 -33 -4 -55t13.5 -35.5t33.5 -19t57 -5.5z" />
    <glyph glyph-name="zero.smcp" horiz-adv-x="507" 
d="M451 198q-20 -113 -77.5 -161t-160.5 -48t-146 48t-23 161l28 159q20 113 78.5 161t159.5 48q102 0 145.5 -48t23.5 -161zM401 357q14 81 -9 112t-91 31q-33 0 -58.5 -7t-43.5 -24t-30 -44.5t-19 -67.5l-28 -159q-14 -81 9.5 -112t90.5 -31t102 31t49 112z" />
    <glyph glyph-name="dollar.smcp" horiz-adv-x="523" 
d="M452 166q-5 -27 -15 -52.5t-31 -45.5t-56 -33.5t-89 -16.5l-15 -86h-72l15 86q-48 3 -77.5 15t-45.5 32t-19 47.5t3 60.5h78q-8 -48 13.5 -69t91.5 -21q40 0 66 6t41.5 16.5t23 26t10.5 34.5q3 20 0 34.5t-16 24.5t-37.5 16t-63.5 9q-99 9 -135 42t-24 100
q12 69 60 103.5t122 40.5l15 86h72l-15 -86q78 -6 108.5 -43t17.5 -112h-78q4 22 1.5 39t-13 28.5t-31.5 17.5t-54 6q-56 0 -88 -18.5t-40 -62.5q-7 -42 16.5 -60t88.5 -23q58 -5 94 -15t55.5 -26.5t24 -41.5t-1.5 -59z" />
    <glyph glyph-name="cent.smcp" horiz-adv-x="526" 
d="M314 472q-38 0 -64.5 -7t-45.5 -26t-31.5 -51t-21.5 -83l-9 -54q-9 -51 -8 -83.5t13 -51.5t36 -26t62 -7q33 0 56.5 5.5t39 17.5t24.5 31t15 47h78q-15 -84 -61.5 -122t-128.5 -44l-15 -85h-72l15 86q-44 3 -74.5 16t-47 40t-19 70t8.5 106l9 54q11 63 29.5 105.5
t44.5 69.5t61 40t79 16l15 87h72l-15 -86q81 -6 113.5 -44t18.5 -121h-78q4 27 1.5 46t-13.5 31t-32.5 17.5t-54.5 5.5z" />
    <glyph glyph-name="sterling.smcp" horiz-adv-x="547" 
d="M203 404q-6 -32 -4.5 -60t5.5 -54h113l-10 -54h-97q2 -15 2 -31t-3 -31q-7 -38 -20.5 -64.5t-39.5 -43.5h155q50 0 71 17t29 62h78q-7 -40 -19.5 -67.5t-33 -45t-49.5 -25t-69 -7.5h-291l11 66q54 0 80 25t35 77q3 15 1 33t-4 35h-82l10 54h61q-6 26 -9 55.5t3 64.5
q14 79 67.5 117t139.5 38q97 0 131.5 -40t20.5 -120h-78q9 51 -10.5 72.5t-75.5 21.5q-53 0 -81.5 -22.5t-36.5 -72.5z" />
    <glyph glyph-name="Euro.smcp" horiz-adv-x="565" 
d="M202 305l-10 -56h170l-17 -50h-161l-3 -16q-7 -37 -5 -61.5t14.5 -39.5t36 -21t59.5 -6q33 0 57 5t40.5 17t26.5 32t15 50h78q-8 -47 -25 -79t-44.5 -52.5t-66.5 -29.5t-92 -9q-55 0 -92.5 11t-58 34.5t-25.5 61t4 90.5l3 13h-61l8 50h61l10 56h-61l9 50h61l2 13
q9 53 27 90.5t46.5 61.5t69.5 35t98 11q106 0 145.5 -38t23.5 -129h-78q11 59 -13.5 80t-88.5 21q-36 0 -62 -6.5t-43.5 -21.5t-28.5 -39.5t-17 -61.5l-3 -16h188l-17 -50h-180z" />
    <glyph glyph-name="yen.smcp" horiz-adv-x="504" 
d="M195 126l8 46h-136l9 50h136l-115 333h85l79 -268h2l173 268h85l-231 -333h136l-9 -50h-136l-8 -46h136l-9 -50h-136l-13 -76h-78l13 76h-136l9 50h136z" />
    <glyph glyph-name="numbersign.smcp" horiz-adv-x="549" 
d="M458 139h-89l-36 -139h-66l36 139h-114l-36 -139h-66l36 139h-89l15 56h89l44 166h-89l15 56h89l36 138h66l-36 -138h114l36 138h66l-36 -138h89l-15 -56h-89l-44 -166h89zM204 195h114l44 166h-114z" />
    <glyph glyph-name="percent.smcp" horiz-adv-x="598" 
d="M107 0h-74l475 555h74zM321 440q-13 -71 -46 -98.5t-93 -27.5t-84 27.5t-11 98.5q12 70 45.5 97.5t93.5 27.5t83.5 -27.5t11.5 -97.5zM147 442q-8 -47 2.5 -62t41.5 -15q30 0 46 15t24 60q7 44 -3.5 59t-40.5 15t-46 -15t-24 -57zM528 115q-13 -71 -46.5 -98t-92.5 -27
q-60 0 -84.5 27t-11.5 98q12 71 46 98.5t94 27.5t83.5 -27.5t11.5 -98.5zM354 118q-8 -47 2 -62.5t42 -15.5q30 0 46 15t24 60q7 44 -3.5 59.5t-40.5 15.5t-46 -15t-24 -57z" />
    <glyph glyph-name="one.tnum_smcp" horiz-adv-x="520" 
d="M203 66l75 423h-102l7 40l114 26h70l-86 -489h77l-11 -66h-232l11 66h77z" />
    <glyph glyph-name="two.tnum_smcp" horiz-adv-x="520" 
d="M29 47q10 56 39.5 93.5t69 64t83.5 46.5t82.5 40.5t66 45.5t34.5 63q4 24 2.5 42.5t-12 31.5t-32 19.5t-57.5 6.5q-67 0 -97 -25t-39 -78h-78q14 83 69 126t156 43q54 0 89 -11.5t54.5 -32.5t24.5 -51.5t-2 -69.5q-9 -49 -37.5 -82.5t-67 -57.5t-82 -43t-82 -40
t-66.5 -47t-36 -65h319l-11 -66h-398z" />
    <glyph glyph-name="three.tnum_smcp" horiz-adv-x="520" 
d="M84 397q15 89 72.5 129t152.5 40q103 0 143 -40t25 -125q-8 -45 -36 -74.5t-70 -42.5q49 -13 70.5 -44t11.5 -86q-15 -83 -71.5 -124t-167.5 -41q-109 0 -148.5 40t-24.5 129h78q-10 -56 12 -79.5t94 -23.5q36 0 62.5 5.5t44 17.5t28 31.5t15.5 47.5q8 43 -9.5 68
t-70.5 25h-76l11 64h76q42 0 64 25.5t28 59.5q9 54 -12.5 77.5t-87.5 23.5q-62 0 -94 -23t-42 -80h-78z" />
    <glyph glyph-name="four.tnum_smcp" horiz-adv-x="520" 
d="M313 120h-292l10 59l345 376h91l-65 -369h69l-11 -66h-69l-21 -120h-78zM324 186l51 288l-265 -288h214z" />
    <glyph glyph-name="five.tnum_smcp" horiz-adv-x="520" 
d="M73 255l81 300h335l-11 -66h-267l-47 -175q35 20 72 31.5t74 11.5q89 0 126 -41t20 -139q-8 -47 -25.5 -82t-46 -58.5t-70 -35.5t-98.5 -12q-59 0 -95.5 12.5t-56 35.5t-24 54.5t2.5 70.5h78q-9 -52 14 -79.5t92 -27.5q38 0 64 7t43.5 22t27.5 38t16 55q12 70 -11 96.5
t-82 26.5q-38 0 -73 -13t-64 -32h-75z" />
    <glyph glyph-name="six.tnum_smcp" horiz-adv-x="520" 
d="M147 301q35 18 75.5 29t76.5 11q101 0 135 -41t18 -131q-16 -92 -72.5 -136t-160.5 -44q-53 0 -90 10t-58 33.5t-26.5 62.5t4.5 97l30 167q10 57 29 96t48 64t69 36t91 11q94 0 135 -35.5t27 -122.5h-78q9 50 -12 71t-84 21q-34 0 -58.5 -7t-42 -23t-28.5 -43.5
t-18 -67.5zM275 285q-35 0 -70 -10.5t-68 -27.5l-11 -61q-7 -40 -4 -65.5t16.5 -40t36.5 -20t55 -5.5q66 0 99.5 27.5t44.5 87.5q6 33 4.5 55t-13 35.5t-33.5 19t-57 5.5z" />
    <glyph glyph-name="seven.tnum_smcp" horiz-adv-x="520" 
d="M122 0l290 489h-293l11 66h374l-10 -57l-289 -498h-83z" />
    <glyph glyph-name="eight.tnum_smcp" horiz-adv-x="520" 
d="M218 -11q-115 0 -158.5 38t-29.5 118q9 52 44.5 87.5t96.5 50.5q-51 13 -67 49.5t-8 85.5q14 80 73.5 114t149.5 34q45 0 79.5 -8t57 -26t31.5 -46t2 -68q-8 -49 -38 -85.5t-84 -49.5q57 -15 79.5 -50.5t13.5 -87.5q-14 -80 -71 -118t-171 -38zM298 313q45 0 73.5 24
t36.5 68q10 55 -16 75t-84 20q-60 0 -92.5 -19.5t-42.5 -75.5q-8 -44 13 -68t66 -24h46zM241 253q-32 0 -54.5 -8t-38.5 -21.5t-25 -31.5t-12 -37q-10 -53 16.5 -76.5t101.5 -23.5t109.5 23.5t44.5 76.5q3 19 0.5 37t-14 31.5t-32 21.5t-51.5 8h-45z" />
    <glyph glyph-name="nine.tnum_smcp" horiz-adv-x="520" 
d="M389 254q-35 -18 -75.5 -29t-76.5 -11q-101 0 -135.5 41t-17.5 131q16 92 72.5 136t160.5 44q53 0 90 -10t58 -33.5t26.5 -62.5t-4.5 -97l-30 -167q-10 -57 -29 -96t-48 -64t-69 -36t-91 -11q-95 0 -136 35.5t-27 122.5h78q-8 -50 13 -71t84 -21q34 0 58.5 7t42 23
t28.5 43t18 68zM261 270q35 0 70 10.5t68 27.5l11 61q7 40 3.5 65.5t-16.5 40t-36 20t-55 5.5q-66 0 -100 -27.5t-45 -87.5q-6 -33 -4 -55t13.5 -35.5t33.5 -19t57 -5.5z" />
    <glyph glyph-name="zero.tnum_smcp" horiz-adv-x="520" 
d="M457 198q-20 -113 -78.5 -161t-161.5 -48t-145 48t-22 161l28 159q20 113 79.5 161t160.5 48q102 0 144.5 -48t22.5 -161zM407 357q14 81 -9 112t-91 31q-33 0 -58.5 -7t-43.5 -24t-30 -44.5t-19 -67.5l-28 -159q-14 -81 9.5 -112t90.5 -31t102 31t49 112z" />
    <glyph glyph-name="dollar.tnum_smcp" horiz-adv-x="520" 
d="M450 166q-5 -27 -15 -52.5t-31 -45.5t-56 -33.5t-89 -16.5l-15 -86h-72l15 86q-48 3 -77.5 15t-45.5 32t-19 47.5t3 60.5h78q-8 -48 13.5 -69t91.5 -21q40 0 66 6t41.5 16.5t23 26t10.5 34.5q3 20 0 34.5t-16 24.5t-37.5 16t-63.5 9q-99 9 -135 42t-24 100
q12 69 60 103.5t122 40.5l15 86h72l-15 -86q78 -6 108.5 -43t17.5 -112h-78q4 22 1.5 39t-13 28.5t-31.5 17.5t-54 6q-56 0 -88 -18.5t-40 -62.5q-7 -42 16.5 -60t88.5 -23q58 -5 94 -15t55.5 -26.5t24 -41.5t-1.5 -59z" />
    <glyph glyph-name="cent.tnum_smcp" horiz-adv-x="520" 
d="M311 472q-38 0 -64.5 -7t-45.5 -26t-31.5 -51t-21.5 -83l-9 -54q-9 -51 -8 -83.5t13 -51.5t36 -26t62 -7q33 0 56.5 5.5t39 17.5t24.5 31t15 47h78q-15 -84 -61.5 -122t-128.5 -44l-15 -85h-72l15 86q-44 3 -74.5 16t-47 40t-19 70t8.5 106l9 54q11 63 29.5 105.5
t44.5 69.5t61 40t79 16l15 87h72l-15 -86q81 -6 113.5 -44t18.5 -121h-78q4 27 1.5 46t-13.5 31t-32.5 17.5t-54.5 5.5z" />
    <glyph glyph-name="sterling.tnum_smcp" horiz-adv-x="520" 
d="M184 404q-6 -32 -4.5 -60t5.5 -54h113l-10 -54h-97q2 -15 2 -31t-3 -31q-7 -38 -20.5 -64.5t-39.5 -43.5h155q50 0 71 17t29 62h78q-7 -40 -19.5 -67.5t-33 -45t-49.5 -25t-69 -7.5h-291l11 66q54 0 80 25t35 77q3 15 1 33t-4 35h-82l10 54h61q-6 26 -9 55.5t3 64.5
q14 79 67.5 117t139.5 38q97 0 131.5 -40t20.5 -120h-78q9 51 -10.5 72.5t-75.5 21.5q-53 0 -81.5 -22.5t-36.5 -72.5z" />
    <glyph glyph-name="Euro.tnum_smcp" horiz-adv-x="520" 
d="M179 305l-10 -56h170l-17 -50h-161l-3 -16q-7 -37 -5 -61.5t14.5 -39.5t36 -21t59.5 -6q33 0 57 5t40.5 17t26.5 32t15 50h78q-8 -47 -25 -79t-44.5 -52.5t-66.5 -29.5t-92 -9q-55 0 -92.5 11t-58 34.5t-25.5 61t4 90.5l3 13h-61l8 50h61l10 56h-61l9 50h61l2 13
q9 53 27 90.5t46.5 61.5t69.5 35t98 11q106 0 145.5 -38t23.5 -129h-78q11 59 -13.5 80t-88.5 21q-36 0 -62 -6.5t-43.5 -21.5t-28.5 -39.5t-17 -61.5l-3 -16h188l-17 -50h-180z" />
    <glyph glyph-name="yen.tnum_smcp" horiz-adv-x="520" 
d="M203 126l8 46h-136l9 50h136l-115 333h85l79 -268h2l173 268h85l-231 -333h136l-9 -50h-136l-8 -46h136l-9 -50h-136l-13 -76h-78l13 76h-136l9 50h136z" />
    <glyph glyph-name="numbersign.tnum_smcp" horiz-adv-x="520" 
d="M443 139h-89l-36 -139h-66l36 139h-114l-36 -139h-66l36 139h-89l15 56h89l44 166h-89l15 56h89l36 138h66l-36 -138h114l36 138h66l-36 -138h89l-15 -56h-89l-44 -166h89zM189 195h114l44 166h-114z" />
    <glyph glyph-name="percent.tnum_smcp" horiz-adv-x="520" 
d="M68 0h-74l475 555h74zM282 440q-13 -71 -46 -98.5t-93 -27.5t-84 27.5t-11 98.5q12 70 45.5 97.5t93.5 27.5t83.5 -27.5t11.5 -97.5zM108 442q-8 -47 2.5 -62t41.5 -15q30 0 46 15t24 60q7 44 -3.5 59t-40.5 15t-46 -15t-24 -57zM489 115q-13 -71 -46.5 -98t-92.5 -27
q-60 0 -84.5 27t-11.5 98q12 71 46 98.5t94 27.5t83.5 -27.5t11.5 -98.5zM315 118q-8 -47 2 -62.5t42 -15.5q30 0 46 15t24 60q7 44 -3.5 59.5t-40.5 15.5t-46 -15t-24 -57z" />
    <glyph glyph-name="acute.smcp" horiz-adv-x="243" 
d="M177 720h92l-98 -120h-46z" />
    <glyph glyph-name="grave.smcp" horiz-adv-x="243" 
d="M248 600h-42l-60 120h88z" />
    <glyph glyph-name="circumflex.smcp" horiz-adv-x="336" 
d="M341 600h-51l-43 69l-67 -69h-55l86 120h86z" />
    <glyph glyph-name="dieresis.smcp" horiz-adv-x="356" 
d="M143 700h82l-15 -82h-82zM297 700h82l-15 -82h-82z" />
    <glyph glyph-name="tilde.smcp" horiz-adv-x="404" 
d="M329 596q-22 0 -36 8t-25 18t-21.5 18t-26.5 8q-22 0 -31 -12t-13 -30h-50q9 50 31.5 76t66.5 26q22 0 36 -8t24.5 -18t21.5 -18t27 -8q22 0 31 12t13 30h50q-9 -50 -31.5 -76t-66.5 -26z" />
    <glyph glyph-name="caron.smcp" horiz-adv-x="336" 
d="M145 720h51l43 -69l67 69h55l-86 -120h-86z" />
    <glyph glyph-name="ring.smcp" horiz-adv-x="317" 
d="M336 679q-8 -42 -37 -63.5t-76 -21.5q-48 0 -70 21.5t-14 63.5t37 63.5t77 21.5q47 0 69 -21.5t14 -63.5zM283 679q8 40 -38 40q-25 0 -37 -10t-16 -30q-3 -20 5.5 -30t33.5 -10q46 0 52 40z" />
    <glyph glyph-name="breve.smcp" horiz-adv-x="359" 
d="M254 648q65 0 77 72h54q-11 -61 -46 -93.5t-95 -32.5t-84.5 32.5t-13.5 93.5h55q-12 -72 53 -72z" />
    <glyph glyph-name="macron.smcp" horiz-adv-x="370" 
d="M149 680h230l-10 -60h-230z" />
    <glyph glyph-name="dotaccent.smcp" horiz-adv-x="202" 
d="M143 700h82l-15 -82h-82z" />
    <glyph glyph-name="hungarumlaut.smcp" horiz-adv-x="360" 
d="M163 710h83l-75 -120h-47zM301 710h84l-94 -120h-51z" />
    <glyph glyph-name="aacute.smcp" horiz-adv-x="484" 
d="M328 130h-207l-61 -130h-80l272 555h95l77 -555h-80zM151 198h170l-33 285h-2zM339 720h92l-98 -120h-46z" />
    <glyph glyph-name="agrave.smcp" horiz-adv-x="484" 
d="M328 130h-207l-61 -130h-80l272 555h95l77 -555h-80zM151 198h170l-33 285h-2zM368 600h-42l-60 120h88z" />
    <glyph glyph-name="acircumflex.smcp" horiz-adv-x="484" 
d="M328 130h-207l-61 -130h-80l272 555h95l77 -555h-80zM151 198h170l-33 285h-2zM415 600h-51l-43 69l-67 -69h-55l86 120h86z" />
    <glyph glyph-name="adieresis.smcp" horiz-adv-x="484" 
d="M328 130h-207l-61 -130h-80l272 555h95l77 -555h-80zM151 198h170l-33 285h-2zM207 700h82l-15 -82h-82zM361 700h82l-15 -82h-82z" />
    <glyph glyph-name="atilde.smcp" horiz-adv-x="484" 
d="M328 130h-207l-61 -130h-80l272 555h95l77 -555h-80zM151 198h170l-33 285h-2zM369 596q-22 0 -36 8t-25 18t-21.5 18t-26.5 8q-22 0 -31 -12t-13 -30h-50q9 50 31.5 76t66.5 26q22 0 36 -8t24.5 -18t21.5 -18t27 -8q22 0 31 12t13 30h50q-9 -50 -31.5 -76t-66.5 -26z
" />
    <glyph glyph-name="aring.smcp" horiz-adv-x="484" 
d="M328 130h-207l-61 -130h-80l272 555h95l77 -555h-80zM151 198h170l-33 285h-2zM419 679q-8 -42 -37 -63.5t-76 -21.5q-48 0 -70 21.5t-14 63.5t37 63.5t77 21.5q47 0 69 -21.5t14 -63.5zM366 679q8 40 -38 40q-25 0 -37 -10t-16 -30q-3 -20 5.5 -30t33.5 -10q46 0 52 40z
" />
    <glyph glyph-name="amacron.smcp" horiz-adv-x="484" 
d="M328 130h-207l-61 -130h-80l272 555h95l77 -555h-80zM151 198h170l-33 285h-2zM206 680h230l-10 -60h-230z" />
    <glyph glyph-name="abreve.smcp" horiz-adv-x="484" 
d="M328 130h-207l-61 -130h-80l272 555h95l77 -555h-80zM151 198h170l-33 285h-2zM316 648q65 0 77 72h54q-11 -61 -46 -93.5t-95 -32.5t-84.5 32.5t-13.5 93.5h55q-12 -72 53 -72z" />
    <glyph glyph-name="aogonek.smcp" horiz-adv-x="484" 
d="M424 0q-35 -20 -54 -41.5t-22 -41.5q-4 -19 5.5 -26t27.5 -7h20l-9 -54h-47q-75 0 -63 71q9 49 65 88l-19 141h-207l-61 -130h-80l272 555h95zM151 198h170l-33 285h-2z" />
    <glyph glyph-name="ae.smcp" horiz-adv-x="780" 
d="M700 248h-232l-32 -182h265l-11 -66h-343l22 130h-211l-98 -130h-85l431 555h381l-11 -66h-265l-31 -177h232zM208 198h173l52 291h-2z" />
    <glyph glyph-name="bdotaccent.smcp" horiz-adv-x="511" 
d="M117 555h200q100 0 135 -36t22 -108q-8 -49 -38.5 -82t-75.5 -47q56 -16 76 -48.5t11 -85.5q-14 -81 -65.5 -114.5t-151.5 -33.5h-210zM141 248l-32 -182h131q33 0 56 5t38 16t23.5 28t12.5 41q8 47 -12.5 69.5t-80.5 22.5h-136zM153 312h133q53 0 77.5 25t32.5 66
q8 48 -12 67t-81 19h-119zM297 700h82l-15 -82h-82z" />
    <glyph glyph-name="cacute.smcp" horiz-adv-x="502" 
d="M224 56q66 0 96.5 23.5t41.5 79.5h78q-15 -85 -68 -127t-159 -42q-53 0 -90 10t-58 34t-26 63t5 96l30 170q19 108 75.5 155t164.5 47q106 0 144 -41.5t23 -127.5h-78q11 57 -12 80t-89 23q-38 0 -64 -7.5t-43 -24t-27 -42t-16 -61.5l-31 -172q-6 -37 -5 -62.5t12 -42
t34.5 -24t61.5 -7.5zM356 720h92l-98 -120h-46z" />
    <glyph glyph-name="ccircumflex.smcp" horiz-adv-x="502" 
d="M224 56q66 0 96.5 23.5t41.5 79.5h78q-15 -85 -68 -127t-159 -42q-53 0 -90 10t-58 34t-26 63t5 96l30 170q19 108 75.5 155t164.5 47q106 0 144 -41.5t23 -127.5h-78q11 57 -12 80t-89 23q-38 0 -64 -7.5t-43 -24t-27 -42t-16 -61.5l-31 -172q-6 -37 -5 -62.5t12 -42
t34.5 -24t61.5 -7.5zM424 600h-51l-43 69l-67 -69h-55l86 120h86z" />
    <glyph glyph-name="ccaron.smcp" horiz-adv-x="502" 
d="M224 56q66 0 96.5 23.5t41.5 79.5h78q-15 -85 -68 -127t-159 -42q-53 0 -90 10t-58 34t-26 63t5 96l30 170q19 108 75.5 155t164.5 47q106 0 144 -41.5t23 -127.5h-78q11 57 -12 80t-89 23q-38 0 -64 -7.5t-43 -24t-27 -42t-16 -61.5l-31 -172q-6 -37 -5 -62.5t12 -42
t34.5 -24t61.5 -7.5zM228 720h51l43 -69l67 69h55l-86 -120h-86z" />
    <glyph glyph-name="ccedilla.smcp" horiz-adv-x="502" 
d="M224 56q66 0 96.5 23.5t41.5 79.5h78q-15 -81 -63.5 -122.5t-143.5 -45.5l-17 -37q33 -2 48 -18t9 -51q-7 -41 -34.5 -59t-79.5 -18h-66l8 48h64q25 0 34.5 7.5t11.5 21.5q3 15 -4 22t-32 7h-27l38 77q-91 5 -126.5 50t-15.5 152l30 170q19 108 75.5 155t164.5 47
q106 0 144 -41.5t23 -127.5h-78q11 57 -12 80t-89 23q-38 0 -64 -7.5t-43 -24t-27 -42t-16 -61.5l-31 -172q-6 -37 -5 -62.5t12 -42t34.5 -24t61.5 -7.5z" />
    <glyph glyph-name="cdotaccent.smcp" horiz-adv-x="502" 
d="M224 56q66 0 96.5 23.5t41.5 79.5h78q-15 -85 -68 -127t-159 -42q-53 0 -90 10t-58 34t-26 63t5 96l30 170q19 108 75.5 155t164.5 47q106 0 144 -41.5t23 -127.5h-78q11 57 -12 80t-89 23q-38 0 -64 -7.5t-43 -24t-27 -42t-16 -61.5l-31 -172q-6 -37 -5 -62.5t12 -42
t34.5 -24t61.5 -7.5zM302 700h82l-15 -82h-82z" />
    <glyph glyph-name="dcaron.smcp" horiz-adv-x="515" 
d="M20 0l97 555h189q53 0 92 -9t62.5 -31t30.5 -60.5t-3 -96.5l-28 -159q-11 -59 -31.5 -97t-51.5 -61t-73 -32t-95 -9h-189zM215 66q38 0 66 5.5t48 20.5t32.5 40.5t19.5 65.5l28 159q7 40 3.5 65.5t-18 40.5t-40.5 20.5t-64 5.5h-106l-75 -423h106zM224 720h51l43 -69
l67 69h55l-86 -120h-86z" />
    <glyph glyph-name="ddotaccent.smcp" horiz-adv-x="515" 
d="M20 0l97 555h189q53 0 92 -9t62.5 -31t30.5 -60.5t-3 -96.5l-28 -159q-11 -59 -31.5 -97t-51.5 -61t-73 -32t-95 -9h-189zM215 66q38 0 66 5.5t48 20.5t32.5 40.5t19.5 65.5l28 159q7 40 3.5 65.5t-18 40.5t-40.5 20.5t-64 5.5h-106l-75 -423h106zM299 700h82l-15 -82
h-82z" />
    <glyph glyph-name="dcroat.smcp" horiz-adv-x="515" 
d="M24 308h50l43 247h189q53 0 92 -9t62.5 -31t30.5 -60.5t-3 -96.5l-28 -159q-11 -59 -31.5 -97t-51.5 -61t-73 -32t-95 -9h-189l43 248h-50zM215 66q38 0 66 5.5t48 20.5t32.5 40.5t19.5 65.5l28 159q7 40 3.5 65.5t-18 40.5t-40.5 20.5t-64 5.5h-106l-32 -181h102
l-11 -60h-102l-32 -182h106z" />
    <glyph glyph-name="eth.smcp" horiz-adv-x="515" 
d="M24 308h50l43 247h189q53 0 92 -9t62.5 -31t30.5 -60.5t-3 -96.5l-28 -159q-11 -59 -31.5 -97t-51.5 -61t-73 -32t-95 -9h-189l43 248h-50zM215 66q38 0 66 5.5t48 20.5t32.5 40.5t19.5 65.5l28 159q7 40 3.5 65.5t-18 40.5t-40.5 20.5t-64 5.5h-106l-32 -181h102
l-11 -60h-102l-32 -182h106z" />
    <glyph glyph-name="eacute.smcp" horiz-adv-x="453" 
d="M373 248h-232l-32 -182h265l-11 -66h-343l97 555h343l-11 -66h-265l-31 -177h232zM338 720h92l-98 -120h-46z" />
    <glyph glyph-name="egrave.smcp" horiz-adv-x="453" 
d="M373 248h-232l-32 -182h265l-11 -66h-343l97 555h343l-11 -66h-265l-31 -177h232zM353 600h-42l-60 120h88z" />
    <glyph glyph-name="ecircumflex.smcp" horiz-adv-x="453" 
d="M373 248h-232l-32 -182h265l-11 -66h-343l97 555h343l-11 -66h-265l-31 -177h232zM409 600h-51l-43 69l-67 -69h-55l86 120h86z" />
    <glyph glyph-name="edieresis.smcp" horiz-adv-x="453" 
d="M373 248h-232l-32 -182h265l-11 -66h-343l97 555h343l-11 -66h-265l-31 -177h232zM196 700h82l-15 -82h-82zM350 700h82l-15 -82h-82z" />
    <glyph glyph-name="ecaron.smcp" horiz-adv-x="453" 
d="M373 248h-232l-32 -182h265l-11 -66h-343l97 555h343l-11 -66h-265l-31 -177h232zM208 720h51l43 -69l67 69h55l-86 -120h-86z" />
    <glyph glyph-name="emacron.smcp" horiz-adv-x="453" 
d="M373 248h-232l-32 -182h265l-11 -66h-343l97 555h343l-11 -66h-265l-31 -177h232zM199 680h230l-10 -60h-230z" />
    <glyph glyph-name="ebreve.smcp" horiz-adv-x="453" 
d="M373 248h-232l-32 -182h265l-11 -66h-343l97 555h343l-11 -66h-265l-31 -177h232zM311 648q65 0 77 72h54q-11 -61 -46 -93.5t-95 -32.5t-84.5 32.5t-13.5 93.5h55q-12 -72 53 -72z" />
    <glyph glyph-name="eogonek.smcp" horiz-adv-x="453" 
d="M20 0l97 555h343l-11 -66h-265l-31 -177h232l-12 -64h-232l-32 -182h265l-11 -66q-35 -20 -54 -41.5t-22 -41.5q-4 -19 5.5 -26t27.5 -7h20l-9 -54h-47q-75 0 -63 71q5 28 26.5 53.5t56.5 45.5h-284z" />
    <glyph glyph-name="edotaccent.smcp" horiz-adv-x="453" 
d="M373 248h-232l-32 -182h265l-11 -66h-343l97 555h343l-11 -66h-265l-31 -177h232zM278 700h82l-15 -82h-82z" />
    <glyph glyph-name="fdotaccent.smcp" horiz-adv-x="425" 
d="M355 248h-214l-43 -248h-78l97 555h325l-11 -66h-247l-31 -177h214zM264 700h82l-15 -82h-82z" />
    <glyph glyph-name="gcircumflex.smcp" horiz-adv-x="514" 
d="M214 -11q-53 0 -90 10t-58.5 34t-27 63t5.5 97l30 172q9 54 27 92t47 62t69.5 35.5t95.5 11.5q106 0 143.5 -42t22.5 -128h-78q10 55 -12 79.5t-87 24.5q-36 0 -62 -7.5t-43 -23.5t-28 -42t-17 -62l-31 -173q-6 -36 -5 -62t12 -42.5t34.5 -24.5t62.5 -8q37 0 62.5 7.5
t42 21t25.5 31t12 37.5l17 92h-117l11 66h195l-54 -310h-38l-7 50q-26 -26 -62 -43.5t-98 -17.5zM430 600h-51l-43 69l-67 -69h-55l86 120h86z" />
    <glyph glyph-name="gbreve.smcp" horiz-adv-x="514" 
d="M214 -11q-53 0 -90 10t-58.5 34t-27 63t5.5 97l30 172q9 54 27 92t47 62t69.5 35.5t95.5 11.5q106 0 143.5 -42t22.5 -128h-78q10 55 -12 79.5t-87 24.5q-36 0 -62 -7.5t-43 -23.5t-28 -42t-17 -62l-31 -173q-6 -36 -5 -62t12 -42.5t34.5 -24.5t62.5 -8q37 0 62.5 7.5
t42 21t25.5 31t12 37.5l17 92h-117l11 66h195l-54 -310h-38l-7 50q-26 -26 -62 -43.5t-98 -17.5zM331 648q65 0 77 72h54q-11 -61 -46 -93.5t-95 -32.5t-84.5 32.5t-13.5 93.5h55q-12 -72 53 -72z" />
    <glyph glyph-name="gdotaccent.smcp" horiz-adv-x="514" 
d="M214 -11q-53 0 -90 10t-58.5 34t-27 63t5.5 97l30 172q9 54 27 92t47 62t69.5 35.5t95.5 11.5q106 0 143.5 -42t22.5 -128h-78q10 55 -12 79.5t-87 24.5q-36 0 -62 -7.5t-43 -23.5t-28 -42t-17 -62l-31 -173q-6 -36 -5 -62t12 -42.5t34.5 -24.5t62.5 -8q37 0 62.5 7.5
t42 21t25.5 31t12 37.5l17 92h-117l11 66h195l-54 -310h-38l-7 50q-26 -26 -62 -43.5t-98 -17.5zM299 700h82l-15 -82h-82z" />
    <glyph glyph-name="gcommaaccent.smcp" horiz-adv-x="514" 
d="M214 -11q-53 0 -90 10t-58.5 34t-27 63t5.5 97l30 172q9 54 27 92t47 62t69.5 35.5t95.5 11.5q106 0 143.5 -42t22.5 -128h-78q10 55 -12 79.5t-87 24.5q-36 0 -62 -7.5t-43 -23.5t-28 -42t-17 -62l-31 -173q-6 -36 -5 -62t12 -42.5t34.5 -24.5t62.5 -8q37 0 62.5 7.5
t42 21t25.5 31t12 37.5l17 92h-117l11 66h195l-54 -310h-38l-7 50q-26 -26 -62 -43.5t-98 -17.5zM171 -40h90l-100 -120h-44z" />
    <glyph glyph-name="hcircumflex.smcp" horiz-adv-x="514" 
d="M414 0h-78l43 247h-238l-43 -247h-78l97 555h78l-42 -242h238l42 242h78zM430 600h-51l-43 69l-67 -69h-55l86 120h86z" />
    <glyph glyph-name="hbar.smcp" horiz-adv-x="514" 
d="M61 463h40l16 92h78l-16 -92h238l16 92h78l-16 -92h40l-10 -60h-40l-71 -403h-78l43 247h-238l-43 -247h-78l71 403h-40zM391 313l16 90h-238l-16 -90h238z" />
    <glyph glyph-name="iacute.smcp" horiz-adv-x="198" 
d="M117 555h78l-97 -555h-78zM197 720h92l-98 -120h-46z" />
    <glyph glyph-name="igrave.smcp" horiz-adv-x="198" 
d="M117 555h78l-97 -555h-78zM195 600h-42l-60 120h88z" />
    <glyph glyph-name="icircumflex.smcp" horiz-adv-x="198" 
d="M117 555h78l-97 -555h-78zM273 600h-51l-43 69l-67 -69h-55l86 120h86z" />
    <glyph glyph-name="idieresis.smcp" horiz-adv-x="198" 
d="M117 555h78l-97 -555h-78zM65 700h82l-15 -82h-82zM219 700h82l-15 -82h-82z" />
    <glyph glyph-name="itilde.smcp" horiz-adv-x="198" 
d="M117 555h78l-97 -555h-78zM227 596q-22 0 -36 8t-25 18t-21.5 18t-26.5 8q-22 0 -31 -12t-13 -30h-50q9 50 31.5 76t66.5 26q22 0 36 -8t24.5 -18t21.5 -18t27 -8q22 0 31 12t13 30h50q-9 -50 -31.5 -76t-66.5 -26z" />
    <glyph glyph-name="imacron.smcp" horiz-adv-x="198" 
d="M117 555h78l-97 -555h-78zM64 680h230l-10 -60h-230z" />
    <glyph glyph-name="ibreve.smcp" horiz-adv-x="198" 
d="M117 555h78l-97 -555h-78zM175 648q65 0 77 72h54q-11 -61 -46 -93.5t-95 -32.5t-84.5 32.5t-13.5 93.5h55q-12 -72 53 -72z" />
    <glyph glyph-name="iogonek.smcp" horiz-adv-x="198" 
d="M-43 -99q8 48 60 85l100 569h78l-97 -555q-35 -20 -54 -41.5t-22 -41.5q-4 -19 5.5 -26t27.5 -7h20l-9 -54h-47q-74 0 -62 71z" />
    <glyph glyph-name="jcircumflex.smcp" horiz-adv-x="332" 
d="M130 489l11 66h188l-77 -437q-11 -66 -48 -97t-109 -31q-26 0 -50.5 2.5t-44.5 7.5l11 66q23 -5 42 -7.5t41 -2.5q37 0 55.5 14t26.5 55l64 364h-110zM340 600h-51l-43 69l-67 -69h-55l86 120h86z" />
    <glyph glyph-name="kcommaaccent.smcp" horiz-adv-x="452" 
d="M98 0h-78l97 555h78l-41 -236l234 236h96l-274 -268l182 -287h-95l-155 252zM149 -40h90l-100 -120h-44z" />
    <glyph glyph-name="lacute.smcp" horiz-adv-x="384" 
d="M117 555h78l-86 -489h206l-11 -66h-284zM197 720h92l-98 -120h-46z" />
    <glyph glyph-name="lcaron.smcp" horiz-adv-x="384" 
d="M253 575h70l-70 -170h-30zM117 555h78l-86 -489h206l-11 -66h-284z" />
    <glyph glyph-name="lcommaaccent.smcp" horiz-adv-x="384" 
d="M117 555h78l-86 -489h206l-11 -66h-284zM115 -40h90l-100 -120h-44z" />
    <glyph glyph-name="ldot.smcp" horiz-adv-x="384" 
d="M117 555h78l-86 -489h206l-11 -66h-284zM230 339h98l-17 -97h-98z" />
    <glyph glyph-name="lslash.smcp" horiz-adv-x="384" 
d="M60 232l-57 -14l11 60l57 14l46 263h78l-42 -242l57 15l-10 -60l-58 -15l-33 -187h206l-11 -66h-284z" />
    <glyph glyph-name="mdotaccent.smcp" horiz-adv-x="658" 
d="M304 96h2l233 459h116l-97 -555h-76l82 470l-241 -470h-69l-76 470l-82 -470h-76l97 555h115zM371 700h82l-15 -82h-82z" />
    <glyph glyph-name="nacute.smcp" horiz-adv-x="525" 
d="M425 0h-100l-150 453l-79 -453h-76l97 555h100l149 -453l80 453h76zM354 720h92l-98 -120h-46z" />
    <glyph glyph-name="ntilde.smcp" horiz-adv-x="525" 
d="M425 0h-100l-150 453l-79 -453h-76l97 555h100l149 -453l80 453h76zM389 596q-22 0 -36 8t-25 18t-21.5 18t-26.5 8q-22 0 -31 -12t-13 -30h-50q9 50 31.5 76t66.5 26q22 0 36 -8t24.5 -18t21.5 -18t27 -8q22 0 31 12t13 30h50q-9 -50 -31.5 -76t-66.5 -26z" />
    <glyph glyph-name="ncaron.smcp" horiz-adv-x="525" 
d="M425 0h-100l-150 453l-79 -453h-76l97 555h100l149 -453l80 453h76zM239 720h51l43 -69l67 69h55l-86 -120h-86z" />
    <glyph glyph-name="ncommaaccent.smcp" horiz-adv-x="525" 
d="M425 0h-100l-150 453l-79 -453h-76l97 555h100l149 -453l80 453h76zM186 -40h90l-100 -120h-44z" />
    <glyph glyph-name="eng.smcp" horiz-adv-x="525" 
d="M415 -52q-11 -66 -48 -97t-109 -31q-26 0 -50.5 2.5t-44.5 7.5l11 66q23 -5 42 -7.5t41 -2.5q37 0 55.5 14t26.5 55l8 45h-22l-150 453l-79 -453h-76l97 555h100l149 -453l80 453h76z" />
    <glyph glyph-name="oacute.smcp" horiz-adv-x="518" 
d="M413 359q7 42 5 69.5t-15 43.5t-37 22t-59 6t-61 -6t-44.5 -22t-31 -43.5t-19.5 -69.5l-29 -163q-8 -42 -5.5 -69.5t15.5 -43.5t37 -22t59 -6t61 6t44.5 22t30.5 43.5t20 69.5zM462 196q-10 -59 -30 -98.5t-50 -63.5t-71 -34.5t-94 -10.5t-90.5 10.5t-59.5 34.5
t-27.5 63.5t4.5 98.5l29 163q10 58 29.5 98t49.5 64t71.5 34.5t94.5 10.5t90.5 -10.5t59 -34.5t27.5 -64t-4 -98zM357 720h92l-98 -120h-46z" />
    <glyph glyph-name="ograve.smcp" horiz-adv-x="518" 
d="M413 359q7 42 5 69.5t-15 43.5t-37 22t-59 6t-61 -6t-44.5 -22t-31 -43.5t-19.5 -69.5l-29 -163q-8 -42 -5.5 -69.5t15.5 -43.5t37 -22t59 -6t61 6t44.5 22t30.5 43.5t20 69.5zM462 196q-10 -59 -30 -98.5t-50 -63.5t-71 -34.5t-94 -10.5t-90.5 10.5t-59.5 34.5
t-27.5 63.5t4.5 98.5l29 163q10 58 29.5 98t49.5 64t71.5 34.5t94.5 10.5t90.5 -10.5t59 -34.5t27.5 -64t-4 -98zM385 600h-42l-60 120h88z" />
    <glyph glyph-name="ocircumflex.smcp" horiz-adv-x="518" 
d="M413 359q7 42 5 69.5t-15 43.5t-37 22t-59 6t-61 -6t-44.5 -22t-31 -43.5t-19.5 -69.5l-29 -163q-8 -42 -5.5 -69.5t15.5 -43.5t37 -22t59 -6t61 6t44.5 22t30.5 43.5t20 69.5zM462 196q-10 -59 -30 -98.5t-50 -63.5t-71 -34.5t-94 -10.5t-90.5 10.5t-59.5 34.5
t-27.5 63.5t4.5 98.5l29 163q10 58 29.5 98t49.5 64t71.5 34.5t94.5 10.5t90.5 -10.5t59 -34.5t27.5 -64t-4 -98zM432 600h-51l-43 69l-67 -69h-55l86 120h86z" />
    <glyph glyph-name="odieresis.smcp" horiz-adv-x="518" 
d="M413 359q7 42 5 69.5t-15 43.5t-37 22t-59 6t-61 -6t-44.5 -22t-31 -43.5t-19.5 -69.5l-29 -163q-8 -42 -5.5 -69.5t15.5 -43.5t37 -22t59 -6t61 6t44.5 22t30.5 43.5t20 69.5zM462 196q-10 -59 -30 -98.5t-50 -63.5t-71 -34.5t-94 -10.5t-90.5 10.5t-59.5 34.5
t-27.5 63.5t4.5 98.5l29 163q10 58 29.5 98t49.5 64t71.5 34.5t94.5 10.5t90.5 -10.5t59 -34.5t27.5 -64t-4 -98zM224 700h82l-15 -82h-82zM378 700h82l-15 -82h-82z" />
    <glyph glyph-name="otilde.smcp" horiz-adv-x="518" 
d="M413 359q7 42 5 69.5t-15 43.5t-37 22t-59 6t-61 -6t-44.5 -22t-31 -43.5t-19.5 -69.5l-29 -163q-8 -42 -5.5 -69.5t15.5 -43.5t37 -22t59 -6t61 6t44.5 22t30.5 43.5t20 69.5zM462 196q-10 -59 -30 -98.5t-50 -63.5t-71 -34.5t-94 -10.5t-90.5 10.5t-59.5 34.5
t-27.5 63.5t4.5 98.5l29 163q10 58 29.5 98t49.5 64t71.5 34.5t94.5 10.5t90.5 -10.5t59 -34.5t27.5 -64t-4 -98zM386 596q-22 0 -36 8t-25 18t-21.5 18t-26.5 8q-22 0 -31 -12t-13 -30h-50q9 50 31.5 76t66.5 26q22 0 36 -8t24.5 -18t21.5 -18t27 -8q22 0 31 12t13 30h50
q-9 -50 -31.5 -76t-66.5 -26z" />
    <glyph glyph-name="obreve.smcp" horiz-adv-x="518" 
d="M413 359q7 42 5 69.5t-15 43.5t-37 22t-59 6t-61 -6t-44.5 -22t-31 -43.5t-19.5 -69.5l-29 -163q-8 -42 -5.5 -69.5t15.5 -43.5t37 -22t59 -6t61 6t44.5 22t30.5 43.5t20 69.5zM462 196q-10 -59 -30 -98.5t-50 -63.5t-71 -34.5t-94 -10.5t-90.5 10.5t-59.5 34.5
t-27.5 63.5t4.5 98.5l29 163q10 58 29.5 98t49.5 64t71.5 34.5t94.5 10.5t90.5 -10.5t59 -34.5t27.5 -64t-4 -98zM333 648q65 0 77 72h54q-11 -61 -46 -93.5t-95 -32.5t-84.5 32.5t-13.5 93.5h55q-12 -72 53 -72z" />
    <glyph glyph-name="omacron.smcp" horiz-adv-x="518" 
d="M413 359q7 42 5 69.5t-15 43.5t-37 22t-59 6t-61 -6t-44.5 -22t-31 -43.5t-19.5 -69.5l-29 -163q-8 -42 -5.5 -69.5t15.5 -43.5t37 -22t59 -6t61 6t44.5 22t30.5 43.5t20 69.5zM462 196q-10 -59 -30 -98.5t-50 -63.5t-71 -34.5t-94 -10.5t-90.5 10.5t-59.5 34.5
t-27.5 63.5t4.5 98.5l29 163q10 58 29.5 98t49.5 64t71.5 34.5t94.5 10.5t90.5 -10.5t59 -34.5t27.5 -64t-4 -98zM223 680h230l-10 -60h-230z" />
    <glyph glyph-name="ohungarumlaut.smcp" horiz-adv-x="518" 
d="M413 359q7 42 5 69.5t-15 43.5t-37 22t-59 6t-61 -6t-44.5 -22t-31 -43.5t-19.5 -69.5l-29 -163q-8 -42 -5.5 -69.5t15.5 -43.5t37 -22t59 -6t61 6t44.5 22t30.5 43.5t20 69.5zM462 196q-10 -59 -30 -98.5t-50 -63.5t-71 -34.5t-94 -10.5t-90.5 10.5t-59.5 34.5
t-27.5 63.5t4.5 98.5l29 163q10 58 29.5 98t49.5 64t71.5 34.5t94.5 10.5t90.5 -10.5t59 -34.5t27.5 -64t-4 -98zM282 710h83l-75 -120h-47zM420 710h84l-94 -120h-51z" />
    <glyph glyph-name="oslash.smcp" horiz-adv-x="518" 
d="M462 196q-10 -59 -30 -98.5t-50 -63.5t-71 -34.5t-94 -10.5q-89 0 -132 29l-31 -38h-66l63 76q-24 47 -7 140l29 163q10 58 29.5 98t49.5 64t71.5 34.5t94.5 10.5q87 0 131 -29l32 38h66l-64 -77q24 -49 8 -139zM413 359q6 36 6 61l-284 -341q14 -14 37 -19t56 -5
q35 0 61 6t44.5 22t30.5 43.5t20 69.5zM122 196q-3 -18 -5 -33t-1 -28l282 341q-13 14 -35.5 19t-55.5 5q-35 0 -61 -6t-44.5 -22t-31 -43.5t-19.5 -69.5z" />
    <glyph glyph-name="oe.smcp" horiz-adv-x="771" 
d="M691 248h-232l-32 -182h265l-11 -66h-462q-53 0 -91 8.5t-60 31t-28 60t4 96.5l29 163q10 58 29.5 96t49 60.5t70.5 31t94 8.5h462l-11 -66h-265l-31 -177h232zM424 489h-119q-35 0 -61 -4.5t-44 -18t-30 -39.5t-19 -68l-29 -163q-8 -42 -5 -68t16.5 -39.5t37.5 -18
t59 -4.5h119z" />
    <glyph glyph-name="thorn.smcp" horiz-adv-x="493" 
d="M127 169h112q68 0 101 23t44 86q5 31 2 52t-15.5 33.5t-35.5 17.5t-57 5h-112zM177 452h112q53 0 90 -8.5t58 -28.5t27.5 -53.5t-2.5 -83.5t-27 -83.5t-46.5 -54t-68 -29t-92.5 -8.5h-112l-18 -103h-78l97 555h78z" />
    <glyph glyph-name="pdotaccent.smcp" horiz-adv-x="493" 
d="M117 555h190q53 0 90 -8.5t58 -28.5t27.5 -53.5t-2.5 -83.5q-9 -47 -26.5 -80t-45.5 -54t-67.5 -30.5t-92.5 -9.5h-114l-36 -207h-78zM146 273h114q35 0 59.5 5.5t41 18.5t26.5 33.5t15 50.5q5 31 2 52t-15.5 33.5t-35.5 17.5t-57 5h-112zM288 700h82l-15 -82h-82z" />
    <glyph glyph-name="racute.smcp" horiz-adv-x="505" 
d="M134 207l-36 -207h-78l97 555h190q53 0 90 -8.5t58 -28.5t27.5 -53.5t-2.5 -83.5q-13 -69 -45.5 -109t-89.5 -55q20 -55 39.5 -109t40.5 -108h-84l-75 207h-132zM146 273h114q35 0 59.5 5.5t41 18.5t26.5 33.5t15 50.5q5 31 2 52t-15.5 33.5t-35.5 17.5t-57 5h-112z
M308 720h92l-98 -120h-46z" />
    <glyph glyph-name="rcaron.smcp" horiz-adv-x="505" 
d="M134 207l-36 -207h-78l97 555h190q53 0 90 -8.5t58 -28.5t27.5 -53.5t-2.5 -83.5q-13 -69 -45.5 -109t-89.5 -55q20 -55 39.5 -109t40.5 -108h-84l-75 207h-132zM146 273h114q35 0 59.5 5.5t41 18.5t26.5 33.5t15 50.5q5 31 2 52t-15.5 33.5t-35.5 17.5t-57 5h-112z
M229 720h51l43 -69l67 69h55l-86 -120h-86z" />
    <glyph glyph-name="rcommaaccent.smcp" horiz-adv-x="505" 
d="M134 207l-36 -207h-78l97 555h190q53 0 90 -8.5t58 -28.5t27.5 -53.5t-2.5 -83.5q-13 -69 -45.5 -109t-89.5 -55q20 -55 39.5 -109t40.5 -108h-84l-75 207h-132zM146 273h114q35 0 59.5 5.5t41 18.5t26.5 33.5t15 50.5q5 31 2 52t-15.5 33.5t-35.5 17.5t-57 5h-112z
M176 -40h90l-100 -120h-44z" />
    <glyph glyph-name="sacute.smcp" horiz-adv-x="487" 
d="M212 55q38 0 63.5 5.5t41.5 17t24.5 29t12.5 40.5q4 25 3.5 43t-12 30.5t-36.5 20.5t-68 14q-50 6 -83.5 18t-53 31t-25 46t0.5 63q14 74 68.5 113.5t149.5 39.5q101 0 140.5 -38t24.5 -125h-78q4 24 2 42t-12.5 30.5t-32 18.5t-55.5 6q-60 0 -90.5 -22t-38.5 -67
q-4 -23 -1.5 -39.5t14.5 -28.5t34.5 -19t58.5 -11q61 -7 97.5 -20.5t54 -34t20 -49t-3.5 -64.5q-7 -38 -23 -67t-44 -48.5t-68.5 -30t-95.5 -10.5q-104 0 -147.5 37t-27.5 127h78q-10 -56 15 -77t93 -21zM299 720h92l-98 -120h-46z" />
    <glyph glyph-name="scircumflex.smcp" horiz-adv-x="487" 
d="M212 55q38 0 63.5 5.5t41.5 17t24.5 29t12.5 40.5q4 25 3.5 43t-12 30.5t-36.5 20.5t-68 14q-50 6 -83.5 18t-53 31t-25 46t0.5 63q14 74 68.5 113.5t149.5 39.5q101 0 140.5 -38t24.5 -125h-78q4 24 2 42t-12.5 30.5t-32 18.5t-55.5 6q-60 0 -90.5 -22t-38.5 -67
q-4 -23 -1.5 -39.5t14.5 -28.5t34.5 -19t58.5 -11q61 -7 97.5 -20.5t54 -34t20 -49t-3.5 -64.5q-7 -38 -23 -67t-44 -48.5t-68.5 -30t-95.5 -10.5q-104 0 -147.5 37t-27.5 127h78q-10 -56 15 -77t93 -21zM416 600h-51l-43 69l-67 -69h-55l86 120h86z" />
    <glyph glyph-name="scaron.smcp" horiz-adv-x="487" 
d="M212 55q38 0 63.5 5.5t41.5 17t24.5 29t12.5 40.5q4 25 3.5 43t-12 30.5t-36.5 20.5t-68 14q-50 6 -83.5 18t-53 31t-25 46t0.5 63q14 74 68.5 113.5t149.5 39.5q101 0 140.5 -38t24.5 -125h-78q4 24 2 42t-12.5 30.5t-32 18.5t-55.5 6q-60 0 -90.5 -22t-38.5 -67
q-4 -23 -1.5 -39.5t14.5 -28.5t34.5 -19t58.5 -11q61 -7 97.5 -20.5t54 -34t20 -49t-3.5 -64.5q-7 -38 -23 -67t-44 -48.5t-68.5 -30t-95.5 -10.5q-104 0 -147.5 37t-27.5 127h78q-10 -56 15 -77t93 -21zM220 720h51l43 -69l67 69h55l-86 -120h-86z" />
    <glyph glyph-name="sdotaccent.smcp" horiz-adv-x="487" 
d="M212 55q38 0 63.5 5.5t41.5 17t24.5 29t12.5 40.5q4 25 3.5 43t-12 30.5t-36.5 20.5t-68 14q-50 6 -83.5 18t-53 31t-25 46t0.5 63q14 74 68.5 113.5t149.5 39.5q101 0 140.5 -38t24.5 -125h-78q4 24 2 42t-12.5 30.5t-32 18.5t-55.5 6q-60 0 -90.5 -22t-38.5 -67
q-4 -23 -1.5 -39.5t14.5 -28.5t34.5 -19t58.5 -11q61 -7 97.5 -20.5t54 -34t20 -49t-3.5 -64.5q-7 -38 -23 -67t-44 -48.5t-68.5 -30t-95.5 -10.5q-104 0 -147.5 37t-27.5 127h78q-10 -56 15 -77t93 -21zM285 700h82l-15 -82h-82z" />
    <glyph glyph-name="scedilla.smcp" horiz-adv-x="487" 
d="M212 55q38 0 63.5 5.5t41.5 17t24.5 29t12.5 40.5q4 25 3.5 43t-12 30.5t-36.5 20.5t-68 14q-50 6 -83.5 18t-53 31t-25 46t0.5 63q14 74 68.5 113.5t149.5 39.5q101 0 140.5 -38t24.5 -125h-78q4 24 2 42t-12.5 30.5t-32 18.5t-55.5 6q-60 0 -90.5 -22t-38.5 -67
q-4 -23 -1.5 -39.5t14.5 -28.5t34.5 -19t58.5 -11q61 -7 97.5 -20.5t54 -34t20 -49t-3.5 -64.5q-13 -71 -60.5 -110.5t-145.5 -44.5l-17 -36q33 -2 48 -18t9 -51q-7 -41 -34.5 -59t-79.5 -18h-66l8 48h64q25 0 34.5 7.5t11.5 21.5q3 15 -4 22t-32 7h-27l37 76
q-91 4 -129 40.5t-23 122.5h78q-10 -56 15 -77t93 -21z" />
    <glyph glyph-name="scommaaccent.smcp" horiz-adv-x="487" 
d="M212 55q38 0 63.5 5.5t41.5 17t24.5 29t12.5 40.5q4 25 3.5 43t-12 30.5t-36.5 20.5t-68 14q-50 6 -83.5 18t-53 31t-25 46t0.5 63q14 74 68.5 113.5t149.5 39.5q101 0 140.5 -38t24.5 -125h-78q4 24 2 42t-12.5 30.5t-32 18.5t-55.5 6q-60 0 -90.5 -22t-38.5 -67
q-4 -23 -1.5 -39.5t14.5 -28.5t34.5 -19t58.5 -11q61 -7 97.5 -20.5t54 -34t20 -49t-3.5 -64.5q-7 -38 -23 -67t-44 -48.5t-68.5 -30t-95.5 -10.5q-104 0 -147.5 37t-27.5 127h78q-10 -56 15 -77t93 -21zM147 -40h90l-100 -120h-44z" />
    <glyph glyph-name="germandbls.smcp" horiz-adv-x="974" 
d="M212 55q38 0 63.5 5.5t41.5 17t24.5 29t12.5 40.5q4 25 3.5 43t-12 30.5t-36.5 20.5t-68 14q-50 6 -83.5 18t-53 31t-25 46t0.5 63q14 74 68.5 113.5t149.5 39.5q101 0 140.5 -38t24.5 -125h-78q4 24 2 42t-12.5 30.5t-32 18.5t-55.5 6q-60 0 -90.5 -22t-38.5 -67
q-4 -23 -1.5 -39.5t14.5 -28.5t34.5 -19t58.5 -11q61 -7 97.5 -20.5t54 -34t20 -49t-3.5 -64.5q-7 -38 -23 -67t-44 -48.5t-68.5 -30t-95.5 -10.5q-104 0 -147.5 37t-27.5 127h78q-10 -56 15 -77t93 -21zM699 55q38 0 63.5 5.5t41.5 17t24.5 29t12.5 40.5q4 25 3.5 43
t-12 30.5t-36.5 20.5t-68 14q-50 6 -83.5 18t-53 31t-25 46t0.5 63q14 74 68.5 113.5t149.5 39.5q101 0 140.5 -38t24.5 -125h-78q4 24 2 42t-12.5 30.5t-32 18.5t-55.5 6q-60 0 -90.5 -22t-38.5 -67q-4 -23 -1.5 -39.5t14.5 -28.5t34.5 -19t58.5 -11q61 -7 97.5 -20.5
t54 -34t20 -49t-3.5 -64.5q-7 -38 -23 -67t-44 -48.5t-68.5 -30t-95.5 -10.5q-104 0 -147.5 37t-27.5 127h78q-10 -56 15 -77t93 -21z" />
    <glyph glyph-name="tcaron.smcp" horiz-adv-x="438" 
d="M228 489h-152l11 66h378l-11 -66h-148l-86 -489h-78zM196 720h51l43 -69l67 69h55l-86 -120h-86z" />
    <glyph glyph-name="tdotaccent.smcp" horiz-adv-x="438" 
d="M228 489h-152l11 66h378l-11 -66h-148l-86 -489h-78zM261 700h82l-15 -82h-82z" />
    <glyph glyph-name="tcommaaccent.smcp" horiz-adv-x="438" 
d="M228 489h-152l11 66h378l-11 -66h-148l-86 -489h-78zM142 -40h90l-100 -120h-44z" />
    <glyph glyph-name="tbar.smcp" horiz-adv-x="438" 
d="M117 306h78l33 183h-152l11 66h378l-11 -66h-148l-33 -183h74l-10 -60h-74l-43 -246h-78l43 246h-78z" />
    <glyph glyph-name="uacute.smcp" horiz-adv-x="524" 
d="M195 555l-67 -380q-6 -33 -3.5 -56t14.5 -37.5t34.5 -20.5t57.5 -6t60 6t42 20.5t27 37.5t16 56l67 380h78l-67 -380q-9 -53 -29 -88.5t-49.5 -57.5t-68.5 -31t-87 -9t-84 9t-58.5 31t-29.5 57.5t2 88.5l67 380h78zM361 720h92l-98 -120h-46z" />
    <glyph glyph-name="ugrave.smcp" horiz-adv-x="524" 
d="M195 555l-67 -380q-6 -33 -3.5 -56t14.5 -37.5t34.5 -20.5t57.5 -6t60 6t42 20.5t27 37.5t16 56l67 380h78l-67 -380q-9 -53 -29 -88.5t-49.5 -57.5t-68.5 -31t-87 -9t-84 9t-58.5 31t-29.5 57.5t2 88.5l67 380h78zM388 600h-42l-60 120h88z" />
    <glyph glyph-name="ucircumflex.smcp" horiz-adv-x="524" 
d="M195 555l-67 -380q-6 -33 -3.5 -56t14.5 -37.5t34.5 -20.5t57.5 -6t60 6t42 20.5t27 37.5t16 56l67 380h78l-67 -380q-9 -53 -29 -88.5t-49.5 -57.5t-68.5 -31t-87 -9t-84 9t-58.5 31t-29.5 57.5t2 88.5l67 380h78zM435 600h-51l-43 69l-67 -69h-55l86 120h86z" />
    <glyph glyph-name="udieresis.smcp" horiz-adv-x="524" 
d="M195 555l-67 -380q-6 -33 -3.5 -56t14.5 -37.5t34.5 -20.5t57.5 -6t60 6t42 20.5t27 37.5t16 56l67 380h78l-67 -380q-9 -53 -29 -88.5t-49.5 -57.5t-68.5 -31t-87 -9t-84 9t-58.5 31t-29.5 57.5t2 88.5l67 380h78zM227 700h82l-15 -82h-82zM381 700h82l-15 -82h-82z" />
    <glyph glyph-name="utilde.smcp" horiz-adv-x="524" 
d="M195 555l-67 -380q-6 -33 -3.5 -56t14.5 -37.5t34.5 -20.5t57.5 -6t60 6t42 20.5t27 37.5t16 56l67 380h78l-67 -380q-9 -53 -29 -88.5t-49.5 -57.5t-68.5 -31t-87 -9t-84 9t-58.5 31t-29.5 57.5t2 88.5l67 380h78zM389 596q-22 0 -36 8t-25 18t-21.5 18t-26.5 8
q-22 0 -31 -12t-13 -30h-50q9 50 31.5 76t66.5 26q22 0 36 -8t24.5 -18t21.5 -18t27 -8q22 0 31 12t13 30h50q-9 -50 -31.5 -76t-66.5 -26z" />
    <glyph glyph-name="uring.smcp" horiz-adv-x="524" 
d="M195 555l-67 -380q-6 -33 -3.5 -56t14.5 -37.5t34.5 -20.5t57.5 -6t60 6t42 20.5t27 37.5t16 56l67 380h78l-67 -380q-9 -53 -29 -88.5t-49.5 -57.5t-68.5 -31t-87 -9t-84 9t-58.5 31t-29.5 57.5t2 88.5l67 380h78zM439 679q-8 -42 -37 -63.5t-76 -21.5q-48 0 -70 21.5
t-14 63.5t37 63.5t77 21.5q47 0 69 -21.5t14 -63.5zM386 679q8 40 -38 40q-25 0 -37 -10t-16 -30q-3 -20 5.5 -30t33.5 -10q46 0 52 40z" />
    <glyph glyph-name="ubreve.smcp" horiz-adv-x="524" 
d="M195 555l-67 -380q-6 -33 -3.5 -56t14.5 -37.5t34.5 -20.5t57.5 -6t60 6t42 20.5t27 37.5t16 56l67 380h78l-67 -380q-9 -53 -29 -88.5t-49.5 -57.5t-68.5 -31t-87 -9t-84 9t-58.5 31t-29.5 57.5t2 88.5l67 380h78zM336 648q65 0 77 72h54q-11 -61 -46 -93.5t-95 -32.5
t-84.5 32.5t-13.5 93.5h55q-12 -72 53 -72z" />
    <glyph glyph-name="umacron.smcp" horiz-adv-x="524" 
d="M195 555l-67 -380q-6 -33 -3.5 -56t14.5 -37.5t34.5 -20.5t57.5 -6t60 6t42 20.5t27 37.5t16 56l67 380h78l-67 -380q-9 -53 -29 -88.5t-49.5 -57.5t-68.5 -31t-87 -9t-84 9t-58.5 31t-29.5 57.5t2 88.5l67 380h78zM226 680h230l-10 -60h-230z" />
    <glyph glyph-name="uhungarumlaut.smcp" horiz-adv-x="524" 
d="M195 555l-67 -380q-6 -33 -3.5 -56t14.5 -37.5t34.5 -20.5t57.5 -6t60 6t42 20.5t27 37.5t16 56l67 380h78l-67 -380q-9 -53 -29 -88.5t-49.5 -57.5t-68.5 -31t-87 -9t-84 9t-58.5 31t-29.5 57.5t2 88.5l67 380h78zM281 710h83l-75 -120h-47zM419 710h84l-94 -120h-51z
" />
    <glyph glyph-name="uogonek.smcp" horiz-adv-x="524" 
d="M195 555l-67 -380q-6 -33 -3.5 -56t14.5 -37.5t34.5 -20.5t57.5 -6t60 6t42 20.5t27 37.5t16 56l67 380h78l-67 -380q-14 -80 -51.5 -121.5t-96.5 -55.5q-32 -19 -50.5 -40t-21.5 -41q-4 -19 5.5 -26t27.5 -7h20l-9 -54h-47q-75 0 -63 71q9 50 66 88h-14q-48 0 -84 9
t-58.5 31t-29.5 57.5t2 88.5l67 380h78z" />
    <glyph glyph-name="wacute.smcp" horiz-adv-x="779" 
d="M494 555l31 -467h2l185 467h84l-238 -555h-93l-32 482l-200 -482h-92l-44 555h79l25 -467h2l192 467h99zM445 720h92l-98 -120h-46z" />
    <glyph glyph-name="wgrave.smcp" horiz-adv-x="779" 
d="M494 555l31 -467h2l185 467h84l-238 -555h-93l-32 482l-200 -482h-92l-44 555h79l25 -467h2l192 467h99zM516 600h-42l-60 120h88z" />
    <glyph glyph-name="wcircumflex.smcp" horiz-adv-x="779" 
d="M494 555l31 -467h2l185 467h84l-238 -555h-93l-32 482l-200 -482h-92l-44 555h79l25 -467h2l192 467h99zM562 600h-51l-43 69l-67 -69h-55l86 120h86z" />
    <glyph glyph-name="wdieresis.smcp" horiz-adv-x="779" 
d="M494 555l31 -467h2l185 467h84l-238 -555h-93l-32 482l-200 -482h-92l-44 555h79l25 -467h2l192 467h99zM354 700h82l-15 -82h-82zM508 700h82l-15 -82h-82z" />
    <glyph glyph-name="yacute.smcp" horiz-adv-x="455" 
d="M185 214l-108 341h79l77 -271h2l171 271h86l-229 -341l-37 -214h-78zM325 720h92l-98 -120h-46z" />
    <glyph glyph-name="ygrave.smcp" horiz-adv-x="455" 
d="M185 214l-108 341h79l77 -271h2l171 271h86l-229 -341l-37 -214h-78zM354 600h-42l-60 120h88z" />
    <glyph glyph-name="ycircumflex.smcp" horiz-adv-x="455" 
d="M185 214l-108 341h79l77 -271h2l171 271h86l-229 -341l-37 -214h-78zM400 600h-51l-43 69l-67 -69h-55l86 120h86z" />
    <glyph glyph-name="ydieresis.smcp" horiz-adv-x="455" 
d="M185 214l-108 341h79l77 -271h2l171 271h86l-229 -341l-37 -214h-78zM192 700h82l-15 -82h-82zM346 700h82l-15 -82h-82z" />
    <glyph glyph-name="zacute.smcp" horiz-adv-x="465" 
d="M116 555h356l-9 -55l-350 -434h283l-11 -66h-375l9 53l351 436h-265zM322 720h92l-98 -120h-46z" />
    <glyph glyph-name="zcaron.smcp" horiz-adv-x="465" 
d="M116 555h356l-9 -55l-350 -434h283l-11 -66h-375l9 53l351 436h-265zM209 720h51l43 -69l67 69h55l-86 -120h-86z" />
    <glyph glyph-name="zdotaccent.smcp" horiz-adv-x="465" 
d="M116 555h356l-9 -55l-350 -434h283l-11 -66h-375l9 53l351 436h-265zM274 700h82l-15 -82h-82z" />
    </font>
</defs>
</svg>
