<?xml version="1.0" standalone="no"?>
<!DOCTYPE svg PUBLIC "-//W3C//DTD SVG 1.1//EN" "http://www.w3.org/Graphics/SVG/1.1/DTD/svg11.dtd" >
<svg xmlns="http://www.w3.org/2000/svg" xmlns:xlink="http://www.w3.org/1999/xlink" version="1.1">
<metadata>
Created by FontForge 20170731 at Tue Sep 16 06:13:39 2008
 By Aleksey,,,
Copyright (c) 2007 by Silas Dilworth. All rights reserved.
</metadata>
<defs>
<font id="BreuerText-Bold" horiz-adv-x="540" >
  <font-face 
    font-family="Breuer Text"
    font-weight="700"
    font-stretch="normal"
    units-per-em="1000"
    panose-1="2 0 5 6 4 0 0 2 0 4"
    ascent="750"
    descent="-250"
    x-height="500"
    cap-height="650"
    bbox="-38 -201 988 872"
    underline-thickness="50"
    underline-position="-150"
    unicode-range="U+0020-2265"
  />
<missing-glyph horiz-adv-x="240" 
 />
    <glyph glyph-name=".notdef" horiz-adv-x="240" 
 />
    <glyph glyph-name=".null" horiz-adv-x="0" 
 />
    <glyph glyph-name="nonmarkingreturn" horiz-adv-x="0" 
 />
    <glyph glyph-name="space" unicode=" " horiz-adv-x="180" 
 />
    <glyph glyph-name="exclam" unicode="!" horiz-adv-x="276" 
d="M55 650h166l-33 -433h-100zM65 146h146v-146h-146v146z" />
    <glyph glyph-name="quotedbl" unicode="&#x22;" horiz-adv-x="370" 
d="M76 360q-8 72 -18 145t-18 145h134l-38 -290h-60zM236 360q-8 72 -18 145t-18 145h134l-38 -290h-60z" />
    <glyph glyph-name="numbersign" unicode="#" horiz-adv-x="560" 
d="M502 156h-94l-13 -156h-91l13 156h-106l-13 -156h-90l14 156h-94l7 78h94l16 183h-94l7 78h94l13 155h90l-14 -155h106l14 155h91l-14 -155h94l-7 -78h-94l-16 -183h94zM218 234h106l16 183h-106z" />
    <glyph glyph-name="dollar" unicode="$" horiz-adv-x="511" 
d="M471 225q0 -26 -4 -52t-20 -47t-48.5 -36t-89.5 -20v-90h-106v90q-47 4 -78.5 16.5t-50 33.5t-26.5 50t-8 67h138q0 -35 17.5 -47t61.5 -12q42 0 59 11.5t17 35.5q0 16 -3.5 27t-14 18t-30 11t-52.5 7q-57 4 -93.5 15t-57.5 29t-29 44t-8 60q0 69 40.5 107t117.5 46v81
h106v-81q83 -8 118.5 -47t35.5 -121h-138q0 10 -1 20.5t-8 19.5t-22 15t-42 6q-44 0 -56.5 -14.5t-12.5 -35.5q0 -14 3 -23.5t11.5 -16t24 -10.5t40.5 -6q67 -6 108 -15.5t63.5 -27t30 -43.5t7.5 -65z" />
    <glyph glyph-name="percent" unicode="%" horiz-adv-x="652" 
d="M180 372q-36 0 -62 7t-43.5 24t-26 45t-8.5 69q0 82 34 113.5t106 31.5t106 -31.5t34 -113.5q0 -41 -8.5 -69t-26 -45t-43.5 -24t-62 -7zM180 441q29 0 42 15t13 61t-13 61t-42 15t-42 -15t-13 -61t13 -61t42 -15zM495 650h89l-427 -650h-89zM472 278q71 0 105.5 -31.5
t34.5 -113.5t-34 -113.5t-106 -31.5t-106 31.5t-34 113.5t34.5 113.5t105.5 31.5zM472 209q-29 0 -42 -15t-13 -61t13 -61t42 -15t42 15t13 61t-13 61t-42 15z" />
    <glyph glyph-name="ampersand" unicode="&#x26;" horiz-adv-x="608" 
d="M500 275v-97q0 -38 17.5 -51t50.5 -13v-114q-49 0 -84 10.5t-56 43.5q-24 -30 -66 -48t-94 -18q-120 0 -174.5 44t-54.5 143q0 60 29.5 99t80.5 60q-95 48 -95 145q0 92 51.5 137.5t160.5 45.5q58 0 99 -9.5t67.5 -31.5t38.5 -58.5t12 -89.5h-140q0 45 -19 60t-58 15
q-38 0 -55.5 -17t-17.5 -59q0 -87 72 -87h298v-110h-63zM271 102q42 0 65.5 21t23.5 72v80h-100q-35 0 -57.5 -20.5t-22.5 -66.5q0 -51 24 -68.5t67 -17.5z" />
    <glyph glyph-name="quotesingle" unicode="'" horiz-adv-x="213" 
d="M76 360q-8 72 -18 145t-18 145h134l-38 -290h-60v0z" />
    <glyph glyph-name="parenleft" unicode="(" horiz-adv-x="322" 
d="M152 285q0 -121 38 -224.5t102 -180.5h-97q-72 81 -111 185t-39 220t39 220t111 185h97q-64 -77 -102 -180.5t-38 -224.5z" />
    <glyph glyph-name="parenright" unicode=")" horiz-adv-x="322" 
d="M170 285q0 121 -38 224.5t-102 180.5h97q72 -81 111 -185t39 -220t-39 -220t-111 -185h-97q64 77 102 180.5t38 224.5z" />
    <glyph glyph-name="asterisk" unicode="*" horiz-adv-x="532" 
d="M446 593l46 -142l-189 -7l149 -117l-120 -87l-66 177l-66 -177l-120 87l149 117l-189 7l46 142l157 -105l-52 182h150l-52 -182z" />
    <glyph glyph-name="plus" unicode="+" horiz-adv-x="512" 
d="M50 324h157v158h98v-158h157v-98h-157v-158h-98v158h-157v98z" />
    <glyph glyph-name="comma" unicode="," horiz-adv-x="226" 
d="M40 146h146l-60 -252h-86v252z" />
    <glyph glyph-name="hyphen" unicode="-" horiz-adv-x="350" 
d="M50 332h250v-114h-250v114z" />
    <glyph glyph-name="period" unicode="." horiz-adv-x="226" 
d="M40 146h146v-146h-146v146z" />
    <glyph glyph-name="slash" unicode="/" horiz-adv-x="343" 
d="M203 690h110l-172 -730h-111z" />
    <glyph glyph-name="zero" unicode="0" horiz-adv-x="554" 
d="M277 102q57 0 77 21.5t20 78.5v243q0 32 -5 52t-16.5 31.5t-30 15.5t-45.5 4t-45.5 -4t-30 -15.5t-16.5 -31.5t-5 -52v-243q0 -57 20 -78.5t77 -21.5zM277 662q121 0 179 -51t58 -170v-230q0 -119 -58.5 -171t-178.5 -52t-178.5 52t-58.5 171v230q0 119 57.5 170
t179.5 51z" />
    <glyph glyph-name="one" unicode="1" horiz-adv-x="387" 
d="M157 0v536h-107v62l157 52h90v-650h-140z" />
    <glyph glyph-name="two" unicode="2" 
d="M42 453q0 57 15.5 97t45 65t72.5 36t98 11q66 0 109.5 -15t70 -42t37.5 -65t11 -85q0 -56 -23.5 -91.5t-58 -60t-75.5 -41.5t-75.5 -36.5t-58 -45t-23.5 -66.5h318v-114h-465v89q0 69 24 112.5t59.5 71.5t77 46t77 35.5t59.5 39t24 58.5q0 46 -18.5 71t-69.5 25
q-48 0 -70.5 -21t-22.5 -74h-138z" />
    <glyph glyph-name="three" unicode="3" horiz-adv-x="553" 
d="M279 102q56 0 77.5 23.5t21.5 66.5q0 30 -10 46.5t-24.5 25t-31.5 10t-31 1.5h-61v110h54q20 0 37 3t29 11.5t18.5 25t6.5 43.5q0 36 -17.5 58t-71.5 22q-51 0 -72.5 -21.5t-21.5 -73.5h-137q0 106 54.5 157.5t176.5 51.5q67 0 111 -14t70.5 -39.5t37 -60.5t10.5 -77
q0 -101 -101 -137q114 -33 114 -149q0 -44 -9.5 -80t-35.5 -62t-72.5 -40.5t-121.5 -14.5q-128 0 -183.5 51t-55.5 157h140q0 -48 24 -71t75 -23z" />
    <glyph glyph-name="four" unicode="4" horiz-adv-x="561" 
d="M320 130h-295v111l260 409h175v-406h71v-114h-71v-130h-140v130zM320 244v282l-174 -282h174z" />
    <glyph glyph-name="five" unicode="5" horiz-adv-x="539" 
d="M82 650h388v-114h-269l-11 -143q27 14 57.5 22.5t58.5 8.5q46 0 82.5 -9t62 -32t39.5 -63t14 -101q0 -55 -11.5 -98t-39 -72.5t-72.5 -45t-112 -15.5q-128 0 -183.5 51t-55.5 157h140q0 -51 24 -72.5t75 -21.5t73 26t22 91q0 32 -4.5 53t-16 33.5t-29.5 17.5t-45 5
q-19 0 -43 -9t-36 -20h-139z" />
    <glyph glyph-name="six" unicode="6" horiz-adv-x="550" 
d="M180 364q31 18 61 26t74 8q108 0 151.5 -49t43.5 -145q0 -46 -10.5 -85.5t-37.5 -68.5t-72.5 -45.5t-114.5 -16.5q-71 0 -117 17t-72 46.5t-36 68.5t-10 83v250q0 106 55.5 157.5t173.5 51.5q125 0 178.5 -50t53.5 -147h-140q0 42 -20.5 62.5t-71.5 20.5
q-42 0 -65.5 -18.5t-23.5 -72.5v-93zM278 305q-31 0 -56 -9t-42 -25v-61q0 -26 4 -46t14.5 -34t28 -21t45.5 -7q31 0 50.5 7t30 20t14 31.5t3.5 42.5q0 55 -19 78.5t-73 23.5z" />
    <glyph glyph-name="seven" unicode="7" horiz-adv-x="474" 
d="M97 0l212 536h-289v114h434v-98l-211 -552h-146z" />
    <glyph glyph-name="eight" unicode="8" horiz-adv-x="549" 
d="M275 -12q-124 0 -184.5 42.5t-60.5 141.5q0 69 33 107t81 55q-48 20 -73 55.5t-25 92.5q0 96 57 138t172 42q111 0 169.5 -41.5t58.5 -135.5q0 -57 -24.5 -93.5t-72.5 -57.5q23 -9 43.5 -22.5t36 -33t24.5 -46t9 -60.5q0 -99 -60 -141.5t-184 -42.5zM275 381
q18 0 34.5 3.5t29 13t20 25.5t7.5 41q0 48 -21.5 66t-69.5 18t-69.5 -18t-21.5 -66q0 -25 7.5 -41t20 -25.5t29 -13t34.5 -3.5zM275 102q51 0 76.5 19.5t25.5 65.5q0 29 -7.5 47t-21 28t-32 13.5t-41.5 3.5t-41.5 -3.5t-32 -13.5t-21 -28t-7.5 -47q0 -46 25.5 -65.5
t76.5 -19.5z" />
    <glyph glyph-name="nine" unicode="9" horiz-adv-x="550" 
d="M370 289q-16 -9 -30.5 -15.5t-30.5 -10.5t-34 -6t-40 -2q-108 0 -151.5 49t-43.5 145q0 46 10.5 85t37.5 67.5t72.5 44.5t114.5 16q71 0 116.5 -17t72 -46.5t36.5 -68.5t10 -83v-250q0 -106 -55 -157.5t-173 -51.5q-65 0 -109.5 12t-72.5 37t-40 62t-12 87h140
q0 -42 21.5 -63t72.5 -21q42 0 65 18.5t23 72.5v96zM272 348q31 0 56 9t42 25v58q0 52 -18.5 80t-73.5 28q-31 0 -50.5 -7t-30 -20t-14 -31.5t-3.5 -42.5q0 -55 19 -77t73 -22z" />
    <glyph glyph-name="colon" unicode=":" horiz-adv-x="226" 
d="M40 146h146v-146h-146v146zM40 420h146v-146h-146v146z" />
    <glyph glyph-name="semicolon" unicode=";" horiz-adv-x="226" 
d="M40 420h146v-146h-146v146zM40 146h146l-60 -252h-86v252z" />
    <glyph glyph-name="less" unicode="&#x3c;" horiz-adv-x="365" 
d="M30 325l195 365h110l-198 -365l198 -365h-110z" />
    <glyph glyph-name="equal" unicode="=" horiz-adv-x="512" 
d="M50 326v98h412v-98h-412zM50 126v98h412v-98h-412z" />
    <glyph glyph-name="greater" unicode="&#x3e;" horiz-adv-x="365" 
d="M140 -40h-110l198 365l-198 365h110l195 -365z" />
    <glyph glyph-name="question" unicode="?" horiz-adv-x="530" 
d="M203 361q48 0 77 4.5t44.5 16.5t20.5 32.5t5 52.5q0 25 -6.5 40.5t-18.5 24t-27.5 11.5t-33.5 3t-34 -3t-27.5 -12t-18 -25t-6.5 -42h-138q0 103 52.5 150.5t171.5 47.5q120 0 173 -47.5t53 -147.5q0 -53 -11.5 -89.5t-34 -60t-54.5 -36t-73 -17.5l-8 -68h-89zM191 146
h146v-146h-146v146z" />
    <glyph glyph-name="at" unicode="@" horiz-adv-x="790" 
d="M60 316q0 66 20 119t61 90t104 57t150 20q86 0 149 -20t104.5 -57t61.5 -90t20 -119v-146q0 -66 -20 -119t-61.5 -90t-104.5 -57t-149 -20q-85 0 -148 20t-104.5 57t-62 90t-20.5 119v146zM154 174q0 -103 59 -152.5t182 -49.5t182 49.5t59 152.5v138q0 103 -59 152.5
t-182 49.5t-182 -49.5t-59 -152.5v-138zM368 142q23 0 43 7.5t36 21.5v57l-80 -9q-22 -2 -30.5 -12.5t-8.5 -27.5q0 -18 11.5 -27.5t28.5 -9.5zM231 169q0 47 28.5 72.5t88.5 30.5l99 7v35q0 24 -12.5 35t-41.5 11q-31 0 -42.5 -12t-11.5 -35h-94q0 60 35.5 91t112.5 31
q81 0 115.5 -30t34.5 -91v-239h-70l-16 30q-50 -39 -108 -39t-88 27.5t-30 75.5z" />
    <glyph glyph-name="A" unicode="A" horiz-adv-x="537" 
d="M355 124h-175l-26 -124h-144l169 650h177l171 -650h-145zM206 236h123l-60 293h-2z" />
    <glyph glyph-name="B" unicode="B" horiz-adv-x="558" 
d="M60 650h233q62 0 102.5 -10t64 -30.5t33 -52t9.5 -75.5q0 -54 -20.5 -89.5t-52.5 -52.5q94 -37 94 -157q0 -42 -12 -76t-38 -57.5t-67 -36.5t-100 -13h-246v650zM302 114q40 0 60 17.5t20 62.5q0 49 -23 65t-60 16h-99v-161h102zM200 536v-151h88q40 0 57.5 17t17.5 59
q0 36 -17 55.5t-57 19.5h-89z" />
    <glyph glyph-name="C" unicode="C" horiz-adv-x="548" 
d="M279 102q48 0 69.5 23t21.5 81h138q0 -114 -54 -166t-175 -52t-177.5 56t-56.5 177v208q0 124 58.5 178.5t175.5 54.5q121 0 175 -51.5t54 -165.5h-138q0 55 -21.5 79t-69.5 24q-46 0 -70 -22t-24 -76v-250q0 -54 24.5 -76t69.5 -22z" />
    <glyph glyph-name="D" unicode="D" horiz-adv-x="572" 
d="M200 536v-422h79q33 0 54 7t33 21t16.5 34t4.5 46v214q0 36 -7 56.5t-20.5 30t-33.5 11.5t-47 2h-79zM60 0v650h222q61 0 107 -9t76.5 -34.5t46 -70.5t15.5 -116v-188q0 -71 -15.5 -116.5t-46 -71t-76.5 -35t-107 -9.5h-222z" />
    <glyph glyph-name="E" unicode="E" horiz-adv-x="503" 
d="M60 650h398v-114h-258v-151h224v-110h-224v-161h258v-114h-398v650z" />
    <glyph glyph-name="F" unicode="F" horiz-adv-x="468" 
d="M60 0v650h378v-114h-238v-151h203v-110h-203v-275h-140z" />
    <glyph glyph-name="G" unicode="G" horiz-adv-x="570" 
d="M279 -12q-121 0 -177.5 55.5t-56.5 177.5v207q0 123 59.5 178.5t174.5 55.5q121 0 176 -51.5t55 -165.5h-140q0 51 -21.5 77t-69.5 26q-46 0 -70 -22t-24 -76v-250q0 -57 25.5 -77.5t73.5 -20.5t72 23t24 82v68h-103v110h243v-385h-68l-23 43q-29 -28 -64.5 -41.5
t-85.5 -13.5z" />
    <glyph glyph-name="H" unicode="H" horiz-adv-x="579" 
d="M519 0h-140v275h-179v-275h-140v650h140v-265h179v265h140v-650z" />
    <glyph glyph-name="I" unicode="I" horiz-adv-x="260" 
d="M60 650h140v-650h-140v650z" />
    <glyph glyph-name="J" unicode="J" horiz-adv-x="360" 
d="M65 536v114h235v-488q0 -43 -5.5 -75.5t-24 -54.5t-53.5 -33t-95 -11q-25 0 -49.5 3.5t-47.5 8.5v114q13 -4 36 -8t42 -4q35 0 46 13.5t11 44.5v376h-95z" />
    <glyph glyph-name="K" unicode="K" horiz-adv-x="523" 
d="M313 336l205 -336h-160l-158 276v-276h-140v650h140v-266l152 266h161z" />
    <glyph glyph-name="L" unicode="L" horiz-adv-x="418" 
d="M60 650h140v-536h198v-114h-338v650z" />
    <glyph glyph-name="M" unicode="M" horiz-adv-x="729" 
d="M533 301l8 199l-123 -500h-107l-123 500l8 -200v-300h-136v650h195l108 -461h3l108 461h195v-650h-136v301z" />
    <glyph glyph-name="N" unicode="N" horiz-adv-x="584" 
d="M524 0h-161l-176 453l5 -179v-274h-132v650h161l176 -453l-5 184v269h132v-650z" />
    <glyph glyph-name="O" unicode="O" horiz-adv-x="569" 
d="M384 444q0 54 -23.5 79t-76.5 25q-51 0 -75 -24.5t-24 -78.5v-239q0 -54 23.5 -79t75.5 -25q53 0 76.5 25t23.5 79v238zM45 440q0 113 56.5 167.5t182.5 54.5t183 -54t57 -168v-230q0 -113 -57 -167.5t-183 -54.5t-182.5 54.5t-56.5 167.5v230z" />
    <glyph glyph-name="P" unicode="P" horiz-adv-x="550" 
d="M283 338q48 0 70 20t22 79q0 57 -21.5 78t-69.5 21h-84v-198h83zM60 650h223q58 0 101.5 -8.5t72.5 -32t43.5 -64.5t14.5 -107q0 -62 -14 -102.5t-42.5 -64.5t-72 -33.5t-101.5 -9.5h-85v-228h-140v650z" />
    <glyph glyph-name="Q" unicode="Q" horiz-adv-x="569" 
d="M45 440q0 113 56.5 167.5t182.5 54.5t183 -54t57 -168v-230q0 -97 -42 -152t-136 -67q6 -23 20 -29t33 -6h50l-26 -64h-68q-54 0 -86.5 22.5t-43.5 76.5q-95 11 -137.5 65t-42.5 154v230zM384 444q0 54 -23.5 79t-76.5 25q-51 0 -75 -24.5t-24 -78.5v-239q0 -54 23.5 -79
t75.5 -25q53 0 76.5 25t23.5 79v238z" />
    <glyph glyph-name="R" unicode="R" horiz-adv-x="560" 
d="M60 650h223q59 0 103 -8.5t73 -32t43 -64.5t14 -107q0 -81 -26 -127t-79 -66l119 -245h-150l-104 228h-76v-228h-140v650zM283 338q48 0 70 20t22 79q0 57 -21.5 78t-69.5 21h-84v-198h83z" />
    <glyph glyph-name="S" unicode="S" horiz-adv-x="557" 
d="M372 193q0 19 -5 32t-19 23t-40 17.5t-69 15.5q-48 8 -84.5 21.5t-61.5 35.5t-37.5 55t-12.5 81q0 87 55.5 137.5t174.5 50.5q61 0 104.5 -10.5t71.5 -33.5t40.5 -59.5t12.5 -88.5h-140q0 42 -21 60t-69 18t-67.5 -19t-19.5 -56q0 -22 5 -37.5t18 -27t36 -19t60 -13.5
q61 -10 101 -24t64 -35t33.5 -51t9.5 -71q0 -58 -16.5 -97.5t-47.5 -64t-75 -35t-99 -10.5q-64 0 -109 11.5t-74 36.5t-42.5 64t-13.5 94h140q0 -51 23.5 -71.5t75.5 -20.5q54 0 76 20t22 71z" />
    <glyph glyph-name="T" unicode="T" horiz-adv-x="458" 
d="M159 536h-144v114h428v-114h-144v-536h-140v536z" />
    <glyph glyph-name="U" unicode="U" horiz-adv-x="575" 
d="M195 650v-449q0 -52 21 -75t72 -23t71.5 23t20.5 75v449h140v-442q0 -63 -15 -105t-44 -67.5t-72.5 -36t-100.5 -10.5t-101 10.5t-73 36t-44 67.5t-15 105v442h140z" />
    <glyph glyph-name="V" unicode="V" horiz-adv-x="538" 
d="M357 0h-176l-171 650h144l114 -525h2l114 525h144z" />
    <glyph glyph-name="W" unicode="W" horiz-adv-x="819" 
d="M654 650h140l-119 -650h-189l-76 527l-76 -527h-189l-120 650h141l76 -529h2l81 529h170l80 -529h2z" />
    <glyph glyph-name="X" unicode="X" horiz-adv-x="511" 
d="M255 433h1l90 217h156l-170 -315q44 -84 87.5 -167.5t86.5 -167.5h-155q-23 57 -47.5 118t-47.5 118q-25 -57 -49 -118t-47 -118h-155q43 84 86.5 167.5t87.5 167.5l-170 315h156z" />
    <glyph glyph-name="Y" unicode="Y" horiz-adv-x="528" 
d="M194 239l-184 411h151l102 -285h2l102 285h151l-184 -411v-239h-140v239z" />
    <glyph glyph-name="Z" unicode="Z" horiz-adv-x="507" 
d="M50 650h412v-99l-264 -437h274v-114h-432v99l262 437h-252v114z" />
    <glyph glyph-name="bracketleft" unicode="[" horiz-adv-x="312" 
d="M60 690h202v-69h-106v-672h106v-69h-202v810z" />
    <glyph glyph-name="backslash" unicode="\" horiz-adv-x="333" 
d="M303 -40h-101l-172 730h100z" />
    <glyph glyph-name="bracketright" unicode="]" horiz-adv-x="312" 
d="M252 -120h-202v69h106v672h-106v69h202v-810z" />
    <glyph glyph-name="asciicircum" unicode="^" horiz-adv-x="484" 
d="M161 351h-116l137 299h120l137 -299h-116l-80 192h-2z" />
    <glyph glyph-name="underscore" unicode="_" horiz-adv-x="485" 
d="M55 114h375v-114h-375v114z" />
    <glyph glyph-name="grave" unicode="`" horiz-adv-x="235" 
d="M195 550h-83l-72 120h127z" />
    <glyph glyph-name="a" unicode="a" horiz-adv-x="525" 
d="M227 98q33 0 61 10.5t51 30.5v78l-114 -13q-54 -6 -54 -55q0 -26 15.5 -38.5t40.5 -12.5zM35 136q0 66 37 104t126 44l141 10v44q0 35 -16.5 49.5t-59.5 14.5q-44 0 -60 -15.5t-16 -49.5h-134q0 86 48 130.5t161 44.5q116 0 164.5 -43t48.5 -131v-338h-99l-23 43
q-68 -55 -153 -55q-84 0 -124.5 39.5t-40.5 108.5z" />
    <glyph glyph-name="b" unicode="b" horiz-adv-x="539" 
d="M154 0h-99v670h136v-201q37 23 68.5 33t61.5 10q40 0 73 -8.5t56 -31t36 -63.5t13 -105v-108q0 -65 -13.5 -105.5t-37 -63.5t-56 -31t-70.5 -8q-30 0 -66 11.5t-79 43.5zM363 313q0 54 -17 71.5t-52 17.5q-32 0 -58 -12t-45 -30v-220q19 -18 45 -30t58 -12q35 0 52 17.5
t17 71.5v126z" />
    <glyph glyph-name="c" unicode="c" horiz-adv-x="517" 
d="M264 402q-26 0 -43 -6t-27 -19t-14 -34t-4 -52v-82q0 -33 4.5 -54t15 -34t27 -18t41.5 -5q40 0 59.5 16t19.5 66h134q0 -56 -14.5 -93t-42 -59t-67 -31t-89.5 -9q-57 0 -99 11t-69.5 38t-41.5 71.5t-14 110.5v62q0 67 14 112t42 71t70 37t98 11q51 0 90.5 -9t67 -30.5
t41.5 -58.5t14 -94h-134q0 26 -5 42t-15 25t-25 12t-34 3z" />
    <glyph glyph-name="d" unicode="d" horiz-adv-x="539" 
d="M362 43q-43 -32 -79 -43.5t-66 -11.5q-38 0 -70.5 8t-56 31t-37 63.5t-13.5 105.5v108q0 64 13 105t36 63.5t56 31t73 8.5q30 0 61.5 -10t68.5 -33v201h136v-670h-99zM176 187q0 -54 17 -71.5t52 -17.5q32 0 58 12t45 30v220q-19 18 -45 30t-58 12q-35 0 -52 -17.5
t-17 -71.5v-126z" />
    <glyph glyph-name="e" unicode="e" horiz-adv-x="514" 
d="M345 295q0 33 -5 54t-15.5 32.5t-26 16t-35.5 4.5q-51 0 -69 -24t-18 -83h169zM264 98q34 0 59.5 1t47 3.5t41.5 5.5t44 7v-109q-43 -8 -90.5 -13t-100.5 -5q-56 0 -98 10.5t-70 37t-42.5 71t-14.5 113.5v61q0 67 14 112t42 71t70 37t98 11q53 0 93.5 -10.5t67.5 -37
t40.5 -71t13.5 -113.5v-75h-303q0 -52 17 -79.5t71 -27.5z" />
    <glyph glyph-name="f" unicode="f" horiz-adv-x="333" 
d="M313 575q-10 2 -25 3.5t-29 1.5q-21 0 -30 -9t-9 -33v-38h74v-110h-74v-390h-136v390h-64v97l64 13v51q0 40 8.5 67t25.5 43t42.5 22.5t59.5 6.5q27 0 51.5 -3t41.5 -8v-104v0z" />
    <glyph glyph-name="g" unicode="g" horiz-adv-x="539" 
d="M484 -3q0 -98 -53 -138.5t-167 -40.5q-15 0 -35 1t-42 3.5t-43.5 6t-40.5 8.5v112q79 -21 159 -21q45 0 65.5 15.5t20.5 53.5v46q-37 -23 -68.5 -33t-61.5 -10q-40 0 -73 8.5t-56 31t-36 63t-13 105.5v96q0 65 13.5 105.5t37 63.5t56 31t70.5 8q30 0 66 -11.5t79 -43.5
l23 43h99v-503zM348 370q-19 14 -46 23t-55 9q-39 0 -55 -21.5t-16 -77.5v-94q0 -56 16 -77.5t55 -21.5q28 0 54.5 9t46.5 23v228z" />
    <glyph glyph-name="h" unicode="h" horiz-adv-x="535" 
d="M191 670v-203q38 26 71.5 35.5t73.5 9.5t68 -9t46 -29.5t26.5 -54.5t8.5 -84v-335h-136v331q0 42 -13.5 56.5t-49.5 14.5q-23 0 -49 -11t-46 -31v-360h-136v670h136z" />
    <glyph glyph-name="i" unicode="i" horiz-adv-x="246" 
d="M55 500h136v-500h-136v500zM55 670h136v-126h-136v126z" />
    <glyph glyph-name="j" unicode="j" horiz-adv-x="246" 
d="M191 -40q0 -80 -34.5 -111t-101.5 -31q-27 0 -51.5 3t-41.5 8v107q10 -2 25 -3.5t29 -1.5q21 0 30 9t9 33v527h136v-540zM55 670h136v-126h-136v126z" />
    <glyph glyph-name="k" unicode="k" horiz-adv-x="495" 
d="M191 0h-136v670h136v-363h2l128 193h156l-168 -232l176 -268h-161l-131 224h-2v-224z" />
    <glyph glyph-name="l" unicode="l" horiz-adv-x="246" 
d="M55 670h136v-670h-136v670z" />
    <glyph glyph-name="m" unicode="m" horiz-adv-x="773" 
d="M587 330q0 44 -12.5 58t-43.5 14q-14 0 -36 -7.5t-38 -18.5v-376h-136v330q0 44 -12.5 58t-43.5 14q-14 0 -36 -7.5t-38 -18.5v-376h-136v500h96l22 -37q33 23 65 36t73 13q46 0 73 -10.5t50 -37.5q30 19 66 33.5t79 14.5q42 0 70 -9t44.5 -30.5t23 -56.5t6.5 -87v-329
h-136v330z" />
    <glyph glyph-name="n" unicode="n" horiz-adv-x="537" 
d="M154 500l23 -43q43 32 79 43.5t80 11.5q40 0 68.5 -9t47 -29.5t27 -54.5t8.5 -84v-335h-136v331q0 42 -13.5 56.5t-49.5 14.5q-23 0 -50 -11t-47 -31v-360h-136v500h99z" />
    <glyph glyph-name="o" unicode="o" horiz-adv-x="527" 
d="M176 209q0 -66 20 -88.5t68 -22.5q24 0 40.5 5t27 17.5t15 34t4.5 54.5v82q0 33 -4.5 54.5t-15 34t-27 17.5t-40.5 5q-48 0 -68 -22.5t-20 -88.5v-82zM487 219q0 -68 -14 -112.5t-42 -70.5t-70 -37t-97 -11q-56 0 -98 11t-70 37t-42 70.5t-14 112.5v62q0 67 14 111.5
t42.5 71t70 37.5t97.5 11q55 0 96.5 -11t69.5 -37.5t42.5 -71t14.5 -111.5v-62z" />
    <glyph glyph-name="p" unicode="p" horiz-adv-x="539" 
d="M177 457q43 32 79 43.5t66 11.5q38 0 70.5 -8t56 -31t37 -63.5t13.5 -105.5v-108q0 -65 -13 -105.5t-36 -63t-56 -31t-73 -8.5q-30 0 -61.5 10t-68.5 33v-201h-136v670h99zM363 313q0 54 -17 71.5t-52 17.5q-32 0 -58 -12t-45 -30v-220q19 -18 45 -30t58 -12
q35 0 52 17.5t17 71.5v126z" />
    <glyph glyph-name="q" unicode="q" horiz-adv-x="539" 
d="M385 500h99v-670h-136v201q-37 -23 -68.5 -33t-61.5 -10q-40 0 -73 8.5t-56 31t-36 63t-13 105.5v108q0 65 13.5 105.5t37 63.5t56 31t70.5 8q30 0 66 -11.5t79 -43.5zM176 187q0 -54 17 -71.5t52 -17.5q32 0 58 12t45 30v220q-19 18 -45 30t-58 12q-35 0 -52 -17.5
t-17 -71.5v-126z" />
    <glyph glyph-name="r" unicode="r" horiz-adv-x="339" 
d="M314 392q-35 0 -67.5 -10t-55.5 -28v-354h-136v500h96l22 -37q32 25 67.5 37t73.5 12v-120z" />
    <glyph glyph-name="s" unicode="s" horiz-adv-x="501" 
d="M466 145q0 -29 -5 -57t-26 -50.5t-64 -36t-119 -13.5q-63 0 -105 10.5t-66.5 31.5t-35 52.5t-10.5 74.5h136q0 -35 18.5 -47t62.5 -12q42 0 60 11.5t18 35.5q0 16 -3.5 27t-14.5 18t-31 11t-53 7q-57 4 -93.5 15t-57.5 29t-29 44t-8 60q0 79 53.5 117.5t153.5 38.5
q58 0 98 -9t65 -29t36 -52.5t11 -80.5h-136q0 10 -1.5 20.5t-8.5 19.5t-22 15t-42 6q-44 0 -57.5 -14.5t-13.5 -35.5q0 -27 15.5 -39.5t65.5 -16.5q67 -6 108 -15.5t63.5 -27t30 -43.5t7.5 -65z" />
    <glyph glyph-name="t" unicode="t" horiz-adv-x="343" 
d="M313 0q-17 -5 -41.5 -8.5t-51.5 -3.5q-34 0 -59.5 6.5t-42.5 22.5t-25.5 43t-8.5 67v263h-64v97l64 13v113l136 27v-140h93v-110h-93v-250q0 -24 9 -33t30 -9q14 0 29 1.5t25 3.5v-103z" />
    <glyph glyph-name="u" unicode="u" 
d="M386 0l-23 43q-43 -32 -79 -43.5t-80 -11.5q-40 0 -68 9t-46 29.5t-26.5 54.5t-8.5 84v335h136v-331q0 -42 13.5 -56.5t49.5 -14.5q23 0 49 11t46 31v360h136v-500h-99z" />
    <glyph glyph-name="v" unicode="v" horiz-adv-x="494" 
d="M246 136h2l90 364h146l-159 -500h-156l-159 500h146z" />
    <glyph glyph-name="w" unicode="w" horiz-adv-x="744" 
d="M583 500h141l-120 -500h-164l-68 370l-67 -370h-164l-121 500h141l63 -367l74 367h149l73 -369h2z" />
    <glyph glyph-name="x" unicode="x" horiz-adv-x="487" 
d="M320 500h152l-155 -247l160 -253h-156l-77 151h-1l-77 -151h-156l160 253l-155 247h152l76 -146h1z" />
    <glyph glyph-name="y" unicode="y" horiz-adv-x="496" 
d="M10 500h146l94 -333h2l87 333h147l-187 -558q-11 -34 -26 -57.5t-37 -38.5t-53.5 -21.5t-75.5 -6.5q-13 0 -35 2.5t-36 7.5v109q15 -5 32.5 -7t33.5 -2q35 0 50.5 12.5t27.5 44.5l6 17z" />
    <glyph glyph-name="z" unicode="z" horiz-adv-x="470" 
d="M45 500h386v-96l-231 -294h240v-110h-405v96l231 294h-221v110z" />
    <glyph glyph-name="braceleft" unicode="{" horiz-adv-x="384" 
d="M194 285q26 -15 35.5 -41.5t9.5 -68.5v-182q0 -23 9.5 -33.5t32.5 -10.5h63v-69h-63q-37 0 -63 5.5t-42.5 19t-24.5 37.5t-8 62v205q0 23 -8.5 32t-30.5 9h-64v70h64q22 0 30.5 9t8.5 32v205q0 37 8 61.5t24.5 38t42.5 19t63 5.5h63v-69h-63q-23 0 -32.5 -10.5
t-9.5 -33.5v-182q0 -42 -9.5 -68.5t-35.5 -41.5z" />
    <glyph glyph-name="bar" unicode="|" horiz-adv-x="240" 
d="M170 -120h-100v810h100v-810z" />
    <glyph glyph-name="braceright" unicode="}" horiz-adv-x="384" 
d="M190 285q-26 15 -35.5 41.5t-9.5 68.5v182q0 23 -9.5 33.5t-32.5 10.5h-63v69h63q37 0 63 -5.5t42.5 -19t24.5 -38t8 -61.5v-205q0 -23 8.5 -32t30.5 -9h64v-70h-64q-22 0 -30.5 -9t-8.5 -32v-205q0 -38 -8 -62t-24.5 -37.5t-42.5 -19t-63 -5.5h-63v69h63q23 0 32.5 10.5
t9.5 33.5v182q0 42 9.5 68.5t35.5 41.5z" />
    <glyph glyph-name="asciitilde" unicode="~" horiz-adv-x="474" 
d="M323 492q-33 0 -54.5 10.5t-38 23.5t-31 23.5t-31.5 10.5q-8 0 -15 -1.5t-12 -7.5t-8.5 -17t-3.5 -30h-99q0 48 8 78.5t23 48.5t37.5 24.5t52.5 6.5q33 0 55 -10.5t38.5 -23.5t30.5 -23.5t31 -10.5q7 0 14.5 1.5t12.5 7.5t8.5 17t3.5 30h99q0 -48 -8 -78.5t-23 -48.5
t-37.5 -24.5t-52.5 -6.5z" />
    <glyph glyph-name="nonbreakingspace" unicode="&#xa0;" horiz-adv-x="90" 
 />
    <glyph glyph-name="exclamdown" unicode="&#xa1;" horiz-adv-x="276" 
d="M88 283h100l33 -433h-166zM65 500h146v-146h-146v146z" />
    <glyph glyph-name="cent" unicode="&#xa2;" horiz-adv-x="532" 
d="M272 477q-26 0 -43 -6t-27 -19t-14 -34t-4 -52v-82q0 -33 4.5 -54t15 -34t27 -18t41.5 -5q40 0 59.5 16t19.5 66h136q0 -48 -11 -82t-31.5 -56t-50 -34.5t-66.5 -16.5v-86h-106v85q-44 4 -77 18.5t-55 42t-33 68.5t-11 100v62q0 60 11 101.5t33 68.5t55 40.5t77 18.5v85
h106v-86q38 -5 67.5 -16.5t50 -34t31 -56.5t10.5 -82h-136q0 26 -5 42t-15 25t-25 12t-34 3z" />
    <glyph glyph-name="sterling" unicode="&#xa3;" horiz-adv-x="562" 
d="M52 0v114q55 0 79 20t24 73q0 15 -4.5 33.5t-9.5 33.5h-89v82h63q-11 26 -20.5 61.5t-9.5 69.5q0 87 50 131t155 44q52 0 90.5 -9t64 -30t38.5 -56t13 -87h-140q0 34 -14 51t-50 17q-35 0 -50 -16t-15 -51q0 -34 8 -64.5t13 -60.5h109v-82h-97q2 -13 4 -25.5t2 -24.5
q0 -38 -9.5 -64t-31.5 -46h101q38 0 52 15.5t14 57.5h140q0 -52 -9 -87.5t-29.5 -57.5t-53.5 -32t-82 -10h-306z" />
    <glyph glyph-name="currency" unicode="&#xa4;" horiz-adv-x="584" 
d="M380 350q0 37 -4.5 60.5t-14.5 37.5t-27 19.5t-42 5.5t-42 -5.5t-27 -19.5t-14.5 -37.5t-4.5 -60.5v-51q0 -36 4.5 -60t14.5 -37.5t27 -19t42 -5.5t42 5.5t27 19t14.5 37.5t4.5 60v51zM518 299q0 -89 -26 -140q19 -20 37 -42t37 -42q-18 -16 -35.5 -30t-35.5 -30l-65 74
q-27 -14 -61 -20t-77 -6q-44 0 -78.5 6t-61.5 22l-65 -76l-71 58l74 86q-14 26 -19 60.5t-5 79.5v51q0 43 6.5 77t18.5 60q-20 22 -37.5 44t-37.5 44l69 58q17 -19 33 -38.5t33 -38.5q27 17 62 24t79 7q43 0 77.5 -7t63.5 -24q17 19 33 38.5t33 38.5l67 -58l-74 -86
q12 -26 19 -60t7 -79v-51z" />
    <glyph glyph-name="yen" unicode="&#xa5;" horiz-adv-x="542" 
d="M201 139v53h-118v60h112l-178 398h151l102 -285h2l102 285h151l-178 -398h112v-60h-118v-53h118v-60h-118v-79h-140v79h-118v60h118z" />
    <glyph glyph-name="brokenbar" unicode="&#xa6;" horiz-adv-x="240" 
d="M170 350h-100v340h100v-340zM170 -120h-100v340h100v-340z" />
    <glyph glyph-name="section" unicode="&#xa7;" horiz-adv-x="570" 
d="M50 249q0 35 17 64.5t47 50.5q-29 20 -44 49t-15 74q0 93 56.5 134t168.5 41q66 0 110.5 -10.5t72 -33t39 -59.5t11.5 -89h-140q0 44 -20.5 61t-71.5 17q-48 0 -67 -17t-19 -45q0 -17 5 -29t17 -20.5t33 -14.5t53 -11q61 -9 102.5 -21t67 -31t36.5 -47t11 -69
q0 -36 -17 -65t-47 -50q29 -20 44 -49.5t15 -73.5q0 -93 -56.5 -134t-168.5 -41q-66 0 -110.5 10.5t-72 33t-39 59t-11.5 89.5h140q0 -44 20.5 -61t71.5 -17q48 0 67 17t19 45q0 17 -5 29t-17 20.5t-33 14.5t-53 11q-61 9 -102.5 21t-67 31t-36.5 47t-11 69zM310 178
q14 -3 26.5 -5.5t24.5 -5.5q29 24 29 59q0 19 -5.5 32.5t-20 23.5t-40 17.5t-64.5 14.5q-14 2 -26.5 5t-24.5 6q-29 -24 -29 -59q0 -19 5.5 -32.5t20 -23.5t40 -17.5t64.5 -14.5z" />
    <glyph glyph-name="dieresis" unicode="&#xa8;" horiz-adv-x="352" 
d="M40 660h106v-106h-106v106zM206 660h106v-106h-106v106z" />
    <glyph glyph-name="copyright" unicode="&#xa9;" horiz-adv-x="790" 
d="M60 398q0 66 20 119t61 90t104 57t150 20q86 0 149 -20t104.5 -57t61.5 -90t20 -119v-146q0 -66 -20 -119t-61.5 -90t-104.5 -57t-149 -20q-85 0 -148 20t-104.5 57t-62 90t-20.5 119v146zM154 256q0 -103 59 -152.5t182 -49.5t182 49.5t59 152.5v138q0 103 -59 152.5
t-182 49.5t-182 -49.5t-59 -152.5v-138zM393 430q-36 0 -48.5 -17t-12.5 -60v-58q0 -46 13 -61.5t48 -15.5q28 0 42 11t14 46h95q0 -39 -10.5 -65t-30 -41.5t-47.5 -21.5t-63 -6q-39 0 -69 7.5t-49.5 26.5t-29.5 49.5t-10 77.5v44q0 47 10 78t29.5 49.5t49.5 26t69 7.5
q36 0 64 -6t47.5 -21t29.5 -41t10 -66h-95q0 36 -14 46.5t-42 10.5z" />
    <glyph glyph-name="ordfeminine" unicode="&#xaa;" horiz-adv-x="438" 
d="M184 330q51 0 89 33v63l-91 -11q-43 -4 -43 -44q0 -20 12.5 -30.5t32.5 -10.5zM28 361q0 53 30.5 83t101.5 35l113 8v35q0 28 -13 40t-48 12t-47.5 -12.5t-12.5 -39.5h-109q0 69 39.5 104.5t129.5 35.5q93 0 132.5 -35t39.5 -105v-270h-81l-19 34q-55 -44 -122 -44
t-100.5 31.5t-33.5 87.5z" />
    <glyph glyph-name="guillemotleft" unicode="&#xab;" horiz-adv-x="533" 
d="M40 250l130 195h117l-132 -195l132 -195h-117zM246 250l130 195h117l-132 -195l132 -195h-117z" />
    <glyph glyph-name="logicalnot" unicode="&#xac;" horiz-adv-x="503" 
d="M462 403v-263h-98v165h-314v98h412z" />
    <glyph glyph-name="uni00AD" unicode="&#xad;" horiz-adv-x="350" 
d="M50 332h250v-114h-250v114z" />
    <glyph glyph-name="registered" unicode="&#xae;" horiz-adv-x="790" 
d="M399 266h-63v-120h-85v358h157q36 0 61.5 -5.5t42 -18.5t24 -35.5t7.5 -56.5q0 -46 -16.5 -70t-42.5 -38l68 -134h-93zM336 340h69q47 0 47 43q0 24 -10.5 33.5t-39.5 9.5h-66v-86zM60 398q0 66 20 119t61 90t104 57t150 20q86 0 149 -20t104.5 -57t61.5 -90t20 -119
v-146q0 -66 -20 -119t-61.5 -90t-104.5 -57t-149 -20q-85 0 -148 20t-104.5 57t-62 90t-20.5 119v146zM154 256q0 -103 59 -152.5t182 -49.5t182 49.5t59 152.5v138q0 103 -59 152.5t-182 49.5t-182 -49.5t-59 -152.5v-138z" />
    <glyph glyph-name="macron" unicode="&#xaf;" horiz-adv-x="390" 
d="M40 650h310v-86h-310v86z" />
    <glyph glyph-name="degree" unicode="&#xb0;" horiz-adv-x="378" 
d="M189 333q-40 0 -69.5 8t-49.5 27.5t-30 51t-10 78.5q0 46 10 77.5t30 51t49.5 27.5t69.5 8q79 0 119 -35.5t40 -128.5q0 -47 -10 -78.5t-30 -51t-50 -27.5t-69 -8zM189 413q31 0 46 17.5t15 67.5t-15 67.5t-46 17.5t-46.5 -17.5t-15.5 -67.5t15.5 -67.5t46.5 -17.5z" />
    <glyph glyph-name="plusminus" unicode="&#xb1;" horiz-adv-x="503" 
d="M50 396h157v158h98v-158h157v-98h-157v-158h-98v158h-157v98zM50 0v98h412v-98h-412z" />
    <glyph glyph-name="twosuperior" unicode="&#xb2;" horiz-adv-x="328" 
d="M61 553q0 56 28.5 79t79.5 23q31 0 51.5 -7t33 -20t17.5 -30.5t5 -39.5q0 -26 -10.5 -42.5t-26 -27.5t-33.5 -19t-33.5 -16t-26.5 -18.5t-11 -26.5h143v-59h-218v44q0 31 10.5 51t26.5 33t35 21.5t35 16t26.5 17t10.5 24.5q0 19 -7.5 29.5t-27.5 10.5q-19 0 -28 -10
t-9 -33h-71z" />
    <glyph glyph-name="threesuperior" unicode="&#xb3;" horiz-adv-x="335" 
d="M163 402q23 0 31.5 9.5t8.5 26.5q0 12 -4 19t-10 10t-13 4t-13 1h-32v57h29q17 0 27 6t10 28q0 14 -7 23t-29 9q-20 0 -29 -10t-9 -33h-70q0 51 25.5 76.5t82.5 25.5q63 0 85.5 -25.5t22.5 -64.5q0 -44 -39 -61q24 -9 34.5 -25.5t10.5 -42.5q0 -20 -4.5 -37t-16.5 -29
t-34 -19t-57 -7q-60 0 -86.5 24.5t-26.5 76.5h72q0 -42 41 -42z" />
    <glyph glyph-name="acute" unicode="&#xb4;" horiz-adv-x="235" 
d="M68 670h127l-72 -120h-83z" />
    <glyph glyph-name="paragraph" unicode="&#xb6;" horiz-adv-x="751" 
d="M60 403q0 70 16 117.5t47.5 76.5t78 41t107.5 12h322v-832h-96v740h-70v-740h-96v343h-62q-127 0 -187 58.5t-60 183.5z" />
    <glyph glyph-name="periodcentered" unicode="&#xb7;" horiz-adv-x="212" 
d="M35 398h142v-143h-142v143z" />
    <glyph glyph-name="cedilla" unicode="&#xb8;" horiz-adv-x="260" 
d="M148 -41q32 -4 52 -20t20 -54q0 -44 -24.5 -65t-86.5 -21h-69v62h67q21 0 28 6t7 18q0 13 -7 18.5t-28 5.5h-33l28 91h58z" />
    <glyph glyph-name="onesuperior" unicode="&#xb9;" horiz-adv-x="230" 
d="M98 349v241h-58v40l84 20h46v-301h-72z" />
    <glyph glyph-name="ordmasculine" unicode="&#xba;" horiz-adv-x="444" 
d="M402 427q0 -54 -11.5 -89.5t-34 -57t-56.5 -30t-78 -8.5q-45 0 -79 8.5t-56.5 30t-34 57t-11.5 89.5v50q0 54 11.5 89.5t34.5 56.5t56.5 30t78.5 9q44 0 77.5 -9t56.5 -30t34.5 -56.5t11.5 -89.5v-50zM151 419q0 -26 4 -43.5t12.5 -27.5t22 -14t32.5 -4t32 4t21.5 14
t12 27.5t3.5 43.5v66q0 52 -15.5 70.5t-53.5 18.5t-54.5 -18.5t-16.5 -70.5v-66z" />
    <glyph glyph-name="guillemotright" unicode="&#xbb;" horiz-adv-x="533" 
d="M363 55h-117l132 195l-132 195h117l130 -195zM157 55h-117l132 195l-132 195h117l130 -195z" />
    <glyph glyph-name="onequarter" unicode="&#xbc;" horiz-adv-x="605" 
d="M115 349v241h-58v40l84 20h46v-301h-72zM471 650h80l-421 -650h-80zM451 58h-132v55l119 188h85v-183h32v-60h-32v-58h-72v58zM451 118v107l-65 -107h65z" />
    <glyph glyph-name="onehalf" unicode="&#xbd;" horiz-adv-x="627" 
d="M115 349v241h-58v40l84 20h46v-301h-72zM360 204q0 56 28.5 79t79.5 23q31 0 51.5 -7t33 -20t17.5 -30.5t5 -39.5q0 -26 -10.5 -42.5t-26 -27.5t-33.5 -19t-33.5 -16t-26.5 -18.5t-11 -26.5h143v-59h-218v44q0 31 10.5 51t26.5 33t35 21.5t35 16t26.5 17t10.5 24.5
q0 19 -7.5 29.5t-27.5 10.5q-19 0 -28 -10t-9 -33h-71zM471 650h80l-421 -650h-80z" />
    <glyph glyph-name="threequarters" unicode="&#xbe;" horiz-adv-x="625" 
d="M491 650h80l-421 -650h-80zM471 58h-132v55l119 188h85v-183h32v-60h-32v-58h-72v58zM471 118v107l-65 -107h65zM163 402q23 0 31.5 9.5t8.5 26.5q0 12 -4 19t-10 10t-13 4t-13 1h-32v57h29q17 0 27 6t10 28q0 14 -7 23t-29 9q-20 0 -29 -10t-9 -33h-70q0 51 25.5 76.5
t82.5 25.5q63 0 85.5 -25.5t22.5 -64.5q0 -44 -39 -61q24 -9 34.5 -25.5t10.5 -42.5q0 -20 -4.5 -37t-16.5 -29t-34 -19t-57 -7q-60 0 -86.5 24.5t-26.5 76.5h72q0 -42 41 -42z" />
    <glyph glyph-name="questiondown" unicode="&#xbf;" horiz-adv-x="530" 
d="M327 139q-48 0 -77 -4.5t-44.5 -16.5t-20.5 -32.5t-5 -52.5q0 -25 6.5 -40.5t18.5 -24t27.5 -11.5t33.5 -3t34 3t27.5 12t18 25t6.5 42h138q0 -103 -52.5 -150.5t-171.5 -47.5q-120 0 -173 47.5t-53 147.5q0 53 11.5 89.5t34 60t54.5 36t73 17.5l8 68h89zM339 354h-146
v146h146v-146z" />
    <glyph glyph-name="Agrave" unicode="&#xc0;" horiz-adv-x="537" 
d="M355 124h-175l-26 -124h-144l169 650h177l171 -650h-145zM206 236h123l-60 293h-2zM323 700h-83l-72 120h127z" />
    <glyph glyph-name="Aacute" unicode="&#xc1;" horiz-adv-x="537" 
d="M355 124h-175l-26 -124h-144l169 650h177l171 -650h-145zM206 236h123l-60 293h-2zM254 820h127l-72 -120h-83z" />
    <glyph glyph-name="Acircumflex" unicode="&#xc2;" horiz-adv-x="537" 
d="M355 124h-175l-26 -124h-144l169 650h177l171 -650h-145zM206 236h123l-60 293h-2zM396 700h-88l-40 54l-39 -54h-88l54 120h147z" />
    <glyph glyph-name="Atilde" unicode="&#xc3;" horiz-adv-x="537" 
d="M355 124h-175l-26 -124h-144l169 650h177l171 -650h-145zM206 236h123l-60 293h-2zM331 786q14 0 23 8t9 26h78q0 -69 -23 -94.5t-71 -25.5q-26 0 -42.5 7t-30 16t-27 16t-32.5 7q-14 0 -23 -8t-9 -26h-78q0 69 23 94.5t71 25.5q26 0 42.5 -7t30 -16t27 -16t32.5 -7z" />
    <glyph glyph-name="Adieresis" unicode="&#xc4;" horiz-adv-x="537" 
d="M355 124h-175l-26 -124h-144l169 650h177l171 -650h-145zM206 236h123l-60 293h-2zM132 810h106v-106h-106v106zM298 810h106v-106h-106v106z" />
    <glyph glyph-name="Aring" unicode="&#xc5;" horiz-adv-x="537" 
d="M355 124h-175l-26 -124h-144l169 650h177l171 -650h-145zM206 236h123l-60 293h-2zM268 872q53 0 82 -23t29 -70t-29 -71t-82 -24t-82 24t-29 71t29 70t82 23zM268 742q39 0 39 37q0 35 -39 35t-39 -35q0 -37 39 -37z" />
    <glyph glyph-name="AE" unicode="&#xc6;" horiz-adv-x="822" 
d="M392 124h-184l-54 -124h-144l302 650h480v-114h-260v-151h226v-110h-226v-161h260v-114h-400v124zM260 236h132v296h-2z" />
    <glyph glyph-name="Ccedilla" unicode="&#xc7;" horiz-adv-x="548" 
d="M279 102q48 0 69.5 23t21.5 81h138q0 -109 -49 -161t-158 -56l-8 -30q32 -4 52 -20t20 -54q0 -44 -24.5 -65t-86.5 -21h-69v62h67q21 0 28 6t7 18q0 13 -7 18.5t-28 5.5h-33l24 80q-103 8 -150.5 64t-47.5 168v208q0 124 58.5 178.5t175.5 54.5q121 0 175 -51.5
t54 -165.5h-138q0 55 -21.5 79t-69.5 24q-46 0 -70 -22t-24 -76v-250q0 -54 24.5 -76t69.5 -22z" />
    <glyph glyph-name="Egrave" unicode="&#xc8;" horiz-adv-x="503" 
d="M60 650h398v-114h-258v-151h224v-110h-224v-161h258v-114h-398v650zM329 700h-83l-72 120h127z" />
    <glyph glyph-name="Eacute" unicode="&#xc9;" horiz-adv-x="503" 
d="M60 650h398v-114h-258v-151h224v-110h-224v-161h258v-114h-398v650zM249 820h127l-72 -120h-83z" />
    <glyph glyph-name="Ecircumflex" unicode="&#xca;" horiz-adv-x="503" 
d="M60 650h398v-114h-258v-151h224v-110h-224v-161h258v-114h-398v650zM395 700h-88l-40 54l-39 -54h-88l54 120h147z" />
    <glyph glyph-name="Edieresis" unicode="&#xcb;" horiz-adv-x="503" 
d="M60 650h398v-114h-258v-151h224v-110h-224v-161h258v-114h-398v650zM124 810h106v-106h-106v106zM290 810h106v-106h-106v106z" />
    <glyph glyph-name="Igrave" unicode="&#xcc;" horiz-adv-x="260" 
d="M60 650h140v-650h-140v650zM195 700h-83l-72 120h127z" />
    <glyph glyph-name="Iacute" unicode="&#xcd;" horiz-adv-x="260" 
d="M60 650h140v-650h-140v650zM115 820h127l-72 -120h-83z" />
    <glyph glyph-name="Icircumflex" unicode="&#xce;" horiz-adv-x="260" 
d="M60 650h140v-650h-140v650zM259 700h-88l-40 54l-39 -54h-88l54 120h147z" />
    <glyph glyph-name="Idieresis" unicode="&#xcf;" horiz-adv-x="260" 
d="M60 650h140v-650h-140v650zM-5 810h106v-106h-106v106zM161 810h106v-106h-106v106z" />
    <glyph glyph-name="Eth" unicode="&#xd0;" horiz-adv-x="572" 
d="M60 0v283h-52v93h52v274h222q61 0 107 -9t76.5 -34.5t46 -70.5t15.5 -116v-188q0 -71 -15.5 -116.5t-46 -71t-76.5 -35t-107 -9.5h-222zM200 536v-160h90v-93h-90v-169h79q33 0 54 7t33 21t16.5 34t4.5 46v214q0 36 -7 56.5t-20.5 30t-33.5 11.5t-47 2h-79z" />
    <glyph glyph-name="Ntilde" unicode="&#xd1;" horiz-adv-x="584" 
d="M524 0h-161l-176 453l5 -179v-274h-132v650h161l176 -453l-5 184v269h132v-650zM355 786q14 0 23 8t9 26h78q0 -69 -23 -94.5t-71 -25.5q-26 0 -42.5 7t-30 16t-27 16t-32.5 7q-14 0 -23 -8t-9 -26h-78q0 69 23 94.5t71 25.5q26 0 42.5 -7t30 -16t27 -16t32.5 -7z" />
    <glyph glyph-name="Ograve" unicode="&#xd2;" horiz-adv-x="569" 
d="M384 444q0 54 -23.5 79t-76.5 25q-51 0 -75 -24.5t-24 -78.5v-239q0 -54 23.5 -79t75.5 -25q53 0 76.5 25t23.5 79v238zM45 440q0 113 56.5 167.5t182.5 54.5t183 -54t57 -168v-230q0 -113 -57 -167.5t-183 -54.5t-182.5 54.5t-56.5 167.5v230zM362 700h-83l-72 120h127z
" />
    <glyph glyph-name="Oacute" unicode="&#xd3;" horiz-adv-x="569" 
d="M384 444q0 54 -23.5 79t-76.5 25q-51 0 -75 -24.5t-24 -78.5v-239q0 -54 23.5 -79t75.5 -25q53 0 76.5 25t23.5 79v238zM45 440q0 113 56.5 167.5t182.5 54.5t183 -54t57 -168v-230q0 -113 -57 -167.5t-183 -54.5t-182.5 54.5t-56.5 167.5v230zM270 820h127l-72 -120h-83
z" />
    <glyph glyph-name="Ocircumflex" unicode="&#xd4;" horiz-adv-x="569" 
d="M384 444q0 54 -23.5 79t-76.5 25q-51 0 -75 -24.5t-24 -78.5v-239q0 -54 23.5 -79t75.5 -25q53 0 76.5 25t23.5 79v238zM45 440q0 113 56.5 167.5t182.5 54.5t183 -54t57 -168v-230q0 -113 -57 -167.5t-183 -54.5t-182.5 54.5t-56.5 167.5v230zM412 700h-88l-40 54
l-39 -54h-88l54 120h147z" />
    <glyph glyph-name="Otilde" unicode="&#xd5;" horiz-adv-x="569" 
d="M384 444q0 54 -23.5 79t-76.5 25q-51 0 -75 -24.5t-24 -78.5v-239q0 -54 23.5 -79t75.5 -25q53 0 76.5 25t23.5 79v238zM45 440q0 113 56.5 167.5t182.5 54.5t183 -54t57 -168v-230q0 -113 -57 -167.5t-183 -54.5t-182.5 54.5t-56.5 167.5v230zM347 786q14 0 23 8t9 26
h78q0 -69 -23 -94.5t-71 -25.5q-26 0 -42.5 7t-30 16t-27 16t-32.5 7q-14 0 -23 -8t-9 -26h-78q0 69 23 94.5t71 25.5q26 0 42.5 -7t30 -16t27 -16t32.5 -7z" />
    <glyph glyph-name="Odieresis" unicode="&#xd6;" horiz-adv-x="569" 
d="M384 444q0 54 -23.5 79t-76.5 25q-51 0 -75 -24.5t-24 -78.5v-239q0 -54 23.5 -79t75.5 -25q53 0 76.5 25t23.5 79v238zM45 440q0 113 56.5 167.5t182.5 54.5t183 -54t57 -168v-230q0 -113 -57 -167.5t-183 -54.5t-182.5 54.5t-56.5 167.5v230zM148 810h106v-106h-106
v106zM314 810h106v-106h-106v106z" />
    <glyph glyph-name="multiply" unicode="&#xd7;" horiz-adv-x="462" 
d="M50 163l112 111l-112 112l69 69l112 -111l111 111l69 -70l-111 -111l112 -111l-69 -70l-112 112l-112 -112z" />
    <glyph glyph-name="Oslash" unicode="&#xd8;" horiz-adv-x="569" 
d="M45 440q0 113 56.5 167.5t182.5 54.5q91 0 146 -28l22 36h84l-51 -83q39 -54 39 -147v-230q0 -113 -57 -167.5t-183 -54.5q-90 0 -145 27l-21 -35h-85l50 83q-38 51 -38 147v230zM185 230l177 291q-24 27 -78 27q-51 0 -75 -24.5t-24 -78.5v-215zM384 419l-177 -291
q23 -26 77 -26q53 0 76.5 25t23.5 79v213z" />
    <glyph glyph-name="Ugrave" unicode="&#xd9;" horiz-adv-x="575" 
d="M195 650v-449q0 -52 21 -75t72 -23t71.5 23t20.5 75v449h140v-442q0 -63 -15 -105t-44 -67.5t-72.5 -36t-100.5 -10.5t-101 10.5t-73 36t-44 67.5t-15 105v442h140zM365 700h-83l-72 120h127z" />
    <glyph glyph-name="Uacute" unicode="&#xda;" horiz-adv-x="575" 
d="M195 650v-449q0 -52 21 -75t72 -23t71.5 23t20.5 75v449h140v-442q0 -63 -15 -105t-44 -67.5t-72.5 -36t-100.5 -10.5t-101 10.5t-73 36t-44 67.5t-15 105v442h140zM277 820h127l-72 -120h-83z" />
    <glyph glyph-name="Ucircumflex" unicode="&#xdb;" horiz-adv-x="575" 
d="M195 650v-449q0 -52 21 -75t72 -23t71.5 23t20.5 75v449h140v-442q0 -63 -15 -105t-44 -67.5t-72.5 -36t-100.5 -10.5t-101 10.5t-73 36t-44 67.5t-15 105v442h140zM415 700h-88l-40 54l-39 -54h-88l54 120h147z" />
    <glyph glyph-name="Udieresis" unicode="&#xdc;" horiz-adv-x="575" 
d="M195 650v-449q0 -52 21 -75t72 -23t71.5 23t20.5 75v449h140v-442q0 -63 -15 -105t-44 -67.5t-72.5 -36t-100.5 -10.5t-101 10.5t-73 36t-44 67.5t-15 105v442h140zM151 810h106v-106h-106v106zM317 810h106v-106h-106v106z" />
    <glyph glyph-name="Yacute" unicode="&#xdd;" horiz-adv-x="528" 
d="M194 239l-184 411h151l102 -285h2l102 285h151l-184 -411v-239h-140v239zM254 820h127l-72 -120h-83z" />
    <glyph glyph-name="Thorn" unicode="&#xde;" horiz-adv-x="543" 
d="M190 111v-111h-140v650h140v-111h86q58 0 101.5 -9.5t72.5 -33.5t43.5 -66t14.5 -107q0 -60 -14.5 -100.5t-43.5 -65.5t-72.5 -35.5t-101.5 -10.5h-86zM279 229q48 0 67 19.5t19 76.5q0 71 -12 116q-20 -15 -38 -17.5t-36 -2.5h-89v-192h89z" />
    <glyph glyph-name="germandbls" unicode="&#xdf;" horiz-adv-x="551" 
d="M306 98q37 0 56.5 21.5t19.5 72.5q0 32 -5.5 53.5t-18.5 35t-34.5 19t-54.5 5.5h-19v114h6q35 0 52.5 16t17.5 63q0 35 -15 52.5t-53 17.5t-51.5 -19t-13.5 -52v-497h-136v488q0 102 50.5 147t148.5 45q108 0 155.5 -43t47.5 -126q0 -59 -28.5 -93.5t-67.5 -46.5
q77 -14 116 -56.5t39 -127.5q0 -48 -10 -85t-32.5 -62.5t-59.5 -38.5t-92 -13q-23 0 -47.5 3.5t-44.5 8.5v109q19 -5 35 -8t39 -3z" />
    <glyph glyph-name="agrave" unicode="&#xe0;" horiz-adv-x="525" 
d="M227 98q33 0 61 10.5t51 30.5v78l-114 -13q-54 -6 -54 -55q0 -26 15.5 -38.5t40.5 -12.5zM35 136q0 66 37 104t126 44l141 10v44q0 35 -16.5 49.5t-59.5 14.5q-44 0 -60 -15.5t-16 -49.5h-134q0 86 48 130.5t161 44.5q116 0 164.5 -43t48.5 -131v-338h-99l-23 43
q-68 -55 -153 -55q-84 0 -124.5 39.5t-40.5 108.5zM331 550h-83l-72 120h127z" />
    <glyph glyph-name="aacute" unicode="&#xe1;" horiz-adv-x="525" 
d="M227 98q33 0 61 10.5t51 30.5v78l-114 -13q-54 -6 -54 -55q0 -26 15.5 -38.5t40.5 -12.5zM35 136q0 66 37 104t126 44l141 10v44q0 35 -16.5 49.5t-59.5 14.5q-44 0 -60 -15.5t-16 -49.5h-134q0 86 48 130.5t161 44.5q116 0 164.5 -43t48.5 -131v-338h-99l-23 43
q-68 -55 -153 -55q-84 0 -124.5 39.5t-40.5 108.5zM249 670h127l-72 -120h-83z" />
    <glyph glyph-name="acircumflex" unicode="&#xe2;" horiz-adv-x="525" 
d="M227 98q33 0 61 10.5t51 30.5v78l-114 -13q-54 -6 -54 -55q0 -26 15.5 -38.5t40.5 -12.5zM35 136q0 66 37 104t126 44l141 10v44q0 35 -16.5 49.5t-59.5 14.5q-44 0 -60 -15.5t-16 -49.5h-134q0 86 48 130.5t161 44.5q116 0 164.5 -43t48.5 -131v-338h-99l-23 43
q-68 -55 -153 -55q-84 0 -124.5 39.5t-40.5 108.5zM390 550h-88l-40 54l-39 -54h-88l54 120h147z" />
    <glyph glyph-name="atilde" unicode="&#xe3;" horiz-adv-x="525" 
d="M227 98q33 0 61 10.5t51 30.5v78l-114 -13q-54 -6 -54 -55q0 -26 15.5 -38.5t40.5 -12.5zM35 136q0 66 37 104t126 44l141 10v44q0 35 -16.5 49.5t-59.5 14.5q-44 0 -60 -15.5t-16 -49.5h-134q0 86 48 130.5t161 44.5q116 0 164.5 -43t48.5 -131v-338h-99l-23 43
q-68 -55 -153 -55q-84 0 -124.5 39.5t-40.5 108.5zM325 636q14 0 23 8t9 26h78q0 -69 -23 -94.5t-71 -25.5q-26 0 -42.5 7t-30 16t-27 16t-32.5 7q-14 0 -23 -8t-9 -26h-78q0 69 23 94.5t71 25.5q26 0 42.5 -7t30 -16t27 -16t32.5 -7z" />
    <glyph glyph-name="adieresis" unicode="&#xe4;" horiz-adv-x="525" 
d="M227 98q33 0 61 10.5t51 30.5v78l-114 -13q-54 -6 -54 -55q0 -26 15.5 -38.5t40.5 -12.5zM35 136q0 66 37 104t126 44l141 10v44q0 35 -16.5 49.5t-59.5 14.5q-44 0 -60 -15.5t-16 -49.5h-134q0 86 48 130.5t161 44.5q116 0 164.5 -43t48.5 -131v-338h-99l-23 43
q-68 -55 -153 -55q-84 0 -124.5 39.5t-40.5 108.5zM126 660h106v-106h-106v106zM292 660h106v-106h-106v106z" />
    <glyph glyph-name="aring" unicode="&#xe5;" horiz-adv-x="525" 
d="M227 98q33 0 61 10.5t51 30.5v78l-114 -13q-54 -6 -54 -55q0 -26 15.5 -38.5t40.5 -12.5zM35 136q0 66 37 104t126 44l141 10v44q0 35 -16.5 49.5t-59.5 14.5q-44 0 -60 -15.5t-16 -49.5h-134q0 86 48 130.5t161 44.5q116 0 164.5 -43t48.5 -131v-338h-99l-23 43
q-68 -55 -153 -55q-84 0 -124.5 39.5t-40.5 108.5zM263 722q53 0 82 -23t29 -70t-29 -71t-82 -24t-82 24t-29 71t29 70t82 23zM263 592q39 0 39 37q0 35 -39 35t-39 -35q0 -37 39 -37z" />
    <glyph glyph-name="ae" unicode="&#xe6;" horiz-adv-x="818" 
d="M237 98q36 0 56.5 6.5t31 20t13.5 33t3 45.5h-114q-28 0 -41 -15.5t-13 -38.5q0 -51 64 -51zM645 295q0 34 -5 55t-15 32.5t-25.5 15.5t-36.5 4q-51 0 -69 -24t-18 -83h169zM239 -12q-55 0 -93.5 10t-62.5 29.5t-35 48t-11 65.5q0 80 44 117t133 37h127v43
q0 35 -16.5 49.5t-59.5 14.5q-44 0 -60 -15.5t-16 -49.5h-134q0 86 48 130.5t161 44.5q53 0 89.5 -9t60.5 -27q26 20 63 28t87 8q53 0 93.5 -10.5t67.5 -37t40.5 -71t13.5 -113.5v-75h-303q0 -52 17 -79.5t71 -27.5q34 0 59.5 1t47 3.5t41.5 5.5t44 7v-109q-43 -8 -90.5 -13
t-100.5 -5q-54 0 -92.5 9.5t-65.5 32.5q-28 -23 -69 -32.5t-99 -9.5z" />
    <glyph glyph-name="ccedilla" unicode="&#xe7;" horiz-adv-x="517" 
d="M264 402q-26 0 -43 -6t-27 -19t-14 -34t-4 -52v-82q0 -33 4.5 -54t15 -34t27 -18t41.5 -5q40 0 59.5 16t19.5 66h134q0 -53 -13 -89t-38 -58t-61 -32.5t-81 -11.5l-8 -30q32 -4 52 -20t20 -54q0 -44 -24.5 -65t-86.5 -21h-69v62h67q21 0 28 6t7 18q0 13 -7 18.5t-28 5.5
h-33l24 80q-47 3 -82 17t-58 41t-34.5 69t-11.5 103v62q0 67 14 112t42 71t70 37t98 11q51 0 90.5 -9t67 -30.5t41.5 -58.5t14 -94h-134q0 26 -5 42t-15 25t-25 12t-34 3z" />
    <glyph glyph-name="egrave" unicode="&#xe8;" horiz-adv-x="514" 
d="M345 295q0 33 -5 54t-15.5 32.5t-26 16t-35.5 4.5q-51 0 -69 -24t-18 -83h169zM264 98q34 0 59.5 1t47 3.5t41.5 5.5t44 7v-109q-43 -8 -90.5 -13t-100.5 -5q-56 0 -98 10.5t-70 37t-42.5 71t-14.5 113.5v61q0 67 14 112t42 71t70 37t98 11q53 0 93.5 -10.5t67.5 -37
t40.5 -71t13.5 -113.5v-75h-303q0 -52 17 -79.5t71 -27.5zM334 550h-83l-72 120h127z" />
    <glyph glyph-name="eacute" unicode="&#xe9;" horiz-adv-x="514" 
d="M345 295q0 33 -5 54t-15.5 32.5t-26 16t-35.5 4.5q-51 0 -69 -24t-18 -83h169zM264 98q34 0 59.5 1t47 3.5t41.5 5.5t44 7v-109q-43 -8 -90.5 -13t-100.5 -5q-56 0 -98 10.5t-70 37t-42.5 71t-14.5 113.5v61q0 67 14 112t42 71t70 37t98 11q53 0 93.5 -10.5t67.5 -37
t40.5 -71t13.5 -113.5v-75h-303q0 -52 17 -79.5t71 -27.5zM255 670h127l-72 -120h-83z" />
    <glyph glyph-name="ecircumflex" unicode="&#xea;" horiz-adv-x="514" 
d="M345 295q0 33 -5 54t-15.5 32.5t-26 16t-35.5 4.5q-51 0 -69 -24t-18 -83h169zM264 98q34 0 59.5 1t47 3.5t41.5 5.5t44 7v-109q-43 -8 -90.5 -13t-100.5 -5q-56 0 -98 10.5t-70 37t-42.5 71t-14.5 113.5v61q0 67 14 112t42 71t70 37t98 11q53 0 93.5 -10.5t67.5 -37
t40.5 -71t13.5 -113.5v-75h-303q0 -52 17 -79.5t71 -27.5zM396 550h-88l-40 54l-39 -54h-88l54 120h147z" />
    <glyph glyph-name="edieresis" unicode="&#xeb;" horiz-adv-x="514" 
d="M345 295q0 33 -5 54t-15.5 32.5t-26 16t-35.5 4.5q-51 0 -69 -24t-18 -83h169zM264 98q34 0 59.5 1t47 3.5t41.5 5.5t44 7v-109q-43 -8 -90.5 -13t-100.5 -5q-56 0 -98 10.5t-70 37t-42.5 71t-14.5 113.5v61q0 67 14 112t42 71t70 37t98 11q53 0 93.5 -10.5t67.5 -37
t40.5 -71t13.5 -113.5v-75h-303q0 -52 17 -79.5t71 -27.5zM131 660h106v-106h-106v106zM297 660h106v-106h-106v106z" />
    <glyph glyph-name="igrave" unicode="&#xec;" horiz-adv-x="246" 
d="M55 500h136v-500h-136v500zM201 550h-83l-72 120h127z" />
    <glyph glyph-name="iacute" unicode="&#xed;" horiz-adv-x="246" 
d="M55 500h136v-500h-136v500zM111 670h127l-72 -120h-83z" />
    <glyph glyph-name="icircumflex" unicode="&#xee;" horiz-adv-x="246" 
d="M55 500h136v-500h-136v500zM253 550h-88l-40 54l-39 -54h-88l54 120h147z" />
    <glyph glyph-name="idieresis" unicode="&#xef;" horiz-adv-x="246" 
d="M55 500h136v-500h-136v500zM-11 660h106v-106h-106v106zM155 660h106v-106h-106v106z" />
    <glyph glyph-name="eth" unicode="&#xf0;" horiz-adv-x="541" 
d="M498 662l-43 -41q36 -46 36 -143v-279q0 -44 -9.5 -82t-35 -66.5t-69 -44.5t-110.5 -16q-68 0 -112 15t-69.5 44t-35.5 71.5t-10 97.5q0 49 9.5 89t32 68.5t59 44t89.5 15.5q40 0 69.5 -7.5t55.5 -19.5v79q0 23 -4 36l-46 -44l-37 39l49 47q-21 9 -58 9q-17 0 -31.5 -1.5
t-28.5 -3.5v107q11 3 28.5 5.5t34.5 2.5q51 0 87.5 -7t63.5 -21l48 45zM264 344q-51 0 -69.5 -28.5t-18.5 -94.5q0 -61 17.5 -91t74.5 -30q48 0 67.5 23t19.5 80v109q-17 14 -40 23t-51 9z" />
    <glyph glyph-name="ntilde" unicode="&#xf1;" horiz-adv-x="537" 
d="M154 500l23 -43q43 32 79 43.5t80 11.5q40 0 68.5 -9t47 -29.5t27 -54.5t8.5 -84v-335h-136v331q0 42 -13.5 56.5t-49.5 14.5q-23 0 -50 -11t-47 -31v-360h-136v500h99zM330 636q14 0 23 8t9 26h78q0 -69 -23 -94.5t-71 -25.5q-26 0 -42.5 7t-30 16t-27 16t-32.5 7
q-14 0 -23 -8t-9 -26h-78q0 69 23 94.5t71 25.5q26 0 42.5 -7t30 -16t27 -16t32.5 -7z" />
    <glyph glyph-name="ograve" unicode="&#xf2;" horiz-adv-x="527" 
d="M176 209q0 -66 20 -88.5t68 -22.5q24 0 40.5 5t27 17.5t15 34t4.5 54.5v82q0 33 -4.5 54.5t-15 34t-27 17.5t-40.5 5q-48 0 -68 -22.5t-20 -88.5v-82zM487 219q0 -68 -14 -112.5t-42 -70.5t-70 -37t-97 -11q-56 0 -98 11t-70 37t-42 70.5t-14 112.5v62q0 67 14 111.5
t42.5 71t70 37.5t97.5 11q55 0 96.5 -11t69.5 -37.5t42.5 -71t14.5 -111.5v-62zM322 550h-83l-72 120h127z" />
    <glyph glyph-name="oacute" unicode="&#xf3;" horiz-adv-x="527" 
d="M176 209q0 -66 20 -88.5t68 -22.5q24 0 40.5 5t27 17.5t15 34t4.5 54.5v82q0 33 -4.5 54.5t-15 34t-27 17.5t-40.5 5q-48 0 -68 -22.5t-20 -88.5v-82zM487 219q0 -68 -14 -112.5t-42 -70.5t-70 -37t-97 -11q-56 0 -98 11t-70 37t-42 70.5t-14 112.5v62q0 67 14 111.5
t42.5 71t70 37.5t97.5 11q55 0 96.5 -11t69.5 -37.5t42.5 -71t14.5 -111.5v-62zM251 670h127l-72 -120h-83z" />
    <glyph glyph-name="ocircumflex" unicode="&#xf4;" horiz-adv-x="527" 
d="M176 209q0 -66 20 -88.5t68 -22.5q24 0 40.5 5t27 17.5t15 34t4.5 54.5v82q0 33 -4.5 54.5t-15 34t-27 17.5t-40.5 5q-48 0 -68 -22.5t-20 -88.5v-82zM487 219q0 -68 -14 -112.5t-42 -70.5t-70 -37t-97 -11q-56 0 -98 11t-70 37t-42 70.5t-14 112.5v62q0 67 14 111.5
t42.5 71t70 37.5t97.5 11q55 0 96.5 -11t69.5 -37.5t42.5 -71t14.5 -111.5v-62zM391 550h-88l-40 54l-39 -54h-88l54 120h147z" />
    <glyph glyph-name="otilde" unicode="&#xf5;" horiz-adv-x="527" 
d="M176 209q0 -66 20 -88.5t68 -22.5q24 0 40.5 5t27 17.5t15 34t4.5 54.5v82q0 33 -4.5 54.5t-15 34t-27 17.5t-40.5 5q-48 0 -68 -22.5t-20 -88.5v-82zM487 219q0 -68 -14 -112.5t-42 -70.5t-70 -37t-97 -11q-56 0 -98 11t-70 37t-42 70.5t-14 112.5v62q0 67 14 111.5
t42.5 71t70 37.5t97.5 11q55 0 96.5 -11t69.5 -37.5t42.5 -71t14.5 -111.5v-62zM321 636q14 0 23 8t9 26h78q0 -69 -23 -94.5t-71 -25.5q-26 0 -42.5 7t-30 16t-27 16t-32.5 7q-14 0 -23 -8t-9 -26h-78q0 69 23 94.5t71 25.5q26 0 42.5 -7t30 -16t27 -16t32.5 -7z" />
    <glyph glyph-name="odieresis" unicode="&#xf6;" horiz-adv-x="527" 
d="M176 209q0 -66 20 -88.5t68 -22.5q24 0 40.5 5t27 17.5t15 34t4.5 54.5v82q0 33 -4.5 54.5t-15 34t-27 17.5t-40.5 5q-48 0 -68 -22.5t-20 -88.5v-82zM487 219q0 -68 -14 -112.5t-42 -70.5t-70 -37t-97 -11q-56 0 -98 11t-70 37t-42 70.5t-14 112.5v62q0 67 14 111.5
t42.5 71t70 37.5t97.5 11q55 0 96.5 -11t69.5 -37.5t42.5 -71t14.5 -111.5v-62zM127 660h106v-106h-106v106zM293 660h106v-106h-106v106z" />
    <glyph glyph-name="divide" unicode="&#xf7;" horiz-adv-x="512" 
d="M462 324v-98h-412v98h412zM202 484h108v-108h-108v108zM202 174h108v-108h-108v108z" />
    <glyph glyph-name="oslash" unicode="&#xf8;" horiz-adv-x="527" 
d="M491 219q0 -68 -14.5 -112.5t-42.5 -70.5t-70.5 -37t-97.5 -11q-79 0 -126 20l-19 -28h-76l43 64q-24 27 -36 69.5t-12 105.5v62q0 67 14.5 111.5t43 71t70.5 37.5t98 11q37 0 68 -5t56 -16l20 29h76l-44 -65q24 -27 36.5 -69.5t12.5 -104.5v-62zM353 291v15.5t-1 15.5
l-143 -212q10 -7 24 -9.5t33 -2.5q24 0 40.5 5t27 17.5t15 34t4.5 54.5v82zM178 209v-16t1 -15l143 212q-19 12 -56 12q-48 0 -68 -22.5t-20 -88.5v-82z" />
    <glyph glyph-name="ugrave" unicode="&#xf9;" 
d="M386 0l-23 43q-43 -32 -79 -43.5t-80 -11.5q-40 0 -68 9t-46 29.5t-26.5 54.5t-8.5 84v335h136v-331q0 -42 13.5 -56.5t49.5 -14.5q23 0 49 11t46 31v360h136v-500h-99zM347 550h-83l-72 120h127z" />
    <glyph glyph-name="uacute" unicode="&#xfa;" 
d="M386 0l-23 43q-43 -32 -79 -43.5t-80 -11.5q-40 0 -68 9t-46 29.5t-26.5 54.5t-8.5 84v335h136v-331q0 -42 13.5 -56.5t49.5 -14.5q23 0 49 11t46 31v360h136v-500h-99zM256 670h127l-72 -120h-83z" />
    <glyph glyph-name="ucircumflex" unicode="&#xfb;" 
d="M386 0l-23 43q-43 -32 -79 -43.5t-80 -11.5q-40 0 -68 9t-46 29.5t-26.5 54.5t-8.5 84v335h136v-331q0 -42 13.5 -56.5t49.5 -14.5q23 0 49 11t46 31v360h136v-500h-99zM397 550h-88l-40 54l-39 -54h-88l54 120h147z" />
    <glyph glyph-name="udieresis" unicode="&#xfc;" 
d="M386 0l-23 43q-43 -32 -79 -43.5t-80 -11.5q-40 0 -68 9t-46 29.5t-26.5 54.5t-8.5 84v335h136v-331q0 -42 13.5 -56.5t49.5 -14.5q23 0 49 11t46 31v360h136v-500h-99zM134 660h106v-106h-106v106zM300 660h106v-106h-106v106z" />
    <glyph glyph-name="yacute" unicode="&#xfd;" horiz-adv-x="496" 
d="M10 500h146l94 -333h2l87 333h147l-187 -558q-11 -34 -26 -57.5t-37 -38.5t-53.5 -21.5t-75.5 -6.5q-13 0 -35 2.5t-36 7.5v109q15 -5 32.5 -7t33.5 -2q35 0 50.5 12.5t27.5 44.5l6 17zM244 670h127l-72 -120h-83z" />
    <glyph glyph-name="thorn" unicode="&#xfe;" horiz-adv-x="539" 
d="M191 140q19 -18 45 -30t58 -12q35 0 52 17.5t17 71.5v126q0 54 -17 71.5t-52 17.5q-32 0 -58 -12t-45 -30v-220zM55 670h136v-201q37 23 68.5 33t61.5 10q40 0 73 -8.5t56 -31t36 -63.5t13 -105v-108q0 -65 -13 -105.5t-36 -63t-56 -31t-73 -8.5q-30 0 -61.5 10t-68.5 33
v-201h-136v840z" />
    <glyph glyph-name="ydieresis" unicode="&#xff;" horiz-adv-x="496" 
d="M10 500h146l94 -333h2l87 333h147l-187 -558q-11 -34 -26 -57.5t-37 -38.5t-53.5 -21.5t-75.5 -6.5q-13 0 -35 2.5t-36 7.5v109q15 -5 32.5 -7t33.5 -2q35 0 50.5 12.5t27.5 44.5l6 17zM112 660h106v-106h-106v106zM278 660h106v-106h-106v106z" />
    <glyph glyph-name="Amacron" unicode="&#x100;" horiz-adv-x="537" 
d="M355 124h-175l-26 -124h-144l169 650h177l171 -650h-145zM206 236h123l-60 293h-2zM113 800h310v-86h-310v86z" />
    <glyph glyph-name="amacron" unicode="&#x101;" horiz-adv-x="525" 
d="M227 98q33 0 61 10.5t51 30.5v78l-114 -13q-54 -6 -54 -55q0 -26 15.5 -38.5t40.5 -12.5zM35 136q0 66 37 104t126 44l141 10v44q0 35 -16.5 49.5t-59.5 14.5q-44 0 -60 -15.5t-16 -49.5h-134q0 86 48 130.5t161 44.5q116 0 164.5 -43t48.5 -131v-338h-99l-23 43
q-68 -55 -153 -55q-84 0 -124.5 39.5t-40.5 108.5zM107 650h310v-86h-310v86z" />
    <glyph glyph-name="Abreve" unicode="&#x102;" horiz-adv-x="537" 
d="M355 124h-175l-26 -124h-144l169 650h177l171 -650h-145zM206 236h123l-60 293h-2zM268 696q-64 0 -95 35t-31 99h78q0 -53 48 -53t48 53h78q0 -64 -31 -99t-95 -35z" />
    <glyph glyph-name="abreve" unicode="&#x103;" horiz-adv-x="525" 
d="M227 98q33 0 61 10.5t51 30.5v78l-114 -13q-54 -6 -54 -55q0 -26 15.5 -38.5t40.5 -12.5zM35 136q0 66 37 104t126 44l141 10v44q0 35 -16.5 49.5t-59.5 14.5q-44 0 -60 -15.5t-16 -49.5h-134q0 86 48 130.5t161 44.5q116 0 164.5 -43t48.5 -131v-338h-99l-23 43
q-68 -55 -153 -55q-84 0 -124.5 39.5t-40.5 108.5zM262 546q-64 0 -95 35t-31 99h78q0 -53 48 -53t48 53h78q0 -64 -31 -99t-95 -35z" />
    <glyph glyph-name="Aogonek" unicode="&#x104;" horiz-adv-x="537" 
d="M355 124h-175l-26 -124h-144l169 650h177l171 -650q-20 -17 -31 -33t-11 -37q0 -14 9 -20t24 -6h9v-78h-57q-38 0 -61 17t-23 54q0 28 15.5 55.5t44.5 47.5h-64zM206 236h123l-60 293h-2z" />
    <glyph glyph-name="aogonek" unicode="&#x105;" horiz-adv-x="525" 
d="M334 -103q0 25 12 49.5t35 44.5l-28 52q-68 -55 -153 -55q-84 0 -124.5 39.5t-40.5 108.5q0 66 37 104t126 44l141 10v44q0 35 -16.5 49.5t-59.5 14.5q-44 0 -60 -15.5t-16 -49.5h-134q0 86 48 130.5t161 44.5q116 0 164.5 -43t48.5 -131v-338q-20 -17 -31 -33t-11 -37
q0 -14 9 -20t24 -6h9v-78h-57q-38 0 -61 17t-23 54zM227 98q33 0 61 10.5t51 30.5v78l-114 -13q-54 -6 -54 -55q0 -26 15.5 -38.5t40.5 -12.5z" />
    <glyph glyph-name="Cacute" unicode="&#x106;" horiz-adv-x="548" 
d="M279 102q48 0 69.5 23t21.5 81h138q0 -114 -54 -166t-175 -52t-177.5 56t-56.5 177v208q0 124 58.5 178.5t175.5 54.5q121 0 175 -51.5t54 -165.5h-138q0 55 -21.5 79t-69.5 24q-46 0 -70 -22t-24 -76v-250q0 -54 24.5 -76t69.5 -22zM264 820h127l-72 -120h-83z" />
    <glyph glyph-name="cacute" unicode="&#x107;" horiz-adv-x="517" 
d="M264 402q-26 0 -43 -6t-27 -19t-14 -34t-4 -52v-82q0 -33 4.5 -54t15 -34t27 -18t41.5 -5q40 0 59.5 16t19.5 66h134q0 -56 -14.5 -93t-42 -59t-67 -31t-89.5 -9q-57 0 -99 11t-69.5 38t-41.5 71.5t-14 110.5v62q0 67 14 112t42 71t70 37t98 11q51 0 90.5 -9t67 -30.5
t41.5 -58.5t14 -94h-134q0 26 -5 42t-15 25t-25 12t-34 3zM252 670h127l-72 -120h-83z" />
    <glyph glyph-name="Ccircumflex" unicode="&#x108;" horiz-adv-x="548" 
d="M279 102q48 0 69.5 23t21.5 81h138q0 -114 -54 -166t-175 -52t-177.5 56t-56.5 177v208q0 124 58.5 178.5t175.5 54.5q121 0 175 -51.5t54 -165.5h-138q0 55 -21.5 79t-69.5 24q-46 0 -70 -22t-24 -76v-250q0 -54 24.5 -76t69.5 -22zM402 700h-88l-40 54l-39 -54h-88
l54 120h147z" />
    <glyph glyph-name="ccircumflex" unicode="&#x109;" horiz-adv-x="517" 
d="M264 402q-26 0 -43 -6t-27 -19t-14 -34t-4 -52v-82q0 -33 4.5 -54t15 -34t27 -18t41.5 -5q40 0 59.5 16t19.5 66h134q0 -56 -14.5 -93t-42 -59t-67 -31t-89.5 -9q-57 0 -99 11t-69.5 38t-41.5 71.5t-14 110.5v62q0 67 14 112t42 71t70 37t98 11q51 0 90.5 -9t67 -30.5
t41.5 -58.5t14 -94h-134q0 26 -5 42t-15 25t-25 12t-34 3zM392 550h-88l-40 54l-39 -54h-88l54 120h147z" />
    <glyph glyph-name="Cdotaccent" unicode="&#x10a;" horiz-adv-x="548" 
d="M279 102q48 0 69.5 23t21.5 81h138q0 -114 -54 -166t-175 -52t-177.5 56t-56.5 177v208q0 124 58.5 178.5t175.5 54.5q121 0 175 -51.5t54 -165.5h-138q0 55 -21.5 79t-69.5 24q-46 0 -70 -22t-24 -76v-250q0 -54 24.5 -76t69.5 -22zM222 810h106v-106h-106v106z" />
    <glyph glyph-name="cdotaccent" unicode="&#x10b;" horiz-adv-x="517" 
d="M264 402q-26 0 -43 -6t-27 -19t-14 -34t-4 -52v-82q0 -33 4.5 -54t15 -34t27 -18t41.5 -5q40 0 59.5 16t19.5 66h134q0 -56 -14.5 -93t-42 -59t-67 -31t-89.5 -9q-57 0 -99 11t-69.5 38t-41.5 71.5t-14 110.5v62q0 67 14 112t42 71t70 37t98 11q51 0 90.5 -9t67 -30.5
t41.5 -58.5t14 -94h-134q0 26 -5 42t-15 25t-25 12t-34 3zM209 660h106v-106h-106v106z" />
    <glyph glyph-name="Ccaron" unicode="&#x10c;" horiz-adv-x="548" 
d="M279 102q48 0 69.5 23t21.5 81h138q0 -114 -54 -166t-175 -52t-177.5 56t-56.5 177v208q0 124 58.5 178.5t175.5 54.5q121 0 175 -51.5t54 -165.5h-138q0 55 -21.5 79t-69.5 24q-46 0 -70 -22t-24 -76v-250q0 -54 24.5 -76t69.5 -22zM348 700h-147l-54 120h88l39 -54
l40 54h88z" />
    <glyph glyph-name="ccaron" unicode="&#x10d;" horiz-adv-x="517" 
d="M264 402q-26 0 -43 -6t-27 -19t-14 -34t-4 -52v-82q0 -33 4.5 -54t15 -34t27 -18t41.5 -5q40 0 59.5 16t19.5 66h134q0 -56 -14.5 -93t-42 -59t-67 -31t-89.5 -9q-57 0 -99 11t-69.5 38t-41.5 71.5t-14 110.5v62q0 67 14 112t42 71t70 37t98 11q51 0 90.5 -9t67 -30.5
t41.5 -58.5t14 -94h-134q0 26 -5 42t-15 25t-25 12t-34 3zM339 550h-147l-54 120h88l39 -54l40 54h88z" />
    <glyph glyph-name="Dcaron" unicode="&#x10e;" horiz-adv-x="572" 
d="M200 536v-422h79q33 0 54 7t33 21t16.5 34t4.5 46v214q0 36 -7 56.5t-20.5 30t-33.5 11.5t-47 2h-79zM60 0v650h222q61 0 107 -9t76.5 -34.5t46 -70.5t15.5 -116v-188q0 -71 -15.5 -116.5t-46 -71t-76.5 -35t-107 -9.5h-222zM341 700h-147l-54 120h88l39 -54l40 54h88z
" />
    <glyph glyph-name="dcaron" unicode="&#x10f;" horiz-adv-x="539" 
d="M516 670h82l-29 -150h-53v150zM362 43q-43 -32 -79 -43.5t-66 -11.5q-38 0 -70.5 8t-56 31t-37 63.5t-13.5 105.5v108q0 64 13 105t36 63.5t56 31t73 8.5q30 0 61.5 -10t68.5 -33v201h136v-670h-99zM176 187q0 -54 17 -71.5t52 -17.5q32 0 58 12t45 30v220q-19 18 -45 30
t-58 12q-35 0 -52 -17.5t-17 -71.5v-126z" />
    <glyph glyph-name="Dcroat" unicode="&#x110;" horiz-adv-x="572" 
d="M60 0v283h-52v93h52v274h222q61 0 107 -9t76.5 -34.5t46 -70.5t15.5 -116v-188q0 -71 -15.5 -116.5t-46 -71t-76.5 -35t-107 -9.5h-222zM200 536v-160h90v-93h-90v-169h79q33 0 54 7t33 21t16.5 34t4.5 46v214q0 36 -7 56.5t-20.5 30t-33.5 11.5t-47 2h-79z" />
    <glyph glyph-name="dcroat" unicode="&#x111;" horiz-adv-x="539" 
d="M362 43q-43 -32 -79 -43.5t-66 -11.5q-38 0 -70.5 8t-56 31t-37 63.5t-13.5 105.5v108q0 64 13 105t36 63.5t56 31t73 8.5q30 0 61.5 -10t68.5 -33v92h-154v78h154v31h136v-670h-99zM176 187q0 -54 17 -71.5t52 -17.5q32 0 58 12t45 30v220q-19 18 -45 30t-58 12
q-35 0 -52 -17.5t-17 -71.5v-126z" />
    <glyph glyph-name="Emacron" unicode="&#x112;" horiz-adv-x="503" 
d="M60 650h398v-114h-258v-151h224v-110h-224v-161h258v-114h-398v650zM109 800h310v-86h-310v86z" />
    <glyph glyph-name="emacron" unicode="&#x113;" horiz-adv-x="514" 
d="M345 295q0 33 -5 54t-15.5 32.5t-26 16t-35.5 4.5q-51 0 -69 -24t-18 -83h169zM264 98q34 0 59.5 1t47 3.5t41.5 5.5t44 7v-109q-43 -8 -90.5 -13t-100.5 -5q-56 0 -98 10.5t-70 37t-42.5 71t-14.5 113.5v61q0 67 14 112t42 71t70 37t98 11q53 0 93.5 -10.5t67.5 -37
t40.5 -71t13.5 -113.5v-75h-303q0 -52 17 -79.5t71 -27.5zM107 650h310v-86h-310v86z" />
    <glyph glyph-name="Ebreve" unicode="&#x114;" horiz-adv-x="503" 
d="M60 650h398v-114h-258v-151h224v-110h-224v-161h258v-114h-398v650zM262 696q-64 0 -95 35t-31 99h78q0 -53 48 -53t48 53h78q0 -64 -31 -99t-95 -35z" />
    <glyph glyph-name="ebreve" unicode="&#x115;" horiz-adv-x="514" 
d="M345 295q0 33 -5 54t-15.5 32.5t-26 16t-35.5 4.5q-51 0 -69 -24t-18 -83h169zM264 98q34 0 59.5 1t47 3.5t41.5 5.5t44 7v-109q-43 -8 -90.5 -13t-100.5 -5q-56 0 -98 10.5t-70 37t-42.5 71t-14.5 113.5v61q0 67 14 112t42 71t70 37t98 11q53 0 93.5 -10.5t67.5 -37
t40.5 -71t13.5 -113.5v-75h-303q0 -52 17 -79.5t71 -27.5zM265 546q-64 0 -95 35t-31 99h78q0 -53 48 -53t48 53h78q0 -64 -31 -99t-95 -35z" />
    <glyph glyph-name="Edotaccent" unicode="&#x116;" horiz-adv-x="503" 
d="M60 650h398v-114h-258v-151h224v-110h-224v-161h258v-114h-398v650zM208 810h106v-106h-106v106z" />
    <glyph glyph-name="edotaccent" unicode="&#x117;" horiz-adv-x="514" 
d="M345 295q0 33 -5 54t-15.5 32.5t-26 16t-35.5 4.5q-51 0 -69 -24t-18 -83h169zM264 98q34 0 59.5 1t47 3.5t41.5 5.5t44 7v-109q-43 -8 -90.5 -13t-100.5 -5q-56 0 -98 10.5t-70 37t-42.5 71t-14.5 113.5v61q0 67 14 112t42 71t70 37t98 11q53 0 93.5 -10.5t67.5 -37
t40.5 -71t13.5 -113.5v-75h-303q0 -52 17 -79.5t71 -27.5zM212 660h106v-106h-106v106z" />
    <glyph glyph-name="Eogonek" unicode="&#x118;" horiz-adv-x="503" 
d="M60 650h398v-114h-258v-151h224v-110h-224v-161h258v-114q-20 -17 -31 -33t-11 -37q0 -14 9 -20t24 -6h9v-78h-57q-38 0 -61 17t-23 54q0 28 15.5 55.5t44.5 47.5h-317v650z" />
    <glyph glyph-name="eogonek" unicode="&#x119;" horiz-adv-x="514" 
d="M264 98q34 0 59.5 1t47 3.5t41.5 5.5t44 7v-109q-20 -17 -31 -33t-11 -37q0 -14 9 -20t24 -6h9v-78h-57q-38 0 -61 17t-23 54q0 23 11 46.5t32 43.5q-23 -2 -46 -3.5t-47 -1.5q-56 0 -98 10.5t-70 37t-42.5 71t-14.5 113.5v61q0 67 14 112t42 71t70 37t98 11
q53 0 93.5 -10.5t67.5 -37t40.5 -71t13.5 -113.5v-75h-303q0 -52 17 -79.5t71 -27.5zM345 295q0 33 -5 54t-15.5 32.5t-26 16t-35.5 4.5q-51 0 -69 -24t-18 -83h169z" />
    <glyph glyph-name="Ecaron" unicode="&#x11a;" horiz-adv-x="503" 
d="M60 650h398v-114h-258v-151h224v-110h-224v-161h258v-114h-398v650zM336 700h-147l-54 120h88l39 -54l40 54h88z" />
    <glyph glyph-name="ecaron" unicode="&#x11b;" horiz-adv-x="514" 
d="M345 295q0 33 -5 54t-15.5 32.5t-26 16t-35.5 4.5q-51 0 -69 -24t-18 -83h169zM264 98q34 0 59.5 1t47 3.5t41.5 5.5t44 7v-109q-43 -8 -90.5 -13t-100.5 -5q-56 0 -98 10.5t-70 37t-42.5 71t-14.5 113.5v61q0 67 14 112t42 71t70 37t98 11q53 0 93.5 -10.5t67.5 -37
t40.5 -71t13.5 -113.5v-75h-303q0 -52 17 -79.5t71 -27.5zM341 550h-147l-54 120h88l39 -54l40 54h88z" />
    <glyph glyph-name="Gcircumflex" unicode="&#x11c;" horiz-adv-x="570" 
d="M279 -12q-121 0 -177.5 55.5t-56.5 177.5v207q0 123 59.5 178.5t174.5 55.5q121 0 176 -51.5t55 -165.5h-140q0 51 -21.5 77t-69.5 26q-46 0 -70 -22t-24 -76v-250q0 -57 25.5 -77.5t73.5 -20.5t72 23t24 82v68h-103v110h243v-385h-68l-23 43q-29 -28 -64.5 -41.5
t-85.5 -13.5zM412 700h-88l-40 54l-39 -54h-88l54 120h147z" />
    <glyph glyph-name="gcircumflex" unicode="&#x11d;" horiz-adv-x="539" 
d="M484 -3q0 -98 -53 -138.5t-167 -40.5q-15 0 -35 1t-42 3.5t-43.5 6t-40.5 8.5v112q79 -21 159 -21q45 0 65.5 15.5t20.5 53.5v46q-37 -23 -68.5 -33t-61.5 -10q-40 0 -73 8.5t-56 31t-36 63t-13 105.5v96q0 65 13.5 105.5t37 63.5t56 31t70.5 8q30 0 66 -11.5t79 -43.5
l23 43h99v-503zM348 370q-19 14 -46 23t-55 9q-39 0 -55 -21.5t-16 -77.5v-94q0 -56 16 -77.5t55 -21.5q28 0 54.5 9t46.5 23v228zM393 550h-88l-40 54l-39 -54h-88l54 120h147z" />
    <glyph glyph-name="Gbreve" unicode="&#x11e;" horiz-adv-x="570" 
d="M279 -12q-121 0 -177.5 55.5t-56.5 177.5v207q0 123 59.5 178.5t174.5 55.5q121 0 176 -51.5t55 -165.5h-140q0 51 -21.5 77t-69.5 26q-46 0 -70 -22t-24 -76v-250q0 -57 25.5 -77.5t73.5 -20.5t72 23t24 82v68h-103v110h243v-385h-68l-23 43q-29 -28 -64.5 -41.5
t-85.5 -13.5zM279 696q-64 0 -95 35t-31 99h78q0 -53 48 -53t48 53h78q0 -64 -31 -99t-95 -35z" />
    <glyph glyph-name="gbreve" unicode="&#x11f;" horiz-adv-x="539" 
d="M484 -3q0 -98 -53 -138.5t-167 -40.5q-15 0 -35 1t-42 3.5t-43.5 6t-40.5 8.5v112q79 -21 159 -21q45 0 65.5 15.5t20.5 53.5v46q-37 -23 -68.5 -33t-61.5 -10q-40 0 -73 8.5t-56 31t-36 63t-13 105.5v96q0 65 13.5 105.5t37 63.5t56 31t70.5 8q30 0 66 -11.5t79 -43.5
l23 43h99v-503zM348 370q-19 14 -46 23t-55 9q-39 0 -55 -21.5t-16 -77.5v-94q0 -56 16 -77.5t55 -21.5q28 0 54.5 9t46.5 23v228zM264 546q-64 0 -95 35t-31 99h78q0 -53 48 -53t48 53h78q0 -64 -31 -99t-95 -35z" />
    <glyph glyph-name="Gdotaccent" unicode="&#x120;" horiz-adv-x="570" 
d="M279 -12q-121 0 -177.5 55.5t-56.5 177.5v207q0 123 59.5 178.5t174.5 55.5q121 0 176 -51.5t55 -165.5h-140q0 51 -21.5 77t-69.5 26q-46 0 -70 -22t-24 -76v-250q0 -57 25.5 -77.5t73.5 -20.5t72 23t24 82v68h-103v110h243v-385h-68l-23 43q-29 -28 -64.5 -41.5
t-85.5 -13.5zM225 810h106v-106h-106v106z" />
    <glyph glyph-name="gdotaccent" unicode="&#x121;" horiz-adv-x="539" 
d="M484 -3q0 -98 -53 -138.5t-167 -40.5q-15 0 -35 1t-42 3.5t-43.5 6t-40.5 8.5v112q79 -21 159 -21q45 0 65.5 15.5t20.5 53.5v46q-37 -23 -68.5 -33t-61.5 -10q-40 0 -73 8.5t-56 31t-36 63t-13 105.5v96q0 65 13.5 105.5t37 63.5t56 31t70.5 8q30 0 66 -11.5t79 -43.5
l23 43h99v-503zM348 370q-19 14 -46 23t-55 9q-39 0 -55 -21.5t-16 -77.5v-94q0 -56 16 -77.5t55 -21.5q28 0 54.5 9t46.5 23v228zM211 660h106v-106h-106v106z" />
    <glyph glyph-name="Gcommaaccent" unicode="&#x122;" horiz-adv-x="570" 
d="M279 -12q-121 0 -177.5 55.5t-56.5 177.5v207q0 123 59.5 178.5t174.5 55.5q121 0 176 -51.5t55 -165.5h-140q0 51 -21.5 77t-69.5 26q-46 0 -70 -22t-24 -76v-250q0 -57 25.5 -77.5t73.5 -20.5t72 23t24 82v68h-103v110h243v-385h-68l-23 43q-29 -28 -64.5 -41.5
t-85.5 -13.5zM235 -50h127l-72 -120h-83z" />
    <glyph glyph-name="gcommaaccent" unicode="&#x123;" horiz-adv-x="539" 
d="M484 -3q0 -98 -53 -138.5t-167 -40.5q-15 0 -35 1t-42 3.5t-43.5 6t-40.5 8.5v112q79 -21 159 -21q45 0 65.5 15.5t20.5 53.5v46q-37 -23 -68.5 -33t-61.5 -10q-40 0 -73 8.5t-56 31t-36 63t-13 105.5v96q0 65 13.5 105.5t37 63.5t56 31t70.5 8q30 0 66 -11.5t79 -43.5
l23 43h99v-503zM348 370q-19 14 -46 23t-55 9q-39 0 -55 -21.5t-16 -77.5v-94q0 -56 16 -77.5t55 -21.5q28 0 54.5 9t46.5 23v228zM327.004 549.997h-126.992l71.9961 119.992h82.9941z" />
    <glyph glyph-name="Hcircumflex" unicode="&#x124;" horiz-adv-x="579" 
d="M519 0h-140v275h-179v-275h-140v650h140v-265h179v265h140v-650zM417 700h-88l-40 54l-39 -54h-88l54 120h147z" />
    <glyph glyph-name="hcircumflex" unicode="&#x125;" horiz-adv-x="535" 
d="M191 670v-203q38 26 71.5 35.5t73.5 9.5t68 -9t46 -29.5t26.5 -54.5t8.5 -84v-335h-136v331q0 42 -13.5 56.5t-49.5 14.5q-23 0 -49 -11t-46 -31v-360h-136v670h136zM460 550h-88l-40 54l-39 -54h-88l54 120h147z" />
    <glyph glyph-name="Hbar" unicode="&#x126;" horiz-adv-x="579" 
d="M519 563h30v-80h-30v-483h-140v275h-179v-275h-140v483h-30v80h30v87h140v-87h179v87h140v-87zM379 385v98h-179v-98h179z" />
    <glyph glyph-name="hbar" unicode="&#x127;" horiz-adv-x="535" 
d="M191 670v-31h257v-78h-257v-94q38 26 71.5 35.5t73.5 9.5t68 -9t46 -29.5t26.5 -54.5t8.5 -84v-335h-136v331q0 42 -13.5 56.5t-49.5 14.5q-23 0 -49 -11t-46 -31v-360h-136v670h136z" />
    <glyph glyph-name="Itilde" unicode="&#x128;" horiz-adv-x="260" 
d="M184 786q22 0 22 34h76q0 -69 -22 -94.5t-66 -25.5q-24 0 -38.5 7t-25 16t-20.5 16t-25 7q-22 0 -22 -34h-76q0 69 22.5 94.5t65.5 25.5q24 0 38.5 -7t25 -16t20.5 -16t25 -7zM60 650h140v-650h-140v650z" />
    <glyph glyph-name="itilde" unicode="&#x129;" horiz-adv-x="246" 
d="M173 636q22 0 22 34h76q0 -69 -22 -94.5t-66 -25.5q-24 0 -38.5 7t-25 16t-20.5 16t-25 7q-22 0 -22 -34h-76q0 69 22.5 94.5t65.5 25.5q24 0 38.5 -7t25 -16t20.5 -16t25 -7zM55 500h136v-500h-136v500z" />
    <glyph glyph-name="Imacron" unicode="&#x12a;" horiz-adv-x="260" 
d="M5 800h250v-86h-250v86zM60 650h140v-650h-140v650z" />
    <glyph glyph-name="imacron" unicode="&#x12b;" horiz-adv-x="246" 
d="M-2 650h250v-86h-250v86zM55 500h136v-500h-136v500z" />
    <glyph glyph-name="Ibreve" unicode="&#x12c;" horiz-adv-x="260" 
d="M60 650h140v-650h-140v650zM131 696q-64 0 -95 35t-31 99h78q0 -53 48 -53t48 53h78q0 -64 -31 -99t-95 -35z" />
    <glyph glyph-name="ibreve" unicode="&#x12d;" horiz-adv-x="246" 
d="M55 500h136v-500h-136v500zM125 546q-64 0 -95 35t-31 99h78q0 -53 48 -53t48 53h78q0 -64 -31 -99t-95 -35z" />
    <glyph glyph-name="Iogonek" unicode="&#x12e;" horiz-adv-x="260" 
d="M60 650h140v-650q-20 -17 -31 -33t-11 -37q0 -14 9 -20t24 -6h9v-78h-57q-38 0 -61 17t-23 54q0 28 15.5 55.5t44.5 47.5h-59v650z" />
    <glyph glyph-name="iogonek" unicode="&#x12f;" horiz-adv-x="246" 
d="M55 500h136v-500q-20 -17 -31 -33t-11 -37q0 -14 9 -20t24 -6h9v-78h-57q-38 0 -61 17t-23 54q0 28 15.5 55.5t44.5 47.5h-55v500zM55 670h136v-126h-136v126z" />
    <glyph glyph-name="Idotaccent" unicode="&#x130;" horiz-adv-x="260" 
d="M60 650h140v-650h-140v650zM77 810h106v-106h-106v106z" />
    <glyph glyph-name="dotlessi" unicode="&#x131;" horiz-adv-x="246" 
d="M55 500h136v-500h-136v500z" />
    <glyph glyph-name="Jcircumflex" unicode="&#x134;" horiz-adv-x="360" 
d="M65 536v114h235v-488q0 -43 -5.5 -75.5t-24 -54.5t-53.5 -33t-95 -11q-25 0 -49.5 3.5t-47.5 8.5v114q13 -4 36 -8t42 -4q35 0 46 13.5t11 44.5v376h-95zM307 700h-88l-40 54l-39 -54h-88l54 120h147z" />
    <glyph glyph-name="jcircumflex" unicode="&#x135;" horiz-adv-x="246" 
d="M191 -40q0 -80 -34.5 -111t-101.5 -31q-27 0 -51.5 3t-41.5 8v107q10 -2 25 -3.5t29 -1.5q21 0 30 9t9 33v527h136v-540zM250 550h-88l-40 54l-39 -54h-88l54 120h147z" />
    <glyph glyph-name="Kcommaaccent" unicode="&#x136;" horiz-adv-x="523" 
d="M313 336l205 -336h-160l-158 276v-276h-140v650h140v-266l152 266h161zM212 -50h127l-72 -120h-83z" />
    <glyph glyph-name="kcommaaccent" unicode="&#x137;" horiz-adv-x="495" 
d="M191 0h-136v670h136v-363h2l128 193h156l-168 -232l176 -268h-161l-131 224h-2v-224zM195 -50h127l-72 -120h-83z" />
    <glyph glyph-name="kgreenlandic" unicode="&#x138;" horiz-adv-x="495" 
d="M191 0h-136v500h136v-193h2l128 193h156l-168 -232l176 -268h-161l-131 224h-2v-224z" />
    <glyph glyph-name="Lacute" unicode="&#x139;" horiz-adv-x="418" 
d="M60 650h140v-536h198v-114h-338v650zM119 820h127l-72 -120h-83z" />
    <glyph glyph-name="lacute" unicode="&#x13a;" horiz-adv-x="246" 
d="M55 670h136v-670h-136v670zM108 820h127l-72 -120h-83z" />
    <glyph glyph-name="Lcommaaccent" unicode="&#x13b;" horiz-adv-x="418" 
d="M60 650h140v-536h198v-114h-338v650zM159 -50h127l-72 -120h-83z" />
    <glyph glyph-name="lcommaaccent" unicode="&#x13c;" horiz-adv-x="246" 
d="M55 670h136v-670h-136v670zM62 -50h127l-72 -120h-83z" />
    <glyph glyph-name="Lcaron" unicode="&#x13d;" horiz-adv-x="418" 
d="M233 670h82l-29 -150h-53v150zM60 650h140v-536h198v-114h-338v650z" />
    <glyph glyph-name="lcaron" unicode="&#x13e;" horiz-adv-x="246" 
d="M223 670h82l-29 -150h-53v150zM55 670h136v-670h-136v670z" />
    <glyph glyph-name="Ldot" unicode="&#x13f;" horiz-adv-x="418" 
d="M240 391h122v-122h-122v122zM60 650h140v-536h198v-114h-338v650z" />
    <glyph glyph-name="ldot" unicode="&#x140;" horiz-adv-x="365" 
d="M223 391h122v-122h-122v122zM55 670h136v-670h-136v670z" />
    <glyph glyph-name="Lslash" unicode="&#x141;" horiz-adv-x="418" 
d="M60 239l-44 -13v96l44 13v315h140v-273l44 13v-96l-44 -13v-167h198v-114h-338v239z" />
    <glyph glyph-name="lslash" unicode="&#x142;" horiz-adv-x="246" 
d="M54 240l-45 -14v96l45 14v334h138v-293l45 13v-96l-45 -13v-281h-138v240z" />
    <glyph glyph-name="Nacute" unicode="&#x143;" horiz-adv-x="584" 
d="M524 0h-161l-176 453l5 -179v-274h-132v650h161l176 -453l-5 184v269h132v-650zM269 820h127l-72 -120h-83z" />
    <glyph glyph-name="nacute" unicode="&#x144;" horiz-adv-x="537" 
d="M154 500l23 -43q43 32 79 43.5t80 11.5q40 0 68.5 -9t47 -29.5t27 -54.5t8.5 -84v-335h-136v331q0 42 -13.5 56.5t-49.5 14.5q-23 0 -50 -11t-47 -31v-360h-136v500h99zM250 670h127l-72 -120h-83z" />
    <glyph glyph-name="Ncommaaccent" unicode="&#x145;" horiz-adv-x="584" 
d="M524 0h-161l-176 453l5 -179v-274h-132v650h161l176 -453l-5 184v269h132v-650zM242 -50h127l-72 -120h-83z" />
    <glyph glyph-name="ncommaaccent" unicode="&#x146;" horiz-adv-x="537" 
d="M154 500l23 -43q43 32 79 43.5t80 11.5q40 0 68.5 -9t47 -29.5t27 -54.5t8.5 -84v-335h-136v331q0 42 -13.5 56.5t-49.5 14.5q-23 0 -50 -11t-47 -31v-360h-136v500h99zM218 -50h127l-72 -120h-83z" />
    <glyph glyph-name="Ncaron" unicode="&#x147;" horiz-adv-x="584" 
d="M524 0h-161l-176 453l5 -179v-274h-132v650h161l176 -453l-5 184v269h132v-650zM365 700h-147l-54 120h88l39 -54l40 54h88z" />
    <glyph glyph-name="ncaron" unicode="&#x148;" horiz-adv-x="537" 
d="M154 500l23 -43q43 32 79 43.5t80 11.5q40 0 68.5 -9t47 -29.5t27 -54.5t8.5 -84v-335h-136v331q0 42 -13.5 56.5t-49.5 14.5q-23 0 -50 -11t-47 -31v-360h-136v500h99zM341 550h-147l-54 120h88l39 -54l40 54h88z" />
    <glyph glyph-name="Eng" unicode="&#x14a;" horiz-adv-x="564" 
d="M514 650v-655q0 -43 -6.5 -75.5t-26.5 -54.5t-56 -33t-96 -11q-25 0 -46 3.5t-44 8.5v118q13 -4 36 -8t42 -4q30 0 43.5 16t13.5 42v3h-34q-39 112 -79 221.5t-79 221.5v-443h-132v650h174q39 -112 79 -221.5t79 -221.5v443h132z" />
    <glyph glyph-name="eng" unicode="&#x14b;" horiz-adv-x="535" 
d="M154 500l23 -43q43 32 79 43.5t80 11.5q40 0 68 -9t46 -29.5t26.5 -54.5t8.5 -84v-375q0 -80 -34.5 -111t-101.5 -31q-27 0 -51.5 3t-41.5 8v107q10 -2 25 -3.5t29 -1.5q21 0 30 9t9 33v358q0 42 -13.5 56.5t-49.5 14.5q-23 0 -49 -11t-46 -31v-360h-136v500h99z" />
    <glyph glyph-name="Omacron" unicode="&#x14c;" horiz-adv-x="569" 
d="M384 444q0 54 -23.5 79t-76.5 25q-51 0 -75 -24.5t-24 -78.5v-239q0 -54 23.5 -79t75.5 -25q53 0 76.5 25t23.5 79v238zM45 440q0 113 56.5 167.5t182.5 54.5t183 -54t57 -168v-230q0 -113 -57 -167.5t-183 -54.5t-182.5 54.5t-56.5 167.5v230zM129 800h310v-86h-310v86z
" />
    <glyph glyph-name="omacron" unicode="&#x14d;" horiz-adv-x="527" 
d="M176 209q0 -66 20 -88.5t68 -22.5q24 0 40.5 5t27 17.5t15 34t4.5 54.5v82q0 33 -4.5 54.5t-15 34t-27 17.5t-40.5 5q-48 0 -68 -22.5t-20 -88.5v-82zM487 219q0 -68 -14 -112.5t-42 -70.5t-70 -37t-97 -11q-56 0 -98 11t-70 37t-42 70.5t-14 112.5v62q0 67 14 111.5
t42.5 71t70 37.5t97.5 11q55 0 96.5 -11t69.5 -37.5t42.5 -71t14.5 -111.5v-62zM108 650h310v-86h-310v86z" />
    <glyph glyph-name="Obreve" unicode="&#x14e;" horiz-adv-x="569" 
d="M384 444q0 54 -23.5 79t-76.5 25q-51 0 -75 -24.5t-24 -78.5v-239q0 -54 23.5 -79t75.5 -25q53 0 76.5 25t23.5 79v238zM45 440q0 113 56.5 167.5t182.5 54.5t183 -54t57 -168v-230q0 -113 -57 -167.5t-183 -54.5t-182.5 54.5t-56.5 167.5v230zM284 696q-64 0 -95 35
t-31 99h78q0 -53 48 -53t48 53h78q0 -64 -31 -99t-95 -35z" />
    <glyph glyph-name="obreve" unicode="&#x14f;" horiz-adv-x="527" 
d="M176 209q0 -66 20 -88.5t68 -22.5q24 0 40.5 5t27 17.5t15 34t4.5 54.5v82q0 33 -4.5 54.5t-15 34t-27 17.5t-40.5 5q-48 0 -68 -22.5t-20 -88.5v-82zM487 219q0 -68 -14 -112.5t-42 -70.5t-70 -37t-97 -11q-56 0 -98 11t-70 37t-42 70.5t-14 112.5v62q0 67 14 111.5
t42.5 71t70 37.5t97.5 11q55 0 96.5 -11t69.5 -37.5t42.5 -71t14.5 -111.5v-62zM263 546q-64 0 -95 35t-31 99h78q0 -53 48 -53t48 53h78q0 -64 -31 -99t-95 -35z" />
    <glyph glyph-name="Ohungarumlaut" unicode="&#x150;" horiz-adv-x="569" 
d="M384 444q0 54 -23.5 79t-76.5 25q-51 0 -75 -24.5t-24 -78.5v-239q0 -54 23.5 -79t75.5 -25q53 0 76.5 25t23.5 79v238zM45 440q0 113 56.5 167.5t182.5 54.5t183 -54t57 -168v-230q0 -113 -57 -167.5t-183 -54.5t-182.5 54.5t-56.5 167.5v230zM192 820h117l-52 -120h-83
zM355 820h117l-72 -120h-83z" />
    <glyph glyph-name="ohungarumlaut" unicode="&#x151;" horiz-adv-x="527" 
d="M176 209q0 -66 20 -88.5t68 -22.5q24 0 40.5 5t27 17.5t15 34t4.5 54.5v82q0 33 -4.5 54.5t-15 34t-27 17.5t-40.5 5q-48 0 -68 -22.5t-20 -88.5v-82zM487 219q0 -68 -14 -112.5t-42 -70.5t-70 -37t-97 -11q-56 0 -98 11t-70 37t-42 70.5t-14 112.5v62q0 67 14 111.5
t42.5 71t70 37.5t97.5 11q55 0 96.5 -11t69.5 -37.5t42.5 -71t14.5 -111.5v-62zM170 670h117l-52 -120h-83zM333 670h117l-72 -120h-83z" />
    <glyph glyph-name="OE" unicode="&#x152;" horiz-adv-x="807" 
d="M374 114v422h-90q-51 0 -75 -24.5t-24 -78.5v-215q0 -54 23.5 -79t75.5 -25h90zM762 650v-114h-248v-151h214v-110h-214v-161h248v-114h-478q-126 0 -182.5 54.5t-56.5 167.5v206q0 113 56.5 167.5t182.5 54.5h478z" />
    <glyph glyph-name="oe" unicode="&#x153;" horiz-adv-x="825" 
d="M176 209q0 -66 20 -88.5t68 -22.5q24 0 40.5 5t27 17.5t15 34t4.5 54.5v82q0 33 -4.5 54.5t-15 34t-27 17.5t-40.5 5q-48 0 -68 -22.5t-20 -88.5v-82zM656 295q0 33 -5 54t-15.5 32.5t-26 16t-35.5 4.5q-51 0 -69 -24t-18 -83h169zM575 98q34 0 59.5 1t47 3.5t41.5 5.5
t44 7v-109q-43 -8 -90.5 -13t-100.5 -5t-91.5 9.5t-65.5 32.5q-26 -23 -64.5 -32.5t-90.5 -9.5q-57 0 -99 11t-69.5 37t-41.5 70.5t-14 112.5v62q0 67 14 111.5t42 71t70 37.5t98 11q52 0 90 -9.5t64 -32.5q27 23 65 32.5t92 9.5q53 0 93.5 -10.5t67.5 -37t40.5 -71
t13.5 -113.5v-75h-303q0 -52 17 -79.5t71 -27.5z" />
    <glyph glyph-name="Racute" unicode="&#x154;" horiz-adv-x="560" 
d="M60 650h223q59 0 103 -8.5t73 -32t43 -64.5t14 -107q0 -81 -26 -127t-79 -66l119 -245h-150l-104 228h-76v-228h-140v650zM283 338q48 0 70 20t22 79q0 57 -21.5 78t-69.5 21h-84v-198h83zM243 820h127l-72 -120h-83z" />
    <glyph glyph-name="racute" unicode="&#x155;" horiz-adv-x="339" 
d="M314 392q-35 0 -67.5 -10t-55.5 -28v-354h-136v500h96l22 -37q32 25 67.5 37t73.5 12v-120zM165 670h127l-72 -120h-83z" />
    <glyph glyph-name="Rcommaaccent" unicode="&#x156;" horiz-adv-x="560" 
d="M60 650h223q59 0 103 -8.5t73 -32t43 -64.5t14 -107q0 -81 -26 -127t-79 -66l119 -245h-150l-104 228h-76v-228h-140v650zM283 338q48 0 70 20t22 79q0 57 -21.5 78t-69.5 21h-84v-198h83zM230 -50h127l-72 -120h-83z" />
    <glyph glyph-name="rcommaaccent" unicode="&#x157;" horiz-adv-x="339" 
d="M314 392q-35 0 -67.5 -10t-55.5 -28v-354h-136v500h96l22 -37q32 25 67.5 37t73.5 12v-120zM62 -50h127l-72 -120h-83z" />
    <glyph glyph-name="Rcaron" unicode="&#x158;" horiz-adv-x="560" 
d="M60 650h223q59 0 103 -8.5t73 -32t43 -64.5t14 -107q0 -81 -26 -127t-79 -66l119 -245h-150l-104 228h-76v-228h-140v650zM283 338q48 0 70 20t22 79q0 57 -21.5 78t-69.5 21h-84v-198h83zM342 700h-147l-54 120h88l39 -54l40 54h88z" />
    <glyph glyph-name="rcaron" unicode="&#x159;" horiz-adv-x="339" 
d="M314 392q-35 0 -67.5 -10t-55.5 -28v-354h-136v500h96l22 -37q32 25 67.5 37t73.5 12v-120zM261 550h-147l-54 120h88l39 -54l40 54h88z" />
    <glyph glyph-name="Sacute" unicode="&#x15a;" horiz-adv-x="557" 
d="M372 193q0 19 -5 32t-19 23t-40 17.5t-69 15.5q-48 8 -84.5 21.5t-61.5 35.5t-37.5 55t-12.5 81q0 87 55.5 137.5t174.5 50.5q61 0 104.5 -10.5t71.5 -33.5t40.5 -59.5t12.5 -88.5h-140q0 42 -21 60t-69 18t-67.5 -19t-19.5 -56q0 -22 5 -37.5t18 -27t36 -19t60 -13.5
q61 -10 101 -24t64 -35t33.5 -51t9.5 -71q0 -58 -16.5 -97.5t-47.5 -64t-75 -35t-99 -10.5q-64 0 -109 11.5t-74 36.5t-42.5 64t-13.5 94h140q0 -51 23.5 -71.5t75.5 -20.5q54 0 76 20t22 71zM258 820h127l-72 -120h-83z" />
    <glyph glyph-name="sacute" unicode="&#x15b;" horiz-adv-x="501" 
d="M466 145q0 -29 -5 -57t-26 -50.5t-64 -36t-119 -13.5q-63 0 -105 10.5t-66.5 31.5t-35 52.5t-10.5 74.5h136q0 -35 18.5 -47t62.5 -12q42 0 60 11.5t18 35.5q0 16 -3.5 27t-14.5 18t-31 11t-53 7q-57 4 -93.5 15t-57.5 29t-29 44t-8 60q0 79 53.5 117.5t153.5 38.5
q58 0 98 -9t65 -29t36 -52.5t11 -80.5h-136q0 10 -1.5 20.5t-8.5 19.5t-22 15t-42 6q-44 0 -57.5 -14.5t-13.5 -35.5q0 -27 15.5 -39.5t65.5 -16.5q67 -6 108 -15.5t63.5 -27t30 -43.5t7.5 -65zM239 670h127l-72 -120h-83z" />
    <glyph glyph-name="Scircumflex" unicode="&#x15c;" horiz-adv-x="557" 
d="M372 193q0 19 -5 32t-19 23t-40 17.5t-69 15.5q-48 8 -84.5 21.5t-61.5 35.5t-37.5 55t-12.5 81q0 87 55.5 137.5t174.5 50.5q61 0 104.5 -10.5t71.5 -33.5t40.5 -59.5t12.5 -88.5h-140q0 42 -21 60t-69 18t-67.5 -19t-19.5 -56q0 -22 5 -37.5t18 -27t36 -19t60 -13.5
q61 -10 101 -24t64 -35t33.5 -51t9.5 -71q0 -58 -16.5 -97.5t-47.5 -64t-75 -35t-99 -10.5q-64 0 -109 11.5t-74 36.5t-42.5 64t-13.5 94h140q0 -51 23.5 -71.5t75.5 -20.5q54 0 76 20t22 71zM406 700h-88l-40 54l-39 -54h-88l54 120h147z" />
    <glyph glyph-name="scircumflex" unicode="&#x15d;" horiz-adv-x="501" 
d="M466 145q0 -29 -5 -57t-26 -50.5t-64 -36t-119 -13.5q-63 0 -105 10.5t-66.5 31.5t-35 52.5t-10.5 74.5h136q0 -35 18.5 -47t62.5 -12q42 0 60 11.5t18 35.5q0 16 -3.5 27t-14.5 18t-31 11t-53 7q-57 4 -93.5 15t-57.5 29t-29 44t-8 60q0 79 53.5 117.5t153.5 38.5
q58 0 98 -9t65 -29t36 -52.5t11 -80.5h-136q0 10 -1.5 20.5t-8.5 19.5t-22 15t-42 6q-44 0 -57.5 -14.5t-13.5 -35.5q0 -27 15.5 -39.5t65.5 -16.5q67 -6 108 -15.5t63.5 -27t30 -43.5t7.5 -65zM381 550h-88l-40 54l-39 -54h-88l54 120h147z" />
    <glyph glyph-name="Scedilla" unicode="&#x15e;" horiz-adv-x="557" 
d="M372 193q0 19 -5 32t-19 23t-40 17.5t-69 15.5q-48 8 -84.5 21.5t-61.5 35.5t-37.5 55t-12.5 81q0 87 55.5 137.5t174.5 50.5q61 0 104.5 -10.5t71.5 -33.5t40.5 -59.5t12.5 -88.5h-140q0 42 -21 60t-69 18t-67.5 -19t-19.5 -56q0 -22 5 -37.5t18 -27t36 -19t60 -13.5
q61 -10 101 -24t64 -35t33.5 -51t9.5 -71q0 -55 -15 -93.5t-43 -63t-68.5 -36t-90.5 -13.5l-8 -30q32 -4 52 -20t20 -54q0 -44 -24.5 -65t-86.5 -21h-69v62h67q21 0 28 6t7 18q0 13 -7 18.5t-28 5.5h-33l24 80q-107 7 -154.5 55t-47.5 150h140q0 -51 23.5 -71.5t75.5 -20.5
q54 0 76 20t22 71z" />
    <glyph glyph-name="scedilla" unicode="&#x15f;" horiz-adv-x="501" 
d="M466 145q0 -28 -4.5 -55t-23 -48.5t-57 -36t-105.5 -16.5l-8 -30q32 -4 52 -20t20 -54q0 -44 -24.5 -65t-86.5 -21h-69v62h67q21 0 28 6t7 18q0 13 -7 18.5t-28 5.5h-33l24 80q-53 3 -88 14.5t-56 32.5t-30 51t-9 70h136q0 -35 18.5 -47t62.5 -12q42 0 60 11.5t18 35.5
q0 16 -3.5 27t-14.5 18t-31 11t-53 7q-57 4 -93.5 15t-57.5 29t-29 44t-8 60q0 79 53.5 117.5t153.5 38.5q58 0 98 -9t65 -29t36 -52.5t11 -80.5h-136q0 10 -1.5 20.5t-8.5 19.5t-22 15t-42 6q-44 0 -57.5 -14.5t-13.5 -35.5q0 -27 15.5 -39.5t65.5 -16.5q67 -6 108 -15.5
t63.5 -27t30 -43.5t7.5 -65z" />
    <glyph glyph-name="Scaron" unicode="&#x160;" horiz-adv-x="557" 
d="M372 193q0 19 -5 32t-19 23t-40 17.5t-69 15.5q-48 8 -84.5 21.5t-61.5 35.5t-37.5 55t-12.5 81q0 87 55.5 137.5t174.5 50.5q61 0 104.5 -10.5t71.5 -33.5t40.5 -59.5t12.5 -88.5h-140q0 42 -21 60t-69 18t-67.5 -19t-19.5 -56q0 -22 5 -37.5t18 -27t36 -19t60 -13.5
q61 -10 101 -24t64 -35t33.5 -51t9.5 -71q0 -58 -16.5 -97.5t-47.5 -64t-75 -35t-99 -10.5q-64 0 -109 11.5t-74 36.5t-42.5 64t-13.5 94h140q0 -51 23.5 -71.5t75.5 -20.5q54 0 76 20t22 71zM352 700h-147l-54 120h88l39 -54l40 54h88z" />
    <glyph glyph-name="scaron" unicode="&#x161;" horiz-adv-x="501" 
d="M466 145q0 -29 -5 -57t-26 -50.5t-64 -36t-119 -13.5q-63 0 -105 10.5t-66.5 31.5t-35 52.5t-10.5 74.5h136q0 -35 18.5 -47t62.5 -12q42 0 60 11.5t18 35.5q0 16 -3.5 27t-14.5 18t-31 11t-53 7q-57 4 -93.5 15t-57.5 29t-29 44t-8 60q0 79 53.5 117.5t153.5 38.5
q58 0 98 -9t65 -29t36 -52.5t11 -80.5h-136q0 10 -1.5 20.5t-8.5 19.5t-22 15t-42 6q-44 0 -57.5 -14.5t-13.5 -35.5q0 -27 15.5 -39.5t65.5 -16.5q67 -6 108 -15.5t63.5 -27t30 -43.5t7.5 -65zM326 550h-147l-54 120h88l39 -54l40 54h88z" />
    <glyph glyph-name="Tcommaaccent" unicode="&#x162;" horiz-adv-x="458" 
d="M159 536h-144v114h428v-114h-144v-536h-140v536zM165 -50h127l-72 -120h-83z" />
    <glyph glyph-name="tcommaaccent" unicode="&#x163;" horiz-adv-x="343" 
d="M313 0q-17 -5 -41.5 -8.5t-51.5 -3.5q-34 0 -59.5 6.5t-42.5 22.5t-25.5 43t-8.5 67v263h-64v97l64 13v113l136 27v-140h93v-110h-93v-250q0 -24 9 -33t30 -9q14 0 29 1.5t25 3.5v-103zM121 -50h127l-72 -120h-83z" />
    <glyph glyph-name="Tcaron" unicode="&#x164;" horiz-adv-x="458" 
d="M159 536h-144v114h428v-114h-144v-536h-140v536zM302 700h-147l-54 120h88l39 -54l40 54h88z" />
    <glyph glyph-name="tcaron" unicode="&#x165;" horiz-adv-x="343" 
d="M261 670h82l-29 -150h-53v150zM313 0q-17 -5 -41.5 -8.5t-51.5 -3.5q-34 0 -59.5 6.5t-42.5 22.5t-25.5 43t-8.5 67v263h-64v97l64 13v113l136 27v-140h93v-110h-93v-250q0 -24 9 -33t30 -9q14 0 29 1.5t25 3.5v-103z" />
    <glyph glyph-name="Tbar" unicode="&#x166;" horiz-adv-x="458" 
d="M69 385h90v151h-144v114h428v-114h-144v-151h90v-110h-90v-275h-140v275h-90v110z" />
    <glyph glyph-name="tbar" unicode="&#x167;" horiz-adv-x="343" 
d="M315 0q-17 -5 -41.5 -8.5t-51.5 -3.5q-34 0 -59.5 6.5t-43 22.5t-26.5 43t-9 67v83h-53v90h53v90h-64v97l64 13v113l138 27v-140h93v-110h-93v-90h75v-90h-75v-70q0 -24 9 -33t30 -9q14 0 29 1.5t25 3.5v-103z" />
    <glyph glyph-name="Utilde" unicode="&#x168;" horiz-adv-x="575" 
d="M195 650v-449q0 -52 21 -75t72 -23t71.5 23t20.5 75v449h140v-442q0 -63 -15 -105t-44 -67.5t-72.5 -36t-100.5 -10.5t-101 10.5t-73 36t-44 67.5t-15 105v442h140zM350 786q14 0 23 8t9 26h78q0 -69 -23 -94.5t-71 -25.5q-26 0 -42.5 7t-30 16t-27 16t-32.5 7
q-14 0 -23 -8t-9 -26h-78q0 69 23 94.5t71 25.5q26 0 42.5 -7t30 -16t27 -16t32.5 -7z" />
    <glyph glyph-name="utilde" unicode="&#x169;" 
d="M386 0l-23 43q-43 -32 -79 -43.5t-80 -11.5q-40 0 -68 9t-46 29.5t-26.5 54.5t-8.5 84v335h136v-331q0 -42 13.5 -56.5t49.5 -14.5q23 0 49 11t46 31v360h136v-500h-99zM328 636q14 0 23 8t9 26h78q0 -69 -23 -94.5t-71 -25.5q-26 0 -42.5 7t-30 16t-27 16t-32.5 7
q-14 0 -23 -8t-9 -26h-78q0 69 23 94.5t71 25.5q26 0 42.5 -7t30 -16t27 -16t32.5 -7z" />
    <glyph glyph-name="Umacron" unicode="&#x16a;" horiz-adv-x="575" 
d="M195 650v-449q0 -52 21 -75t72 -23t71.5 23t20.5 75v449h140v-442q0 -63 -15 -105t-44 -67.5t-72.5 -36t-100.5 -10.5t-101 10.5t-73 36t-44 67.5t-15 105v442h140zM132 800h310v-86h-310v86z" />
    <glyph glyph-name="umacron" unicode="&#x16b;" 
d="M386 0l-23 43q-43 -32 -79 -43.5t-80 -11.5q-40 0 -68 9t-46 29.5t-26.5 54.5t-8.5 84v335h136v-331q0 -42 13.5 -56.5t49.5 -14.5q23 0 49 11t46 31v360h136v-500h-99zM115 650h310v-86h-310v86z" />
    <glyph glyph-name="Ubreve" unicode="&#x16c;" horiz-adv-x="575" 
d="M195 650v-449q0 -52 21 -75t72 -23t71.5 23t20.5 75v449h140v-442q0 -63 -15 -105t-44 -67.5t-72.5 -36t-100.5 -10.5t-101 10.5t-73 36t-44 67.5t-15 105v442h140zM287 696q-64 0 -95 35t-31 99h78q0 -53 48 -53t48 53h78q0 -64 -31 -99t-95 -35z" />
    <glyph glyph-name="ubreve" unicode="&#x16d;" 
d="M386 0l-23 43q-43 -32 -79 -43.5t-80 -11.5q-40 0 -68 9t-46 29.5t-26.5 54.5t-8.5 84v335h136v-331q0 -42 13.5 -56.5t49.5 -14.5q23 0 49 11t46 31v360h136v-500h-99zM270 546q-64 0 -95 35t-31 99h78q0 -53 48 -53t48 53h78q0 -64 -31 -99t-95 -35z" />
    <glyph glyph-name="Uring" unicode="&#x16e;" horiz-adv-x="575" 
d="M195 650v-449q0 -52 21 -75t72 -23t71.5 23t20.5 75v449h140v-442q0 -63 -15 -105t-44 -67.5t-72.5 -36t-100.5 -10.5t-101 10.5t-73 36t-44 67.5t-15 105v442h140zM287 872q53 0 82 -23t29 -70t-29 -71t-82 -24t-82 24t-29 71t29 70t82 23zM287 742q39 0 39 37
q0 35 -39 35t-39 -35q0 -37 39 -37z" />
    <glyph glyph-name="uring" unicode="&#x16f;" 
d="M386 0l-23 43q-43 -32 -79 -43.5t-80 -11.5q-40 0 -68 9t-46 29.5t-26.5 54.5t-8.5 84v335h136v-331q0 -42 13.5 -56.5t49.5 -14.5q23 0 49 11t46 31v360h136v-500h-99zM270 722q53 0 82 -23t29 -70t-29 -71t-82 -24t-82 24t-29 71t29 70t82 23zM270 592q39 0 39 37
q0 35 -39 35t-39 -35q0 -37 39 -37z" />
    <glyph glyph-name="Uhungarumlaut" unicode="&#x170;" horiz-adv-x="575" 
d="M195 650v-449q0 -52 21 -75t72 -23t71.5 23t20.5 75v449h140v-442q0 -63 -15 -105t-44 -67.5t-72.5 -36t-100.5 -10.5t-101 10.5t-73 36t-44 67.5t-15 105v442h140zM196 820h117l-52 -120h-83zM359 820h117l-72 -120h-83z" />
    <glyph glyph-name="uhungarumlaut" unicode="&#x171;" 
d="M386 0l-23 43q-43 -32 -79 -43.5t-80 -11.5q-40 0 -68 9t-46 29.5t-26.5 54.5t-8.5 84v335h136v-331q0 -42 13.5 -56.5t49.5 -14.5q23 0 49 11t46 31v360h136v-500h-99zM174 670h117l-52 -120h-83zM337 670h117l-72 -120h-83z" />
    <glyph glyph-name="Uogonek" unicode="&#x172;" horiz-adv-x="575" 
d="M195 650v-449q0 -52 21 -75t72 -23t71.5 23t20.5 75v449h140v-442q0 -94 -33 -142.5t-97 -65.5q-20 -17 -31 -33t-11 -37q0 -14 9 -20t24 -6h9v-78h-57q-38 0 -61 17t-23 54q0 24 11 48t34 44h-6q-57 0 -101 10.5t-73 36t-44 67.5t-15 105v442h140z" />
    <glyph glyph-name="uogonek" unicode="&#x173;" 
d="M348 -103q0 25 11.5 49t34.5 44l-29 53q-43 -32 -79 -43.5t-80 -11.5q-40 0 -68.5 9t-47 29.5t-27 54.5t-8.5 84v335h138v-331q0 -42 13.5 -56.5t49.5 -14.5q23 0 49 11t46 31v360h138v-500q-20 -17 -31 -33t-11 -37q0 -14 9 -20t24 -6h9v-78h-57q-38 0 -61 17t-23 54z
" />
    <glyph glyph-name="Wcircumflex" unicode="&#x174;" horiz-adv-x="819" 
d="M654 650h140l-119 -650h-189l-76 527l-76 -527h-189l-120 650h141l76 -529h2l81 529h170l80 -529h2zM537 700h-88l-40 54l-39 -54h-88l54 120h147z" />
    <glyph glyph-name="wcircumflex" unicode="&#x175;" horiz-adv-x="744" 
d="M583 500h141l-120 -500h-164l-68 370l-67 -370h-164l-121 500h141l63 -367l74 367h149l73 -369h2zM499 550h-88l-40 54l-39 -54h-88l54 120h147z" />
    <glyph glyph-name="Ycircumflex" unicode="&#x176;" horiz-adv-x="528" 
d="M194 239l-184 411h151l102 -285h2l102 285h151l-184 -411v-239h-140v239zM391 700h-88l-40 54l-39 -54h-88l54 120h147z" />
    <glyph glyph-name="ycircumflex" unicode="&#x177;" horiz-adv-x="496" 
d="M10 500h146l94 -333h2l87 333h147l-187 -558q-11 -34 -26 -57.5t-37 -38.5t-53.5 -21.5t-75.5 -6.5q-13 0 -35 2.5t-36 7.5v109q15 -5 32.5 -7t33.5 -2q35 0 50.5 12.5t27.5 44.5l6 17zM375 550h-88l-40 54l-39 -54h-88l54 120h147z" />
    <glyph glyph-name="Ydieresis" unicode="&#x178;" horiz-adv-x="528" 
d="M194 239l-184 411h151l102 -285h2l102 285h151l-184 -411v-239h-140v239zM128 810h106v-106h-106v106zM294 810h106v-106h-106v106z" />
    <glyph glyph-name="Zacute" unicode="&#x179;" horiz-adv-x="507" 
d="M50 650h412v-99l-264 -437h274v-114h-432v99l262 437h-252v114zM239 820h127l-72 -120h-83z" />
    <glyph glyph-name="zacute" unicode="&#x17a;" horiz-adv-x="470" 
d="M45 500h386v-96l-231 -294h240v-110h-405v96l231 294h-221v110zM220 670h127l-72 -120h-83z" />
    <glyph glyph-name="Zdotaccent" unicode="&#x17b;" horiz-adv-x="507" 
d="M50 650h412v-99l-264 -437h274v-114h-432v99l262 437h-252v114zM200 810h106v-106h-106v106z" />
    <glyph glyph-name="zdotaccent" unicode="&#x17c;" horiz-adv-x="470" 
d="M45 500h386v-96l-231 -294h240v-110h-405v96l231 294h-221v110zM182 660h106v-106h-106v106z" />
    <glyph glyph-name="Zcaron" unicode="&#x17d;" horiz-adv-x="507" 
d="M50 650h412v-99l-264 -437h274v-114h-432v99l262 437h-252v114zM327 700h-147l-54 120h88l39 -54l40 54h88z" />
    <glyph glyph-name="zcaron" unicode="&#x17e;" horiz-adv-x="470" 
d="M45 500h386v-96l-231 -294h240v-110h-405v96l231 294h-221v110zM312 550h-147l-54 120h88l39 -54l40 54h88z" />
    <glyph glyph-name="florin" unicode="&#x192;" horiz-adv-x="340" 
d="M84 390h-64v97l64 13v51q0 40 9 67t26.5 43t43 22.5t59.5 6.5q27 0 51.5 -3t41.5 -8v-104q-10 2 -25 3.5t-29 1.5q-21 0 -30 -9t-9 -33v-38h74v-110h-74v-431q0 -40 -9 -67t-26.5 -43t-43 -22.5t-59.5 -6.5q-27 0 -51.5 3t-41.5 8v104q10 -2 25 -3.5t29 -1.5q21 0 30 9
t9 33v418z" />
    <glyph glyph-name="Scommaaccent" unicode="&#x218;" horiz-adv-x="557" 
d="M372 193q0 19 -5 32t-19 23t-40 17.5t-69 15.5q-48 8 -84.5 21.5t-61.5 35.5t-37.5 55t-12.5 81q0 87 55.5 137.5t174.5 50.5q61 0 104.5 -10.5t71.5 -33.5t40.5 -59.5t12.5 -88.5h-140q0 42 -21 60t-69 18t-67.5 -19t-19.5 -56q0 -22 5 -37.5t18 -27t36 -19t60 -13.5
q61 -10 101 -24t64 -35t33.5 -51t9.5 -71q0 -58 -16.5 -97.5t-47.5 -64t-75 -35t-99 -10.5q-64 0 -109 11.5t-74 36.5t-42.5 64t-13.5 94h140q0 -51 23.5 -71.5t75.5 -20.5q54 0 76 20t22 71zM218 -50h127l-72 -120h-83z" />
    <glyph glyph-name="scommaaccent" unicode="&#x219;" horiz-adv-x="501" 
d="M466 145q0 -29 -5 -57t-26 -50.5t-64 -36t-119 -13.5q-63 0 -105 10.5t-66.5 31.5t-35 52.5t-10.5 74.5h136q0 -35 18.5 -47t62.5 -12q42 0 60 11.5t18 35.5q0 16 -3.5 27t-14.5 18t-31 11t-53 7q-57 4 -93.5 15t-57.5 29t-29 44t-8 60q0 79 53.5 117.5t153.5 38.5
q58 0 98 -9t65 -29t36 -52.5t11 -80.5h-136q0 10 -1.5 20.5t-8.5 19.5t-22 15t-42 6q-44 0 -57.5 -14.5t-13.5 -35.5q0 -27 15.5 -39.5t65.5 -16.5q67 -6 108 -15.5t63.5 -27t30 -43.5t7.5 -65zM194 -50h127l-72 -120h-83z" />
    <glyph glyph-name="circumflex" unicode="&#x2c6;" horiz-adv-x="335" 
d="M295 550h-88l-40 54l-39 -54h-88l54 120h147z" />
    <glyph glyph-name="caron" unicode="&#x2c7;" horiz-adv-x="335" 
d="M241 550h-147l-54 120h88l39 -54l40 54h88z" />
    <glyph glyph-name="breve" unicode="&#x2d8;" horiz-adv-x="332" 
d="M166 546q-64 0 -95 35t-31 99h78q0 -53 48 -53t48 53h78q0 -64 -31 -99t-95 -35z" />
    <glyph glyph-name="dotaccent" unicode="&#x2d9;" horiz-adv-x="186" 
d="M40 660h106v-106h-106v106z" />
    <glyph glyph-name="ring" unicode="&#x2da;" horiz-adv-x="302" 
d="M151 722q53 0 82 -23t29 -70t-29 -71t-82 -24t-82 24t-29 71t29 70t82 23zM151 592q39 0 39 37q0 35 -39 35t-39 -35q0 -37 39 -37z" />
    <glyph glyph-name="ogonek" unicode="&#x2db;" horiz-adv-x="221" 
d="M181 0q-20 -17 -31 -33t-11 -37q0 -14 9 -20t24 -6h9v-78h-57q-38 0 -61 17t-23 54q0 28 15.5 55.5t44.5 47.5h81z" />
    <glyph glyph-name="tilde" unicode="&#x2dc;" horiz-adv-x="416" 
d="M266 636q14 0 23 8t9 26h78q0 -69 -23 -94.5t-71 -25.5q-26 0 -42.5 7t-30 16t-27 16t-32.5 7q-14 0 -23 -8t-9 -26h-78q0 69 23 94.5t71 25.5q26 0 42.5 -7t30 -16t27 -16t32.5 -7z" />
    <glyph glyph-name="hungarumlaut" unicode="&#x2dd;" horiz-adv-x="378" 
d="M58 670h117l-52 -120h-83zM221 670h117l-72 -120h-83z" />
    <glyph glyph-name="mu" unicode="&#x3bc;" 
d="M55 -170v670h138v-360q20 -20 46 -31t49 -11q36 0 49.5 14.5t13.5 56.5v331h138v-335q0 -50 -8.5 -84t-27 -54.5t-47 -29.5t-68.5 -9t-73.5 9.5t-71.5 35.5v-203h-138z" />
    <glyph glyph-name="pi" unicode="&#x3c0;" horiz-adv-x="592" 
d="M110 390h-65v110h502v-110h-65v-214q0 -37 13 -51.5t52 -14.5v-110q-59 0 -98 9.5t-62.5 30.5t-33 53t-9.5 77v220h-96v-390h-138v390z" />
    <glyph glyph-name="Bdotaccent" unicode="&#x1e02;" horiz-adv-x="558" 
d="M60 650h233q62 0 102.5 -10t64 -30.5t33 -52t9.5 -75.5q0 -54 -20.5 -89.5t-52.5 -52.5q94 -37 94 -157q0 -42 -12 -76t-38 -57.5t-67 -36.5t-100 -13h-246v650zM302 114q40 0 60 17.5t20 62.5q0 49 -23 65t-60 16h-99v-161h102zM200 536v-151h88q40 0 57.5 17t17.5 59
q0 36 -17 55.5t-57 19.5h-89zM226 810h106v-106h-106v106z" />
    <glyph glyph-name="bdotaccent" unicode="&#x1e03;" horiz-adv-x="539" 
d="M154 0h-99v670h136v-201q37 23 68.5 33t61.5 10q40 0 73 -8.5t56 -31t36 -63.5t13 -105v-108q0 -65 -13.5 -105.5t-37 -63.5t-56 -31t-70.5 -8q-30 0 -66 11.5t-79 43.5zM363 313q0 54 -17 71.5t-52 17.5q-32 0 -58 -12t-45 -30v-220q19 -18 45 -30t58 -12q35 0 52 17.5
t17 71.5v126zM267 660h106v-106h-106v106z" />
    <glyph glyph-name="Ddotaccent" unicode="&#x1e0a;" horiz-adv-x="572" 
d="M200 536v-422h79q33 0 54 7t33 21t16.5 34t4.5 46v214q0 36 -7 56.5t-20.5 30t-33.5 11.5t-47 2h-79zM60 0v650h222q61 0 107 -9t76.5 -34.5t46 -70.5t15.5 -116v-188q0 -71 -15.5 -116.5t-46 -71t-76.5 -35t-107 -9.5h-222zM213 810h106v-106h-106v106z" />
    <glyph glyph-name="ddotaccent" unicode="&#x1e0b;" horiz-adv-x="539" 
d="M362 43q-43 -32 -79 -43.5t-66 -11.5q-38 0 -70.5 8t-56 31t-37 63.5t-13.5 105.5v108q0 64 13 105t36 63.5t56 31t73 8.5q30 0 61.5 -10t68.5 -33v201h136v-670h-99zM176 187q0 -54 17 -71.5t52 -17.5q32 0 58 12t45 30v220q-19 18 -45 30t-58 12q-35 0 -52 -17.5
t-17 -71.5v-126zM173 660h106v-106h-106v106z" />
    <glyph glyph-name="Fdotaccent" unicode="&#x1e1e;" horiz-adv-x="468" 
d="M60 0v650h378v-114h-238v-151h203v-110h-203v-275h-140zM190 810h106v-106h-106v106z" />
    <glyph glyph-name="fdotaccent" unicode="&#x1e1f;" horiz-adv-x="333" 
d="M315 575q-10 2 -25 3.5t-29 1.5q-21 0 -30 -9t-9 -33v-38h74v-110h-74v-390h-138v390h-64v97l64 13v51q0 40 9 67t26.5 43t43 22.5t59.5 6.5q27 0 51.5 -3t41.5 -8v-104zM154 820h106v-106h-106v106z" />
    <glyph glyph-name="Mdotaccent" unicode="&#x1e40;" horiz-adv-x="727" 
d="M533 301l8 199l-123 -500h-107l-123 500l8 -200v-300h-136v650h195l108 -461h3l108 461h195v-650h-136v301zM310 810h106v-106h-106v106z" />
    <glyph glyph-name="mdotaccent" unicode="&#x1e41;" horiz-adv-x="773" 
d="M587 330q0 44 -12.5 58t-43.5 14q-14 0 -36 -7.5t-38 -18.5v-376h-136v330q0 44 -12.5 58t-43.5 14q-14 0 -36 -7.5t-38 -18.5v-376h-136v500h96l22 -37q33 23 65 36t73 13q46 0 73 -10.5t50 -37.5q30 19 66 33.5t79 14.5q42 0 70 -9t44.5 -30.5t23 -56.5t6.5 -87v-329
h-136v330zM335 660h106v-106h-106v106z" />
    <glyph glyph-name="Pdotaccent" unicode="&#x1e56;" horiz-adv-x="550" 
d="M283 338q48 0 70 20t22 79q0 57 -21.5 78t-69.5 21h-84v-198h83zM60 650h223q58 0 101.5 -8.5t72.5 -32t43.5 -64.5t14.5 -107q0 -62 -14 -102.5t-42.5 -64.5t-72 -33.5t-101.5 -9.5h-85v-228h-140v650zM222 810h106v-106h-106v106z" />
    <glyph glyph-name="pdotaccent" unicode="&#x1e57;" horiz-adv-x="539" 
d="M177 457q43 32 79 43.5t66 11.5q38 0 70.5 -8t56 -31t37 -63.5t13.5 -105.5v-108q0 -65 -13 -105.5t-36 -63t-56 -31t-73 -8.5q-30 0 -61.5 10t-68.5 33v-201h-136v670h99zM363 313q0 54 -17 71.5t-52 17.5q-32 0 -58 -12t-45 -30v-220q19 -18 45 -30t58 -12
q35 0 52 17.5t17 71.5v126zM216 660h106v-106h-106v106z" />
    <glyph glyph-name="Sdotaccent" unicode="&#x1e60;" horiz-adv-x="557" 
d="M372 193q0 19 -5 32t-19 23t-40 17.5t-69 15.5q-48 8 -84.5 21.5t-61.5 35.5t-37.5 55t-12.5 81q0 87 55.5 137.5t174.5 50.5q61 0 104.5 -10.5t71.5 -33.5t40.5 -59.5t12.5 -88.5h-140q0 42 -21 60t-69 18t-67.5 -19t-19.5 -56q0 -22 5 -37.5t18 -27t36 -19t60 -13.5
q61 -10 101 -24t64 -35t33.5 -51t9.5 -71q0 -58 -16.5 -97.5t-47.5 -64t-75 -35t-99 -10.5q-64 0 -109 11.5t-74 36.5t-42.5 64t-13.5 94h140q0 -51 23.5 -71.5t75.5 -20.5q54 0 76 20t22 71zM225 810h106v-106h-106v106z" />
    <glyph glyph-name="sdotaccent" unicode="&#x1e61;" horiz-adv-x="501" 
d="M466 145q0 -29 -5 -57t-26 -50.5t-64 -36t-119 -13.5q-63 0 -105 10.5t-66.5 31.5t-35 52.5t-10.5 74.5h136q0 -35 18.5 -47t62.5 -12q42 0 60 11.5t18 35.5q0 16 -3.5 27t-14.5 18t-31 11t-53 7q-57 4 -93.5 15t-57.5 29t-29 44t-8 60q0 79 53.5 117.5t153.5 38.5
q58 0 98 -9t65 -29t36 -52.5t11 -80.5h-136q0 10 -1.5 20.5t-8.5 19.5t-22 15t-42 6q-44 0 -57.5 -14.5t-13.5 -35.5q0 -27 15.5 -39.5t65.5 -16.5q67 -6 108 -15.5t63.5 -27t30 -43.5t7.5 -65zM200 660h106v-106h-106v106z" />
    <glyph glyph-name="Tdotaccent" unicode="&#x1e6a;" horiz-adv-x="458" 
d="M159 536h-144v114h428v-114h-144v-536h-140v536zM176 810h106v-106h-106v106z" />
    <glyph glyph-name="tdotaccent" unicode="&#x1e6b;" horiz-adv-x="343" 
d="M313 0q-17 -5 -41.5 -8.5t-51.5 -3.5q-34 0 -59.5 6.5t-42.5 22.5t-25.5 43t-8.5 67v263h-64v97l64 13v113l136 27v-140h93v-110h-93v-250q0 -24 9 -33t30 -9q14 0 29 1.5t25 3.5v-103zM100 768h106v-106h-106v106z" />
    <glyph glyph-name="Wgrave" unicode="&#x1e80;" horiz-adv-x="819" 
d="M654 650h140l-119 -650h-189l-76 527l-76 -527h-189l-120 650h141l76 -529h2l81 529h170l80 -529h2zM487 700h-83l-72 120h127z" />
    <glyph glyph-name="wgrave" unicode="&#x1e81;" horiz-adv-x="744" 
d="M583 500h141l-120 -500h-164l-68 370l-67 -370h-164l-121 500h141l63 -367l74 367h149l73 -369h2zM427 550h-83l-72 120h127z" />
    <glyph glyph-name="Wacute" unicode="&#x1e82;" horiz-adv-x="819" 
d="M654 650h140l-119 -650h-189l-76 527l-76 -527h-189l-120 650h141l76 -529h2l81 529h170l80 -529h2zM397 820h127l-72 -120h-83z" />
    <glyph glyph-name="wacute" unicode="&#x1e83;" horiz-adv-x="744" 
d="M583 500h141l-120 -500h-164l-68 370l-67 -370h-164l-121 500h141l63 -367l74 367h149l73 -369h2zM362 670h127l-72 -120h-83z" />
    <glyph glyph-name="Wdieresis" unicode="&#x1e84;" horiz-adv-x="819" 
d="M654 650h140l-119 -650h-189l-76 527l-76 -527h-189l-120 650h141l76 -529h2l81 529h170l80 -529h2zM273 810h106v-106h-106v106zM439 810h106v-106h-106v106z" />
    <glyph glyph-name="wdieresis" unicode="&#x1e85;" horiz-adv-x="744" 
d="M583 500h141l-120 -500h-164l-68 370l-67 -370h-164l-121 500h141l63 -367l74 367h149l73 -369h2zM236 660h106v-106h-106v106zM402 660h106v-106h-106v106z" />
    <glyph glyph-name="Ygrave" unicode="&#x1ef2;" horiz-adv-x="528" 
d="M194 239l-184 411h151l102 -285h2l102 285h151l-184 -411v-239h-140v239zM341 700h-83l-72 120h127z" />
    <glyph glyph-name="ygrave" unicode="&#x1ef3;" horiz-adv-x="496" 
d="M10 500h146l94 -333h2l87 333h147l-187 -558q-11 -34 -26 -57.5t-37 -38.5t-53.5 -21.5t-75.5 -6.5q-13 0 -35 2.5t-36 7.5v109q15 -5 32.5 -7t33.5 -2q35 0 50.5 12.5t27.5 44.5l6 17zM309 550h-83l-72 120h127z" />
    <glyph glyph-name="endash" unicode="&#x2013;" horiz-adv-x="475" 
d="M50 332h375v-114h-375v114z" />
    <glyph glyph-name="emdash" unicode="&#x2014;" horiz-adv-x="610" 
d="M40 332h530v-114h-530v114z" />
    <glyph glyph-name="quoteleft" unicode="&#x2018;" horiz-adv-x="194" 
d="M154 390h-70l-64 260h134v-260z" />
    <glyph glyph-name="quoteright" unicode="&#x2019;" horiz-adv-x="194" 
d="M40 650h134l-64 -260h-70v260z" />
    <glyph glyph-name="quotesinglbase" unicode="&#x201a;" horiz-adv-x="203" 
d="M50 150h134l-64 -260h-70v260z" />
    <glyph glyph-name="quotedblleft" unicode="&#x201c;" horiz-adv-x="358" 
d="M154 390h-70l-64 260h134v-260zM318 390h-70l-64 260h134v-260z" />
    <glyph glyph-name="quotedblright" unicode="&#x201d;" horiz-adv-x="358" 
d="M204 650h134l-64 -260h-70v260zM40 650h134l-64 -260h-70v260z" />
    <glyph glyph-name="quotedblbase" unicode="&#x201e;" horiz-adv-x="358" 
d="M40 150h134l-64 -260h-70v260zM204 150h134l-64 -260h-70v260z" />
    <glyph glyph-name="dagger" unicode="&#x2020;" horiz-adv-x="338" 
d="M136 570v100h67v-100h95v-63h-95v-247h-67v247h-96v63h96z" />
    <glyph glyph-name="daggerdbl" unicode="&#x2021;" horiz-adv-x="338" 
d="M136 570v100h67v-100h95v-63h-95v-84h95v-62h-95v-101h-67v101h-96v62h96v84h-96v63h96z" />
    <glyph glyph-name="bullet" unicode="&#x2022;" horiz-adv-x="431" 
d="M399 304q0 -54 -10.5 -89t-33 -55t-57 -27.5t-82.5 -7.5t-82.5 7.5t-57 27.5t-33 55t-10.5 89v42q0 54 10.5 89t33 55t57 27.5t82.5 7.5t82.5 -7.5t57 -27.5t33 -55t10.5 -89v-42z" />
    <glyph glyph-name="ellipsis" unicode="&#x2026;" horiz-adv-x="658" 
d="M40 146h146v-146h-146v146zM256 146h146v-146h-146v146zM472 146h146v-146h-146v146z" />
    <glyph glyph-name="perthousand" unicode="&#x2030;" horiz-adv-x="847" 
d="M667 278q71 0 105.5 -31.5t34.5 -113.5t-34 -113.5t-106 -31.5q-35 0 -58.5 6.5t-39.5 21.5q-28 -28 -97 -28q-72 0 -106 31.5t-34 113.5t34.5 113.5t105.5 31.5q69 0 97 -28q16 15 40 21.5t58 6.5zM180 372q-36 0 -62 7t-43.5 24t-26 45t-8.5 69q0 82 34 113.5t106 31.5
t106 -31.5t34 -113.5q0 -41 -8.5 -69t-26 -45t-43.5 -24t-62 -7zM667 209q-29 0 -42 -15t-13 -61t13 -61t42 -15t42 15t13 61t-13 61t-42 15zM180 441q29 0 42 15t13 61t-13 61t-42 15t-42 -15t-13 -61t13 -61t42 -15zM472 209q-29 0 -42 -15t-13 -61t13 -61t42 -15t42 15
t13 61t-13 61t-42 15zM495 650h89l-427 -650h-89z" />
    <glyph glyph-name="guilsinglleft" unicode="&#x2039;" horiz-adv-x="327" 
d="M40 250l130 195h117l-132 -195l132 -195h-117z" />
    <glyph glyph-name="guilsinglright" unicode="&#x203a;" horiz-adv-x="327" 
d="M157 55h-117l132 195l-132 195h117l130 -195z" />
    <glyph glyph-name="Euro" unicode="&#x20ac;" horiz-adv-x="600" 
d="M324 102q48 0 69.5 23t21.5 81h138q0 -114 -54 -166t-175 -52t-177.5 56t-56.5 177v17h-53v60h53v53h-53v60h53v18q0 124 58.5 178.5t175.5 54.5q121 0 175 -51.5t54 -165.5h-138q0 55 -21.5 79t-69.5 24q-46 0 -70 -22t-24 -76v-39h136l-10 -60h-126v-53h118l-10 -60
h-108v-38q0 -54 24.5 -76t69.5 -22z" />
    <glyph glyph-name="trademark" unicode="&#x2122;" horiz-adv-x="546" 
d="M94 600h-62v50h177v-50h-62v-215h-53v215zM373 472l54 178h79v-265h-53v186l-60 -186h-41l-59 186v-186h-54v265h79z" />
    <glyph glyph-name="onethird" unicode="&#x2153;" horiz-adv-x="632" 
d="M115 349v241h-58v40l84 20h46v-301h-72zM471 650h80l-421 -650h-80zM470 54q23 0 32 10.5t9 27.5q0 12 -4 19t-10 10.5t-12.5 4.5t-12.5 1h-34v51h31q17 0 26.5 6.5t9.5 28.5q0 14 -7.5 24t-29.5 10q-20 0 -29.5 -10t-9.5 -33h-69q0 51 25.5 76.5t82.5 25.5
q63 0 85.5 -25.5t22.5 -64.5q0 -44 -39 -61q24 -9 34.5 -25.5t10.5 -42.5q0 -20 -4.5 -37t-16.5 -29t-34 -19t-57 -7q-60 0 -86.5 24.5t-26.5 76.5h71q0 -42 42 -42z" />
    <glyph glyph-name="twothirds" unicode="&#x2154;" horiz-adv-x="670" 
d="M509 650h80l-421 -650h-80zM508 54q23 0 32 10.5t9 27.5q0 12 -4 19t-10 10.5t-12.5 4.5t-12.5 1h-34v51h31q17 0 26.5 6.5t9.5 28.5q0 14 -7.5 24t-29.5 10q-20 0 -29.5 -10t-9.5 -33h-69q0 51 25.5 76.5t82.5 25.5q63 0 85.5 -25.5t22.5 -64.5q0 -44 -39 -61
q24 -9 34.5 -25.5t10.5 -42.5q0 -20 -4.5 -37t-16.5 -29t-34 -19t-57 -7q-60 0 -86.5 24.5t-26.5 76.5h71q0 -42 42 -42zM51 553q0 56 28.5 79t79.5 23q31 0 51.5 -7t33 -20t17.5 -30.5t5 -39.5q0 -26 -10.5 -42.5t-26 -27.5t-33.5 -19t-33.5 -16t-26.5 -18.5t-11 -26.5h143
v-59h-218v44q0 31 10.5 51t26.5 33t35 21.5t35 16t26.5 17t10.5 24.5q0 19 -7.5 29.5t-27.5 10.5q-19 0 -28 -10t-9 -33h-71z" />
    <glyph glyph-name="oneeighth" unicode="&#x215b;" horiz-adv-x="632" 
d="M115 349v241h-58v40l84 20h46v-301h-72zM471 650h80l-421 -650h-80zM468 -5q-58 0 -86.5 20t-28.5 66q0 29 13 47t33 26q-20 11 -29.5 26.5t-9.5 40.5q0 45 27 65t81 20q52 0 79.5 -19.5t27.5 -64.5q0 -47 -39 -68q20 -9 33 -26t13 -47q0 -46 -28 -66t-86 -20zM468 176
q15 0 26.5 7t11.5 28q0 20 -9 27.5t-29 7.5t-29.5 -7.5t-9.5 -27.5q0 -21 11.5 -28t27.5 -7zM468 55q21 0 32 7.5t11 27.5q0 24 -12 31t-31 7q-20 0 -32 -7t-12 -31q0 -20 11 -27.5t33 -7.5z" />
    <glyph glyph-name="threeeighths" unicode="&#x215c;" horiz-adv-x="652" 
d="M491 650h80l-421 -650h-80zM488 -5q-58 0 -86.5 20t-28.5 66q0 29 13 47t33 26q-20 11 -29.5 26.5t-9.5 40.5q0 45 27 65t81 20q52 0 79.5 -19.5t27.5 -64.5q0 -47 -39 -68q20 -9 33 -26t13 -47q0 -46 -28 -66t-86 -20zM488 176q15 0 26.5 7t11.5 28q0 20 -9 27.5
t-29 7.5t-29.5 -7.5t-9.5 -27.5q0 -21 11.5 -28t27.5 -7zM488 55q21 0 32 7.5t11 27.5q0 24 -12 31t-31 7q-20 0 -32 -7t-12 -31q0 -20 11 -27.5t33 -7.5zM163 402q23 0 31.5 9.5t8.5 26.5q0 12 -4 19t-10 10t-13 4t-13 1h-32v57h29q17 0 27 6t10 28q0 14 -7 23t-29 9
q-20 0 -29 -10t-9 -33h-70q0 51 25.5 76.5t82.5 25.5q63 0 85.5 -25.5t22.5 -64.5q0 -44 -39 -61q24 -9 34.5 -25.5t10.5 -42.5q0 -20 -4.5 -37t-16.5 -29t-34 -19t-57 -7q-60 0 -86.5 24.5t-26.5 76.5h72q0 -42 41 -42z" />
    <glyph glyph-name="fiveeighths" unicode="&#x215d;" horiz-adv-x="657" 
d="M496 650h80l-421 -650h-80zM493 -5q-58 0 -86.5 20t-28.5 66q0 29 13 47t33 26q-20 11 -29.5 26.5t-9.5 40.5q0 45 27 65t81 20q52 0 79.5 -19.5t27.5 -64.5q0 -47 -39 -68q20 -9 33 -26t13 -47q0 -46 -28 -66t-86 -20zM493 176q15 0 26.5 7t11.5 28q0 20 -9 27.5
t-29 7.5t-29.5 -7.5t-9.5 -27.5q0 -21 11.5 -28t27.5 -7zM493 55q21 0 32 7.5t11 27.5q0 24 -12 31t-31 7q-20 0 -32 -7t-12 -31q0 -20 11 -27.5t33 -7.5zM74 650h183v-60h-121l-5 -54q24 11 48 11q43 0 68 -19t25 -76q0 -52 -23.5 -80t-86.5 -28q-60 0 -86 24.5t-26 76.5
h72q0 -23 10 -32.5t30 -9.5t29 11t9 38q0 26 -8 36.5t-30 10.5q-8 0 -18 -4.5t-15 -9.5h-70z" />
    <glyph glyph-name="seveneighths" unicode="&#x215e;" horiz-adv-x="632" 
d="M471 650h80l-421 -650h-80zM468 -5q-58 0 -86.5 20t-28.5 66q0 29 13 47t33 26q-20 11 -29.5 26.5t-9.5 40.5q0 45 27 65t81 20q52 0 79.5 -19.5t27.5 -64.5q0 -47 -39 -68q20 -9 33 -26t13 -47q0 -46 -28 -66t-86 -20zM468 176q15 0 26.5 7t11.5 28q0 20 -9 27.5
t-29 7.5t-29.5 -7.5t-9.5 -27.5q0 -21 11.5 -28t27.5 -7zM468 55q21 0 32 7.5t11 27.5q0 24 -12 31t-31 7q-20 0 -32 -7t-12 -31q0 -20 11 -27.5t33 -7.5zM85 349l96 241h-129v60h205v-49l-97 -252h-75z" />
    <glyph glyph-name="partialdiff" unicode="&#x2202;" horiz-adv-x="525" 
d="M259 574q-17 0 -31.5 -1.5t-28.5 -3.5v107q11 3 28.5 5.5t34.5 2.5q61 0 104.5 -10.5t71.5 -34.5t40.5 -63.5t12.5 -97.5v-279q0 -44 -9.5 -82t-35 -66.5t-69 -44.5t-110.5 -16q-68 0 -112 15t-69.5 44t-35.5 71.5t-10 97.5q0 49 9.5 89t32 68.5t59 44t89.5 15.5
q40 0 69.5 -7.5t55.5 -19.5v79q0 51 -22.5 69t-73.5 18zM264 344q-51 0 -69.5 -28.5t-18.5 -94.5q0 -61 17.5 -91t74.5 -30q48 0 67.5 23t19.5 80v109q-17 14 -40 23t-51 9z" />
    <glyph glyph-name="minus" unicode="&#x2212;" horiz-adv-x="512" 
d="M50 226v98h412v-98h-412z" />
    <glyph glyph-name="integral" unicode="&#x222b;" horiz-adv-x="416" 
d="M243 2q0 -38 -8 -62t-24.5 -37.5t-42.5 -19t-63 -5.5h-63v69h63q23 0 32.5 10.5t9.5 33.5v575q0 37 8 61.5t24.5 38t42.5 19t63 5.5h63v-69h-63q-23 0 -32.5 -10.5t-9.5 -33.5v-575z" />
    <glyph glyph-name="approxequal" unicode="&#x2248;" horiz-adv-x="513" 
d="M353 104q-31 0 -56 8t-46.5 17.5t-40.5 17.5t-38 8q-13 0 -20.5 -6t-7.5 -23h-94q0 37 8 60t22 36t34.5 18t44.5 5q30 0 53.5 -8t44.5 -17t41 -17t43 -8q14 0 21 5.5t7 23.5h94q0 -38 -8 -61t-22.5 -36.5t-35 -18t-44.5 -4.5zM353 304q-31 0 -56 8t-46.5 17.5t-40.5 17.5
t-38 8q-13 0 -20.5 -6t-7.5 -23h-94q0 37 8 60t22 36t34.5 18t44.5 5q30 0 53.5 -8t44.5 -17t41 -17t43 -8q14 0 21 5.5t7 23.5h94q0 -38 -8 -61t-22.5 -36.5t-35 -18t-44.5 -4.5z" />
    <glyph glyph-name="notequal" unicode="&#x2260;" horiz-adv-x="512" 
d="M165 126h-115v98h145l30 102h-175v98h205l38 126h91l-39 -126h117v-98h-146l-31 -102h177v-98h-207l-38 -126h-91z" />
    <glyph glyph-name="lessequal" unicode="&#x2264;" horiz-adv-x="407" 
d="M60 0v98h287v-98h-287zM60 342l162 203h125l-163 -203l163 -202h-125z" />
    <glyph glyph-name="greaterequal" unicode="&#x2265;" horiz-adv-x="407" 
d="M60 0v98h287v-98h-287zM185 140h-125l163 202l-163 203h125l162 -203z" />
    <glyph glyph-name="at.caps" horiz-adv-x="790" 
d="M60 398q0 66 20 119t61 90t104 57t150 20q86 0 149 -20t104.5 -57t61.5 -90t20 -119v-146q0 -66 -20 -119t-61.5 -90t-104.5 -57t-149 -20q-85 0 -148 20t-104.5 57t-62 90t-20.5 119v146zM154 256q0 -103 59 -152.5t182 -49.5t182 49.5t59 152.5v138q0 103 -59 152.5
t-182 49.5t-182 -49.5t-59 -152.5v-138zM368 224q23 0 43 7.5t36 21.5v57l-80 -9q-22 -2 -30.5 -12.5t-8.5 -27.5q0 -18 11.5 -27.5t28.5 -9.5zM231 251q0 47 28.5 72.5t88.5 30.5l99 7v35q0 24 -12.5 35t-41.5 11q-31 0 -42.5 -12t-11.5 -35h-94q0 60 35.5 91t112.5 31
q81 0 115.5 -30t34.5 -91v-239h-70l-16 30q-50 -39 -108 -39t-88 27.5t-30 75.5z" />
    <glyph glyph-name="caron.salt" horiz-adv-x="162" 
d="M40 670h82l-29 -150h-53v150z" />
    <glyph glyph-name="commaaccent" horiz-adv-x="235" 
d="M68 -50h127l-72 -120h-83z" />
    <glyph glyph-name="one.tnum" 
d="M116 114h97v422h-117v72l137 42h120v-536h97v-114h-334v114z" />
    <glyph glyph-name="two.tnum" 
d="M39 453q0 57 15.5 97t45 65t72.5 36t98 11q66 0 109.5 -15t70 -42t37.5 -65t11 -85q0 -56 -23.5 -91.5t-58 -60t-75.5 -41.5t-75.5 -36.5t-58 -45t-23.5 -66.5h318v-114h-465v89q0 69 24 112.5t59.5 71.5t77 46t77 35.5t59.5 39t24 58.5q0 46 -18.5 71t-69.5 25
q-48 0 -70.5 -21t-22.5 -74h-138z" />
    <glyph glyph-name="three.tnum" 
d="M270 102q56 0 77.5 23.5t21.5 66.5q0 30 -10 46.5t-24.5 25t-31.5 10t-31 1.5h-61v110h54q20 0 37 3t29 11.5t18.5 25t6.5 43.5q0 36 -17.5 58t-71.5 22q-51 0 -72.5 -21.5t-21.5 -73.5h-137q0 106 54.5 157.5t176.5 51.5q67 0 111 -14t70.5 -39.5t37 -60.5t10.5 -77
q0 -101 -101 -137q114 -33 114 -149q0 -44 -9.5 -80t-35.5 -62t-72.5 -40.5t-121.5 -14.5q-128 0 -183.5 51t-55.5 157h140q0 -48 24 -71t75 -23z" />
    <glyph glyph-name="four.tnum" 
d="M312 130h-295v111l260 409h175v-406h71v-114h-71v-130h-140v130zM312 244v282l-174 -282h174z" />
    <glyph glyph-name="five.tnum" 
d="M85 650h390v-114h-271l-11 -143q27 14 57.5 22.5t58.5 8.5q46 0 82.5 -9t62 -32t39.5 -63t14 -101q0 -55 -11.5 -98t-39 -72.5t-72.5 -45t-112 -15.5q-128 0 -183.5 51t-55.5 157h140q0 -51 24 -72.5t75 -21.5t73 26t22 91q0 32 -4.5 53t-16 33.5t-29.5 17.5t-45 5
q-19 0 -43 -9t-36 -20h-139z" />
    <glyph glyph-name="six.tnum" 
d="M180 364q31 18 61 26t74 8q108 0 151.5 -49t43.5 -145q0 -46 -10.5 -85.5t-37.5 -68.5t-72.5 -45.5t-114.5 -16.5q-71 0 -117 17t-72 46.5t-36 68.5t-10 83v250q0 106 55.5 157.5t173.5 51.5q125 0 179 -50.5t54 -147.5h-140q0 42 -21 63t-72 21q-42 0 -65.5 -18.5
t-23.5 -72.5v-93zM278 305q-31 0 -56 -9t-42 -25v-61q0 -26 4 -46t14.5 -34t28 -21t45.5 -7q31 0 50.5 7t30 20t14 31.5t3.5 42.5q0 55 -19 78.5t-73 23.5z" />
    <glyph glyph-name="seven.tnum" 
d="M130 0l221 536h-309v114h454v-98l-220 -552h-146z" />
    <glyph glyph-name="eight.tnum" 
d="M270 -12q-124 0 -184.5 42.5t-60.5 141.5q0 69 33 107t81 55q-48 20 -73 55.5t-25 92.5q0 96 57 138t172 42q111 0 169.5 -41.5t58.5 -135.5q0 -57 -24.5 -93.5t-72.5 -57.5q23 -9 43.5 -22.5t36 -33t24.5 -46t9 -60.5q0 -99 -60 -141.5t-184 -42.5zM270 381
q18 0 34.5 3.5t29 13t20 25.5t7.5 41q0 48 -21.5 66t-69.5 18t-69.5 -18t-21.5 -66q0 -25 7.5 -41t20 -25.5t29 -13t34.5 -3.5zM270 102q51 0 76.5 19.5t25.5 65.5q0 29 -7.5 47t-21 28t-32 13.5t-41.5 3.5t-41.5 -3.5t-32 -13.5t-21 -28t-7.5 -47q0 -46 25.5 -65.5
t76.5 -19.5z" />
    <glyph glyph-name="nine.tnum" 
d="M360 289q-16 -9 -30.5 -15.5t-30.5 -10.5t-34 -6t-40 -2q-108 0 -151.5 49t-43.5 145q0 46 10.5 85t37.5 67.5t72.5 44.5t114.5 16q71 0 116.5 -17t72 -46.5t36.5 -68.5t10 -83v-250q0 -106 -55 -157.5t-173 -51.5q-65 0 -109.5 12t-72.5 37t-40 62t-12 87h140
q0 -42 21.5 -63t72.5 -21q42 0 65 18.5t23 72.5v96zM262 348q31 0 56 9t42 25v58q0 52 -18.5 80t-73.5 28q-31 0 -50.5 -7t-30 -20t-14 -31.5t-3.5 -42.5q0 -55 19 -77t73 -22z" />
    <glyph glyph-name="zero.tnum" 
d="M270 102q57 0 77 21.5t20 78.5v243q0 32 -5 52t-16.5 31.5t-30 15.5t-45.5 4t-45.5 -4t-30 -15.5t-16.5 -31.5t-5 -52v-243q0 -57 20 -78.5t77 -21.5zM270 662q121 0 179 -51t58 -170v-230q0 -119 -58.5 -171t-178.5 -52t-178.5 52t-58.5 171v230q0 119 57.5 170
t179.5 51z" />
    <glyph glyph-name="dollar.tnum" 
d="M485 225q0 -26 -4 -52t-20 -47t-48.5 -36t-89.5 -20v-90h-106v90q-47 4 -78.5 16.5t-50 33.5t-26.5 50t-8 67h138q0 -35 17.5 -47t61.5 -12q42 0 59 11.5t17 35.5q0 16 -3.5 27t-14 18t-30 11t-52.5 7q-57 4 -93.5 15t-57.5 29t-29 44t-8 60q0 69 40.5 107t117.5 46v81
h106v-81q83 -8 118.5 -47t35.5 -121h-138q0 10 -1 20.5t-8 19.5t-22 15t-42 6q-44 0 -56.5 -14.5t-12.5 -35.5q0 -14 3 -23.5t11.5 -16t24 -10.5t40.5 -6q67 -6 108 -15.5t63.5 -27t30 -43.5t7.5 -65z" />
    <glyph glyph-name="cent.tnum" 
d="M275 477q-26 0 -43 -6t-27 -19t-14 -34t-4 -52v-82q0 -33 4.5 -54t15 -34t27 -18t41.5 -5q40 0 59.5 16t19.5 66h136q0 -48 -11 -82t-31.5 -56t-50 -34.5t-66.5 -16.5v-86h-106v85q-44 4 -77 18.5t-55 42t-33 68.5t-11 100v62q0 60 11 101.5t33 68.5t55 40.5t77 18.5v85
h106v-86q38 -5 67.5 -16.5t50 -34t31 -56.5t10.5 -82h-136q0 26 -5 42t-15 25t-25 12t-34 3z" />
    <glyph glyph-name="sterling.tnum" 
d="M30 0v114q55 0 79 20t24 73q0 15 -4.5 33.5t-9.5 33.5h-89v82h63q-11 26 -20.5 61.5t-9.5 69.5q0 87 50 131t155 44q52 0 90.5 -9t64 -30t38.5 -56t13 -87h-140q0 34 -14 51t-50 17q-35 0 -50 -16t-15 -51q0 -34 8 -64.5t13 -60.5h109v-82h-97q2 -13 4 -25.5t2 -24.5
q0 -38 -9.5 -64t-31.5 -46h101q38 0 52 15.5t14 57.5h140q0 -52 -9 -87.5t-29.5 -57.5t-53.5 -32t-82 -10h-306z" />
    <glyph glyph-name="Euro.tnum" 
d="M299 102q48 0 69.5 23t21.5 81h138q0 -114 -54 -166t-175 -52t-177.5 56t-56.5 177v17h-53v60h53v53h-53v60h53v18q0 124 58.5 178.5t175.5 54.5q121 0 175 -51.5t54 -165.5h-138q0 55 -21.5 79t-69.5 24q-46 0 -70 -22t-24 -76v-39h136l-10 -60h-126v-53h118l-10 -60
h-108v-38q0 -54 24.5 -76t69.5 -22z" />
    <glyph glyph-name="yen.tnum" 
d="M200 139v53h-118v60h112l-178 398h151l102 -285h2l102 285h151l-178 -398h112v-60h-118v-53h118v-60h-118v-79h-140v79h-118v60h118z" />
    <glyph glyph-name="numbersign.tnum" 
d="M492 156h-94l-13 -156h-91l13 156h-106l-13 -156h-90l14 156h-94l7 78h94l16 183h-94l7 78h94l13 155h90l-14 -155h106l14 155h91l-14 -155h94l-7 -78h-94l-16 -183h94zM208 234h106l16 183h-106z" />
    <glyph glyph-name="percent.tnum" 
d="M434 650h89l-417 -650h-89zM134 372q-33 0 -57.5 7t-40.5 24t-24 45t-8 69q0 82 32 113.5t98 31.5t98 -31.5t32 -113.5q0 -41 -8 -69t-24 -45t-40.5 -24t-57.5 -7zM134 441q24 0 34.5 15t10.5 61t-10.5 61t-34.5 15t-34.5 -15t-10.5 -61t10.5 -61t34.5 -15zM406 -12
q-33 0 -57.5 7t-40.5 24t-24 45t-8 69q0 82 32 113.5t98 31.5t98 -31.5t32 -113.5q0 -41 -8 -69t-24 -45t-40.5 -24t-57.5 -7zM406 57q24 0 34.5 15t10.5 61t-10.5 61t-34.5 15t-34.5 -15t-10.5 -61t10.5 -61t34.5 -15z" />
    <glyph glyph-name="one.onum" horiz-adv-x="358" 
d="M142 0v390h-92v67l144 43h84v-500h-136z" />
    <glyph glyph-name="two.onum" horiz-adv-x="512" 
d="M35 55q0 62 22 100.5t55 61.5t72 35t72 23t55 24.5t22 39.5q0 31 -17 47t-60 16q-42 0 -60.5 -16t-18.5 -47h-134q0 46 15.5 79t43.5 54t67.5 30.5t86.5 9.5q104 0 158.5 -41t54.5 -129q0 -44 -22 -70t-54.5 -42t-71 -26t-71 -21t-54.5 -27.5t-22 -45.5h303v-110h-442v55
z" />
    <glyph glyph-name="three.onum" horiz-adv-x="535" 
d="M244 -182q-44 0 -96 9t-92 26v115q18 -8 41 -15t48 -12.5t50.5 -9t48.5 -3.5q68 0 94 29t26 81q0 33 -6 53.5t-19 32t-33.5 15t-48.5 3.5h-63v106h63q37 0 55.5 20t18.5 65q0 35 -18 52t-61 17q-42 0 -60 -16t-18 -47h-134q0 46 15.5 79t43.5 54t67 30.5t86 9.5
q104 0 159.5 -42t55.5 -130q0 -100 -91 -140q124 -34 124 -167q0 -50 -12.5 -89.5t-42 -67.5t-78.5 -43t-123 -15z" />
    <glyph glyph-name="four.onum" horiz-adv-x="542" 
d="M315 0h-295v102l262 398h169v-395h71v-105h-71v-170h-136v170zM315 105v271l-174 -271h174z" />
    <glyph glyph-name="five.onum" horiz-adv-x="526" 
d="M225 -182q-44 0 -94.5 9.5t-90.5 26.5v115q36 -16 86 -28.5t97 -12.5q74 0 102.5 31.5t28.5 96.5q0 63 -22.5 87.5t-74.5 24.5q-23 0 -48 -9t-43 -18h-113l32 359h363v-110h-252l-13 -151q21 12 51.5 20t62.5 8q45 0 81 -11t61 -36t38 -65.5t13 -98.5q0 -51 -11.5 -95
t-41.5 -75.5t-81.5 -49.5t-130.5 -18z" />
    <glyph glyph-name="six.onum" horiz-adv-x="536" 
d="M272 295q-29 0 -52 -8t-39 -22v-67q0 -52 18.5 -76t66.5 -24q55 0 74.5 25t19.5 73q0 57 -20.5 78t-67.5 21zM349 452q0 42 -19.5 61t-64.5 19q-37 0 -60.5 -18t-23.5 -67v-89q26 12 55.5 19.5t69.5 7.5q53 0 89.5 -11.5t59 -34.5t32 -57.5t9.5 -80.5t-11 -85t-37 -67.5
t-69.5 -44.5t-109.5 -16q-68 0 -111 16.5t-68.5 45t-35 67t-9.5 82.5v234q0 106 54 157.5t166 51.5q115 0 165 -49.5t53 -140.5h-134z" />
    <glyph glyph-name="seven.onum" horiz-adv-x="460" 
d="M88 -170l211 560h-279v110h420v-94l-210 -576h-142z" />
    <glyph glyph-name="eight.onum" horiz-adv-x="528" 
d="M264 642q103 0 158.5 -42t55.5 -133q0 -56 -24 -90.5t-68 -54.5q22 -8 41.5 -20t34 -31t23 -44.5t8.5 -59.5q0 -96 -57 -137.5t-172 -41.5t-172 41.5t-57 137.5q0 34 8.5 59.5t23 44.5t34 31t41.5 20q-44 20 -68 54.5t-24 90.5q0 91 55.5 133t158.5 42zM264 368
q16 0 31 3.5t26.5 13t18.5 25.5t7 40q0 47 -19.5 64.5t-63.5 17.5t-63.5 -17.5t-19.5 -64.5q0 -24 7 -40t18.5 -25.5t26.5 -13t31 -3.5zM264 99q47 0 70.5 18.5t23.5 63.5q0 28 -7 46t-19 28t-29.5 14t-38.5 4t-38.5 -4t-29.5 -14t-19 -28t-7 -46q0 -45 23.5 -63.5
t70.5 -18.5z" />
    <glyph glyph-name="nine.onum" horiz-adv-x="531" 
d="M259 178q28 0 51 9t40 23v89q0 57 -19.5 80t-67.5 23q-55 0 -73.5 -27t-18.5 -84q0 -63 20.5 -88t67.5 -25zM254 -72q51 0 73.5 18t22.5 69v99q-26 -12 -55.5 -19.5t-69.5 -7.5q-54 0 -90.5 14t-58.5 40.5t-31.5 65t-9.5 87.5q0 53 12 93.5t39 68.5t70.5 42t105.5 14
q67 0 110.5 -16t69 -44.5t35 -66.5t9.5 -82v-279q0 -55 -13 -94t-40.5 -64t-71.5 -36.5t-105 -11.5q-47 0 -93.5 9t-83.5 22v115q41 -17 85.5 -26.5t89.5 -9.5z" />
    <glyph glyph-name="zero.onum" horiz-adv-x="536" 
d="M360 300q0 32 -6.5 52t-18.5 31t-29 15t-38 4t-38 -4t-29 -15t-18.5 -31t-6.5 -52v-100q0 -32 6.5 -52t18.5 -31t29 -15t38 -4t38 4t29 15t18.5 31t6.5 52v100zM496 210q0 -65 -16 -108t-45.5 -68.5t-72 -35.5t-94.5 -10t-94 10t-72 35.5t-46 68.5t-16 108v80
q0 65 16 108t46 68.5t72 35.5t94 10t94.5 -10t72 -35.5t45.5 -68.5t16 -108v-80z" />
    <glyph glyph-name="dollar.onum" horiz-adv-x="531" 
d="M481 150q0 -26 -4 -52t-20 -47t-48.5 -36t-89.5 -20v-90h-106v90q-47 4 -78.5 16.5t-50 33.5t-26.5 50t-8 67h136q0 -35 18.5 -47t62.5 -12q42 0 60 11.5t18 35.5q0 16 -3.5 27t-14.5 18t-31 11t-53 7q-57 4 -93.5 15t-57.5 29t-29 44t-8 60q0 69 40.5 107t117.5 46v81
h106v-81q83 -8 118.5 -47t35.5 -121h-136q0 10 -1.5 20.5t-8.5 19.5t-22.5 15t-42.5 6q-44 0 -57.5 -14.5t-13.5 -35.5q0 -27 15.5 -39.5t65.5 -16.5q67 -6 108 -15.5t63.5 -27t30 -43.5t7.5 -65z" />
    <glyph glyph-name="cent.onum" horiz-adv-x="541" 
d="M276 402q-26 0 -43 -6t-27 -19t-14 -34t-4 -52v-82q0 -33 4.5 -54t15 -34t27 -18t41.5 -5q40 0 59.5 16t19.5 66h134q0 -48 -10.5 -82t-31 -56t-49.5 -34.5t-66 -16.5v-86h-106v85q-44 4 -77 18.5t-54.5 42t-32 68.5t-10.5 100v62q0 60 10.5 101.5t32.5 68.5t54.5 40.5
t76.5 18.5v85h106v-86q38 -5 67 -16.5t49 -34t30.5 -56.5t10.5 -82h-134q0 26 -5 42t-15 25t-25 12t-34 3z" />
    <glyph glyph-name="sterling.onum" horiz-adv-x="568" 
d="M52 0v110q39 0 62 11.5t33 31.5t8 48.5t-14 62.5h-89v82h63q-11 26 -20.5 56.5t-9.5 64.5q0 87 49 131t154 44q52 0 90 -9t63 -30t37 -56t12 -87h-136q0 34 -14 53t-50 19q-69 0 -69 -71q0 -34 6.5 -59.5t13.5 -55.5h112v-82h-97q8 -50 2 -86.5t-37 -67.5h103
q38 0 52 15.5t14 57.5h136q0 -52 -9 -87t-29.5 -56.5t-53.5 -30.5t-82 -9h-300z" />
    <glyph glyph-name="Euro.onum" horiz-adv-x="596" 
d="M327 102q48 0 69.5 20.5t21.5 78.5h136q0 -57 -12.5 -97.5t-40 -66t-70.5 -37.5t-104 -12q-121 0 -176.5 56t-55.5 177v10h-55v60h55v47h-55v60h55v11q0 124 57.5 178.5t174.5 54.5q61 0 104 -12t70.5 -37.5t40 -65.5t12.5 -97h-136q0 55 -21.5 76.5t-69.5 21.5
q-46 0 -70 -22t-24 -76v-32h136l-10 -60h-126v-47h118l-10 -60h-108v-31q0 -54 24.5 -76t69.5 -22z" />
    <glyph glyph-name="yen.onum" horiz-adv-x="548" 
d="M204 139v53h-118v60h112l-178 378h151l102 -268h2l102 268h151l-178 -378h112v-60h-118v-53h118v-60h-118v-79h-140v79h-118v60h118z" />
    <glyph glyph-name="numbersign.onum" horiz-adv-x="581" 
d="M514 156h-94l-13 -156h-91l13 156h-106l-13 -156h-90l14 156h-94l7 78h94l13 163h-94l7 78h94l13 155h90l-14 -155h106l14 155h91l-14 -155h94l-7 -78h-94l-13 -163h94zM230 234h106l13 163h-106z" />
    <glyph glyph-name="percent.onum" horiz-adv-x="652" 
d="M180 352q-36 0 -62 7t-43.5 24t-26 45t-8.5 69q0 82 34 113.5t106 31.5t106 -31.5t34 -113.5q0 -41 -8.5 -69t-26 -45t-43.5 -24t-62 -7zM180 421q29 0 42 15t13 61t-13 61t-42 15t-42 -15t-13 -61t13 -61t42 -15zM495 630h89l-427 -630h-89zM472 278q71 0 105.5 -31.5
t34.5 -113.5t-34 -113.5t-106 -31.5t-106 31.5t-34 113.5t34.5 113.5t105.5 31.5zM472 209q-29 0 -42 -15t-13 -61t13 -61t42 -15t42 15t13 61t-13 61t-42 15z" />
    <glyph glyph-name="a.smcp" horiz-adv-x="500" 
d="M329 98h-158l-22 -98h-134l147 556h176l147 -556h-134zM193 202h114l-56 246h-2z" />
    <glyph glyph-name="b.smcp" horiz-adv-x="525" 
d="M60 556h239q96 0 134.5 -35t38.5 -109q0 -49 -21.5 -80t-62.5 -47q54 -16 75.5 -50t21.5 -87q0 -36 -8.5 -63.5t-29 -46.5t-54.5 -28.5t-86 -9.5h-247v556zM196 228v-118h90q37 0 50 15.5t13 44.5q0 28 -13 43t-49 15h-91zM196 332h80q35 0 48 14.5t13 45.5
q0 30 -14.5 42t-46.5 12h-80v-114z" />
    <glyph glyph-name="c.smcp" horiz-adv-x="504" 
d="M256 98q45 0 59.5 20t14.5 58h134q0 -41 -9 -75.5t-32 -59.5t-63.5 -39t-103.5 -14q-108 0 -162 45.5t-54 155.5v178q0 107 51 154t165 47q63 0 103.5 -14t63.5 -39t32 -59.5t9 -75.5h-134q0 39 -14.5 58.5t-59.5 19.5q-43 0 -61.5 -17.5t-18.5 -67.5v-191
q0 -48 19.5 -66t60.5 -18z" />
    <glyph glyph-name="d.smcp" horiz-adv-x="538" 
d="M60 0v556h225q53 0 91.5 -10t63 -33.5t36.5 -61.5t12 -94v-158q0 -56 -11 -94.5t-35 -61.5t-61.5 -33t-90.5 -10h-230zM272 110q50 0 65 20.5t15 63.5v166q0 43 -15 64.5t-65 21.5h-76v-336h76z" />
    <glyph glyph-name="e.smcp" horiz-adv-x="477" 
d="M394 228h-198v-118h231v-110h-367v556h367v-110h-231v-114h198v-104z" />
    <glyph glyph-name="f.smcp" horiz-adv-x="448" 
d="M60 0v556h348v-110h-212v-114h179v-104h-179v-228h-136z" />
    <glyph glyph-name="g.smcp" horiz-adv-x="533" 
d="M50 367q0 107 54.5 154t161.5 47q62 0 102 -14.5t63.5 -40t33 -60.5t9.5 -76h-134q0 39 -14.5 60t-59.5 21q-41 0 -60.5 -18t-19.5 -70v-185q0 -48 19.5 -67.5t60.5 -19.5q45 0 60.5 18.5t15.5 47.5v65h-83v104h219v-333h-58l-17 42q-45 -54 -137 -54q-51 0 -91 10.5
t-67.5 34.5t-42.5 62.5t-15 93.5v178z" />
    <glyph glyph-name="h.smcp" horiz-adv-x="544" 
d="M484 0h-136v228h-152v-228h-136v556h136v-224h152v224h136v-556z" />
    <glyph glyph-name="i.smcp" horiz-adv-x="256" 
d="M60 556h136v-556h-136v556z" />
    <glyph glyph-name="j.smcp" horiz-adv-x="344" 
d="M70 446v110h214v-425q0 -41 -9 -68.5t-26.5 -44t-43.5 -23.5t-60 -7q-26 0 -55.5 3t-49.5 9v112q23 -5 38 -7.5t31 -2.5q23 0 31 9.5t8 26.5v308h-78z" />
    <glyph glyph-name="k.smcp" horiz-adv-x="487" 
d="M196 0h-136v556h136v-227l128 227h152l-171 -276l172 -280h-150l-131 232v-232z" />
    <glyph glyph-name="l.smcp" horiz-adv-x="396" 
d="M60 556h136v-446h170v-110h-306v556z" />
    <glyph glyph-name="m.smcp" horiz-adv-x="694" 
d="M346 170h2l95 386h191v-556h-134v230l5 182l-107 -412h-103l-106 412l5 -177v-235h-134v556h191z" />
    <glyph glyph-name="n.smcp" horiz-adv-x="555" 
d="M495 0h-169l-140 381v-381h-126v556h169l140 -381v381h126v-556z" />
    <glyph glyph-name="o.smcp" horiz-adv-x="526" 
d="M486 200q0 -117 -54.5 -164.5t-168.5 -47.5q-113 0 -168 47.5t-55 164.5v157q0 58 13.5 98.5t41.5 65.5t69.5 36t98.5 11t99 -11t69.5 -36t41 -65.5t13.5 -98.5v-157zM350 359q0 56 -20.5 77.5t-66.5 21.5q-47 0 -67 -21.5t-20 -77.5v-161q0 -57 20 -78.5t67 -21.5
t67 21.5t20 78.5v161z" />
    <glyph glyph-name="p.smcp" horiz-adv-x="501" 
d="M60 556h206q106 0 155.5 -40.5t49.5 -140.5q0 -52 -12 -87.5t-37.5 -57t-64 -31t-91.5 -9.5h-70v-190h-136v556zM196 294h71q38 0 53 20t15 58q0 36 -14.5 55t-56.5 19h-68v-152z" />
    <glyph glyph-name="q.smcp" horiz-adv-x="526" 
d="M486 200q0 -101 -40 -149t-124 -59q3 -17 15.5 -24t31.5 -7h54l-27 -62h-80q-45 0 -75.5 21.5t-33.5 70.5q-85 10 -126 58.5t-41 150.5v157q0 58 13.5 98.5t41.5 65.5t69.5 36t98.5 11t99 -11t69.5 -36t41 -65.5t13.5 -98.5v-157zM350 359q0 56 -20.5 77.5t-66.5 21.5
q-47 0 -67 -21.5t-20 -77.5v-161q0 -57 20 -78.5t67 -21.5t67 21.5t20 78.5v161z" />
    <glyph glyph-name="r.smcp" horiz-adv-x="517" 
d="M487 0h-140l-97 190h-54v-190h-136v556h202q55 0 95 -9.5t66.5 -30.5t39 -55.5t12.5 -84.5q0 -76 -26.5 -116t-68.5 -57zM196 294h68q40 0 57.5 19t17.5 59t-17.5 57t-57.5 17h-68v-152z" />
    <glyph glyph-name="s.smcp" horiz-adv-x="514" 
d="M256 99q49 0 65.5 16t16.5 46q0 17 -4.5 29t-15.5 19.5t-29 12.5t-45 9q-54 7 -92 19t-62 32t-34.5 49.5t-10.5 73.5q0 78 51 120.5t158 42.5q59 0 98.5 -11t63.5 -33t34.5 -55t10.5 -76h-134q0 35 -16.5 50t-58.5 15q-71 0 -71 -59q0 -19 6 -31t17 -19.5t27.5 -12
t37.5 -7.5q66 -11 106 -24t62 -32.5t29.5 -47t7.5 -66.5q0 -75 -53.5 -122.5t-164.5 -47.5q-63 0 -105.5 11.5t-68 34.5t-36.5 57t-11 78h136q0 -18 3.5 -31.5t13 -22t26 -13t42.5 -4.5z" />
    <glyph glyph-name="t.smcp" horiz-adv-x="438" 
d="M151 446h-131v110h398v-110h-131v-446h-136v446z" />
    <glyph glyph-name="u.smcp" horiz-adv-x="534" 
d="M191 556v-377q0 -43 16.5 -62t59.5 -19t59.5 19t16.5 62v377h136v-377q0 -54 -13.5 -90.5t-40 -58.5t-66.5 -31.5t-92 -9.5q-53 0 -92.5 9.5t-66 31.5t-40 58.5t-13.5 90.5v377h136z" />
    <glyph glyph-name="v.smcp" horiz-adv-x="494" 
d="M246 143h2l86 413h145l-149 -556h-166l-149 556h145z" />
    <glyph glyph-name="w.smcp" horiz-adv-x="768" 
d="M459 556l76 -412h2l63 412h138l-115 -556h-165l-74 432l-74 -432h-165l-115 556h138l63 -412h2l76 412h150z" />
    <glyph glyph-name="x.smcp" horiz-adv-x="474" 
d="M313 287l149 -287h-147l-78 184l-78 -184h-147l149 287l-145 269h148l73 -169l73 169h148z" />
    <glyph glyph-name="y.smcp" horiz-adv-x="465" 
d="M165 203l-150 353h144l73 -230h2l73 230h143l-149 -353v-203h-136v203z" />
    <glyph glyph-name="z.smcp" horiz-adv-x="481" 
d="M55 556h376v-88l-223 -358h233v-110h-391v87l223 359h-218v110z" />
    <glyph glyph-name="ampersand.smcp" horiz-adv-x="598" 
d="M478 228v-74q0 -31 15.5 -42t45.5 -11v-101q-45 0 -75 7.5t-56 36.5q-26 -24 -62 -40t-84 -16q-111 0 -161 38t-50 123q0 48 25.5 83.5t74.5 49.5q-45 17 -66.5 50.5t-21.5 75.5q0 79 48 118.5t149 39.5q108 0 155 -40t47 -133h-135q0 33 -17 48t-50 15
q-29 0 -45.5 -14.5t-16.5 -49.5t20 -47.5t51 -12.5h266v-104h-57zM266 98q35 0 55.5 17t20.5 56v57h-86q-29 0 -48.5 -14t-19.5 -49q0 -38 21 -52.5t57 -14.5z" />
    <glyph glyph-name="one.smcp" horiz-adv-x="342" 
d="M124 0v446h-94v69l138 42h94v-557h-138z" />
    <glyph glyph-name="two.smcp" horiz-adv-x="487" 
d="M41 67q0 62 20 101t49.5 64.5t64.5 41t64.5 31t49.5 35t20 51.5q0 38 -16 52.5t-49 14.5q-34 0 -49 -17t-15 -50h-134q0 88 47.5 132.5t150.5 44.5q57 0 95.5 -12t62 -35t33.5 -55.5t10 -74.5q0 -47 -19.5 -77.5t-49.5 -52t-64 -37t-64 -31t-49.5 -35t-19.5 -48.5h279
v-110h-417v67z" />
    <glyph glyph-name="three.smcp" horiz-adv-x="501" 
d="M42 391q0 97 52 137t154 40q107 0 153.5 -44.5t46.5 -122.5q0 -43 -24.5 -73t-68.5 -44q56 -11 83.5 -45t27.5 -85q0 -33 -9.5 -63t-33.5 -52.5t-65 -36t-104 -13.5q-60 0 -101 10.5t-66 32.5t-36 54.5t-11 76.5h134q0 -29 15.5 -47t66.5 -18q46 0 60 17.5t14 48.5
q0 21 -5.5 34t-16 20t-25.5 9.5t-34 2.5h-40v104h40q28 0 45.5 10.5t17.5 48.5q0 31 -14.5 48t-51.5 17q-39 0 -54.5 -16t-15.5 -51h-134z" />
    <glyph glyph-name="four.smcp" horiz-adv-x="486" 
d="M271 100h-251v107l224 349h163v-346h59v-110h-59v-100h-136v100zM271 210v216l-137 -216h137z" />
    <glyph glyph-name="five.smcp" horiz-adv-x="503" 
d="M57 247l30 309h342v-110h-232l-8 -107q25 10 50.5 15t47.5 5q97 0 139 -42.5t42 -139.5q0 -94 -52 -141.5t-165 -47.5q-62 0 -103 11.5t-65 34t-33.5 55t-9.5 74.5h136q0 -34 17 -49.5t58 -15.5q46 0 62.5 19t16.5 62q0 51 -16 72t-54 21q-20 0 -41.5 -4.5t-47.5 -20.5
h-114z" />
    <glyph glyph-name="six.smcp" horiz-adv-x="508" 
d="M181 317q23 13 52 21.5t58 8.5q51 0 85 -11t54.5 -32.5t29 -54t8.5 -74.5q0 -95 -50 -141t-163 -46q-111 0 -160.5 49.5t-49.5 158.5v163q0 113 54.5 161t157.5 48q44 0 81 -6.5t63.5 -25t41.5 -51t15 -83.5h-136q0 29 -15.5 42.5t-53.5 13.5q-37 0 -54.5 -15.5
t-17.5 -60.5v-65zM259 262q-38 0 -78 -23v-65q0 -40 16.5 -58t58.5 -18q23 0 37.5 6t22.5 16.5t11 25.5t3 32q0 45 -15.5 64.5t-55.5 19.5z" />
    <glyph glyph-name="seven.smcp" horiz-adv-x="424" 
d="M101 0l166 446h-247v110h384v-91l-162 -465h-141z" />
    <glyph glyph-name="eight.smcp" horiz-adv-x="514" 
d="M257 -12q-118 0 -170 40t-52 117q0 47 30 84t84 54q-50 17 -72.5 53t-22.5 81q0 40 14.5 68.5t41 47t64 27t83.5 8.5q93 0 147.5 -35.5t54.5 -115.5q0 -45 -22.5 -81t-71.5 -53q54 -17 84 -54t30 -84q0 -77 -52 -117t-170 -40zM246 238q-36 0 -55 -18.5t-19 -50.5
q0 -37 19.5 -54t65.5 -17t65.5 17t19.5 54q0 32 -19 50.5t-54 18.5h-23zM270 330q19 0 37 13.5t18 46.5q0 39 -18 53.5t-50 14.5t-50.5 -14.5t-18.5 -53.5q0 -33 18 -46.5t37 -13.5h27z" />
    <glyph glyph-name="nine.smcp" horiz-adv-x="510" 
d="M329 239q-23 -13 -52.5 -21.5t-58.5 -8.5q-51 0 -85 11t-54.5 32.5t-29.5 54t-9 74.5q0 95 50.5 141t163.5 46q111 0 161 -49.5t50 -158.5v-163q0 -113 -55 -161t-158 -48q-44 0 -81 6.5t-64 25t-42 51t-15 83.5h136q0 -29 16 -42.5t54 -13.5q39 0 56 15.5t17 60.5v65z
M250 294q39 0 79 23v65q0 40 -17 58t-59 18q-23 0 -37.5 -6t-23 -16.5t-11.5 -25.5t-3 -32q0 -45 16 -64.5t56 -19.5z" />
    <glyph glyph-name="zero.smcp" horiz-adv-x="503" 
d="M463 197q0 -113 -52.5 -161t-158.5 -48q-107 0 -159.5 48t-52.5 161v162q0 113 53.5 161t158.5 48t158 -48t53 -161v-162zM327 371q0 50 -17.5 68.5t-57.5 18.5q-41 0 -58.5 -18.5t-17.5 -68.5v-186q0 -52 17.5 -69.5t58.5 -17.5q40 0 57.5 17.5t17.5 69.5v186z" />
    <glyph glyph-name="dollar.smcp" horiz-adv-x="509" 
d="M466 177q0 -26 -4 -52t-20 -47t-48.5 -36t-89.5 -20v-90h-106v90q-47 4 -78.5 16.5t-50 33.5t-26.5 50t-8 67h136q0 -35 18.5 -47t62.5 -12q42 0 60 11.5t18 35.5q0 16 -3.5 27t-14.5 18t-31 11t-53 7q-57 4 -93.5 15t-57.5 29t-29 44t-8 60q0 69 40.5 107t117.5 46v81
h106v-81q83 -8 118.5 -47t35.5 -121h-136q0 10 -1.5 20.5t-8.5 19.5t-22.5 15t-42.5 6q-44 0 -57.5 -14.5t-13.5 -35.5q0 -27 15.5 -39.5t65.5 -16.5q67 -6 108 -15.5t63.5 -27t30 -43.5t7.5 -65z" />
    <glyph glyph-name="cent.smcp" horiz-adv-x="522" 
d="M263 430q-26 0 -43 -6t-27 -19t-14 -34t-4 -52v-82q0 -33 4.5 -54t15 -34t27 -18t41.5 -5q40 0 59.5 16t19.5 66h134q0 -48 -10.5 -82t-31 -56t-49.5 -34.5t-66 -16.5v-86h-106v85q-44 4 -77 18.5t-54.5 42t-32 68.5t-10.5 100v62q0 60 10.5 101.5t32.5 68.5t54.5 40.5
t76.5 18.5v85h106v-86q38 -5 67 -16.5t49 -34t30.5 -56.5t10.5 -82h-134q0 26 -5 42t-15 25t-25 12t-34 3z" />
    <glyph glyph-name="sterling.smcp" horiz-adv-x="529" 
d="M203 394q0 -29 5 -51.5t9 -39.5h87v-76h-73q5 -30 0.5 -61t-27.5 -56h79q25 0 40.5 4.5t23.5 14t10.5 24.5t2.5 37h134q0 -60 -10 -97t-31 -58t-53.5 -28t-77.5 -7h-282v110q44 0 67 18.5t23 53.5q0 22 -8 45h-82v76h57q-12 24 -20.5 48t-8.5 55q0 78 47 118.5t147 40.5
q56 0 93 -10.5t59.5 -32t32 -54t9.5 -75.5h-134q0 32 -13.5 47t-46.5 15q-59 0 -59 -61z" />
    <glyph glyph-name="Euro.smcp" horiz-adv-x="551" 
d="M87 253v50h-57v54h57v10q0 107 54.5 154t161.5 47q62 0 102 -14.5t63.5 -40t33 -60.5t9.5 -76h-134q0 39 -14.5 60t-59.5 21q-41 0 -60.5 -19.5t-19.5 -72.5v-9h118l-10 -54h-108v-50h98l-9 -54h-89v-14q0 -48 19.5 -67.5t60.5 -19.5q45 0 59.5 21.5t14.5 59.5h134
q0 -41 -9.5 -76t-33 -60.5t-63.5 -40t-102 -14.5q-51 0 -91 10.5t-67.5 34.5t-42.5 62.5t-15 93.5v10h-57v54h57z" />
    <glyph glyph-name="yen.smcp" horiz-adv-x="496" 
d="M180 120v42h-113v58h106l-143 336h144l73 -230h2l73 230h144l-143 -336h106v-58h-113v-42h113v-58h-113v-62h-136v62h-113v58h113z" />
    <glyph glyph-name="numbersign.smcp" horiz-adv-x="518" 
d="M462 131h-79l-10 -131h-93l10 131h-88l-10 -131h-93l10 131h-79l7 80h79l12 134h-79l7 80h79l11 131h93l-11 -131h88l11 131h93l-11 -131h79l-7 -80h-79l-12 -134h79zM209 211h88l12 134h-88z" />
    <glyph glyph-name="percent.smcp" horiz-adv-x="614" 
d="M157 0h-89l373 556h89zM125 444q0 -39 9.5 -52t32.5 -13q22 0 32 12.5t10 50.5q0 37 -10 49.5t-32 12.5t-32 -12.5t-10 -47.5zM397 118q0 -39 9.5 -52t32.5 -13q22 0 32 12.5t10 50.5q0 37 -10 49.5t-32 12.5t-32 -12.5t-10 -47.5zM286 441q0 -73 -29 -100t-90 -27
q-62 0 -90.5 27t-28.5 100q0 72 28.5 99.5t90.5 27.5q61 0 90 -27.5t29 -99.5zM558 115q0 -73 -29 -100t-90 -27q-62 0 -90.5 27t-28.5 100q0 72 28.5 99.5t90.5 27.5q61 0 90 -27.5t29 -99.5z" />
    <glyph glyph-name="one.tnum_smcp" horiz-adv-x="500" 
d="M109 110h94v336h-99v69l118 42h119v-447h94v-110h-326v110z" />
    <glyph glyph-name="two.tnum_smcp" horiz-adv-x="500" 
d="M41 67q0 62 20 101t49.5 64.5t64.5 41t64.5 31t49.5 35t20 51.5q0 38 -16 52.5t-49 14.5q-34 0 -49 -17t-15 -50h-134q0 88 47.5 132.5t150.5 44.5q57 0 95.5 -12t62 -35t33.5 -55.5t10 -74.5q0 -47 -19.5 -77.5t-49.5 -52t-64 -37t-64 -31t-49.5 -35t-19.5 -48.5h279
v-110h-417v67z" />
    <glyph glyph-name="three.tnum_smcp" horiz-adv-x="500" 
d="M39 391q0 97 52 137t154 40q107 0 153.5 -44.5t46.5 -122.5q0 -43 -24.5 -73t-68.5 -44q56 -11 83.5 -45t27.5 -85q0 -33 -9.5 -63t-33.5 -52.5t-65 -36t-104 -13.5q-60 0 -101 10.5t-66 32.5t-36 54.5t-11 76.5h134q0 -29 15.5 -47t66.5 -18q46 0 60 17.5t14 48.5
q0 21 -5.5 34t-16 20t-25.5 9.5t-34 2.5h-40v104h40q28 0 45.5 10.5t17.5 48.5q0 31 -14.5 48t-51.5 17q-39 0 -54.5 -16t-15.5 -51h-134z" />
    <glyph glyph-name="four.tnum_smcp" horiz-adv-x="500" 
d="M278 100h-251v107l224 349h163v-346h59v-110h-59v-100h-136v100zM278 210v216l-137 -216h137z" />
    <glyph glyph-name="five.tnum_smcp" horiz-adv-x="500" 
d="M53 247l30 309h342v-110h-232l-8 -107q25 10 50.5 15t47.5 5q97 0 139 -42.5t42 -139.5q0 -94 -52 -141.5t-165 -47.5q-62 0 -103 11.5t-65 34t-33.5 55t-9.5 74.5h136q0 -34 17 -49.5t58 -15.5q46 0 62.5 19t16.5 62q0 51 -16 72t-54 21q-20 0 -41.5 -4.5t-47.5 -20.5
h-114z" />
    <glyph glyph-name="six.tnum_smcp" horiz-adv-x="500" 
d="M174 317q23 13 52 21.5t58 8.5q51 0 85 -11t54.5 -32.5t29 -54t8.5 -74.5q0 -95 -50 -141t-163 -46q-111 0 -160.5 49.5t-49.5 158.5v163q0 113 54.5 161t157.5 48q44 0 81 -6.5t63.5 -25t41.5 -51t15 -83.5h-136q0 29 -15.5 42.5t-53.5 13.5q-37 0 -54.5 -15.5
t-17.5 -60.5v-65zM252 262q-38 0 -78 -23v-65q0 -40 16.5 -58t58.5 -18q23 0 37.5 6t22.5 16.5t11 25.5t3 32q0 45 -15.5 64.5t-55.5 19.5z" />
    <glyph glyph-name="seven.tnum_smcp" horiz-adv-x="500" 
d="M135 0l176 446h-257v110h394v-91l-172 -465h-141z" />
    <glyph glyph-name="eight.tnum_smcp" horiz-adv-x="500" 
d="M250 -12q-118 0 -170 40t-52 117q0 47 30 84t84 54q-50 17 -72.5 53t-22.5 81q0 40 14.5 68.5t41 47t64 27t83.5 8.5q93 0 147.5 -35.5t54.5 -115.5q0 -45 -22.5 -81t-71.5 -53q54 -17 84 -54t30 -84q0 -77 -52 -117t-170 -40zM239 238q-36 0 -55 -18.5t-19 -50.5
q0 -37 19.5 -54t65.5 -17t65.5 17t19.5 54q0 32 -19 50.5t-54 18.5h-23zM263 330q19 0 37 13.5t18 46.5q0 39 -18 53.5t-50 14.5t-50.5 -14.5t-18.5 -53.5q0 -33 18 -46.5t37 -13.5h27z" />
    <glyph glyph-name="nine.tnum_smcp" horiz-adv-x="500" 
d="M326 239q-23 -13 -52.5 -21.5t-58.5 -8.5q-51 0 -85 11t-54.5 32.5t-29.5 54t-9 74.5q0 95 50.5 141t163.5 46q111 0 161 -49.5t50 -158.5v-163q0 -113 -55 -161t-158 -48q-44 0 -81 6.5t-64 25t-42 51t-15 83.5h136q0 -29 16 -42.5t54 -13.5q39 0 56 15.5t17 60.5v65z
M247 294q39 0 79 23v65q0 40 -17 58t-59 18q-23 0 -37.5 -6t-23 -16.5t-11.5 -25.5t-3 -32q0 -45 16 -64.5t56 -19.5z" />
    <glyph glyph-name="zero.tnum_smcp" horiz-adv-x="500" 
d="M461 197q0 -113 -52.5 -161t-158.5 -48q-107 0 -159.5 48t-52.5 161v162q0 113 53.5 161t158.5 48t158 -48t53 -161v-162zM325 371q0 50 -17.5 68.5t-57.5 18.5q-41 0 -58.5 -18.5t-17.5 -68.5v-186q0 -52 17.5 -69.5t58.5 -17.5q40 0 57.5 17.5t17.5 69.5v186z" />
    <glyph glyph-name="dollar.tnum_smcp" horiz-adv-x="500" 
d="M465 177q0 -26 -4 -52t-20 -47t-48.5 -36t-89.5 -20v-90h-106v90q-47 4 -78.5 16.5t-50 33.5t-26.5 50t-8 67h136q0 -35 18.5 -47t62.5 -12q42 0 60 11.5t18 35.5q0 16 -3.5 27t-14.5 18t-31 11t-53 7q-57 4 -93.5 15t-57.5 29t-29 44t-8 60q0 69 40.5 107t117.5 46v81
h106v-81q83 -8 118.5 -47t35.5 -121h-136q0 10 -1.5 20.5t-8.5 19.5t-22.5 15t-42.5 6q-44 0 -57.5 -14.5t-13.5 -35.5q0 -27 15.5 -39.5t65.5 -16.5q67 -6 108 -15.5t63.5 -27t30 -43.5t7.5 -65z" />
    <glyph glyph-name="cent.tnum_smcp" horiz-adv-x="500" 
d="M255 430q-26 0 -43 -6t-27 -19t-14 -34t-4 -52v-82q0 -33 4.5 -54t15 -34t27 -18t41.5 -5q40 0 59.5 16t19.5 66h134q0 -48 -10.5 -82t-31 -56t-49.5 -34.5t-66 -16.5v-86h-106v85q-44 4 -77 18.5t-54.5 42t-32 68.5t-10.5 100v62q0 60 10.5 101.5t32.5 68.5t54.5 40.5
t76.5 18.5v85h106v-86q38 -5 67 -16.5t49 -34t30.5 -56.5t10.5 -82h-134q0 26 -5 42t-15 25t-25 12t-34 3z" />
    <glyph glyph-name="sterling.tnum_smcp" horiz-adv-x="500" 
d="M187 394q0 -29 5 -51.5t9 -39.5h87v-76h-73q5 -30 0.5 -61t-27.5 -56h79q25 0 40.5 4.5t23.5 14t10.5 24.5t2.5 37h134q0 -60 -10 -97t-31 -58t-53.5 -28t-77.5 -7h-282v110q44 0 67 18.5t23 53.5q0 22 -8 45h-82v76h57q-12 24 -20.5 48t-8.5 55q0 78 47 118.5t147 40.5
q56 0 93 -10.5t59.5 -32t32 -54t9.5 -75.5h-134q0 32 -13.5 47t-46.5 15q-59 0 -59 -61z" />
    <glyph glyph-name="Euro.tnum_smcp" horiz-adv-x="500" 
d="M66 253v50h-57v54h57v10q0 107 54.5 154t161.5 47q62 0 102 -14.5t63.5 -40t33 -60.5t9.5 -76h-134q0 39 -14.5 60t-59.5 21q-41 0 -60.5 -19.5t-19.5 -72.5v-9h118l-10 -54h-108v-50h98l-9 -54h-89v-14q0 -48 19.5 -67.5t60.5 -19.5q45 0 59.5 21.5t14.5 59.5h134
q0 -41 -9.5 -76t-33 -60.5t-63.5 -40t-102 -14.5q-51 0 -91 10.5t-67.5 34.5t-42.5 62.5t-15 93.5v10h-57v54h57z" />
    <glyph glyph-name="yen.tnum_smcp" horiz-adv-x="500" 
d="M182 120v42h-113v58h106l-143 336h144l73 -230h2l73 230h144l-143 -336h106v-58h-113v-42h113v-58h-113v-62h-136v62h-113v58h113z" />
    <glyph glyph-name="numbersign.tnum_smcp" horiz-adv-x="500" 
d="M453 131h-79l-10 -131h-93l10 131h-88l-10 -131h-93l10 131h-79l7 80h79l12 134h-79l7 80h79l11 131h93l-11 -131h88l11 131h93l-11 -131h79l-7 -80h-79l-12 -134h79zM200 211h88l12 134h-88z" />
    <glyph glyph-name="percent.tnum_smcp" horiz-adv-x="500" 
d="M104 0h-89l373 556h89zM72 444q0 -39 9.5 -52t32.5 -13q22 0 32 12.5t10 50.5q0 37 -10 49.5t-32 12.5t-32 -12.5t-10 -47.5zM344 118q0 -39 9.5 -52t32.5 -13q22 0 32 12.5t10 50.5q0 37 -10 49.5t-32 12.5t-32 -12.5t-10 -47.5zM233 441q0 -73 -29 -100t-90 -27
q-62 0 -90.5 27t-28.5 100q0 72 28.5 99.5t90.5 27.5q61 0 90 -27.5t29 -99.5zM505 115q0 -73 -29 -100t-90 -27q-62 0 -90.5 27t-28.5 100q0 72 28.5 99.5t90.5 27.5q61 0 90 -27.5t29 -99.5z" />
    <glyph glyph-name="acute.smcp" horiz-adv-x="235" 
d="M68 720h127l-72 -120h-83z" />
    <glyph glyph-name="grave.smcp" horiz-adv-x="235" 
d="M195 600h-83l-72 120h127z" />
    <glyph glyph-name="circumflex.smcp" horiz-adv-x="335" 
d="M295 600h-88l-40 54l-39 -54h-88l54 120h147z" />
    <glyph glyph-name="dieresis.smcp" horiz-adv-x="352" 
d="M40 710h106v-106h-106v106zM206 710h106v-106h-106v106z" />
    <glyph glyph-name="tilde.smcp" horiz-adv-x="416" 
d="M266 686q14 0 23 8t9 26h78q0 -69 -23 -94.5t-71 -25.5q-26 0 -42.5 7t-30 16t-27 16t-32.5 7q-14 0 -23 -8t-9 -26h-78q0 69 23 94.5t71 25.5q26 0 42.5 -7t30 -16t27 -16t32.5 -7z" />
    <glyph glyph-name="caron.smcp" horiz-adv-x="335" 
d="M241 600h-147l-54 120h88l39 -54l40 54h88z" />
    <glyph glyph-name="ring.smcp" horiz-adv-x="302" 
d="M151 772q53 0 82 -23t29 -70t-29 -71t-82 -24t-82 24t-29 71t29 70t82 23zM151 642q39 0 39 37q0 35 -39 35t-39 -35q0 -37 39 -37z" />
    <glyph glyph-name="breve.smcp" horiz-adv-x="332" 
d="M166 596q-64 0 -95 35t-31 99h78q0 -53 48 -53t48 53h78q0 -64 -31 -99t-95 -35z" />
    <glyph glyph-name="macron.smcp" horiz-adv-x="390" 
d="M40 700h310v-86h-310v86z" />
    <glyph glyph-name="dotaccent.smcp" horiz-adv-x="186" 
d="M40 710h106v-106h-106v106z" />
    <glyph glyph-name="hungarumlaut.smcp" horiz-adv-x="378" 
d="M58 720h117l-52 -120h-83zM221 720h117l-72 -120h-83z" />
    <glyph glyph-name="aacute.smcp" horiz-adv-x="500" 
d="M329 98h-158l-22 -98h-134l147 556h176l147 -556h-134zM193 202h114l-56 246h-2zM240 720h127l-72 -120h-83z" />
    <glyph glyph-name="agrave.smcp" horiz-adv-x="500" 
d="M329 98h-158l-22 -98h-134l147 556h176l147 -556h-134zM193 202h114l-56 246h-2zM307 600h-83l-72 120h127z" />
    <glyph glyph-name="acircumflex.smcp" horiz-adv-x="500" 
d="M329 98h-158l-22 -98h-134l147 556h176l147 -556h-134zM193 202h114l-56 246h-2zM377 600h-88l-40 54l-39 -54h-88l54 120h147z" />
    <glyph glyph-name="adieresis.smcp" horiz-adv-x="500" 
d="M329 98h-158l-22 -98h-134l147 556h176l147 -556h-134zM193 202h114l-56 246h-2zM114 710h106v-106h-106v106zM280 710h106v-106h-106v106z" />
    <glyph glyph-name="atilde.smcp" horiz-adv-x="500" 
d="M329 98h-158l-22 -98h-134l147 556h176l147 -556h-134zM193 202h114l-56 246h-2zM308 686q14 0 23 8t9 26h78q0 -69 -23 -94.5t-71 -25.5q-26 0 -42.5 7t-30 16t-27 16t-32.5 7q-14 0 -23 -8t-9 -26h-78q0 69 23 94.5t71 25.5q26 0 42.5 -7t30 -16t27 -16t32.5 -7z" />
    <glyph glyph-name="aring.smcp" horiz-adv-x="500" 
d="M329 98h-158l-22 -98h-134l147 556h176l147 -556h-134zM193 202h114l-56 246h-2zM250 772q53 0 82 -23t29 -70t-29 -71t-82 -24t-82 24t-29 71t29 70t82 23zM250 642q39 0 39 37q0 35 -39 35t-39 -35q0 -37 39 -37z" />
    <glyph glyph-name="amacron.smcp" horiz-adv-x="500" 
d="M329 98h-158l-22 -98h-134l147 556h176l147 -556h-134zM193 202h114l-56 246h-2zM95 700h310v-86h-310v86z" />
    <glyph glyph-name="abreve.smcp" horiz-adv-x="500" 
d="M329 98h-158l-22 -98h-134l147 556h176l147 -556h-134zM193 202h114l-56 246h-2zM250 596q-64 0 -95 35t-31 99h78q0 -53 48 -53t48 53h78q0 -64 -31 -99t-95 -35z" />
    <glyph glyph-name="aogonek.smcp" horiz-adv-x="500" 
d="M329 98h-158l-22 -98h-134l147 556h176l147 -556q-20 -17 -31 -33t-11 -37q0 -14 9 -20t24 -6h9v-78h-57q-38 0 -61 17t-23 54q0 28 15.5 55.5t44.5 47.5h-53zM193 202h114l-56 246h-2z" />
    <glyph glyph-name="ae.smcp" horiz-adv-x="768" 
d="M685 228h-198v-118h231v-110h-367l-1 98h-158l-43 -98h-134l270 556h433v-110h-231v-114h198v-104zM237 202h114l-1 246h-2z" />
    <glyph glyph-name="bdotaccent.smcp" horiz-adv-x="525" 
d="M60 556h239q96 0 134.5 -35t38.5 -109q0 -49 -21.5 -80t-62.5 -47q54 -16 75.5 -50t21.5 -87q0 -36 -8.5 -63.5t-29 -46.5t-54.5 -28.5t-86 -9.5h-247v556zM196 228v-118h90q37 0 50 15.5t13 44.5q0 28 -13 43t-49 15h-91zM196 332h80q35 0 48 14.5t13 45.5
q0 30 -14.5 42t-46.5 12h-80v-114zM209 710h106v-106h-106v106z" />
    <glyph glyph-name="cacute.smcp" horiz-adv-x="504" 
d="M256 98q45 0 59.5 20t14.5 58h134q0 -41 -9 -75.5t-32 -59.5t-63.5 -39t-103.5 -14q-108 0 -162 45.5t-54 155.5v178q0 107 51 154t165 47q63 0 103.5 -14t63.5 -39t32 -59.5t9 -75.5h-134q0 39 -14.5 58.5t-59.5 19.5q-43 0 -61.5 -17.5t-18.5 -67.5v-191
q0 -48 19.5 -66t60.5 -18zM239 720h127l-72 -120h-83z" />
    <glyph glyph-name="ccircumflex.smcp" horiz-adv-x="504" 
d="M256 98q45 0 59.5 20t14.5 58h134q0 -41 -9 -75.5t-32 -59.5t-63.5 -39t-103.5 -14q-108 0 -162 45.5t-54 155.5v178q0 107 51 154t165 47q63 0 103.5 -14t63.5 -39t32 -59.5t9 -75.5h-134q0 39 -14.5 58.5t-59.5 19.5q-43 0 -61.5 -17.5t-18.5 -67.5v-191
q0 -48 19.5 -66t60.5 -18zM384 600h-88l-40 54l-39 -54h-88l54 120h147z" />
    <glyph glyph-name="ccaron.smcp" horiz-adv-x="504" 
d="M256 98q45 0 59.5 20t14.5 58h134q0 -41 -9 -75.5t-32 -59.5t-63.5 -39t-103.5 -14q-108 0 -162 45.5t-54 155.5v178q0 107 51 154t165 47q63 0 103.5 -14t63.5 -39t32 -59.5t9 -75.5h-134q0 39 -14.5 58.5t-59.5 19.5q-43 0 -61.5 -17.5t-18.5 -67.5v-191
q0 -48 19.5 -66t60.5 -18zM325 600h-147l-54 120h88l39 -54l40 54h88z" />
    <glyph glyph-name="ccedilla.smcp" horiz-adv-x="504" 
d="M256 98q45 0 59.5 20t14.5 58h134q0 -39 -8 -72t-29 -58t-57 -39.5t-92 -17.5l-8 -30q32 -4 52 -20t20 -54q0 -44 -24.5 -65t-86.5 -21h-69v62h67q21 0 28 6t7 18q0 13 -7 18.5t-28 5.5h-33l24 80q-90 7 -135 53t-45 147v178q0 107 51 154t165 47q63 0 103.5 -14
t63.5 -39t32 -59.5t9 -75.5h-134q0 39 -14.5 58.5t-59.5 19.5q-43 0 -61.5 -17.5t-18.5 -67.5v-191q0 -48 19.5 -66t60.5 -18z" />
    <glyph glyph-name="cdotaccent.smcp" horiz-adv-x="504" 
d="M256 98q45 0 59.5 20t14.5 58h134q0 -41 -9 -75.5t-32 -59.5t-63.5 -39t-103.5 -14q-108 0 -162 45.5t-54 155.5v178q0 107 51 154t165 47q63 0 103.5 -14t63.5 -39t32 -59.5t9 -75.5h-134q0 39 -14.5 58.5t-59.5 19.5q-43 0 -61.5 -17.5t-18.5 -67.5v-191
q0 -48 19.5 -66t60.5 -18zM204 710h106v-106h-106v106z" />
    <glyph glyph-name="dcaron.smcp" horiz-adv-x="538" 
d="M60 0v556h225q53 0 91.5 -10t63 -33.5t36.5 -61.5t12 -94v-158q0 -56 -11 -94.5t-35 -61.5t-61.5 -33t-90.5 -10h-230zM272 110q50 0 65 20.5t15 63.5v166q0 43 -15 64.5t-65 21.5h-76v-336h76zM322 600h-147l-54 120h88l39 -54l40 54h88z" />
    <glyph glyph-name="ddotaccent.smcp" horiz-adv-x="538" 
d="M60 0v556h225q53 0 91.5 -10t63 -33.5t36.5 -61.5t12 -94v-158q0 -56 -11 -94.5t-35 -61.5t-61.5 -33t-90.5 -10h-230zM272 110q50 0 65 20.5t15 63.5v166q0 43 -15 64.5t-65 21.5h-76v-336h76zM196 710h106v-106h-106v106z" />
    <glyph glyph-name="dcroat.smcp" horiz-adv-x="538" 
d="M10 323h50v233h225q53 0 91.5 -10t63 -33.5t36.5 -61.5t12 -94v-158q0 -56 -11 -94.5t-35 -61.5t-61.5 -33t-90.5 -10h-230v237h-50v86zM272 110q50 0 65 20.5t15 63.5v166q0 43 -15 64.5t-65 21.5h-76v-123h64v-86h-64v-127h76z" />
    <glyph glyph-name="eth.smcp" horiz-adv-x="538" 
d="M10 323h50v233h225q53 0 91.5 -10t63 -33.5t36.5 -61.5t12 -94v-158q0 -56 -11 -94.5t-35 -61.5t-61.5 -33t-90.5 -10h-230v237h-50v86zM272 110q50 0 65 20.5t15 63.5v166q0 43 -15 64.5t-65 21.5h-76v-123h64v-86h-64v-127h76z" />
    <glyph glyph-name="eacute.smcp" horiz-adv-x="477" 
d="M394 228h-198v-118h231v-110h-367v556h367v-110h-231v-114h198v-104zM232 720h127l-72 -120h-83z" />
    <glyph glyph-name="egrave.smcp" horiz-adv-x="477" 
d="M394 228h-198v-118h231v-110h-367v556h367v-110h-231v-114h198v-104zM316 600h-83l-72 120h127z" />
    <glyph glyph-name="ecircumflex.smcp" horiz-adv-x="477" 
d="M394 228h-198v-118h231v-110h-367v556h367v-110h-231v-114h198v-104zM366 600h-88l-40 54l-39 -54h-88l54 120h147z" />
    <glyph glyph-name="edieresis.smcp" horiz-adv-x="477" 
d="M394 228h-198v-118h231v-110h-367v556h367v-110h-231v-114h198v-104zM112 710h106v-106h-106v106zM278 710h106v-106h-106v106z" />
    <glyph glyph-name="ecaron.smcp" horiz-adv-x="477" 
d="M394 228h-198v-118h231v-110h-367v556h367v-110h-231v-114h198v-104zM322 600h-147l-54 120h88l39 -54l40 54h88z" />
    <glyph glyph-name="emacron.smcp" horiz-adv-x="477" 
d="M394 228h-198v-118h231v-110h-367v556h367v-110h-231v-114h198v-104zM88 700h310v-86h-310v86z" />
    <glyph glyph-name="ebreve.smcp" horiz-adv-x="477" 
d="M394 228h-198v-118h231v-110h-367v556h367v-110h-231v-114h198v-104zM248 596q-64 0 -95 35t-31 99h78q0 -53 48 -53t48 53h78q0 -64 -31 -99t-95 -35z" />
    <glyph glyph-name="eogonek.smcp" horiz-adv-x="477" 
d="M60 0v556h367v-110h-231v-114h198v-104h-198v-118h231v-110q-20 -17 -31 -33t-11 -37q0 -14 9 -20t24 -6h9v-78h-57q-38 0 -61 17t-23 54q0 28 15.5 55.5t44.5 47.5h-286z" />
    <glyph glyph-name="edotaccent.smcp" horiz-adv-x="477" 
d="M394 228h-198v-118h231v-110h-367v556h367v-110h-231v-114h198v-104zM185 710h106v-106h-106v106z" />
    <glyph glyph-name="fdotaccent.smcp" horiz-adv-x="448" 
d="M60 0v556h348v-110h-212v-114h179v-104h-179v-228h-136zM181 710h106v-106h-106v106z" />
    <glyph glyph-name="gcircumflex.smcp" horiz-adv-x="533" 
d="M50 367q0 107 54.5 154t161.5 47q62 0 102 -14.5t63.5 -40t33 -60.5t9.5 -76h-134q0 39 -14.5 60t-59.5 21q-41 0 -60.5 -18t-19.5 -70v-185q0 -48 19.5 -67.5t60.5 -19.5q45 0 60.5 18.5t15.5 47.5v65h-83v104h219v-333h-58l-17 42q-45 -54 -137 -54q-51 0 -91 10.5
t-67.5 34.5t-42.5 62.5t-15 93.5v178zM394 600h-88l-40 54l-39 -54h-88l54 120h147z" />
    <glyph glyph-name="gbreve.smcp" horiz-adv-x="533" 
d="M50 367q0 107 54.5 154t161.5 47q62 0 102 -14.5t63.5 -40t33 -60.5t9.5 -76h-134q0 39 -14.5 60t-59.5 21q-41 0 -60.5 -18t-19.5 -70v-185q0 -48 19.5 -67.5t60.5 -19.5q45 0 60.5 18.5t15.5 47.5v65h-83v104h219v-333h-58l-17 42q-45 -54 -137 -54q-51 0 -91 10.5
t-67.5 34.5t-42.5 62.5t-15 93.5v178zM266 596q-64 0 -95 35t-31 99h78q0 -53 48 -53t48 53h78q0 -64 -31 -99t-95 -35z" />
    <glyph glyph-name="gdotaccent.smcp" horiz-adv-x="533" 
d="M50 367q0 107 54.5 154t161.5 47q62 0 102 -14.5t63.5 -40t33 -60.5t9.5 -76h-134q0 39 -14.5 60t-59.5 21q-41 0 -60.5 -18t-19.5 -70v-185q0 -48 19.5 -67.5t60.5 -19.5q45 0 60.5 18.5t15.5 47.5v65h-83v104h219v-333h-58l-17 42q-45 -54 -137 -54q-51 0 -91 10.5
t-67.5 34.5t-42.5 62.5t-15 93.5v178zM213 710h106v-106h-106v106z" />
    <glyph glyph-name="gcommaaccent.smcp" horiz-adv-x="533" 
d="M50 367q0 107 54.5 154t161.5 47q62 0 102 -14.5t63.5 -40t33 -60.5t9.5 -76h-134q0 39 -14.5 60t-59.5 21q-41 0 -60.5 -18t-19.5 -70v-185q0 -48 19.5 -67.5t60.5 -19.5q45 0 60.5 18.5t15.5 47.5v65h-83v104h219v-333h-58l-17 42q-45 -54 -137 -54q-51 0 -91 10.5
t-67.5 34.5t-42.5 62.5t-15 93.5v178zM217 -50h127l-72 -120h-83z" />
    <glyph glyph-name="hcircumflex.smcp" horiz-adv-x="544" 
d="M484 0h-136v228h-152v-228h-136v556h136v-224h152v224h136v-556zM399 600h-88l-40 54l-39 -54h-88l54 120h147z" />
    <glyph glyph-name="hbar.smcp" horiz-adv-x="544" 
d="M20 488h40v68h136v-68h152v68h136v-68h40v-76h-40v-412h-136v228h-152v-228h-136v412h-40v76zM348 332v80h-152v-80h152z" />
    <glyph glyph-name="iacute.smcp" horiz-adv-x="256" 
d="M60 556h136v-556h-136v556zM118 720h127l-72 -120h-83z" />
    <glyph glyph-name="igrave.smcp" horiz-adv-x="256" 
d="M60 556h136v-556h-136v556zM184 600h-83l-72 120h127z" />
    <glyph glyph-name="icircumflex.smcp" horiz-adv-x="256" 
d="M60 556h136v-556h-136v556zM257 600h-88l-40 54l-39 -54h-88l54 120h147z" />
    <glyph glyph-name="idieresis.smcp" horiz-adv-x="256" 
d="M60 556h136v-556h-136v556zM-7 710h106v-106h-106v106zM159 710h106v-106h-106v106z" />
    <glyph glyph-name="itilde.smcp" horiz-adv-x="256" 
d="M177 686q22 0 22 34h76q0 -69 -22 -94.5t-66 -25.5q-24 0 -38.5 7t-25 16t-20.5 16t-25 7q-22 0 -22 -34h-76q0 69 22.5 94.5t65.5 25.5q24 0 38.5 -7t25 -16t20.5 -16t25 -7zM60 556h136v-556h-136v556z" />
    <glyph glyph-name="imacron.smcp" horiz-adv-x="256" 
d="M23 700h210v-86h-210v86zM60 556h136v-556h-136v556z" />
    <glyph glyph-name="ibreve.smcp" horiz-adv-x="256" 
d="M60 556h136v-556h-136v556zM129 596q-64 0 -95 35t-31 99h78q0 -53 48 -53t48 53h78q0 -64 -31 -99t-95 -35z" />
    <glyph glyph-name="iogonek.smcp" horiz-adv-x="256" 
d="M60 556h136v-556q-20 -17 -31 -33t-11 -37q0 -14 9 -20t24 -6h9v-78h-57q-38 0 -61 17t-23 54q0 28 15.5 55.5t44.5 47.5h-55v556z" />
    <glyph glyph-name="jcircumflex.smcp" horiz-adv-x="344" 
d="M70 446v110h214v-425q0 -41 -9 -68.5t-26.5 -44t-43.5 -23.5t-60 -7q-26 0 -55.5 3t-49.5 9v112q23 -5 38 -7.5t31 -2.5q23 0 31 9.5t8 26.5v308h-78zM299 600h-88l-40 54l-39 -54h-88l54 120h147z" />
    <glyph glyph-name="kcommaaccent.smcp" horiz-adv-x="487" 
d="M196 0h-136v556h136v-227l128 227h152l-171 -276l172 -280h-150l-131 232v-232zM194 -50h127l-72 -120h-83z" />
    <glyph glyph-name="lacute.smcp" horiz-adv-x="396" 
d="M60 556h136v-446h170v-110h-306v556zM118 720h127l-72 -120h-83z" />
    <glyph glyph-name="lcaron.smcp" horiz-adv-x="396" 
d="M228 576h82l-29 -150h-53v150zM60 556h136v-446h170v-110h-306v556z" />
    <glyph glyph-name="lcommaaccent.smcp" horiz-adv-x="396" 
d="M60 556h136v-446h170v-110h-306v556zM148 -50h127l-72 -120h-83z" />
    <glyph glyph-name="ldot.smcp" horiz-adv-x="396" 
d="M228 361h122v-122h-122v122zM60 556h136v-446h170v-110h-306v556z" />
    <glyph glyph-name="lslash.smcp" horiz-adv-x="396" 
d="M60 209l-46 -13v96l46 13v251h136v-210l46 14v-96l-46 -14v-140h170v-110h-306v209z" />
    <glyph glyph-name="mdotaccent.smcp" horiz-adv-x="694" 
d="M346 170h2l95 386h191v-556h-134v230l5 182l-107 -412h-103l-106 412l5 -177v-235h-134v556h191zM294 710h106v-106h-106v106z" />
    <glyph glyph-name="nacute.smcp" horiz-adv-x="555" 
d="M495 0h-169l-140 381v-381h-126v556h169l140 -381v381h126v-556zM265 720h127l-72 -120h-83z" />
    <glyph glyph-name="ntilde.smcp" horiz-adv-x="555" 
d="M495 0h-169l-140 381v-381h-126v556h169l140 -381v381h126v-556zM335 686q14 0 23 8t9 26h78q0 -69 -23 -94.5t-71 -25.5q-26 0 -42.5 7t-30 16t-27 16t-32.5 7q-14 0 -23 -8t-9 -26h-78q0 69 23 94.5t71 25.5q26 0 42.5 -7t30 -16t27 -16t32.5 -7z" />
    <glyph glyph-name="ncaron.smcp" horiz-adv-x="555" 
d="M495 0h-169l-140 381v-381h-126v556h169l140 -381v381h126v-556zM351 600h-147l-54 120h88l39 -54l40 54h88z" />
    <glyph glyph-name="ncommaaccent.smcp" horiz-adv-x="555" 
d="M495 0h-169l-140 381v-381h-126v556h169l140 -381v381h126v-556zM228 -50h127l-72 -120h-83z" />
    <glyph glyph-name="eng.smcp" horiz-adv-x="555" 
d="M495 -39q0 -41 -9 -68.5t-26.5 -44t-43.5 -23.5t-60 -7q-26 0 -55.5 3t-49.5 9v112q23 -5 38 -7.5t31 -2.5q23 0 31 9.5t8 26.5v32h-33l-140 381v-381h-126v556h169l140 -381v381h126v-595z" />
    <glyph glyph-name="oacute.smcp" horiz-adv-x="526" 
d="M486 200q0 -117 -54.5 -164.5t-168.5 -47.5q-113 0 -168 47.5t-55 164.5v157q0 58 13.5 98.5t41.5 65.5t69.5 36t98.5 11t99 -11t69.5 -36t41 -65.5t13.5 -98.5v-157zM350 359q0 56 -20.5 77.5t-66.5 21.5q-47 0 -67 -21.5t-20 -77.5v-161q0 -57 20 -78.5t67 -21.5
t67 21.5t20 78.5v161zM246 720h127l-72 -120h-83z" />
    <glyph glyph-name="ograve.smcp" horiz-adv-x="526" 
d="M486 200q0 -117 -54.5 -164.5t-168.5 -47.5q-113 0 -168 47.5t-55 164.5v157q0 58 13.5 98.5t41.5 65.5t69.5 36t98.5 11t99 -11t69.5 -36t41 -65.5t13.5 -98.5v-157zM350 359q0 56 -20.5 77.5t-66.5 21.5q-47 0 -67 -21.5t-20 -77.5v-161q0 -57 20 -78.5t67 -21.5
t67 21.5t20 78.5v161zM324 600h-83l-72 120h127z" />
    <glyph glyph-name="ocircumflex.smcp" horiz-adv-x="526" 
d="M486 200q0 -117 -54.5 -164.5t-168.5 -47.5q-113 0 -168 47.5t-55 164.5v157q0 58 13.5 98.5t41.5 65.5t69.5 36t98.5 11t99 -11t69.5 -36t41 -65.5t13.5 -98.5v-157zM350 359q0 56 -20.5 77.5t-66.5 21.5q-47 0 -67 -21.5t-20 -77.5v-161q0 -57 20 -78.5t67 -21.5
t67 21.5t20 78.5v161zM390 600h-88l-40 54l-39 -54h-88l54 120h147z" />
    <glyph glyph-name="odieresis.smcp" horiz-adv-x="526" 
d="M486 200q0 -117 -54.5 -164.5t-168.5 -47.5q-113 0 -168 47.5t-55 164.5v157q0 58 13.5 98.5t41.5 65.5t69.5 36t98.5 11t99 -11t69.5 -36t41 -65.5t13.5 -98.5v-157zM350 359q0 56 -20.5 77.5t-66.5 21.5q-47 0 -67 -21.5t-20 -77.5v-161q0 -57 20 -78.5t67 -21.5
t67 21.5t20 78.5v161zM127 710h106v-106h-106v106zM293 710h106v-106h-106v106z" />
    <glyph glyph-name="otilde.smcp" horiz-adv-x="526" 
d="M486 200q0 -117 -54.5 -164.5t-168.5 -47.5q-113 0 -168 47.5t-55 164.5v157q0 58 13.5 98.5t41.5 65.5t69.5 36t98.5 11t99 -11t69.5 -36t41 -65.5t13.5 -98.5v-157zM350 359q0 56 -20.5 77.5t-66.5 21.5q-47 0 -67 -21.5t-20 -77.5v-161q0 -57 20 -78.5t67 -21.5
t67 21.5t20 78.5v161zM321 686q14 0 23 8t9 26h78q0 -69 -23 -94.5t-71 -25.5q-26 0 -42.5 7t-30 16t-27 16t-32.5 7q-14 0 -23 -8t-9 -26h-78q0 69 23 94.5t71 25.5q26 0 42.5 -7t30 -16t27 -16t32.5 -7z" />
    <glyph glyph-name="obreve.smcp" horiz-adv-x="526" 
d="M486 200q0 -117 -54.5 -164.5t-168.5 -47.5q-113 0 -168 47.5t-55 164.5v157q0 58 13.5 98.5t41.5 65.5t69.5 36t98.5 11t99 -11t69.5 -36t41 -65.5t13.5 -98.5v-157zM350 359q0 56 -20.5 77.5t-66.5 21.5q-47 0 -67 -21.5t-20 -77.5v-161q0 -57 20 -78.5t67 -21.5
t67 21.5t20 78.5v161zM263 596q-64 0 -95 35t-31 99h78q0 -53 48 -53t48 53h78q0 -64 -31 -99t-95 -35z" />
    <glyph glyph-name="omacron.smcp" horiz-adv-x="526" 
d="M486 200q0 -117 -54.5 -164.5t-168.5 -47.5q-113 0 -168 47.5t-55 164.5v157q0 58 13.5 98.5t41.5 65.5t69.5 36t98.5 11t99 -11t69.5 -36t41 -65.5t13.5 -98.5v-157zM350 359q0 56 -20.5 77.5t-66.5 21.5q-47 0 -67 -21.5t-20 -77.5v-161q0 -57 20 -78.5t67 -21.5
t67 21.5t20 78.5v161zM108 700h310v-86h-310v86z" />
    <glyph glyph-name="ohungarumlaut.smcp" horiz-adv-x="526" 
d="M486 200q0 -117 -54.5 -164.5t-168.5 -47.5q-113 0 -168 47.5t-55 164.5v157q0 58 13.5 98.5t41.5 65.5t69.5 36t98.5 11t99 -11t69.5 -36t41 -65.5t13.5 -98.5v-157zM350 359q0 56 -20.5 77.5t-66.5 21.5q-47 0 -67 -21.5t-20 -77.5v-161q0 -57 20 -78.5t67 -21.5
t67 21.5t20 78.5v161zM170 720h117l-52 -120h-83zM333 720h117l-72 -120h-83z" />
    <glyph glyph-name="oslash.smcp" horiz-adv-x="526" 
d="M82 48q-42 51 -42 152v157q0 58 13.5 98.5t41.5 65.5t69.5 36t98.5 11q39 0 71.5 -5.5t57.5 -16.5l19 30h75l-42 -68q42 -50 42 -151v-157q0 -117 -54.5 -164.5t-168.5 -47.5q-79 0 -129 22l-18 -30h-76zM176 198l150 242q-19 18 -63 18q-47 0 -67 -21.5t-20 -77.5v-161z
M350 357l-150 -241q19 -18 63 -18q47 0 67 21.5t20 78.5v159z" />
    <glyph glyph-name="oe.smcp" horiz-adv-x="767" 
d="M263 446q-47 0 -67 -21.5t-20 -77.5v-137q0 -57 20 -78.5t67 -21.5h87v336h-87zM263 0q-113 0 -168 47.5t-55 164.5v133q0 58 13.5 98.5t41.5 65.5t69.5 36t98.5 11h454v-110h-231v-114h198v-104h-198v-118h231v-110h-454z" />
    <glyph glyph-name="thorn.smcp" horiz-adv-x="501" 
d="M335 278q0 36 -14.5 55t-56.5 19h-68v-148h68q42 0 56.5 19t14.5 55zM266 462q55 0 94 -9t63.5 -30.5t36 -57t11.5 -87.5t-11.5 -87.5t-36 -57t-63.5 -30.5t-94 -9h-70v-94h-136v556h136v-94h70z" />
    <glyph glyph-name="pdotaccent.smcp" horiz-adv-x="501" 
d="M60 556h206q106 0 155.5 -40.5t49.5 -140.5q0 -52 -12 -87.5t-37.5 -57t-64 -31t-91.5 -9.5h-70v-190h-136v556zM196 294h71q38 0 53 20t15 58q0 36 -14.5 55t-56.5 19h-68v-152zM197 710h106v-106h-106v106z" />
    <glyph glyph-name="racute.smcp" horiz-adv-x="517" 
d="M487 0h-140l-97 190h-54v-190h-136v556h202q55 0 95 -9.5t66.5 -30.5t39 -55.5t12.5 -84.5q0 -76 -26.5 -116t-68.5 -57zM196 294h68q40 0 57.5 19t17.5 59t-17.5 57t-57.5 17h-68v-152zM226 720h127l-72 -120h-83z" />
    <glyph glyph-name="rcaron.smcp" horiz-adv-x="517" 
d="M487 0h-140l-97 190h-54v-190h-136v556h202q55 0 95 -9.5t66.5 -30.5t39 -55.5t12.5 -84.5q0 -76 -26.5 -116t-68.5 -57zM196 294h68q40 0 57.5 19t17.5 59t-17.5 57t-57.5 17h-68v-152zM322 600h-147l-54 120h88l39 -54l40 54h88z" />
    <glyph glyph-name="rcommaaccent.smcp" horiz-adv-x="517" 
d="M487 0h-140l-97 190h-54v-190h-136v556h202q55 0 95 -9.5t66.5 -30.5t39 -55.5t12.5 -84.5q0 -76 -26.5 -116t-68.5 -57zM196 294h68q40 0 57.5 19t17.5 59t-17.5 57t-57.5 17h-68v-152zM209 -50h127l-72 -120h-83z" />
    <glyph glyph-name="sacute.smcp" horiz-adv-x="514" 
d="M256 99q49 0 65.5 16t16.5 46q0 17 -4.5 29t-15.5 19.5t-29 12.5t-45 9q-54 7 -92 19t-62 32t-34.5 49.5t-10.5 73.5q0 78 51 120.5t158 42.5q59 0 98.5 -11t63.5 -33t34.5 -55t10.5 -76h-134q0 35 -16.5 50t-58.5 15q-71 0 -71 -59q0 -19 6 -31t17 -19.5t27.5 -12
t37.5 -7.5q66 -11 106 -24t62 -32.5t29.5 -47t7.5 -66.5q0 -75 -53.5 -122.5t-164.5 -47.5q-63 0 -105.5 11.5t-68 34.5t-36.5 57t-11 78h136q0 -18 3.5 -31.5t13 -22t26 -13t42.5 -4.5zM247 720h127l-72 -120h-83z" />
    <glyph glyph-name="scircumflex.smcp" horiz-adv-x="514" 
d="M256 99q49 0 65.5 16t16.5 46q0 17 -4.5 29t-15.5 19.5t-29 12.5t-45 9q-54 7 -92 19t-62 32t-34.5 49.5t-10.5 73.5q0 78 51 120.5t158 42.5q59 0 98.5 -11t63.5 -33t34.5 -55t10.5 -76h-134q0 35 -16.5 50t-58.5 15q-71 0 -71 -59q0 -19 6 -31t17 -19.5t27.5 -12
t37.5 -7.5q66 -11 106 -24t62 -32.5t29.5 -47t7.5 -66.5q0 -75 -53.5 -122.5t-164.5 -47.5q-63 0 -105.5 11.5t-68 34.5t-36.5 57t-11 78h136q0 -18 3.5 -31.5t13 -22t26 -13t42.5 -4.5zM384 600h-88l-40 54l-39 -54h-88l54 120h147z" />
    <glyph glyph-name="scaron.smcp" horiz-adv-x="514" 
d="M256 99q49 0 65.5 16t16.5 46q0 17 -4.5 29t-15.5 19.5t-29 12.5t-45 9q-54 7 -92 19t-62 32t-34.5 49.5t-10.5 73.5q0 78 51 120.5t158 42.5q59 0 98.5 -11t63.5 -33t34.5 -55t10.5 -76h-134q0 35 -16.5 50t-58.5 15q-71 0 -71 -59q0 -19 6 -31t17 -19.5t27.5 -12
t37.5 -7.5q66 -11 106 -24t62 -32.5t29.5 -47t7.5 -66.5q0 -75 -53.5 -122.5t-164.5 -47.5q-63 0 -105.5 11.5t-68 34.5t-36.5 57t-11 78h136q0 -18 3.5 -31.5t13 -22t26 -13t42.5 -4.5zM330 600h-147l-54 120h88l39 -54l40 54h88z" />
    <glyph glyph-name="sdotaccent.smcp" horiz-adv-x="514" 
d="M256 99q49 0 65.5 16t16.5 46q0 17 -4.5 29t-15.5 19.5t-29 12.5t-45 9q-54 7 -92 19t-62 32t-34.5 49.5t-10.5 73.5q0 78 51 120.5t158 42.5q59 0 98.5 -11t63.5 -33t34.5 -55t10.5 -76h-134q0 35 -16.5 50t-58.5 15q-71 0 -71 -59q0 -19 6 -31t17 -19.5t27.5 -12
t37.5 -7.5q66 -11 106 -24t62 -32.5t29.5 -47t7.5 -66.5q0 -75 -53.5 -122.5t-164.5 -47.5q-63 0 -105.5 11.5t-68 34.5t-36.5 57t-11 78h136q0 -18 3.5 -31.5t13 -22t26 -13t42.5 -4.5zM204 710h106v-106h-106v106z" />
    <glyph glyph-name="scedilla.smcp" horiz-adv-x="514" 
d="M256 103q49 0 65.5 16t16.5 42q0 17 -4.5 29t-15.5 19.5t-29 12.5t-45 9q-54 7 -92 19t-62 32t-34.5 49.5t-10.5 73.5q0 78 51 120.5t158 42.5q59 0 98.5 -11t63.5 -33t34.5 -55t10.5 -76h-134q0 32 -16.5 46.5t-58.5 14.5q-71 0 -71 -55q0 -19 6 -31t17 -19.5t27.5 -12
t37.5 -7.5q66 -11 106 -24t62 -32.5t29.5 -47t7.5 -66.5q0 -71 -48 -117.5t-147 -51.5l-9 -31q32 -4 52 -20t20 -54q0 -44 -24.5 -65t-86.5 -21h-69v62h67q21 0 28 6t7 18q0 13 -7 18.5t-28 5.5h-33l25 81q-53 3 -88.5 16.5t-57.5 36t-31 54.5t-9 73h136q0 -15 3 -27t12 -21
t26 -14t44 -5z" />
    <glyph glyph-name="scommaaccent.smcp" horiz-adv-x="514" 
d="M256 99q49 0 65.5 16t16.5 46q0 17 -4.5 29t-15.5 19.5t-29 12.5t-45 9q-54 7 -92 19t-62 32t-34.5 49.5t-10.5 73.5q0 78 51 120.5t158 42.5q59 0 98.5 -11t63.5 -33t34.5 -55t10.5 -76h-134q0 35 -16.5 50t-58.5 15q-71 0 -71 -59q0 -19 6 -31t17 -19.5t27.5 -12
t37.5 -7.5q66 -11 106 -24t62 -32.5t29.5 -47t7.5 -66.5q0 -75 -53.5 -122.5t-164.5 -47.5q-63 0 -105.5 11.5t-68 34.5t-36.5 57t-11 78h136q0 -18 3.5 -31.5t13 -22t26 -13t42.5 -4.5zM187 -50h127l-72 -120h-83z" />
    <glyph glyph-name="germandbls.smcp" horiz-adv-x="1028" 
d="M256 99q49 0 65.5 16t16.5 46q0 17 -4.5 29t-15.5 19.5t-29 12.5t-45 9q-54 7 -92 19t-62 32t-34.5 49.5t-10.5 73.5q0 78 51 120.5t158 42.5q59 0 98.5 -11t63.5 -33t34.5 -55t10.5 -76h-134q0 35 -16.5 50t-58.5 15q-71 0 -71 -59q0 -19 6 -31t17 -19.5t27.5 -12
t37.5 -7.5q66 -11 106 -24t62 -32.5t29.5 -47t7.5 -66.5q0 -75 -53.5 -122.5t-164.5 -47.5q-63 0 -105.5 11.5t-68 34.5t-36.5 57t-11 78h136q0 -18 3.5 -31.5t13 -22t26 -13t42.5 -4.5zM770 99q49 0 65.5 16t16.5 46q0 17 -4.5 29t-15.5 19.5t-29 12.5t-45 9q-54 7 -92 19
t-62 32t-34.5 49.5t-10.5 73.5q0 78 51 120.5t158 42.5q59 0 98.5 -11t63.5 -33t34.5 -55t10.5 -76h-134q0 35 -16.5 50t-58.5 15q-71 0 -71 -59q0 -19 6 -31t17 -19.5t27.5 -12t37.5 -7.5q66 -11 106 -24t62 -32.5t29.5 -47t7.5 -66.5q0 -75 -53.5 -122.5t-164.5 -47.5
q-63 0 -105.5 11.5t-68 34.5t-36.5 57t-11 78h136q0 -18 3.5 -31.5t13 -22t26 -13t42.5 -4.5z" />
    <glyph glyph-name="tcaron.smcp" horiz-adv-x="438" 
d="M151 446h-131v110h398v-110h-131v-446h-136v446zM292 600h-147l-54 120h88l39 -54l40 54h88z" />
    <glyph glyph-name="tdotaccent.smcp" horiz-adv-x="438" 
d="M151 446h-131v110h398v-110h-131v-446h-136v446zM166 710h106v-106h-106v106z" />
    <glyph glyph-name="tcommaaccent.smcp" horiz-adv-x="438" 
d="M151 446h-131v110h398v-110h-131v-446h-136v446zM155 -50h127l-72 -120h-83z" />
    <glyph glyph-name="tbar.smcp" horiz-adv-x="438" 
d="M64 292h87v154h-131v110h398v-110h-131v-154h87v-86h-87v-206h-136v206h-87v86z" />
    <glyph glyph-name="uacute.smcp" horiz-adv-x="534" 
d="M191 556v-377q0 -43 16.5 -62t59.5 -19t59.5 19t16.5 62v377h136v-377q0 -54 -13.5 -90.5t-40 -58.5t-66.5 -31.5t-92 -9.5q-53 0 -92.5 9.5t-66 31.5t-40 58.5t-13.5 90.5v377h136zM251 720h127l-72 -120h-83z" />
    <glyph glyph-name="ugrave.smcp" horiz-adv-x="534" 
d="M191 556v-377q0 -43 16.5 -62t59.5 -19t59.5 19t16.5 62v377h136v-377q0 -54 -13.5 -90.5t-40 -58.5t-66.5 -31.5t-92 -9.5q-53 0 -92.5 9.5t-66 31.5t-40 58.5t-13.5 90.5v377h136zM344 600h-83l-72 120h127z" />
    <glyph glyph-name="ucircumflex.smcp" horiz-adv-x="534" 
d="M191 556v-377q0 -43 16.5 -62t59.5 -19t59.5 19t16.5 62v377h136v-377q0 -54 -13.5 -90.5t-40 -58.5t-66.5 -31.5t-92 -9.5q-53 0 -92.5 9.5t-66 31.5t-40 58.5t-13.5 90.5v377h136zM394 600h-88l-40 54l-39 -54h-88l54 120h147z" />
    <glyph glyph-name="udieresis.smcp" horiz-adv-x="534" 
d="M191 556v-377q0 -43 16.5 -62t59.5 -19t59.5 19t16.5 62v377h136v-377q0 -54 -13.5 -90.5t-40 -58.5t-66.5 -31.5t-92 -9.5q-53 0 -92.5 9.5t-66 31.5t-40 58.5t-13.5 90.5v377h136zM131 710h106v-106h-106v106zM297 710h106v-106h-106v106z" />
    <glyph glyph-name="utilde.smcp" horiz-adv-x="534" 
d="M191 556v-377q0 -43 16.5 -62t59.5 -19t59.5 19t16.5 62v377h136v-377q0 -54 -13.5 -90.5t-40 -58.5t-66.5 -31.5t-92 -9.5q-53 0 -92.5 9.5t-66 31.5t-40 58.5t-13.5 90.5v377h136zM325 686q14 0 23 8t9 26h78q0 -69 -23 -94.5t-71 -25.5q-26 0 -42.5 7t-30 16t-27 16
t-32.5 7q-14 0 -23 -8t-9 -26h-78q0 69 23 94.5t71 25.5q26 0 42.5 -7t30 -16t27 -16t32.5 -7z" />
    <glyph glyph-name="uring.smcp" horiz-adv-x="534" 
d="M191 556v-377q0 -43 16.5 -62t59.5 -19t59.5 19t16.5 62v377h136v-377q0 -54 -13.5 -90.5t-40 -58.5t-66.5 -31.5t-92 -9.5q-53 0 -92.5 9.5t-66 31.5t-40 58.5t-13.5 90.5v377h136zM267 772q53 0 82 -23t29 -70t-29 -71t-82 -24t-82 24t-29 71t29 70t82 23zM267 642
q39 0 39 37q0 35 -39 35t-39 -35q0 -37 39 -37z" />
    <glyph glyph-name="ubreve.smcp" horiz-adv-x="534" 
d="M191 556v-377q0 -43 16.5 -62t59.5 -19t59.5 19t16.5 62v377h136v-377q0 -54 -13.5 -90.5t-40 -58.5t-66.5 -31.5t-92 -9.5q-53 0 -92.5 9.5t-66 31.5t-40 58.5t-13.5 90.5v377h136zM267 596q-64 0 -95 35t-31 99h78q0 -53 48 -53t48 53h78q0 -64 -31 -99t-95 -35z" />
    <glyph glyph-name="umacron.smcp" horiz-adv-x="534" 
d="M191 556v-377q0 -43 16.5 -62t59.5 -19t59.5 19t16.5 62v377h136v-377q0 -54 -13.5 -90.5t-40 -58.5t-66.5 -31.5t-92 -9.5q-53 0 -92.5 9.5t-66 31.5t-40 58.5t-13.5 90.5v377h136zM112 700h310v-86h-310v86z" />
    <glyph glyph-name="uhungarumlaut.smcp" horiz-adv-x="534" 
d="M191 556v-377q0 -43 16.5 -62t59.5 -19t59.5 19t16.5 62v377h136v-377q0 -54 -13.5 -90.5t-40 -58.5t-66.5 -31.5t-92 -9.5q-53 0 -92.5 9.5t-66 31.5t-40 58.5t-13.5 90.5v377h136zM168 720h117l-52 -120h-83zM331 720h117l-72 -120h-83z" />
    <glyph glyph-name="uogonek.smcp" horiz-adv-x="534" 
d="M191 556v-377q0 -43 16.5 -62t59.5 -19t59.5 19t16.5 62v377h136v-377q0 -84 -31.5 -126t-94.5 -56q-18 -16 -28 -31.5t-10 -35.5q0 -14 9 -20t24 -6h9v-78h-57q-38 0 -61 17t-23 54q0 24 11 48t34 44q-51 0 -89.5 10t-64.5 32t-39 58.5t-13 89.5v377h136z" />
    <glyph glyph-name="wacute.smcp" horiz-adv-x="768" 
d="M459 556l76 -412h2l63 412h138l-115 -556h-165l-74 432l-74 -432h-165l-115 556h138l63 -412h2l76 412h150zM372 720h127l-72 -120h-83z" />
    <glyph glyph-name="wgrave.smcp" horiz-adv-x="768" 
d="M459 556l76 -412h2l63 412h138l-115 -556h-165l-74 432l-74 -432h-165l-115 556h138l63 -412h2l76 412h150zM461 600h-83l-72 120h127z" />
    <glyph glyph-name="wcircumflex.smcp" horiz-adv-x="768" 
d="M459 556l76 -412h2l63 412h138l-115 -556h-165l-74 432l-74 -432h-165l-115 556h138l63 -412h2l76 412h150zM511 600h-88l-40 54l-39 -54h-88l54 120h147z" />
    <glyph glyph-name="wdieresis.smcp" horiz-adv-x="768" 
d="M459 556l76 -412h2l63 412h138l-115 -556h-165l-74 432l-74 -432h-165l-115 556h138l63 -412h2l76 412h150zM248 710h106v-106h-106v106zM414 710h106v-106h-106v106z" />
    <glyph glyph-name="yacute.smcp" horiz-adv-x="465" 
d="M165 203l-150 353h144l73 -230h2l73 230h143l-149 -353v-203h-136v203zM218 720h127l-72 -120h-83z" />
    <glyph glyph-name="ygrave.smcp" horiz-adv-x="465" 
d="M165 203l-150 353h144l73 -230h2l73 230h143l-149 -353v-203h-136v203zM310 600h-83l-72 120h127z" />
    <glyph glyph-name="ycircumflex.smcp" horiz-adv-x="465" 
d="M165 203l-150 353h144l73 -230h2l73 230h143l-149 -353v-203h-136v203zM360 600h-88l-40 54l-39 -54h-88l54 120h147z" />
    <glyph glyph-name="ydieresis.smcp" horiz-adv-x="465" 
d="M165 203l-150 353h144l73 -230h2l73 230h143l-149 -353v-203h-136v203zM96 710h106v-106h-106v106zM262 710h106v-106h-106v106z" />
    <glyph glyph-name="zacute.smcp" horiz-adv-x="481" 
d="M55 556h376v-88l-223 -358h233v-110h-391v87l223 359h-218v110zM220 720h127l-72 -120h-83z" />
    <glyph glyph-name="zcaron.smcp" horiz-adv-x="481" 
d="M55 556h376v-88l-223 -358h233v-110h-391v87l223 359h-218v110zM314 600h-147l-54 120h88l39 -54l40 54h88z" />
    <glyph glyph-name="zdotaccent.smcp" horiz-adv-x="481" 
d="M55 556h376v-88l-223 -358h233v-110h-391v87l223 359h-218v110zM187 710h106v-106h-106v106z" />
    </font>
</defs>
</svg>
